<?xml version="1.0" encoding="utf-8" standalone="no"?>
<!DOCTYPE svg PUBLIC "-//W3C//DTD SVG 1.1//EN"
  "http://www.w3.org/Graphics/SVG/1.1/DTD/svg11.dtd">
<svg xmlns:xlink="http://www.w3.org/1999/xlink" width="460.8pt" height="345.6pt" viewBox="0 0 460.8 345.6" xmlns="http://www.w3.org/2000/svg" version="1.1">
 <metadata>
  <rdf:RDF xmlns:dc="http://purl.org/dc/elements/1.1/" xmlns:cc="http://creativecommons.org/ns#" xmlns:rdf="http://www.w3.org/1999/02/22-rdf-syntax-ns#">
   <cc:Work>
    <dc:type rdf:resource="http://purl.org/dc/dcmitype/StillImage"/>
    <dc:date>2023-04-20T22:13:35.326669</dc:date>
    <dc:format>image/svg+xml</dc:format>
    <dc:creator>
     <cc:Agent>
      <dc:title>Matplotlib v3.5.2, https://matplotlib.org/</dc:title>
     </cc:Agent>
    </dc:creator>
   </cc:Work>
  </rdf:RDF>
 </metadata>
 <defs>
  <style type="text/css">*{stroke-linejoin: round; stroke-linecap: butt}</style>
 </defs>
 <g id="figure_1">
  <g id="patch_1">
   <path d="M 0 345.6 
L 460.8 345.6 
L 460.8 0 
L 0 0 
z
" style="fill: #ffffff"/>
  </g>
  <g id="axes_1">
   <g id="patch_2">
    <path d="M 57.6 139.392 
L 414.72 139.392 
L 414.72 41.472 
L 57.6 41.472 
z
" style="fill: #ffffff"/>
   </g>
   <g id="matplotlib.axis_1">
    <g id="xtick_1">
     <g id="line2d_1">
      <defs>
       <path id="m8364ecaec6" d="M 0 0 
L 0 3.5 
" style="stroke: #000000; stroke-width: 0.8"/>
      </defs>
      <g>
       <use xlink:href="#m8364ecaec6" x="87.174695" y="139.392" style="stroke: #000000; stroke-width: 0.8"/>
      </g>
     </g>
     <g id="text_1">
      <!-- 2022-12 -->
      <g transform="translate(49.949874 173.863846)rotate(-30)scale(0.1 -0.1)">
       <defs>
        <path id="DejaVuSans-32" d="M 1228 531 
L 3431 531 
L 3431 0 
L 469 0 
L 469 531 
Q 828 903 1448 1529 
Q 2069 2156 2228 2338 
Q 2531 2678 2651 2914 
Q 2772 3150 2772 3378 
Q 2772 3750 2511 3984 
Q 2250 4219 1831 4219 
Q 1534 4219 1204 4116 
Q 875 4013 500 3803 
L 500 4441 
Q 881 4594 1212 4672 
Q 1544 4750 1819 4750 
Q 2544 4750 2975 4387 
Q 3406 4025 3406 3419 
Q 3406 3131 3298 2873 
Q 3191 2616 2906 2266 
Q 2828 2175 2409 1742 
Q 1991 1309 1228 531 
z
" transform="scale(0.015625)"/>
        <path id="DejaVuSans-30" d="M 2034 4250 
Q 1547 4250 1301 3770 
Q 1056 3291 1056 2328 
Q 1056 1369 1301 889 
Q 1547 409 2034 409 
Q 2525 409 2770 889 
Q 3016 1369 3016 2328 
Q 3016 3291 2770 3770 
Q 2525 4250 2034 4250 
z
M 2034 4750 
Q 2819 4750 3233 4129 
Q 3647 3509 3647 2328 
Q 3647 1150 3233 529 
Q 2819 -91 2034 -91 
Q 1250 -91 836 529 
Q 422 1150 422 2328 
Q 422 3509 836 4129 
Q 1250 4750 2034 4750 
z
" transform="scale(0.015625)"/>
        <path id="DejaVuSans-2d" d="M 313 2009 
L 1997 2009 
L 1997 1497 
L 313 1497 
L 313 2009 
z
" transform="scale(0.015625)"/>
        <path id="DejaVuSans-31" d="M 794 531 
L 1825 531 
L 1825 4091 
L 703 3866 
L 703 4441 
L 1819 4666 
L 2450 4666 
L 2450 531 
L 3481 531 
L 3481 0 
L 794 0 
L 794 531 
z
" transform="scale(0.015625)"/>
       </defs>
       <use xlink:href="#DejaVuSans-32"/>
       <use xlink:href="#DejaVuSans-30" x="63.623047"/>
       <use xlink:href="#DejaVuSans-32" x="127.246094"/>
       <use xlink:href="#DejaVuSans-32" x="190.869141"/>
       <use xlink:href="#DejaVuSans-2d" x="254.492188"/>
       <use xlink:href="#DejaVuSans-31" x="290.576172"/>
       <use xlink:href="#DejaVuSans-32" x="354.199219"/>
      </g>
     </g>
    </g>
    <g id="xtick_2">
     <g id="line2d_2">
      <g>
       <use xlink:href="#m8364ecaec6" x="156.108194" y="139.392" style="stroke: #000000; stroke-width: 0.8"/>
      </g>
     </g>
     <g id="text_2">
      <!-- 2023-01 -->
      <g transform="translate(118.883373 173.863846)rotate(-30)scale(0.1 -0.1)">
       <defs>
        <path id="DejaVuSans-33" d="M 2597 2516 
Q 3050 2419 3304 2112 
Q 3559 1806 3559 1356 
Q 3559 666 3084 287 
Q 2609 -91 1734 -91 
Q 1441 -91 1130 -33 
Q 819 25 488 141 
L 488 750 
Q 750 597 1062 519 
Q 1375 441 1716 441 
Q 2309 441 2620 675 
Q 2931 909 2931 1356 
Q 2931 1769 2642 2001 
Q 2353 2234 1838 2234 
L 1294 2234 
L 1294 2753 
L 1863 2753 
Q 2328 2753 2575 2939 
Q 2822 3125 2822 3475 
Q 2822 3834 2567 4026 
Q 2313 4219 1838 4219 
Q 1578 4219 1281 4162 
Q 984 4106 628 3988 
L 628 4550 
Q 988 4650 1302 4700 
Q 1616 4750 1894 4750 
Q 2613 4750 3031 4423 
Q 3450 4097 3450 3541 
Q 3450 3153 3228 2886 
Q 3006 2619 2597 2516 
z
" transform="scale(0.015625)"/>
       </defs>
       <use xlink:href="#DejaVuSans-32"/>
       <use xlink:href="#DejaVuSans-30" x="63.623047"/>
       <use xlink:href="#DejaVuSans-32" x="127.246094"/>
       <use xlink:href="#DejaVuSans-33" x="190.869141"/>
       <use xlink:href="#DejaVuSans-2d" x="254.492188"/>
       <use xlink:href="#DejaVuSans-30" x="290.576172"/>
       <use xlink:href="#DejaVuSans-31" x="354.199219"/>
      </g>
     </g>
    </g>
    <g id="xtick_3">
     <g id="line2d_3">
      <g>
       <use xlink:href="#m8364ecaec6" x="225.041694" y="139.392" style="stroke: #000000; stroke-width: 0.8"/>
      </g>
     </g>
     <g id="text_3">
      <!-- 2023-02 -->
      <g transform="translate(187.816873 173.863846)rotate(-30)scale(0.1 -0.1)">
       <use xlink:href="#DejaVuSans-32"/>
       <use xlink:href="#DejaVuSans-30" x="63.623047"/>
       <use xlink:href="#DejaVuSans-32" x="127.246094"/>
       <use xlink:href="#DejaVuSans-33" x="190.869141"/>
       <use xlink:href="#DejaVuSans-2d" x="254.492188"/>
       <use xlink:href="#DejaVuSans-30" x="290.576172"/>
       <use xlink:href="#DejaVuSans-32" x="354.199219"/>
      </g>
     </g>
    </g>
    <g id="xtick_4">
     <g id="line2d_4">
      <g>
       <use xlink:href="#m8364ecaec6" x="287.304209" y="139.392" style="stroke: #000000; stroke-width: 0.8"/>
      </g>
     </g>
     <g id="text_4">
      <!-- 2023-03 -->
      <g transform="translate(250.079388 173.863846)rotate(-30)scale(0.1 -0.1)">
       <use xlink:href="#DejaVuSans-32"/>
       <use xlink:href="#DejaVuSans-30" x="63.623047"/>
       <use xlink:href="#DejaVuSans-32" x="127.246094"/>
       <use xlink:href="#DejaVuSans-33" x="190.869141"/>
       <use xlink:href="#DejaVuSans-2d" x="254.492188"/>
       <use xlink:href="#DejaVuSans-30" x="290.576172"/>
       <use xlink:href="#DejaVuSans-33" x="354.199219"/>
      </g>
     </g>
    </g>
    <g id="xtick_5">
     <g id="line2d_5">
      <g>
       <use xlink:href="#m8364ecaec6" x="356.237709" y="139.392" style="stroke: #000000; stroke-width: 0.8"/>
      </g>
     </g>
     <g id="text_5">
      <!-- 2023-04 -->
      <g transform="translate(319.012888 173.863846)rotate(-30)scale(0.1 -0.1)">
       <defs>
        <path id="DejaVuSans-34" d="M 2419 4116 
L 825 1625 
L 2419 1625 
L 2419 4116 
z
M 2253 4666 
L 3047 4666 
L 3047 1625 
L 3713 1625 
L 3713 1100 
L 3047 1100 
L 3047 0 
L 2419 0 
L 2419 1100 
L 313 1100 
L 313 1709 
L 2253 4666 
z
" transform="scale(0.015625)"/>
       </defs>
       <use xlink:href="#DejaVuSans-32"/>
       <use xlink:href="#DejaVuSans-30" x="63.623047"/>
       <use xlink:href="#DejaVuSans-32" x="127.246094"/>
       <use xlink:href="#DejaVuSans-33" x="190.869141"/>
       <use xlink:href="#DejaVuSans-2d" x="254.492188"/>
       <use xlink:href="#DejaVuSans-30" x="290.576172"/>
       <use xlink:href="#DejaVuSans-34" x="354.199219"/>
      </g>
     </g>
    </g>
    <g id="text_6">
     <!-- Date -->
     <g transform="translate(224.209219 187.263346)scale(0.1 -0.1)">
      <defs>
       <path id="DejaVuSans-44" d="M 1259 4147 
L 1259 519 
L 2022 519 
Q 2988 519 3436 956 
Q 3884 1394 3884 2338 
Q 3884 3275 3436 3711 
Q 2988 4147 2022 4147 
L 1259 4147 
z
M 628 4666 
L 1925 4666 
Q 3281 4666 3915 4102 
Q 4550 3538 4550 2338 
Q 4550 1131 3912 565 
Q 3275 0 1925 0 
L 628 0 
L 628 4666 
z
" transform="scale(0.015625)"/>
       <path id="DejaVuSans-61" d="M 2194 1759 
Q 1497 1759 1228 1600 
Q 959 1441 959 1056 
Q 959 750 1161 570 
Q 1363 391 1709 391 
Q 2188 391 2477 730 
Q 2766 1069 2766 1631 
L 2766 1759 
L 2194 1759 
z
M 3341 1997 
L 3341 0 
L 2766 0 
L 2766 531 
Q 2569 213 2275 61 
Q 1981 -91 1556 -91 
Q 1019 -91 701 211 
Q 384 513 384 1019 
Q 384 1609 779 1909 
Q 1175 2209 1959 2209 
L 2766 2209 
L 2766 2266 
Q 2766 2663 2505 2880 
Q 2244 3097 1772 3097 
Q 1472 3097 1187 3025 
Q 903 2953 641 2809 
L 641 3341 
Q 956 3463 1253 3523 
Q 1550 3584 1831 3584 
Q 2591 3584 2966 3190 
Q 3341 2797 3341 1997 
z
" transform="scale(0.015625)"/>
       <path id="DejaVuSans-74" d="M 1172 4494 
L 1172 3500 
L 2356 3500 
L 2356 3053 
L 1172 3053 
L 1172 1153 
Q 1172 725 1289 603 
Q 1406 481 1766 481 
L 2356 481 
L 2356 0 
L 1766 0 
Q 1100 0 847 248 
Q 594 497 594 1153 
L 594 3053 
L 172 3053 
L 172 3500 
L 594 3500 
L 594 4494 
L 1172 4494 
z
" transform="scale(0.015625)"/>
       <path id="DejaVuSans-65" d="M 3597 1894 
L 3597 1613 
L 953 1613 
Q 991 1019 1311 708 
Q 1631 397 2203 397 
Q 2534 397 2845 478 
Q 3156 559 3463 722 
L 3463 178 
Q 3153 47 2828 -22 
Q 2503 -91 2169 -91 
Q 1331 -91 842 396 
Q 353 884 353 1716 
Q 353 2575 817 3079 
Q 1281 3584 2069 3584 
Q 2775 3584 3186 3129 
Q 3597 2675 3597 1894 
z
M 3022 2063 
Q 3016 2534 2758 2815 
Q 2500 3097 2075 3097 
Q 1594 3097 1305 2825 
Q 1016 2553 972 2059 
L 3022 2063 
z
" transform="scale(0.015625)"/>
      </defs>
      <use xlink:href="#DejaVuSans-44"/>
      <use xlink:href="#DejaVuSans-61" x="77.001953"/>
      <use xlink:href="#DejaVuSans-74" x="138.28125"/>
      <use xlink:href="#DejaVuSans-65" x="177.490234"/>
     </g>
    </g>
   </g>
   <g id="matplotlib.axis_2">
    <g id="ytick_1">
     <g id="line2d_6">
      <defs>
       <path id="m8b58714203" d="M 0 0 
L -3.5 0 
" style="stroke: #000000; stroke-width: 0.8"/>
      </defs>
      <g>
       <use xlink:href="#m8b58714203" x="57.6" y="129.285291" style="stroke: #000000; stroke-width: 0.8"/>
      </g>
     </g>
     <g id="text_7">
      <!-- 100 -->
      <g transform="translate(31.5125 133.08451)scale(0.1 -0.1)">
       <use xlink:href="#DejaVuSans-31"/>
       <use xlink:href="#DejaVuSans-30" x="63.623047"/>
       <use xlink:href="#DejaVuSans-30" x="127.246094"/>
      </g>
     </g>
    </g>
    <g id="ytick_2">
     <g id="line2d_7">
      <g>
       <use xlink:href="#m8b58714203" x="57.6" y="98.17528" style="stroke: #000000; stroke-width: 0.8"/>
      </g>
     </g>
     <g id="text_8">
      <!-- 200 -->
      <g transform="translate(31.5125 101.974499)scale(0.1 -0.1)">
       <use xlink:href="#DejaVuSans-32"/>
       <use xlink:href="#DejaVuSans-30" x="63.623047"/>
       <use xlink:href="#DejaVuSans-30" x="127.246094"/>
      </g>
     </g>
    </g>
    <g id="ytick_3">
     <g id="line2d_8">
      <g>
       <use xlink:href="#m8b58714203" x="57.6" y="67.06527" style="stroke: #000000; stroke-width: 0.8"/>
      </g>
     </g>
     <g id="text_9">
      <!-- 300 -->
      <g transform="translate(31.5125 70.864488)scale(0.1 -0.1)">
       <use xlink:href="#DejaVuSans-33"/>
       <use xlink:href="#DejaVuSans-30" x="63.623047"/>
       <use xlink:href="#DejaVuSans-30" x="127.246094"/>
      </g>
     </g>
    </g>
    <g id="text_10">
     <!-- Stock Price -->
     <g transform="translate(25.432812 118.057)rotate(-90)scale(0.1 -0.1)">
      <defs>
       <path id="DejaVuSans-53" d="M 3425 4513 
L 3425 3897 
Q 3066 4069 2747 4153 
Q 2428 4238 2131 4238 
Q 1616 4238 1336 4038 
Q 1056 3838 1056 3469 
Q 1056 3159 1242 3001 
Q 1428 2844 1947 2747 
L 2328 2669 
Q 3034 2534 3370 2195 
Q 3706 1856 3706 1288 
Q 3706 609 3251 259 
Q 2797 -91 1919 -91 
Q 1588 -91 1214 -16 
Q 841 59 441 206 
L 441 856 
Q 825 641 1194 531 
Q 1563 422 1919 422 
Q 2459 422 2753 634 
Q 3047 847 3047 1241 
Q 3047 1584 2836 1778 
Q 2625 1972 2144 2069 
L 1759 2144 
Q 1053 2284 737 2584 
Q 422 2884 422 3419 
Q 422 4038 858 4394 
Q 1294 4750 2059 4750 
Q 2388 4750 2728 4690 
Q 3069 4631 3425 4513 
z
" transform="scale(0.015625)"/>
       <path id="DejaVuSans-6f" d="M 1959 3097 
Q 1497 3097 1228 2736 
Q 959 2375 959 1747 
Q 959 1119 1226 758 
Q 1494 397 1959 397 
Q 2419 397 2687 759 
Q 2956 1122 2956 1747 
Q 2956 2369 2687 2733 
Q 2419 3097 1959 3097 
z
M 1959 3584 
Q 2709 3584 3137 3096 
Q 3566 2609 3566 1747 
Q 3566 888 3137 398 
Q 2709 -91 1959 -91 
Q 1206 -91 779 398 
Q 353 888 353 1747 
Q 353 2609 779 3096 
Q 1206 3584 1959 3584 
z
" transform="scale(0.015625)"/>
       <path id="DejaVuSans-63" d="M 3122 3366 
L 3122 2828 
Q 2878 2963 2633 3030 
Q 2388 3097 2138 3097 
Q 1578 3097 1268 2742 
Q 959 2388 959 1747 
Q 959 1106 1268 751 
Q 1578 397 2138 397 
Q 2388 397 2633 464 
Q 2878 531 3122 666 
L 3122 134 
Q 2881 22 2623 -34 
Q 2366 -91 2075 -91 
Q 1284 -91 818 406 
Q 353 903 353 1747 
Q 353 2603 823 3093 
Q 1294 3584 2113 3584 
Q 2378 3584 2631 3529 
Q 2884 3475 3122 3366 
z
" transform="scale(0.015625)"/>
       <path id="DejaVuSans-6b" d="M 581 4863 
L 1159 4863 
L 1159 1991 
L 2875 3500 
L 3609 3500 
L 1753 1863 
L 3688 0 
L 2938 0 
L 1159 1709 
L 1159 0 
L 581 0 
L 581 4863 
z
" transform="scale(0.015625)"/>
       <path id="DejaVuSans-20" transform="scale(0.015625)"/>
       <path id="DejaVuSans-50" d="M 1259 4147 
L 1259 2394 
L 2053 2394 
Q 2494 2394 2734 2622 
Q 2975 2850 2975 3272 
Q 2975 3691 2734 3919 
Q 2494 4147 2053 4147 
L 1259 4147 
z
M 628 4666 
L 2053 4666 
Q 2838 4666 3239 4311 
Q 3641 3956 3641 3272 
Q 3641 2581 3239 2228 
Q 2838 1875 2053 1875 
L 1259 1875 
L 1259 0 
L 628 0 
L 628 4666 
z
" transform="scale(0.015625)"/>
       <path id="DejaVuSans-72" d="M 2631 2963 
Q 2534 3019 2420 3045 
Q 2306 3072 2169 3072 
Q 1681 3072 1420 2755 
Q 1159 2438 1159 1844 
L 1159 0 
L 581 0 
L 581 3500 
L 1159 3500 
L 1159 2956 
Q 1341 3275 1631 3429 
Q 1922 3584 2338 3584 
Q 2397 3584 2469 3576 
Q 2541 3569 2628 3553 
L 2631 2963 
z
" transform="scale(0.015625)"/>
       <path id="DejaVuSans-69" d="M 603 3500 
L 1178 3500 
L 1178 0 
L 603 0 
L 603 3500 
z
M 603 4863 
L 1178 4863 
L 1178 4134 
L 603 4134 
L 603 4863 
z
" transform="scale(0.015625)"/>
      </defs>
      <use xlink:href="#DejaVuSans-53"/>
      <use xlink:href="#DejaVuSans-74" x="63.476562"/>
      <use xlink:href="#DejaVuSans-6f" x="102.685547"/>
      <use xlink:href="#DejaVuSans-63" x="163.867188"/>
      <use xlink:href="#DejaVuSans-6b" x="218.847656"/>
      <use xlink:href="#DejaVuSans-20" x="276.757812"/>
      <use xlink:href="#DejaVuSans-50" x="308.544922"/>
      <use xlink:href="#DejaVuSans-72" x="367.097656"/>
      <use xlink:href="#DejaVuSans-69" x="408.210938"/>
      <use xlink:href="#DejaVuSans-63" x="435.994141"/>
      <use xlink:href="#DejaVuSans-65" x="490.974609"/>
     </g>
    </g>
   </g>
   <g id="line2d_9">
    <path d="M 73.832727 130.075485 
L 80.503711 130.514135 
L 82.727372 130.781682 
L 84.951034 128.977302 
L 87.174695 128.977302 
L 89.398356 129.148406 
L 96.06934 129.447062 
L 98.293001 130.224812 
L 100.516663 130.859457 
L 102.740324 131.242111 
L 104.963985 131.515878 
L 111.634969 131.366551 
L 113.85863 130.644799 
L 116.082291 130.819015 
L 118.305953 132.128746 
L 120.529614 132.315405 
L 127.200598 132.881607 
L 129.424259 132.701171 
L 131.64792 132.526953 
L 133.871582 133.093156 
L 136.095243 132.635838 
L 144.989888 133.208263 
L 147.213549 133.634471 
L 149.43721 132.878498 
L 151.660872 132.946938 
L 160.555517 132.670059 
L 162.779178 132.993604 
L 165.002839 133.578473 
L 167.226501 133.223819 
L 173.897484 133.012271 
L 176.121146 132.887831 
L 178.344807 131.923421 
L 180.568468 132.04475 
L 182.79213 131.736759 
L 191.686775 131.994973 
L 193.910436 132.047859 
L 196.134097 131.447436 
L 198.357758 129.90127 
L 205.028742 129.350622 
L 207.252403 130.000822 
L 209.476065 130.772349 
L 211.699726 130.05682 
L 213.923387 129.481283 
L 220.594371 130.237256 
L 222.818032 129.646168 
L 225.041694 129.151518 
L 227.265355 126.877377 
L 229.489016 127.798233 
L 236.16 128.3831 
L 238.383661 126.908486 
L 240.607323 129.481283 
L 242.830984 130.83768 
L 245.054645 130.974565 
L 251.725629 130.96212 
L 253.94929 130.940343 
L 256.172951 130.237256 
L 258.396613 130.68213 
L 260.620274 131.043007 
L 269.514919 131.839422 
L 271.73858 131.882976 
L 273.962242 132.119413 
L 276.185903 132.66695 
L 282.856887 132.436734 
L 285.080548 132.377627 
L 287.304209 132.284296 
L 289.52787 131.774092 
L 291.751532 131.260776 
L 298.422516 130.800349 
L 300.646177 131.195445 
L 302.869838 131.074116 
L 305.093499 131.67454 
L 307.317161 132.2003 
L 313.988144 132.050971 
L 316.211806 131.161224 
L 318.435467 130.49547 
L 320.659128 129.185739 
L 322.88279 128.781308 
L 329.553773 128.905748 
L 331.777435 127.754679 
L 334.001096 128.236883 
L 336.224757 127.543131 
L 338.448418 127.592906 
L 345.119402 128.519985 
L 347.343064 128.964858 
L 349.566725 128.852862 
L 351.790386 129.008412 
L 354.014047 128.124886 
L 360.685031 127.928894 
L 362.908692 127.816898 
L 365.132354 127.894673 
L 367.356015 126.665829 
L 376.25066 127.281805 
L 378.474321 127.620906 
L 380.697983 127.841787 
L 382.921644 126.973817 
L 385.145305 126.525832 
L 391.816289 127.428023 
L 394.03995 127.88534 
L 396.263611 127.984892 
L 398.487273 127.639571 
" clip-path="url(#p4ad0fe9391)" style="fill: none; stroke: #1f77b4; stroke-width: 1.5; stroke-linecap: square"/>
   </g>
   <g id="line2d_10">
    <path d="M 73.832727 131.335439 
L 80.503711 131.167447 
L 82.727372 131.64343 
L 84.951034 130.361697 
L 87.174695 130.685241 
L 89.398356 131.111449 
L 96.06934 132.08208 
L 98.293001 132.940717 
L 100.516663 132.875386 
L 102.740324 132.287407 
L 104.963985 132.679394 
L 111.634969 132.225186 
L 113.85863 131.621653 
L 116.082291 131.904753 
L 118.305953 132.878498 
L 120.529614 133.062046 
L 127.200598 133.976681 
L 129.424259 133.892683 
L 131.64792 133.401146 
L 133.871582 134.328223 
L 136.095243 133.874017 
L 144.989888 134.561548 
L 147.213549 134.941091 
L 149.43721 134.206894 
L 151.660872 134.262893 
L 160.555517 133.69669 
L 162.779178 133.908239 
L 165.002839 134.53666 
L 167.226501 133.615804 
L 173.897484 133.217596 
L 176.121146 132.436734 
L 178.344807 130.812794 
L 180.568468 130.756795 
L 182.79213 129.870158 
L 191.686775 130.514135 
L 193.910436 130.697686 
L 196.134097 131.251443 
L 198.357758 130.140816 
L 205.028742 130.05682 
L 207.252403 130.430139 
L 209.476065 130.162593 
L 211.699726 129.527949 
L 213.923387 128.588427 
L 220.594371 129.114185 
L 222.818032 128.311548 
L 225.041694 127.683125 
L 227.265355 125.268987 
L 229.489016 128.230662 
L 236.16 128.607093 
L 238.383661 128.628869 
L 240.607323 129.269735 
L 242.830984 129.832828 
L 245.054645 130.02882 
L 251.725629 129.428397 
L 253.94929 129.378622 
L 256.172951 128.924414 
L 258.396613 129.860826 
L 260.620274 130.156372 
L 269.514919 130.971453 
L 271.73858 130.595022 
L 273.962242 130.585689 
L 276.185903 131.307442 
L 282.856887 131.226555 
L 285.080548 131.080337 
L 287.304209 131.721205 
L 289.52787 131.73365 
L 291.751532 130.871901 
L 298.422516 131.229667 
L 300.646177 131.291886 
L 302.869838 131.17678 
L 305.093499 131.696317 
L 307.317161 132.169188 
L 313.988144 131.640319 
L 316.211806 130.878124 
L 318.435467 130.467472 
L 320.659128 129.272847 
L 322.88279 129.611947 
L 329.553773 129.99771 
L 331.777435 129.09552 
L 334.001096 129.689722 
L 336.224757 129.68661 
L 338.448418 129.867049 
L 345.119402 129.895047 
L 347.343064 130.143928 
L 349.566725 129.207516 
L 351.790386 128.663091 
L 354.014047 128.261771 
L 360.685031 128.535538 
L 362.908692 128.056446 
L 365.132354 128.943081 
L 367.356015 128.644425 
L 376.25066 128.610204 
L 378.474321 129.310179 
L 380.697983 129.960378 
L 382.921644 128.53865 
L 385.145305 128.504429 
L 391.816289 128.432877 
L 394.03995 128.56976 
L 396.263611 127.947559 
L 398.487273 128.1 
" clip-path="url(#p4ad0fe9391)" style="fill: none; stroke: #ff7f0e; stroke-width: 1.5; stroke-linecap: square"/>
   </g>
   <g id="line2d_11">
    <path d="M 73.832727 114.318265 
L 80.503711 115.528444 
L 82.727372 116.4773 
L 84.951034 114.343153 
L 87.174695 114.256046 
L 89.398356 114.411596 
L 96.06934 114.778691 
L 98.293001 115.935984 
L 100.516663 116.548852 
L 102.740324 116.016873 
L 104.963985 116.169309 
L 111.634969 115.444445 
L 113.85863 115.139569 
L 116.082291 115.842653 
L 118.305953 117.930137 
L 120.529614 118.549228 
L 127.200598 119.214982 
L 129.424259 119.236757 
L 131.64792 118.256793 
L 133.871582 119.258536 
L 136.095243 119.373641 
L 144.989888 119.942955 
L 147.213549 121.184244 
L 149.43721 120.073617 
L 151.660872 119.974067 
L 160.555517 121.486011 
L 162.779178 121.084692 
L 165.002839 121.501567 
L 167.226501 120.070507 
L 173.897484 119.905625 
L 176.121146 119.725186 
L 178.344807 118.866547 
L 180.568468 118.891435 
L 182.79213 118.471453 
L 191.686775 118.104352 
L 193.910436 118.331454 
L 196.134097 118.312789 
L 198.357758 117.503931 
L 205.028742 116.495965 
L 207.252403 116.054204 
L 209.476065 116.26264 
L 211.699726 115.609328 
L 213.923387 114.996465 
L 220.594371 115.907986 
L 222.818032 115.506669 
L 225.041694 115.152015 
L 227.265355 113.475181 
L 229.489016 112.330335 
L 236.16 113.192084 
L 238.383661 112.283672 
L 240.607323 113.132974 
L 242.830984 113.45963 
L 245.054645 113.416076 
L 251.725629 112.532548 
L 253.94929 112.734766 
L 256.172951 112.072121 
L 258.396613 112.576102 
L 260.620274 112.936979 
L 269.514919 114.203159 
L 271.73858 114.069384 
L 273.962242 113.916948 
L 276.185903 114.753803 
L 282.856887 114.377374 
L 285.080548 114.536034 
L 287.304209 115.189346 
L 289.52787 115.002684 
L 291.751532 113.409853 
L 298.422516 112.538772 
L 300.646177 113.232524 
L 302.869838 112.83743 
L 305.093499 113.546738 
L 307.317161 114.196936 
L 313.988144 113.584068 
L 316.211806 112.924537 
L 318.435467 112.800095 
L 320.659128 111.910348 
L 322.88279 112.174785 
L 329.553773 111.428147 
L 331.777435 110.843277 
L 334.001096 111.294371 
L 336.224757 110.952164 
L 338.448418 110.541509 
L 345.119402 111.154377 
L 347.343064 111.350372 
L 349.566725 110.379736 
L 351.790386 109.885088 
L 354.014047 109.094896 
L 360.685031 108.699797 
L 362.908692 108.867789 
L 365.132354 109.44955 
L 367.356015 109.169557 
L 376.25066 109.987752 
L 378.474321 110.370403 
L 380.697983 110.588173 
L 382.921644 108.889569 
L 385.145305 108.998451 
L 391.816289 108.992232 
L 394.03995 108.606466 
L 396.263611 108.245589 
L 398.487273 108.550471 
" clip-path="url(#p4ad0fe9391)" style="fill: none; stroke: #2ca02c; stroke-width: 1.5; stroke-linecap: square"/>
   </g>
   <g id="line2d_12">
    <path d="M 73.832727 125.735638 
L 80.503711 126.553832 
L 82.727372 126.342284 
L 84.951034 123.654379 
L 87.174695 122.926404 
L 89.398356 121.97755 
L 96.06934 122.307315 
L 98.293001 124.892557 
L 100.516663 124.951666 
L 102.740324 124.516126 
L 104.963985 124.338799 
L 111.634969 124.709009 
L 113.85863 123.016623 
L 116.082291 122.568641 
L 118.305953 124.261024 
L 120.529614 123.240616 
L 127.200598 124.78056 
L 129.424259 123.968591 
L 131.64792 123.137952 
L 133.871582 123.959256 
L 136.095243 123.673045 
L 144.989888 124.033922 
L 147.213549 124.425906 
L 149.43721 122.982402 
L 151.660872 122.957516 
L 160.555517 121.588675 
L 162.779178 120.77048 
L 165.002839 120.904253 
L 167.226501 119.946064 
L 173.897484 120.11717 
L 176.121146 119.022097 
L 178.344807 119.053209 
L 180.568468 117.864804 
L 182.79213 117.78081 
L 191.686775 118.284791 
L 193.910436 119.012764 
L 196.134097 118.039024 
L 198.357758 117.037281 
L 205.028742 115.823988 
L 207.252403 115.864432 
L 209.476065 116.374636 
L 211.699726 114.570255 
L 213.923387 113.18897 
L 220.594371 114.644921 
L 222.818032 114.050718 
L 225.041694 112.759655 
L 227.265355 101.668933 
L 229.489016 102.365799 
L 236.16 102.512017 
L 238.383661 100.782301 
L 240.607323 103.330211 
L 242.830984 105.044371 
L 245.054645 106.21722 
L 251.725629 104.574612 
L 253.94929 104.559056 
L 256.172951 105.280806 
L 258.396613 106.749198 
L 260.620274 106.612314 
L 269.514919 106.861195 
L 271.73858 107.159853 
L 273.962242 106.873641 
L 276.185903 107.386955 
L 282.856887 107.651392 
L 285.080548 105.971448 
L 287.304209 106.444322 
L 289.52787 106.099 
L 291.751532 102.764007 
L 298.422516 102.872894 
L 300.646177 102.994223 
L 302.869838 102.851114 
L 305.093499 103.871522 
L 307.317161 104.549723 
L 313.988144 104.117294 
L 316.211806 100.035658 
L 318.435467 98.875256 
L 320.659128 96.641559 
L 322.88279 99.54101 
L 329.553773 98.85659 
L 331.777435 97.503303 
L 334.001096 98.23439 
L 336.224757 96.843772 
L 338.448418 96.30557 
L 345.119402 97.291757 
L 347.343064 97.963734 
L 349.566725 96.510893 
L 351.790386 95.736257 
L 354.014047 94.460744 
L 360.685031 94.1092 
L 362.908692 93.595886 
L 365.132354 94.603852 
L 367.356015 93.166567 
L 376.25066 93.586554 
L 378.474321 93.866542 
L 380.697983 93.819879 
L 382.921644 91.844391 
L 385.145305 91.489737 
L 391.816289 92.307932 
L 394.03995 92.6097 
L 396.263611 93.29101 
L 398.487273 94.1092 
" clip-path="url(#p4ad0fe9391)" style="fill: none; stroke: #d62728; stroke-width: 1.5; stroke-linecap: square"/>
   </g>
   <g id="line2d_13">
    <path d="M 73.832727 71.563775 
L 80.503711 72.92328 
L 82.727372 72.988618 
L 84.951034 65.344886 
L 87.174695 61.792119 
L 89.398356 60.715715 
L 96.06934 63.14852 
L 98.293001 65.335554 
L 100.516663 64.445803 
L 102.740324 63.87338 
L 104.963985 60.840153 
L 111.634969 62.342772 
L 113.85863 60.737495 
L 116.082291 61.518359 
L 118.305953 70.048719 
L 120.529614 69.955392 
L 127.200598 70.705145 
L 129.424259 70.739361 
L 131.64792 67.699917 
L 133.871582 67.765245 
L 136.095243 68.633217 
L 144.989888 71.98998 
L 147.213549 74.257903 
L 149.43721 69.82784 
L 151.660872 68.658101 
L 160.555517 68.636321 
L 162.779178 64.137817 
L 165.002839 64.047595 
L 167.226501 62.227667 
L 173.897484 62.345877 
L 176.121146 58.49757 
L 178.344807 58.584678 
L 180.568468 57.691822 
L 182.79213 56.854962 
L 191.686775 58.908224 
L 193.910436 58.874008 
L 196.134097 62.15611 
L 198.357758 53.843515 
L 205.028742 49.201897 
L 207.252403 47.207754 
L 209.476065 45.922909 
L 211.699726 46.884207 
L 213.923387 48.15972 
L 220.594371 50.542748 
L 222.818032 50.309422 
L 225.041694 47.780177 
L 227.265355 46.255779 
L 229.489016 46.563775 
L 236.16 47.938832 
L 238.383661 47.481514 
L 240.607323 46.274454 
L 242.830984 47.621513 
L 245.054645 52.331573 
L 251.725629 48.844134 
L 253.94929 48.41171 
L 256.172951 47.957497 
L 258.396613 51.289386 
L 260.620274 52.144911 
L 269.514919 55.399016 
L 271.73858 56.214096 
L 273.962242 59.707754 
L 276.185903 61.729905 
L 282.856887 59.900635 
L 285.080548 60.180623 
L 287.304209 62.871637 
L 289.52787 63.369399 
L 291.751532 62.342772 
L 298.422516 63.322736 
L 300.646177 64.430251 
L 302.869838 63.397397 
L 305.093499 67.755912 
L 307.317161 69.317631 
L 313.988144 69.084306 
L 316.211806 68.639435 
L 318.435467 65.886198 
L 320.659128 63.935603 
L 322.88279 65.976419 
L 329.553773 65.469325 
L 331.777435 65.263997 
L 334.001096 68.962982 
L 336.224757 60.728162 
L 338.448418 58.233133 
L 345.119402 58.46024 
L 347.343064 59.748199 
L 349.566725 57.100734 
L 351.790386 55.109695 
L 354.014047 52.916433 
L 360.685031 52.045357 
L 362.908692 52.52134 
L 365.132354 53.890178 
L 367.356015 54.829707 
L 376.25066 54.93548 
L 378.474321 55.178137 
L 380.697983 57.411834 
L 382.921644 52.695555 
L 385.145305 55.047471 
L 391.816289 56.886074 
L 394.03995 56.581192 
L 396.263611 59.872637 
L 398.487273 59.17888 
" clip-path="url(#p4ad0fe9391)" style="fill: none; stroke: #9467bd; stroke-width: 1.5; stroke-linecap: square"/>
   </g>
   <g id="patch_3">
    <path d="M 57.6 139.392 
L 57.6 41.472 
" style="fill: none; stroke: #000000; stroke-width: 0.8; stroke-linejoin: miter; stroke-linecap: square"/>
   </g>
   <g id="patch_4">
    <path d="M 414.72 139.392 
L 414.72 41.472 
" style="fill: none; stroke: #000000; stroke-width: 0.8; stroke-linejoin: miter; stroke-linecap: square"/>
   </g>
   <g id="patch_5">
    <path d="M 57.6 139.392 
L 414.72 139.392 
" style="fill: none; stroke: #000000; stroke-width: 0.8; stroke-linejoin: miter; stroke-linecap: square"/>
   </g>
   <g id="patch_6">
    <path d="M 57.6 41.472 
L 414.72 41.472 
" style="fill: none; stroke: #000000; stroke-width: 0.8; stroke-linejoin: miter; stroke-linecap: square"/>
   </g>
   <g id="text_11">
    <!-- Correlation of Stock EOD Closing Prices -->
    <g transform="translate(118.324687 35.472)scale(0.12 -0.12)">
     <defs>
      <path id="DejaVuSans-43" d="M 4122 4306 
L 4122 3641 
Q 3803 3938 3442 4084 
Q 3081 4231 2675 4231 
Q 1875 4231 1450 3742 
Q 1025 3253 1025 2328 
Q 1025 1406 1450 917 
Q 1875 428 2675 428 
Q 3081 428 3442 575 
Q 3803 722 4122 1019 
L 4122 359 
Q 3791 134 3420 21 
Q 3050 -91 2638 -91 
Q 1578 -91 968 557 
Q 359 1206 359 2328 
Q 359 3453 968 4101 
Q 1578 4750 2638 4750 
Q 3056 4750 3426 4639 
Q 3797 4528 4122 4306 
z
" transform="scale(0.015625)"/>
      <path id="DejaVuSans-6c" d="M 603 4863 
L 1178 4863 
L 1178 0 
L 603 0 
L 603 4863 
z
" transform="scale(0.015625)"/>
      <path id="DejaVuSans-6e" d="M 3513 2113 
L 3513 0 
L 2938 0 
L 2938 2094 
Q 2938 2591 2744 2837 
Q 2550 3084 2163 3084 
Q 1697 3084 1428 2787 
Q 1159 2491 1159 1978 
L 1159 0 
L 581 0 
L 581 3500 
L 1159 3500 
L 1159 2956 
Q 1366 3272 1645 3428 
Q 1925 3584 2291 3584 
Q 2894 3584 3203 3211 
Q 3513 2838 3513 2113 
z
" transform="scale(0.015625)"/>
      <path id="DejaVuSans-66" d="M 2375 4863 
L 2375 4384 
L 1825 4384 
Q 1516 4384 1395 4259 
Q 1275 4134 1275 3809 
L 1275 3500 
L 2222 3500 
L 2222 3053 
L 1275 3053 
L 1275 0 
L 697 0 
L 697 3053 
L 147 3053 
L 147 3500 
L 697 3500 
L 697 3744 
Q 697 4328 969 4595 
Q 1241 4863 1831 4863 
L 2375 4863 
z
" transform="scale(0.015625)"/>
      <path id="DejaVuSans-45" d="M 628 4666 
L 3578 4666 
L 3578 4134 
L 1259 4134 
L 1259 2753 
L 3481 2753 
L 3481 2222 
L 1259 2222 
L 1259 531 
L 3634 531 
L 3634 0 
L 628 0 
L 628 4666 
z
" transform="scale(0.015625)"/>
      <path id="DejaVuSans-4f" d="M 2522 4238 
Q 1834 4238 1429 3725 
Q 1025 3213 1025 2328 
Q 1025 1447 1429 934 
Q 1834 422 2522 422 
Q 3209 422 3611 934 
Q 4013 1447 4013 2328 
Q 4013 3213 3611 3725 
Q 3209 4238 2522 4238 
z
M 2522 4750 
Q 3503 4750 4090 4092 
Q 4678 3434 4678 2328 
Q 4678 1225 4090 567 
Q 3503 -91 2522 -91 
Q 1538 -91 948 565 
Q 359 1222 359 2328 
Q 359 3434 948 4092 
Q 1538 4750 2522 4750 
z
" transform="scale(0.015625)"/>
      <path id="DejaVuSans-73" d="M 2834 3397 
L 2834 2853 
Q 2591 2978 2328 3040 
Q 2066 3103 1784 3103 
Q 1356 3103 1142 2972 
Q 928 2841 928 2578 
Q 928 2378 1081 2264 
Q 1234 2150 1697 2047 
L 1894 2003 
Q 2506 1872 2764 1633 
Q 3022 1394 3022 966 
Q 3022 478 2636 193 
Q 2250 -91 1575 -91 
Q 1294 -91 989 -36 
Q 684 19 347 128 
L 347 722 
Q 666 556 975 473 
Q 1284 391 1588 391 
Q 1994 391 2212 530 
Q 2431 669 2431 922 
Q 2431 1156 2273 1281 
Q 2116 1406 1581 1522 
L 1381 1569 
Q 847 1681 609 1914 
Q 372 2147 372 2553 
Q 372 3047 722 3315 
Q 1072 3584 1716 3584 
Q 2034 3584 2315 3537 
Q 2597 3491 2834 3397 
z
" transform="scale(0.015625)"/>
      <path id="DejaVuSans-67" d="M 2906 1791 
Q 2906 2416 2648 2759 
Q 2391 3103 1925 3103 
Q 1463 3103 1205 2759 
Q 947 2416 947 1791 
Q 947 1169 1205 825 
Q 1463 481 1925 481 
Q 2391 481 2648 825 
Q 2906 1169 2906 1791 
z
M 3481 434 
Q 3481 -459 3084 -895 
Q 2688 -1331 1869 -1331 
Q 1566 -1331 1297 -1286 
Q 1028 -1241 775 -1147 
L 775 -588 
Q 1028 -725 1275 -790 
Q 1522 -856 1778 -856 
Q 2344 -856 2625 -561 
Q 2906 -266 2906 331 
L 2906 616 
Q 2728 306 2450 153 
Q 2172 0 1784 0 
Q 1141 0 747 490 
Q 353 981 353 1791 
Q 353 2603 747 3093 
Q 1141 3584 1784 3584 
Q 2172 3584 2450 3431 
Q 2728 3278 2906 2969 
L 2906 3500 
L 3481 3500 
L 3481 434 
z
" transform="scale(0.015625)"/>
     </defs>
     <use xlink:href="#DejaVuSans-43"/>
     <use xlink:href="#DejaVuSans-6f" x="69.824219"/>
     <use xlink:href="#DejaVuSans-72" x="131.005859"/>
     <use xlink:href="#DejaVuSans-72" x="170.369141"/>
     <use xlink:href="#DejaVuSans-65" x="209.232422"/>
     <use xlink:href="#DejaVuSans-6c" x="270.755859"/>
     <use xlink:href="#DejaVuSans-61" x="298.539062"/>
     <use xlink:href="#DejaVuSans-74" x="359.818359"/>
     <use xlink:href="#DejaVuSans-69" x="399.027344"/>
     <use xlink:href="#DejaVuSans-6f" x="426.810547"/>
     <use xlink:href="#DejaVuSans-6e" x="487.992188"/>
     <use xlink:href="#DejaVuSans-20" x="551.371094"/>
     <use xlink:href="#DejaVuSans-6f" x="583.158203"/>
     <use xlink:href="#DejaVuSans-66" x="644.339844"/>
     <use xlink:href="#DejaVuSans-20" x="679.544922"/>
     <use xlink:href="#DejaVuSans-53" x="711.332031"/>
     <use xlink:href="#DejaVuSans-74" x="774.808594"/>
     <use xlink:href="#DejaVuSans-6f" x="814.017578"/>
     <use xlink:href="#DejaVuSans-63" x="875.199219"/>
     <use xlink:href="#DejaVuSans-6b" x="930.179688"/>
     <use xlink:href="#DejaVuSans-20" x="988.089844"/>
     <use xlink:href="#DejaVuSans-45" x="1019.876953"/>
     <use xlink:href="#DejaVuSans-4f" x="1083.060547"/>
     <use xlink:href="#DejaVuSans-44" x="1161.771484"/>
     <use xlink:href="#DejaVuSans-20" x="1238.773438"/>
     <use xlink:href="#DejaVuSans-43" x="1270.560547"/>
     <use xlink:href="#DejaVuSans-6c" x="1340.384766"/>
     <use xlink:href="#DejaVuSans-6f" x="1368.167969"/>
     <use xlink:href="#DejaVuSans-73" x="1429.349609"/>
     <use xlink:href="#DejaVuSans-69" x="1481.449219"/>
     <use xlink:href="#DejaVuSans-6e" x="1509.232422"/>
     <use xlink:href="#DejaVuSans-67" x="1572.611328"/>
     <use xlink:href="#DejaVuSans-20" x="1636.087891"/>
     <use xlink:href="#DejaVuSans-50" x="1667.875"/>
     <use xlink:href="#DejaVuSans-72" x="1726.427734"/>
     <use xlink:href="#DejaVuSans-69" x="1767.541016"/>
     <use xlink:href="#DejaVuSans-63" x="1795.324219"/>
     <use xlink:href="#DejaVuSans-65" x="1850.304688"/>
     <use xlink:href="#DejaVuSans-73" x="1911.828125"/>
    </g>
   </g>
  </g>
  <g id="axes_2">
   <g id="patch_7">
    <path d="M 57.6 276.48 
L 414.72 276.48 
L 414.72 178.56 
L 57.6 178.56 
z
" style="fill: #ffffff"/>
   </g>
   <g id="matplotlib.axis_3">
    <g id="xtick_6">
     <g id="line2d_14">
      <g>
       <use xlink:href="#m8364ecaec6" x="87.174695" y="276.48" style="stroke: #000000; stroke-width: 0.8"/>
      </g>
     </g>
     <g id="text_12">
      <!-- 2022-12 -->
      <g transform="translate(49.949874 310.951846)rotate(-30)scale(0.1 -0.1)">
       <use xlink:href="#DejaVuSans-32"/>
       <use xlink:href="#DejaVuSans-30" x="63.623047"/>
       <use xlink:href="#DejaVuSans-32" x="127.246094"/>
       <use xlink:href="#DejaVuSans-32" x="190.869141"/>
       <use xlink:href="#DejaVuSans-2d" x="254.492188"/>
       <use xlink:href="#DejaVuSans-31" x="290.576172"/>
       <use xlink:href="#DejaVuSans-32" x="354.199219"/>
      </g>
     </g>
    </g>
    <g id="xtick_7">
     <g id="line2d_15">
      <g>
       <use xlink:href="#m8364ecaec6" x="156.108194" y="276.48" style="stroke: #000000; stroke-width: 0.8"/>
      </g>
     </g>
     <g id="text_13">
      <!-- 2023-01 -->
      <g transform="translate(118.883373 310.951846)rotate(-30)scale(0.1 -0.1)">
       <use xlink:href="#DejaVuSans-32"/>
       <use xlink:href="#DejaVuSans-30" x="63.623047"/>
       <use xlink:href="#DejaVuSans-32" x="127.246094"/>
       <use xlink:href="#DejaVuSans-33" x="190.869141"/>
       <use xlink:href="#DejaVuSans-2d" x="254.492188"/>
       <use xlink:href="#DejaVuSans-30" x="290.576172"/>
       <use xlink:href="#DejaVuSans-31" x="354.199219"/>
      </g>
     </g>
    </g>
    <g id="xtick_8">
     <g id="line2d_16">
      <g>
       <use xlink:href="#m8364ecaec6" x="225.041694" y="276.48" style="stroke: #000000; stroke-width: 0.8"/>
      </g>
     </g>
     <g id="text_14">
      <!-- 2023-02 -->
      <g transform="translate(187.816873 310.951846)rotate(-30)scale(0.1 -0.1)">
       <use xlink:href="#DejaVuSans-32"/>
       <use xlink:href="#DejaVuSans-30" x="63.623047"/>
       <use xlink:href="#DejaVuSans-32" x="127.246094"/>
       <use xlink:href="#DejaVuSans-33" x="190.869141"/>
       <use xlink:href="#DejaVuSans-2d" x="254.492188"/>
       <use xlink:href="#DejaVuSans-30" x="290.576172"/>
       <use xlink:href="#DejaVuSans-32" x="354.199219"/>
      </g>
     </g>
    </g>
    <g id="xtick_9">
     <g id="line2d_17">
      <g>
       <use xlink:href="#m8364ecaec6" x="287.304209" y="276.48" style="stroke: #000000; stroke-width: 0.8"/>
      </g>
     </g>
     <g id="text_15">
      <!-- 2023-03 -->
      <g transform="translate(250.079388 310.951846)rotate(-30)scale(0.1 -0.1)">
       <use xlink:href="#DejaVuSans-32"/>
       <use xlink:href="#DejaVuSans-30" x="63.623047"/>
       <use xlink:href="#DejaVuSans-32" x="127.246094"/>
       <use xlink:href="#DejaVuSans-33" x="190.869141"/>
       <use xlink:href="#DejaVuSans-2d" x="254.492188"/>
       <use xlink:href="#DejaVuSans-30" x="290.576172"/>
       <use xlink:href="#DejaVuSans-33" x="354.199219"/>
      </g>
     </g>
    </g>
    <g id="xtick_10">
     <g id="line2d_18">
      <g>
       <use xlink:href="#m8364ecaec6" x="356.237709" y="276.48" style="stroke: #000000; stroke-width: 0.8"/>
      </g>
     </g>
     <g id="text_16">
      <!-- 2023-04 -->
      <g transform="translate(319.012888 310.951846)rotate(-30)scale(0.1 -0.1)">
       <use xlink:href="#DejaVuSans-32"/>
       <use xlink:href="#DejaVuSans-30" x="63.623047"/>
       <use xlink:href="#DejaVuSans-32" x="127.246094"/>
       <use xlink:href="#DejaVuSans-33" x="190.869141"/>
       <use xlink:href="#DejaVuSans-2d" x="254.492188"/>
       <use xlink:href="#DejaVuSans-30" x="290.576172"/>
       <use xlink:href="#DejaVuSans-34" x="354.199219"/>
      </g>
     </g>
    </g>
    <g id="text_17">
     <!-- Date -->
     <g transform="translate(224.209219 324.351346)scale(0.1 -0.1)">
      <use xlink:href="#DejaVuSans-44"/>
      <use xlink:href="#DejaVuSans-61" x="77.001953"/>
      <use xlink:href="#DejaVuSans-74" x="138.28125"/>
      <use xlink:href="#DejaVuSans-65" x="177.490234"/>
     </g>
    </g>
   </g>
   <g id="matplotlib.axis_4">
    <g id="ytick_4">
     <g id="line2d_19">
      <g>
       <use xlink:href="#m8b58714203" x="57.6" y="273.531332" style="stroke: #000000; stroke-width: 0.8"/>
      </g>
     </g>
     <g id="text_18">
      <!-- 0.0 -->
      <g transform="translate(34.696875 277.33055)scale(0.1 -0.1)">
       <defs>
        <path id="DejaVuSans-2e" d="M 684 794 
L 1344 794 
L 1344 0 
L 684 0 
L 684 794 
z
" transform="scale(0.015625)"/>
       </defs>
       <use xlink:href="#DejaVuSans-30"/>
       <use xlink:href="#DejaVuSans-2e" x="63.623047"/>
       <use xlink:href="#DejaVuSans-30" x="95.410156"/>
      </g>
     </g>
    </g>
    <g id="ytick_5">
     <g id="line2d_20">
      <g>
       <use xlink:href="#m8b58714203" x="57.6" y="245.271412" style="stroke: #000000; stroke-width: 0.8"/>
      </g>
     </g>
     <g id="text_19">
      <!-- 0.5 -->
      <g transform="translate(34.696875 249.070631)scale(0.1 -0.1)">
       <defs>
        <path id="DejaVuSans-35" d="M 691 4666 
L 3169 4666 
L 3169 4134 
L 1269 4134 
L 1269 2991 
Q 1406 3038 1543 3061 
Q 1681 3084 1819 3084 
Q 2600 3084 3056 2656 
Q 3513 2228 3513 1497 
Q 3513 744 3044 326 
Q 2575 -91 1722 -91 
Q 1428 -91 1123 -41 
Q 819 9 494 109 
L 494 744 
Q 775 591 1075 516 
Q 1375 441 1709 441 
Q 2250 441 2565 725 
Q 2881 1009 2881 1497 
Q 2881 1984 2565 2268 
Q 2250 2553 1709 2553 
Q 1456 2553 1204 2497 
Q 953 2441 691 2322 
L 691 4666 
z
" transform="scale(0.015625)"/>
       </defs>
       <use xlink:href="#DejaVuSans-30"/>
       <use xlink:href="#DejaVuSans-2e" x="63.623047"/>
       <use xlink:href="#DejaVuSans-35" x="95.410156"/>
      </g>
     </g>
    </g>
    <g id="ytick_6">
     <g id="line2d_21">
      <g>
       <use xlink:href="#m8b58714203" x="57.6" y="217.011492" style="stroke: #000000; stroke-width: 0.8"/>
      </g>
     </g>
     <g id="text_20">
      <!-- 1.0 -->
      <g transform="translate(34.696875 220.810711)scale(0.1 -0.1)">
       <use xlink:href="#DejaVuSans-31"/>
       <use xlink:href="#DejaVuSans-2e" x="63.623047"/>
       <use xlink:href="#DejaVuSans-30" x="95.410156"/>
      </g>
     </g>
    </g>
    <g id="ytick_7">
     <g id="line2d_22">
      <g>
       <use xlink:href="#m8b58714203" x="57.6" y="188.751573" style="stroke: #000000; stroke-width: 0.8"/>
      </g>
     </g>
     <g id="text_21">
      <!-- 1.5 -->
      <g transform="translate(34.696875 192.550791)scale(0.1 -0.1)">
       <use xlink:href="#DejaVuSans-31"/>
       <use xlink:href="#DejaVuSans-2e" x="63.623047"/>
       <use xlink:href="#DejaVuSans-35" x="95.410156"/>
      </g>
     </g>
    </g>
    <g id="text_22">
     <!-- Stock Volume -->
     <g transform="translate(28.617187 261.544219)rotate(-90)scale(0.1 -0.1)">
      <defs>
       <path id="DejaVuSans-56" d="M 1831 0 
L 50 4666 
L 709 4666 
L 2188 738 
L 3669 4666 
L 4325 4666 
L 2547 0 
L 1831 0 
z
" transform="scale(0.015625)"/>
       <path id="DejaVuSans-75" d="M 544 1381 
L 544 3500 
L 1119 3500 
L 1119 1403 
Q 1119 906 1312 657 
Q 1506 409 1894 409 
Q 2359 409 2629 706 
Q 2900 1003 2900 1516 
L 2900 3500 
L 3475 3500 
L 3475 0 
L 2900 0 
L 2900 538 
Q 2691 219 2414 64 
Q 2138 -91 1772 -91 
Q 1169 -91 856 284 
Q 544 659 544 1381 
z
M 1991 3584 
L 1991 3584 
z
" transform="scale(0.015625)"/>
       <path id="DejaVuSans-6d" d="M 3328 2828 
Q 3544 3216 3844 3400 
Q 4144 3584 4550 3584 
Q 5097 3584 5394 3201 
Q 5691 2819 5691 2113 
L 5691 0 
L 5113 0 
L 5113 2094 
Q 5113 2597 4934 2840 
Q 4756 3084 4391 3084 
Q 3944 3084 3684 2787 
Q 3425 2491 3425 1978 
L 3425 0 
L 2847 0 
L 2847 2094 
Q 2847 2600 2669 2842 
Q 2491 3084 2119 3084 
Q 1678 3084 1418 2786 
Q 1159 2488 1159 1978 
L 1159 0 
L 581 0 
L 581 3500 
L 1159 3500 
L 1159 2956 
Q 1356 3278 1631 3431 
Q 1906 3584 2284 3584 
Q 2666 3584 2933 3390 
Q 3200 3197 3328 2828 
z
" transform="scale(0.015625)"/>
      </defs>
      <use xlink:href="#DejaVuSans-53"/>
      <use xlink:href="#DejaVuSans-74" x="63.476562"/>
      <use xlink:href="#DejaVuSans-6f" x="102.685547"/>
      <use xlink:href="#DejaVuSans-63" x="163.867188"/>
      <use xlink:href="#DejaVuSans-6b" x="218.847656"/>
      <use xlink:href="#DejaVuSans-20" x="276.757812"/>
      <use xlink:href="#DejaVuSans-56" x="308.544922"/>
      <use xlink:href="#DejaVuSans-6f" x="369.203125"/>
      <use xlink:href="#DejaVuSans-6c" x="430.384766"/>
      <use xlink:href="#DejaVuSans-75" x="458.167969"/>
      <use xlink:href="#DejaVuSans-6d" x="521.546875"/>
      <use xlink:href="#DejaVuSans-65" x="618.958984"/>
     </g>
    </g>
    <g id="text_23">
     <!-- 1e8 -->
     <g transform="translate(57.6 175.56)scale(0.1 -0.1)">
      <defs>
       <path id="DejaVuSans-38" d="M 2034 2216 
Q 1584 2216 1326 1975 
Q 1069 1734 1069 1313 
Q 1069 891 1326 650 
Q 1584 409 2034 409 
Q 2484 409 2743 651 
Q 3003 894 3003 1313 
Q 3003 1734 2745 1975 
Q 2488 2216 2034 2216 
z
M 1403 2484 
Q 997 2584 770 2862 
Q 544 3141 544 3541 
Q 544 4100 942 4425 
Q 1341 4750 2034 4750 
Q 2731 4750 3128 4425 
Q 3525 4100 3525 3541 
Q 3525 3141 3298 2862 
Q 3072 2584 2669 2484 
Q 3125 2378 3379 2068 
Q 3634 1759 3634 1313 
Q 3634 634 3220 271 
Q 2806 -91 2034 -91 
Q 1263 -91 848 271 
Q 434 634 434 1313 
Q 434 1759 690 2068 
Q 947 2378 1403 2484 
z
M 1172 3481 
Q 1172 3119 1398 2916 
Q 1625 2713 2034 2713 
Q 2441 2713 2670 2916 
Q 2900 3119 2900 3481 
Q 2900 3844 2670 4047 
Q 2441 4250 2034 4250 
Q 1625 4250 1398 4047 
Q 1172 3844 1172 3481 
z
" transform="scale(0.015625)"/>
      </defs>
      <use xlink:href="#DejaVuSans-31"/>
      <use xlink:href="#DejaVuSans-65" x="63.623047"/>
      <use xlink:href="#DejaVuSans-38" x="125.146484"/>
     </g>
    </g>
   </g>
   <g id="line2d_23">
    <path d="M 73.832727 268.048116 
L 80.503711 258.701939 
L 82.727372 262.192491 
L 84.951034 248.861835 
L 87.174695 257.317429 
L 89.398356 261.390475 
L 96.06934 259.737608 
L 98.293001 259.451844 
L 100.516663 255.984522 
L 102.740324 255.324426 
L 104.963985 257.578381 
L 111.634969 256.903195 
L 113.85863 250.587838 
L 116.082291 257.291147 
L 118.305953 250.86292 
L 120.529614 240.743156 
L 127.200598 256.861935 
L 129.424259 260.275282 
L 131.64792 259.545158 
L 133.871582 257.898905 
L 136.095243 260.530073 
L 144.989888 262.17237 
L 147.213549 262.49685 
L 149.43721 260.343275 
L 151.660872 259.974313 
L 160.555517 257.631623 
L 162.779178 253.831455 
L 165.002839 258.161101 
L 167.226501 250.142574 
L 173.897484 257.138374 
L 176.121146 256.31098 
L 178.344807 258.348972 
L 180.568468 256.429502 
L 182.79213 258.65011 
L 191.686775 255.104508 
L 193.910436 257.07462 
L 196.134097 252.618765 
L 198.357758 237.815824 
L 205.028742 250.920513 
L 207.252403 254.835417 
L 209.476065 249.606484 
L 211.699726 256.510947 
L 213.923387 254.382523 
L 220.594371 258.143127 
L 222.818032 256.64846 
L 225.041694 253.449211 
L 227.265355 234.03312 
L 229.489016 236.61862 
L 236.16 255.445209 
L 238.383661 245.830845 
L 240.607323 219.982458 
L 242.830984 206.015558 
L 245.054645 242.456328 
L 251.725629 245.2284 
L 253.94929 242.600228 
L 256.172951 245.175894 
L 258.396613 249.531538 
L 260.620274 254.154013 
L 269.514919 254.524105 
L 271.73858 256.075745 
L 273.962242 250.241541 
L 276.185903 252.853492 
L 282.856887 257.987076 
L 285.080548 256.495122 
L 287.304209 255.947331 
L 289.52787 255.329457 
L 291.751532 253.6589 
L 298.422516 255.083652 
L 300.646177 257.798752 
L 302.869838 254.256201 
L 305.093499 257.245988 
L 307.317161 253.217536 
L 313.988144 252.429311 
L 316.211806 253.155817 
L 318.435467 244.919802 
L 320.659128 236.515359 
L 322.88279 239.038122 
L 329.553773 254.902167 
L 331.777435 249.730658 
L 334.001096 248.986235 
L 336.224757 250.472481 
L 338.448418 256.343083 
L 345.119402 255.941849 
L 347.343064 255.412258 
L 349.566725 257.265148 
L 351.790386 254.831065 
L 354.014047 252.718918 
L 360.685031 259.381364 
L 362.908692 259.72913 
L 365.132354 257.541587 
L 367.356015 245.99967 
L 376.25066 258.232881 
L 378.474321 258.659945 
L 380.697983 259.757277 
L 382.921644 259.489769 
L 385.145305 258.526558 
L 391.816289 252.29615 
L 394.03995 258.499089 
L 396.263611 261.715464 
L 398.487273 257.825486 
" clip-path="url(#pfa8318c620)" style="fill: none; stroke: #1f77b4; stroke-width: 1.5; stroke-linecap: square"/>
   </g>
   <g id="line2d_24">
    <path d="M 73.832727 253.699311 
L 80.503711 231.173612 
L 82.727372 236.472799 
L 84.951034 215.425659 
L 87.174695 234.822024 
L 89.398356 232.556483 
L 96.06934 233.099582 
L 98.293001 230.856818 
L 100.516663 235.048725 
L 102.740324 232.098955 
L 104.963985 235.437808 
L 111.634969 238.489144 
L 113.85863 216.89167 
L 116.082291 233.799015 
L 118.305953 225.600869 
L 120.529614 190.930921 
L 127.200598 226.319462 
L 129.424259 231.509792 
L 131.64792 240.033605 
L 133.871582 227.506492 
L 136.095243 241.069897 
L 144.989888 241.154507 
L 147.213549 240.620621 
L 149.43721 242.447737 
L 151.660872 238.262274 
L 160.555517 230.177224 
L 162.779178 234.597584 
L 165.002839 235.136953 
L 167.226501 226.448384 
L 173.897484 236.643037 
L 176.121146 235.23541 
L 178.344807 215.244569 
L 180.568468 225.345456 
L 182.79213 225.178948 
L 191.686775 232.410323 
L 193.910436 228.558269 
L 196.134097 234.531117 
L 198.357758 235.390896 
L 205.028742 230.293033 
L 207.252403 235.702886 
L 209.476065 220.254827 
L 211.699726 234.801903 
L 213.923387 223.920704 
L 220.594371 233.576383 
L 222.818032 235.930209 
L 225.041694 228.061064 
L 227.265355 184.142832 
L 229.489016 191.930927 
L 236.16 227.216036 
L 238.383661 205.989389 
L 240.607323 230.645038 
L 242.830984 237.006799 
L 245.054645 243.722712 
L 251.725629 243.665401 
L 253.94929 241.765543 
L 256.172951 246.425773 
L 258.396613 241.688506 
L 260.620274 239.602811 
L 269.514919 241.552181 
L 271.73858 239.882754 
L 273.962242 246.137861 
L 276.185903 241.284616 
L 282.856887 246.701194 
L 285.080548 248.685606 
L 287.304209 243.971738 
L 289.52787 242.157508 
L 291.751532 242.016095 
L 298.422516 244.077487 
L 300.646177 245.779695 
L 302.869838 248.154433 
L 305.093499 241.756613 
L 307.317161 234.064941 
L 313.988144 232.612607 
L 316.211806 239.103572 
L 318.435467 233.553832 
L 320.659128 225.802079 
L 322.88279 224.189399 
L 329.553773 238.269226 
L 331.777435 240.412232 
L 334.001096 241.046328 
L 336.224757 240.998908 
L 338.448418 241.826302 
L 345.119402 247.124528 
L 347.343064 251.646793 
L 349.566725 245.393891 
L 351.790386 243.21782 
L 354.014047 241.482152 
L 360.685031 250.2815 
L 362.908692 246.027365 
L 365.132354 247.998268 
L 367.356015 248.77112 
L 376.25066 252.471361 
L 378.474321 239.383288 
L 380.697983 241.464801 
L 382.921644 235.140174 
L 385.145305 244.486747 
L 391.816289 250.968894 
L 394.03995 251.041805 
L 396.263611 240.524367 
L 398.487273 240.96347 
" clip-path="url(#pfa8318c620)" style="fill: none; stroke: #ff7f0e; stroke-width: 1.5; stroke-linecap: square"/>
   </g>
   <g id="line2d_25">
    <path d="M 73.832727 253.638666 
L 80.503711 234.393604 
L 82.727372 226.188167 
L 84.951034 210.579026 
L 87.174695 233.26072 
L 89.398356 236.540566 
L 96.06934 234.630761 
L 98.293001 236.947622 
L 100.516663 234.125078 
L 102.740324 238.416516 
L 104.963985 230.52143 
L 111.634969 233.705927 
L 113.85863 220.467002 
L 116.082291 227.020478 
L 118.305953 217.615181 
L 120.529614 183.010909 
L 127.200598 228.545722 
L 129.424259 229.766438 
L 131.64792 224.964964 
L 133.871582 229.52945 
L 136.095243 237.463253 
L 144.989888 234.528234 
L 147.213549 225.241685 
L 149.43721 230.743722 
L 151.660872 229.991726 
L 160.555517 210.162701 
L 162.779178 223.164468 
L 165.002839 227.771344 
L 167.226501 223.932516 
L 173.897484 233.520485 
L 176.121146 237.417302 
L 178.344807 234.273273 
L 180.568468 233.187696 
L 182.79213 240.857382 
L 191.686775 237.558376 
L 193.910436 234.152377 
L 196.134097 240.591343 
L 198.357758 228.189082 
L 205.028742 227.320541 
L 207.252403 235.98232 
L 209.476065 236.341673 
L 211.699726 242.951216 
L 213.923387 233.653307 
L 220.594371 237.349987 
L 222.818032 236.29917 
L 225.041694 229.63599 
L 227.265355 206.646319 
L 229.489016 186.288834 
L 236.16 234.047533 
L 238.383661 226.437532 
L 240.607323 237.290754 
L 242.830984 241.876209 
L 245.054645 241.060288 
L 251.725629 238.376557 
L 253.94929 238.654295 
L 256.172951 236.469125 
L 258.396613 235.002944 
L 260.620274 240.103181 
L 269.514919 240.259685 
L 271.73858 244.699827 
L 273.962242 246.179008 
L 276.185903 242.180003 
L 282.856887 248.098252 
L 285.080548 244.962249 
L 287.304209 242.17469 
L 289.52787 244.006442 
L 291.751532 233.553549 
L 298.422516 224.043691 
L 300.646177 241.777356 
L 302.869838 246.851255 
L 305.093499 243.104667 
L 307.317161 234.774321 
L 313.988144 225.796314 
L 316.211806 231.878527 
L 318.435467 229.916159 
L 320.659128 230.4852 
L 322.88279 217.608003 
L 329.553773 231.909331 
L 331.777435 231.741523 
L 334.001096 230.744796 
L 336.224757 235.311429 
L 338.448418 240.073565 
L 345.119402 243.920418 
L 347.343064 247.536614 
L 349.566725 244.533432 
L 351.790386 245.55305 
L 354.014047 234.705198 
L 360.685031 241.328475 
L 362.908692 247.374911 
L 365.132354 244.417002 
L 367.356015 247.87692 
L 376.25066 246.561816 
L 378.474321 246.602906 
L 380.697983 245.196184 
L 382.921644 234.845989 
L 385.145305 245.646026 
L 391.816289 250.066442 
L 394.03995 245.314932 
L 396.263611 246.559951 
L 398.487273 243.935905 
" clip-path="url(#pfa8318c620)" style="fill: none; stroke: #2ca02c; stroke-width: 1.5; stroke-linecap: square"/>
   </g>
   <g id="line2d_26">
    <path d="M 73.832727 266.744655 
L 80.503711 260.356896 
L 82.727372 260.023542 
L 84.951034 249.030773 
L 87.174695 252.872539 
L 89.398356 250.951373 
L 96.06934 253.480975 
L 98.293001 248.838266 
L 100.516663 256.879965 
L 102.740324 256.225296 
L 104.963985 258.817296 
L 111.634969 259.544311 
L 113.85863 248.266342 
L 116.082291 252.663077 
L 118.305953 254.014466 
L 120.529614 235.626867 
L 127.200598 256.705432 
L 129.424259 257.286117 
L 131.64792 262.005354 
L 133.871582 260.18242 
L 136.095243 263.472722 
L 144.989888 261.440438 
L 147.213549 262.446378 
L 149.43721 260.889991 
L 151.660872 262.462599 
L 160.555517 253.450681 
L 162.779178 255.220543 
L 165.002839 259.148672 
L 167.226501 257.940617 
L 173.897484 258.469303 
L 176.121146 257.318955 
L 178.344807 259.162293 
L 180.568468 256.147129 
L 182.79213 260.857436 
L 191.686775 261.578742 
L 193.910436 262.105564 
L 196.134097 257.352415 
L 198.357758 257.316581 
L 205.028742 258.005275 
L 207.252403 261.11381 
L 209.476065 258.48462 
L 211.699726 259.12889 
L 213.923387 253.313111 
L 220.594371 257.683112 
L 222.818032 256.664625 
L 225.041694 242.071824 
L 227.265355 188.482708 
L 229.489016 230.118613 
L 236.16 249.519556 
L 238.383661 246.921396 
L 240.607323 253.10557 
L 242.830984 252.551846 
L 245.054645 254.634715 
L 251.725629 255.748382 
L 253.94929 259.947014 
L 256.172951 259.226782 
L 258.396613 258.93367 
L 260.620274 259.869752 
L 269.514919 253.97965 
L 271.73858 260.852123 
L 273.962242 262.217303 
L 276.185903 262.345321 
L 282.856887 262.636002 
L 285.080548 247.503324 
L 287.304209 256.011086 
L 289.52787 263.724009 
L 291.751532 247.601329 
L 298.422516 254.761432 
L 300.646177 252.787703 
L 302.869838 262.54817 
L 305.093499 258.506776 
L 307.317161 259.025515 
L 313.988144 259.555106 
L 316.211806 249.995001 
L 318.435467 249.723141 
L 320.659128 245.018712 
L 322.88279 245.191663 
L 329.553773 259.296075 
L 331.777435 255.542762 
L 334.001096 257.435725 
L 336.224757 258.050717 
L 338.448418 257.856685 
L 345.119402 263.059788 
L 347.343064 262.720612 
L 349.566725 262.87672 
L 351.790386 260.753157 
L 354.014047 259.16851 
L 360.685031 263.400377 
L 362.908692 261.647244 
L 365.132354 262.568405 
L 367.356015 258.777167 
L 376.25066 264.42819 
L 378.474321 264.08681 
L 380.697983 262.808275 
L 382.921644 260.356331 
L 385.145305 261.337629 
L 391.816289 264.780987 
L 394.03995 266.59013 
L 396.263611 264.545751 
L 398.487273 264.229353 
" clip-path="url(#pfa8318c620)" style="fill: none; stroke: #d62728; stroke-width: 1.5; stroke-linecap: square"/>
   </g>
   <g id="line2d_27">
    <path d="M 73.832727 271.70235 
L 80.503711 270.872978 
L 82.727372 270.260585 
L 84.951034 264.448537 
L 87.174695 265.242754 
L 89.398356 266.358625 
L 96.06934 268.770666 
L 98.293001 269.464503 
L 100.516663 269.110576 
L 102.740324 269.458908 
L 104.963985 265.412822 
L 111.634969 267.795359 
L 113.85863 267.451832 
L 116.082291 269.267871 
L 118.305953 263.513416 
L 120.529614 265.573338 
L 127.200598 270.047618 
L 129.424259 269.621233 
L 131.64792 269.927514 
L 133.871582 269.09102 
L 136.095243 271.128617 
L 144.989888 270.265559 
L 147.213549 270.160262 
L 149.43721 268.111927 
L 151.660872 269.254532 
L 160.555517 269.70833 
L 162.779178 268.249496 
L 165.002839 268.824133 
L 167.226501 268.467267 
L 173.897484 269.70686 
L 176.121146 266.142889 
L 178.344807 268.116901 
L 180.568468 267.395425 
L 182.79213 268.847646 
L 191.686775 268.304942 
L 193.910436 269.114815 
L 196.134097 263.353126 
L 198.357758 257.462572 
L 205.028742 264.687729 
L 207.252403 266.863969 
L 209.476065 269.141492 
L 211.699726 268.864602 
L 213.923387 269.742524 
L 220.594371 270.63322 
L 222.818032 270.331913 
L 225.041694 269.006806 
L 227.265355 269.090568 
L 229.489016 268.217336 
L 236.16 270.708222 
L 238.383661 269.976573 
L 240.607323 269.997033 
L 242.830984 269.630841 
L 245.054645 269.410414 
L 251.725629 269.49898 
L 253.94929 270.917402 
L 256.172951 271.289755 
L 258.396613 270.583426 
L 260.620274 270.538776 
L 269.514919 270.303879 
L 271.73858 270.961827 
L 273.962242 266.04884 
L 276.185903 269.670631 
L 282.856887 270.059544 
L 285.080548 271.453606 
L 287.304209 270.755473 
L 289.52787 270.755642 
L 291.751532 270.166536 
L 298.422516 270.331913 
L 300.646177 270.957927 
L 302.869838 271.564724 
L 305.093499 269.324334 
L 307.317161 270.276185 
L 313.988144 269.974877 
L 316.211806 270.164614 
L 318.435467 268.322859 
L 320.659128 269.064173 
L 322.88279 269.620837 
L 329.553773 270.641246 
L 331.777435 270.769603 
L 334.001096 270.248659 
L 336.224757 264.684112 
L 338.448418 266.188444 
L 345.119402 268.656043 
L 347.343064 269.863533 
L 349.566725 269.97776 
L 351.790386 269.500619 
L 354.014047 270.36379 
L 360.685031 271.036716 
L 362.908692 271.667251 
L 365.132354 271.15439 
L 367.356015 270.897225 
L 376.25066 272.029091 
L 378.474321 271.245217 
L 380.697983 271.290094 
L 382.921644 269.345246 
L 385.145305 270.510007 
L 391.816289 270.063274 
L 394.03995 263.389129 
L 396.263611 261.024452 
L 398.487273 267.911338 
" clip-path="url(#pfa8318c620)" style="fill: none; stroke: #9467bd; stroke-width: 1.5; stroke-linecap: square"/>
   </g>
   <g id="patch_8">
    <path d="M 57.6 276.48 
L 57.6 178.56 
" style="fill: none; stroke: #000000; stroke-width: 0.8; stroke-linejoin: miter; stroke-linecap: square"/>
   </g>
   <g id="patch_9">
    <path d="M 414.72 276.48 
L 414.72 178.56 
" style="fill: none; stroke: #000000; stroke-width: 0.8; stroke-linejoin: miter; stroke-linecap: square"/>
   </g>
   <g id="patch_10">
    <path d="M 57.6 276.48 
L 414.72 276.48 
" style="fill: none; stroke: #000000; stroke-width: 0.8; stroke-linejoin: miter; stroke-linecap: square"/>
   </g>
   <g id="patch_11">
    <path d="M 57.6 178.56 
L 414.72 178.56 
" style="fill: none; stroke: #000000; stroke-width: 0.8; stroke-linejoin: miter; stroke-linecap: square"/>
   </g>
   <g id="text_24">
    <!-- Correlation of Stock Volume -->
    <g transform="translate(152.65125 172.56)scale(0.12 -0.12)">
     <use xlink:href="#DejaVuSans-43"/>
     <use xlink:href="#DejaVuSans-6f" x="69.824219"/>
     <use xlink:href="#DejaVuSans-72" x="131.005859"/>
     <use xlink:href="#DejaVuSans-72" x="170.369141"/>
     <use xlink:href="#DejaVuSans-65" x="209.232422"/>
     <use xlink:href="#DejaVuSans-6c" x="270.755859"/>
     <use xlink:href="#DejaVuSans-61" x="298.539062"/>
     <use xlink:href="#DejaVuSans-74" x="359.818359"/>
     <use xlink:href="#DejaVuSans-69" x="399.027344"/>
     <use xlink:href="#DejaVuSans-6f" x="426.810547"/>
     <use xlink:href="#DejaVuSans-6e" x="487.992188"/>
     <use xlink:href="#DejaVuSans-20" x="551.371094"/>
     <use xlink:href="#DejaVuSans-6f" x="583.158203"/>
     <use xlink:href="#DejaVuSans-66" x="644.339844"/>
     <use xlink:href="#DejaVuSans-20" x="679.544922"/>
     <use xlink:href="#DejaVuSans-53" x="711.332031"/>
     <use xlink:href="#DejaVuSans-74" x="774.808594"/>
     <use xlink:href="#DejaVuSans-6f" x="814.017578"/>
     <use xlink:href="#DejaVuSans-63" x="875.199219"/>
     <use xlink:href="#DejaVuSans-6b" x="930.179688"/>
     <use xlink:href="#DejaVuSans-20" x="988.089844"/>
     <use xlink:href="#DejaVuSans-56" x="1019.876953"/>
     <use xlink:href="#DejaVuSans-6f" x="1080.535156"/>
     <use xlink:href="#DejaVuSans-6c" x="1141.716797"/>
     <use xlink:href="#DejaVuSans-75" x="1169.5"/>
     <use xlink:href="#DejaVuSans-6d" x="1232.878906"/>
     <use xlink:href="#DejaVuSans-65" x="1330.291016"/>
    </g>
   </g>
  </g>
  <g id="legend_1">
   <g id="patch_12">
    <path d="M 384.9875 81.390625 
L 453.8 81.390625 
Q 455.8 81.390625 455.8 79.390625 
L 455.8 7 
Q 455.8 5 453.8 5 
L 384.9875 5 
Q 382.9875 5 382.9875 7 
L 382.9875 79.390625 
Q 382.9875 81.390625 384.9875 81.390625 
z
" style="fill: #ffffff; opacity: 0.8; stroke: #cccccc; stroke-linejoin: miter"/>
   </g>
   <g id="line2d_28">
    <path d="M 386.9875 13.098437 
L 396.9875 13.098437 
L 406.9875 13.098437 
" style="fill: none; stroke: #1f77b4; stroke-width: 1.5; stroke-linecap: square"/>
   </g>
   <g id="text_25">
    <!-- GOOGL -->
    <g transform="translate(414.9875 16.598437)scale(0.1 -0.1)">
     <defs>
      <path id="DejaVuSans-47" d="M 3809 666 
L 3809 1919 
L 2778 1919 
L 2778 2438 
L 4434 2438 
L 4434 434 
Q 4069 175 3628 42 
Q 3188 -91 2688 -91 
Q 1594 -91 976 548 
Q 359 1188 359 2328 
Q 359 3472 976 4111 
Q 1594 4750 2688 4750 
Q 3144 4750 3555 4637 
Q 3966 4525 4313 4306 
L 4313 3634 
Q 3963 3931 3569 4081 
Q 3175 4231 2741 4231 
Q 1884 4231 1454 3753 
Q 1025 3275 1025 2328 
Q 1025 1384 1454 906 
Q 1884 428 2741 428 
Q 3075 428 3337 486 
Q 3600 544 3809 666 
z
" transform="scale(0.015625)"/>
      <path id="DejaVuSans-4c" d="M 628 4666 
L 1259 4666 
L 1259 531 
L 3531 531 
L 3531 0 
L 628 0 
L 628 4666 
z
" transform="scale(0.015625)"/>
     </defs>
     <use xlink:href="#DejaVuSans-47"/>
     <use xlink:href="#DejaVuSans-4f" x="77.490234"/>
     <use xlink:href="#DejaVuSans-4f" x="156.201172"/>
     <use xlink:href="#DejaVuSans-47" x="234.912109"/>
     <use xlink:href="#DejaVuSans-4c" x="312.402344"/>
    </g>
   </g>
   <g id="line2d_29">
    <path d="M 386.9875 27.776563 
L 396.9875 27.776563 
L 406.9875 27.776563 
" style="fill: none; stroke: #ff7f0e; stroke-width: 1.5; stroke-linecap: square"/>
   </g>
   <g id="text_26">
    <!-- AMZN -->
    <g transform="translate(414.9875 31.276563)scale(0.1 -0.1)">
     <defs>
      <path id="DejaVuSans-41" d="M 2188 4044 
L 1331 1722 
L 3047 1722 
L 2188 4044 
z
M 1831 4666 
L 2547 4666 
L 4325 0 
L 3669 0 
L 3244 1197 
L 1141 1197 
L 716 0 
L 50 0 
L 1831 4666 
z
" transform="scale(0.015625)"/>
      <path id="DejaVuSans-4d" d="M 628 4666 
L 1569 4666 
L 2759 1491 
L 3956 4666 
L 4897 4666 
L 4897 0 
L 4281 0 
L 4281 4097 
L 3078 897 
L 2444 897 
L 1241 4097 
L 1241 0 
L 628 0 
L 628 4666 
z
" transform="scale(0.015625)"/>
      <path id="DejaVuSans-5a" d="M 359 4666 
L 4025 4666 
L 4025 4184 
L 1075 531 
L 4097 531 
L 4097 0 
L 288 0 
L 288 481 
L 3238 4134 
L 359 4134 
L 359 4666 
z
" transform="scale(0.015625)"/>
      <path id="DejaVuSans-4e" d="M 628 4666 
L 1478 4666 
L 3547 763 
L 3547 4666 
L 4159 4666 
L 4159 0 
L 3309 0 
L 1241 3903 
L 1241 0 
L 628 0 
L 628 4666 
z
" transform="scale(0.015625)"/>
     </defs>
     <use xlink:href="#DejaVuSans-41"/>
     <use xlink:href="#DejaVuSans-4d" x="68.408203"/>
     <use xlink:href="#DejaVuSans-5a" x="154.6875"/>
     <use xlink:href="#DejaVuSans-4e" x="223.193359"/>
    </g>
   </g>
   <g id="line2d_30">
    <path d="M 386.9875 42.454687 
L 396.9875 42.454687 
L 406.9875 42.454687 
" style="fill: none; stroke: #2ca02c; stroke-width: 1.5; stroke-linecap: square"/>
   </g>
   <g id="text_27">
    <!-- AAPL -->
    <g transform="translate(414.9875 45.954687)scale(0.1 -0.1)">
     <use xlink:href="#DejaVuSans-41"/>
     <use xlink:href="#DejaVuSans-41" x="71.158203"/>
     <use xlink:href="#DejaVuSans-50" x="139.566406"/>
     <use xlink:href="#DejaVuSans-4c" x="199.869141"/>
    </g>
   </g>
   <g id="line2d_31">
    <path d="M 386.9875 57.132812 
L 396.9875 57.132812 
L 406.9875 57.132812 
" style="fill: none; stroke: #d62728; stroke-width: 1.5; stroke-linecap: square"/>
   </g>
   <g id="text_28">
    <!-- META -->
    <g transform="translate(414.9875 60.632812)scale(0.1 -0.1)">
     <defs>
      <path id="DejaVuSans-54" d="M -19 4666 
L 3928 4666 
L 3928 4134 
L 2272 4134 
L 2272 0 
L 1638 0 
L 1638 4134 
L -19 4134 
L -19 4666 
z
" transform="scale(0.015625)"/>
     </defs>
     <use xlink:href="#DejaVuSans-4d"/>
     <use xlink:href="#DejaVuSans-45" x="86.279297"/>
     <use xlink:href="#DejaVuSans-54" x="149.462891"/>
     <use xlink:href="#DejaVuSans-41" x="202.796875"/>
    </g>
   </g>
   <g id="line2d_32">
    <path d="M 386.9875 71.810937 
L 396.9875 71.810937 
L 406.9875 71.810937 
" style="fill: none; stroke: #9467bd; stroke-width: 1.5; stroke-linecap: square"/>
   </g>
   <g id="text_29">
    <!-- NFLX -->
    <g transform="translate(414.9875 75.310937)scale(0.1 -0.1)">
     <defs>
      <path id="DejaVuSans-46" d="M 628 4666 
L 3309 4666 
L 3309 4134 
L 1259 4134 
L 1259 2759 
L 3109 2759 
L 3109 2228 
L 1259 2228 
L 1259 0 
L 628 0 
L 628 4666 
z
" transform="scale(0.015625)"/>
      <path id="DejaVuSans-58" d="M 403 4666 
L 1081 4666 
L 2241 2931 
L 3406 4666 
L 4084 4666 
L 2584 2425 
L 4184 0 
L 3506 0 
L 2194 1984 
L 872 0 
L 191 0 
L 1856 2491 
L 403 4666 
z
" transform="scale(0.015625)"/>
     </defs>
     <use xlink:href="#DejaVuSans-4e"/>
     <use xlink:href="#DejaVuSans-46" x="74.804688"/>
     <use xlink:href="#DejaVuSans-4c" x="132.324219"/>
     <use xlink:href="#DejaVuSans-58" x="188.037109"/>
    </g>
   </g>
  </g>
 </g>
 <defs>
  <clipPath id="p4ad0fe9391">
   <rect x="57.6" y="41.472" width="357.12" height="97.92"/>
  </clipPath>
  <clipPath id="pfa8318c620">
   <rect x="57.6" y="178.56" width="357.12" height="97.92"/>
  </clipPath>
 </defs>
</svg>
