<?xml version="1.0" encoding="utf-8" standalone="no"?>
<!DOCTYPE svg PUBLIC "-//W3C//DTD SVG 1.1//EN"
  "http://www.w3.org/Graphics/SVG/1.1/DTD/svg11.dtd">
<svg xmlns:xlink="http://www.w3.org/1999/xlink" width="460.8pt" height="345.6pt" viewBox="0 0 460.8 345.6" xmlns="http://www.w3.org/2000/svg" version="1.1">
 <metadata>
  <rdf:RDF xmlns:dc="http://purl.org/dc/elements/1.1/" xmlns:cc="http://creativecommons.org/ns#" xmlns:rdf="http://www.w3.org/1999/02/22-rdf-syntax-ns#">
   <cc:Work>
    <dc:type rdf:resource="http://purl.org/dc/dcmitype/StillImage"/>
    <dc:date>2023-04-21T17:04:15.403837</dc:date>
    <dc:format>image/svg+xml</dc:format>
    <dc:creator>
     <cc:Agent>
      <dc:title>Matplotlib v3.5.2, https://matplotlib.org/</dc:title>
     </cc:Agent>
    </dc:creator>
   </cc:Work>
  </rdf:RDF>
 </metadata>
 <defs>
  <style type="text/css">*{stroke-linejoin: round; stroke-linecap: butt}</style>
 </defs>
 <g id="figure_1">
  <g id="patch_1">
   <path d="M 0 345.6 
L 460.8 345.6 
L 460.8 0 
L 0 0 
z
" style="fill: #ffffff"/>
  </g>
  <g id="axes_1">
   <g id="patch_2">
    <path d="M 57.6 139.392 
L 414.72 139.392 
L 414.72 41.472 
L 57.6 41.472 
z
" style="fill: #ffffff"/>
   </g>
   <g id="matplotlib.axis_1">
    <g id="xtick_1">
     <g id="line2d_1">
      <defs>
       <path id="m8547d3345a" d="M 0 0 
L 0 3.5 
" style="stroke: #000000; stroke-width: 0.8"/>
      </defs>
      <g>
       <use xlink:href="#m8547d3345a" x="80.596364" y="139.392" style="stroke: #000000; stroke-width: 0.8"/>
      </g>
     </g>
     <g id="text_1">
      <!-- 2022-12 -->
      <g transform="translate(43.371543 173.863846)rotate(-30)scale(0.1 -0.1)">
       <defs>
        <path id="DejaVuSans-32" d="M 1228 531 
L 3431 531 
L 3431 0 
L 469 0 
L 469 531 
Q 828 903 1448 1529 
Q 2069 2156 2228 2338 
Q 2531 2678 2651 2914 
Q 2772 3150 2772 3378 
Q 2772 3750 2511 3984 
Q 2250 4219 1831 4219 
Q 1534 4219 1204 4116 
Q 875 4013 500 3803 
L 500 4441 
Q 881 4594 1212 4672 
Q 1544 4750 1819 4750 
Q 2544 4750 2975 4387 
Q 3406 4025 3406 3419 
Q 3406 3131 3298 2873 
Q 3191 2616 2906 2266 
Q 2828 2175 2409 1742 
Q 1991 1309 1228 531 
z
" transform="scale(0.015625)"/>
        <path id="DejaVuSans-30" d="M 2034 4250 
Q 1547 4250 1301 3770 
Q 1056 3291 1056 2328 
Q 1056 1369 1301 889 
Q 1547 409 2034 409 
Q 2525 409 2770 889 
Q 3016 1369 3016 2328 
Q 3016 3291 2770 3770 
Q 2525 4250 2034 4250 
z
M 2034 4750 
Q 2819 4750 3233 4129 
Q 3647 3509 3647 2328 
Q 3647 1150 3233 529 
Q 2819 -91 2034 -91 
Q 1250 -91 836 529 
Q 422 1150 422 2328 
Q 422 3509 836 4129 
Q 1250 4750 2034 4750 
z
" transform="scale(0.015625)"/>
        <path id="DejaVuSans-2d" d="M 313 2009 
L 1997 2009 
L 1997 1497 
L 313 1497 
L 313 2009 
z
" transform="scale(0.015625)"/>
        <path id="DejaVuSans-31" d="M 794 531 
L 1825 531 
L 1825 4091 
L 703 3866 
L 703 4441 
L 1819 4666 
L 2450 4666 
L 2450 531 
L 3481 531 
L 3481 0 
L 794 0 
L 794 531 
z
" transform="scale(0.015625)"/>
       </defs>
       <use xlink:href="#DejaVuSans-32"/>
       <use xlink:href="#DejaVuSans-30" x="63.623047"/>
       <use xlink:href="#DejaVuSans-32" x="127.246094"/>
       <use xlink:href="#DejaVuSans-32" x="190.869141"/>
       <use xlink:href="#DejaVuSans-2d" x="254.492188"/>
       <use xlink:href="#DejaVuSans-31" x="290.576172"/>
       <use xlink:href="#DejaVuSans-32" x="354.199219"/>
      </g>
     </g>
    </g>
    <g id="xtick_2">
     <g id="line2d_2">
      <g>
       <use xlink:href="#m8547d3345a" x="150.487273" y="139.392" style="stroke: #000000; stroke-width: 0.8"/>
      </g>
     </g>
     <g id="text_2">
      <!-- 2023-01 -->
      <g transform="translate(113.262452 173.863846)rotate(-30)scale(0.1 -0.1)">
       <defs>
        <path id="DejaVuSans-33" d="M 2597 2516 
Q 3050 2419 3304 2112 
Q 3559 1806 3559 1356 
Q 3559 666 3084 287 
Q 2609 -91 1734 -91 
Q 1441 -91 1130 -33 
Q 819 25 488 141 
L 488 750 
Q 750 597 1062 519 
Q 1375 441 1716 441 
Q 2309 441 2620 675 
Q 2931 909 2931 1356 
Q 2931 1769 2642 2001 
Q 2353 2234 1838 2234 
L 1294 2234 
L 1294 2753 
L 1863 2753 
Q 2328 2753 2575 2939 
Q 2822 3125 2822 3475 
Q 2822 3834 2567 4026 
Q 2313 4219 1838 4219 
Q 1578 4219 1281 4162 
Q 984 4106 628 3988 
L 628 4550 
Q 988 4650 1302 4700 
Q 1616 4750 1894 4750 
Q 2613 4750 3031 4423 
Q 3450 4097 3450 3541 
Q 3450 3153 3228 2886 
Q 3006 2619 2597 2516 
z
" transform="scale(0.015625)"/>
       </defs>
       <use xlink:href="#DejaVuSans-32"/>
       <use xlink:href="#DejaVuSans-30" x="63.623047"/>
       <use xlink:href="#DejaVuSans-32" x="127.246094"/>
       <use xlink:href="#DejaVuSans-33" x="190.869141"/>
       <use xlink:href="#DejaVuSans-2d" x="254.492188"/>
       <use xlink:href="#DejaVuSans-30" x="290.576172"/>
       <use xlink:href="#DejaVuSans-31" x="354.199219"/>
      </g>
     </g>
    </g>
    <g id="xtick_3">
     <g id="line2d_3">
      <g>
       <use xlink:href="#m8547d3345a" x="220.378182" y="139.392" style="stroke: #000000; stroke-width: 0.8"/>
      </g>
     </g>
     <g id="text_3">
      <!-- 2023-02 -->
      <g transform="translate(183.153361 173.863846)rotate(-30)scale(0.1 -0.1)">
       <use xlink:href="#DejaVuSans-32"/>
       <use xlink:href="#DejaVuSans-30" x="63.623047"/>
       <use xlink:href="#DejaVuSans-32" x="127.246094"/>
       <use xlink:href="#DejaVuSans-33" x="190.869141"/>
       <use xlink:href="#DejaVuSans-2d" x="254.492188"/>
       <use xlink:href="#DejaVuSans-30" x="290.576172"/>
       <use xlink:href="#DejaVuSans-32" x="354.199219"/>
      </g>
     </g>
    </g>
    <g id="xtick_4">
     <g id="line2d_4">
      <g>
       <use xlink:href="#m8547d3345a" x="283.505455" y="139.392" style="stroke: #000000; stroke-width: 0.8"/>
      </g>
     </g>
     <g id="text_4">
      <!-- 2023-03 -->
      <g transform="translate(246.280634 173.863846)rotate(-30)scale(0.1 -0.1)">
       <use xlink:href="#DejaVuSans-32"/>
       <use xlink:href="#DejaVuSans-30" x="63.623047"/>
       <use xlink:href="#DejaVuSans-32" x="127.246094"/>
       <use xlink:href="#DejaVuSans-33" x="190.869141"/>
       <use xlink:href="#DejaVuSans-2d" x="254.492188"/>
       <use xlink:href="#DejaVuSans-30" x="290.576172"/>
       <use xlink:href="#DejaVuSans-33" x="354.199219"/>
      </g>
     </g>
    </g>
    <g id="xtick_5">
     <g id="line2d_5">
      <g>
       <use xlink:href="#m8547d3345a" x="353.396364" y="139.392" style="stroke: #000000; stroke-width: 0.8"/>
      </g>
     </g>
     <g id="text_5">
      <!-- 2023-04 -->
      <g transform="translate(316.171543 173.863846)rotate(-30)scale(0.1 -0.1)">
       <defs>
        <path id="DejaVuSans-34" d="M 2419 4116 
L 825 1625 
L 2419 1625 
L 2419 4116 
z
M 2253 4666 
L 3047 4666 
L 3047 1625 
L 3713 1625 
L 3713 1100 
L 3047 1100 
L 3047 0 
L 2419 0 
L 2419 1100 
L 313 1100 
L 313 1709 
L 2253 4666 
z
" transform="scale(0.015625)"/>
       </defs>
       <use xlink:href="#DejaVuSans-32"/>
       <use xlink:href="#DejaVuSans-30" x="63.623047"/>
       <use xlink:href="#DejaVuSans-32" x="127.246094"/>
       <use xlink:href="#DejaVuSans-33" x="190.869141"/>
       <use xlink:href="#DejaVuSans-2d" x="254.492188"/>
       <use xlink:href="#DejaVuSans-30" x="290.576172"/>
       <use xlink:href="#DejaVuSans-34" x="354.199219"/>
      </g>
     </g>
    </g>
    <g id="text_6">
     <!-- Date -->
     <g transform="translate(224.209219 187.263346)scale(0.1 -0.1)">
      <defs>
       <path id="DejaVuSans-44" d="M 1259 4147 
L 1259 519 
L 2022 519 
Q 2988 519 3436 956 
Q 3884 1394 3884 2338 
Q 3884 3275 3436 3711 
Q 2988 4147 2022 4147 
L 1259 4147 
z
M 628 4666 
L 1925 4666 
Q 3281 4666 3915 4102 
Q 4550 3538 4550 2338 
Q 4550 1131 3912 565 
Q 3275 0 1925 0 
L 628 0 
L 628 4666 
z
" transform="scale(0.015625)"/>
       <path id="DejaVuSans-61" d="M 2194 1759 
Q 1497 1759 1228 1600 
Q 959 1441 959 1056 
Q 959 750 1161 570 
Q 1363 391 1709 391 
Q 2188 391 2477 730 
Q 2766 1069 2766 1631 
L 2766 1759 
L 2194 1759 
z
M 3341 1997 
L 3341 0 
L 2766 0 
L 2766 531 
Q 2569 213 2275 61 
Q 1981 -91 1556 -91 
Q 1019 -91 701 211 
Q 384 513 384 1019 
Q 384 1609 779 1909 
Q 1175 2209 1959 2209 
L 2766 2209 
L 2766 2266 
Q 2766 2663 2505 2880 
Q 2244 3097 1772 3097 
Q 1472 3097 1187 3025 
Q 903 2953 641 2809 
L 641 3341 
Q 956 3463 1253 3523 
Q 1550 3584 1831 3584 
Q 2591 3584 2966 3190 
Q 3341 2797 3341 1997 
z
" transform="scale(0.015625)"/>
       <path id="DejaVuSans-74" d="M 1172 4494 
L 1172 3500 
L 2356 3500 
L 2356 3053 
L 1172 3053 
L 1172 1153 
Q 1172 725 1289 603 
Q 1406 481 1766 481 
L 2356 481 
L 2356 0 
L 1766 0 
Q 1100 0 847 248 
Q 594 497 594 1153 
L 594 3053 
L 172 3053 
L 172 3500 
L 594 3500 
L 594 4494 
L 1172 4494 
z
" transform="scale(0.015625)"/>
       <path id="DejaVuSans-65" d="M 3597 1894 
L 3597 1613 
L 953 1613 
Q 991 1019 1311 708 
Q 1631 397 2203 397 
Q 2534 397 2845 478 
Q 3156 559 3463 722 
L 3463 178 
Q 3153 47 2828 -22 
Q 2503 -91 2169 -91 
Q 1331 -91 842 396 
Q 353 884 353 1716 
Q 353 2575 817 3079 
Q 1281 3584 2069 3584 
Q 2775 3584 3186 3129 
Q 3597 2675 3597 1894 
z
M 3022 2063 
Q 3016 2534 2758 2815 
Q 2500 3097 2075 3097 
Q 1594 3097 1305 2825 
Q 1016 2553 972 2059 
L 3022 2063 
z
" transform="scale(0.015625)"/>
      </defs>
      <use xlink:href="#DejaVuSans-44"/>
      <use xlink:href="#DejaVuSans-61" x="77.001953"/>
      <use xlink:href="#DejaVuSans-74" x="138.28125"/>
      <use xlink:href="#DejaVuSans-65" x="177.490234"/>
     </g>
    </g>
   </g>
   <g id="matplotlib.axis_2">
    <g id="ytick_1">
     <g id="line2d_6">
      <defs>
       <path id="m5845936d24" d="M 0 0 
L -3.5 0 
" style="stroke: #000000; stroke-width: 0.8"/>
      </defs>
      <g>
       <use xlink:href="#m5845936d24" x="57.6" y="92.13774" style="stroke: #000000; stroke-width: 0.8"/>
      </g>
     </g>
     <g id="text_7">
      <!-- 200 -->
      <g transform="translate(31.5125 95.936959)scale(0.1 -0.1)">
       <use xlink:href="#DejaVuSans-32"/>
       <use xlink:href="#DejaVuSans-30" x="63.623047"/>
       <use xlink:href="#DejaVuSans-30" x="127.246094"/>
      </g>
     </g>
    </g>
    <g id="ytick_2">
     <g id="line2d_7">
      <g>
       <use xlink:href="#m5845936d24" x="57.6" y="44.054893" style="stroke: #000000; stroke-width: 0.8"/>
      </g>
     </g>
     <g id="text_8">
      <!-- 400 -->
      <g transform="translate(31.5125 47.854112)scale(0.1 -0.1)">
       <use xlink:href="#DejaVuSans-34"/>
       <use xlink:href="#DejaVuSans-30" x="63.623047"/>
       <use xlink:href="#DejaVuSans-30" x="127.246094"/>
      </g>
     </g>
    </g>
    <g id="text_9">
     <!-- Stock Price -->
     <g transform="translate(25.432812 118.057)rotate(-90)scale(0.1 -0.1)">
      <defs>
       <path id="DejaVuSans-53" d="M 3425 4513 
L 3425 3897 
Q 3066 4069 2747 4153 
Q 2428 4238 2131 4238 
Q 1616 4238 1336 4038 
Q 1056 3838 1056 3469 
Q 1056 3159 1242 3001 
Q 1428 2844 1947 2747 
L 2328 2669 
Q 3034 2534 3370 2195 
Q 3706 1856 3706 1288 
Q 3706 609 3251 259 
Q 2797 -91 1919 -91 
Q 1588 -91 1214 -16 
Q 841 59 441 206 
L 441 856 
Q 825 641 1194 531 
Q 1563 422 1919 422 
Q 2459 422 2753 634 
Q 3047 847 3047 1241 
Q 3047 1584 2836 1778 
Q 2625 1972 2144 2069 
L 1759 2144 
Q 1053 2284 737 2584 
Q 422 2884 422 3419 
Q 422 4038 858 4394 
Q 1294 4750 2059 4750 
Q 2388 4750 2728 4690 
Q 3069 4631 3425 4513 
z
" transform="scale(0.015625)"/>
       <path id="DejaVuSans-6f" d="M 1959 3097 
Q 1497 3097 1228 2736 
Q 959 2375 959 1747 
Q 959 1119 1226 758 
Q 1494 397 1959 397 
Q 2419 397 2687 759 
Q 2956 1122 2956 1747 
Q 2956 2369 2687 2733 
Q 2419 3097 1959 3097 
z
M 1959 3584 
Q 2709 3584 3137 3096 
Q 3566 2609 3566 1747 
Q 3566 888 3137 398 
Q 2709 -91 1959 -91 
Q 1206 -91 779 398 
Q 353 888 353 1747 
Q 353 2609 779 3096 
Q 1206 3584 1959 3584 
z
" transform="scale(0.015625)"/>
       <path id="DejaVuSans-63" d="M 3122 3366 
L 3122 2828 
Q 2878 2963 2633 3030 
Q 2388 3097 2138 3097 
Q 1578 3097 1268 2742 
Q 959 2388 959 1747 
Q 959 1106 1268 751 
Q 1578 397 2138 397 
Q 2388 397 2633 464 
Q 2878 531 3122 666 
L 3122 134 
Q 2881 22 2623 -34 
Q 2366 -91 2075 -91 
Q 1284 -91 818 406 
Q 353 903 353 1747 
Q 353 2603 823 3093 
Q 1294 3584 2113 3584 
Q 2378 3584 2631 3529 
Q 2884 3475 3122 3366 
z
" transform="scale(0.015625)"/>
       <path id="DejaVuSans-6b" d="M 581 4863 
L 1159 4863 
L 1159 1991 
L 2875 3500 
L 3609 3500 
L 1753 1863 
L 3688 0 
L 2938 0 
L 1159 1709 
L 1159 0 
L 581 0 
L 581 4863 
z
" transform="scale(0.015625)"/>
       <path id="DejaVuSans-20" transform="scale(0.015625)"/>
       <path id="DejaVuSans-50" d="M 1259 4147 
L 1259 2394 
L 2053 2394 
Q 2494 2394 2734 2622 
Q 2975 2850 2975 3272 
Q 2975 3691 2734 3919 
Q 2494 4147 2053 4147 
L 1259 4147 
z
M 628 4666 
L 2053 4666 
Q 2838 4666 3239 4311 
Q 3641 3956 3641 3272 
Q 3641 2581 3239 2228 
Q 2838 1875 2053 1875 
L 1259 1875 
L 1259 0 
L 628 0 
L 628 4666 
z
" transform="scale(0.015625)"/>
       <path id="DejaVuSans-72" d="M 2631 2963 
Q 2534 3019 2420 3045 
Q 2306 3072 2169 3072 
Q 1681 3072 1420 2755 
Q 1159 2438 1159 1844 
L 1159 0 
L 581 0 
L 581 3500 
L 1159 3500 
L 1159 2956 
Q 1341 3275 1631 3429 
Q 1922 3584 2338 3584 
Q 2397 3584 2469 3576 
Q 2541 3569 2628 3553 
L 2631 2963 
z
" transform="scale(0.015625)"/>
       <path id="DejaVuSans-69" d="M 603 3500 
L 1178 3500 
L 1178 0 
L 603 0 
L 603 3500 
z
M 603 4863 
L 1178 4863 
L 1178 4134 
L 603 4134 
L 603 4863 
z
" transform="scale(0.015625)"/>
      </defs>
      <use xlink:href="#DejaVuSans-53"/>
      <use xlink:href="#DejaVuSans-74" x="63.476562"/>
      <use xlink:href="#DejaVuSans-6f" x="102.685547"/>
      <use xlink:href="#DejaVuSans-63" x="163.867188"/>
      <use xlink:href="#DejaVuSans-6b" x="218.847656"/>
      <use xlink:href="#DejaVuSans-20" x="276.757812"/>
      <use xlink:href="#DejaVuSans-50" x="308.544922"/>
      <use xlink:href="#DejaVuSans-72" x="367.097656"/>
      <use xlink:href="#DejaVuSans-69" x="408.210938"/>
      <use xlink:href="#DejaVuSans-63" x="435.994141"/>
      <use xlink:href="#DejaVuSans-65" x="490.974609"/>
     </g>
    </g>
   </g>
   <g id="line2d_8">
    <path d="M 73.832727 110.255357 
L 76.087273 109.89714 
L 78.341818 109.935606 
L 80.596364 109.930798 
L 82.850909 109.690384 
L 89.614545 110.257762 
L 91.869091 110.269781 
L 94.123636 109.844249 
L 96.378182 109.928394 
L 98.632727 109.986093 
L 105.396364 109.724042 
L 107.650909 109.618259 
L 109.905455 109.906757 
L 112.16 110.798694 
L 114.414545 110.964578 
L 121.178182 110.858797 
L 123.432727 111.176144 
L 125.687273 110.539046 
L 127.941818 110.988621 
L 130.196364 111.337221 
L 139.214545 111.317988 
L 141.469091 111.781987 
L 143.723636 111.233843 
L 145.978182 111.390113 
L 154.996364 110.777056 
L 157.250909 110.132745 
L 159.505455 110.659253 
L 161.76 109.755295 
L 168.523636 109.738466 
L 170.778182 109.41631 
L 173.032727 109.178302 
L 175.287273 109.123004 
L 177.541818 109.084541 
L 186.56 109.784145 
L 188.814545 110.70974 
L 191.069091 111.748329 
L 193.323636 111.214609 
L 200.087273 110.740993 
L 202.341818 112.57295 
L 204.596364 113.070608 
L 206.850909 112.92155 
L 209.105455 112.512847 
L 215.869091 113.154752 
L 218.123636 112.553717 
L 220.378182 112.366194 
L 222.632727 111.301159 
L 224.887273 111.974319 
L 231.650909 112.212329 
L 233.905455 112.116163 
L 236.16 112.512847 
L 238.414545 113.070608 
L 240.669091 112.842215 
L 247.432727 112.505635 
L 249.687273 112.762878 
L 251.941818 112.623437 
L 254.196364 113.294193 
L 256.450909 113.056183 
L 265.469091 113.955332 
L 267.723636 114.02986 
L 269.978182 114.037072 
L 272.232727 114.303932 
L 278.996364 114.190939 
L 281.250909 114.318358 
L 283.505455 113.724535 
L 285.76 113.799062 
L 288.014545 113.472099 
L 294.778182 113.79185 
L 297.032727 114.474628 
L 299.287273 114.457797 
L 301.541818 114.852078 
L 303.796364 115.203083 
L 310.56 115.337714 
L 312.814545 115.510812 
L 315.069091 115.510812 
L 317.323636 115.16702 
L 319.578182 115.453114 
L 326.341818 115.142979 
L 328.596364 115.147786 
L 330.850909 115.808926 
L 333.105455 115.93875 
L 335.36 115.905092 
L 342.123636 115.820947 
L 344.378182 115.760843 
L 346.632727 115.412242 
L 348.887273 115.510812 
L 351.141818 114.950647 
L 357.905455 115.080471 
L 360.16 115.638232 
L 362.414545 115.628615 
L 364.669091 115.804118 
L 373.687273 115.51562 
L 375.941818 115.082875 
L 378.196364 115.128553 
L 380.450909 114.700616 
L 382.705455 114.791974 
L 389.469091 114.549156 
L 391.723636 114.671767 
L 393.978182 114.717445 
L 396.232727 115.042004 
L 398.487273 115.102107 
" clip-path="url(#p41edebb1a8)" style="fill: none; stroke: #1f77b4; stroke-width: 1.5; stroke-linecap: square"/>
   </g>
   <g id="line2d_9">
    <path d="M 73.832727 125.853433 
L 76.087273 125.67793 
L 78.341818 125.617826 
L 80.596364 125.680334 
L 82.850909 125.704376 
L 89.614545 125.839008 
L 91.869091 125.947194 
L 94.123636 125.971235 
L 96.378182 126.175588 
L 98.632727 126.204438 
L 105.396364 126.153951 
L 107.650909 125.947194 
L 109.905455 126.064997 
L 112.16 126.565059 
L 114.414545 126.74537 
L 121.178182 126.742965 
L 123.432727 126.675649 
L 125.687273 126.459276 
L 127.941818 126.702095 
L 130.196364 126.541017 
L 139.214545 126.355899 
L 141.469091 126.572271 
L 143.723636 126.358303 
L 145.978182 126.459276 
L 154.996364 126.055381 
L 157.250909 125.63706 
L 159.505455 125.94479 
L 161.76 125.449537 
L 168.523636 125.437516 
L 170.778182 125.829391 
L 173.032727 125.175464 
L 175.287273 125.459153 
L 177.541818 125.283651 
L 186.56 125.788521 
L 188.814545 125.762075 
L 191.069091 126.327048 
L 193.323636 126.000085 
L 200.087273 125.745246 
L 202.341818 125.634656 
L 204.596364 125.670718 
L 206.850909 126.07221 
L 209.105455 125.709184 
L 215.869091 125.901515 
L 218.123636 123.944544 
L 220.378182 123.401208 
L 222.632727 123.295425 
L 224.887273 123.619984 
L 231.650909 123.995031 
L 233.905455 124.201787 
L 236.16 124.302761 
L 238.414545 124.398927 
L 240.669091 124.326802 
L 247.432727 123.865207 
L 249.687273 123.997434 
L 251.941818 123.865207 
L 254.196364 123.939735 
L 256.450909 124.055135 
L 265.469091 124.432585 
L 267.723636 124.480667 
L 269.978182 124.398927 
L 272.232727 124.617703 
L 278.996364 124.51673 
L 281.250909 124.442202 
L 283.505455 124.16813 
L 285.76 123.958969 
L 288.014545 123.841166 
L 294.778182 124.136875 
L 297.032727 124.259486 
L 299.287273 124.110429 
L 301.541818 124.009455 
L 303.796364 124.329207 
L 310.56 124.406139 
L 312.814545 123.997434 
L 315.069091 124.192171 
L 317.323636 124.02388 
L 319.578182 124.480667 
L 326.341818 124.245062 
L 328.596364 124.132067 
L 330.850909 124.235445 
L 333.105455 124.283527 
L 335.36 124.175342 
L 342.123636 123.968585 
L 344.378182 123.836357 
L 346.632727 123.651239 
L 348.887273 123.89646 
L 351.141818 123.595943 
L 357.905455 123.668068 
L 360.16 124.394118 
L 362.414545 124.687423 
L 364.669091 124.689828 
L 373.687273 124.480667 
L 375.941818 124.459031 
L 378.196364 124.34844 
L 380.450909 124.269103 
L 382.705455 124.083983 
L 389.469091 123.975797 
L 391.723636 123.742595 
L 393.978182 123.90127 
L 396.232727 123.687301 
L 398.487273 123.684896 
" clip-path="url(#p41edebb1a8)" style="fill: none; stroke: #ff7f0e; stroke-width: 1.5; stroke-linecap: square"/>
   </g>
   <g id="line2d_10">
    <path d="M 73.832727 114.883331 
L 76.087273 114.977093 
L 78.341818 114.356823 
L 80.596364 114.272679 
L 82.850909 114.234213 
L 89.614545 114.878522 
L 91.869091 115.251165 
L 94.123636 115.022772 
L 96.378182 114.515498 
L 98.632727 114.373652 
L 105.396364 113.897633 
L 107.650909 113.407188 
L 109.905455 113.472099 
L 112.16 114.130835 
L 114.414545 114.517901 
L 121.178182 114.594835 
L 123.432727 114.618876 
L 125.687273 114.222192 
L 127.941818 114.248638 
L 130.196364 114.212575 
L 139.214545 114.118814 
L 141.469091 114.29672 
L 143.723636 113.700494 
L 145.978182 113.825508 
L 154.996364 113.875995 
L 157.250909 113.48412 
L 159.505455 113.582689 
L 161.76 113.214856 
L 168.523636 113.25813 
L 170.778182 112.849427 
L 173.032727 113.017716 
L 175.287273 113.448058 
L 177.541818 112.931167 
L 186.56 112.960017 
L 188.814545 113.411995 
L 191.069091 113.342275 
L 193.323636 113.097053 
L 200.087273 112.81096 
L 202.341818 113.166774 
L 204.596364 113.534607 
L 206.850909 113.517778 
L 209.105455 113.787043 
L 215.869091 113.820701 
L 218.123636 113.642793 
L 220.378182 113.337468 
L 222.632727 113.234089 
L 224.887273 113.34468 
L 231.650909 113.594711 
L 233.905455 113.296598 
L 236.16 113.726939 
L 238.414545 114.239021 
L 240.669091 114.217383 
L 247.432727 114.130835 
L 249.687273 114.433756 
L 251.941818 114.428948 
L 254.196364 114.717445 
L 256.450909 114.558772 
L 265.469091 115.301651 
L 267.723636 115.532449 
L 269.978182 115.566107 
L 272.232727 116.068573 
L 278.996364 116.23446 
L 281.250909 115.765651 
L 283.505455 115.979619 
L 285.76 115.546875 
L 288.014545 115.109321 
L 294.778182 115.518025 
L 297.032727 116.183971 
L 299.287273 116.323412 
L 301.541818 116.696055 
L 303.796364 116.910023 
L 310.56 116.614313 
L 312.814545 116.527764 
L 315.069091 116.708074 
L 317.323636 116.412366 
L 319.578182 116.898002 
L 326.341818 116.691245 
L 328.596364 116.580655 
L 330.850909 116.934064 
L 333.105455 116.89079 
L 335.36 116.647971 
L 342.123636 116.549402 
L 344.378182 116.873961 
L 346.632727 116.510935 
L 348.887273 116.400344 
L 351.141818 115.876241 
L 357.905455 115.796906 
L 360.16 115.506003 
L 362.414545 115.16702 
L 364.669091 114.993922 
L 373.687273 115.289632 
L 375.941818 115.388201 
L 378.196364 115.563704 
L 380.450909 115.311268 
L 382.705455 115.227124 
L 389.469091 115.092492 
L 391.723636 115.181444 
L 393.978182 113.224473 
L 396.232727 113.690877 
L 398.487273 113.375933 
" clip-path="url(#p41edebb1a8)" style="fill: none; stroke: #2ca02c; stroke-width: 1.5; stroke-linecap: square"/>
   </g>
   <g id="line2d_11">
    <path d="M 73.832727 102.131762 
L 76.087273 102.187056 
L 78.341818 101.470623 
L 80.596364 101.362433 
L 82.850909 100.874393 
L 89.614545 100.807077 
L 91.869091 100.859968 
L 94.123636 100.456074 
L 96.378182 100.314227 
L 98.632727 101.018643 
L 105.396364 100.475304 
L 107.650909 100.602727 
L 109.905455 100.585896 
L 112.16 101.009024 
L 114.414545 101.638912 
L 121.178182 101.396091 
L 123.432727 101.614869 
L 125.687273 101.222993 
L 127.941818 100.968154 
L 130.196364 101.009024 
L 139.214545 101.03547 
L 141.469091 101.218187 
L 143.723636 101.13885 
L 145.978182 101.367243 
L 154.996364 101.182123 
L 157.250909 100.867181 
L 159.505455 100.915263 
L 161.76 100.179596 
L 168.523636 101.355221 
L 170.778182 101.840859 
L 173.032727 102.434682 
L 175.287273 103.624732 
L 177.541818 103.292959 
L 186.56 103.478079 
L 188.814545 104.350784 
L 191.069091 104.468585 
L 193.323636 104.257023 
L 200.087273 104.507052 
L 202.341818 104.713808 
L 204.596364 104.689769 
L 206.850909 104.78353 
L 209.105455 105.052793 
L 215.869091 105.204255 
L 218.123636 104.699384 
L 220.378182 104.975859 
L 222.632727 105.39899 
L 224.887273 105.312441 
L 231.650909 105.355714 
L 233.905455 105.326865 
L 236.16 105.454285 
L 238.414545 104.470991 
L 240.669091 103.665602 
L 247.432727 103.261708 
L 249.687273 103.53578 
L 251.941818 103.903613 
L 254.196364 104.271447 
L 256.450909 103.84351 
L 265.469091 103.677624 
L 267.723636 103.997375 
L 269.978182 103.660793 
L 272.232727 103.506928 
L 278.996364 103.129479 
L 281.250909 103.220838 
L 283.505455 102.891468 
L 285.76 103.105436 
L 288.014545 102.701542 
L 294.778182 102.889065 
L 297.032727 103.45404 
L 299.287273 104.254616 
L 301.541818 104.795548 
L 303.796364 104.22817 
L 310.56 103.689645 
L 312.814545 103.232856 
L 315.069091 103.182371 
L 317.323636 102.884256 
L 319.578182 103.143904 
L 326.341818 102.687118 
L 328.596364 102.530847 
L 330.850909 103.276132 
L 333.105455 102.884256 
L 335.36 102.230329 
L 342.123636 102.34573 
L 344.378182 102.175035 
L 346.632727 102.235138 
L 348.887273 102.254372 
L 351.141818 101.905772 
L 357.905455 101.653336 
L 360.16 101.807201 
L 362.414545 101.561978 
L 364.669091 101.381667 
L 373.687273 101.44658 
L 375.941818 101.422537 
L 378.196364 101.186932 
L 380.450909 101.107595 
L 382.705455 101.372052 
L 389.469091 101.470623 
L 391.723636 101.85288 
L 393.978182 101.463407 
L 396.232727 101.335988 
L 398.487273 101.17491 
" clip-path="url(#p41edebb1a8)" style="fill: none; stroke: #d62728; stroke-width: 1.5; stroke-linecap: square"/>
   </g>
   <g id="line2d_12">
    <path d="M 73.832727 70.356209 
L 76.087273 70.986093 
L 78.341818 67.872733 
L 80.596364 67.415948 
L 82.850909 68.065062 
L 89.614545 69.841726 
L 91.869091 71.603959 
L 94.123636 71.29623 
L 96.378182 69.98357 
L 98.632727 70.882717 
L 105.396364 69.937891 
L 107.650909 69.214241 
L 109.905455 70.151855 
L 112.16 72.635339 
L 114.414545 76.635828 
L 121.178182 78.818793 
L 123.432727 77.256101 
L 125.687273 75.568388 
L 127.941818 76.568512 
L 130.196364 76.248764 
L 139.214545 76.436287 
L 141.469091 76.962795 
L 143.723636 75.698214 
L 145.978182 76.068454 
L 154.996364 75.246234 
L 157.250909 75.467418 
L 159.505455 76.996449 
L 161.76 75.498673 
L 168.523636 74.40719 
L 170.778182 74.123503 
L 173.032727 72.644957 
L 175.287273 71.981412 
L 177.541818 72.390111 
L 186.56 71.731379 
L 188.814545 73.409473 
L 191.069091 74.613943 
L 193.323636 72.791606 
L 200.087273 73.063276 
L 202.341818 74.137928 
L 204.596364 74.549034 
L 206.850909 74.284577 
L 209.105455 73.560935 
L 215.869091 74.270152 
L 218.123636 73.132998 
L 220.378182 72.039109 
L 222.632727 69.514759 
L 224.887273 70.687982 
L 231.650909 71.827543 
L 233.905455 71.02456 
L 236.16 71.772252 
L 238.414545 71.664063 
L 240.669091 71.952563 
L 247.432727 70.897141 
L 249.687273 71.757828 
L 251.941818 71.065434 
L 254.196364 72.611296 
L 256.450909 73.613826 
L 265.469091 75.513097 
L 267.723636 75.397696 
L 269.978182 75.013032 
L 272.232727 76.142981 
L 278.996364 76.210297 
L 281.250909 76.37859 
L 283.505455 76.8498 
L 285.76 76.448305 
L 288.014545 75.501072 
L 294.778182 75.397696 
L 297.032727 76.703143 
L 299.287273 76.832969 
L 301.541818 77.770583 
L 303.796364 79.407807 
L 310.56 79.802086 
L 312.814545 79.520802 
L 315.069091 81.037815 
L 317.323636 79.415019 
L 319.578182 80.117028 
L 326.341818 79.503971 
L 328.596364 78.285073 
L 330.850909 79.330873 
L 333.105455 74.909655 
L 335.36 74.827915 
L 342.123636 74.356705 
L 344.378182 74.106673 
L 346.632727 72.919026 
L 348.887273 72.265099 
L 351.141818 71.507795 
L 357.905455 71.500583 
L 360.16 71.500583 
L 362.414545 72.584854 
L 364.669091 72.495894 
L 373.687273 72.500707 
L 375.941818 71.382782 
L 378.196364 72.000642 
L 380.450909 71.637621 
L 382.705455 73.084912 
L 389.469091 72.909407 
L 391.723636 72.91422 
L 393.978182 72.928644 
L 396.232727 73.974448 
L 398.487273 73.786925 
" clip-path="url(#p41edebb1a8)" style="fill: none; stroke: #9467bd; stroke-width: 1.5; stroke-linecap: square"/>
   </g>
   <g id="line2d_13">
    <path d="M 73.832727 122.256835 
L 76.087273 122.348194 
L 78.341818 122.441955 
L 80.596364 122.14384 
L 82.850909 122.006804 
L 89.614545 121.869768 
L 91.869091 121.92266 
L 94.123636 121.965934 
L 96.378182 122.247219 
L 98.632727 122.151052 
L 105.396364 121.622142 
L 107.650909 121.773602 
L 109.905455 121.699074 
L 112.16 121.860151 
L 114.414545 121.929872 
L 121.178182 121.95151 
L 123.432727 121.977956 
L 125.687273 121.975551 
L 127.941818 122.02123 
L 130.196364 121.961127 
L 139.214545 121.999592 
L 141.469091 121.937084 
L 143.723636 121.76639 
L 145.978182 121.816877 
L 154.996364 121.737542 
L 157.250909 121.747158 
L 159.505455 121.718308 
L 161.76 121.566848 
L 168.523636 121.6558 
L 170.778182 121.542805 
L 173.032727 121.708691 
L 175.287273 121.732732 
L 177.541818 121.790431 
L 186.56 122.295302 
L 188.814545 122.314534 
L 191.069091 122.487633 
L 193.323636 122.468401 
L 200.087273 122.136628 
L 202.341818 122.163074 
L 204.596364 122.276069 
L 206.850909 122.045271 
L 209.105455 121.802453 
L 215.869091 121.958722 
L 218.123636 121.812069 
L 220.378182 121.780816 
L 222.632727 121.682245 
L 224.887273 122.131821 
L 231.650909 123.011736 
L 233.905455 122.045271 
L 236.16 122.696794 
L 238.414545 122.127011 
L 240.669091 122.081334 
L 247.432727 121.807262 
L 249.687273 121.761583 
L 251.941818 121.540402 
L 254.196364 121.586079 
L 256.450909 121.571655 
L 265.469091 121.708691 
L 267.723636 121.679841 
L 269.978182 121.691862 
L 272.232727 121.751966 
L 278.996364 121.771199 
L 281.250909 121.889002 
L 283.505455 122.016421 
L 285.76 121.537997 
L 288.014545 121.134101 
L 294.778182 121.076402 
L 297.032727 121.165354 
L 299.287273 121.112463 
L 301.541818 121.379323 
L 303.796364 121.475489 
L 310.56 121.434619 
L 312.814545 121.206226 
L 315.069091 121.165354 
L 317.323636 121.018702 
L 319.578182 121.230267 
L 326.341818 121.146123 
L 328.596364 121.047552 
L 330.850909 121.314412 
L 333.105455 121.064381 
L 335.36 119.93203 
L 342.123636 119.946454 
L 344.378182 119.941647 
L 346.632727 119.895968 
L 348.887273 119.811823 
L 351.141818 119.643534 
L 357.905455 119.70604 
L 360.16 119.758932 
L 362.414545 119.694021 
L 364.669091 119.732486 
L 373.687273 119.669978 
L 375.941818 119.763741 
L 378.196364 119.797399 
L 380.450909 119.645937 
L 382.705455 119.720466 
L 389.469091 119.66517 
L 391.723636 119.653149 
L 393.978182 119.66517 
L 396.232727 119.648341 
L 398.487273 119.657958 
" clip-path="url(#p41edebb1a8)" style="fill: none; stroke: #8c564b; stroke-width: 1.5; stroke-linecap: square"/>
   </g>
   <g id="line2d_14">
    <path d="M 73.832727 61.131516 
L 76.087273 61.658024 
L 78.341818 57.294507 
L 80.596364 57.491648 
L 82.850909 58.111914 
L 89.614545 59.900596 
L 91.869091 60.607415 
L 94.123636 61.682067 
L 96.378182 60.263624 
L 98.632727 60.730021 
L 105.396364 58.919702 
L 107.650909 57.88833 
L 109.905455 58.498977 
L 112.16 61.194026 
L 114.414545 58.83075 
L 121.178182 61.182001 
L 123.432727 58.907684 
L 125.687273 58.147974 
L 127.941818 59.316391 
L 130.196364 58.852386 
L 139.214545 59.660182 
L 141.469091 61.285385 
L 143.723636 59.061553 
L 145.978182 59.313985 
L 154.996364 59.22022 
L 157.250909 58.140762 
L 159.505455 61.258935 
L 161.76 60.22275 
L 168.523636 58.003724 
L 170.778182 58.792283 
L 173.032727 57.775335 
L 175.287273 57.388265 
L 177.541818 57.426732 
L 186.56 57.426732 
L 188.814545 58.164805 
L 191.069091 57.8715 
L 193.323636 54.541761 
L 200.087273 52.474197 
L 202.341818 53.354114 
L 204.596364 54.111417 
L 206.850909 52.27225 
L 209.105455 51.096628 
L 215.869091 52.849243 
L 218.123636 51.18558 
L 220.378182 47.920751 
L 222.632727 45.922909 
L 224.887273 49.024259 
L 231.650909 50.009951 
L 233.905455 47.944794 
L 236.16 49.257461 
L 238.414545 49.870514 
L 240.669091 51.029312 
L 247.432727 50.065249 
L 249.687273 49.368049 
L 251.941818 49.839259 
L 254.196364 52.430924 
L 256.450909 54.428766 
L 265.469091 56.868969 
L 267.723636 56.383335 
L 269.978182 56.792042 
L 272.232727 63.158206 
L 278.996364 62.730269 
L 281.250909 62.338393 
L 283.505455 62.475431 
L 285.76 60.04244 
L 288.014545 57.508472 
L 294.778182 56.792042 
L 297.032727 57.325762 
L 299.287273 57.075729 
L 301.541818 58.871624 
L 303.796364 61.052183 
L 310.56 62.261466 
L 312.814545 60.083313 
L 315.069091 60.015998 
L 317.323636 55.28464 
L 319.578182 54.118629 
L 326.341818 52.979068 
L 328.596364 50.252772 
L 330.850909 53.260356 
L 333.105455 51.507734 
L 335.36 50.074868 
L 342.123636 50.510017 
L 344.378182 50.449913 
L 346.632727 49.065125 
L 348.887273 48.406392 
L 351.141818 47.572155 
L 357.905455 48.843948 
L 360.16 47.625046 
L 362.414545 48.377544 
L 364.669091 48.718928 
L 373.687273 49.764731 
L 375.941818 51.000464 
L 378.196364 51.293762 
L 380.450909 49.151678 
L 382.705455 49.012233 
L 389.469091 49.363236 
L 391.723636 49.452196 
L 393.978182 48.836736 
L 396.232727 48.800668 
L 398.487273 49.42334 
" clip-path="url(#p41edebb1a8)" style="fill: none; stroke: #e377c2; stroke-width: 1.5; stroke-linecap: square"/>
   </g>
   <g id="line2d_15">
    <path d="M 73.832727 104.009396 
L 76.087273 104.656111 
L 78.341818 103.920441 
L 80.596364 103.845913 
L 82.850909 103.429997 
L 89.614545 104.552731 
L 91.869091 105.233104 
L 94.123636 104.963841 
L 96.378182 104.978265 
L 98.632727 105.144152 
L 105.396364 105.13694 
L 107.650909 105.197043 
L 109.905455 105.730759 
L 112.16 105.786057 
L 114.414545 106.524127 
L 121.178182 106.346223 
L 123.432727 106.71165 
L 125.687273 106.012047 
L 127.941818 106.062532 
L 130.196364 105.774036 
L 139.214545 105.355714 
L 141.469091 105.288398 
L 143.723636 105.045581 
L 145.978182 104.872483 
L 154.996364 103.788216 
L 157.250909 103.704069 
L 159.505455 103.398742 
L 161.76 103.191986 
L 168.523636 103.615117 
L 170.778182 103.684836 
L 173.032727 103.369894 
L 175.287273 103.631944 
L 177.541818 103.910826 
L 186.56 104.348378 
L 188.814545 104.884504 
L 191.069091 105.776439 
L 193.323636 104.76189 
L 200.087273 104.490225 
L 202.341818 104.814782 
L 204.596364 104.372421 
L 206.850909 104.730639 
L 209.105455 104.773912 
L 215.869091 104.187301 
L 218.123636 103.610308 
L 220.378182 102.514019 
L 222.632727 102.89868 
L 224.887273 103.636754 
L 231.650909 103.756961 
L 233.905455 103.805043 
L 236.16 104.442139 
L 238.414545 103.69926 
L 240.669091 103.725706 
L 247.432727 103.631944 
L 249.687273 103.975738 
L 251.941818 103.848319 
L 254.196364 104.112773 
L 256.450909 104.160855 
L 265.469091 105.555258 
L 267.723636 105.692296 
L 269.978182 106.079363 
L 272.232727 106.839069 
L 278.996364 106.411132 
L 281.250909 105.370138 
L 283.505455 106.846281 
L 285.76 106.75252 
L 288.014545 106.928025 
L 294.778182 107.73341 
L 297.032727 108.079608 
L 299.287273 108.43542 
L 301.541818 109.007607 
L 303.796364 109.43795 
L 310.56 110.322673 
L 312.814545 110.962176 
L 315.069091 110.945347 
L 317.323636 110.882838 
L 319.578182 111.515127 
L 326.341818 111.688226 
L 328.596364 111.421366 
L 330.850909 112.909531 
L 333.105455 113.500949 
L 335.36 113.575477 
L 342.123636 112.635458 
L 344.378182 112.395044 
L 346.632727 111.959893 
L 348.887273 111.705055 
L 351.141818 110.983812 
L 357.905455 110.724164 
L 360.16 111.048725 
L 362.414545 111.320392 
L 364.669091 111.204993 
L 373.687273 111.277118 
L 375.941818 110.846776 
L 378.196364 111.048725 
L 380.450909 110.589533 
L 382.705455 110.505388 
L 389.469091 109.719233 
L 391.723636 109.772124 
L 393.978182 109.421119 
L 396.232727 109.358613 
L 398.487273 109.397077 
" clip-path="url(#p41edebb1a8)" style="fill: none; stroke: #7f7f7f; stroke-width: 1.5; stroke-linecap: square"/>
   </g>
   <g id="line2d_16">
    <path d="M 73.832727 133.479372 
L 76.087273 133.426481 
L 78.341818 133.267808 
L 80.596364 133.315891 
L 82.850909 133.327911 
L 89.614545 133.400035 
L 91.869091 133.457735 
L 94.123636 133.493797 
L 96.378182 133.407248 
L 98.632727 133.363973 
L 105.396364 133.222129 
L 107.650909 133.183663 
L 109.905455 133.190875 
L 112.16 133.318295 
L 114.414545 133.407248 
L 121.178182 133.440906 
L 123.432727 133.402439 
L 125.687273 133.311082 
L 127.941818 133.41446 
L 130.196364 133.325507 
L 139.214545 133.291849 
L 141.469091 133.412056 
L 143.723636 133.294253 
L 145.978182 133.306274 
L 154.996364 133.462543 
L 157.250909 133.662087 
L 159.505455 134.001071 
L 161.76 133.866439 
L 168.523636 133.669299 
L 170.778182 133.674108 
L 173.032727 133.553901 
L 175.287273 133.563517 
L 177.541818 133.522647 
L 186.56 133.585154 
L 188.814545 133.748636 
L 191.069091 133.815952 
L 193.323636 133.746232 
L 200.087273 133.75104 
L 202.341818 133.731807 
L 204.596364 133.726999 
L 206.850909 133.580346 
L 209.105455 133.736616 
L 215.869091 133.861631 
L 218.123636 133.630833 
L 220.378182 133.777486 
L 222.632727 133.844802 
L 224.887273 133.912118 
L 231.650909 133.91933 
L 233.905455 133.868843 
L 236.16 133.931351 
L 238.414545 134.070791 
L 240.669091 133.943371 
L 247.432727 133.885672 
L 249.687273 133.900097 
L 251.941818 133.803931 
L 254.196364 133.880864 
L 256.450909 133.914522 
L 265.469091 134.073195 
L 267.723636 134.11647 
L 269.978182 134.11647 
L 272.232727 134.133299 
L 278.996364 134.239081 
L 281.250909 134.287164 
L 283.505455 134.299185 
L 285.76 134.296781 
L 288.014545 134.18619 
L 294.778182 134.210231 
L 297.032727 134.328034 
L 299.287273 134.277548 
L 301.541818 134.380925 
L 303.796364 134.628552 
L 310.56 134.715101 
L 312.814545 134.638169 
L 315.069091 134.679039 
L 317.323636 134.630956 
L 319.578182 134.837713 
L 326.341818 134.775205 
L 328.596364 134.698272 
L 330.850909 134.876179 
L 333.105455 134.941091 
L 335.36 134.880987 
L 342.123636 134.787225 
L 344.378182 134.707889 
L 346.632727 134.58047 
L 348.887273 134.554024 
L 351.141818 134.431413 
L 357.905455 134.49392 
L 360.16 134.49392 
L 362.414545 134.426604 
L 364.669091 134.35448 
L 373.687273 134.234273 
L 375.941818 134.126086 
L 378.196364 134.135703 
L 380.450909 134.080408 
L 382.705455 134.243889 
L 389.469091 134.371309 
L 391.723636 134.349672 
L 393.978182 134.330439 
L 396.232727 134.481899 
L 398.487273 134.450646 
" clip-path="url(#p41edebb1a8)" style="fill: none; stroke: #bcbd22; stroke-width: 1.5; stroke-linecap: square"/>
   </g>
   <g id="line2d_17">
    <path d="M 73.832727 123.153581 
L 76.087273 123.180027 
L 78.341818 122.927591 
L 80.596364 122.932399 
L 82.850909 122.829022 
L 89.614545 123.14156 
L 91.869091 123.12954 
L 94.123636 123.103094 
L 96.378182 123.314658 
L 98.632727 123.401208 
L 105.396364 123.194451 
L 107.650909 123.230514 
L 109.905455 123.297829 
L 112.16 123.552668 
L 114.414545 123.627198 
L 121.178182 123.651239 
L 123.432727 123.232917 
L 125.687273 123.040586 
L 127.941818 123.172813 
L 130.196364 122.970866 
L 139.214545 122.853063 
L 141.469091 123.038182 
L 143.723636 122.891529 
L 145.978182 122.925187 
L 154.996364 123.011736 
L 157.250909 122.929996 
L 159.505455 123.030969 
L 161.76 122.468401 
L 168.523636 123.042991 
L 170.778182 122.910762 
L 173.032727 122.932399 
L 175.287273 122.958844 
L 177.541818 122.706411 
L 186.56 122.804979 
L 188.814545 122.939613 
L 191.069091 123.228109 
L 193.323636 123.139155 
L 200.087273 123.021353 
L 202.341818 122.71843 
L 204.596364 122.648712 
L 206.850909 122.679965 
L 209.105455 122.691985 
L 215.869091 122.660731 
L 218.123636 122.550141 
L 220.378182 122.603032 
L 222.632727 123.656046 
L 224.887273 123.538244 
L 231.650909 123.492564 
L 233.905455 123.403612 
L 236.16 123.281 
L 238.414545 123.480545 
L 240.669091 123.420441 
L 247.432727 123.148772 
L 249.687273 123.581518 
L 251.941818 123.567094 
L 254.196364 123.600752 
L 256.450909 123.543051 
L 265.469091 123.841166 
L 267.723636 123.78587 
L 269.978182 123.872419 
L 272.232727 123.735383 
L 278.996364 123.817123 
L 281.250909 123.836357 
L 283.505455 123.843569 
L 285.76 123.978202 
L 288.014545 123.766636 
L 294.778182 123.819528 
L 297.032727 124.098409 
L 299.287273 124.324397 
L 301.541818 124.632129 
L 303.796364 124.826864 
L 310.56 125.276438 
L 312.814545 125.045641 
L 315.069091 125.497619 
L 317.323636 125.199506 
L 319.578182 125.485599 
L 326.341818 124.983133 
L 328.596364 124.665787 
L 330.850909 125.043236 
L 333.105455 125.187485 
L 335.36 125.10334 
L 342.123636 125.048045 
L 344.378182 124.939858 
L 346.632727 124.764356 
L 348.887273 124.764356 
L 351.141818 124.709062 
L 357.905455 124.675402 
L 360.16 124.855714 
L 362.414545 124.723486 
L 364.669091 124.699445 
L 373.687273 124.600874 
L 375.941818 124.422968 
L 378.196364 124.358055 
L 380.450909 124.281123 
L 382.705455 124.302761 
L 389.469091 124.216212 
L 391.723636 124.139279 
L 393.978182 124.127258 
L 396.232727 124.237848 
L 398.487273 124.358055 
" clip-path="url(#p41edebb1a8)" style="fill: none; stroke: #17becf; stroke-width: 1.5; stroke-linecap: square"/>
   </g>
   <g id="patch_3">
    <path d="M 57.6 139.392 
L 57.6 41.472 
" style="fill: none; stroke: #000000; stroke-width: 0.8; stroke-linejoin: miter; stroke-linecap: square"/>
   </g>
   <g id="patch_4">
    <path d="M 414.72 139.392 
L 414.72 41.472 
" style="fill: none; stroke: #000000; stroke-width: 0.8; stroke-linejoin: miter; stroke-linecap: square"/>
   </g>
   <g id="patch_5">
    <path d="M 57.6 139.392 
L 414.72 139.392 
" style="fill: none; stroke: #000000; stroke-width: 0.8; stroke-linejoin: miter; stroke-linecap: square"/>
   </g>
   <g id="patch_6">
    <path d="M 57.6 41.472 
L 414.72 41.472 
" style="fill: none; stroke: #000000; stroke-width: 0.8; stroke-linejoin: miter; stroke-linecap: square"/>
   </g>
   <g id="text_10">
    <!-- Correlation of Stock EOD Closing Prices -->
    <g transform="translate(118.324687 35.472)scale(0.12 -0.12)">
     <defs>
      <path id="DejaVuSans-43" d="M 4122 4306 
L 4122 3641 
Q 3803 3938 3442 4084 
Q 3081 4231 2675 4231 
Q 1875 4231 1450 3742 
Q 1025 3253 1025 2328 
Q 1025 1406 1450 917 
Q 1875 428 2675 428 
Q 3081 428 3442 575 
Q 3803 722 4122 1019 
L 4122 359 
Q 3791 134 3420 21 
Q 3050 -91 2638 -91 
Q 1578 -91 968 557 
Q 359 1206 359 2328 
Q 359 3453 968 4101 
Q 1578 4750 2638 4750 
Q 3056 4750 3426 4639 
Q 3797 4528 4122 4306 
z
" transform="scale(0.015625)"/>
      <path id="DejaVuSans-6c" d="M 603 4863 
L 1178 4863 
L 1178 0 
L 603 0 
L 603 4863 
z
" transform="scale(0.015625)"/>
      <path id="DejaVuSans-6e" d="M 3513 2113 
L 3513 0 
L 2938 0 
L 2938 2094 
Q 2938 2591 2744 2837 
Q 2550 3084 2163 3084 
Q 1697 3084 1428 2787 
Q 1159 2491 1159 1978 
L 1159 0 
L 581 0 
L 581 3500 
L 1159 3500 
L 1159 2956 
Q 1366 3272 1645 3428 
Q 1925 3584 2291 3584 
Q 2894 3584 3203 3211 
Q 3513 2838 3513 2113 
z
" transform="scale(0.015625)"/>
      <path id="DejaVuSans-66" d="M 2375 4863 
L 2375 4384 
L 1825 4384 
Q 1516 4384 1395 4259 
Q 1275 4134 1275 3809 
L 1275 3500 
L 2222 3500 
L 2222 3053 
L 1275 3053 
L 1275 0 
L 697 0 
L 697 3053 
L 147 3053 
L 147 3500 
L 697 3500 
L 697 3744 
Q 697 4328 969 4595 
Q 1241 4863 1831 4863 
L 2375 4863 
z
" transform="scale(0.015625)"/>
      <path id="DejaVuSans-45" d="M 628 4666 
L 3578 4666 
L 3578 4134 
L 1259 4134 
L 1259 2753 
L 3481 2753 
L 3481 2222 
L 1259 2222 
L 1259 531 
L 3634 531 
L 3634 0 
L 628 0 
L 628 4666 
z
" transform="scale(0.015625)"/>
      <path id="DejaVuSans-4f" d="M 2522 4238 
Q 1834 4238 1429 3725 
Q 1025 3213 1025 2328 
Q 1025 1447 1429 934 
Q 1834 422 2522 422 
Q 3209 422 3611 934 
Q 4013 1447 4013 2328 
Q 4013 3213 3611 3725 
Q 3209 4238 2522 4238 
z
M 2522 4750 
Q 3503 4750 4090 4092 
Q 4678 3434 4678 2328 
Q 4678 1225 4090 567 
Q 3503 -91 2522 -91 
Q 1538 -91 948 565 
Q 359 1222 359 2328 
Q 359 3434 948 4092 
Q 1538 4750 2522 4750 
z
" transform="scale(0.015625)"/>
      <path id="DejaVuSans-73" d="M 2834 3397 
L 2834 2853 
Q 2591 2978 2328 3040 
Q 2066 3103 1784 3103 
Q 1356 3103 1142 2972 
Q 928 2841 928 2578 
Q 928 2378 1081 2264 
Q 1234 2150 1697 2047 
L 1894 2003 
Q 2506 1872 2764 1633 
Q 3022 1394 3022 966 
Q 3022 478 2636 193 
Q 2250 -91 1575 -91 
Q 1294 -91 989 -36 
Q 684 19 347 128 
L 347 722 
Q 666 556 975 473 
Q 1284 391 1588 391 
Q 1994 391 2212 530 
Q 2431 669 2431 922 
Q 2431 1156 2273 1281 
Q 2116 1406 1581 1522 
L 1381 1569 
Q 847 1681 609 1914 
Q 372 2147 372 2553 
Q 372 3047 722 3315 
Q 1072 3584 1716 3584 
Q 2034 3584 2315 3537 
Q 2597 3491 2834 3397 
z
" transform="scale(0.015625)"/>
      <path id="DejaVuSans-67" d="M 2906 1791 
Q 2906 2416 2648 2759 
Q 2391 3103 1925 3103 
Q 1463 3103 1205 2759 
Q 947 2416 947 1791 
Q 947 1169 1205 825 
Q 1463 481 1925 481 
Q 2391 481 2648 825 
Q 2906 1169 2906 1791 
z
M 3481 434 
Q 3481 -459 3084 -895 
Q 2688 -1331 1869 -1331 
Q 1566 -1331 1297 -1286 
Q 1028 -1241 775 -1147 
L 775 -588 
Q 1028 -725 1275 -790 
Q 1522 -856 1778 -856 
Q 2344 -856 2625 -561 
Q 2906 -266 2906 331 
L 2906 616 
Q 2728 306 2450 153 
Q 2172 0 1784 0 
Q 1141 0 747 490 
Q 353 981 353 1791 
Q 353 2603 747 3093 
Q 1141 3584 1784 3584 
Q 2172 3584 2450 3431 
Q 2728 3278 2906 2969 
L 2906 3500 
L 3481 3500 
L 3481 434 
z
" transform="scale(0.015625)"/>
     </defs>
     <use xlink:href="#DejaVuSans-43"/>
     <use xlink:href="#DejaVuSans-6f" x="69.824219"/>
     <use xlink:href="#DejaVuSans-72" x="131.005859"/>
     <use xlink:href="#DejaVuSans-72" x="170.369141"/>
     <use xlink:href="#DejaVuSans-65" x="209.232422"/>
     <use xlink:href="#DejaVuSans-6c" x="270.755859"/>
     <use xlink:href="#DejaVuSans-61" x="298.539062"/>
     <use xlink:href="#DejaVuSans-74" x="359.818359"/>
     <use xlink:href="#DejaVuSans-69" x="399.027344"/>
     <use xlink:href="#DejaVuSans-6f" x="426.810547"/>
     <use xlink:href="#DejaVuSans-6e" x="487.992188"/>
     <use xlink:href="#DejaVuSans-20" x="551.371094"/>
     <use xlink:href="#DejaVuSans-6f" x="583.158203"/>
     <use xlink:href="#DejaVuSans-66" x="644.339844"/>
     <use xlink:href="#DejaVuSans-20" x="679.544922"/>
     <use xlink:href="#DejaVuSans-53" x="711.332031"/>
     <use xlink:href="#DejaVuSans-74" x="774.808594"/>
     <use xlink:href="#DejaVuSans-6f" x="814.017578"/>
     <use xlink:href="#DejaVuSans-63" x="875.199219"/>
     <use xlink:href="#DejaVuSans-6b" x="930.179688"/>
     <use xlink:href="#DejaVuSans-20" x="988.089844"/>
     <use xlink:href="#DejaVuSans-45" x="1019.876953"/>
     <use xlink:href="#DejaVuSans-4f" x="1083.060547"/>
     <use xlink:href="#DejaVuSans-44" x="1161.771484"/>
     <use xlink:href="#DejaVuSans-20" x="1238.773438"/>
     <use xlink:href="#DejaVuSans-43" x="1270.560547"/>
     <use xlink:href="#DejaVuSans-6c" x="1340.384766"/>
     <use xlink:href="#DejaVuSans-6f" x="1368.167969"/>
     <use xlink:href="#DejaVuSans-73" x="1429.349609"/>
     <use xlink:href="#DejaVuSans-69" x="1481.449219"/>
     <use xlink:href="#DejaVuSans-6e" x="1509.232422"/>
     <use xlink:href="#DejaVuSans-67" x="1572.611328"/>
     <use xlink:href="#DejaVuSans-20" x="1636.087891"/>
     <use xlink:href="#DejaVuSans-50" x="1667.875"/>
     <use xlink:href="#DejaVuSans-72" x="1726.427734"/>
     <use xlink:href="#DejaVuSans-69" x="1767.541016"/>
     <use xlink:href="#DejaVuSans-63" x="1795.324219"/>
     <use xlink:href="#DejaVuSans-65" x="1850.304688"/>
     <use xlink:href="#DejaVuSans-73" x="1911.828125"/>
    </g>
   </g>
  </g>
  <g id="axes_2">
   <g id="patch_7">
    <path d="M 57.6 276.48 
L 414.72 276.48 
L 414.72 178.56 
L 57.6 178.56 
z
" style="fill: #ffffff"/>
   </g>
   <g id="matplotlib.axis_3">
    <g id="xtick_6">
     <g id="line2d_18">
      <g>
       <use xlink:href="#m8547d3345a" x="80.596364" y="276.48" style="stroke: #000000; stroke-width: 0.8"/>
      </g>
     </g>
     <g id="text_11">
      <!-- 2022-12 -->
      <g transform="translate(43.371543 310.951846)rotate(-30)scale(0.1 -0.1)">
       <use xlink:href="#DejaVuSans-32"/>
       <use xlink:href="#DejaVuSans-30" x="63.623047"/>
       <use xlink:href="#DejaVuSans-32" x="127.246094"/>
       <use xlink:href="#DejaVuSans-32" x="190.869141"/>
       <use xlink:href="#DejaVuSans-2d" x="254.492188"/>
       <use xlink:href="#DejaVuSans-31" x="290.576172"/>
       <use xlink:href="#DejaVuSans-32" x="354.199219"/>
      </g>
     </g>
    </g>
    <g id="xtick_7">
     <g id="line2d_19">
      <g>
       <use xlink:href="#m8547d3345a" x="150.487273" y="276.48" style="stroke: #000000; stroke-width: 0.8"/>
      </g>
     </g>
     <g id="text_12">
      <!-- 2023-01 -->
      <g transform="translate(113.262452 310.951846)rotate(-30)scale(0.1 -0.1)">
       <use xlink:href="#DejaVuSans-32"/>
       <use xlink:href="#DejaVuSans-30" x="63.623047"/>
       <use xlink:href="#DejaVuSans-32" x="127.246094"/>
       <use xlink:href="#DejaVuSans-33" x="190.869141"/>
       <use xlink:href="#DejaVuSans-2d" x="254.492188"/>
       <use xlink:href="#DejaVuSans-30" x="290.576172"/>
       <use xlink:href="#DejaVuSans-31" x="354.199219"/>
      </g>
     </g>
    </g>
    <g id="xtick_8">
     <g id="line2d_20">
      <g>
       <use xlink:href="#m8547d3345a" x="220.378182" y="276.48" style="stroke: #000000; stroke-width: 0.8"/>
      </g>
     </g>
     <g id="text_13">
      <!-- 2023-02 -->
      <g transform="translate(183.153361 310.951846)rotate(-30)scale(0.1 -0.1)">
       <use xlink:href="#DejaVuSans-32"/>
       <use xlink:href="#DejaVuSans-30" x="63.623047"/>
       <use xlink:href="#DejaVuSans-32" x="127.246094"/>
       <use xlink:href="#DejaVuSans-33" x="190.869141"/>
       <use xlink:href="#DejaVuSans-2d" x="254.492188"/>
       <use xlink:href="#DejaVuSans-30" x="290.576172"/>
       <use xlink:href="#DejaVuSans-32" x="354.199219"/>
      </g>
     </g>
    </g>
    <g id="xtick_9">
     <g id="line2d_21">
      <g>
       <use xlink:href="#m8547d3345a" x="283.505455" y="276.48" style="stroke: #000000; stroke-width: 0.8"/>
      </g>
     </g>
     <g id="text_14">
      <!-- 2023-03 -->
      <g transform="translate(246.280634 310.951846)rotate(-30)scale(0.1 -0.1)">
       <use xlink:href="#DejaVuSans-32"/>
       <use xlink:href="#DejaVuSans-30" x="63.623047"/>
       <use xlink:href="#DejaVuSans-32" x="127.246094"/>
       <use xlink:href="#DejaVuSans-33" x="190.869141"/>
       <use xlink:href="#DejaVuSans-2d" x="254.492188"/>
       <use xlink:href="#DejaVuSans-30" x="290.576172"/>
       <use xlink:href="#DejaVuSans-33" x="354.199219"/>
      </g>
     </g>
    </g>
    <g id="xtick_10">
     <g id="line2d_22">
      <g>
       <use xlink:href="#m8547d3345a" x="353.396364" y="276.48" style="stroke: #000000; stroke-width: 0.8"/>
      </g>
     </g>
     <g id="text_15">
      <!-- 2023-04 -->
      <g transform="translate(316.171543 310.951846)rotate(-30)scale(0.1 -0.1)">
       <use xlink:href="#DejaVuSans-32"/>
       <use xlink:href="#DejaVuSans-30" x="63.623047"/>
       <use xlink:href="#DejaVuSans-32" x="127.246094"/>
       <use xlink:href="#DejaVuSans-33" x="190.869141"/>
       <use xlink:href="#DejaVuSans-2d" x="254.492188"/>
       <use xlink:href="#DejaVuSans-30" x="290.576172"/>
       <use xlink:href="#DejaVuSans-34" x="354.199219"/>
      </g>
     </g>
    </g>
    <g id="text_16">
     <!-- Date -->
     <g transform="translate(224.209219 324.351346)scale(0.1 -0.1)">
      <use xlink:href="#DejaVuSans-44"/>
      <use xlink:href="#DejaVuSans-61" x="77.001953"/>
      <use xlink:href="#DejaVuSans-74" x="138.28125"/>
      <use xlink:href="#DejaVuSans-65" x="177.490234"/>
     </g>
    </g>
   </g>
   <g id="matplotlib.axis_4">
    <g id="ytick_3">
     <g id="line2d_23">
      <g>
       <use xlink:href="#m5845936d24" x="57.6" y="273.134654" style="stroke: #000000; stroke-width: 0.8"/>
      </g>
     </g>
     <g id="text_17">
      <!-- 0 -->
      <g transform="translate(44.2375 276.933873)scale(0.1 -0.1)">
       <use xlink:href="#DejaVuSans-30"/>
      </g>
     </g>
    </g>
    <g id="ytick_4">
     <g id="line2d_24">
      <g>
       <use xlink:href="#m5845936d24" x="57.6" y="230.97781" style="stroke: #000000; stroke-width: 0.8"/>
      </g>
     </g>
     <g id="text_18">
      <!-- 2 -->
      <g transform="translate(44.2375 234.777029)scale(0.1 -0.1)">
       <use xlink:href="#DejaVuSans-32"/>
      </g>
     </g>
    </g>
    <g id="ytick_5">
     <g id="line2d_25">
      <g>
       <use xlink:href="#m5845936d24" x="57.6" y="188.820965" style="stroke: #000000; stroke-width: 0.8"/>
      </g>
     </g>
     <g id="text_19">
      <!-- 4 -->
      <g transform="translate(44.2375 192.620184)scale(0.1 -0.1)">
       <use xlink:href="#DejaVuSans-34"/>
      </g>
     </g>
    </g>
    <g id="text_20">
     <!-- Stock Volume -->
     <g transform="translate(38.157812 261.544219)rotate(-90)scale(0.1 -0.1)">
      <defs>
       <path id="DejaVuSans-56" d="M 1831 0 
L 50 4666 
L 709 4666 
L 2188 738 
L 3669 4666 
L 4325 4666 
L 2547 0 
L 1831 0 
z
" transform="scale(0.015625)"/>
       <path id="DejaVuSans-75" d="M 544 1381 
L 544 3500 
L 1119 3500 
L 1119 1403 
Q 1119 906 1312 657 
Q 1506 409 1894 409 
Q 2359 409 2629 706 
Q 2900 1003 2900 1516 
L 2900 3500 
L 3475 3500 
L 3475 0 
L 2900 0 
L 2900 538 
Q 2691 219 2414 64 
Q 2138 -91 1772 -91 
Q 1169 -91 856 284 
Q 544 659 544 1381 
z
M 1991 3584 
L 1991 3584 
z
" transform="scale(0.015625)"/>
       <path id="DejaVuSans-6d" d="M 3328 2828 
Q 3544 3216 3844 3400 
Q 4144 3584 4550 3584 
Q 5097 3584 5394 3201 
Q 5691 2819 5691 2113 
L 5691 0 
L 5113 0 
L 5113 2094 
Q 5113 2597 4934 2840 
Q 4756 3084 4391 3084 
Q 3944 3084 3684 2787 
Q 3425 2491 3425 1978 
L 3425 0 
L 2847 0 
L 2847 2094 
Q 2847 2600 2669 2842 
Q 2491 3084 2119 3084 
Q 1678 3084 1418 2786 
Q 1159 2488 1159 1978 
L 1159 0 
L 581 0 
L 581 3500 
L 1159 3500 
L 1159 2956 
Q 1356 3278 1631 3431 
Q 1906 3584 2284 3584 
Q 2666 3584 2933 3390 
Q 3200 3197 3328 2828 
z
" transform="scale(0.015625)"/>
      </defs>
      <use xlink:href="#DejaVuSans-53"/>
      <use xlink:href="#DejaVuSans-74" x="63.476562"/>
      <use xlink:href="#DejaVuSans-6f" x="102.685547"/>
      <use xlink:href="#DejaVuSans-63" x="163.867188"/>
      <use xlink:href="#DejaVuSans-6b" x="218.847656"/>
      <use xlink:href="#DejaVuSans-20" x="276.757812"/>
      <use xlink:href="#DejaVuSans-56" x="308.544922"/>
      <use xlink:href="#DejaVuSans-6f" x="369.203125"/>
      <use xlink:href="#DejaVuSans-6c" x="430.384766"/>
      <use xlink:href="#DejaVuSans-75" x="458.167969"/>
      <use xlink:href="#DejaVuSans-6d" x="521.546875"/>
      <use xlink:href="#DejaVuSans-65" x="618.958984"/>
     </g>
    </g>
    <g id="text_21">
     <!-- 1e7 -->
     <g transform="translate(57.6 175.56)scale(0.1 -0.1)">
      <defs>
       <path id="DejaVuSans-37" d="M 525 4666 
L 3525 4666 
L 3525 4397 
L 1831 0 
L 1172 0 
L 2766 4134 
L 525 4134 
L 525 4666 
z
" transform="scale(0.015625)"/>
      </defs>
      <use xlink:href="#DejaVuSans-31"/>
      <use xlink:href="#DejaVuSans-65" x="63.623047"/>
      <use xlink:href="#DejaVuSans-37" x="125.146484"/>
     </g>
    </g>
   </g>
   <g id="line2d_26">
    <path d="M 73.832727 267.288554 
L 76.087273 269.207533 
L 78.341818 260.844669 
L 80.596364 267.57248 
L 82.850909 269.294376 
L 89.614545 268.617337 
L 91.869091 269.088651 
L 94.123636 267.440318 
L 96.378182 265.155839 
L 98.632727 268.213053 
L 105.396364 264.960864 
L 107.650909 266.269623 
L 109.905455 266.609407 
L 112.16 266.101839 
L 114.414545 257.115475 
L 121.178182 267.991308 
L 123.432727 267.015588 
L 125.687273 267.700426 
L 127.941818 268.521852 
L 130.196364 267.634661 
L 139.214545 269.31693 
L 141.469091 269.001176 
L 143.723636 268.790813 
L 145.978182 268.716617 
L 154.996364 267.627284 
L 157.250909 267.296564 
L 159.505455 267.640353 
L 161.76 268.04 
L 168.523636 267.082407 
L 170.778182 269.660719 
L 173.032727 268.890514 
L 175.287273 269.257278 
L 177.541818 269.565234 
L 186.56 265.734231 
L 188.814545 264.158408 
L 191.069091 262.638232 
L 193.323636 263.916006 
L 200.087273 265.942275 
L 202.341818 251.473414 
L 204.596364 260.501934 
L 206.850909 263.384619 
L 209.105455 264.461937 
L 215.869091 260.692272 
L 218.123636 262.445365 
L 220.378182 266.598657 
L 222.632727 262.769972 
L 224.887273 267.480578 
L 231.650909 267.891818 
L 233.905455 268.533867 
L 236.16 267.840387 
L 238.414545 265.542417 
L 240.669091 268.340367 
L 247.432727 268.397068 
L 249.687273 267.944514 
L 251.941818 267.807505 
L 254.196364 267.453809 
L 256.450909 267.174309 
L 265.469091 264.937045 
L 267.723636 267.538333 
L 269.978182 266.929588 
L 272.232727 267.100113 
L 278.996364 265.639167 
L 281.250909 266.009094 
L 283.505455 262.775242 
L 285.76 257.137607 
L 288.014545 266.725128 
L 294.778182 267.188853 
L 297.032727 266.025324 
L 299.287273 265.894848 
L 301.541818 265.833721 
L 303.796364 265.348496 
L 310.56 264.25832 
L 312.814545 263.076031 
L 315.069091 262.823722 
L 317.323636 265.456628 
L 319.578182 249.135395 
L 326.341818 267.397318 
L 328.596364 267.604519 
L 330.850909 267.221103 
L 333.105455 266.437407 
L 335.36 265.645702 
L 342.123636 267.238176 
L 344.378182 267.94346 
L 346.632727 266.34403 
L 348.887273 268.181857 
L 351.141818 265.526187 
L 357.905455 264.66682 
L 360.16 265.813486 
L 362.414545 267.544657 
L 364.669091 268.035362 
L 373.687273 267.063647 
L 375.941818 266.912304 
L 378.196364 267.391206 
L 380.450909 265.893795 
L 382.705455 267.248716 
L 389.469091 268.003955 
L 391.723636 269.104249 
L 393.978182 269.091813 
L 396.232727 265.345545 
L 398.487273 259.663572 
" clip-path="url(#p1c97d36c7c)" style="fill: none; stroke: #1f77b4; stroke-width: 1.5; stroke-linecap: square"/>
   </g>
   <g id="line2d_27">
    <path d="M 73.832727 271.52363 
L 76.087273 270.008935 
L 78.341818 268.709239 
L 80.596364 270.83542 
L 82.850909 271.174361 
L 89.614545 270.832047 
L 91.869091 271.181949 
L 94.123636 271.726616 
L 96.378182 270.699253 
L 98.632727 270.868935 
L 105.396364 271.228111 
L 107.650909 270.740778 
L 109.905455 270.584587 
L 112.16 269.505371 
L 114.414545 268.718514 
L 121.178182 271.544498 
L 123.432727 270.586905 
L 125.687273 271.231905 
L 127.941818 271.494121 
L 130.196364 271.280807 
L 139.214545 271.385988 
L 141.469091 271.637665 
L 143.723636 271.734415 
L 145.978182 271.886601 
L 154.996364 270.25492 
L 157.250909 270.912145 
L 159.505455 271.047258 
L 161.76 271.381562 
L 168.523636 270.613886 
L 170.778182 269.821969 
L 173.032727 270.187258 
L 175.287273 270.687871 
L 177.541818 271.441003 
L 186.56 270.107371 
L 188.814545 270.370851 
L 191.069091 270.931327 
L 193.323636 270.585641 
L 200.087273 270.874415 
L 202.341818 271.661062 
L 204.596364 271.681086 
L 206.850909 269.768009 
L 209.105455 269.516121 
L 215.869091 269.535724 
L 218.123636 259.749434 
L 220.378182 268.656965 
L 222.632727 269.703719 
L 224.887273 271.127778 
L 231.650909 270.355464 
L 233.905455 270.609881 
L 236.16 271.335822 
L 238.414545 271.501498 
L 240.669091 271.522787 
L 247.432727 270.908984 
L 249.687273 271.288395 
L 251.941818 271.880699 
L 254.196364 271.570635 
L 256.450909 270.650141 
L 265.469091 270.113273 
L 267.723636 271.814513 
L 269.978182 271.427513 
L 272.232727 271.426459 
L 278.996364 271.725772 
L 281.250909 270.990346 
L 283.505455 269.22271 
L 285.76 271.204925 
L 288.014545 271.393366 
L 294.778182 271.01817 
L 297.032727 271.333714 
L 299.287273 271.764346 
L 301.541818 269.978582 
L 303.796364 270.649297 
L 310.56 271.138738 
L 312.814545 271.384302 
L 315.069091 270.438302 
L 317.323636 270.993719 
L 319.578182 267.898353 
L 326.341818 270.870621 
L 328.596364 271.275116 
L 330.850909 271.156444 
L 333.105455 270.593018 
L 335.36 271.288606 
L 342.123636 271.178155 
L 344.378182 271.246449 
L 346.632727 271.411704 
L 348.887273 271.173939 
L 351.141818 271.083513 
L 357.905455 271.321699 
L 360.16 270.679018 
L 362.414545 269.553641 
L 364.669091 270.691454 
L 373.687273 271.586866 
L 375.941818 271.599723 
L 378.196364 271.092155 
L 380.450909 271.481052 
L 382.705455 269.783185 
L 389.469091 270.75764 
L 391.723636 271.355003 
L 393.978182 270.683655 
L 396.232727 271.278067 
L 398.487273 271.663557 
" clip-path="url(#p1c97d36c7c)" style="fill: none; stroke: #ff7f0e; stroke-width: 1.5; stroke-linecap: square"/>
   </g>
   <g id="line2d_28">
    <path d="M 73.832727 264.387741 
L 76.087273 262.948928 
L 78.341818 246.286435 
L 80.596364 262.434825 
L 82.850909 262.713271 
L 89.614545 263.254987 
L 91.869091 264.332937 
L 94.123636 265.562442 
L 96.378182 263.42235 
L 98.632727 261.865287 
L 105.396364 263.117134 
L 107.650909 259.969072 
L 109.905455 261.299331 
L 112.16 262.705472 
L 114.414545 256.322294 
L 121.178182 263.961325 
L 123.432727 265.39255 
L 125.687273 266.329275 
L 127.941818 266.155378 
L 130.196364 267.61548 
L 139.214545 266.964157 
L 141.469091 266.252128 
L 143.723636 266.710373 
L 145.978182 265.818334 
L 154.996364 264.340947 
L 157.250909 263.869634 
L 159.505455 262.812762 
L 161.76 265.124011 
L 168.523636 257.794411 
L 170.778182 261.348233 
L 173.032727 261.857066 
L 175.287273 263.232644 
L 177.541818 261.860438 
L 186.56 261.096767 
L 188.814545 264.095173 
L 191.069091 260.155194 
L 193.323636 262.430399 
L 200.087273 260.244567 
L 202.341818 263.307894 
L 204.596364 260.338366 
L 206.850909 264.367084 
L 209.105455 262.889276 
L 215.869091 263.786795 
L 218.123636 261.123537 
L 220.378182 263.581281 
L 222.632727 262.486257 
L 224.887273 265.220761 
L 231.650909 264.396383 
L 233.905455 265.964618 
L 236.16 264.234712 
L 238.414545 264.8873 
L 240.669091 264.310594 
L 247.432727 265.312452 
L 249.687273 264.188972 
L 251.941818 264.576182 
L 254.196364 266.180883 
L 256.450909 265.622094 
L 265.469091 262.164811 
L 267.723636 254.372961 
L 269.978182 263.415183 
L 272.232727 261.590424 
L 278.996364 263.670864 
L 281.250909 256.531181 
L 283.505455 264.780222 
L 285.76 262.153007 
L 288.014545 262.632541 
L 294.778182 262.584693 
L 297.032727 259.751964 
L 299.287273 259.95516 
L 301.541818 262.287698 
L 303.796364 258.290386 
L 310.56 259.321964 
L 312.814545 262.397517 
L 315.069091 261.094449 
L 317.323636 261.986066 
L 319.578182 250.268571 
L 326.341818 260.328037 
L 328.596364 263.70206 
L 330.850909 265.5323 
L 333.105455 263.596668 
L 335.36 262.028223 
L 342.123636 263.380193 
L 344.378182 262.984551 
L 346.632727 258.843062 
L 348.887273 262.17535 
L 351.141818 259.555091 
L 357.905455 261.684012 
L 360.16 256.316181 
L 362.414545 257.750989 
L 364.669091 262.458433 
L 373.687273 262.805806 
L 375.941818 263.316325 
L 378.196364 263.521418 
L 380.450909 263.061909 
L 382.705455 262.504384 
L 389.469091 263.003521 
L 391.723636 259.323861 
L 393.978182 246.943871 
L 396.232727 257.508798 
L 398.487273 260.223018 
" clip-path="url(#p1c97d36c7c)" style="fill: none; stroke: #2ca02c; stroke-width: 1.5; stroke-linecap: square"/>
   </g>
   <g id="line2d_29">
    <path d="M 73.832727 264.908168 
L 76.087273 265.358824 
L 78.341818 247.118612 
L 80.596364 260.850571 
L 82.850909 264.060604 
L 89.614545 262.891806 
L 91.869091 261.582836 
L 94.123636 263.358904 
L 96.378182 264.124893 
L 98.632727 263.344149 
L 105.396364 264.472687 
L 107.650909 262.489208 
L 109.905455 263.680139 
L 112.16 262.029909 
L 114.414545 233.284843 
L 121.178182 264.632883 
L 123.432727 264.237452 
L 125.687273 265.320461 
L 127.941818 265.533775 
L 130.196364 267.474887 
L 139.214545 267.508402 
L 141.469091 266.928113 
L 143.723636 266.573995 
L 145.978182 265.376952 
L 154.996364 262.727183 
L 157.250909 263.774992 
L 159.505455 265.723481 
L 161.76 262.386556 
L 168.523636 256.623926 
L 170.778182 260.622081 
L 173.032727 257.3427 
L 175.287273 256.977833 
L 177.541818 260.446919 
L 186.56 255.20324 
L 188.814545 260.085425 
L 191.069091 258.021636 
L 193.323636 258.255396 
L 200.087273 257.080485 
L 202.341818 262.234159 
L 204.596364 261.026576 
L 206.850909 263.485374 
L 209.105455 263.456497 
L 215.869091 263.494649 
L 218.123636 261.270243 
L 220.378182 261.668203 
L 222.632727 260.14866 
L 224.887273 259.321964 
L 231.650909 264.077256 
L 233.905455 261.748301 
L 236.16 261.006552 
L 238.414545 247.383357 
L 240.669091 254.255344 
L 247.432727 261.325257 
L 249.687273 263.306207 
L 251.941818 261.229351 
L 254.196364 265.214437 
L 256.450909 263.517835 
L 265.469091 255.289451 
L 267.723636 260.399704 
L 269.978182 260.501723 
L 272.232727 261.286262 
L 278.996364 258.740621 
L 281.250909 257.195784 
L 283.505455 261.571453 
L 285.76 263.506452 
L 288.014545 262.90909 
L 294.778182 264.593888 
L 297.032727 263.424036 
L 299.287273 260.782488 
L 301.541818 261.857277 
L 303.796364 258.747577 
L 310.56 257.001651 
L 312.814545 259.12994 
L 315.069091 259.845552 
L 317.323636 259.789483 
L 319.578182 183.010909 
L 326.341818 263.842864 
L 328.596364 263.279016 
L 330.850909 263.90884 
L 333.105455 263.472305 
L 335.36 263.272693 
L 342.123636 264.939785 
L 344.378182 265.688702 
L 346.632727 264.78781 
L 348.887273 265.470961 
L 351.141818 262.686502 
L 357.905455 263.882492 
L 360.16 264.230285 
L 362.414545 261.029316 
L 364.669091 261.545105 
L 373.687273 266.15875 
L 375.941818 267.072921 
L 378.196364 264.692746 
L 380.450909 264.980467 
L 382.705455 265.813907 
L 389.469091 263.956898 
L 391.723636 262.603453 
L 393.978182 262.960311 
L 396.232727 265.10778 
L 398.487273 262.992955 
" clip-path="url(#p1c97d36c7c)" style="fill: none; stroke: #d62728; stroke-width: 1.5; stroke-linecap: square"/>
   </g>
   <g id="line2d_30">
    <path d="M 73.832727 270.493317 
L 76.087273 270.910881 
L 78.341818 267.302044 
L 80.596364 269.409675 
L 82.850909 269.457523 
L 89.614545 269.339906 
L 91.869091 269.086965 
L 94.123636 269.210695 
L 96.378182 268.822009 
L 98.632727 269.283205 
L 105.396364 268.012808 
L 107.650909 265.721795 
L 109.905455 267.755019 
L 112.16 267.085147 
L 114.414545 259.365175 
L 121.178182 264.392379 
L 123.432727 266.595074 
L 125.687273 265.588368 
L 127.941818 268.336784 
L 130.196364 270.577209 
L 139.214545 271.006577 
L 141.469091 270.211077 
L 143.723636 269.937479 
L 145.978182 270.3112 
L 154.996364 268.391798 
L 157.250909 268.808519 
L 159.505455 267.913318 
L 161.76 269.789509 
L 168.523636 268.536396 
L 170.778182 269.228823 
L 173.032727 268.112931 
L 175.287273 267.901936 
L 177.541818 268.440911 
L 186.56 267.098426 
L 188.814545 268.512789 
L 191.069091 268.471053 
L 193.323636 266.164863 
L 200.087273 267.668387 
L 202.341818 268.48623 
L 204.596364 267.70422 
L 206.850909 269.03996 
L 209.105455 268.705867 
L 215.869091 269.481974 
L 218.123636 269.25243 
L 220.378182 269.346862 
L 222.632727 267.409965 
L 224.887273 268.564852 
L 231.650909 270.473714 
L 233.905455 270.181356 
L 236.16 270.222038 
L 238.414545 269.441715 
L 240.669091 270.294126 
L 247.432727 270.427131 
L 249.687273 269.296063 
L 251.941818 269.150411 
L 254.196364 269.13144 
L 256.450909 267.396264 
L 265.469091 267.978451 
L 267.723636 269.290372 
L 269.978182 269.160318 
L 272.232727 269.477548 
L 278.996364 269.9457 
L 281.250909 268.580872 
L 283.505455 269.550268 
L 285.76 268.332357 
L 288.014545 269.770327 
L 294.778182 269.658612 
L 297.032727 268.45672 
L 299.287273 270.051513 
L 301.541818 269.024783 
L 303.796364 266.970059 
L 310.56 266.321897 
L 312.814545 266.967951 
L 315.069091 263.632501 
L 317.323636 264.451187 
L 319.578182 259.495229 
L 326.341818 266.427289 
L 328.596364 267.166931 
L 330.850909 266.686132 
L 333.105455 262.243644 
L 335.36 264.442756 
L 342.123636 265.243314 
L 344.378182 267.086412 
L 346.632727 268.009436 
L 348.887273 268.300107 
L 351.141818 266.791525 
L 357.905455 268.039367 
L 360.16 268.219798 
L 362.414545 267.984774 
L 364.669091 268.654857 
L 373.687273 269.812906 
L 375.941818 266.552917 
L 378.196364 267.536225 
L 380.450909 266.46502 
L 382.705455 267.081564 
L 389.469091 267.02402 
L 391.723636 269.142823 
L 393.978182 268.487494 
L 396.232727 267.472779 
L 398.487273 269.765437 
" clip-path="url(#p1c97d36c7c)" style="fill: none; stroke: #9467bd; stroke-width: 1.5; stroke-linecap: square"/>
   </g>
   <g id="line2d_31">
    <path d="M 73.832727 250.197958 
L 76.087273 259.902464 
L 78.341818 252.611227 
L 80.596364 257.557911 
L 82.850909 260.177959 
L 89.614545 257.176602 
L 91.869091 256.161255 
L 94.123636 248.319028 
L 96.378182 232.377206 
L 98.632727 255.745167 
L 105.396364 249.271351 
L 107.650909 255.753176 
L 109.905455 262.828149 
L 112.16 258.391984 
L 114.414545 254.837741 
L 121.178182 266.580108 
L 123.432727 266.411691 
L 125.687273 262.759644 
L 127.941818 266.51624 
L 130.196364 268.772896 
L 139.214545 269.490406 
L 141.469091 266.705946 
L 143.723636 266.49474 
L 145.978182 267.421559 
L 154.996364 264.723731 
L 157.250909 262.963683 
L 159.505455 265.294324 
L 161.76 261.659772 
L 168.523636 255.398005 
L 170.778182 262.31236 
L 173.032727 262.447683 
L 175.287273 262.818242 
L 177.541818 264.008751 
L 186.56 251.962644 
L 188.814545 256.470264 
L 191.069091 261.897747 
L 193.323636 257.643279 
L 200.087273 259.814988 
L 202.341818 262.448737 
L 204.596364 264.694222 
L 206.850909 264.785913 
L 209.105455 263.896614 
L 215.869091 264.181805 
L 218.123636 264.45456 
L 220.378182 263.490433 
L 222.632727 263.236016 
L 224.887273 260.949218 
L 231.650909 244.877764 
L 233.905455 241.766379 
L 236.16 216.804468 
L 238.414545 246.587014 
L 240.669091 258.54396 
L 247.432727 261.806478 
L 249.687273 260.269018 
L 251.941818 258.809337 
L 254.196364 262.750369 
L 256.450909 261.826502 
L 265.469091 258.609724 
L 267.723636 264.823011 
L 269.978182 264.663025 
L 272.232727 264.905849 
L 278.996364 264.894888 
L 281.250909 263.80155 
L 283.505455 264.100021 
L 285.76 255.920328 
L 288.014545 253.89153 
L 294.778182 263.546501 
L 297.032727 261.896904 
L 299.287273 264.092011 
L 301.541818 263.044203 
L 303.796364 261.964144 
L 310.56 261.050816 
L 312.814545 261.763689 
L 315.069091 258.060631 
L 317.323636 262.841639 
L 319.578182 253.301545 
L 326.341818 259.559939 
L 328.596364 261.745561 
L 330.850909 265.554432 
L 333.105455 264.170212 
L 335.36 221.475025 
L 342.123636 257.76722 
L 344.378182 261.653027 
L 346.632727 259.050896 
L 348.887273 262.483727 
L 351.141818 262.101365 
L 357.905455 259.487008 
L 360.16 256.877499 
L 362.414545 257.243421 
L 364.669091 259.172729 
L 373.687273 262.702943 
L 375.941818 255.579701 
L 378.196364 258.136724 
L 380.450909 261.652816 
L 382.705455 265.680902 
L 389.469091 263.471041 
L 391.723636 262.59734 
L 393.978182 262.449159 
L 396.232727 258.316945 
L 398.487273 261.399264 
" clip-path="url(#p1c97d36c7c)" style="fill: none; stroke: #8c564b; stroke-width: 1.5; stroke-linecap: square"/>
   </g>
   <g id="line2d_32">
    <path d="M 73.832727 268.255421 
L 76.087273 268.091431 
L 78.341818 262.638021 
L 80.596364 266.041344 
L 82.850909 267.355372 
L 89.614545 267.775887 
L 91.869091 268.534921 
L 94.123636 268.801141 
L 96.378182 268.780274 
L 98.632727 268.983891 
L 105.396364 266.990926 
L 107.650909 265.908971 
L 109.905455 266.312623 
L 112.16 261.544262 
L 114.414545 247.965543 
L 121.178182 264.521378 
L 123.432727 264.969717 
L 125.687273 267.690098 
L 127.941818 268.245936 
L 130.196364 269.699293 
L 139.214545 270.048141 
L 141.469091 269.610131 
L 143.723636 269.355082 
L 145.978182 269.465112 
L 154.996364 268.436063 
L 157.250909 268.525225 
L 159.505455 268.74697 
L 161.76 268.462411 
L 168.523636 266.529098 
L 170.778182 269.614136 
L 173.032727 268.193029 
L 175.287273 268.662235 
L 177.541818 267.692416 
L 186.56 267.838279 
L 188.814545 268.750764 
L 191.069091 267.934607 
L 193.323636 266.496216 
L 200.087273 266.41675 
L 202.341818 267.935872 
L 204.596364 268.414985 
L 206.850909 268.180171 
L 209.105455 267.621382 
L 215.869091 267.520206 
L 218.123636 267.712441 
L 220.378182 266.048089 
L 222.632727 264.661128 
L 224.887273 267.453176 
L 231.650909 268.139911 
L 233.905455 267.915215 
L 236.16 267.51072 
L 238.414545 268.35997 
L 240.669091 269.242945 
L 247.432727 269.177602 
L 249.687273 267.907838 
L 251.941818 268.733058 
L 254.196364 266.986078 
L 256.450909 266.84127 
L 265.469091 266.805436 
L 267.723636 267.65574 
L 269.978182 266.485466 
L 272.232727 255.334981 
L 278.996364 265.755942 
L 281.250909 267.413549 
L 283.505455 268.122838 
L 285.76 265.028315 
L 288.014545 265.281888 
L 294.778182 266.684025 
L 297.032727 268.386107 
L 299.287273 267.82521 
L 301.541818 265.128437 
L 303.796364 264.390903 
L 310.56 264.274339 
L 312.814545 265.017565 
L 315.069091 263.381457 
L 317.323636 258.492317 
L 319.578182 258.958572 
L 326.341818 264.815422 
L 328.596364 263.693207 
L 330.850909 264.959599 
L 333.105455 266.518981 
L 335.36 266.825039 
L 342.123636 267.164823 
L 344.378182 269.381009 
L 346.632727 267.870107 
L 348.887273 268.62598 
L 351.141818 266.679809 
L 357.905455 267.416921 
L 360.16 267.717921 
L 362.414545 268.334676 
L 364.669091 269.264867 
L 373.687273 269.573033 
L 375.941818 268.579396 
L 378.196364 268.964921 
L 380.450909 268.00248 
L 382.705455 269.919141 
L 389.469091 269.731964 
L 391.723636 269.790141 
L 393.978182 269.392813 
L 396.232727 269.028788 
L 398.487273 269.256503 
" clip-path="url(#p1c97d36c7c)" style="fill: none; stroke: #e377c2; stroke-width: 1.5; stroke-linecap: square"/>
   </g>
   <g id="line2d_33">
    <path d="M 73.832727 270.869567 
L 76.087273 270.735087 
L 78.341818 270.4969 
L 80.596364 271.170356 
L 82.850909 270.350827 
L 89.614545 271.089626 
L 91.869091 270.317101 
L 94.123636 269.937268 
L 96.378182 271.505292 
L 98.632727 271.382194 
L 105.396364 271.304415 
L 107.650909 270.794317 
L 109.905455 270.370008 
L 112.16 270.893596 
L 114.414545 269.754308 
L 121.178182 271.20092 
L 123.432727 271.454282 
L 125.687273 271.708067 
L 127.941818 271.626282 
L 130.196364 272.029091 
L 139.214545 271.62312 
L 141.469091 271.689728 
L 143.723636 271.618905 
L 145.978182 271.016905 
L 154.996364 270.378861 
L 157.250909 271.376292 
L 159.505455 271.457444 
L 161.76 271.620802 
L 168.523636 271.488008 
L 170.778182 271.779944 
L 173.032727 271.890395 
L 175.287273 271.032082 
L 177.541818 271.379454 
L 186.56 271.387675 
L 188.814545 271.756125 
L 191.069091 271.275327 
L 193.323636 271.13115 
L 200.087273 271.432993 
L 202.341818 271.338983 
L 204.596364 270.870832 
L 206.850909 271.781209 
L 209.105455 270.606087 
L 215.869091 271.107964 
L 218.123636 269.252852 
L 220.378182 271.00468 
L 222.632727 271.581174 
L 224.887273 271.91063 
L 231.650909 271.391047 
L 233.905455 271.185322 
L 236.16 270.972008 
L 238.414545 270.972851 
L 240.669091 270.783989 
L 247.432727 271.668861 
L 249.687273 271.122719 
L 251.941818 270.828253 
L 254.196364 270.248386 
L 256.450909 270.437459 
L 265.469091 270.457695 
L 267.723636 269.370259 
L 269.978182 269.767165 
L 272.232727 268.74971 
L 278.996364 267.933553 
L 281.250909 266.949613 
L 283.505455 267.650892 
L 285.76 269.800891 
L 288.014545 269.113945 
L 294.778182 269.746719 
L 297.032727 270.846381 
L 299.287273 270.08545 
L 301.541818 270.331856 
L 303.796364 270.143626 
L 310.56 268.883347 
L 312.814545 268.601318 
L 315.069091 269.248847 
L 317.323636 269.105514 
L 319.578182 263.996947 
L 326.341818 269.358033 
L 328.596364 270.415538 
L 330.850909 268.790181 
L 333.105455 268.786808 
L 335.36 268.898313 
L 342.123636 269.484715 
L 344.378182 270.925636 
L 346.632727 270.243749 
L 348.887273 270.249651 
L 351.141818 270.966317 
L 357.905455 270.023057 
L 360.16 271.236331 
L 362.414545 271.244974 
L 364.669091 270.963998 
L 373.687273 271.19818 
L 375.941818 270.640655 
L 378.196364 270.90814 
L 380.450909 269.892371 
L 382.705455 271.356057 
L 389.469091 270.107793 
L 391.723636 270.741199 
L 393.978182 269.062935 
L 396.232727 270.732557 
L 398.487273 270.775264 
" clip-path="url(#p1c97d36c7c)" style="fill: none; stroke: #7f7f7f; stroke-width: 1.5; stroke-linecap: square"/>
   </g>
   <g id="line2d_34">
    <path d="M 73.832727 266.113643 
L 76.087273 265.392971 
L 78.341818 261.573772 
L 80.596364 266.803539 
L 82.850909 266.135986 
L 89.614545 266.999147 
L 91.869091 267.665225 
L 94.123636 266.708476 
L 96.378182 264.510628 
L 98.632727 264.995221 
L 105.396364 267.969387 
L 107.650909 260.323821 
L 109.905455 264.372986 
L 112.16 265.774491 
L 114.414545 258.657151 
L 121.178182 267.942406 
L 123.432727 267.039196 
L 125.687273 267.631921 
L 127.941818 269.094342 
L 130.196364 269.904386 
L 139.214545 269.751567 
L 141.469091 266.294917 
L 143.723636 270.138989 
L 145.978182 268.427842 
L 154.996364 264.080839 
L 157.250909 254.956201 
L 159.505455 256.026564 
L 161.76 264.31481 
L 168.523636 263.473149 
L 170.778182 266.953407 
L 173.032727 266.628378 
L 175.287273 259.637297 
L 177.541818 262.711796 
L 186.56 266.470079 
L 188.814545 263.898722 
L 191.069091 262.076914 
L 193.323636 266.846961 
L 200.087273 267.409544 
L 202.341818 265.178182 
L 204.596364 254.675647 
L 206.850909 264.989741 
L 209.105455 262.982021 
L 215.869091 264.448026 
L 218.123636 261.029316 
L 220.378182 262.72107 
L 222.632727 261.490091 
L 224.887273 265.374844 
L 231.650909 267.186956 
L 233.905455 265.835618 
L 236.16 263.371761 
L 238.414545 265.239942 
L 240.669091 265.853113 
L 247.432727 268.14223 
L 249.687273 268.877445 
L 251.941818 265.864706 
L 254.196364 266.125025 
L 256.450909 266.327588 
L 265.469091 267.582598 
L 267.723636 267.019804 
L 269.978182 258.031754 
L 272.232727 264.991849 
L 278.996364 253.425275 
L 281.250909 257.111681 
L 283.505455 263.920854 
L 285.76 266.142309 
L 288.014545 266.291544 
L 294.778182 263.084041 
L 297.032727 267.232907 
L 299.287273 263.48959 
L 301.541818 266.372064 
L 303.796364 261.571032 
L 310.56 260.830758 
L 312.814545 261.255277 
L 315.069091 262.800115 
L 317.323636 263.346467 
L 319.578182 255.363015 
L 326.341818 261.082645 
L 328.596364 261.506321 
L 330.850909 266.832838 
L 333.105455 266.309039 
L 335.36 264.861373 
L 342.123636 261.564287 
L 344.378182 265.361986 
L 346.632727 264.13206 
L 348.887273 262.507968 
L 351.141818 264.047746 
L 357.905455 265.82529 
L 360.16 267.271902 
L 362.414545 265.673947 
L 364.669091 263.145801 
L 373.687273 261.824605 
L 375.941818 262.289806 
L 378.196364 264.61054 
L 380.450909 265.060143 
L 382.705455 264.978991 
L 389.469091 257.905494 
L 391.723636 263.888604 
L 393.978182 267.162083 
L 396.232727 262.654252 
L 398.487273 263.801462 
" clip-path="url(#p1c97d36c7c)" style="fill: none; stroke: #bcbd22; stroke-width: 1.5; stroke-linecap: square"/>
   </g>
   <g id="line2d_35">
    <path d="M 73.832727 267.248294 
L 76.087273 266.623319 
L 78.341818 261.101194 
L 80.596364 268.544406 
L 82.850909 269.145984 
L 89.614545 268.109558 
L 91.869091 268.045691 
L 94.123636 268.557475 
L 96.378182 268.114828 
L 98.632727 269.479656 
L 105.396364 267.812985 
L 107.650909 266.786044 
L 109.905455 267.579647 
L 112.16 267.447274 
L 114.414545 258.233264 
L 121.178182 267.089995 
L 123.432727 265.906863 
L 125.687273 267.504818 
L 127.941818 268.419622 
L 130.196364 270.033597 
L 139.214545 269.552587 
L 141.469091 269.722268 
L 143.723636 269.786558 
L 145.978182 270.13667 
L 154.996364 266.148633 
L 157.250909 265.749407 
L 159.505455 267.192436 
L 161.76 266.443098 
L 168.523636 265.96504 
L 170.778182 268.687318 
L 173.032727 267.882333 
L 175.287273 268.80346 
L 177.541818 268.959019 
L 186.56 266.195848 
L 188.814545 267.762607 
L 191.069091 268.089112 
L 193.323636 254.228363 
L 200.087273 267.891186 
L 202.341818 268.203146 
L 204.596364 267.967911 
L 206.850909 267.059853 
L 209.105455 268.179539 
L 215.869091 269.389019 
L 218.123636 263.16435 
L 220.378182 266.467971 
L 222.632727 261.396502 
L 224.887273 266.108373 
L 231.650909 268.533024 
L 233.905455 268.490024 
L 236.16 268.455034 
L 238.414545 269.128278 
L 240.669091 269.604651 
L 247.432727 268.352593 
L 249.687273 267.869897 
L 251.941818 269.716999 
L 254.196364 269.552166 
L 256.450909 269.402509 
L 265.469091 269.215754 
L 267.723636 268.854259 
L 269.978182 268.923396 
L 272.232727 269.309553 
L 278.996364 269.414945 
L 281.250909 266.670324 
L 283.505455 267.935661 
L 285.76 268.952274 
L 288.014545 269.234303 
L 294.778182 268.609538 
L 297.032727 269.179288 
L 299.287273 268.218745 
L 301.541818 266.321476 
L 303.796364 265.515015 
L 310.56 262.315522 
L 312.814545 266.025535 
L 315.069091 265.713574 
L 317.323636 266.63428 
L 319.578182 257.632529 
L 326.341818 266.547015 
L 328.596364 266.997461 
L 330.850909 268.885455 
L 333.105455 268.510259 
L 335.36 268.574127 
L 342.123636 268.242142 
L 344.378182 269.620038 
L 346.632727 269.587577 
L 348.887273 269.119215 
L 351.141818 267.422823 
L 357.905455 267.955053 
L 360.16 269.097293 
L 362.414545 268.434377 
L 364.669091 268.16921 
L 373.687273 269.372367 
L 375.941818 269.153362 
L 378.196364 268.267225 
L 380.450909 267.563627 
L 382.705455 268.753083 
L 389.469091 268.321186 
L 391.723636 268.707342 
L 393.978182 269.209641 
L 396.232727 269.716156 
L 398.487273 268.336965 
" clip-path="url(#p1c97d36c7c)" style="fill: none; stroke: #17becf; stroke-width: 1.5; stroke-linecap: square"/>
   </g>
   <g id="patch_8">
    <path d="M 57.6 276.48 
L 57.6 178.56 
" style="fill: none; stroke: #000000; stroke-width: 0.8; stroke-linejoin: miter; stroke-linecap: square"/>
   </g>
   <g id="patch_9">
    <path d="M 414.72 276.48 
L 414.72 178.56 
" style="fill: none; stroke: #000000; stroke-width: 0.8; stroke-linejoin: miter; stroke-linecap: square"/>
   </g>
   <g id="patch_10">
    <path d="M 57.6 276.48 
L 414.72 276.48 
" style="fill: none; stroke: #000000; stroke-width: 0.8; stroke-linejoin: miter; stroke-linecap: square"/>
   </g>
   <g id="patch_11">
    <path d="M 57.6 178.56 
L 414.72 178.56 
" style="fill: none; stroke: #000000; stroke-width: 0.8; stroke-linejoin: miter; stroke-linecap: square"/>
   </g>
   <g id="text_22">
    <!-- Correlation of Stock Volume -->
    <g transform="translate(152.65125 172.56)scale(0.12 -0.12)">
     <use xlink:href="#DejaVuSans-43"/>
     <use xlink:href="#DejaVuSans-6f" x="69.824219"/>
     <use xlink:href="#DejaVuSans-72" x="131.005859"/>
     <use xlink:href="#DejaVuSans-72" x="170.369141"/>
     <use xlink:href="#DejaVuSans-65" x="209.232422"/>
     <use xlink:href="#DejaVuSans-6c" x="270.755859"/>
     <use xlink:href="#DejaVuSans-61" x="298.539062"/>
     <use xlink:href="#DejaVuSans-74" x="359.818359"/>
     <use xlink:href="#DejaVuSans-69" x="399.027344"/>
     <use xlink:href="#DejaVuSans-6f" x="426.810547"/>
     <use xlink:href="#DejaVuSans-6e" x="487.992188"/>
     <use xlink:href="#DejaVuSans-20" x="551.371094"/>
     <use xlink:href="#DejaVuSans-6f" x="583.158203"/>
     <use xlink:href="#DejaVuSans-66" x="644.339844"/>
     <use xlink:href="#DejaVuSans-20" x="679.544922"/>
     <use xlink:href="#DejaVuSans-53" x="711.332031"/>
     <use xlink:href="#DejaVuSans-74" x="774.808594"/>
     <use xlink:href="#DejaVuSans-6f" x="814.017578"/>
     <use xlink:href="#DejaVuSans-63" x="875.199219"/>
     <use xlink:href="#DejaVuSans-6b" x="930.179688"/>
     <use xlink:href="#DejaVuSans-20" x="988.089844"/>
     <use xlink:href="#DejaVuSans-56" x="1019.876953"/>
     <use xlink:href="#DejaVuSans-6f" x="1080.535156"/>
     <use xlink:href="#DejaVuSans-6c" x="1141.716797"/>
     <use xlink:href="#DejaVuSans-75" x="1169.5"/>
     <use xlink:href="#DejaVuSans-6d" x="1232.878906"/>
     <use xlink:href="#DejaVuSans-65" x="1330.291016"/>
    </g>
   </g>
  </g>
  <g id="legend_1">
   <g id="patch_12">
    <path d="M 394.079687 154.78125 
L 453.8 154.78125 
Q 455.8 154.78125 455.8 152.78125 
L 455.8 7 
Q 455.8 5 453.8 5 
L 394.079687 5 
Q 392.079687 5 392.079687 7 
L 392.079687 152.78125 
Q 392.079687 154.78125 394.079687 154.78125 
z
" style="fill: #ffffff; opacity: 0.8; stroke: #cccccc; stroke-linejoin: miter"/>
   </g>
   <g id="line2d_36">
    <path d="M 396.079687 13.098437 
L 406.079687 13.098437 
L 416.079687 13.098437 
" style="fill: none; stroke: #1f77b4; stroke-width: 1.5; stroke-linecap: square"/>
   </g>
   <g id="text_23">
    <!-- MMM -->
    <g transform="translate(424.079687 16.598437)scale(0.1 -0.1)">
     <defs>
      <path id="DejaVuSans-4d" d="M 628 4666 
L 1569 4666 
L 2759 1491 
L 3956 4666 
L 4897 4666 
L 4897 0 
L 4281 0 
L 4281 4097 
L 3078 897 
L 2444 897 
L 1241 4097 
L 1241 0 
L 628 0 
L 628 4666 
z
" transform="scale(0.015625)"/>
     </defs>
     <use xlink:href="#DejaVuSans-4d"/>
     <use xlink:href="#DejaVuSans-4d" x="86.279297"/>
     <use xlink:href="#DejaVuSans-4d" x="172.558594"/>
    </g>
   </g>
   <g id="line2d_37">
    <path d="M 396.079687 27.776563 
L 406.079687 27.776563 
L 416.079687 27.776563 
" style="fill: none; stroke: #ff7f0e; stroke-width: 1.5; stroke-linecap: square"/>
   </g>
   <g id="text_24">
    <!-- AOS -->
    <g transform="translate(424.079687 31.276563)scale(0.1 -0.1)">
     <defs>
      <path id="DejaVuSans-41" d="M 2188 4044 
L 1331 1722 
L 3047 1722 
L 2188 4044 
z
M 1831 4666 
L 2547 4666 
L 4325 0 
L 3669 0 
L 3244 1197 
L 1141 1197 
L 716 0 
L 50 0 
L 1831 4666 
z
" transform="scale(0.015625)"/>
     </defs>
     <use xlink:href="#DejaVuSans-41"/>
     <use xlink:href="#DejaVuSans-4f" x="66.658203"/>
     <use xlink:href="#DejaVuSans-53" x="145.369141"/>
    </g>
   </g>
   <g id="line2d_38">
    <path d="M 396.079687 42.454688 
L 406.079687 42.454688 
L 416.079687 42.454688 
" style="fill: none; stroke: #2ca02c; stroke-width: 1.5; stroke-linecap: square"/>
   </g>
   <g id="text_25">
    <!-- ABT -->
    <g transform="translate(424.079687 45.954688)scale(0.1 -0.1)">
     <defs>
      <path id="DejaVuSans-42" d="M 1259 2228 
L 1259 519 
L 2272 519 
Q 2781 519 3026 730 
Q 3272 941 3272 1375 
Q 3272 1813 3026 2020 
Q 2781 2228 2272 2228 
L 1259 2228 
z
M 1259 4147 
L 1259 2741 
L 2194 2741 
Q 2656 2741 2882 2914 
Q 3109 3088 3109 3444 
Q 3109 3797 2882 3972 
Q 2656 4147 2194 4147 
L 1259 4147 
z
M 628 4666 
L 2241 4666 
Q 2963 4666 3353 4366 
Q 3744 4066 3744 3513 
Q 3744 3084 3544 2831 
Q 3344 2578 2956 2516 
Q 3422 2416 3680 2098 
Q 3938 1781 3938 1306 
Q 3938 681 3513 340 
Q 3088 0 2303 0 
L 628 0 
L 628 4666 
z
" transform="scale(0.015625)"/>
      <path id="DejaVuSans-54" d="M -19 4666 
L 3928 4666 
L 3928 4134 
L 2272 4134 
L 2272 0 
L 1638 0 
L 1638 4134 
L -19 4134 
L -19 4666 
z
" transform="scale(0.015625)"/>
     </defs>
     <use xlink:href="#DejaVuSans-41"/>
     <use xlink:href="#DejaVuSans-42" x="68.408203"/>
     <use xlink:href="#DejaVuSans-54" x="137.011719"/>
    </g>
   </g>
   <g id="line2d_39">
    <path d="M 396.079687 57.132812 
L 406.079687 57.132812 
L 416.079687 57.132812 
" style="fill: none; stroke: #d62728; stroke-width: 1.5; stroke-linecap: square"/>
   </g>
   <g id="text_26">
    <!-- ABBV -->
    <g transform="translate(424.079687 60.632812)scale(0.1 -0.1)">
     <use xlink:href="#DejaVuSans-41"/>
     <use xlink:href="#DejaVuSans-42" x="68.408203"/>
     <use xlink:href="#DejaVuSans-42" x="137.011719"/>
     <use xlink:href="#DejaVuSans-56" x="202.490234"/>
    </g>
   </g>
   <g id="line2d_40">
    <path d="M 396.079687 71.810938 
L 406.079687 71.810938 
L 416.079687 71.810938 
" style="fill: none; stroke: #9467bd; stroke-width: 1.5; stroke-linecap: square"/>
   </g>
   <g id="text_27">
    <!-- ACN -->
    <g transform="translate(424.079687 75.310938)scale(0.1 -0.1)">
     <defs>
      <path id="DejaVuSans-4e" d="M 628 4666 
L 1478 4666 
L 3547 763 
L 3547 4666 
L 4159 4666 
L 4159 0 
L 3309 0 
L 1241 3903 
L 1241 0 
L 628 0 
L 628 4666 
z
" transform="scale(0.015625)"/>
     </defs>
     <use xlink:href="#DejaVuSans-41"/>
     <use xlink:href="#DejaVuSans-43" x="66.658203"/>
     <use xlink:href="#DejaVuSans-4e" x="136.482422"/>
    </g>
   </g>
   <g id="line2d_41">
    <path d="M 396.079687 86.489062 
L 406.079687 86.489062 
L 416.079687 86.489062 
" style="fill: none; stroke: #8c564b; stroke-width: 1.5; stroke-linecap: square"/>
   </g>
   <g id="text_28">
    <!-- ATVI -->
    <g transform="translate(424.079687 89.989062)scale(0.1 -0.1)">
     <defs>
      <path id="DejaVuSans-49" d="M 628 4666 
L 1259 4666 
L 1259 0 
L 628 0 
L 628 4666 
z
" transform="scale(0.015625)"/>
     </defs>
     <use xlink:href="#DejaVuSans-41"/>
     <use xlink:href="#DejaVuSans-54" x="60.658203"/>
     <use xlink:href="#DejaVuSans-56" x="121.742188"/>
     <use xlink:href="#DejaVuSans-49" x="190.150391"/>
    </g>
   </g>
   <g id="line2d_42">
    <path d="M 396.079687 101.167188 
L 406.079687 101.167188 
L 416.079687 101.167188 
" style="fill: none; stroke: #e377c2; stroke-width: 1.5; stroke-linecap: square"/>
   </g>
   <g id="text_29">
    <!-- ADBE -->
    <g transform="translate(424.079687 104.667188)scale(0.1 -0.1)">
     <use xlink:href="#DejaVuSans-41"/>
     <use xlink:href="#DejaVuSans-44" x="68.408203"/>
     <use xlink:href="#DejaVuSans-42" x="145.410156"/>
     <use xlink:href="#DejaVuSans-45" x="214.013672"/>
    </g>
   </g>
   <g id="line2d_43">
    <path d="M 396.079687 115.845312 
L 406.079687 115.845312 
L 416.079687 115.845312 
" style="fill: none; stroke: #7f7f7f; stroke-width: 1.5; stroke-linecap: square"/>
   </g>
   <g id="text_30">
    <!-- AAP -->
    <g transform="translate(424.079687 119.345312)scale(0.1 -0.1)">
     <use xlink:href="#DejaVuSans-41"/>
     <use xlink:href="#DejaVuSans-41" x="71.158203"/>
     <use xlink:href="#DejaVuSans-50" x="139.566406"/>
    </g>
   </g>
   <g id="line2d_44">
    <path d="M 396.079687 130.523438 
L 406.079687 130.523438 
L 416.079687 130.523438 
" style="fill: none; stroke: #bcbd22; stroke-width: 1.5; stroke-linecap: square"/>
   </g>
   <g id="text_31">
    <!-- AES -->
    <g transform="translate(424.079687 134.023438)scale(0.1 -0.1)">
     <use xlink:href="#DejaVuSans-41"/>
     <use xlink:href="#DejaVuSans-45" x="68.408203"/>
     <use xlink:href="#DejaVuSans-53" x="131.591797"/>
    </g>
   </g>
   <g id="line2d_45">
    <path d="M 396.079687 145.201562 
L 406.079687 145.201562 
L 416.079687 145.201562 
" style="fill: none; stroke: #17becf; stroke-width: 1.5; stroke-linecap: square"/>
   </g>
   <g id="text_32">
    <!-- AFL -->
    <g transform="translate(424.079687 148.701562)scale(0.1 -0.1)">
     <defs>
      <path id="DejaVuSans-46" d="M 628 4666 
L 3309 4666 
L 3309 4134 
L 1259 4134 
L 1259 2759 
L 3109 2759 
L 3109 2228 
L 1259 2228 
L 1259 0 
L 628 0 
L 628 4666 
z
" transform="scale(0.015625)"/>
      <path id="DejaVuSans-4c" d="M 628 4666 
L 1259 4666 
L 1259 531 
L 3531 531 
L 3531 0 
L 628 0 
L 628 4666 
z
" transform="scale(0.015625)"/>
     </defs>
     <use xlink:href="#DejaVuSans-41"/>
     <use xlink:href="#DejaVuSans-46" x="68.408203"/>
     <use xlink:href="#DejaVuSans-4c" x="125.927734"/>
    </g>
   </g>
  </g>
 </g>
 <defs>
  <clipPath id="p41edebb1a8">
   <rect x="57.6" y="41.472" width="357.12" height="97.92"/>
  </clipPath>
  <clipPath id="p1c97d36c7c">
   <rect x="57.6" y="178.56" width="357.12" height="97.92"/>
  </clipPath>
 </defs>
</svg>
