<?xml version="1.0" encoding="utf-8" standalone="no"?>
<!DOCTYPE svg PUBLIC "-//W3C//DTD SVG 1.1//EN"
  "http://www.w3.org/Graphics/SVG/1.1/DTD/svg11.dtd">
<svg xmlns:xlink="http://www.w3.org/1999/xlink" width="720pt" height="576pt" viewBox="0 0 720 576" xmlns="http://www.w3.org/2000/svg" version="1.1">
 <metadata>
  <rdf:RDF xmlns:dc="http://purl.org/dc/elements/1.1/" xmlns:cc="http://creativecommons.org/ns#" xmlns:rdf="http://www.w3.org/1999/02/22-rdf-syntax-ns#">
   <cc:Work>
    <dc:type rdf:resource="http://purl.org/dc/dcmitype/StillImage"/>
    <dc:date>2023-05-05T03:25:56.915971</dc:date>
    <dc:format>image/svg+xml</dc:format>
    <dc:creator>
     <cc:Agent>
      <dc:title>Matplotlib v3.7.1, https://matplotlib.org/</dc:title>
     </cc:Agent>
    </dc:creator>
   </cc:Work>
  </rdf:RDF>
 </metadata>
 <defs>
  <style type="text/css">*{stroke-linejoin: round; stroke-linecap: butt}</style>
 </defs>
 <g id="figure_1">
  <g id="patch_1">
   <path d="M 0 576 
L 720 576 
L 720 0 
L 0 0 
z
" style="fill: #ffffff"/>
  </g>
  <g id="axes_1">
   <g id="patch_2">
    <path d="M 90 232.32 
L 648 232.32 
L 648 69.12 
L 90 69.12 
z
" style="fill: #ffffff"/>
   </g>
   <g id="matplotlib.axis_1">
    <g id="xtick_1">
     <g id="line2d_1">
      <defs>
       <path id="ma20c3af17d" d="M 0 0 
L 0 3.5 
" style="stroke: #000000; stroke-width: 0.8"/>
      </defs>
      <g>
       <use xlink:href="#ma20c3af17d" x="161.479339" y="232.32" style="stroke: #000000; stroke-width: 0.8"/>
      </g>
     </g>
     <g id="text_1">
      <!-- 2023-02-01 -->
      <g transform="translate(110.109887 274.958252) rotate(-30) scale(0.1 -0.1)">
       <defs>
        <path id="DejaVuSans-32" d="M 1228 531 
L 3431 531 
L 3431 0 
L 469 0 
L 469 531 
Q 828 903 1448 1529 
Q 2069 2156 2228 2338 
Q 2531 2678 2651 2914 
Q 2772 3150 2772 3378 
Q 2772 3750 2511 3984 
Q 2250 4219 1831 4219 
Q 1534 4219 1204 4116 
Q 875 4013 500 3803 
L 500 4441 
Q 881 4594 1212 4672 
Q 1544 4750 1819 4750 
Q 2544 4750 2975 4387 
Q 3406 4025 3406 3419 
Q 3406 3131 3298 2873 
Q 3191 2616 2906 2266 
Q 2828 2175 2409 1742 
Q 1991 1309 1228 531 
z
" transform="scale(0.015625)"/>
        <path id="DejaVuSans-30" d="M 2034 4250 
Q 1547 4250 1301 3770 
Q 1056 3291 1056 2328 
Q 1056 1369 1301 889 
Q 1547 409 2034 409 
Q 2525 409 2770 889 
Q 3016 1369 3016 2328 
Q 3016 3291 2770 3770 
Q 2525 4250 2034 4250 
z
M 2034 4750 
Q 2819 4750 3233 4129 
Q 3647 3509 3647 2328 
Q 3647 1150 3233 529 
Q 2819 -91 2034 -91 
Q 1250 -91 836 529 
Q 422 1150 422 2328 
Q 422 3509 836 4129 
Q 1250 4750 2034 4750 
z
" transform="scale(0.015625)"/>
        <path id="DejaVuSans-33" d="M 2597 2516 
Q 3050 2419 3304 2112 
Q 3559 1806 3559 1356 
Q 3559 666 3084 287 
Q 2609 -91 1734 -91 
Q 1441 -91 1130 -33 
Q 819 25 488 141 
L 488 750 
Q 750 597 1062 519 
Q 1375 441 1716 441 
Q 2309 441 2620 675 
Q 2931 909 2931 1356 
Q 2931 1769 2642 2001 
Q 2353 2234 1838 2234 
L 1294 2234 
L 1294 2753 
L 1863 2753 
Q 2328 2753 2575 2939 
Q 2822 3125 2822 3475 
Q 2822 3834 2567 4026 
Q 2313 4219 1838 4219 
Q 1578 4219 1281 4162 
Q 984 4106 628 3988 
L 628 4550 
Q 988 4650 1302 4700 
Q 1616 4750 1894 4750 
Q 2613 4750 3031 4423 
Q 3450 4097 3450 3541 
Q 3450 3153 3228 2886 
Q 3006 2619 2597 2516 
z
" transform="scale(0.015625)"/>
        <path id="DejaVuSans-2d" d="M 313 2009 
L 1997 2009 
L 1997 1497 
L 313 1497 
L 313 2009 
z
" transform="scale(0.015625)"/>
        <path id="DejaVuSans-31" d="M 794 531 
L 1825 531 
L 1825 4091 
L 703 3866 
L 703 4441 
L 1819 4666 
L 2450 4666 
L 2450 531 
L 3481 531 
L 3481 0 
L 794 0 
L 794 531 
z
" transform="scale(0.015625)"/>
       </defs>
       <use xlink:href="#DejaVuSans-32"/>
       <use xlink:href="#DejaVuSans-30" x="63.623047"/>
       <use xlink:href="#DejaVuSans-32" x="127.246094"/>
       <use xlink:href="#DejaVuSans-33" x="190.869141"/>
       <use xlink:href="#DejaVuSans-2d" x="254.492188"/>
       <use xlink:href="#DejaVuSans-30" x="290.576172"/>
       <use xlink:href="#DejaVuSans-32" x="354.199219"/>
       <use xlink:href="#DejaVuSans-2d" x="417.822266"/>
       <use xlink:href="#DejaVuSans-30" x="453.90625"/>
       <use xlink:href="#DejaVuSans-31" x="517.529297"/>
      </g>
     </g>
    </g>
    <g id="xtick_2">
     <g id="line2d_2">
      <g>
       <use xlink:href="#ma20c3af17d" x="233.214876" y="232.32" style="stroke: #000000; stroke-width: 0.8"/>
      </g>
     </g>
     <g id="text_2">
      <!-- 2023-02-15 -->
      <g transform="translate(181.845425 274.958252) rotate(-30) scale(0.1 -0.1)">
       <defs>
        <path id="DejaVuSans-35" d="M 691 4666 
L 3169 4666 
L 3169 4134 
L 1269 4134 
L 1269 2991 
Q 1406 3038 1543 3061 
Q 1681 3084 1819 3084 
Q 2600 3084 3056 2656 
Q 3513 2228 3513 1497 
Q 3513 744 3044 326 
Q 2575 -91 1722 -91 
Q 1428 -91 1123 -41 
Q 819 9 494 109 
L 494 744 
Q 775 591 1075 516 
Q 1375 441 1709 441 
Q 2250 441 2565 725 
Q 2881 1009 2881 1497 
Q 2881 1984 2565 2268 
Q 2250 2553 1709 2553 
Q 1456 2553 1204 2497 
Q 953 2441 691 2322 
L 691 4666 
z
" transform="scale(0.015625)"/>
       </defs>
       <use xlink:href="#DejaVuSans-32"/>
       <use xlink:href="#DejaVuSans-30" x="63.623047"/>
       <use xlink:href="#DejaVuSans-32" x="127.246094"/>
       <use xlink:href="#DejaVuSans-33" x="190.869141"/>
       <use xlink:href="#DejaVuSans-2d" x="254.492188"/>
       <use xlink:href="#DejaVuSans-30" x="290.576172"/>
       <use xlink:href="#DejaVuSans-32" x="354.199219"/>
       <use xlink:href="#DejaVuSans-2d" x="417.822266"/>
       <use xlink:href="#DejaVuSans-31" x="453.90625"/>
       <use xlink:href="#DejaVuSans-35" x="517.529297"/>
      </g>
     </g>
    </g>
    <g id="xtick_3">
     <g id="line2d_3">
      <g>
       <use xlink:href="#ma20c3af17d" x="304.950413" y="232.32" style="stroke: #000000; stroke-width: 0.8"/>
      </g>
     </g>
     <g id="text_3">
      <!-- 2023-03-01 -->
      <g transform="translate(253.580962 274.958252) rotate(-30) scale(0.1 -0.1)">
       <use xlink:href="#DejaVuSans-32"/>
       <use xlink:href="#DejaVuSans-30" x="63.623047"/>
       <use xlink:href="#DejaVuSans-32" x="127.246094"/>
       <use xlink:href="#DejaVuSans-33" x="190.869141"/>
       <use xlink:href="#DejaVuSans-2d" x="254.492188"/>
       <use xlink:href="#DejaVuSans-30" x="290.576172"/>
       <use xlink:href="#DejaVuSans-33" x="354.199219"/>
       <use xlink:href="#DejaVuSans-2d" x="417.822266"/>
       <use xlink:href="#DejaVuSans-30" x="453.90625"/>
       <use xlink:href="#DejaVuSans-31" x="517.529297"/>
      </g>
     </g>
    </g>
    <g id="xtick_4">
     <g id="line2d_4">
      <g>
       <use xlink:href="#ma20c3af17d" x="376.68595" y="232.32" style="stroke: #000000; stroke-width: 0.8"/>
      </g>
     </g>
     <g id="text_4">
      <!-- 2023-03-15 -->
      <g transform="translate(325.316499 274.958252) rotate(-30) scale(0.1 -0.1)">
       <use xlink:href="#DejaVuSans-32"/>
       <use xlink:href="#DejaVuSans-30" x="63.623047"/>
       <use xlink:href="#DejaVuSans-32" x="127.246094"/>
       <use xlink:href="#DejaVuSans-33" x="190.869141"/>
       <use xlink:href="#DejaVuSans-2d" x="254.492188"/>
       <use xlink:href="#DejaVuSans-30" x="290.576172"/>
       <use xlink:href="#DejaVuSans-33" x="354.199219"/>
       <use xlink:href="#DejaVuSans-2d" x="417.822266"/>
       <use xlink:href="#DejaVuSans-31" x="453.90625"/>
       <use xlink:href="#DejaVuSans-35" x="517.529297"/>
      </g>
     </g>
    </g>
    <g id="xtick_5">
     <g id="line2d_5">
      <g>
       <use xlink:href="#ma20c3af17d" x="463.793388" y="232.32" style="stroke: #000000; stroke-width: 0.8"/>
      </g>
     </g>
     <g id="text_5">
      <!-- 2023-04-01 -->
      <g transform="translate(412.423937 274.958252) rotate(-30) scale(0.1 -0.1)">
       <defs>
        <path id="DejaVuSans-34" d="M 2419 4116 
L 825 1625 
L 2419 1625 
L 2419 4116 
z
M 2253 4666 
L 3047 4666 
L 3047 1625 
L 3713 1625 
L 3713 1100 
L 3047 1100 
L 3047 0 
L 2419 0 
L 2419 1100 
L 313 1100 
L 313 1709 
L 2253 4666 
z
" transform="scale(0.015625)"/>
       </defs>
       <use xlink:href="#DejaVuSans-32"/>
       <use xlink:href="#DejaVuSans-30" x="63.623047"/>
       <use xlink:href="#DejaVuSans-32" x="127.246094"/>
       <use xlink:href="#DejaVuSans-33" x="190.869141"/>
       <use xlink:href="#DejaVuSans-2d" x="254.492188"/>
       <use xlink:href="#DejaVuSans-30" x="290.576172"/>
       <use xlink:href="#DejaVuSans-34" x="354.199219"/>
       <use xlink:href="#DejaVuSans-2d" x="417.822266"/>
       <use xlink:href="#DejaVuSans-30" x="453.90625"/>
       <use xlink:href="#DejaVuSans-31" x="517.529297"/>
      </g>
     </g>
    </g>
    <g id="xtick_6">
     <g id="line2d_6">
      <g>
       <use xlink:href="#ma20c3af17d" x="535.528926" y="232.32" style="stroke: #000000; stroke-width: 0.8"/>
      </g>
     </g>
     <g id="text_6">
      <!-- 2023-04-15 -->
      <g transform="translate(484.159474 274.958252) rotate(-30) scale(0.1 -0.1)">
       <use xlink:href="#DejaVuSans-32"/>
       <use xlink:href="#DejaVuSans-30" x="63.623047"/>
       <use xlink:href="#DejaVuSans-32" x="127.246094"/>
       <use xlink:href="#DejaVuSans-33" x="190.869141"/>
       <use xlink:href="#DejaVuSans-2d" x="254.492188"/>
       <use xlink:href="#DejaVuSans-30" x="290.576172"/>
       <use xlink:href="#DejaVuSans-34" x="354.199219"/>
       <use xlink:href="#DejaVuSans-2d" x="417.822266"/>
       <use xlink:href="#DejaVuSans-31" x="453.90625"/>
       <use xlink:href="#DejaVuSans-35" x="517.529297"/>
      </g>
     </g>
    </g>
    <g id="xtick_7">
     <g id="line2d_7">
      <g>
       <use xlink:href="#ma20c3af17d" x="617.512397" y="232.32" style="stroke: #000000; stroke-width: 0.8"/>
      </g>
     </g>
     <g id="text_7">
      <!-- 2023-05-01 -->
      <g transform="translate(566.142945 274.958252) rotate(-30) scale(0.1 -0.1)">
       <use xlink:href="#DejaVuSans-32"/>
       <use xlink:href="#DejaVuSans-30" x="63.623047"/>
       <use xlink:href="#DejaVuSans-32" x="127.246094"/>
       <use xlink:href="#DejaVuSans-33" x="190.869141"/>
       <use xlink:href="#DejaVuSans-2d" x="254.492188"/>
       <use xlink:href="#DejaVuSans-30" x="290.576172"/>
       <use xlink:href="#DejaVuSans-35" x="354.199219"/>
       <use xlink:href="#DejaVuSans-2d" x="417.822266"/>
       <use xlink:href="#DejaVuSans-30" x="453.90625"/>
       <use xlink:href="#DejaVuSans-31" x="517.529297"/>
      </g>
     </g>
    </g>
    <g id="text_8">
     <!-- Date -->
     <g transform="translate(357.049219 288.357752) scale(0.1 -0.1)">
      <defs>
       <path id="DejaVuSans-44" d="M 1259 4147 
L 1259 519 
L 2022 519 
Q 2988 519 3436 956 
Q 3884 1394 3884 2338 
Q 3884 3275 3436 3711 
Q 2988 4147 2022 4147 
L 1259 4147 
z
M 628 4666 
L 1925 4666 
Q 3281 4666 3915 4102 
Q 4550 3538 4550 2338 
Q 4550 1131 3912 565 
Q 3275 0 1925 0 
L 628 0 
L 628 4666 
z
" transform="scale(0.015625)"/>
       <path id="DejaVuSans-61" d="M 2194 1759 
Q 1497 1759 1228 1600 
Q 959 1441 959 1056 
Q 959 750 1161 570 
Q 1363 391 1709 391 
Q 2188 391 2477 730 
Q 2766 1069 2766 1631 
L 2766 1759 
L 2194 1759 
z
M 3341 1997 
L 3341 0 
L 2766 0 
L 2766 531 
Q 2569 213 2275 61 
Q 1981 -91 1556 -91 
Q 1019 -91 701 211 
Q 384 513 384 1019 
Q 384 1609 779 1909 
Q 1175 2209 1959 2209 
L 2766 2209 
L 2766 2266 
Q 2766 2663 2505 2880 
Q 2244 3097 1772 3097 
Q 1472 3097 1187 3025 
Q 903 2953 641 2809 
L 641 3341 
Q 956 3463 1253 3523 
Q 1550 3584 1831 3584 
Q 2591 3584 2966 3190 
Q 3341 2797 3341 1997 
z
" transform="scale(0.015625)"/>
       <path id="DejaVuSans-74" d="M 1172 4494 
L 1172 3500 
L 2356 3500 
L 2356 3053 
L 1172 3053 
L 1172 1153 
Q 1172 725 1289 603 
Q 1406 481 1766 481 
L 2356 481 
L 2356 0 
L 1766 0 
Q 1100 0 847 248 
Q 594 497 594 1153 
L 594 3053 
L 172 3053 
L 172 3500 
L 594 3500 
L 594 4494 
L 1172 4494 
z
" transform="scale(0.015625)"/>
       <path id="DejaVuSans-65" d="M 3597 1894 
L 3597 1613 
L 953 1613 
Q 991 1019 1311 708 
Q 1631 397 2203 397 
Q 2534 397 2845 478 
Q 3156 559 3463 722 
L 3463 178 
Q 3153 47 2828 -22 
Q 2503 -91 2169 -91 
Q 1331 -91 842 396 
Q 353 884 353 1716 
Q 353 2575 817 3079 
Q 1281 3584 2069 3584 
Q 2775 3584 3186 3129 
Q 3597 2675 3597 1894 
z
M 3022 2063 
Q 3016 2534 2758 2815 
Q 2500 3097 2075 3097 
Q 1594 3097 1305 2825 
Q 1016 2553 972 2059 
L 3022 2063 
z
" transform="scale(0.015625)"/>
      </defs>
      <use xlink:href="#DejaVuSans-44"/>
      <use xlink:href="#DejaVuSans-61" x="77.001953"/>
      <use xlink:href="#DejaVuSans-74" x="138.28125"/>
      <use xlink:href="#DejaVuSans-65" x="177.490234"/>
     </g>
    </g>
   </g>
   <g id="matplotlib.axis_2">
    <g id="ytick_1">
     <g id="line2d_8">
      <defs>
       <path id="ma99ba6480d" d="M 0 0 
L -3.5 0 
" style="stroke: #000000; stroke-width: 0.8"/>
      </defs>
      <g>
       <use xlink:href="#ma99ba6480d" x="90" y="193.63194" style="stroke: #000000; stroke-width: 0.8"/>
      </g>
     </g>
     <g id="text_9">
      <!-- 100 -->
      <g transform="translate(63.9125 197.431158) scale(0.1 -0.1)">
       <use xlink:href="#DejaVuSans-31"/>
       <use xlink:href="#DejaVuSans-30" x="63.623047"/>
       <use xlink:href="#DejaVuSans-30" x="127.246094"/>
      </g>
     </g>
    </g>
    <g id="ytick_2">
     <g id="line2d_9">
      <g>
       <use xlink:href="#ma99ba6480d" x="90" y="153.5629" style="stroke: #000000; stroke-width: 0.8"/>
      </g>
     </g>
     <g id="text_10">
      <!-- 200 -->
      <g transform="translate(63.9125 157.362119) scale(0.1 -0.1)">
       <use xlink:href="#DejaVuSans-32"/>
       <use xlink:href="#DejaVuSans-30" x="63.623047"/>
       <use xlink:href="#DejaVuSans-30" x="127.246094"/>
      </g>
     </g>
    </g>
    <g id="ytick_3">
     <g id="line2d_10">
      <g>
       <use xlink:href="#ma99ba6480d" x="90" y="113.493861" style="stroke: #000000; stroke-width: 0.8"/>
      </g>
     </g>
     <g id="text_11">
      <!-- 300 -->
      <g transform="translate(63.9125 117.29308) scale(0.1 -0.1)">
       <use xlink:href="#DejaVuSans-33"/>
       <use xlink:href="#DejaVuSans-30" x="63.623047"/>
       <use xlink:href="#DejaVuSans-30" x="127.246094"/>
      </g>
     </g>
    </g>
    <g id="ytick_4">
     <g id="line2d_11">
      <g>
       <use xlink:href="#ma99ba6480d" x="90" y="73.424822" style="stroke: #000000; stroke-width: 0.8"/>
      </g>
     </g>
     <g id="text_12">
      <!-- 400 -->
      <g transform="translate(63.9125 77.224041) scale(0.1 -0.1)">
       <use xlink:href="#DejaVuSans-34"/>
       <use xlink:href="#DejaVuSans-30" x="63.623047"/>
       <use xlink:href="#DejaVuSans-30" x="127.246094"/>
      </g>
     </g>
    </g>
    <g id="text_13">
     <!-- Stock Price -->
     <g transform="translate(57.832812 178.345) rotate(-90) scale(0.1 -0.1)">
      <defs>
       <path id="DejaVuSans-53" d="M 3425 4513 
L 3425 3897 
Q 3066 4069 2747 4153 
Q 2428 4238 2131 4238 
Q 1616 4238 1336 4038 
Q 1056 3838 1056 3469 
Q 1056 3159 1242 3001 
Q 1428 2844 1947 2747 
L 2328 2669 
Q 3034 2534 3370 2195 
Q 3706 1856 3706 1288 
Q 3706 609 3251 259 
Q 2797 -91 1919 -91 
Q 1588 -91 1214 -16 
Q 841 59 441 206 
L 441 856 
Q 825 641 1194 531 
Q 1563 422 1919 422 
Q 2459 422 2753 634 
Q 3047 847 3047 1241 
Q 3047 1584 2836 1778 
Q 2625 1972 2144 2069 
L 1759 2144 
Q 1053 2284 737 2584 
Q 422 2884 422 3419 
Q 422 4038 858 4394 
Q 1294 4750 2059 4750 
Q 2388 4750 2728 4690 
Q 3069 4631 3425 4513 
z
" transform="scale(0.015625)"/>
       <path id="DejaVuSans-6f" d="M 1959 3097 
Q 1497 3097 1228 2736 
Q 959 2375 959 1747 
Q 959 1119 1226 758 
Q 1494 397 1959 397 
Q 2419 397 2687 759 
Q 2956 1122 2956 1747 
Q 2956 2369 2687 2733 
Q 2419 3097 1959 3097 
z
M 1959 3584 
Q 2709 3584 3137 3096 
Q 3566 2609 3566 1747 
Q 3566 888 3137 398 
Q 2709 -91 1959 -91 
Q 1206 -91 779 398 
Q 353 888 353 1747 
Q 353 2609 779 3096 
Q 1206 3584 1959 3584 
z
" transform="scale(0.015625)"/>
       <path id="DejaVuSans-63" d="M 3122 3366 
L 3122 2828 
Q 2878 2963 2633 3030 
Q 2388 3097 2138 3097 
Q 1578 3097 1268 2742 
Q 959 2388 959 1747 
Q 959 1106 1268 751 
Q 1578 397 2138 397 
Q 2388 397 2633 464 
Q 2878 531 3122 666 
L 3122 134 
Q 2881 22 2623 -34 
Q 2366 -91 2075 -91 
Q 1284 -91 818 406 
Q 353 903 353 1747 
Q 353 2603 823 3093 
Q 1294 3584 2113 3584 
Q 2378 3584 2631 3529 
Q 2884 3475 3122 3366 
z
" transform="scale(0.015625)"/>
       <path id="DejaVuSans-6b" d="M 581 4863 
L 1159 4863 
L 1159 1991 
L 2875 3500 
L 3609 3500 
L 1753 1863 
L 3688 0 
L 2938 0 
L 1159 1709 
L 1159 0 
L 581 0 
L 581 4863 
z
" transform="scale(0.015625)"/>
       <path id="DejaVuSans-20" transform="scale(0.015625)"/>
       <path id="DejaVuSans-50" d="M 1259 4147 
L 1259 2394 
L 2053 2394 
Q 2494 2394 2734 2622 
Q 2975 2850 2975 3272 
Q 2975 3691 2734 3919 
Q 2494 4147 2053 4147 
L 1259 4147 
z
M 628 4666 
L 2053 4666 
Q 2838 4666 3239 4311 
Q 3641 3956 3641 3272 
Q 3641 2581 3239 2228 
Q 2838 1875 2053 1875 
L 1259 1875 
L 1259 0 
L 628 0 
L 628 4666 
z
" transform="scale(0.015625)"/>
       <path id="DejaVuSans-72" d="M 2631 2963 
Q 2534 3019 2420 3045 
Q 2306 3072 2169 3072 
Q 1681 3072 1420 2755 
Q 1159 2438 1159 1844 
L 1159 0 
L 581 0 
L 581 3500 
L 1159 3500 
L 1159 2956 
Q 1341 3275 1631 3429 
Q 1922 3584 2338 3584 
Q 2397 3584 2469 3576 
Q 2541 3569 2628 3553 
L 2631 2963 
z
" transform="scale(0.015625)"/>
       <path id="DejaVuSans-69" d="M 603 3500 
L 1178 3500 
L 1178 0 
L 603 0 
L 603 3500 
z
M 603 4863 
L 1178 4863 
L 1178 4134 
L 603 4134 
L 603 4863 
z
" transform="scale(0.015625)"/>
      </defs>
      <use xlink:href="#DejaVuSans-53"/>
      <use xlink:href="#DejaVuSans-74" x="63.476562"/>
      <use xlink:href="#DejaVuSans-6f" x="102.685547"/>
      <use xlink:href="#DejaVuSans-63" x="163.867188"/>
      <use xlink:href="#DejaVuSans-6b" x="218.847656"/>
      <use xlink:href="#DejaVuSans-20" x="276.757812"/>
      <use xlink:href="#DejaVuSans-50" x="308.544922"/>
      <use xlink:href="#DejaVuSans-72" x="367.097656"/>
      <use xlink:href="#DejaVuSans-69" x="408.210938"/>
      <use xlink:href="#DejaVuSans-63" x="435.994141"/>
      <use xlink:href="#DejaVuSans-65" x="490.974609"/>
     </g>
    </g>
   </g>
   <g id="line2d_12">
    <path d="M 115.363636 184.568322 
L 120.487603 187.621584 
L 125.61157 188.451013 
L 130.735537 188.202584 
L 135.859504 187.521411 
L 151.231405 188.591254 
L 156.355372 187.589528 
L 161.479339 187.27699 
L 166.603306 185.501931 
L 171.727273 186.623865 
L 187.099174 187.020548 
L 192.22314 186.860271 
L 197.347107 187.521411 
L 202.471074 188.451013 
L 207.595041 188.070358 
L 222.966942 187.509391 
L 228.090909 187.938129 
L 233.214876 187.705728 
L 238.338843 188.823655 
L 243.46281 188.426972 
L 263.958678 189.925553 
L 269.082645 190.049767 
L 274.206612 190.061787 
L 279.330579 190.506553 
L 294.702479 190.318231 
L 299.826446 190.530597 
L 304.950413 189.540891 
L 310.07438 189.665104 
L 315.198347 189.120165 
L 330.570248 189.653084 
L 335.694215 190.791046 
L 340.818182 190.762995 
L 345.942149 191.42013 
L 351.066116 192.005138 
L 366.438017 192.229523 
L 371.561983 192.518021 
L 376.68595 192.518021 
L 381.809917 191.945033 
L 386.933884 192.421856 
L 402.305785 191.904965 
L 407.429752 191.912977 
L 412.553719 193.014876 
L 417.677686 193.231249 
L 422.801653 193.175153 
L 438.173554 193.034912 
L 443.297521 192.934739 
L 448.421488 192.353736 
L 453.545455 192.518021 
L 458.669421 191.584411 
L 474.041322 191.800785 
L 479.165289 192.730386 
L 484.289256 192.714358 
L 489.413223 193.006864 
L 509.909091 192.526033 
L 515.033058 191.804792 
L 520.157025 191.880921 
L 525.280992 191.167693 
L 530.404959 191.319957 
L 545.77686 190.915259 
L 550.900826 191.119612 
L 556.024793 191.195741 
L 561.14876 191.736673 
L 566.272727 191.836845 
L 581.644628 191.604447 
L 586.768595 191.880921 
L 591.892562 192.461924 
L 597.016529 191.496259 
L 602.140496 191.139645 
L 617.512397 191.287901 
L 622.636364 192.437881 
" clip-path="url(#p26273920fa)" style="fill: none; stroke: #1f77b4; stroke-width: 1.5; stroke-linecap: square"/>
   </g>
   <g id="line2d_13">
    <path d="M 115.363636 209.575411 
L 120.487603 209.391093 
L 125.61157 209.451196 
L 130.735537 210.12035 
L 135.859504 209.515307 
L 151.231405 209.835859 
L 156.355372 206.57424 
L 161.479339 205.668679 
L 166.603306 205.492375 
L 171.727273 206.033306 
L 187.099174 206.658385 
L 192.22314 207.002979 
L 197.347107 207.171268 
L 202.471074 207.331545 
L 207.595041 207.211337 
L 222.966942 206.442012 
L 228.090909 206.66239 
L 233.214876 206.442012 
L 238.338843 206.566225 
L 243.46281 206.758558 
L 263.958678 207.387641 
L 269.082645 207.467778 
L 274.206612 207.331545 
L 279.330579 207.696172 
L 294.702479 207.527883 
L 299.826446 207.403669 
L 304.950413 206.946883 
L 310.07438 206.598281 
L 315.198347 206.401943 
L 330.570248 206.894791 
L 335.694215 207.099144 
L 340.818182 206.850715 
L 345.942149 206.682426 
L 351.066116 207.215345 
L 366.438017 207.343565 
L 371.561983 206.66239 
L 376.68595 206.986951 
L 381.809917 206.706466 
L 386.933884 207.467778 
L 402.305785 207.075103 
L 407.429752 206.886779 
L 412.553719 207.059075 
L 417.677686 207.139212 
L 422.801653 206.958903 
L 438.173554 206.614309 
L 443.297521 206.393928 
L 448.421488 206.085398 
L 453.545455 206.494101 
L 458.669421 205.993238 
L 474.041322 206.113446 
L 479.165289 207.32353 
L 484.289256 207.812372 
L 489.413223 207.81638 
L 509.909091 207.467778 
L 515.033058 207.431718 
L 520.157025 207.2474 
L 525.280992 207.115172 
L 530.404959 206.806639 
L 545.77686 206.626329 
L 550.900826 206.237659 
L 556.024793 206.502116 
L 561.14876 206.145502 
L 566.272727 206.141494 
L 581.644628 206.085398 
L 586.768595 206.225639 
L 591.892562 206.654377 
L 597.016529 206.229647 
L 602.140496 206.337832 
L 617.512397 205.596555 
L 622.636364 205.740804 
" clip-path="url(#p26273920fa)" style="fill: none; stroke: #ff7f0e; stroke-width: 1.5; stroke-linecap: square"/>
   </g>
   <g id="line2d_14">
    <path d="M 115.363636 188.018266 
L 120.487603 188.611289 
L 125.61157 189.224345 
L 130.735537 189.196297 
L 135.859504 189.645071 
L 151.231405 189.701168 
L 156.355372 189.404655 
L 161.479339 188.895779 
L 166.603306 188.723482 
L 171.727273 188.907799 
L 187.099174 189.324518 
L 192.22314 188.827663 
L 197.347107 189.544899 
L 202.471074 190.398368 
L 207.595041 190.362305 
L 222.966942 190.218059 
L 228.090909 190.722926 
L 233.214876 190.714914 
L 238.338843 191.195741 
L 243.46281 190.931287 
L 263.958678 192.169419 
L 269.082645 192.554081 
L 274.206612 192.610178 
L 279.330579 193.447622 
L 294.702479 193.7241 
L 299.826446 192.942752 
L 304.950413 193.299366 
L 310.07438 192.578125 
L 315.198347 191.848869 
L 330.570248 192.530041 
L 335.694215 193.639952 
L 340.818182 193.872353 
L 345.942149 194.493425 
L 351.066116 194.850039 
L 366.438017 194.357188 
L 371.561983 194.212939 
L 376.68595 194.513457 
L 381.809917 194.02061 
L 386.933884 194.830003 
L 402.305785 194.485409 
L 407.429752 194.301092 
L 412.553719 194.890107 
L 417.677686 194.817983 
L 422.801653 194.413285 
L 438.173554 194.249003 
L 443.297521 194.789935 
L 448.421488 194.184891 
L 453.545455 194.000574 
L 458.669421 193.127069 
L 474.041322 192.994843 
L 479.165289 192.510005 
L 484.289256 191.945033 
L 489.413223 191.656536 
L 509.909091 192.149386 
L 515.033058 192.313668 
L 520.157025 192.606173 
L 525.280992 192.185447 
L 530.404959 192.045206 
L 545.77686 191.82082 
L 550.900826 191.969074 
L 556.024793 188.707454 
L 561.14876 189.484795 
L 566.272727 188.959888 
L 581.644628 189.464759 
L 586.768595 189.637056 
L 591.892562 190.125899 
L 597.016529 189.825381 
L 602.140496 189.436711 
L 617.512397 189.180269 
L 622.636364 189.024 
" clip-path="url(#p26273920fa)" style="fill: none; stroke: #2ca02c; stroke-width: 1.5; stroke-linecap: square"/>
   </g>
   <g id="line2d_15">
    <path d="M 115.363636 174.17842 
L 120.487603 174.523014 
L 125.61157 174.482948 
L 130.735537 174.639217 
L 135.859504 175.087989 
L 151.231405 175.340426 
L 156.355372 174.498973 
L 161.479339 174.959765 
L 166.603306 175.664984 
L 171.727273 175.520735 
L 187.099174 175.592856 
L 192.22314 175.544776 
L 197.347107 175.757141 
L 202.471074 174.118319 
L 207.595041 172.776003 
L 222.966942 172.102847 
L 228.090909 172.559633 
L 233.214876 173.172689 
L 238.338843 173.785745 
L 243.46281 173.072517 
L 263.958678 172.796039 
L 269.082645 173.328958 
L 274.206612 172.767988 
L 279.330579 172.511546 
L 294.702479 171.882466 
L 299.826446 172.03473 
L 304.950413 171.48578 
L 310.07438 171.842394 
L 315.198347 171.169237 
L 330.570248 171.481775 
L 335.694215 172.4234 
L 340.818182 173.757694 
L 345.942149 174.659247 
L 351.066116 173.713617 
L 366.438017 172.816075 
L 371.561983 172.05476 
L 376.68595 171.970618 
L 381.809917 171.47376 
L 386.933884 171.906506 
L 402.305785 171.145197 
L 407.429752 170.884744 
L 412.553719 172.126887 
L 417.677686 171.47376 
L 422.801653 170.383881 
L 438.173554 170.576217 
L 443.297521 170.291724 
L 448.421488 170.391897 
L 453.545455 170.423953 
L 458.669421 169.842953 
L 474.041322 169.422227 
L 479.165289 169.678668 
L 484.289256 169.269963 
L 489.413223 168.969445 
L 509.909091 169.077633 
L 515.033058 169.037561 
L 520.157025 168.644886 
L 525.280992 168.512658 
L 530.404959 168.95342 
L 545.77686 169.117704 
L 550.900826 169.754801 
L 556.024793 169.105678 
L 561.14876 168.893313 
L 566.272727 168.624851 
L 581.644628 167.955699 
L 586.768595 167.627136 
L 591.892562 168.869272 
L 597.016529 174.050202 
L 602.140496 173.148649 
L 617.512397 172.110856 
L 622.636364 172.948303 
" clip-path="url(#p26273920fa)" style="fill: none; stroke: #d62728; stroke-width: 1.5; stroke-linecap: square"/>
   </g>
   <g id="line2d_16">
    <path d="M 115.363636 121.772126 
L 120.487603 123.563213 
L 125.61157 124.24839 
L 130.735537 123.807628 
L 135.859504 122.601558 
L 151.231405 123.783587 
L 156.355372 121.88833 
L 161.479339 120.065181 
L 166.603306 115.857932 
L 171.727273 117.813303 
L 187.099174 119.712572 
L 192.22314 118.374267 
L 197.347107 119.620421 
L 202.471074 119.440105 
L 207.595041 119.920938 
L 222.966942 118.161902 
L 228.090909 119.59638 
L 233.214876 118.44239 
L 238.338843 121.018826 
L 243.46281 122.689711 
L 263.958678 125.855162 
L 269.082645 125.662826 
L 274.206612 125.021719 
L 279.330579 126.904969 
L 294.702479 127.017162 
L 299.826446 127.29765 
L 304.950413 128.083 
L 310.07438 127.413841 
L 315.198347 125.83512 
L 330.570248 125.662826 
L 335.694215 127.838572 
L 340.818182 128.054949 
L 345.942149 129.617639 
L 351.066116 132.346345 
L 366.438017 133.003477 
L 371.561983 132.53467 
L 376.68595 135.063026 
L 381.809917 132.358366 
L 386.933884 133.528381 
L 402.305785 132.506619 
L 407.429752 130.475122 
L 412.553719 132.218121 
L 417.677686 124.849425 
L 422.801653 124.713192 
L 438.173554 123.927842 
L 443.297521 123.511121 
L 448.421488 121.531709 
L 453.545455 120.441831 
L 458.669421 119.179659 
L 474.041322 119.167639 
L 479.165289 119.167639 
L 484.289256 120.974756 
L 489.413223 120.82649 
L 509.909091 120.834512 
L 515.033058 118.971304 
L 520.157025 120.001069 
L 525.280992 119.396035 
L 530.404959 121.808187 
L 545.77686 121.515678 
L 550.900826 121.5237 
L 556.024793 121.54774 
L 561.14876 123.290746 
L 566.272727 122.978208 
L 581.644628 122.609568 
L 586.768595 125.234085 
L 591.892562 125.029741 
L 597.016529 123.330805 
L 602.140496 121.391465 
L 617.512397 121.740064 
L 622.636364 122.813924 
" clip-path="url(#p26273920fa)" style="fill: none; stroke: #9467bd; stroke-width: 1.5; stroke-linecap: square"/>
   </g>
   <g id="line2d_17">
    <path d="M 115.363636 203.561047 
L 120.487603 203.605123 
L 125.61157 203.793448 
L 130.735537 203.408786 
L 135.859504 203.004088 
L 151.231405 203.264537 
L 156.355372 203.020116 
L 161.479339 202.968027 
L 166.603306 202.803742 
L 171.727273 203.553035 
L 187.099174 205.01956 
L 192.22314 203.408786 
L 197.347107 204.494656 
L 202.471074 203.545019 
L 207.595041 203.46889 
L 222.966942 203.012103 
L 228.090909 202.935971 
L 233.214876 202.567337 
L 238.338843 202.643466 
L 243.46281 202.619425 
L 263.958678 202.847819 
L 269.082645 202.799735 
L 274.206612 202.81977 
L 279.330579 202.919943 
L 294.702479 202.951999 
L 299.826446 203.148336 
L 304.950413 203.360702 
L 310.07438 202.563329 
L 315.198347 201.890169 
L 330.570248 201.794004 
L 335.694215 201.942257 
L 340.818182 201.854105 
L 345.942149 202.298872 
L 351.066116 202.459148 
L 366.438017 202.391032 
L 371.561983 202.010377 
L 376.68595 201.942257 
L 381.809917 201.697836 
L 386.933884 202.050446 
L 402.305785 201.910205 
L 407.429752 201.74592 
L 412.553719 202.190687 
L 417.677686 201.773968 
L 422.801653 199.886717 
L 438.173554 199.910757 
L 443.297521 199.902745 
L 448.421488 199.826613 
L 453.545455 199.686372 
L 458.669421 199.40589 
L 474.041322 199.510067 
L 479.165289 199.598219 
L 484.289256 199.490034 
L 489.413223 199.554143 
L 509.909091 199.449963 
L 515.033058 199.606235 
L 520.157025 199.662331 
L 525.280992 199.409894 
L 530.404959 199.53411 
L 545.77686 199.44195 
L 550.900826 199.421915 
L 556.024793 199.44195 
L 561.14876 199.413902 
L 566.272727 199.42993 
L 581.644628 199.205544 
L 586.768595 198.945095 
L 591.892562 202.923951 
L 597.016529 202.603397 
L 602.140496 202.563329 
L 617.512397 202.675522 
L 622.636364 203.248509 
" clip-path="url(#p26273920fa)" style="fill: none; stroke: #8c564b; stroke-width: 1.5; stroke-linecap: square"/>
   </g>
   <g id="line2d_18">
    <path d="M 115.363636 87.456995 
L 120.487603 88.923523 
L 125.61157 90.185696 
L 130.735537 87.120417 
L 135.859504 85.161047 
L 151.231405 88.082071 
L 156.355372 85.3093 
L 161.479339 79.867918 
L 166.603306 76.538182 
L 171.727273 81.707098 
L 187.099174 83.349918 
L 192.22314 79.907989 
L 197.347107 82.095768 
L 202.471074 83.117523 
L 207.595041 85.048854 
L 222.966942 83.442082 
L 228.090909 82.280082 
L 233.214876 83.065432 
L 238.338843 87.384874 
L 243.46281 90.71461 
L 263.958678 94.781615 
L 269.082645 93.972225 
L 274.206612 94.653403 
L 279.330579 105.263677 
L 294.702479 104.550449 
L 299.826446 103.897321 
L 304.950413 104.125718 
L 310.07438 100.070733 
L 315.198347 95.847453 
L 330.570248 94.653403 
L 335.694215 95.542936 
L 340.818182 95.126215 
L 345.942149 98.119373 
L 351.066116 101.753638 
L 366.438017 103.76911 
L 371.561983 100.138856 
L 376.68595 100.026663 
L 381.809917 92.141067 
L 386.933884 90.197716 
L 402.305785 88.298447 
L 407.429752 83.75462 
L 412.553719 88.76726 
L 417.677686 85.846224 
L 422.801653 83.458113 
L 438.173554 84.183361 
L 443.297521 84.083189 
L 448.421488 81.775208 
L 453.545455 80.67732 
L 458.669421 79.286924 
L 474.041322 81.40658 
L 479.165289 79.375077 
L 484.289256 80.62924 
L 489.413223 81.198213 
L 509.909091 82.941219 
L 515.033058 85.000773 
L 520.157025 85.489604 
L 525.280992 81.919463 
L 530.404959 81.687056 
L 545.77686 82.27206 
L 550.900826 82.420326 
L 556.024793 81.39456 
L 561.14876 81.334446 
L 566.272727 82.372233 
L 581.644628 82.504468 
L 586.768595 85.609818 
L 591.892562 88.226326 
L 597.016529 84.876548 
L 602.140496 82.416315 
L 617.512397 83.782671 
L 622.636364 85.982457 
" clip-path="url(#p26273920fa)" style="fill: none; stroke: #e377c2; stroke-width: 1.5; stroke-linecap: square"/>
   </g>
   <g id="line2d_19">
    <path d="M 115.363636 174.150375 
L 120.487603 174.691303 
L 125.61157 173.954034 
L 130.735537 174.551065 
L 135.859504 174.623186 
L 151.231405 173.645501 
L 156.355372 172.683846 
L 161.479339 170.856699 
L 166.603306 171.4978 
L 171.727273 172.727923 
L 187.099174 172.928268 
L 192.22314 173.008405 
L 197.347107 174.070232 
L 202.471074 172.8321 
L 207.595041 172.876176 
L 222.966942 172.719907 
L 228.090909 173.292897 
L 233.214876 173.080532 
L 238.338843 173.521288 
L 243.46281 173.601425 
L 263.958678 175.92543 
L 269.082645 176.153827 
L 274.206612 176.798938 
L 279.330579 178.065115 
L 294.702479 177.351887 
L 299.826446 175.616897 
L 304.950413 178.077136 
L 310.07438 177.920867 
L 315.198347 178.213375 
L 330.570248 179.555684 
L 335.694215 180.132679 
L 340.818182 180.725699 
L 345.942149 181.679344 
L 351.066116 182.396584 
L 366.438017 183.871121 
L 371.561983 184.936959 
L 376.68595 184.908911 
L 381.809917 184.804731 
L 386.933884 185.858545 
L 402.305785 186.147043 
L 407.429752 185.702276 
L 412.553719 188.182551 
L 417.677686 189.168249 
L 422.801653 189.292462 
L 438.173554 187.725764 
L 443.297521 187.325074 
L 448.421488 186.599822 
L 453.545455 186.175091 
L 458.669421 184.97302 
L 474.041322 184.540274 
L 479.165289 185.081208 
L 484.289256 185.533987 
L 489.413223 185.341654 
L 509.909091 185.461863 
L 515.033058 184.744627 
L 520.157025 185.081208 
L 525.280992 184.315888 
L 530.404959 184.175647 
L 545.77686 182.865388 
L 550.900826 182.95354 
L 556.024793 182.368532 
L 561.14876 182.264355 
L 566.272727 182.328461 
L 581.644628 182.881416 
L 586.768595 184.103523 
L 591.892562 184.684522 
L 597.016529 183.654748 
L 602.140496 183.402314 
L 617.512397 183.426355 
L 622.636364 183.967286 
" clip-path="url(#p26273920fa)" style="fill: none; stroke: #7f7f7f; stroke-width: 1.5; stroke-linecap: square"/>
   </g>
   <g id="line2d_20">
    <path d="M 115.363636 222.9184 
L 120.487603 222.886345 
L 125.61157 222.878331 
L 130.735537 222.63391 
L 135.859504 222.894359 
L 151.231405 223.102718 
L 156.355372 222.718055 
L 161.479339 222.962477 
L 166.603306 223.074669 
L 171.727273 223.186863 
L 187.099174 223.198884 
L 192.22314 223.114739 
L 197.347107 223.218918 
L 202.471074 223.451319 
L 207.595041 223.238952 
L 222.966942 223.142787 
L 228.090909 223.166828 
L 233.214876 223.006552 
L 238.338843 223.134773 
L 243.46281 223.19087 
L 263.958678 223.455326 
L 269.082645 223.52745 
L 274.206612 223.52745 
L 279.330579 223.555498 
L 294.702479 223.731802 
L 299.826446 223.81194 
L 304.950413 223.831975 
L 310.07438 223.827968 
L 315.198347 223.64365 
L 330.570248 223.683719 
L 335.694215 223.880057 
L 340.818182 223.795913 
L 345.942149 223.968209 
L 351.066116 224.38092 
L 366.438017 224.525169 
L 371.561983 224.396948 
L 376.68595 224.465066 
L 381.809917 224.384927 
L 386.933884 224.729521 
L 402.305785 224.625342 
L 407.429752 224.497121 
L 412.553719 224.793632 
L 417.677686 224.901818 
L 422.801653 224.801646 
L 438.173554 224.645376 
L 443.297521 224.513148 
L 448.421488 224.300783 
L 453.545455 224.256706 
L 458.669421 224.052354 
L 474.041322 224.156534 
L 479.165289 224.156534 
L 484.289256 224.04434 
L 489.413223 223.924133 
L 509.909091 223.723788 
L 515.033058 223.543477 
L 520.157025 223.559505 
L 525.280992 223.467346 
L 530.404959 223.739815 
L 545.77686 223.952182 
L 550.900826 223.916119 
L 556.024793 223.884064 
L 561.14876 224.136499 
L 566.272727 224.084409 
L 581.644628 224.020299 
L 586.768595 224.136499 
L 591.892562 224.461059 
L 597.016529 224.256706 
L 602.140496 224.220644 
L 617.512397 224.420989 
L 622.636364 224.645376 
" clip-path="url(#p26273920fa)" style="fill: none; stroke: #bcbd22; stroke-width: 1.5; stroke-linecap: square"/>
   </g>
   <g id="line2d_21">
    <path d="M 115.363636 205.035588 
L 120.487603 204.530717 
L 125.61157 204.41452 
L 130.735537 204.466608 
L 135.859504 204.486641 
L 151.231405 204.434552 
L 156.355372 204.250235 
L 161.479339 204.338387 
L 166.603306 206.09341 
L 171.727273 205.897073 
L 187.099174 205.820941 
L 192.22314 205.672687 
L 197.347107 205.468334 
L 202.471074 205.800908 
L 207.595041 205.700735 
L 222.966942 205.247953 
L 228.090909 205.969197 
L 233.214876 205.945157 
L 238.338843 206.001253 
L 243.46281 205.905085 
L 263.958678 206.401943 
L 269.082645 206.309783 
L 274.206612 206.454032 
L 279.330579 206.225639 
L 294.702479 206.361872 
L 299.826446 206.393928 
L 304.950413 206.405948 
L 310.07438 206.630337 
L 315.198347 206.277727 
L 330.570248 206.36588 
L 335.694215 206.830682 
L 340.818182 207.207329 
L 345.942149 207.720215 
L 351.066116 208.044773 
L 366.438017 208.794064 
L 371.561983 208.409402 
L 376.68595 209.162699 
L 381.809917 208.665843 
L 386.933884 209.142664 
L 402.305785 208.305221 
L 407.429752 207.776312 
L 412.553719 208.405394 
L 417.677686 208.645809 
L 422.801653 208.505567 
L 438.173554 208.413408 
L 443.297521 208.233097 
L 448.421488 207.940593 
L 453.545455 207.940593 
L 458.669421 207.848436 
L 474.041322 207.792337 
L 479.165289 208.092856 
L 484.289256 207.872477 
L 489.413223 207.832408 
L 509.909091 207.668124 
L 515.033058 207.371614 
L 520.157025 207.263425 
L 525.280992 207.135205 
L 530.404959 207.171268 
L 545.77686 207.02702 
L 550.900826 206.898799 
L 556.024793 206.878763 
L 561.14876 207.06308 
L 566.272727 207.263425 
L 581.644628 207.223357 
L 586.768595 207.347573 
L 591.892562 207.499834 
L 597.016529 205.865017 
L 602.140496 205.712756 
L 617.512397 205.508403 
L 622.636364 206.197591 
" clip-path="url(#p26273920fa)" style="fill: none; stroke: #17becf; stroke-width: 1.5; stroke-linecap: square"/>
   </g>
   <g id="patch_3">
    <path d="M 90 232.32 
L 90 69.12 
" style="fill: none; stroke: #000000; stroke-width: 0.8; stroke-linejoin: miter; stroke-linecap: square"/>
   </g>
   <g id="patch_4">
    <path d="M 648 232.32 
L 648 69.12 
" style="fill: none; stroke: #000000; stroke-width: 0.8; stroke-linejoin: miter; stroke-linecap: square"/>
   </g>
   <g id="patch_5">
    <path d="M 90 232.32 
L 648 232.32 
" style="fill: none; stroke: #000000; stroke-width: 0.8; stroke-linejoin: miter; stroke-linecap: square"/>
   </g>
   <g id="patch_6">
    <path d="M 90 69.12 
L 648 69.12 
" style="fill: none; stroke: #000000; stroke-width: 0.8; stroke-linejoin: miter; stroke-linecap: square"/>
   </g>
   <g id="text_14">
    <!-- S&amp;P 500 company-level Stock Prices  -->
    <g transform="translate(257.555625 63.12) scale(0.12 -0.12)">
     <defs>
      <path id="DejaVuSans-26" d="M 1556 2509 
Q 1272 2256 1139 2004 
Q 1006 1753 1006 1478 
Q 1006 1022 1337 719 
Q 1669 416 2169 416 
Q 2466 416 2725 514 
Q 2984 613 3213 813 
L 1556 2509 
z
M 1997 2859 
L 3584 1234 
Q 3769 1513 3872 1830 
Q 3975 2147 3994 2503 
L 4575 2503 
Q 4538 2091 4375 1687 
Q 4213 1284 3922 891 
L 4794 0 
L 4006 0 
L 3559 459 
Q 3234 181 2878 45 
Q 2522 -91 2113 -91 
Q 1359 -91 881 339 
Q 403 769 403 1441 
Q 403 1841 612 2192 
Q 822 2544 1241 2853 
Q 1091 3050 1012 3245 
Q 934 3441 934 3628 
Q 934 4134 1281 4442 
Q 1628 4750 2203 4750 
Q 2463 4750 2720 4694 
Q 2978 4638 3244 4525 
L 3244 3956 
Q 2972 4103 2725 4179 
Q 2478 4256 2266 4256 
Q 1938 4256 1733 4082 
Q 1528 3909 1528 3634 
Q 1528 3475 1620 3314 
Q 1713 3153 1997 2859 
z
" transform="scale(0.015625)"/>
      <path id="DejaVuSans-6d" d="M 3328 2828 
Q 3544 3216 3844 3400 
Q 4144 3584 4550 3584 
Q 5097 3584 5394 3201 
Q 5691 2819 5691 2113 
L 5691 0 
L 5113 0 
L 5113 2094 
Q 5113 2597 4934 2840 
Q 4756 3084 4391 3084 
Q 3944 3084 3684 2787 
Q 3425 2491 3425 1978 
L 3425 0 
L 2847 0 
L 2847 2094 
Q 2847 2600 2669 2842 
Q 2491 3084 2119 3084 
Q 1678 3084 1418 2786 
Q 1159 2488 1159 1978 
L 1159 0 
L 581 0 
L 581 3500 
L 1159 3500 
L 1159 2956 
Q 1356 3278 1631 3431 
Q 1906 3584 2284 3584 
Q 2666 3584 2933 3390 
Q 3200 3197 3328 2828 
z
" transform="scale(0.015625)"/>
      <path id="DejaVuSans-70" d="M 1159 525 
L 1159 -1331 
L 581 -1331 
L 581 3500 
L 1159 3500 
L 1159 2969 
Q 1341 3281 1617 3432 
Q 1894 3584 2278 3584 
Q 2916 3584 3314 3078 
Q 3713 2572 3713 1747 
Q 3713 922 3314 415 
Q 2916 -91 2278 -91 
Q 1894 -91 1617 61 
Q 1341 213 1159 525 
z
M 3116 1747 
Q 3116 2381 2855 2742 
Q 2594 3103 2138 3103 
Q 1681 3103 1420 2742 
Q 1159 2381 1159 1747 
Q 1159 1113 1420 752 
Q 1681 391 2138 391 
Q 2594 391 2855 752 
Q 3116 1113 3116 1747 
z
" transform="scale(0.015625)"/>
      <path id="DejaVuSans-6e" d="M 3513 2113 
L 3513 0 
L 2938 0 
L 2938 2094 
Q 2938 2591 2744 2837 
Q 2550 3084 2163 3084 
Q 1697 3084 1428 2787 
Q 1159 2491 1159 1978 
L 1159 0 
L 581 0 
L 581 3500 
L 1159 3500 
L 1159 2956 
Q 1366 3272 1645 3428 
Q 1925 3584 2291 3584 
Q 2894 3584 3203 3211 
Q 3513 2838 3513 2113 
z
" transform="scale(0.015625)"/>
      <path id="DejaVuSans-79" d="M 2059 -325 
Q 1816 -950 1584 -1140 
Q 1353 -1331 966 -1331 
L 506 -1331 
L 506 -850 
L 844 -850 
Q 1081 -850 1212 -737 
Q 1344 -625 1503 -206 
L 1606 56 
L 191 3500 
L 800 3500 
L 1894 763 
L 2988 3500 
L 3597 3500 
L 2059 -325 
z
" transform="scale(0.015625)"/>
      <path id="DejaVuSans-6c" d="M 603 4863 
L 1178 4863 
L 1178 0 
L 603 0 
L 603 4863 
z
" transform="scale(0.015625)"/>
      <path id="DejaVuSans-76" d="M 191 3500 
L 800 3500 
L 1894 563 
L 2988 3500 
L 3597 3500 
L 2284 0 
L 1503 0 
L 191 3500 
z
" transform="scale(0.015625)"/>
      <path id="DejaVuSans-73" d="M 2834 3397 
L 2834 2853 
Q 2591 2978 2328 3040 
Q 2066 3103 1784 3103 
Q 1356 3103 1142 2972 
Q 928 2841 928 2578 
Q 928 2378 1081 2264 
Q 1234 2150 1697 2047 
L 1894 2003 
Q 2506 1872 2764 1633 
Q 3022 1394 3022 966 
Q 3022 478 2636 193 
Q 2250 -91 1575 -91 
Q 1294 -91 989 -36 
Q 684 19 347 128 
L 347 722 
Q 666 556 975 473 
Q 1284 391 1588 391 
Q 1994 391 2212 530 
Q 2431 669 2431 922 
Q 2431 1156 2273 1281 
Q 2116 1406 1581 1522 
L 1381 1569 
Q 847 1681 609 1914 
Q 372 2147 372 2553 
Q 372 3047 722 3315 
Q 1072 3584 1716 3584 
Q 2034 3584 2315 3537 
Q 2597 3491 2834 3397 
z
" transform="scale(0.015625)"/>
     </defs>
     <use xlink:href="#DejaVuSans-53"/>
     <use xlink:href="#DejaVuSans-26" x="63.476562"/>
     <use xlink:href="#DejaVuSans-50" x="141.455078"/>
     <use xlink:href="#DejaVuSans-20" x="201.757812"/>
     <use xlink:href="#DejaVuSans-35" x="233.544922"/>
     <use xlink:href="#DejaVuSans-30" x="297.167969"/>
     <use xlink:href="#DejaVuSans-30" x="360.791016"/>
     <use xlink:href="#DejaVuSans-20" x="424.414062"/>
     <use xlink:href="#DejaVuSans-63" x="456.201172"/>
     <use xlink:href="#DejaVuSans-6f" x="511.181641"/>
     <use xlink:href="#DejaVuSans-6d" x="572.363281"/>
     <use xlink:href="#DejaVuSans-70" x="669.775391"/>
     <use xlink:href="#DejaVuSans-61" x="733.251953"/>
     <use xlink:href="#DejaVuSans-6e" x="794.53125"/>
     <use xlink:href="#DejaVuSans-79" x="857.910156"/>
     <use xlink:href="#DejaVuSans-2d" x="915.339844"/>
     <use xlink:href="#DejaVuSans-6c" x="951.423828"/>
     <use xlink:href="#DejaVuSans-65" x="979.207031"/>
     <use xlink:href="#DejaVuSans-76" x="1040.730469"/>
     <use xlink:href="#DejaVuSans-65" x="1099.910156"/>
     <use xlink:href="#DejaVuSans-6c" x="1161.433594"/>
     <use xlink:href="#DejaVuSans-20" x="1189.216797"/>
     <use xlink:href="#DejaVuSans-53" x="1221.003906"/>
     <use xlink:href="#DejaVuSans-74" x="1284.480469"/>
     <use xlink:href="#DejaVuSans-6f" x="1323.689453"/>
     <use xlink:href="#DejaVuSans-63" x="1384.871094"/>
     <use xlink:href="#DejaVuSans-6b" x="1439.851562"/>
     <use xlink:href="#DejaVuSans-20" x="1497.761719"/>
     <use xlink:href="#DejaVuSans-50" x="1529.548828"/>
     <use xlink:href="#DejaVuSans-72" x="1588.101562"/>
     <use xlink:href="#DejaVuSans-69" x="1629.214844"/>
     <use xlink:href="#DejaVuSans-63" x="1656.998047"/>
     <use xlink:href="#DejaVuSans-65" x="1711.978516"/>
     <use xlink:href="#DejaVuSans-73" x="1773.501953"/>
     <use xlink:href="#DejaVuSans-20" x="1825.601562"/>
    </g>
   </g>
  </g>
  <g id="axes_2">
   <g id="patch_7">
    <path d="M 90 460.8 
L 648 460.8 
L 648 297.6 
L 90 297.6 
z
" style="fill: #ffffff"/>
   </g>
   <g id="matplotlib.axis_3">
    <g id="xtick_8">
     <g id="line2d_22">
      <g>
       <use xlink:href="#ma20c3af17d" x="161.479339" y="460.8" style="stroke: #000000; stroke-width: 0.8"/>
      </g>
     </g>
     <g id="text_15">
      <!-- 2023-02-01 -->
      <g transform="translate(110.109887 503.438252) rotate(-30) scale(0.1 -0.1)">
       <use xlink:href="#DejaVuSans-32"/>
       <use xlink:href="#DejaVuSans-30" x="63.623047"/>
       <use xlink:href="#DejaVuSans-32" x="127.246094"/>
       <use xlink:href="#DejaVuSans-33" x="190.869141"/>
       <use xlink:href="#DejaVuSans-2d" x="254.492188"/>
       <use xlink:href="#DejaVuSans-30" x="290.576172"/>
       <use xlink:href="#DejaVuSans-32" x="354.199219"/>
       <use xlink:href="#DejaVuSans-2d" x="417.822266"/>
       <use xlink:href="#DejaVuSans-30" x="453.90625"/>
       <use xlink:href="#DejaVuSans-31" x="517.529297"/>
      </g>
     </g>
    </g>
    <g id="xtick_9">
     <g id="line2d_23">
      <g>
       <use xlink:href="#ma20c3af17d" x="233.214876" y="460.8" style="stroke: #000000; stroke-width: 0.8"/>
      </g>
     </g>
     <g id="text_16">
      <!-- 2023-02-15 -->
      <g transform="translate(181.845425 503.438252) rotate(-30) scale(0.1 -0.1)">
       <use xlink:href="#DejaVuSans-32"/>
       <use xlink:href="#DejaVuSans-30" x="63.623047"/>
       <use xlink:href="#DejaVuSans-32" x="127.246094"/>
       <use xlink:href="#DejaVuSans-33" x="190.869141"/>
       <use xlink:href="#DejaVuSans-2d" x="254.492188"/>
       <use xlink:href="#DejaVuSans-30" x="290.576172"/>
       <use xlink:href="#DejaVuSans-32" x="354.199219"/>
       <use xlink:href="#DejaVuSans-2d" x="417.822266"/>
       <use xlink:href="#DejaVuSans-31" x="453.90625"/>
       <use xlink:href="#DejaVuSans-35" x="517.529297"/>
      </g>
     </g>
    </g>
    <g id="xtick_10">
     <g id="line2d_24">
      <g>
       <use xlink:href="#ma20c3af17d" x="304.950413" y="460.8" style="stroke: #000000; stroke-width: 0.8"/>
      </g>
     </g>
     <g id="text_17">
      <!-- 2023-03-01 -->
      <g transform="translate(253.580962 503.438252) rotate(-30) scale(0.1 -0.1)">
       <use xlink:href="#DejaVuSans-32"/>
       <use xlink:href="#DejaVuSans-30" x="63.623047"/>
       <use xlink:href="#DejaVuSans-32" x="127.246094"/>
       <use xlink:href="#DejaVuSans-33" x="190.869141"/>
       <use xlink:href="#DejaVuSans-2d" x="254.492188"/>
       <use xlink:href="#DejaVuSans-30" x="290.576172"/>
       <use xlink:href="#DejaVuSans-33" x="354.199219"/>
       <use xlink:href="#DejaVuSans-2d" x="417.822266"/>
       <use xlink:href="#DejaVuSans-30" x="453.90625"/>
       <use xlink:href="#DejaVuSans-31" x="517.529297"/>
      </g>
     </g>
    </g>
    <g id="xtick_11">
     <g id="line2d_25">
      <g>
       <use xlink:href="#ma20c3af17d" x="376.68595" y="460.8" style="stroke: #000000; stroke-width: 0.8"/>
      </g>
     </g>
     <g id="text_18">
      <!-- 2023-03-15 -->
      <g transform="translate(325.316499 503.438252) rotate(-30) scale(0.1 -0.1)">
       <use xlink:href="#DejaVuSans-32"/>
       <use xlink:href="#DejaVuSans-30" x="63.623047"/>
       <use xlink:href="#DejaVuSans-32" x="127.246094"/>
       <use xlink:href="#DejaVuSans-33" x="190.869141"/>
       <use xlink:href="#DejaVuSans-2d" x="254.492188"/>
       <use xlink:href="#DejaVuSans-30" x="290.576172"/>
       <use xlink:href="#DejaVuSans-33" x="354.199219"/>
       <use xlink:href="#DejaVuSans-2d" x="417.822266"/>
       <use xlink:href="#DejaVuSans-31" x="453.90625"/>
       <use xlink:href="#DejaVuSans-35" x="517.529297"/>
      </g>
     </g>
    </g>
    <g id="xtick_12">
     <g id="line2d_26">
      <g>
       <use xlink:href="#ma20c3af17d" x="463.793388" y="460.8" style="stroke: #000000; stroke-width: 0.8"/>
      </g>
     </g>
     <g id="text_19">
      <!-- 2023-04-01 -->
      <g transform="translate(412.423937 503.438252) rotate(-30) scale(0.1 -0.1)">
       <use xlink:href="#DejaVuSans-32"/>
       <use xlink:href="#DejaVuSans-30" x="63.623047"/>
       <use xlink:href="#DejaVuSans-32" x="127.246094"/>
       <use xlink:href="#DejaVuSans-33" x="190.869141"/>
       <use xlink:href="#DejaVuSans-2d" x="254.492188"/>
       <use xlink:href="#DejaVuSans-30" x="290.576172"/>
       <use xlink:href="#DejaVuSans-34" x="354.199219"/>
       <use xlink:href="#DejaVuSans-2d" x="417.822266"/>
       <use xlink:href="#DejaVuSans-30" x="453.90625"/>
       <use xlink:href="#DejaVuSans-31" x="517.529297"/>
      </g>
     </g>
    </g>
    <g id="xtick_13">
     <g id="line2d_27">
      <g>
       <use xlink:href="#ma20c3af17d" x="535.528926" y="460.8" style="stroke: #000000; stroke-width: 0.8"/>
      </g>
     </g>
     <g id="text_20">
      <!-- 2023-04-15 -->
      <g transform="translate(484.159474 503.438252) rotate(-30) scale(0.1 -0.1)">
       <use xlink:href="#DejaVuSans-32"/>
       <use xlink:href="#DejaVuSans-30" x="63.623047"/>
       <use xlink:href="#DejaVuSans-32" x="127.246094"/>
       <use xlink:href="#DejaVuSans-33" x="190.869141"/>
       <use xlink:href="#DejaVuSans-2d" x="254.492188"/>
       <use xlink:href="#DejaVuSans-30" x="290.576172"/>
       <use xlink:href="#DejaVuSans-34" x="354.199219"/>
       <use xlink:href="#DejaVuSans-2d" x="417.822266"/>
       <use xlink:href="#DejaVuSans-31" x="453.90625"/>
       <use xlink:href="#DejaVuSans-35" x="517.529297"/>
      </g>
     </g>
    </g>
    <g id="xtick_14">
     <g id="line2d_28">
      <g>
       <use xlink:href="#ma20c3af17d" x="617.512397" y="460.8" style="stroke: #000000; stroke-width: 0.8"/>
      </g>
     </g>
     <g id="text_21">
      <!-- 2023-05-01 -->
      <g transform="translate(566.142945 503.438252) rotate(-30) scale(0.1 -0.1)">
       <use xlink:href="#DejaVuSans-32"/>
       <use xlink:href="#DejaVuSans-30" x="63.623047"/>
       <use xlink:href="#DejaVuSans-32" x="127.246094"/>
       <use xlink:href="#DejaVuSans-33" x="190.869141"/>
       <use xlink:href="#DejaVuSans-2d" x="254.492188"/>
       <use xlink:href="#DejaVuSans-30" x="290.576172"/>
       <use xlink:href="#DejaVuSans-35" x="354.199219"/>
       <use xlink:href="#DejaVuSans-2d" x="417.822266"/>
       <use xlink:href="#DejaVuSans-30" x="453.90625"/>
       <use xlink:href="#DejaVuSans-31" x="517.529297"/>
      </g>
     </g>
    </g>
    <g id="text_22">
     <!-- Date -->
     <g transform="translate(357.049219 516.837752) scale(0.1 -0.1)">
      <use xlink:href="#DejaVuSans-44"/>
      <use xlink:href="#DejaVuSans-61" x="77.001953"/>
      <use xlink:href="#DejaVuSans-74" x="138.28125"/>
      <use xlink:href="#DejaVuSans-65" x="177.490234"/>
     </g>
    </g>
   </g>
   <g id="matplotlib.axis_4">
    <g id="ytick_5">
     <g id="line2d_29">
      <g>
       <use xlink:href="#ma99ba6480d" x="90" y="455.117927" style="stroke: #000000; stroke-width: 0.8"/>
      </g>
     </g>
     <g id="text_23">
      <!-- 0 -->
      <g transform="translate(76.6375 458.917146) scale(0.1 -0.1)">
       <use xlink:href="#DejaVuSans-30"/>
      </g>
     </g>
    </g>
    <g id="ytick_6">
     <g id="line2d_30">
      <g>
       <use xlink:href="#ma99ba6480d" x="90" y="425.221093" style="stroke: #000000; stroke-width: 0.8"/>
      </g>
     </g>
     <g id="text_24">
      <!-- 1 -->
      <g transform="translate(76.6375 429.020312) scale(0.1 -0.1)">
       <use xlink:href="#DejaVuSans-31"/>
      </g>
     </g>
    </g>
    <g id="ytick_7">
     <g id="line2d_31">
      <g>
       <use xlink:href="#ma99ba6480d" x="90" y="395.324259" style="stroke: #000000; stroke-width: 0.8"/>
      </g>
     </g>
     <g id="text_25">
      <!-- 2 -->
      <g transform="translate(76.6375 399.123478) scale(0.1 -0.1)">
       <use xlink:href="#DejaVuSans-32"/>
      </g>
     </g>
    </g>
    <g id="ytick_8">
     <g id="line2d_32">
      <g>
       <use xlink:href="#ma99ba6480d" x="90" y="365.427426" style="stroke: #000000; stroke-width: 0.8"/>
      </g>
     </g>
     <g id="text_26">
      <!-- 3 -->
      <g transform="translate(76.6375 369.226644) scale(0.1 -0.1)">
       <use xlink:href="#DejaVuSans-33"/>
      </g>
     </g>
    </g>
    <g id="ytick_9">
     <g id="line2d_33">
      <g>
       <use xlink:href="#ma99ba6480d" x="90" y="335.530592" style="stroke: #000000; stroke-width: 0.8"/>
      </g>
     </g>
     <g id="text_27">
      <!-- 4 -->
      <g transform="translate(76.6375 339.32981) scale(0.1 -0.1)">
       <use xlink:href="#DejaVuSans-34"/>
      </g>
     </g>
    </g>
    <g id="ytick_10">
     <g id="line2d_34">
      <g>
       <use xlink:href="#ma99ba6480d" x="90" y="305.633758" style="stroke: #000000; stroke-width: 0.8"/>
      </g>
     </g>
     <g id="text_28">
      <!-- 5 -->
      <g transform="translate(76.6375 309.432976) scale(0.1 -0.1)">
       <use xlink:href="#DejaVuSans-35"/>
      </g>
     </g>
    </g>
    <g id="text_29">
     <!-- Stock Volume -->
     <g transform="translate(70.557812 413.224219) rotate(-90) scale(0.1 -0.1)">
      <defs>
       <path id="DejaVuSans-56" d="M 1831 0 
L 50 4666 
L 709 4666 
L 2188 738 
L 3669 4666 
L 4325 4666 
L 2547 0 
L 1831 0 
z
" transform="scale(0.015625)"/>
       <path id="DejaVuSans-75" d="M 544 1381 
L 544 3500 
L 1119 3500 
L 1119 1403 
Q 1119 906 1312 657 
Q 1506 409 1894 409 
Q 2359 409 2629 706 
Q 2900 1003 2900 1516 
L 2900 3500 
L 3475 3500 
L 3475 0 
L 2900 0 
L 2900 538 
Q 2691 219 2414 64 
Q 2138 -91 1772 -91 
Q 1169 -91 856 284 
Q 544 659 544 1381 
z
M 1991 3584 
L 1991 3584 
z
" transform="scale(0.015625)"/>
      </defs>
      <use xlink:href="#DejaVuSans-53"/>
      <use xlink:href="#DejaVuSans-74" x="63.476562"/>
      <use xlink:href="#DejaVuSans-6f" x="102.685547"/>
      <use xlink:href="#DejaVuSans-63" x="163.867188"/>
      <use xlink:href="#DejaVuSans-6b" x="218.847656"/>
      <use xlink:href="#DejaVuSans-20" x="276.757812"/>
      <use xlink:href="#DejaVuSans-56" x="308.544922"/>
      <use xlink:href="#DejaVuSans-6f" x="369.203125"/>
      <use xlink:href="#DejaVuSans-6c" x="430.384766"/>
      <use xlink:href="#DejaVuSans-75" x="458.167969"/>
      <use xlink:href="#DejaVuSans-6d" x="521.546875"/>
      <use xlink:href="#DejaVuSans-65" x="618.958984"/>
     </g>
    </g>
    <g id="text_30">
     <!-- 1e7 -->
     <g transform="translate(90 294.6) scale(0.1 -0.1)">
      <defs>
       <path id="DejaVuSans-37" d="M 525 4666 
L 3525 4666 
L 3525 4397 
L 1831 0 
L 1172 0 
L 2766 4134 
L 525 4134 
L 525 4666 
z
" transform="scale(0.015625)"/>
      </defs>
      <use xlink:href="#DejaVuSans-31"/>
      <use xlink:href="#DejaVuSans-65" x="63.623047"/>
      <use xlink:href="#DejaVuSans-37" x="125.146484"/>
     </g>
    </g>
   </g>
   <g id="line2d_35">
    <path d="M 115.363636 444.91653 
L 120.487603 424.394446 
L 125.61157 437.200157 
L 130.735537 441.288848 
L 135.859504 442.816875 
L 151.231405 437.470125 
L 156.355372 439.956645 
L 161.479339 445.847517 
L 166.603306 440.417056 
L 171.727273 447.098401 
L 187.099174 447.681688 
L 192.22314 448.592345 
L 197.347107 447.60874 
L 202.471074 444.349387 
L 207.595041 448.317892 
L 222.966942 448.398315 
L 228.090909 447.75643 
L 233.214876 447.5621 
L 238.338843 447.060432 
L 243.46281 446.664 
L 263.958678 443.49075 
L 269.082645 447.180318 
L 274.206612 446.316897 
L 279.330579 446.558763 
L 294.702479 444.486613 
L 299.826446 445.011303 
L 304.950413 440.42453 
L 310.07438 432.428323 
L 315.198347 446.026898 
L 330.570248 446.684628 
L 335.694215 445.034323 
L 340.818182 444.849262 
L 345.942149 444.762561 
L 351.066116 444.074336 
L 366.438017 442.528072 
L 371.561983 440.851158 
L 376.68595 440.493293 
L 381.809917 444.227707 
L 386.933884 421.078289 
L 402.305785 446.980308 
L 407.429752 447.274194 
L 412.553719 446.730371 
L 417.677686 445.618806 
L 422.801653 444.495881 
L 438.173554 446.754587 
L 443.297521 447.754935 
L 448.421488 445.486363 
L 453.545455 448.093068 
L 458.669421 444.326366 
L 474.041322 443.107472 
L 479.165289 444.73386 
L 484.289256 447.189287 
L 489.413223 447.885285 
L 509.909091 446.507041 
L 515.033058 446.292382 
L 520.157025 446.971638 
L 525.280992 444.847767 
L 530.404959 446.769535 
L 545.77686 447.840739 
L 550.900826 449.401354 
L 556.024793 449.383715 
L 561.14876 444.07015 
L 566.272727 436.009366 
L 581.644628 444.546407 
L 586.768595 439.956047 
L 591.892562 445.630466 
L 597.016529 447.963316 
L 602.140496 443.20942 
L 617.512397 448.273645 
L 622.636364 446.113001 
" clip-path="url(#pb842a12915)" style="fill: none; stroke: #1f77b4; stroke-width: 1.5; stroke-linecap: square"/>
   </g>
   <g id="line2d_36">
    <path d="M 115.363636 451.91209 
L 120.487603 453.02784 
L 125.61157 453.056242 
L 130.735537 450.342805 
L 135.859504 449.985538 
L 151.231405 450.013342 
L 156.355372 436.13284 
L 161.479339 448.766943 
L 166.603306 450.25162 
L 171.727273 452.27145 
L 187.099174 451.17603 
L 192.22314 451.536885 
L 197.347107 452.566532 
L 202.471074 452.801521 
L 207.595041 452.831716 
L 222.966942 451.961121 
L 228.090909 452.499264 
L 233.214876 453.339365 
L 238.338843 452.899582 
L 243.46281 451.593988 
L 263.958678 450.832515 
L 269.082645 453.245489 
L 274.206612 452.696583 
L 279.330579 452.695088 
L 294.702479 453.119623 
L 299.826446 452.076522 
L 304.950413 449.569374 
L 310.07438 452.380872 
L 315.198347 452.64815 
L 330.570248 452.115986 
L 335.694215 452.563542 
L 340.818182 453.174334 
L 345.942149 450.641474 
L 351.066116 451.592792 
L 366.438017 452.286996 
L 371.561983 452.635294 
L 376.68595 451.293524 
L 381.809917 452.081306 
L 386.933884 447.690956 
L 402.305785 451.906708 
L 407.429752 452.480429 
L 412.553719 452.312109 
L 417.677686 451.512967 
L 422.801653 452.499563 
L 438.173554 452.342903 
L 443.297521 452.439769 
L 448.421488 452.67416 
L 453.545455 452.336924 
L 458.669421 452.208666 
L 474.041322 452.546501 
L 479.165289 451.634946 
L 484.289256 450.038754 
L 489.413223 451.652585 
L 509.909091 452.922603 
L 515.033058 452.94084 
L 520.157025 452.220924 
L 525.280992 452.772521 
L 530.404959 450.363434 
L 545.77686 451.746461 
L 550.900826 452.593738 
L 556.024793 451.641523 
L 561.14876 452.484614 
L 566.272727 453.031427 
L 581.644628 451.572163 
L 586.768595 449.865951 
L 591.892562 449.520343 
L 597.016529 446.642474 
L 602.140496 445.327013 
L 617.512397 451.300999 
L 622.636364 452.397315 
" clip-path="url(#pb842a12915)" style="fill: none; stroke: #ff7f0e; stroke-width: 1.5; stroke-linecap: square"/>
   </g>
   <g id="line2d_37">
    <path d="M 115.363636 436.835116 
L 120.487603 441.180023 
L 125.61157 436.968157 
L 130.735537 442.682339 
L 135.859504 440.586272 
L 151.231405 441.859279 
L 156.355372 438.081814 
L 161.479339 441.567785 
L 166.603306 440.014645 
L 171.727273 443.893161 
L 187.099174 442.723896 
L 192.22314 444.94822 
L 197.347107 442.494587 
L 202.471074 443.420193 
L 207.595041 442.602216 
L 222.966942 444.023212 
L 228.090909 442.429711 
L 233.214876 442.978916 
L 238.338843 445.254962 
L 243.46281 444.462397 
L 263.958678 439.558718 
L 269.082645 428.507054 
L 274.206612 441.332198 
L 279.330579 438.744029 
L 294.702479 441.694847 
L 299.826446 431.568191 
L 304.950413 443.268317 
L 310.07438 439.541976 
L 315.198347 440.222129 
L 330.570248 440.154263 
L 335.694215 436.136427 
L 340.818182 436.424633 
L 345.942149 439.733017 
L 351.066116 434.063381 
L 366.438017 435.526532 
L 371.561983 439.888779 
L 376.68595 438.040557 
L 381.809917 439.305193 
L 386.933884 422.685543 
L 402.305785 436.953508 
L 407.429752 441.739094 
L 412.553719 444.335036 
L 417.677686 441.58961 
L 422.801653 439.364987 
L 438.173554 441.282569 
L 443.297521 440.721406 
L 448.421488 434.847276 
L 453.545455 439.573666 
L 458.669421 435.857191 
L 474.041322 438.876771 
L 479.165289 431.263244 
L 484.289256 433.298321 
L 489.413223 439.975181 
L 509.909091 440.467881 
L 515.033058 441.191982 
L 520.157025 441.482878 
L 525.280992 440.831127 
L 530.404959 440.040356 
L 545.77686 440.748313 
L 550.900826 435.529223 
L 556.024793 417.969915 
L 561.14876 432.954806 
L 566.272727 436.279633 
L 581.644628 439.147338 
L 586.768595 438.265979 
L 591.892562 442.44167 
L 597.016529 442.390247 
L 602.140496 440.660117 
L 617.512397 443.987635 
L 622.636364 440.17549 
" clip-path="url(#pb842a12915)" style="fill: none; stroke: #2ca02c; stroke-width: 1.5; stroke-linecap: square"/>
   </g>
   <g id="line2d_38">
    <path d="M 115.363636 432.347303 
L 120.487603 439.657079 
L 125.61157 437.944289 
L 130.735537 441.431755 
L 135.859504 441.390796 
L 151.231405 441.444909 
L 156.355372 438.289896 
L 161.479339 438.854349 
L 166.603306 436.699086 
L 171.727273 435.526532 
L 187.099174 442.271258 
L 192.22314 438.967957 
L 197.347107 437.915887 
L 202.471074 418.593264 
L 207.595041 428.34023 
L 222.966942 438.367927 
L 228.090909 441.177632 
L 233.214876 438.231897 
L 238.338843 443.884192 
L 243.46281 441.477796 
L 263.958678 429.806969 
L 269.082645 437.055157 
L 274.206612 437.199858 
L 279.330579 438.312618 
L 294.702479 434.701977 
L 299.826446 432.510838 
L 304.950413 438.717122 
L 310.07438 441.461652 
L 315.198347 440.614375 
L 330.570248 443.004029 
L 335.694215 441.344755 
L 340.818182 437.598084 
L 345.942149 439.122523 
L 351.066116 434.711843 
L 366.438017 432.235489 
L 371.561983 435.254172 
L 376.68595 436.269169 
L 381.809917 436.189644 
L 386.933884 327.289828 
L 402.305785 441.938805 
L 407.429752 441.139065 
L 412.553719 442.032382 
L 417.677686 441.413219 
L 422.801653 441.130096 
L 438.173554 443.494636 
L 443.297521 444.556871 
L 448.421488 443.27908 
L 453.545455 444.248036 
L 458.669421 440.298665 
L 474.041322 441.995011 
L 479.165289 442.488309 
L 484.289256 437.948176 
L 489.413223 438.679751 
L 509.909091 445.22357 
L 515.033058 446.520196 
L 520.157025 443.144245 
L 525.280992 443.552337 
L 530.404959 444.734458 
L 545.77686 442.100547 
L 550.900826 440.180871 
L 556.024793 440.687025 
L 561.14876 443.732914 
L 566.272727 440.731272 
L 581.644628 440.980014 
L 586.768595 438.656133 
L 591.892562 439.595491 
L 597.016529 404.10496 
L 602.140496 433.820021 
L 617.512397 438.372711 
L 622.636364 439.764109 
" clip-path="url(#pb842a12915)" style="fill: none; stroke: #d62728; stroke-width: 1.5; stroke-linecap: square"/>
   </g>
   <g id="line2d_39">
    <path d="M 115.363636 447.364781 
L 120.487603 448.524779 
L 125.61157 447.415606 
L 130.735537 449.310168 
L 135.859504 448.836304 
L 151.231405 449.937105 
L 156.355372 449.611528 
L 161.479339 449.745466 
L 166.603306 446.998246 
L 171.727273 448.636294 
L 187.099174 451.343751 
L 192.22314 450.929082 
L 197.347107 450.986783 
L 202.471074 449.880002 
L 207.595041 451.08903 
L 222.966942 451.277679 
L 228.090909 449.673415 
L 233.214876 449.466828 
L 238.338843 449.439921 
L 243.46281 446.978813 
L 263.958678 447.804564 
L 269.082645 449.665343 
L 274.206612 449.480879 
L 279.330579 449.930827 
L 294.702479 450.594835 
L 299.826446 448.659015 
L 304.950413 450.033971 
L 310.07438 448.306532 
L 315.198347 450.346094 
L 330.570248 450.18764 
L 335.694215 448.482923 
L 340.818182 450.744917 
L 345.942149 449.288643 
L 351.066116 446.374299 
L 366.438017 445.454972 
L 371.561983 446.37131 
L 376.68595 441.640435 
L 381.809917 442.801628 
L 386.933884 435.772284 
L 402.305785 445.604456 
L 407.429752 446.653536 
L 412.553719 445.971589 
L 417.677686 439.670532 
L 422.801653 442.789669 
L 438.173554 443.925151 
L 443.297521 446.53933 
L 448.421488 447.848512 
L 453.545455 448.260789 
L 458.669421 446.121073 
L 474.041322 447.890966 
L 479.165289 448.146883 
L 484.289256 447.813533 
L 489.413223 448.763953 
L 509.909091 450.406485 
L 515.033058 445.782641 
L 520.157025 447.177328 
L 525.280992 445.657971 
L 530.404959 446.532454 
L 545.77686 446.450835 
L 550.900826 449.456065 
L 556.024793 448.526572 
L 561.14876 447.087339 
L 566.272727 450.332341 
L 581.644628 451.052855 
L 586.768595 449.331694 
L 591.892562 449.110458 
L 597.016529 449.187591 
L 602.140496 448.885932 
L 617.512397 451.633152 
L 622.636364 449.950858 
" clip-path="url(#pb842a12915)" style="fill: none; stroke: #9467bd; stroke-width: 1.5; stroke-linecap: square"/>
   </g>
   <g id="line2d_40">
    <path d="M 115.363636 436.225819 
L 120.487603 439.961428 
L 125.61157 443.146338 
L 130.735537 443.276389 
L 135.859504 442.015042 
L 151.231405 442.419546 
L 156.355372 442.806411 
L 161.479339 441.43893 
L 166.603306 441.078075 
L 171.727273 437.834568 
L 187.099174 415.039428 
L 192.22314 410.626356 
L 197.347107 375.221329 
L 202.471074 417.463762 
L 207.595041 434.42304 
L 222.966942 439.050472 
L 228.090909 436.869797 
L 233.214876 434.799441 
L 238.338843 440.389252 
L 243.46281 439.078874 
L 263.958678 434.516318 
L 269.082645 443.329008 
L 274.206612 443.102091 
L 279.330579 443.446502 
L 294.702479 443.430956 
L 299.826446 441.880207 
L 304.950413 442.303546 
L 310.07438 430.701781 
L 315.198347 427.824211 
L 330.570248 441.518456 
L 335.694215 439.178729 
L 340.818182 442.292186 
L 345.942149 440.806014 
L 351.066116 439.2741 
L 366.438017 437.97867 
L 371.561983 438.989781 
L 376.68595 433.737506 
L 381.809917 440.518705 
L 386.933884 426.987398 
L 402.305785 435.864067 
L 407.429752 438.96407 
L 412.553719 444.366428 
L 417.677686 442.403103 
L 422.801653 381.84587 
L 438.173554 433.321342 
L 443.297521 438.832823 
L 448.421488 435.142059 
L 453.545455 440.011057 
L 458.669421 439.468729 
L 474.041322 435.760624 
L 479.165289 432.059396 
L 484.289256 432.578405 
L 489.413223 435.314862 
L 509.909091 440.321984 
L 515.033058 430.218648 
L 520.157025 433.845433 
L 525.280992 438.832524 
L 530.404959 444.545809 
L 545.77686 441.411425 
L 550.900826 440.172201 
L 556.024793 439.962026 
L 561.14876 434.101051 
L 566.272727 438.356566 
L 581.644628 430.738255 
L 586.768595 415.104902 
L 591.892562 305.018182 
L 597.016529 418.806429 
L 602.140496 425.748175 
L 617.512397 438.066268 
L 622.636364 427.995819 
" clip-path="url(#pb842a12915)" style="fill: none; stroke: #8c564b; stroke-width: 1.5; stroke-linecap: square"/>
   </g>
   <g id="line2d_41">
    <path d="M 115.363636 445.589507 
L 120.487603 447.744172 
L 125.61157 448.423727 
L 130.735537 448.090677 
L 135.859504 447.298111 
L 151.231405 447.154607 
L 156.355372 447.427266 
L 161.479339 445.066612 
L 166.603306 443.0994 
L 171.727273 447.059535 
L 187.099174 448.033574 
L 192.22314 447.714873 
L 197.347107 447.141153 
L 202.471074 448.345697 
L 207.595041 449.598075 
L 222.966942 449.505395 
L 228.090909 447.704409 
L 233.214876 448.87487 
L 238.338843 446.397021 
L 243.46281 446.19163 
L 263.958678 446.140805 
L 269.082645 447.346843 
L 274.206612 445.686971 
L 279.330579 429.871546 
L 294.702479 444.652242 
L 299.826446 447.003329 
L 304.950413 448.009357 
L 310.07438 443.620203 
L 315.198347 443.979862 
L 330.570248 445.968599 
L 335.694215 448.382769 
L 340.818182 447.587214 
L 345.942149 443.762213 
L 351.066116 442.716123 
L 366.438017 442.550793 
L 371.561983 443.604956 
L 376.68595 441.284363 
L 381.809917 434.349793 
L 386.933884 435.011111 
L 402.305785 443.318245 
L 407.429752 441.726537 
L 412.553719 443.522739 
L 417.677686 445.734507 
L 422.801653 446.168609 
L 438.173554 446.650546 
L 443.297521 449.793899 
L 448.421488 447.650894 
L 453.545455 448.722995 
L 458.669421 445.96262 
L 474.041322 447.008112 
L 479.165289 447.435039 
L 484.289256 448.30982 
L 489.413223 449.629168 
L 509.909091 450.066259 
L 515.033058 448.656923 
L 520.157025 449.203736 
L 525.280992 447.838646 
L 530.404959 450.557165 
L 545.77686 450.291681 
L 550.900826 450.374197 
L 556.024793 449.810641 
L 561.14876 449.294323 
L 566.272727 449.613023 
L 581.644628 450.540423 
L 586.768595 447.903522 
L 591.892562 446.737247 
L 597.016529 448.125656 
L 602.140496 448.955592 
L 617.512397 449.533199 
L 622.636364 448.278728 
" clip-path="url(#pb842a12915)" style="fill: none; stroke: #e377c2; stroke-width: 1.5; stroke-linecap: square"/>
   </g>
   <g id="line2d_42">
    <path d="M 115.363636 452.704356 
L 120.487603 452.571016 
L 125.61157 451.907007 
L 130.735537 453.198252 
L 135.859504 451.531503 
L 151.231405 452.243347 
L 156.355372 449.612126 
L 161.479339 452.096852 
L 166.603306 452.914531 
L 171.727273 453.381818 
L 187.099174 452.644861 
L 192.22314 452.353068 
L 197.347107 452.050512 
L 202.471074 452.051708 
L 207.595041 451.783832 
L 222.966942 453.038901 
L 228.090909 452.264275 
L 233.214876 451.846616 
L 238.338843 451.024154 
L 243.46281 451.292328 
L 263.958678 451.321029 
L 269.082645 449.778652 
L 274.206612 450.341609 
L 279.330579 448.898489 
L 294.702479 447.740884 
L 299.826446 446.345299 
L 304.950413 447.339967 
L 310.07438 450.389444 
L 315.198347 449.415106 
L 330.570248 450.312609 
L 335.694215 451.872327 
L 340.818182 450.793051 
L 345.942149 451.142545 
L 351.066116 450.875567 
L 366.438017 449.088035 
L 371.561983 448.688015 
L 376.68595 449.606446 
L 381.809917 449.403148 
L 386.933884 442.157351 
L 402.305785 449.761312 
L 407.429752 451.261236 
L 412.553719 448.955891 
L 417.677686 448.951107 
L 422.801653 449.109262 
L 438.173554 449.940992 
L 443.297521 451.984739 
L 448.421488 451.017577 
L 453.545455 451.025948 
L 458.669421 452.040945 
L 474.041322 450.704557 
L 479.165289 452.425418 
L 484.289256 452.437676 
L 489.413223 452.039151 
L 509.909091 452.371305 
L 515.033058 451.580534 
L 520.157025 451.959925 
L 525.280992 450.519196 
L 530.404959 452.595232 
L 545.77686 450.824742 
L 550.900826 451.723142 
L 556.024793 449.342756 
L 561.14876 451.710884 
L 566.272727 451.703111 
L 581.644628 452.677748 
L 586.768595 452.325862 
L 591.892562 451.617905 
L 597.016529 452.62483 
L 602.140496 453.099592 
L 617.512397 453.167159 
L 622.636364 452.551882 
" clip-path="url(#pb842a12915)" style="fill: none; stroke: #7f7f7f; stroke-width: 1.5; stroke-linecap: square"/>
   </g>
   <g id="line2d_43">
    <path d="M 115.363636 446.997648 
L 120.487603 443.832769 
L 125.61157 428.936373 
L 130.735537 443.565492 
L 135.859504 440.717818 
L 151.231405 442.797143 
L 156.355372 437.948176 
L 161.479339 440.347695 
L 166.603306 438.60172 
L 171.727273 444.111707 
L 187.099174 446.681938 
L 192.22314 444.765252 
L 197.347107 441.270611 
L 202.471074 443.920367 
L 207.595041 444.790066 
L 222.966942 448.036862 
L 228.090909 449.079664 
L 233.214876 444.806509 
L 238.338843 445.175735 
L 243.46281 445.463044 
L 263.958678 447.243101 
L 269.082645 446.444856 
L 274.206612 433.696547 
L 279.330579 443.568481 
L 294.702479 427.162893 
L 299.826446 432.39155 
L 304.950413 442.049423 
L 310.07438 445.200251 
L 315.198347 445.41192 
L 330.570248 440.862519 
L 335.694215 446.747113 
L 340.818182 441.437734 
L 345.942149 445.526126 
L 351.066116 438.716524 
L 366.438017 437.666547 
L 371.561983 438.26867 
L 376.68595 440.459809 
L 381.809917 441.234735 
L 386.933884 429.911309 
L 402.305785 438.023815 
L 407.429752 438.624741 
L 412.553719 446.179671 
L 417.677686 445.436735 
L 422.801653 443.38342 
L 438.173554 438.706957 
L 443.297521 444.09347 
L 448.421488 442.34899 
L 453.545455 440.045438 
L 458.669421 442.229402 
L 474.041322 444.750602 
L 479.165289 446.802422 
L 484.289256 444.535943 
L 489.413223 440.950117 
L 509.909091 439.076183 
L 515.033058 439.736006 
L 520.157025 443.027648 
L 525.280992 443.665347 
L 530.404959 443.550244 
L 545.77686 433.517465 
L 550.900826 442.003681 
L 556.024793 446.646659 
L 561.14876 440.252923 
L 566.272727 441.872135 
L 581.644628 445.34525 
L 586.768595 446.854143 
L 591.892562 443.425874 
L 597.016529 441.244899 
L 602.140496 443.897945 
L 617.512397 443.610935 
L 622.636364 438.38437 
" clip-path="url(#pb842a12915)" style="fill: none; stroke: #bcbd22; stroke-width: 1.5; stroke-linecap: square"/>
   </g>
   <g id="line2d_44">
    <path d="M 115.363636 447.680791 
L 120.487603 448.123264 
L 125.61157 447.789615 
L 130.735537 446.50166 
L 135.859504 448.08978 
L 151.231405 449.80526 
L 156.355372 440.976426 
L 161.479339 445.662157 
L 166.603306 438.468978 
L 171.727273 445.152117 
L 187.099174 448.59115 
L 192.22314 448.53016 
L 197.347107 448.480531 
L 202.471074 449.435436 
L 207.595041 450.111105 
L 222.966942 448.335233 
L 228.090909 447.650595 
L 233.214876 450.270455 
L 238.338843 450.036661 
L 243.46281 449.824394 
L 263.958678 449.559508 
L 269.082645 449.046777 
L 274.206612 449.144839 
L 279.330579 449.692549 
L 294.702479 449.842033 
L 299.826446 445.949166 
L 304.950413 447.743873 
L 310.07438 449.185798 
L 315.198347 449.585817 
L 330.570248 448.699675 
L 335.694215 449.507786 
L 340.818182 448.145388 
L 345.942149 445.454374 
L 351.066116 444.310521 
L 366.438017 439.77248 
L 371.561983 445.034622 
L 376.68595 444.592149 
L 381.809917 445.898043 
L 386.933884 433.130301 
L 402.305785 445.77427 
L 407.429752 446.413165 
L 412.553719 449.091025 
L 417.677686 448.558861 
L 422.801653 448.649448 
L 438.173554 448.178573 
L 443.297521 450.132929 
L 448.421488 450.086888 
L 453.545455 449.42258 
L 458.669421 447.016483 
L 474.041322 447.771378 
L 479.165289 449.391488 
L 484.289256 448.451232 
L 489.413223 448.07513 
L 509.909091 449.781641 
L 515.033058 449.471013 
L 520.157025 448.21415 
L 525.280992 447.216194 
L 530.404959 448.903272 
L 545.77686 448.290686 
L 550.900826 448.838396 
L 556.024793 449.550838 
L 561.14876 450.269259 
L 566.272727 448.313109 
L 581.644628 449.530508 
L 586.768595 448.089481 
L 591.892562 446.839793 
L 597.016529 443.85579 
L 602.140496 442.567535 
L 617.512397 446.516309 
L 622.636364 446.072042 
" clip-path="url(#pb842a12915)" style="fill: none; stroke: #17becf; stroke-width: 1.5; stroke-linecap: square"/>
   </g>
   <g id="patch_8">
    <path d="M 90 460.8 
L 90 297.6 
" style="fill: none; stroke: #000000; stroke-width: 0.8; stroke-linejoin: miter; stroke-linecap: square"/>
   </g>
   <g id="patch_9">
    <path d="M 648 460.8 
L 648 297.6 
" style="fill: none; stroke: #000000; stroke-width: 0.8; stroke-linejoin: miter; stroke-linecap: square"/>
   </g>
   <g id="patch_10">
    <path d="M 90 460.8 
L 648 460.8 
" style="fill: none; stroke: #000000; stroke-width: 0.8; stroke-linejoin: miter; stroke-linecap: square"/>
   </g>
   <g id="patch_11">
    <path d="M 90 297.6 
L 648 297.6 
" style="fill: none; stroke: #000000; stroke-width: 0.8; stroke-linejoin: miter; stroke-linecap: square"/>
   </g>
   <g id="text_31">
    <!-- S&amp;P 500 company-level Stock Volume -->
    <g transform="translate(254.909063 291.6) scale(0.12 -0.12)">
     <use xlink:href="#DejaVuSans-53"/>
     <use xlink:href="#DejaVuSans-26" x="63.476562"/>
     <use xlink:href="#DejaVuSans-50" x="141.455078"/>
     <use xlink:href="#DejaVuSans-20" x="201.757812"/>
     <use xlink:href="#DejaVuSans-35" x="233.544922"/>
     <use xlink:href="#DejaVuSans-30" x="297.167969"/>
     <use xlink:href="#DejaVuSans-30" x="360.791016"/>
     <use xlink:href="#DejaVuSans-20" x="424.414062"/>
     <use xlink:href="#DejaVuSans-63" x="456.201172"/>
     <use xlink:href="#DejaVuSans-6f" x="511.181641"/>
     <use xlink:href="#DejaVuSans-6d" x="572.363281"/>
     <use xlink:href="#DejaVuSans-70" x="669.775391"/>
     <use xlink:href="#DejaVuSans-61" x="733.251953"/>
     <use xlink:href="#DejaVuSans-6e" x="794.53125"/>
     <use xlink:href="#DejaVuSans-79" x="857.910156"/>
     <use xlink:href="#DejaVuSans-2d" x="915.339844"/>
     <use xlink:href="#DejaVuSans-6c" x="951.423828"/>
     <use xlink:href="#DejaVuSans-65" x="979.207031"/>
     <use xlink:href="#DejaVuSans-76" x="1040.730469"/>
     <use xlink:href="#DejaVuSans-65" x="1099.910156"/>
     <use xlink:href="#DejaVuSans-6c" x="1161.433594"/>
     <use xlink:href="#DejaVuSans-20" x="1189.216797"/>
     <use xlink:href="#DejaVuSans-53" x="1221.003906"/>
     <use xlink:href="#DejaVuSans-74" x="1284.480469"/>
     <use xlink:href="#DejaVuSans-6f" x="1323.689453"/>
     <use xlink:href="#DejaVuSans-63" x="1384.871094"/>
     <use xlink:href="#DejaVuSans-6b" x="1439.851562"/>
     <use xlink:href="#DejaVuSans-20" x="1497.761719"/>
     <use xlink:href="#DejaVuSans-56" x="1529.548828"/>
     <use xlink:href="#DejaVuSans-6f" x="1590.207031"/>
     <use xlink:href="#DejaVuSans-6c" x="1651.388672"/>
     <use xlink:href="#DejaVuSans-75" x="1679.171875"/>
     <use xlink:href="#DejaVuSans-6d" x="1742.550781"/>
     <use xlink:href="#DejaVuSans-65" x="1839.962891"/>
    </g>
   </g>
  </g>
  <g id="legend_1">
   <g id="patch_12">
    <path d="M 653.279688 154.78125 
L 713 154.78125 
Q 715 154.78125 715 152.78125 
L 715 7 
Q 715 5 713 5 
L 653.279688 5 
Q 651.279688 5 651.279688 7 
L 651.279688 152.78125 
Q 651.279688 154.78125 653.279688 154.78125 
z
" style="fill: #ffffff; opacity: 0.8; stroke: #cccccc; stroke-linejoin: miter"/>
   </g>
   <g id="line2d_45">
    <path d="M 655.279688 13.098438 
L 665.279688 13.098438 
L 675.279688 13.098438 
" style="fill: none; stroke: #1f77b4; stroke-width: 1.5; stroke-linecap: square"/>
   </g>
   <g id="text_32">
    <!-- MMM -->
    <g transform="translate(683.279688 16.598438) scale(0.1 -0.1)">
     <defs>
      <path id="DejaVuSans-4d" d="M 628 4666 
L 1569 4666 
L 2759 1491 
L 3956 4666 
L 4897 4666 
L 4897 0 
L 4281 0 
L 4281 4097 
L 3078 897 
L 2444 897 
L 1241 4097 
L 1241 0 
L 628 0 
L 628 4666 
z
" transform="scale(0.015625)"/>
     </defs>
     <use xlink:href="#DejaVuSans-4d"/>
     <use xlink:href="#DejaVuSans-4d" x="86.279297"/>
     <use xlink:href="#DejaVuSans-4d" x="172.558594"/>
    </g>
   </g>
   <g id="line2d_46">
    <path d="M 655.279688 27.776563 
L 665.279688 27.776563 
L 675.279688 27.776563 
" style="fill: none; stroke: #ff7f0e; stroke-width: 1.5; stroke-linecap: square"/>
   </g>
   <g id="text_33">
    <!-- AOS -->
    <g transform="translate(683.279688 31.276563) scale(0.1 -0.1)">
     <defs>
      <path id="DejaVuSans-41" d="M 2188 4044 
L 1331 1722 
L 3047 1722 
L 2188 4044 
z
M 1831 4666 
L 2547 4666 
L 4325 0 
L 3669 0 
L 3244 1197 
L 1141 1197 
L 716 0 
L 50 0 
L 1831 4666 
z
" transform="scale(0.015625)"/>
      <path id="DejaVuSans-4f" d="M 2522 4238 
Q 1834 4238 1429 3725 
Q 1025 3213 1025 2328 
Q 1025 1447 1429 934 
Q 1834 422 2522 422 
Q 3209 422 3611 934 
Q 4013 1447 4013 2328 
Q 4013 3213 3611 3725 
Q 3209 4238 2522 4238 
z
M 2522 4750 
Q 3503 4750 4090 4092 
Q 4678 3434 4678 2328 
Q 4678 1225 4090 567 
Q 3503 -91 2522 -91 
Q 1538 -91 948 565 
Q 359 1222 359 2328 
Q 359 3434 948 4092 
Q 1538 4750 2522 4750 
z
" transform="scale(0.015625)"/>
     </defs>
     <use xlink:href="#DejaVuSans-41"/>
     <use xlink:href="#DejaVuSans-4f" x="66.658203"/>
     <use xlink:href="#DejaVuSans-53" x="145.369141"/>
    </g>
   </g>
   <g id="line2d_47">
    <path d="M 655.279688 42.454688 
L 665.279688 42.454688 
L 675.279688 42.454688 
" style="fill: none; stroke: #2ca02c; stroke-width: 1.5; stroke-linecap: square"/>
   </g>
   <g id="text_34">
    <!-- ABT -->
    <g transform="translate(683.279688 45.954688) scale(0.1 -0.1)">
     <defs>
      <path id="DejaVuSans-42" d="M 1259 2228 
L 1259 519 
L 2272 519 
Q 2781 519 3026 730 
Q 3272 941 3272 1375 
Q 3272 1813 3026 2020 
Q 2781 2228 2272 2228 
L 1259 2228 
z
M 1259 4147 
L 1259 2741 
L 2194 2741 
Q 2656 2741 2882 2914 
Q 3109 3088 3109 3444 
Q 3109 3797 2882 3972 
Q 2656 4147 2194 4147 
L 1259 4147 
z
M 628 4666 
L 2241 4666 
Q 2963 4666 3353 4366 
Q 3744 4066 3744 3513 
Q 3744 3084 3544 2831 
Q 3344 2578 2956 2516 
Q 3422 2416 3680 2098 
Q 3938 1781 3938 1306 
Q 3938 681 3513 340 
Q 3088 0 2303 0 
L 628 0 
L 628 4666 
z
" transform="scale(0.015625)"/>
      <path id="DejaVuSans-54" d="M -19 4666 
L 3928 4666 
L 3928 4134 
L 2272 4134 
L 2272 0 
L 1638 0 
L 1638 4134 
L -19 4134 
L -19 4666 
z
" transform="scale(0.015625)"/>
     </defs>
     <use xlink:href="#DejaVuSans-41"/>
     <use xlink:href="#DejaVuSans-42" x="68.408203"/>
     <use xlink:href="#DejaVuSans-54" x="137.011719"/>
    </g>
   </g>
   <g id="line2d_48">
    <path d="M 655.279688 57.132812 
L 665.279688 57.132812 
L 675.279688 57.132812 
" style="fill: none; stroke: #d62728; stroke-width: 1.5; stroke-linecap: square"/>
   </g>
   <g id="text_35">
    <!-- ABBV -->
    <g transform="translate(683.279688 60.632812) scale(0.1 -0.1)">
     <use xlink:href="#DejaVuSans-41"/>
     <use xlink:href="#DejaVuSans-42" x="68.408203"/>
     <use xlink:href="#DejaVuSans-42" x="137.011719"/>
     <use xlink:href="#DejaVuSans-56" x="202.490234"/>
    </g>
   </g>
   <g id="line2d_49">
    <path d="M 655.279688 71.810938 
L 665.279688 71.810938 
L 675.279688 71.810938 
" style="fill: none; stroke: #9467bd; stroke-width: 1.5; stroke-linecap: square"/>
   </g>
   <g id="text_36">
    <!-- ACN -->
    <g transform="translate(683.279688 75.310938) scale(0.1 -0.1)">
     <defs>
      <path id="DejaVuSans-43" d="M 4122 4306 
L 4122 3641 
Q 3803 3938 3442 4084 
Q 3081 4231 2675 4231 
Q 1875 4231 1450 3742 
Q 1025 3253 1025 2328 
Q 1025 1406 1450 917 
Q 1875 428 2675 428 
Q 3081 428 3442 575 
Q 3803 722 4122 1019 
L 4122 359 
Q 3791 134 3420 21 
Q 3050 -91 2638 -91 
Q 1578 -91 968 557 
Q 359 1206 359 2328 
Q 359 3453 968 4101 
Q 1578 4750 2638 4750 
Q 3056 4750 3426 4639 
Q 3797 4528 4122 4306 
z
" transform="scale(0.015625)"/>
      <path id="DejaVuSans-4e" d="M 628 4666 
L 1478 4666 
L 3547 763 
L 3547 4666 
L 4159 4666 
L 4159 0 
L 3309 0 
L 1241 3903 
L 1241 0 
L 628 0 
L 628 4666 
z
" transform="scale(0.015625)"/>
     </defs>
     <use xlink:href="#DejaVuSans-41"/>
     <use xlink:href="#DejaVuSans-43" x="66.658203"/>
     <use xlink:href="#DejaVuSans-4e" x="136.482422"/>
    </g>
   </g>
   <g id="line2d_50">
    <path d="M 655.279688 86.489063 
L 665.279688 86.489063 
L 675.279688 86.489063 
" style="fill: none; stroke: #8c564b; stroke-width: 1.5; stroke-linecap: square"/>
   </g>
   <g id="text_37">
    <!-- ATVI -->
    <g transform="translate(683.279688 89.989063) scale(0.1 -0.1)">
     <defs>
      <path id="DejaVuSans-49" d="M 628 4666 
L 1259 4666 
L 1259 0 
L 628 0 
L 628 4666 
z
" transform="scale(0.015625)"/>
     </defs>
     <use xlink:href="#DejaVuSans-41"/>
     <use xlink:href="#DejaVuSans-54" x="60.658203"/>
     <use xlink:href="#DejaVuSans-56" x="121.742188"/>
     <use xlink:href="#DejaVuSans-49" x="190.150391"/>
    </g>
   </g>
   <g id="line2d_51">
    <path d="M 655.279688 101.167188 
L 665.279688 101.167188 
L 675.279688 101.167188 
" style="fill: none; stroke: #e377c2; stroke-width: 1.5; stroke-linecap: square"/>
   </g>
   <g id="text_38">
    <!-- ADBE -->
    <g transform="translate(683.279688 104.667188) scale(0.1 -0.1)">
     <defs>
      <path id="DejaVuSans-45" d="M 628 4666 
L 3578 4666 
L 3578 4134 
L 1259 4134 
L 1259 2753 
L 3481 2753 
L 3481 2222 
L 1259 2222 
L 1259 531 
L 3634 531 
L 3634 0 
L 628 0 
L 628 4666 
z
" transform="scale(0.015625)"/>
     </defs>
     <use xlink:href="#DejaVuSans-41"/>
     <use xlink:href="#DejaVuSans-44" x="68.408203"/>
     <use xlink:href="#DejaVuSans-42" x="145.410156"/>
     <use xlink:href="#DejaVuSans-45" x="214.013672"/>
    </g>
   </g>
   <g id="line2d_52">
    <path d="M 655.279688 115.845313 
L 665.279688 115.845313 
L 675.279688 115.845313 
" style="fill: none; stroke: #7f7f7f; stroke-width: 1.5; stroke-linecap: square"/>
   </g>
   <g id="text_39">
    <!-- AAP -->
    <g transform="translate(683.279688 119.345313) scale(0.1 -0.1)">
     <use xlink:href="#DejaVuSans-41"/>
     <use xlink:href="#DejaVuSans-41" x="71.158203"/>
     <use xlink:href="#DejaVuSans-50" x="139.566406"/>
    </g>
   </g>
   <g id="line2d_53">
    <path d="M 655.279688 130.523438 
L 665.279688 130.523438 
L 675.279688 130.523438 
" style="fill: none; stroke: #bcbd22; stroke-width: 1.5; stroke-linecap: square"/>
   </g>
   <g id="text_40">
    <!-- AES -->
    <g transform="translate(683.279688 134.023438) scale(0.1 -0.1)">
     <use xlink:href="#DejaVuSans-41"/>
     <use xlink:href="#DejaVuSans-45" x="68.408203"/>
     <use xlink:href="#DejaVuSans-53" x="131.591797"/>
    </g>
   </g>
   <g id="line2d_54">
    <path d="M 655.279688 145.201563 
L 665.279688 145.201563 
L 675.279688 145.201563 
" style="fill: none; stroke: #17becf; stroke-width: 1.5; stroke-linecap: square"/>
   </g>
   <g id="text_41">
    <!-- AFL -->
    <g transform="translate(683.279688 148.701563) scale(0.1 -0.1)">
     <defs>
      <path id="DejaVuSans-46" d="M 628 4666 
L 3309 4666 
L 3309 4134 
L 1259 4134 
L 1259 2759 
L 3109 2759 
L 3109 2228 
L 1259 2228 
L 1259 0 
L 628 0 
L 628 4666 
z
" transform="scale(0.015625)"/>
      <path id="DejaVuSans-4c" d="M 628 4666 
L 1259 4666 
L 1259 531 
L 3531 531 
L 3531 0 
L 628 0 
L 628 4666 
z
" transform="scale(0.015625)"/>
     </defs>
     <use xlink:href="#DejaVuSans-41"/>
     <use xlink:href="#DejaVuSans-46" x="68.408203"/>
     <use xlink:href="#DejaVuSans-4c" x="125.927734"/>
    </g>
   </g>
  </g>
 </g>
 <defs>
  <clipPath id="p26273920fa">
   <rect x="90" y="69.12" width="558" height="163.2"/>
  </clipPath>
  <clipPath id="pb842a12915">
   <rect x="90" y="297.6" width="558" height="163.2"/>
  </clipPath>
 </defs>
</svg>
