<?xml version="1.0" encoding="utf-8" standalone="no"?>
<!DOCTYPE svg PUBLIC "-//W3C//DTD SVG 1.1//EN"
  "http://www.w3.org/Graphics/SVG/1.1/DTD/svg11.dtd">
<svg xmlns:xlink="http://www.w3.org/1999/xlink" width="720pt" height="576pt" viewBox="0 0 720 576" xmlns="http://www.w3.org/2000/svg" version="1.1">
 <metadata>
  <rdf:RDF xmlns:dc="http://purl.org/dc/elements/1.1/" xmlns:cc="http://creativecommons.org/ns#" xmlns:rdf="http://www.w3.org/1999/02/22-rdf-syntax-ns#">
   <cc:Work>
    <dc:type rdf:resource="http://purl.org/dc/dcmitype/StillImage"/>
    <dc:date>2023-05-02T18:37:21.395347</dc:date>
    <dc:format>image/svg+xml</dc:format>
    <dc:creator>
     <cc:Agent>
      <dc:title>Matplotlib v3.7.1, https://matplotlib.org/</dc:title>
     </cc:Agent>
    </dc:creator>
   </cc:Work>
  </rdf:RDF>
 </metadata>
 <defs>
  <style type="text/css">*{stroke-linejoin: round; stroke-linecap: butt}</style>
 </defs>
 <g id="figure_1">
  <g id="patch_1">
   <path d="M 0 576 
L 720 576 
L 720 0 
L 0 0 
z
" style="fill: #ffffff"/>
  </g>
  <g id="axes_1">
   <g id="patch_2">
    <path d="M 90 512.64 
L 648 512.64 
L 648 69.12 
L 90 69.12 
z
" style="fill: #ffffff"/>
   </g>
   <g id="PathCollection_1">
    <path d="M 115.363636 416.341076 
C 116.731555 416.341076 118.043631 415.797596 119.010896 414.830332 
C 119.97816 413.863067 120.52164 412.550991 120.52164 411.183072 
C 120.52164 409.815154 119.97816 408.503078 119.010896 407.535813 
C 118.043631 406.568549 116.731555 406.025069 115.363636 406.025069 
C 113.995718 406.025069 112.683642 406.568549 111.716377 407.535813 
C 110.749113 408.503078 110.205633 409.815154 110.205633 411.183072 
C 110.205633 412.550991 110.749113 413.863067 111.716377 414.830332 
C 112.683642 415.797596 113.995718 416.341076 115.363636 416.341076 
z
" clip-path="url(#p432c72ca82)" style="fill: #414487; fill-opacity: 0.8; stroke: #808080; stroke-opacity: 0.8; stroke-width: 2"/>
    <path d="M 125.931818 447.746926 
C 127.02857 447.746926 128.08055 447.311182 128.85607 446.535661 
C 129.631591 445.760141 130.067335 444.708161 130.067335 443.611409 
C 130.067335 442.514657 129.631591 441.462678 128.85607 440.687157 
C 128.08055 439.911636 127.02857 439.475892 125.931818 439.475892 
C 124.835066 439.475892 123.783087 439.911636 123.007566 440.687157 
C 122.232045 441.462678 121.796301 442.514657 121.796301 443.611409 
C 121.796301 444.708161 122.232045 445.760141 123.007566 446.535661 
C 123.783087 447.311182 124.835066 447.746926 125.931818 447.746926 
z
" clip-path="url(#p432c72ca82)" style="fill: #472c7a; fill-opacity: 0.8; stroke: #808080; stroke-opacity: 0.8; stroke-width: 2"/>
    <path d="M 136.5 418.197565 
C 137.853446 418.197565 139.15164 417.659835 140.10867 416.702805 
C 141.065701 415.745774 141.60343 414.44758 141.60343 413.094135 
C 141.60343 411.740689 141.065701 410.442495 140.10867 409.485464 
C 139.15164 408.528434 137.853446 407.990704 136.5 407.990704 
C 135.146554 407.990704 133.84836 408.528434 132.89133 409.485464 
C 131.934299 410.442495 131.39657 411.740689 131.39657 413.094135 
C 131.39657 414.44758 131.934299 415.745774 132.89133 416.702805 
C 133.84836 417.659835 135.146554 418.197565 136.5 418.197565 
z
" clip-path="url(#p432c72ca82)" style="fill: #414287; fill-opacity: 0.8; stroke: #808080; stroke-opacity: 0.8; stroke-width: 2"/>
    <path d="M 147.068182 372.112385 
C 148.743481 372.112385 150.350389 371.446782 151.535004 370.262167 
C 152.719619 369.077552 153.385222 367.470644 153.385222 365.795345 
C 153.385222 364.120046 152.719619 362.513138 151.535004 361.328523 
C 150.350389 360.143908 148.743481 359.478304 147.068182 359.478304 
C 145.392883 359.478304 143.785975 360.143908 142.60136 361.328523 
C 141.416745 362.513138 140.751141 364.120046 140.751141 365.795345 
C 140.751141 367.470644 141.416745 369.077552 142.60136 370.262167 
C 143.785975 371.446782 145.392883 372.112385 147.068182 372.112385 
z
" clip-path="url(#p432c72ca82)" style="fill: #33638d; fill-opacity: 0.8; stroke: #808080; stroke-opacity: 0.8; stroke-width: 2"/>
    <path d="M 157.636364 271.635439 
C 159.85438 271.635439 161.98185 270.754211 163.550224 269.185837 
C 165.118599 267.617463 165.999826 265.489992 165.999826 263.271976 
C 165.999826 261.05396 165.118599 258.92649 163.550224 257.358115 
C 161.98185 255.789741 159.85438 254.908514 157.636364 254.908514 
C 155.418348 254.908514 153.290877 255.789741 151.722503 257.358115 
C 150.154129 258.92649 149.272901 261.05396 149.272901 263.271976 
C 149.272901 265.489992 150.154129 267.617463 151.722503 269.185837 
C 153.290877 270.754211 155.418348 271.635439 157.636364 271.635439 
z
" clip-path="url(#p432c72ca82)" style="fill: #1fa188; fill-opacity: 0.8; stroke: #808080; stroke-opacity: 0.8; stroke-width: 2"/>
    <path d="M 168.204545 433.621294 
C 169.430949 433.621294 170.607286 433.134039 171.474484 432.266841 
C 172.341682 431.399643 172.828937 430.223305 172.828937 428.996902 
C 172.828937 427.770499 172.341682 426.594161 171.474484 425.726963 
C 170.607286 424.859765 169.430949 424.37251 168.204545 424.37251 
C 166.978142 424.37251 165.801805 424.859765 164.934607 425.726963 
C 164.067409 426.594161 163.580154 427.770499 163.580154 428.996902 
C 163.580154 430.223305 164.067409 431.399643 164.934607 432.266841 
C 165.801805 433.134039 166.978142 433.621294 168.204545 433.621294 
z
" clip-path="url(#p432c72ca82)" style="fill: #453781; fill-opacity: 0.8; stroke: #808080; stroke-opacity: 0.8; stroke-width: 2"/>
    <path d="M 178.772727 189.734336 
C 181.348647 189.734336 183.81941 188.710912 185.64086 186.889462 
C 187.46231 185.068012 188.485734 182.597248 188.485734 180.021329 
C 188.485734 177.445409 187.46231 174.974646 185.64086 173.153196 
C 183.81941 171.331746 181.348647 170.308322 178.772727 170.308322 
C 176.196808 170.308322 173.726044 171.331746 171.904594 173.153196 
C 170.083144 174.974646 169.059721 177.445409 169.059721 180.021329 
C 169.059721 182.597248 170.083144 185.068012 171.904594 186.889462 
C 173.726044 188.710912 176.196808 189.734336 178.772727 189.734336 
z
" clip-path="url(#p432c72ca82)" style="fill: #6ccd5a; fill-opacity: 0.8; stroke: #808080; stroke-opacity: 0.8; stroke-width: 2"/>
    <path d="M 189.340909 398.861027 
C 190.838074 398.861027 192.27412 398.266197 193.332776 397.207542 
C 194.391431 396.148886 194.986261 394.71284 194.986261 393.215675 
C 194.986261 391.71851 194.391431 390.282464 193.332776 389.223808 
C 192.27412 388.165153 190.838074 387.570323 189.340909 387.570323 
C 187.843744 387.570323 186.407698 388.165153 185.349042 389.223808 
C 184.290387 390.282464 183.695557 391.71851 183.695557 393.215675 
C 183.695557 394.71284 184.290387 396.148886 185.349042 397.207542 
C 186.407698 398.266197 187.843744 398.861027 189.340909 398.861027 
z
" clip-path="url(#p432c72ca82)" style="fill: #3b518b; fill-opacity: 0.8; stroke: #808080; stroke-opacity: 0.8; stroke-width: 2"/>
    <path d="M 199.909091 483.684656 
C 200.563154 483.684656 201.190516 483.424794 201.653009 482.962301 
C 202.115501 482.499809 202.375363 481.872447 202.375363 481.218383 
C 202.375363 480.56432 202.115501 479.936958 201.653009 479.474465 
C 201.190516 479.011973 200.563154 478.752111 199.909091 478.752111 
C 199.255028 478.752111 198.627665 479.011973 198.165173 479.474465 
C 197.70268 479.936958 197.442818 480.56432 197.442818 481.218383 
C 197.442818 481.872447 197.70268 482.499809 198.165173 482.962301 
C 198.627665 483.424794 199.255028 483.684656 199.909091 483.684656 
z
" clip-path="url(#p432c72ca82)" style="fill: #460b5e; fill-opacity: 0.8; stroke: #808080; stroke-opacity: 0.8; stroke-width: 2"/>
    <path d="M 210.477273 448.964613 
C 211.562096 448.964613 212.602634 448.533608 213.36972 447.766522 
C 214.136806 446.999436 214.567811 445.958899 214.567811 444.874075 
C 214.567811 443.789252 214.136806 442.748714 213.36972 441.981628 
C 212.602634 441.214542 211.562096 440.783537 210.477273 440.783537 
C 209.392449 440.783537 208.351912 441.214542 207.584826 441.981628 
C 206.81774 442.748714 206.386735 443.789252 206.386735 444.874075 
C 206.386735 445.958899 206.81774 446.999436 207.584826 447.766522 
C 208.351912 448.533608 209.392449 448.964613 210.477273 448.964613 
z
" clip-path="url(#p432c72ca82)" style="fill: #472a7a; fill-opacity: 0.8; stroke: #808080; stroke-opacity: 0.8; stroke-width: 2"/>
    <path d="M 221.045455 389.232351 
C 222.609141 389.232351 224.108994 388.611092 225.214687 387.505398 
C 226.32038 386.399705 226.94164 384.899852 226.94164 383.336166 
C 226.94164 381.772479 226.32038 380.272627 225.214687 379.166933 
C 224.108994 378.06124 222.609141 377.439981 221.045455 377.439981 
C 219.481768 377.439981 217.981915 378.06124 216.876222 379.166933 
C 215.770529 380.272627 215.149269 381.772479 215.149269 383.336166 
C 215.149269 384.899852 215.770529 386.399705 216.876222 387.505398 
C 217.981915 388.611092 219.481768 389.232351 221.045455 389.232351 
z
" clip-path="url(#p432c72ca82)" style="fill: #38588c; fill-opacity: 0.8; stroke: #808080; stroke-opacity: 0.8; stroke-width: 2"/>
    <path d="M 231.613636 265.281074 
C 233.861497 265.281074 236.017593 264.387989 237.60707 262.798512 
C 239.196548 261.209035 240.089632 259.052939 240.089632 256.805078 
C 240.089632 254.557218 239.196548 252.401122 237.60707 250.811644 
C 236.017593 249.222167 233.861497 248.329083 231.613636 248.329083 
C 229.365776 248.329083 227.20968 249.222167 225.620202 250.811644 
C 224.030725 252.401122 223.137641 254.557218 223.137641 256.805078 
C 223.137641 259.052939 224.030725 261.209035 225.620202 262.798512 
C 227.20968 264.387989 229.365776 265.281074 231.613636 265.281074 
z
" clip-path="url(#p432c72ca82)" style="fill: #20a486; fill-opacity: 0.8; stroke: #808080; stroke-opacity: 0.8; stroke-width: 2"/>
    <path d="M 242.181818 435.97509 
C 243.387618 435.97509 244.544193 435.496021 245.396822 434.643392 
C 246.249451 433.790763 246.72852 432.634187 246.72852 431.428388 
C 246.72852 430.222588 246.249451 429.066013 245.396822 428.213384 
C 244.544193 427.360755 243.387618 426.881686 242.181818 426.881686 
C 240.976019 426.881686 239.819443 427.360755 238.966814 428.213384 
C 238.114185 429.066013 237.635116 430.222588 237.635116 431.428388 
C 237.635116 432.634187 238.114185 433.790763 238.966814 434.643392 
C 239.819443 435.496021 240.976019 435.97509 242.181818 435.97509 
z
" clip-path="url(#p432c72ca82)" style="fill: #463480; fill-opacity: 0.8; stroke: #808080; stroke-opacity: 0.8; stroke-width: 2"/>
    <path d="M 252.75 468.968051 
C 253.614558 468.968051 254.443822 468.624558 255.055157 468.013223 
C 255.666492 467.401888 256.009985 466.572624 256.009985 465.708066 
C 256.009985 464.843508 255.666492 464.014244 255.055157 463.402909 
C 254.443822 462.791574 253.614558 462.448081 252.75 462.448081 
C 251.885442 462.448081 251.056178 462.791574 250.444843 463.402909 
C 249.833508 464.014244 249.490015 464.843508 249.490015 465.708066 
C 249.490015 466.572624 249.833508 467.401888 250.444843 468.013223 
C 251.056178 468.624558 251.885442 468.968051 252.75 468.968051 
z
" clip-path="url(#p432c72ca82)" style="fill: #48186a; fill-opacity: 0.8; stroke: #808080; stroke-opacity: 0.8; stroke-width: 2"/>
    <path d="M 263.318182 333.811974 
C 265.219107 333.811974 267.042432 333.056729 268.386589 331.712571 
C 269.730746 330.368414 270.485992 328.54509 270.485992 326.644164 
C 270.485992 324.743239 269.730746 322.919914 268.386589 321.575757 
C 267.042432 320.2316 265.219107 319.476354 263.318182 319.476354 
C 261.417256 319.476354 259.593932 320.2316 258.249775 321.575757 
C 256.905618 322.919914 256.150372 324.743239 256.150372 326.644164 
C 256.150372 328.54509 256.905618 330.368414 258.249775 331.712571 
C 259.593932 333.056729 261.417256 333.811974 263.318182 333.811974 
z
" clip-path="url(#p432c72ca82)" style="fill: #297b8e; fill-opacity: 0.8; stroke: #808080; stroke-opacity: 0.8; stroke-width: 2"/>
    <path d="M 273.886364 402.19267 
C 275.359793 402.19267 276.773073 401.607271 277.814945 400.565399 
C 278.856817 399.523527 279.442216 398.110247 279.442216 396.636818 
C 279.442216 395.163388 278.856817 393.750108 277.814945 392.708236 
C 276.773073 391.666365 275.359793 391.080965 273.886364 391.080965 
C 272.412934 391.080965 270.999654 391.666365 269.957782 392.708236 
C 268.915911 393.750108 268.330511 395.163388 268.330511 396.636818 
C 268.330511 398.110247 268.915911 399.523527 269.957782 400.565399 
C 270.999654 401.607271 272.412934 402.19267 273.886364 402.19267 
z
" clip-path="url(#p432c72ca82)" style="fill: #3d4e8a; fill-opacity: 0.8; stroke: #808080; stroke-opacity: 0.8; stroke-width: 2"/>
    <path d="M 284.454545 214.221059 
C 286.928977 214.221059 289.302395 213.237957 291.052083 211.48827 
C 292.80177 209.738582 293.784872 207.365164 293.784872 204.890732 
C 293.784872 202.416301 292.80177 200.042882 291.052083 198.293195 
C 289.302395 196.543507 286.928977 195.560405 284.454545 195.560405 
C 281.980114 195.560405 279.606695 196.543507 277.857008 198.293195 
C 276.107321 200.042882 275.124219 202.416301 275.124219 204.890732 
C 275.124219 207.365164 276.107321 209.738582 277.857008 211.48827 
C 279.606695 213.237957 281.980114 214.221059 284.454545 214.221059 
z
" clip-path="url(#p432c72ca82)" style="fill: #4ac16d; fill-opacity: 0.8; stroke: #808080; stroke-opacity: 0.8; stroke-width: 2"/>
    <path d="M 295.022727 418.222425 
C 296.375978 418.222425 297.673985 417.684772 298.630878 416.72788 
C 299.58777 415.770987 300.125423 414.47298 300.125423 413.119729 
C 300.125423 411.766479 299.58777 410.468471 298.630878 409.511579 
C 297.673985 408.554686 296.375978 408.017034 295.022727 408.017034 
C 293.669477 408.017034 292.371469 408.554686 291.414577 409.511579 
C 290.457684 410.468471 289.920032 411.766479 289.920032 413.119729 
C 289.920032 414.47298 290.457684 415.770987 291.414577 416.72788 
C 292.371469 417.684772 293.669477 418.222425 295.022727 418.222425 
z
" clip-path="url(#p432c72ca82)" style="fill: #414287; fill-opacity: 0.8; stroke: #808080; stroke-opacity: 0.8; stroke-width: 2"/>
    <path d="M 305.590909 459.301052 
C 306.56839 459.301052 307.505968 458.912695 308.197152 458.221511 
C 308.888335 457.530328 309.276693 456.59275 309.276693 455.615269 
C 309.276693 454.637788 308.888335 453.70021 308.197152 453.009026 
C 307.505968 452.317843 306.56839 451.929485 305.590909 451.929485 
C 304.613428 451.929485 303.67585 452.317843 302.984667 453.009026 
C 302.293483 453.70021 301.905126 454.637788 301.905126 455.615269 
C 301.905126 456.59275 302.293483 457.530328 302.984667 458.221511 
C 303.67585 458.912695 304.613428 459.301052 305.590909 459.301052 
z
" clip-path="url(#p432c72ca82)" style="fill: #482173; fill-opacity: 0.8; stroke: #808080; stroke-opacity: 0.8; stroke-width: 2"/>
    <path d="M 316.159091 410.129389 
C 317.574329 410.129389 318.931793 409.567109 319.932518 408.566385 
C 320.933242 407.56566 321.495522 406.208196 321.495522 404.792958 
C 321.495522 403.37772 320.933242 402.020256 319.932518 401.019531 
C 318.931793 400.018807 317.574329 399.456527 316.159091 399.456527 
C 314.743853 399.456527 313.386389 400.018807 312.385664 401.019531 
C 311.38494 402.020256 310.82266 403.37772 310.82266 404.792958 
C 310.82266 406.208196 311.38494 407.56566 312.385664 408.566385 
C 313.386389 409.567109 314.743853 410.129389 316.159091 410.129389 
z
" clip-path="url(#p432c72ca82)" style="fill: #3f4889; fill-opacity: 0.8; stroke: #808080; stroke-opacity: 0.8; stroke-width: 2"/>
    <path d="M 326.727273 418.015257 
C 328.082147 418.015257 329.381711 417.47696 330.339751 416.518919 
C 331.297792 415.560879 331.836089 414.261315 331.836089 412.906441 
C 331.836089 411.551567 331.297792 410.252003 330.339751 409.293963 
C 329.381711 408.335922 328.082147 407.797625 326.727273 407.797625 
C 325.372399 407.797625 324.072835 408.335922 323.114794 409.293963 
C 322.156754 410.252003 321.618457 411.551567 321.618457 412.906441 
C 321.618457 414.261315 322.156754 415.560879 323.114794 416.518919 
C 324.072835 417.47696 325.372399 418.015257 326.727273 418.015257 
z
" clip-path="url(#p432c72ca82)" style="fill: #414287; fill-opacity: 0.8; stroke: #808080; stroke-opacity: 0.8; stroke-width: 2"/>
    <path d="M 337.295455 417.418573 
C 338.654992 417.418573 339.95903 416.878423 340.920368 415.917085 
C 341.881707 414.955746 342.421857 413.651709 342.421857 412.292171 
C 342.421857 410.932633 341.881707 409.628596 340.920368 408.667257 
C 339.95903 407.705919 338.654992 407.165769 337.295455 407.165769 
C 335.935917 407.165769 334.631879 407.705919 333.670541 408.667257 
C 332.709202 409.628596 332.169052 410.932633 332.169052 412.292171 
C 332.169052 413.651709 332.709202 414.955746 333.670541 415.917085 
C 334.631879 416.878423 335.935917 417.418573 337.295455 417.418573 
z
" clip-path="url(#p432c72ca82)" style="fill: #414287; fill-opacity: 0.8; stroke: #808080; stroke-opacity: 0.8; stroke-width: 2"/>
    <path d="M 347.863636 466.04826 
C 348.763863 466.04826 349.62734 465.690596 350.263897 465.054039 
C 350.900453 464.417483 351.258117 463.554006 351.258117 462.653779 
C 351.258117 461.753552 350.900453 460.890075 350.263897 460.253519 
C 349.62734 459.616962 348.763863 459.259298 347.863636 459.259298 
C 346.96341 459.259298 346.099932 459.616962 345.463376 460.253519 
C 344.826819 460.890075 344.469156 461.753552 344.469156 462.653779 
C 344.469156 463.554006 344.826819 464.417483 345.463376 465.054039 
C 346.099932 465.690596 346.96341 466.04826 347.863636 466.04826 
z
" clip-path="url(#p432c72ca82)" style="fill: #481b6d; fill-opacity: 0.8; stroke: #808080; stroke-opacity: 0.8; stroke-width: 2"/>
    <path d="M 358.431818 419.937488 
C 359.771553 419.937488 361.056597 419.405205 362.003932 418.45787 
C 362.951268 417.510534 363.483551 416.22549 363.483551 414.885755 
C 363.483551 413.54602 362.951268 412.260977 362.003932 411.313641 
C 361.056597 410.366305 359.771553 409.834023 358.431818 409.834023 
C 357.092083 409.834023 355.80704 410.366305 354.859704 411.313641 
C 353.912368 412.260977 353.380086 413.54602 353.380086 414.885755 
C 353.380086 416.22549 353.912368 417.510534 354.859704 418.45787 
C 355.80704 419.405205 357.092083 419.937488 358.431818 419.937488 
z
" clip-path="url(#p432c72ca82)" style="fill: #424186; fill-opacity: 0.8; stroke: #808080; stroke-opacity: 0.8; stroke-width: 2"/>
    <path d="M 369 494.148083 
C 369.442381 494.148083 369.866702 493.972323 370.179513 493.659513 
C 370.492323 493.346702 370.668083 492.922381 370.668083 492.48 
C 370.668083 492.037619 370.492323 491.613298 370.179513 491.300487 
C 369.866702 490.987677 369.442381 490.811917 369 490.811917 
C 368.557619 490.811917 368.133298 490.987677 367.820487 491.300487 
C 367.507677 491.613298 367.331917 492.037619 367.331917 492.48 
C 367.331917 492.922381 367.507677 493.346702 367.820487 493.659513 
C 368.133298 493.972323 368.557619 494.148083 369 494.148083 
z
" clip-path="url(#p432c72ca82)" style="fill: #440154; fill-opacity: 0.8; stroke: #808080; stroke-opacity: 0.8; stroke-width: 2"/>
    <path d="M 379.568182 429.910453 
C 380.82636 429.910453 382.033176 429.410574 382.922843 428.520907 
C 383.812509 427.631241 384.312389 426.424425 384.312389 425.166246 
C 384.312389 423.908068 383.812509 422.701252 382.922843 421.811585 
C 382.033176 420.921919 380.82636 420.422039 379.568182 420.422039 
C 378.310003 420.422039 377.103187 420.921919 376.213521 421.811585 
C 375.323854 422.701252 374.823975 423.908068 374.823975 425.166246 
C 374.823975 426.424425 375.323854 427.631241 376.213521 428.520907 
C 377.103187 429.410574 378.310003 429.910453 379.568182 429.910453 
z
" clip-path="url(#p432c72ca82)" style="fill: #443983; fill-opacity: 0.8; stroke: #808080; stroke-opacity: 0.8; stroke-width: 2"/>
    <path d="M 390.136364 431.100899 
C 391.384439 431.100899 392.581565 430.605034 393.464088 429.722511 
C 394.346611 428.839988 394.842477 427.642862 394.842477 426.394786 
C 394.842477 425.146711 394.346611 423.949585 393.464088 423.067062 
C 392.581565 422.184539 391.384439 421.688673 390.136364 421.688673 
C 388.888288 421.688673 387.691162 422.184539 386.808639 423.067062 
C 385.926116 423.949585 385.430251 425.146711 385.430251 426.394786 
C 385.430251 427.642862 385.926116 428.839988 386.808639 429.722511 
C 387.691162 430.605034 388.888288 431.100899 390.136364 431.100899 
z
" clip-path="url(#p432c72ca82)" style="fill: #453882; fill-opacity: 0.8; stroke: #808080; stroke-opacity: 0.8; stroke-width: 2"/>
    <path d="M 400.704545 492.475654 
C 401.187587 492.475654 401.650909 492.283739 401.99247 491.942178 
C 402.334032 491.600616 402.525946 491.137294 402.525946 490.654253 
C 402.525946 490.171212 402.334032 489.70789 401.99247 489.366328 
C 401.650909 489.024767 401.187587 488.832853 400.704545 488.832853 
C 400.221504 488.832853 399.758182 489.024767 399.416621 489.366328 
C 399.075059 489.70789 398.883145 490.171212 398.883145 490.654253 
C 398.883145 491.137294 399.075059 491.600616 399.416621 491.942178 
C 399.758182 492.283739 400.221504 492.475654 400.704545 492.475654 
z
" clip-path="url(#p432c72ca82)" style="fill: #440256; fill-opacity: 0.8; stroke: #808080; stroke-opacity: 0.8; stroke-width: 2"/>
    <path d="M 411.272727 427.942249 
C 412.547428 427.942249 413.770091 427.435805 414.67144 426.534456 
C 415.572789 425.633106 416.079233 424.410443 416.079233 423.135743 
C 416.079233 421.861042 415.572789 420.638379 414.67144 419.73703 
C 413.770091 418.83568 412.547428 418.329237 411.272727 418.329237 
C 409.998027 418.329237 408.775364 418.83568 407.874014 419.73703 
C 406.972665 420.638379 406.466221 421.861042 406.466221 423.135743 
C 406.466221 424.410443 406.972665 425.633106 407.874014 426.534456 
C 408.775364 427.435805 409.998027 427.942249 411.272727 427.942249 
z
" clip-path="url(#p432c72ca82)" style="fill: #443b84; fill-opacity: 0.8; stroke: #808080; stroke-opacity: 0.8; stroke-width: 2"/>
    <path d="M 421.840909 367.786399 
C 423.543226 367.786399 425.176049 367.110062 426.379769 365.906342 
C 427.583489 364.702622 428.259826 363.069799 428.259826 361.367482 
C 428.259826 359.665165 427.583489 358.032342 426.379769 356.828622 
C 425.176049 355.624902 423.543226 354.948565 421.840909 354.948565 
C 420.138592 354.948565 418.505769 355.624902 417.302049 356.828622 
C 416.098329 358.032342 415.421992 359.665165 415.421992 361.367482 
C 415.421992 363.069799 416.098329 364.702622 417.302049 365.906342 
C 418.505769 367.110062 420.138592 367.786399 421.840909 367.786399 
z
" clip-path="url(#p432c72ca82)" style="fill: #31668e; fill-opacity: 0.8; stroke: #808080; stroke-opacity: 0.8; stroke-width: 2"/>
    <path d="M 432.409091 460.881591 
C 433.369057 460.881591 434.289834 460.500193 434.968632 459.821395 
C 435.64743 459.142596 436.028828 458.221819 436.028828 457.261854 
C 436.028828 456.301888 435.64743 455.381111 434.968632 454.702313 
C 434.289834 454.023514 433.369057 453.642116 432.409091 453.642116 
C 431.449125 453.642116 430.528348 454.023514 429.84955 454.702313 
C 429.170752 455.381111 428.789353 456.301888 428.789353 457.261854 
C 428.789353 458.221819 429.170752 459.142596 429.84955 459.821395 
C 430.528348 460.500193 431.449125 460.881591 432.409091 460.881591 
z
" clip-path="url(#p432c72ca82)" style="fill: #482071; fill-opacity: 0.8; stroke: #808080; stroke-opacity: 0.8; stroke-width: 2"/>
    <path d="M 442.977273 332.115388 
C 444.887564 332.115388 446.719871 331.356422 448.070651 330.005642 
C 449.42143 328.654862 450.180397 326.822555 450.180397 324.912264 
C 450.180397 323.001973 449.42143 321.169666 448.070651 319.818886 
C 446.719871 318.468106 444.887564 317.70914 442.977273 317.70914 
C 441.066982 317.70914 439.234674 318.468106 437.883895 319.818886 
C 436.533115 321.169666 435.774148 323.001973 435.774148 324.912264 
C 435.774148 326.822555 436.533115 328.654862 437.883895 330.005642 
C 439.234674 331.356422 441.066982 332.115388 442.977273 332.115388 
z
" clip-path="url(#p432c72ca82)" style="fill: #287c8e; fill-opacity: 0.8; stroke: #808080; stroke-opacity: 0.8; stroke-width: 2"/>
    <path d="M 453.545455 381.73346 
C 455.159003 381.73346 456.706683 381.09239 457.847634 379.951439 
C 458.988586 378.810488 459.629655 377.262808 459.629655 375.649259 
C 459.629655 374.03571 458.988586 372.488031 457.847634 371.34708 
C 456.706683 370.206128 455.159003 369.565059 453.545455 369.565059 
C 451.931906 369.565059 450.384226 370.206128 449.243275 371.34708 
C 448.102323 372.488031 447.461254 374.03571 447.461254 375.649259 
C 447.461254 377.262808 448.102323 378.810488 449.243275 379.951439 
C 450.384226 381.09239 451.931906 381.73346 453.545455 381.73346 
z
" clip-path="url(#p432c72ca82)" style="fill: #365d8d; fill-opacity: 0.8; stroke: #808080; stroke-opacity: 0.8; stroke-width: 2"/>
    <path d="M 464.113636 242.266009 
C 466.466371 242.266009 468.72306 241.331258 470.386694 239.667624 
C 472.050328 238.003989 472.985079 235.7473 472.985079 233.394566 
C 472.985079 231.041832 472.050328 228.785143 470.386694 227.121509 
C 468.72306 225.457874 466.466371 224.523123 464.113636 224.523123 
C 461.760902 224.523123 459.504213 225.457874 457.840579 227.121509 
C 456.176945 228.785143 455.242193 231.041832 455.242193 233.394566 
C 455.242193 235.7473 456.176945 238.003989 457.840579 239.667624 
C 459.504213 241.331258 461.760902 242.266009 464.113636 242.266009 
z
" clip-path="url(#p432c72ca82)" style="fill: #2db27d; fill-opacity: 0.8; stroke: #808080; stroke-opacity: 0.8; stroke-width: 2"/>
    <path d="M 474.681818 366.060558 
C 476.394792 366.060558 478.037838 365.379986 479.249093 364.168731 
C 480.460349 362.957475 481.14092 361.31443 481.14092 359.601456 
C 481.14092 357.888482 480.460349 356.245436 479.249093 355.034181 
C 478.037838 353.822925 476.394792 353.142354 474.681818 353.142354 
C 472.968844 353.142354 471.325799 353.822925 470.114543 355.034181 
C 468.903288 356.245436 468.222716 357.888482 468.222716 359.601456 
C 468.222716 361.31443 468.903288 362.957475 470.114543 364.168731 
C 471.325799 365.379986 472.968844 366.060558 474.681818 366.060558 
z
" clip-path="url(#p432c72ca82)" style="fill: #31678e; fill-opacity: 0.8; stroke: #808080; stroke-opacity: 0.8; stroke-width: 2"/>
    <path d="M 485.25 389.165795 
C 486.814136 389.165795 488.31442 388.544357 489.420432 387.438345 
C 490.526443 386.332334 491.147881 384.83205 491.147881 383.267914 
C 491.147881 381.703777 490.526443 380.203493 489.420432 379.097482 
C 488.31442 377.991471 486.814136 377.370033 485.25 377.370033 
C 483.685864 377.370033 482.18558 377.991471 481.079568 379.097482 
C 479.973557 380.203493 479.352119 381.703777 479.352119 383.267914 
C 479.352119 384.83205 479.973557 386.332334 481.079568 387.438345 
C 482.18558 388.544357 483.685864 389.165795 485.25 389.165795 
z
" clip-path="url(#p432c72ca82)" style="fill: #38588c; fill-opacity: 0.8; stroke: #808080; stroke-opacity: 0.8; stroke-width: 2"/>
    <path d="M 495.818182 299.381262 
C 497.900786 299.381262 499.898373 298.553834 501.370996 297.081211 
C 502.84362 295.608587 503.671048 293.611 503.671048 291.528396 
C 503.671048 289.445792 502.84362 287.448205 501.370996 285.975582 
C 499.898373 284.502958 497.900786 283.67553 495.818182 283.67553 
C 493.735577 283.67553 491.737991 284.502958 490.265367 285.975582 
C 488.792744 287.448205 487.965316 289.445792 487.965316 291.528396 
C 487.965316 293.611 488.792744 295.608587 490.265367 297.081211 
C 491.737991 298.553834 493.735577 299.381262 495.818182 299.381262 
z
" clip-path="url(#p432c72ca82)" style="fill: #21908d; fill-opacity: 0.8; stroke: #808080; stroke-opacity: 0.8; stroke-width: 2"/>
    <path d="M 506.386364 439.664084 
C 507.559119 439.664084 508.684 439.198143 509.513263 438.36888 
C 510.342526 437.539617 510.808467 436.414736 510.808467 435.241981 
C 510.808467 434.069225 510.342526 432.944345 509.513263 432.115081 
C 508.684 431.285818 507.559119 430.819877 506.386364 430.819877 
C 505.213608 430.819877 504.088728 431.285818 503.259464 432.115081 
C 502.430201 432.944345 501.96426 434.069225 501.96426 435.241981 
C 501.96426 436.414736 502.430201 437.539617 503.259464 438.36888 
C 504.088728 439.198143 505.213608 439.664084 506.386364 439.664084 
z
" clip-path="url(#p432c72ca82)" style="fill: #46327e; fill-opacity: 0.8; stroke: #808080; stroke-opacity: 0.8; stroke-width: 2"/>
    <path d="M 516.954545 347.436585 
C 518.77848 347.436585 520.527956 346.711929 521.817672 345.422212 
C 523.107388 344.132496 523.832045 342.38302 523.832045 340.559086 
C 523.832045 338.735152 523.107388 336.985676 521.817672 335.695959 
C 520.527956 334.406243 518.77848 333.681586 516.954545 333.681586 
C 515.130611 333.681586 513.381135 334.406243 512.091419 335.695959 
C 510.801703 336.985676 510.077046 338.735152 510.077046 340.559086 
C 510.077046 342.38302 510.801703 344.132496 512.091419 345.422212 
C 513.381135 346.711929 515.130611 347.436585 516.954545 347.436585 
z
" clip-path="url(#p432c72ca82)" style="fill: #2c728e; fill-opacity: 0.8; stroke: #808080; stroke-opacity: 0.8; stroke-width: 2"/>
    <path d="M 527.522727 236.903947 
C 529.899219 236.903947 532.178696 235.959756 533.85913 234.279323 
C 535.539564 232.598889 536.483754 230.319412 536.483754 227.94292 
C 536.483754 225.566428 535.539564 223.286951 533.85913 221.606517 
C 532.178696 219.926084 529.899219 218.981893 527.522727 218.981893 
C 525.146235 218.981893 522.866758 219.926084 521.186325 221.606517 
C 519.505891 223.286951 518.561701 225.566428 518.561701 227.94292 
C 518.561701 230.319412 519.505891 232.598889 521.186325 234.279323 
C 522.866758 235.959756 525.146235 236.903947 527.522727 236.903947 
z
" clip-path="url(#p432c72ca82)" style="fill: #31b57b; fill-opacity: 0.8; stroke: #808080; stroke-opacity: 0.8; stroke-width: 2"/>
    <path d="M 538.090909 227.772149 
C 540.507315 227.772149 542.825077 226.812101 544.533735 225.103443 
C 546.242392 223.394786 547.20244 221.077024 547.20244 218.660618 
C 547.20244 216.244212 546.242392 213.92645 544.533735 212.217792 
C 542.825077 210.509135 540.507315 209.549087 538.090909 209.549087 
C 535.674503 209.549087 533.356741 210.509135 531.648084 212.217792 
C 529.939426 213.92645 528.979378 216.244212 528.979378 218.660618 
C 528.979378 221.077024 529.939426 223.394786 531.648084 225.103443 
C 533.356741 226.812101 535.674503 227.772149 538.090909 227.772149 
z
" clip-path="url(#p432c72ca82)" style="fill: #3aba76; fill-opacity: 0.8; stroke: #808080; stroke-opacity: 0.8; stroke-width: 2"/>
    <path d="M 548.659091 471.410373 
C 549.492584 471.410373 550.292052 471.079223 550.881421 470.489854 
C 551.47079 469.900485 551.80194 469.101018 551.80194 468.267524 
C 551.80194 467.434031 551.47079 466.634563 550.881421 466.045194 
C 550.292052 465.455826 549.492584 465.124675 548.659091 465.124675 
C 547.825598 465.124675 547.02613 465.455826 546.436761 466.045194 
C 545.847392 466.634563 545.516242 467.434031 545.516242 468.267524 
C 545.516242 469.101018 545.847392 469.900485 546.436761 470.489854 
C 547.02613 471.079223 547.825598 471.410373 548.659091 471.410373 
z
" clip-path="url(#p432c72ca82)" style="fill: #481769; fill-opacity: 0.8; stroke: #808080; stroke-opacity: 0.8; stroke-width: 2"/>
    <path d="M 559.227273 366.302358 
C 560.938758 366.302358 562.580375 365.622377 563.790577 364.412175 
C 565.00078 363.201972 565.68076 361.560355 565.68076 359.84887 
C 565.68076 358.137385 565.00078 356.495768 563.790577 355.285565 
C 562.580375 354.075363 560.938758 353.395383 559.227273 353.395383 
C 557.515788 353.395383 555.874171 354.075363 554.663968 355.285565 
C 553.453765 356.495768 552.773785 358.137385 552.773785 359.84887 
C 552.773785 361.560355 553.453765 363.201972 554.663968 364.412175 
C 555.874171 365.622377 557.515788 366.302358 559.227273 366.302358 
z
" clip-path="url(#p432c72ca82)" style="fill: #31678e; fill-opacity: 0.8; stroke: #808080; stroke-opacity: 0.8; stroke-width: 2"/>
    <path d="M 569.795455 412.526871 
C 571.192624 412.526871 572.532758 411.97177 573.520706 410.983821 
C 574.508655 409.995873 575.063756 408.655739 575.063756 407.25857 
C 575.063756 405.8614 574.508655 404.521266 573.520706 403.533318 
C 572.532758 402.54537 571.192624 401.990268 569.795455 401.990268 
C 568.398285 401.990268 567.058151 402.54537 566.070203 403.533318 
C 565.082255 404.521266 564.527153 405.8614 564.527153 407.25857 
C 564.527153 408.655739 565.082255 409.995873 566.070203 410.983821 
C 567.058151 411.97177 568.398285 412.526871 569.795455 412.526871 
z
" clip-path="url(#p432c72ca82)" style="fill: #3f4788; fill-opacity: 0.8; stroke: #808080; stroke-opacity: 0.8; stroke-width: 2"/>
    <path d="M 580.363636 415.354583 
C 581.739182 415.354583 583.058573 414.808073 584.031231 413.835415 
C 585.003888 412.862758 585.550398 411.543366 585.550398 410.167821 
C 585.550398 408.792275 585.003888 407.472883 584.031231 406.500226 
C 583.058573 405.527569 581.739182 404.981059 580.363636 404.981059 
C 578.988091 404.981059 577.668699 405.527569 576.696042 406.500226 
C 575.723384 407.472883 575.176874 408.792275 575.176874 410.167821 
C 575.176874 411.543366 575.723384 412.862758 576.696042 413.835415 
C 577.668699 414.808073 578.988091 415.354583 580.363636 415.354583 
z
" clip-path="url(#p432c72ca82)" style="fill: #404588; fill-opacity: 0.8; stroke: #808080; stroke-opacity: 0.8; stroke-width: 2"/>
    <path d="M 590.931818 436.140218 
C 592.136159 436.140218 593.291334 435.661729 594.142932 434.810132 
C 594.994529 433.958534 595.473018 432.803359 595.473018 431.599018 
C 595.473018 430.394678 594.994529 429.239502 594.142932 428.387905 
C 593.291334 427.536307 592.136159 427.057818 590.931818 427.057818 
C 589.727478 427.057818 588.572302 427.536307 587.720705 428.387905 
C 586.869107 429.239502 586.390618 430.394678 586.390618 431.599018 
C 586.390618 432.803359 586.869107 433.958534 587.720705 434.810132 
C 588.572302 435.661729 589.727478 436.140218 590.931818 436.140218 
z
" clip-path="url(#p432c72ca82)" style="fill: #463480; fill-opacity: 0.8; stroke: #808080; stroke-opacity: 0.8; stroke-width: 2"/>
    <path d="M 601.5 369.862076 
C 603.189408 369.862076 604.80985 369.190867 606.004442 367.996275 
C 607.199034 366.801683 607.870243 365.181241 607.870243 363.491832 
C 607.870243 361.802424 607.199034 360.181982 606.004442 358.98739 
C 604.80985 357.792798 603.189408 357.121589 601.5 357.121589 
C 599.810592 357.121589 598.19015 357.792798 596.995558 358.98739 
C 595.800966 360.181982 595.129757 361.802424 595.129757 363.491832 
C 595.129757 365.181241 595.800966 366.801683 596.995558 367.996275 
C 598.19015 369.190867 599.810592 369.862076 601.5 369.862076 
z
" clip-path="url(#p432c72ca82)" style="fill: #32648e; fill-opacity: 0.8; stroke: #808080; stroke-opacity: 0.8; stroke-width: 2"/>
    <path d="M 612.068182 332.967882 
C 613.973773 332.967882 615.801572 332.210782 617.149028 330.863326 
C 618.496484 329.51587 619.253584 327.688071 619.253584 325.78248 
C 619.253584 323.876889 618.496484 322.04909 617.149028 320.701634 
C 615.801572 319.354177 613.973773 318.597078 612.068182 318.597078 
C 610.162591 318.597078 608.334792 319.354177 606.987335 320.701634 
C 605.639879 322.04909 604.88278 323.876889 604.88278 325.78248 
C 604.88278 327.688071 605.639879 329.51587 606.987335 330.863326 
C 608.334792 332.210782 610.162591 332.967882 612.068182 332.967882 
z
" clip-path="url(#p432c72ca82)" style="fill: #297b8e; fill-opacity: 0.8; stroke: #808080; stroke-opacity: 0.8; stroke-width: 2"/>
    <path d="M 622.636364 100.276931 
C 625.552784 100.276931 628.350148 99.118225 630.412368 97.056005 
C 632.474589 94.993784 633.633295 92.19642 633.633295 89.28 
C 633.633295 86.36358 632.474589 83.566216 630.412368 81.503995 
C 628.350148 79.441775 625.552784 78.283069 622.636364 78.283069 
C 619.719943 78.283069 616.922579 79.441775 614.860359 81.503995 
C 612.798138 83.566216 611.639432 86.36358 611.639432 89.28 
C 611.639432 92.19642 612.798138 94.993784 614.860359 97.056005 
C 616.922579 99.118225 619.719943 100.276931 622.636364 100.276931 
z
" clip-path="url(#p432c72ca82)" style="fill: #fde725; fill-opacity: 0.8; stroke: #808080; stroke-opacity: 0.8; stroke-width: 2"/>
   </g>
   <g id="PathCollection_2">
    <defs>
     <path id="me302e1975b" d="M 0 0.353553 
C 0.093763 0.353553 0.183699 0.316301 0.25 0.25 
C 0.316301 0.183699 0.353553 0.093763 0.353553 0 
C 0.353553 -0.093763 0.316301 -0.183699 0.25 -0.25 
C 0.183699 -0.316301 0.093763 -0.353553 0 -0.353553 
C -0.093763 -0.353553 -0.183699 -0.316301 -0.25 -0.25 
C -0.316301 -0.183699 -0.353553 -0.093763 -0.353553 0 
C -0.353553 0.093763 -0.316301 0.183699 -0.25 0.25 
C -0.183699 0.316301 -0.093763 0.353553 0 0.353553 
z
" style="stroke: #1f77b4"/>
    </defs>
    <g clip-path="url(#p432c72ca82)">
     <use xlink:href="#me302e1975b" x="115.363636" y="411.183072" style="fill: #1f77b4; stroke: #1f77b4"/>
     <use xlink:href="#me302e1975b" x="125.931818" y="443.611409" style="fill: #1f77b4; stroke: #1f77b4"/>
     <use xlink:href="#me302e1975b" x="136.5" y="413.094135" style="fill: #1f77b4; stroke: #1f77b4"/>
     <use xlink:href="#me302e1975b" x="147.068182" y="365.795345" style="fill: #1f77b4; stroke: #1f77b4"/>
     <use xlink:href="#me302e1975b" x="157.636364" y="263.271976" style="fill: #1f77b4; stroke: #1f77b4"/>
     <use xlink:href="#me302e1975b" x="168.204545" y="428.996902" style="fill: #1f77b4; stroke: #1f77b4"/>
     <use xlink:href="#me302e1975b" x="178.772727" y="180.021329" style="fill: #1f77b4; stroke: #1f77b4"/>
     <use xlink:href="#me302e1975b" x="189.340909" y="393.215675" style="fill: #1f77b4; stroke: #1f77b4"/>
     <use xlink:href="#me302e1975b" x="199.909091" y="481.218383" style="fill: #1f77b4; stroke: #1f77b4"/>
     <use xlink:href="#me302e1975b" x="210.477273" y="444.874075" style="fill: #1f77b4; stroke: #1f77b4"/>
     <use xlink:href="#me302e1975b" x="221.045455" y="383.336166" style="fill: #1f77b4; stroke: #1f77b4"/>
     <use xlink:href="#me302e1975b" x="231.613636" y="256.805078" style="fill: #1f77b4; stroke: #1f77b4"/>
     <use xlink:href="#me302e1975b" x="242.181818" y="431.428388" style="fill: #1f77b4; stroke: #1f77b4"/>
     <use xlink:href="#me302e1975b" x="252.75" y="465.708066" style="fill: #1f77b4; stroke: #1f77b4"/>
     <use xlink:href="#me302e1975b" x="263.318182" y="326.644164" style="fill: #1f77b4; stroke: #1f77b4"/>
     <use xlink:href="#me302e1975b" x="273.886364" y="396.636818" style="fill: #1f77b4; stroke: #1f77b4"/>
     <use xlink:href="#me302e1975b" x="284.454545" y="204.890732" style="fill: #1f77b4; stroke: #1f77b4"/>
     <use xlink:href="#me302e1975b" x="295.022727" y="413.119729" style="fill: #1f77b4; stroke: #1f77b4"/>
     <use xlink:href="#me302e1975b" x="305.590909" y="455.615269" style="fill: #1f77b4; stroke: #1f77b4"/>
     <use xlink:href="#me302e1975b" x="316.159091" y="404.792958" style="fill: #1f77b4; stroke: #1f77b4"/>
     <use xlink:href="#me302e1975b" x="326.727273" y="412.906441" style="fill: #1f77b4; stroke: #1f77b4"/>
     <use xlink:href="#me302e1975b" x="337.295455" y="412.292171" style="fill: #1f77b4; stroke: #1f77b4"/>
     <use xlink:href="#me302e1975b" x="347.863636" y="462.653779" style="fill: #1f77b4; stroke: #1f77b4"/>
     <use xlink:href="#me302e1975b" x="358.431818" y="414.885755" style="fill: #1f77b4; stroke: #1f77b4"/>
     <use xlink:href="#me302e1975b" x="369" y="492.48" style="fill: #1f77b4; stroke: #1f77b4"/>
     <use xlink:href="#me302e1975b" x="379.568182" y="425.166246" style="fill: #1f77b4; stroke: #1f77b4"/>
     <use xlink:href="#me302e1975b" x="390.136364" y="426.394786" style="fill: #1f77b4; stroke: #1f77b4"/>
     <use xlink:href="#me302e1975b" x="400.704545" y="490.654253" style="fill: #1f77b4; stroke: #1f77b4"/>
     <use xlink:href="#me302e1975b" x="411.272727" y="423.135743" style="fill: #1f77b4; stroke: #1f77b4"/>
     <use xlink:href="#me302e1975b" x="421.840909" y="361.367482" style="fill: #1f77b4; stroke: #1f77b4"/>
     <use xlink:href="#me302e1975b" x="432.409091" y="457.261854" style="fill: #1f77b4; stroke: #1f77b4"/>
     <use xlink:href="#me302e1975b" x="442.977273" y="324.912264" style="fill: #1f77b4; stroke: #1f77b4"/>
     <use xlink:href="#me302e1975b" x="453.545455" y="375.649259" style="fill: #1f77b4; stroke: #1f77b4"/>
     <use xlink:href="#me302e1975b" x="464.113636" y="233.394566" style="fill: #1f77b4; stroke: #1f77b4"/>
     <use xlink:href="#me302e1975b" x="474.681818" y="359.601456" style="fill: #1f77b4; stroke: #1f77b4"/>
     <use xlink:href="#me302e1975b" x="485.25" y="383.267914" style="fill: #1f77b4; stroke: #1f77b4"/>
     <use xlink:href="#me302e1975b" x="495.818182" y="291.528396" style="fill: #1f77b4; stroke: #1f77b4"/>
     <use xlink:href="#me302e1975b" x="506.386364" y="435.241981" style="fill: #1f77b4; stroke: #1f77b4"/>
     <use xlink:href="#me302e1975b" x="516.954545" y="340.559086" style="fill: #1f77b4; stroke: #1f77b4"/>
     <use xlink:href="#me302e1975b" x="527.522727" y="227.94292" style="fill: #1f77b4; stroke: #1f77b4"/>
     <use xlink:href="#me302e1975b" x="538.090909" y="218.660618" style="fill: #1f77b4; stroke: #1f77b4"/>
     <use xlink:href="#me302e1975b" x="548.659091" y="468.267524" style="fill: #1f77b4; stroke: #1f77b4"/>
     <use xlink:href="#me302e1975b" x="559.227273" y="359.84887" style="fill: #1f77b4; stroke: #1f77b4"/>
     <use xlink:href="#me302e1975b" x="569.795455" y="407.25857" style="fill: #1f77b4; stroke: #1f77b4"/>
     <use xlink:href="#me302e1975b" x="580.363636" y="410.167821" style="fill: #1f77b4; stroke: #1f77b4"/>
     <use xlink:href="#me302e1975b" x="590.931818" y="431.599018" style="fill: #1f77b4; stroke: #1f77b4"/>
     <use xlink:href="#me302e1975b" x="601.5" y="363.491832" style="fill: #1f77b4; stroke: #1f77b4"/>
     <use xlink:href="#me302e1975b" x="612.068182" y="325.78248" style="fill: #1f77b4; stroke: #1f77b4"/>
     <use xlink:href="#me302e1975b" x="622.636364" y="89.28" style="fill: #1f77b4; stroke: #1f77b4"/>
    </g>
   </g>
   <g id="matplotlib.axis_1">
    <g id="xtick_1">
     <g id="line2d_1">
      <defs>
       <path id="mec6db370c1" d="M 0 0 
L 0 3.5 
" style="stroke: #000000; stroke-width: 0.8"/>
      </defs>
      <g>
       <use xlink:href="#mec6db370c1" x="115.363636" y="512.64" style="stroke: #000000; stroke-width: 0.8"/>
      </g>
     </g>
    </g>
    <g id="xtick_2">
     <g id="line2d_2">
      <g>
       <use xlink:href="#mec6db370c1" x="125.931818" y="512.64" style="stroke: #000000; stroke-width: 0.8"/>
      </g>
     </g>
    </g>
    <g id="xtick_3">
     <g id="line2d_3">
      <g>
       <use xlink:href="#mec6db370c1" x="136.5" y="512.64" style="stroke: #000000; stroke-width: 0.8"/>
      </g>
     </g>
    </g>
    <g id="xtick_4">
     <g id="line2d_4">
      <g>
       <use xlink:href="#mec6db370c1" x="147.068182" y="512.64" style="stroke: #000000; stroke-width: 0.8"/>
      </g>
     </g>
    </g>
    <g id="xtick_5">
     <g id="line2d_5">
      <g>
       <use xlink:href="#mec6db370c1" x="157.636364" y="512.64" style="stroke: #000000; stroke-width: 0.8"/>
      </g>
     </g>
    </g>
    <g id="xtick_6">
     <g id="line2d_6">
      <g>
       <use xlink:href="#mec6db370c1" x="168.204545" y="512.64" style="stroke: #000000; stroke-width: 0.8"/>
      </g>
     </g>
    </g>
    <g id="xtick_7">
     <g id="line2d_7">
      <g>
       <use xlink:href="#mec6db370c1" x="178.772727" y="512.64" style="stroke: #000000; stroke-width: 0.8"/>
      </g>
     </g>
    </g>
    <g id="xtick_8">
     <g id="line2d_8">
      <g>
       <use xlink:href="#mec6db370c1" x="189.340909" y="512.64" style="stroke: #000000; stroke-width: 0.8"/>
      </g>
     </g>
    </g>
    <g id="xtick_9">
     <g id="line2d_9">
      <g>
       <use xlink:href="#mec6db370c1" x="199.909091" y="512.64" style="stroke: #000000; stroke-width: 0.8"/>
      </g>
     </g>
    </g>
    <g id="xtick_10">
     <g id="line2d_10">
      <g>
       <use xlink:href="#mec6db370c1" x="210.477273" y="512.64" style="stroke: #000000; stroke-width: 0.8"/>
      </g>
     </g>
    </g>
    <g id="xtick_11">
     <g id="line2d_11">
      <g>
       <use xlink:href="#mec6db370c1" x="221.045455" y="512.64" style="stroke: #000000; stroke-width: 0.8"/>
      </g>
     </g>
    </g>
    <g id="xtick_12">
     <g id="line2d_12">
      <g>
       <use xlink:href="#mec6db370c1" x="231.613636" y="512.64" style="stroke: #000000; stroke-width: 0.8"/>
      </g>
     </g>
    </g>
    <g id="xtick_13">
     <g id="line2d_13">
      <g>
       <use xlink:href="#mec6db370c1" x="242.181818" y="512.64" style="stroke: #000000; stroke-width: 0.8"/>
      </g>
     </g>
    </g>
    <g id="xtick_14">
     <g id="line2d_14">
      <g>
       <use xlink:href="#mec6db370c1" x="252.75" y="512.64" style="stroke: #000000; stroke-width: 0.8"/>
      </g>
     </g>
    </g>
    <g id="xtick_15">
     <g id="line2d_15">
      <g>
       <use xlink:href="#mec6db370c1" x="263.318182" y="512.64" style="stroke: #000000; stroke-width: 0.8"/>
      </g>
     </g>
    </g>
    <g id="xtick_16">
     <g id="line2d_16">
      <g>
       <use xlink:href="#mec6db370c1" x="273.886364" y="512.64" style="stroke: #000000; stroke-width: 0.8"/>
      </g>
     </g>
    </g>
    <g id="xtick_17">
     <g id="line2d_17">
      <g>
       <use xlink:href="#mec6db370c1" x="284.454545" y="512.64" style="stroke: #000000; stroke-width: 0.8"/>
      </g>
     </g>
    </g>
    <g id="xtick_18">
     <g id="line2d_18">
      <g>
       <use xlink:href="#mec6db370c1" x="295.022727" y="512.64" style="stroke: #000000; stroke-width: 0.8"/>
      </g>
     </g>
    </g>
    <g id="xtick_19">
     <g id="line2d_19">
      <g>
       <use xlink:href="#mec6db370c1" x="305.590909" y="512.64" style="stroke: #000000; stroke-width: 0.8"/>
      </g>
     </g>
    </g>
    <g id="xtick_20">
     <g id="line2d_20">
      <g>
       <use xlink:href="#mec6db370c1" x="316.159091" y="512.64" style="stroke: #000000; stroke-width: 0.8"/>
      </g>
     </g>
    </g>
    <g id="xtick_21">
     <g id="line2d_21">
      <g>
       <use xlink:href="#mec6db370c1" x="326.727273" y="512.64" style="stroke: #000000; stroke-width: 0.8"/>
      </g>
     </g>
    </g>
    <g id="xtick_22">
     <g id="line2d_22">
      <g>
       <use xlink:href="#mec6db370c1" x="337.295455" y="512.64" style="stroke: #000000; stroke-width: 0.8"/>
      </g>
     </g>
    </g>
    <g id="xtick_23">
     <g id="line2d_23">
      <g>
       <use xlink:href="#mec6db370c1" x="347.863636" y="512.64" style="stroke: #000000; stroke-width: 0.8"/>
      </g>
     </g>
    </g>
    <g id="xtick_24">
     <g id="line2d_24">
      <g>
       <use xlink:href="#mec6db370c1" x="358.431818" y="512.64" style="stroke: #000000; stroke-width: 0.8"/>
      </g>
     </g>
    </g>
    <g id="xtick_25">
     <g id="line2d_25">
      <g>
       <use xlink:href="#mec6db370c1" x="369" y="512.64" style="stroke: #000000; stroke-width: 0.8"/>
      </g>
     </g>
    </g>
    <g id="xtick_26">
     <g id="line2d_26">
      <g>
       <use xlink:href="#mec6db370c1" x="379.568182" y="512.64" style="stroke: #000000; stroke-width: 0.8"/>
      </g>
     </g>
    </g>
    <g id="xtick_27">
     <g id="line2d_27">
      <g>
       <use xlink:href="#mec6db370c1" x="390.136364" y="512.64" style="stroke: #000000; stroke-width: 0.8"/>
      </g>
     </g>
    </g>
    <g id="xtick_28">
     <g id="line2d_28">
      <g>
       <use xlink:href="#mec6db370c1" x="400.704545" y="512.64" style="stroke: #000000; stroke-width: 0.8"/>
      </g>
     </g>
    </g>
    <g id="xtick_29">
     <g id="line2d_29">
      <g>
       <use xlink:href="#mec6db370c1" x="411.272727" y="512.64" style="stroke: #000000; stroke-width: 0.8"/>
      </g>
     </g>
    </g>
    <g id="xtick_30">
     <g id="line2d_30">
      <g>
       <use xlink:href="#mec6db370c1" x="421.840909" y="512.64" style="stroke: #000000; stroke-width: 0.8"/>
      </g>
     </g>
    </g>
    <g id="xtick_31">
     <g id="line2d_31">
      <g>
       <use xlink:href="#mec6db370c1" x="432.409091" y="512.64" style="stroke: #000000; stroke-width: 0.8"/>
      </g>
     </g>
    </g>
    <g id="xtick_32">
     <g id="line2d_32">
      <g>
       <use xlink:href="#mec6db370c1" x="442.977273" y="512.64" style="stroke: #000000; stroke-width: 0.8"/>
      </g>
     </g>
    </g>
    <g id="xtick_33">
     <g id="line2d_33">
      <g>
       <use xlink:href="#mec6db370c1" x="453.545455" y="512.64" style="stroke: #000000; stroke-width: 0.8"/>
      </g>
     </g>
    </g>
    <g id="xtick_34">
     <g id="line2d_34">
      <g>
       <use xlink:href="#mec6db370c1" x="464.113636" y="512.64" style="stroke: #000000; stroke-width: 0.8"/>
      </g>
     </g>
    </g>
    <g id="xtick_35">
     <g id="line2d_35">
      <g>
       <use xlink:href="#mec6db370c1" x="474.681818" y="512.64" style="stroke: #000000; stroke-width: 0.8"/>
      </g>
     </g>
    </g>
    <g id="xtick_36">
     <g id="line2d_36">
      <g>
       <use xlink:href="#mec6db370c1" x="485.25" y="512.64" style="stroke: #000000; stroke-width: 0.8"/>
      </g>
     </g>
    </g>
    <g id="xtick_37">
     <g id="line2d_37">
      <g>
       <use xlink:href="#mec6db370c1" x="495.818182" y="512.64" style="stroke: #000000; stroke-width: 0.8"/>
      </g>
     </g>
    </g>
    <g id="xtick_38">
     <g id="line2d_38">
      <g>
       <use xlink:href="#mec6db370c1" x="506.386364" y="512.64" style="stroke: #000000; stroke-width: 0.8"/>
      </g>
     </g>
    </g>
    <g id="xtick_39">
     <g id="line2d_39">
      <g>
       <use xlink:href="#mec6db370c1" x="516.954545" y="512.64" style="stroke: #000000; stroke-width: 0.8"/>
      </g>
     </g>
    </g>
    <g id="xtick_40">
     <g id="line2d_40">
      <g>
       <use xlink:href="#mec6db370c1" x="527.522727" y="512.64" style="stroke: #000000; stroke-width: 0.8"/>
      </g>
     </g>
    </g>
    <g id="xtick_41">
     <g id="line2d_41">
      <g>
       <use xlink:href="#mec6db370c1" x="538.090909" y="512.64" style="stroke: #000000; stroke-width: 0.8"/>
      </g>
     </g>
    </g>
    <g id="xtick_42">
     <g id="line2d_42">
      <g>
       <use xlink:href="#mec6db370c1" x="548.659091" y="512.64" style="stroke: #000000; stroke-width: 0.8"/>
      </g>
     </g>
    </g>
    <g id="xtick_43">
     <g id="line2d_43">
      <g>
       <use xlink:href="#mec6db370c1" x="559.227273" y="512.64" style="stroke: #000000; stroke-width: 0.8"/>
      </g>
     </g>
    </g>
    <g id="xtick_44">
     <g id="line2d_44">
      <g>
       <use xlink:href="#mec6db370c1" x="569.795455" y="512.64" style="stroke: #000000; stroke-width: 0.8"/>
      </g>
     </g>
    </g>
    <g id="xtick_45">
     <g id="line2d_45">
      <g>
       <use xlink:href="#mec6db370c1" x="580.363636" y="512.64" style="stroke: #000000; stroke-width: 0.8"/>
      </g>
     </g>
    </g>
    <g id="xtick_46">
     <g id="line2d_46">
      <g>
       <use xlink:href="#mec6db370c1" x="590.931818" y="512.64" style="stroke: #000000; stroke-width: 0.8"/>
      </g>
     </g>
    </g>
    <g id="xtick_47">
     <g id="line2d_47">
      <g>
       <use xlink:href="#mec6db370c1" x="601.5" y="512.64" style="stroke: #000000; stroke-width: 0.8"/>
      </g>
     </g>
    </g>
    <g id="xtick_48">
     <g id="line2d_48">
      <g>
       <use xlink:href="#mec6db370c1" x="612.068182" y="512.64" style="stroke: #000000; stroke-width: 0.8"/>
      </g>
     </g>
    </g>
    <g id="xtick_49">
     <g id="line2d_49">
      <g>
       <use xlink:href="#mec6db370c1" x="622.636364" y="512.64" style="stroke: #000000; stroke-width: 0.8"/>
      </g>
     </g>
    </g>
    <g id="text_1">
     <!-- S&amp;P Companies -->
     <g transform="translate(329.424219 527.738438) scale(0.1 -0.1)">
      <defs>
       <path id="DejaVuSans-53" d="M 3425 4513 
L 3425 3897 
Q 3066 4069 2747 4153 
Q 2428 4238 2131 4238 
Q 1616 4238 1336 4038 
Q 1056 3838 1056 3469 
Q 1056 3159 1242 3001 
Q 1428 2844 1947 2747 
L 2328 2669 
Q 3034 2534 3370 2195 
Q 3706 1856 3706 1288 
Q 3706 609 3251 259 
Q 2797 -91 1919 -91 
Q 1588 -91 1214 -16 
Q 841 59 441 206 
L 441 856 
Q 825 641 1194 531 
Q 1563 422 1919 422 
Q 2459 422 2753 634 
Q 3047 847 3047 1241 
Q 3047 1584 2836 1778 
Q 2625 1972 2144 2069 
L 1759 2144 
Q 1053 2284 737 2584 
Q 422 2884 422 3419 
Q 422 4038 858 4394 
Q 1294 4750 2059 4750 
Q 2388 4750 2728 4690 
Q 3069 4631 3425 4513 
z
" transform="scale(0.015625)"/>
       <path id="DejaVuSans-26" d="M 1556 2509 
Q 1272 2256 1139 2004 
Q 1006 1753 1006 1478 
Q 1006 1022 1337 719 
Q 1669 416 2169 416 
Q 2466 416 2725 514 
Q 2984 613 3213 813 
L 1556 2509 
z
M 1997 2859 
L 3584 1234 
Q 3769 1513 3872 1830 
Q 3975 2147 3994 2503 
L 4575 2503 
Q 4538 2091 4375 1687 
Q 4213 1284 3922 891 
L 4794 0 
L 4006 0 
L 3559 459 
Q 3234 181 2878 45 
Q 2522 -91 2113 -91 
Q 1359 -91 881 339 
Q 403 769 403 1441 
Q 403 1841 612 2192 
Q 822 2544 1241 2853 
Q 1091 3050 1012 3245 
Q 934 3441 934 3628 
Q 934 4134 1281 4442 
Q 1628 4750 2203 4750 
Q 2463 4750 2720 4694 
Q 2978 4638 3244 4525 
L 3244 3956 
Q 2972 4103 2725 4179 
Q 2478 4256 2266 4256 
Q 1938 4256 1733 4082 
Q 1528 3909 1528 3634 
Q 1528 3475 1620 3314 
Q 1713 3153 1997 2859 
z
" transform="scale(0.015625)"/>
       <path id="DejaVuSans-50" d="M 1259 4147 
L 1259 2394 
L 2053 2394 
Q 2494 2394 2734 2622 
Q 2975 2850 2975 3272 
Q 2975 3691 2734 3919 
Q 2494 4147 2053 4147 
L 1259 4147 
z
M 628 4666 
L 2053 4666 
Q 2838 4666 3239 4311 
Q 3641 3956 3641 3272 
Q 3641 2581 3239 2228 
Q 2838 1875 2053 1875 
L 1259 1875 
L 1259 0 
L 628 0 
L 628 4666 
z
" transform="scale(0.015625)"/>
       <path id="DejaVuSans-20" transform="scale(0.015625)"/>
       <path id="DejaVuSans-43" d="M 4122 4306 
L 4122 3641 
Q 3803 3938 3442 4084 
Q 3081 4231 2675 4231 
Q 1875 4231 1450 3742 
Q 1025 3253 1025 2328 
Q 1025 1406 1450 917 
Q 1875 428 2675 428 
Q 3081 428 3442 575 
Q 3803 722 4122 1019 
L 4122 359 
Q 3791 134 3420 21 
Q 3050 -91 2638 -91 
Q 1578 -91 968 557 
Q 359 1206 359 2328 
Q 359 3453 968 4101 
Q 1578 4750 2638 4750 
Q 3056 4750 3426 4639 
Q 3797 4528 4122 4306 
z
" transform="scale(0.015625)"/>
       <path id="DejaVuSans-6f" d="M 1959 3097 
Q 1497 3097 1228 2736 
Q 959 2375 959 1747 
Q 959 1119 1226 758 
Q 1494 397 1959 397 
Q 2419 397 2687 759 
Q 2956 1122 2956 1747 
Q 2956 2369 2687 2733 
Q 2419 3097 1959 3097 
z
M 1959 3584 
Q 2709 3584 3137 3096 
Q 3566 2609 3566 1747 
Q 3566 888 3137 398 
Q 2709 -91 1959 -91 
Q 1206 -91 779 398 
Q 353 888 353 1747 
Q 353 2609 779 3096 
Q 1206 3584 1959 3584 
z
" transform="scale(0.015625)"/>
       <path id="DejaVuSans-6d" d="M 3328 2828 
Q 3544 3216 3844 3400 
Q 4144 3584 4550 3584 
Q 5097 3584 5394 3201 
Q 5691 2819 5691 2113 
L 5691 0 
L 5113 0 
L 5113 2094 
Q 5113 2597 4934 2840 
Q 4756 3084 4391 3084 
Q 3944 3084 3684 2787 
Q 3425 2491 3425 1978 
L 3425 0 
L 2847 0 
L 2847 2094 
Q 2847 2600 2669 2842 
Q 2491 3084 2119 3084 
Q 1678 3084 1418 2786 
Q 1159 2488 1159 1978 
L 1159 0 
L 581 0 
L 581 3500 
L 1159 3500 
L 1159 2956 
Q 1356 3278 1631 3431 
Q 1906 3584 2284 3584 
Q 2666 3584 2933 3390 
Q 3200 3197 3328 2828 
z
" transform="scale(0.015625)"/>
       <path id="DejaVuSans-70" d="M 1159 525 
L 1159 -1331 
L 581 -1331 
L 581 3500 
L 1159 3500 
L 1159 2969 
Q 1341 3281 1617 3432 
Q 1894 3584 2278 3584 
Q 2916 3584 3314 3078 
Q 3713 2572 3713 1747 
Q 3713 922 3314 415 
Q 2916 -91 2278 -91 
Q 1894 -91 1617 61 
Q 1341 213 1159 525 
z
M 3116 1747 
Q 3116 2381 2855 2742 
Q 2594 3103 2138 3103 
Q 1681 3103 1420 2742 
Q 1159 2381 1159 1747 
Q 1159 1113 1420 752 
Q 1681 391 2138 391 
Q 2594 391 2855 752 
Q 3116 1113 3116 1747 
z
" transform="scale(0.015625)"/>
       <path id="DejaVuSans-61" d="M 2194 1759 
Q 1497 1759 1228 1600 
Q 959 1441 959 1056 
Q 959 750 1161 570 
Q 1363 391 1709 391 
Q 2188 391 2477 730 
Q 2766 1069 2766 1631 
L 2766 1759 
L 2194 1759 
z
M 3341 1997 
L 3341 0 
L 2766 0 
L 2766 531 
Q 2569 213 2275 61 
Q 1981 -91 1556 -91 
Q 1019 -91 701 211 
Q 384 513 384 1019 
Q 384 1609 779 1909 
Q 1175 2209 1959 2209 
L 2766 2209 
L 2766 2266 
Q 2766 2663 2505 2880 
Q 2244 3097 1772 3097 
Q 1472 3097 1187 3025 
Q 903 2953 641 2809 
L 641 3341 
Q 956 3463 1253 3523 
Q 1550 3584 1831 3584 
Q 2591 3584 2966 3190 
Q 3341 2797 3341 1997 
z
" transform="scale(0.015625)"/>
       <path id="DejaVuSans-6e" d="M 3513 2113 
L 3513 0 
L 2938 0 
L 2938 2094 
Q 2938 2591 2744 2837 
Q 2550 3084 2163 3084 
Q 1697 3084 1428 2787 
Q 1159 2491 1159 1978 
L 1159 0 
L 581 0 
L 581 3500 
L 1159 3500 
L 1159 2956 
Q 1366 3272 1645 3428 
Q 1925 3584 2291 3584 
Q 2894 3584 3203 3211 
Q 3513 2838 3513 2113 
z
" transform="scale(0.015625)"/>
       <path id="DejaVuSans-69" d="M 603 3500 
L 1178 3500 
L 1178 0 
L 603 0 
L 603 3500 
z
M 603 4863 
L 1178 4863 
L 1178 4134 
L 603 4134 
L 603 4863 
z
" transform="scale(0.015625)"/>
       <path id="DejaVuSans-65" d="M 3597 1894 
L 3597 1613 
L 953 1613 
Q 991 1019 1311 708 
Q 1631 397 2203 397 
Q 2534 397 2845 478 
Q 3156 559 3463 722 
L 3463 178 
Q 3153 47 2828 -22 
Q 2503 -91 2169 -91 
Q 1331 -91 842 396 
Q 353 884 353 1716 
Q 353 2575 817 3079 
Q 1281 3584 2069 3584 
Q 2775 3584 3186 3129 
Q 3597 2675 3597 1894 
z
M 3022 2063 
Q 3016 2534 2758 2815 
Q 2500 3097 2075 3097 
Q 1594 3097 1305 2825 
Q 1016 2553 972 2059 
L 3022 2063 
z
" transform="scale(0.015625)"/>
       <path id="DejaVuSans-73" d="M 2834 3397 
L 2834 2853 
Q 2591 2978 2328 3040 
Q 2066 3103 1784 3103 
Q 1356 3103 1142 2972 
Q 928 2841 928 2578 
Q 928 2378 1081 2264 
Q 1234 2150 1697 2047 
L 1894 2003 
Q 2506 1872 2764 1633 
Q 3022 1394 3022 966 
Q 3022 478 2636 193 
Q 2250 -91 1575 -91 
Q 1294 -91 989 -36 
Q 684 19 347 128 
L 347 722 
Q 666 556 975 473 
Q 1284 391 1588 391 
Q 1994 391 2212 530 
Q 2431 669 2431 922 
Q 2431 1156 2273 1281 
Q 2116 1406 1581 1522 
L 1381 1569 
Q 847 1681 609 1914 
Q 372 2147 372 2553 
Q 372 3047 722 3315 
Q 1072 3584 1716 3584 
Q 2034 3584 2315 3537 
Q 2597 3491 2834 3397 
z
" transform="scale(0.015625)"/>
      </defs>
      <use xlink:href="#DejaVuSans-53"/>
      <use xlink:href="#DejaVuSans-26" x="63.476562"/>
      <use xlink:href="#DejaVuSans-50" x="141.455078"/>
      <use xlink:href="#DejaVuSans-20" x="201.757812"/>
      <use xlink:href="#DejaVuSans-43" x="233.544922"/>
      <use xlink:href="#DejaVuSans-6f" x="303.369141"/>
      <use xlink:href="#DejaVuSans-6d" x="364.550781"/>
      <use xlink:href="#DejaVuSans-70" x="461.962891"/>
      <use xlink:href="#DejaVuSans-61" x="525.439453"/>
      <use xlink:href="#DejaVuSans-6e" x="586.71875"/>
      <use xlink:href="#DejaVuSans-69" x="650.097656"/>
      <use xlink:href="#DejaVuSans-65" x="677.880859"/>
      <use xlink:href="#DejaVuSans-73" x="739.404297"/>
     </g>
    </g>
   </g>
   <g id="matplotlib.axis_2">
    <g id="ytick_1">
     <g id="line2d_50">
      <defs>
       <path id="mc82d85683a" d="M 0 0 
L -3.5 0 
" style="stroke: #000000; stroke-width: 0.8"/>
      </defs>
      <g>
       <use xlink:href="#mc82d85683a" x="90" y="501.97559" style="stroke: #000000; stroke-width: 0.8"/>
      </g>
     </g>
     <g id="text_2">
      <!-- 0 -->
      <g transform="translate(76.6375 505.774809) scale(0.1 -0.1)">
       <defs>
        <path id="DejaVuSans-30" d="M 2034 4250 
Q 1547 4250 1301 3770 
Q 1056 3291 1056 2328 
Q 1056 1369 1301 889 
Q 1547 409 2034 409 
Q 2525 409 2770 889 
Q 3016 1369 3016 2328 
Q 3016 3291 2770 3770 
Q 2525 4250 2034 4250 
z
M 2034 4750 
Q 2819 4750 3233 4129 
Q 3647 3509 3647 2328 
Q 3647 1150 3233 529 
Q 2819 -91 2034 -91 
Q 1250 -91 836 529 
Q 422 1150 422 2328 
Q 422 3509 836 4129 
Q 1250 4750 2034 4750 
z
" transform="scale(0.015625)"/>
       </defs>
       <use xlink:href="#DejaVuSans-30"/>
      </g>
     </g>
    </g>
    <g id="ytick_2">
     <g id="line2d_51">
      <g>
       <use xlink:href="#mc82d85683a" x="90" y="416.660313" style="stroke: #000000; stroke-width: 0.8"/>
      </g>
     </g>
     <g id="text_3">
      <!-- 100 -->
      <g transform="translate(63.9125 420.459532) scale(0.1 -0.1)">
       <defs>
        <path id="DejaVuSans-31" d="M 794 531 
L 1825 531 
L 1825 4091 
L 703 3866 
L 703 4441 
L 1819 4666 
L 2450 4666 
L 2450 531 
L 3481 531 
L 3481 0 
L 794 0 
L 794 531 
z
" transform="scale(0.015625)"/>
       </defs>
       <use xlink:href="#DejaVuSans-31"/>
       <use xlink:href="#DejaVuSans-30" x="63.623047"/>
       <use xlink:href="#DejaVuSans-30" x="127.246094"/>
      </g>
     </g>
    </g>
    <g id="ytick_3">
     <g id="line2d_52">
      <g>
       <use xlink:href="#mc82d85683a" x="90" y="331.345036" style="stroke: #000000; stroke-width: 0.8"/>
      </g>
     </g>
     <g id="text_4">
      <!-- 200 -->
      <g transform="translate(63.9125 335.144255) scale(0.1 -0.1)">
       <defs>
        <path id="DejaVuSans-32" d="M 1228 531 
L 3431 531 
L 3431 0 
L 469 0 
L 469 531 
Q 828 903 1448 1529 
Q 2069 2156 2228 2338 
Q 2531 2678 2651 2914 
Q 2772 3150 2772 3378 
Q 2772 3750 2511 3984 
Q 2250 4219 1831 4219 
Q 1534 4219 1204 4116 
Q 875 4013 500 3803 
L 500 4441 
Q 881 4594 1212 4672 
Q 1544 4750 1819 4750 
Q 2544 4750 2975 4387 
Q 3406 4025 3406 3419 
Q 3406 3131 3298 2873 
Q 3191 2616 2906 2266 
Q 2828 2175 2409 1742 
Q 1991 1309 1228 531 
z
" transform="scale(0.015625)"/>
       </defs>
       <use xlink:href="#DejaVuSans-32"/>
       <use xlink:href="#DejaVuSans-30" x="63.623047"/>
       <use xlink:href="#DejaVuSans-30" x="127.246094"/>
      </g>
     </g>
    </g>
    <g id="ytick_4">
     <g id="line2d_53">
      <g>
       <use xlink:href="#mc82d85683a" x="90" y="246.029759" style="stroke: #000000; stroke-width: 0.8"/>
      </g>
     </g>
     <g id="text_5">
      <!-- 300 -->
      <g transform="translate(63.9125 249.828978) scale(0.1 -0.1)">
       <defs>
        <path id="DejaVuSans-33" d="M 2597 2516 
Q 3050 2419 3304 2112 
Q 3559 1806 3559 1356 
Q 3559 666 3084 287 
Q 2609 -91 1734 -91 
Q 1441 -91 1130 -33 
Q 819 25 488 141 
L 488 750 
Q 750 597 1062 519 
Q 1375 441 1716 441 
Q 2309 441 2620 675 
Q 2931 909 2931 1356 
Q 2931 1769 2642 2001 
Q 2353 2234 1838 2234 
L 1294 2234 
L 1294 2753 
L 1863 2753 
Q 2328 2753 2575 2939 
Q 2822 3125 2822 3475 
Q 2822 3834 2567 4026 
Q 2313 4219 1838 4219 
Q 1578 4219 1281 4162 
Q 984 4106 628 3988 
L 628 4550 
Q 988 4650 1302 4700 
Q 1616 4750 1894 4750 
Q 2613 4750 3031 4423 
Q 3450 4097 3450 3541 
Q 3450 3153 3228 2886 
Q 3006 2619 2597 2516 
z
" transform="scale(0.015625)"/>
       </defs>
       <use xlink:href="#DejaVuSans-33"/>
       <use xlink:href="#DejaVuSans-30" x="63.623047"/>
       <use xlink:href="#DejaVuSans-30" x="127.246094"/>
      </g>
     </g>
    </g>
    <g id="ytick_5">
     <g id="line2d_54">
      <g>
       <use xlink:href="#mc82d85683a" x="90" y="160.714482" style="stroke: #000000; stroke-width: 0.8"/>
      </g>
     </g>
     <g id="text_6">
      <!-- 400 -->
      <g transform="translate(63.9125 164.5137) scale(0.1 -0.1)">
       <defs>
        <path id="DejaVuSans-34" d="M 2419 4116 
L 825 1625 
L 2419 1625 
L 2419 4116 
z
M 2253 4666 
L 3047 4666 
L 3047 1625 
L 3713 1625 
L 3713 1100 
L 3047 1100 
L 3047 0 
L 2419 0 
L 2419 1100 
L 313 1100 
L 313 1709 
L 2253 4666 
z
" transform="scale(0.015625)"/>
       </defs>
       <use xlink:href="#DejaVuSans-34"/>
       <use xlink:href="#DejaVuSans-30" x="63.623047"/>
       <use xlink:href="#DejaVuSans-30" x="127.246094"/>
      </g>
     </g>
    </g>
    <g id="ytick_6">
     <g id="line2d_55">
      <g>
       <use xlink:href="#mc82d85683a" x="90" y="75.399204" style="stroke: #000000; stroke-width: 0.8"/>
      </g>
     </g>
     <g id="text_7">
      <!-- 500 -->
      <g transform="translate(63.9125 79.198423) scale(0.1 -0.1)">
       <defs>
        <path id="DejaVuSans-35" d="M 691 4666 
L 3169 4666 
L 3169 4134 
L 1269 4134 
L 1269 2991 
Q 1406 3038 1543 3061 
Q 1681 3084 1819 3084 
Q 2600 3084 3056 2656 
Q 3513 2228 3513 1497 
Q 3513 744 3044 326 
Q 2575 -91 1722 -91 
Q 1428 -91 1123 -41 
Q 819 9 494 109 
L 494 744 
Q 775 591 1075 516 
Q 1375 441 1709 441 
Q 2250 441 2565 725 
Q 2881 1009 2881 1497 
Q 2881 1984 2565 2268 
Q 2250 2553 1709 2553 
Q 1456 2553 1204 2497 
Q 953 2441 691 2322 
L 691 4666 
z
" transform="scale(0.015625)"/>
       </defs>
       <use xlink:href="#DejaVuSans-35"/>
       <use xlink:href="#DejaVuSans-30" x="63.623047"/>
       <use xlink:href="#DejaVuSans-30" x="127.246094"/>
      </g>
     </g>
    </g>
    <g id="text_8">
     <!-- Stock Price -->
     <g transform="translate(57.832812 318.505) rotate(-90) scale(0.1 -0.1)">
      <defs>
       <path id="DejaVuSans-74" d="M 1172 4494 
L 1172 3500 
L 2356 3500 
L 2356 3053 
L 1172 3053 
L 1172 1153 
Q 1172 725 1289 603 
Q 1406 481 1766 481 
L 2356 481 
L 2356 0 
L 1766 0 
Q 1100 0 847 248 
Q 594 497 594 1153 
L 594 3053 
L 172 3053 
L 172 3500 
L 594 3500 
L 594 4494 
L 1172 4494 
z
" transform="scale(0.015625)"/>
       <path id="DejaVuSans-63" d="M 3122 3366 
L 3122 2828 
Q 2878 2963 2633 3030 
Q 2388 3097 2138 3097 
Q 1578 3097 1268 2742 
Q 959 2388 959 1747 
Q 959 1106 1268 751 
Q 1578 397 2138 397 
Q 2388 397 2633 464 
Q 2878 531 3122 666 
L 3122 134 
Q 2881 22 2623 -34 
Q 2366 -91 2075 -91 
Q 1284 -91 818 406 
Q 353 903 353 1747 
Q 353 2603 823 3093 
Q 1294 3584 2113 3584 
Q 2378 3584 2631 3529 
Q 2884 3475 3122 3366 
z
" transform="scale(0.015625)"/>
       <path id="DejaVuSans-6b" d="M 581 4863 
L 1159 4863 
L 1159 1991 
L 2875 3500 
L 3609 3500 
L 1753 1863 
L 3688 0 
L 2938 0 
L 1159 1709 
L 1159 0 
L 581 0 
L 581 4863 
z
" transform="scale(0.015625)"/>
       <path id="DejaVuSans-72" d="M 2631 2963 
Q 2534 3019 2420 3045 
Q 2306 3072 2169 3072 
Q 1681 3072 1420 2755 
Q 1159 2438 1159 1844 
L 1159 0 
L 581 0 
L 581 3500 
L 1159 3500 
L 1159 2956 
Q 1341 3275 1631 3429 
Q 1922 3584 2338 3584 
Q 2397 3584 2469 3576 
Q 2541 3569 2628 3553 
L 2631 2963 
z
" transform="scale(0.015625)"/>
      </defs>
      <use xlink:href="#DejaVuSans-53"/>
      <use xlink:href="#DejaVuSans-74" x="63.476562"/>
      <use xlink:href="#DejaVuSans-6f" x="102.685547"/>
      <use xlink:href="#DejaVuSans-63" x="163.867188"/>
      <use xlink:href="#DejaVuSans-6b" x="218.847656"/>
      <use xlink:href="#DejaVuSans-20" x="276.757812"/>
      <use xlink:href="#DejaVuSans-50" x="308.544922"/>
      <use xlink:href="#DejaVuSans-72" x="367.097656"/>
      <use xlink:href="#DejaVuSans-69" x="408.210938"/>
      <use xlink:href="#DejaVuSans-63" x="435.994141"/>
      <use xlink:href="#DejaVuSans-65" x="490.974609"/>
     </g>
    </g>
   </g>
   <g id="patch_3">
    <path d="M 90 512.64 
L 90 69.12 
" style="fill: none; stroke: #000000; stroke-width: 0.8; stroke-linejoin: miter; stroke-linecap: square"/>
   </g>
   <g id="patch_4">
    <path d="M 648 512.64 
L 648 69.12 
" style="fill: none; stroke: #000000; stroke-width: 0.8; stroke-linejoin: miter; stroke-linecap: square"/>
   </g>
   <g id="patch_5">
    <path d="M 90 512.64 
L 648 512.64 
" style="fill: none; stroke: #000000; stroke-width: 0.8; stroke-linejoin: miter; stroke-linecap: square"/>
   </g>
   <g id="patch_6">
    <path d="M 90 69.12 
L 648 69.12 
" style="fill: none; stroke: #000000; stroke-width: 0.8; stroke-linejoin: miter; stroke-linecap: square"/>
   </g>
   <g id="text_9">
    <!-- MMM -->
    <g transform="translate(115.363636 411.183072) scale(0.05 -0.05)">
     <defs>
      <path id="DejaVuSans-4d" d="M 628 4666 
L 1569 4666 
L 2759 1491 
L 3956 4666 
L 4897 4666 
L 4897 0 
L 4281 0 
L 4281 4097 
L 3078 897 
L 2444 897 
L 1241 4097 
L 1241 0 
L 628 0 
L 628 4666 
z
" transform="scale(0.015625)"/>
     </defs>
     <use xlink:href="#DejaVuSans-4d"/>
     <use xlink:href="#DejaVuSans-4d" x="86.279297"/>
     <use xlink:href="#DejaVuSans-4d" x="172.558594"/>
    </g>
   </g>
   <g id="text_10">
    <!-- AOS -->
    <g transform="translate(125.931818 443.611409) scale(0.05 -0.05)">
     <defs>
      <path id="DejaVuSans-41" d="M 2188 4044 
L 1331 1722 
L 3047 1722 
L 2188 4044 
z
M 1831 4666 
L 2547 4666 
L 4325 0 
L 3669 0 
L 3244 1197 
L 1141 1197 
L 716 0 
L 50 0 
L 1831 4666 
z
" transform="scale(0.015625)"/>
      <path id="DejaVuSans-4f" d="M 2522 4238 
Q 1834 4238 1429 3725 
Q 1025 3213 1025 2328 
Q 1025 1447 1429 934 
Q 1834 422 2522 422 
Q 3209 422 3611 934 
Q 4013 1447 4013 2328 
Q 4013 3213 3611 3725 
Q 3209 4238 2522 4238 
z
M 2522 4750 
Q 3503 4750 4090 4092 
Q 4678 3434 4678 2328 
Q 4678 1225 4090 567 
Q 3503 -91 2522 -91 
Q 1538 -91 948 565 
Q 359 1222 359 2328 
Q 359 3434 948 4092 
Q 1538 4750 2522 4750 
z
" transform="scale(0.015625)"/>
     </defs>
     <use xlink:href="#DejaVuSans-41"/>
     <use xlink:href="#DejaVuSans-4f" x="66.658203"/>
     <use xlink:href="#DejaVuSans-53" x="145.369141"/>
    </g>
   </g>
   <g id="text_11">
    <!-- ABT -->
    <g transform="translate(136.5 413.094135) scale(0.05 -0.05)">
     <defs>
      <path id="DejaVuSans-42" d="M 1259 2228 
L 1259 519 
L 2272 519 
Q 2781 519 3026 730 
Q 3272 941 3272 1375 
Q 3272 1813 3026 2020 
Q 2781 2228 2272 2228 
L 1259 2228 
z
M 1259 4147 
L 1259 2741 
L 2194 2741 
Q 2656 2741 2882 2914 
Q 3109 3088 3109 3444 
Q 3109 3797 2882 3972 
Q 2656 4147 2194 4147 
L 1259 4147 
z
M 628 4666 
L 2241 4666 
Q 2963 4666 3353 4366 
Q 3744 4066 3744 3513 
Q 3744 3084 3544 2831 
Q 3344 2578 2956 2516 
Q 3422 2416 3680 2098 
Q 3938 1781 3938 1306 
Q 3938 681 3513 340 
Q 3088 0 2303 0 
L 628 0 
L 628 4666 
z
" transform="scale(0.015625)"/>
      <path id="DejaVuSans-54" d="M -19 4666 
L 3928 4666 
L 3928 4134 
L 2272 4134 
L 2272 0 
L 1638 0 
L 1638 4134 
L -19 4134 
L -19 4666 
z
" transform="scale(0.015625)"/>
     </defs>
     <use xlink:href="#DejaVuSans-41"/>
     <use xlink:href="#DejaVuSans-42" x="68.408203"/>
     <use xlink:href="#DejaVuSans-54" x="137.011719"/>
    </g>
   </g>
   <g id="text_12">
    <!-- ABBV -->
    <g transform="translate(147.068182 365.795345) scale(0.05 -0.05)">
     <defs>
      <path id="DejaVuSans-56" d="M 1831 0 
L 50 4666 
L 709 4666 
L 2188 738 
L 3669 4666 
L 4325 4666 
L 2547 0 
L 1831 0 
z
" transform="scale(0.015625)"/>
     </defs>
     <use xlink:href="#DejaVuSans-41"/>
     <use xlink:href="#DejaVuSans-42" x="68.408203"/>
     <use xlink:href="#DejaVuSans-42" x="137.011719"/>
     <use xlink:href="#DejaVuSans-56" x="202.490234"/>
    </g>
   </g>
   <g id="text_13">
    <!-- ACN -->
    <g transform="translate(157.636364 263.271976) scale(0.05 -0.05)">
     <defs>
      <path id="DejaVuSans-4e" d="M 628 4666 
L 1478 4666 
L 3547 763 
L 3547 4666 
L 4159 4666 
L 4159 0 
L 3309 0 
L 1241 3903 
L 1241 0 
L 628 0 
L 628 4666 
z
" transform="scale(0.015625)"/>
     </defs>
     <use xlink:href="#DejaVuSans-41"/>
     <use xlink:href="#DejaVuSans-43" x="66.658203"/>
     <use xlink:href="#DejaVuSans-4e" x="136.482422"/>
    </g>
   </g>
   <g id="text_14">
    <!-- ATVI -->
    <g transform="translate(168.204545 428.996902) scale(0.05 -0.05)">
     <defs>
      <path id="DejaVuSans-49" d="M 628 4666 
L 1259 4666 
L 1259 0 
L 628 0 
L 628 4666 
z
" transform="scale(0.015625)"/>
     </defs>
     <use xlink:href="#DejaVuSans-41"/>
     <use xlink:href="#DejaVuSans-54" x="60.658203"/>
     <use xlink:href="#DejaVuSans-56" x="121.742188"/>
     <use xlink:href="#DejaVuSans-49" x="190.150391"/>
    </g>
   </g>
   <g id="text_15">
    <!-- ADBE -->
    <g transform="translate(178.772727 180.021329) scale(0.05 -0.05)">
     <defs>
      <path id="DejaVuSans-44" d="M 1259 4147 
L 1259 519 
L 2022 519 
Q 2988 519 3436 956 
Q 3884 1394 3884 2338 
Q 3884 3275 3436 3711 
Q 2988 4147 2022 4147 
L 1259 4147 
z
M 628 4666 
L 1925 4666 
Q 3281 4666 3915 4102 
Q 4550 3538 4550 2338 
Q 4550 1131 3912 565 
Q 3275 0 1925 0 
L 628 0 
L 628 4666 
z
" transform="scale(0.015625)"/>
      <path id="DejaVuSans-45" d="M 628 4666 
L 3578 4666 
L 3578 4134 
L 1259 4134 
L 1259 2753 
L 3481 2753 
L 3481 2222 
L 1259 2222 
L 1259 531 
L 3634 531 
L 3634 0 
L 628 0 
L 628 4666 
z
" transform="scale(0.015625)"/>
     </defs>
     <use xlink:href="#DejaVuSans-41"/>
     <use xlink:href="#DejaVuSans-44" x="68.408203"/>
     <use xlink:href="#DejaVuSans-42" x="145.410156"/>
     <use xlink:href="#DejaVuSans-45" x="214.013672"/>
    </g>
   </g>
   <g id="text_16">
    <!-- AAP -->
    <g transform="translate(189.340909 393.215675) scale(0.05 -0.05)">
     <use xlink:href="#DejaVuSans-41"/>
     <use xlink:href="#DejaVuSans-41" x="71.158203"/>
     <use xlink:href="#DejaVuSans-50" x="139.566406"/>
    </g>
   </g>
   <g id="text_17">
    <!-- AES -->
    <g transform="translate(199.909091 481.218383) scale(0.05 -0.05)">
     <use xlink:href="#DejaVuSans-41"/>
     <use xlink:href="#DejaVuSans-45" x="68.408203"/>
     <use xlink:href="#DejaVuSans-53" x="131.591797"/>
    </g>
   </g>
   <g id="text_18">
    <!-- AFL -->
    <g transform="translate(210.477273 444.874075) scale(0.05 -0.05)">
     <defs>
      <path id="DejaVuSans-46" d="M 628 4666 
L 3309 4666 
L 3309 4134 
L 1259 4134 
L 1259 2759 
L 3109 2759 
L 3109 2228 
L 1259 2228 
L 1259 0 
L 628 0 
L 628 4666 
z
" transform="scale(0.015625)"/>
      <path id="DejaVuSans-4c" d="M 628 4666 
L 1259 4666 
L 1259 531 
L 3531 531 
L 3531 0 
L 628 0 
L 628 4666 
z
" transform="scale(0.015625)"/>
     </defs>
     <use xlink:href="#DejaVuSans-41"/>
     <use xlink:href="#DejaVuSans-46" x="68.408203"/>
     <use xlink:href="#DejaVuSans-4c" x="125.927734"/>
    </g>
   </g>
   <g id="text_19">
    <!-- A -->
    <g transform="translate(221.045455 383.336166) scale(0.05 -0.05)">
     <use xlink:href="#DejaVuSans-41"/>
    </g>
   </g>
   <g id="text_20">
    <!-- APD -->
    <g transform="translate(231.613636 256.805078) scale(0.05 -0.05)">
     <use xlink:href="#DejaVuSans-41"/>
     <use xlink:href="#DejaVuSans-50" x="68.408203"/>
     <use xlink:href="#DejaVuSans-44" x="128.710938"/>
    </g>
   </g>
   <g id="text_21">
    <!-- AKAM -->
    <g transform="translate(242.181818 431.428388) scale(0.05 -0.05)">
     <defs>
      <path id="DejaVuSans-4b" d="M 628 4666 
L 1259 4666 
L 1259 2694 
L 3353 4666 
L 4166 4666 
L 1850 2491 
L 4331 0 
L 3500 0 
L 1259 2247 
L 1259 0 
L 628 0 
L 628 4666 
z
" transform="scale(0.015625)"/>
     </defs>
     <use xlink:href="#DejaVuSans-41"/>
     <use xlink:href="#DejaVuSans-4b" x="68.408203"/>
     <use xlink:href="#DejaVuSans-41" x="132.234375"/>
     <use xlink:href="#DejaVuSans-4d" x="200.642578"/>
    </g>
   </g>
   <g id="text_22">
    <!-- ALK -->
    <g transform="translate(252.75 465.708066) scale(0.05 -0.05)">
     <use xlink:href="#DejaVuSans-41"/>
     <use xlink:href="#DejaVuSans-4c" x="68.408203"/>
     <use xlink:href="#DejaVuSans-4b" x="124.121094"/>
    </g>
   </g>
   <g id="text_23">
    <!-- ALB -->
    <g transform="translate(263.318182 326.644164) scale(0.05 -0.05)">
     <use xlink:href="#DejaVuSans-41"/>
     <use xlink:href="#DejaVuSans-4c" x="68.408203"/>
     <use xlink:href="#DejaVuSans-42" x="124.121094"/>
    </g>
   </g>
   <g id="text_24">
    <!-- ARE -->
    <g transform="translate(273.886364 396.636818) scale(0.05 -0.05)">
     <defs>
      <path id="DejaVuSans-52" d="M 2841 2188 
Q 3044 2119 3236 1894 
Q 3428 1669 3622 1275 
L 4263 0 
L 3584 0 
L 2988 1197 
Q 2756 1666 2539 1819 
Q 2322 1972 1947 1972 
L 1259 1972 
L 1259 0 
L 628 0 
L 628 4666 
L 2053 4666 
Q 2853 4666 3247 4331 
Q 3641 3997 3641 3322 
Q 3641 2881 3436 2590 
Q 3231 2300 2841 2188 
z
M 1259 4147 
L 1259 2491 
L 2053 2491 
Q 2509 2491 2742 2702 
Q 2975 2913 2975 3322 
Q 2975 3731 2742 3939 
Q 2509 4147 2053 4147 
L 1259 4147 
z
" transform="scale(0.015625)"/>
     </defs>
     <use xlink:href="#DejaVuSans-41"/>
     <use xlink:href="#DejaVuSans-52" x="68.408203"/>
     <use xlink:href="#DejaVuSans-45" x="137.890625"/>
    </g>
   </g>
   <g id="text_25">
    <!-- ALGN -->
    <g transform="translate(284.454545 204.890732) scale(0.05 -0.05)">
     <defs>
      <path id="DejaVuSans-47" d="M 3809 666 
L 3809 1919 
L 2778 1919 
L 2778 2438 
L 4434 2438 
L 4434 434 
Q 4069 175 3628 42 
Q 3188 -91 2688 -91 
Q 1594 -91 976 548 
Q 359 1188 359 2328 
Q 359 3472 976 4111 
Q 1594 4750 2688 4750 
Q 3144 4750 3555 4637 
Q 3966 4525 4313 4306 
L 4313 3634 
Q 3963 3931 3569 4081 
Q 3175 4231 2741 4231 
Q 1884 4231 1454 3753 
Q 1025 3275 1025 2328 
Q 1025 1384 1454 906 
Q 1884 428 2741 428 
Q 3075 428 3337 486 
Q 3600 544 3809 666 
z
" transform="scale(0.015625)"/>
     </defs>
     <use xlink:href="#DejaVuSans-41"/>
     <use xlink:href="#DejaVuSans-4c" x="68.408203"/>
     <use xlink:href="#DejaVuSans-47" x="124.121094"/>
     <use xlink:href="#DejaVuSans-4e" x="201.611328"/>
    </g>
   </g>
   <g id="text_26">
    <!-- ALLE -->
    <g transform="translate(295.022727 413.119729) scale(0.05 -0.05)">
     <use xlink:href="#DejaVuSans-41"/>
     <use xlink:href="#DejaVuSans-4c" x="68.408203"/>
     <use xlink:href="#DejaVuSans-4c" x="124.121094"/>
     <use xlink:href="#DejaVuSans-45" x="179.833984"/>
    </g>
   </g>
   <g id="text_27">
    <!-- LNT -->
    <g transform="translate(305.590909 455.615269) scale(0.05 -0.05)">
     <use xlink:href="#DejaVuSans-4c"/>
     <use xlink:href="#DejaVuSans-4e" x="55.712891"/>
     <use xlink:href="#DejaVuSans-54" x="130.517578"/>
    </g>
   </g>
   <g id="text_28">
    <!-- ALL -->
    <g transform="translate(316.159091 404.792958) scale(0.05 -0.05)">
     <use xlink:href="#DejaVuSans-41"/>
     <use xlink:href="#DejaVuSans-4c" x="68.408203"/>
     <use xlink:href="#DejaVuSans-4c" x="124.121094"/>
    </g>
   </g>
   <g id="text_29">
    <!-- GOOGL -->
    <g transform="translate(326.727273 412.906441) scale(0.05 -0.05)">
     <use xlink:href="#DejaVuSans-47"/>
     <use xlink:href="#DejaVuSans-4f" x="77.490234"/>
     <use xlink:href="#DejaVuSans-4f" x="156.201172"/>
     <use xlink:href="#DejaVuSans-47" x="234.912109"/>
     <use xlink:href="#DejaVuSans-4c" x="312.402344"/>
    </g>
   </g>
   <g id="text_30">
    <!-- GOOG -->
    <g transform="translate(337.295455 412.292171) scale(0.05 -0.05)">
     <use xlink:href="#DejaVuSans-47"/>
     <use xlink:href="#DejaVuSans-4f" x="77.490234"/>
     <use xlink:href="#DejaVuSans-4f" x="156.201172"/>
     <use xlink:href="#DejaVuSans-47" x="234.912109"/>
    </g>
   </g>
   <g id="text_31">
    <!-- MO -->
    <g transform="translate(347.863636 462.653779) scale(0.05 -0.05)">
     <use xlink:href="#DejaVuSans-4d"/>
     <use xlink:href="#DejaVuSans-4f" x="86.279297"/>
    </g>
   </g>
   <g id="text_32">
    <!-- AMZN -->
    <g transform="translate(358.431818 414.885755) scale(0.05 -0.05)">
     <defs>
      <path id="DejaVuSans-5a" d="M 359 4666 
L 4025 4666 
L 4025 4184 
L 1075 531 
L 4097 531 
L 4097 0 
L 288 0 
L 288 481 
L 3238 4134 
L 359 4134 
L 359 4666 
z
" transform="scale(0.015625)"/>
     </defs>
     <use xlink:href="#DejaVuSans-41"/>
     <use xlink:href="#DejaVuSans-4d" x="68.408203"/>
     <use xlink:href="#DejaVuSans-5a" x="154.6875"/>
     <use xlink:href="#DejaVuSans-4e" x="223.193359"/>
    </g>
   </g>
   <g id="text_33">
    <!-- AMCR -->
    <g transform="translate(369 492.48) scale(0.05 -0.05)">
     <use xlink:href="#DejaVuSans-41"/>
     <use xlink:href="#DejaVuSans-4d" x="68.408203"/>
     <use xlink:href="#DejaVuSans-43" x="154.6875"/>
     <use xlink:href="#DejaVuSans-52" x="224.511719"/>
    </g>
   </g>
   <g id="text_34">
    <!-- AMD -->
    <g transform="translate(379.568182 425.166246) scale(0.05 -0.05)">
     <use xlink:href="#DejaVuSans-41"/>
     <use xlink:href="#DejaVuSans-4d" x="68.408203"/>
     <use xlink:href="#DejaVuSans-44" x="154.6875"/>
    </g>
   </g>
   <g id="text_35">
    <!-- AEE -->
    <g transform="translate(390.136364 426.394786) scale(0.05 -0.05)">
     <use xlink:href="#DejaVuSans-41"/>
     <use xlink:href="#DejaVuSans-45" x="68.408203"/>
     <use xlink:href="#DejaVuSans-45" x="131.591797"/>
    </g>
   </g>
   <g id="text_36">
    <!-- AAL -->
    <g transform="translate(400.704545 490.654253) scale(0.05 -0.05)">
     <use xlink:href="#DejaVuSans-41"/>
     <use xlink:href="#DejaVuSans-41" x="71.158203"/>
     <use xlink:href="#DejaVuSans-4c" x="139.566406"/>
    </g>
   </g>
   <g id="text_37">
    <!-- AEP -->
    <g transform="translate(411.272727 423.135743) scale(0.05 -0.05)">
     <use xlink:href="#DejaVuSans-41"/>
     <use xlink:href="#DejaVuSans-45" x="68.408203"/>
     <use xlink:href="#DejaVuSans-50" x="131.591797"/>
    </g>
   </g>
   <g id="text_38">
    <!-- AXP -->
    <g transform="translate(421.840909 361.367482) scale(0.05 -0.05)">
     <defs>
      <path id="DejaVuSans-58" d="M 403 4666 
L 1081 4666 
L 2241 2931 
L 3406 4666 
L 4084 4666 
L 2584 2425 
L 4184 0 
L 3506 0 
L 2194 1984 
L 872 0 
L 191 0 
L 1856 2491 
L 403 4666 
z
" transform="scale(0.015625)"/>
     </defs>
     <use xlink:href="#DejaVuSans-41"/>
     <use xlink:href="#DejaVuSans-58" x="68.408203"/>
     <use xlink:href="#DejaVuSans-50" x="136.914062"/>
    </g>
   </g>
   <g id="text_39">
    <!-- AIG -->
    <g transform="translate(432.409091 457.261854) scale(0.05 -0.05)">
     <use xlink:href="#DejaVuSans-41"/>
     <use xlink:href="#DejaVuSans-49" x="68.408203"/>
     <use xlink:href="#DejaVuSans-47" x="97.900391"/>
    </g>
   </g>
   <g id="text_40">
    <!-- AMT -->
    <g transform="translate(442.977273 324.912264) scale(0.05 -0.05)">
     <use xlink:href="#DejaVuSans-41"/>
     <use xlink:href="#DejaVuSans-4d" x="68.408203"/>
     <use xlink:href="#DejaVuSans-54" x="154.6875"/>
    </g>
   </g>
   <g id="text_41">
    <!-- AWK -->
    <g transform="translate(453.545455 375.649259) scale(0.05 -0.05)">
     <defs>
      <path id="DejaVuSans-57" d="M 213 4666 
L 850 4666 
L 1831 722 
L 2809 4666 
L 3519 4666 
L 4500 722 
L 5478 4666 
L 6119 4666 
L 4947 0 
L 4153 0 
L 3169 4050 
L 2175 0 
L 1381 0 
L 213 4666 
z
" transform="scale(0.015625)"/>
     </defs>
     <use xlink:href="#DejaVuSans-41"/>
     <use xlink:href="#DejaVuSans-57" x="62.908203"/>
     <use xlink:href="#DejaVuSans-4b" x="161.785156"/>
    </g>
   </g>
   <g id="text_42">
    <!-- AMP -->
    <g transform="translate(464.113636 233.394566) scale(0.05 -0.05)">
     <use xlink:href="#DejaVuSans-41"/>
     <use xlink:href="#DejaVuSans-4d" x="68.408203"/>
     <use xlink:href="#DejaVuSans-50" x="154.6875"/>
    </g>
   </g>
   <g id="text_43">
    <!-- ABC -->
    <g transform="translate(474.681818 359.601456) scale(0.05 -0.05)">
     <use xlink:href="#DejaVuSans-41"/>
     <use xlink:href="#DejaVuSans-42" x="68.408203"/>
     <use xlink:href="#DejaVuSans-43" x="135.261719"/>
    </g>
   </g>
   <g id="text_44">
    <!-- AME -->
    <g transform="translate(485.25 383.267914) scale(0.05 -0.05)">
     <use xlink:href="#DejaVuSans-41"/>
     <use xlink:href="#DejaVuSans-4d" x="68.408203"/>
     <use xlink:href="#DejaVuSans-45" x="154.6875"/>
    </g>
   </g>
   <g id="text_45">
    <!-- AMGN -->
    <g transform="translate(495.818182 291.528396) scale(0.05 -0.05)">
     <use xlink:href="#DejaVuSans-41"/>
     <use xlink:href="#DejaVuSans-4d" x="68.408203"/>
     <use xlink:href="#DejaVuSans-47" x="154.6875"/>
     <use xlink:href="#DejaVuSans-4e" x="232.177734"/>
    </g>
   </g>
   <g id="text_46">
    <!-- APH -->
    <g transform="translate(506.386364 435.241981) scale(0.05 -0.05)">
     <defs>
      <path id="DejaVuSans-48" d="M 628 4666 
L 1259 4666 
L 1259 2753 
L 3553 2753 
L 3553 4666 
L 4184 4666 
L 4184 0 
L 3553 0 
L 3553 2222 
L 1259 2222 
L 1259 0 
L 628 0 
L 628 4666 
z
" transform="scale(0.015625)"/>
     </defs>
     <use xlink:href="#DejaVuSans-41"/>
     <use xlink:href="#DejaVuSans-50" x="68.408203"/>
     <use xlink:href="#DejaVuSans-48" x="128.710938"/>
    </g>
   </g>
   <g id="text_47">
    <!-- ADI -->
    <g transform="translate(516.954545 340.559086) scale(0.05 -0.05)">
     <use xlink:href="#DejaVuSans-41"/>
     <use xlink:href="#DejaVuSans-44" x="68.408203"/>
     <use xlink:href="#DejaVuSans-49" x="145.410156"/>
    </g>
   </g>
   <g id="text_48">
    <!-- ANSS -->
    <g transform="translate(527.522727 227.94292) scale(0.05 -0.05)">
     <use xlink:href="#DejaVuSans-41"/>
     <use xlink:href="#DejaVuSans-4e" x="68.408203"/>
     <use xlink:href="#DejaVuSans-53" x="143.212891"/>
     <use xlink:href="#DejaVuSans-53" x="206.689453"/>
    </g>
   </g>
   <g id="text_49">
    <!-- AON -->
    <g transform="translate(538.090909 218.660618) scale(0.05 -0.05)">
     <use xlink:href="#DejaVuSans-41"/>
     <use xlink:href="#DejaVuSans-4f" x="66.658203"/>
     <use xlink:href="#DejaVuSans-4e" x="145.369141"/>
    </g>
   </g>
   <g id="text_50">
    <!-- APA -->
    <g transform="translate(548.659091 468.267524) scale(0.05 -0.05)">
     <use xlink:href="#DejaVuSans-41"/>
     <use xlink:href="#DejaVuSans-50" x="68.408203"/>
     <use xlink:href="#DejaVuSans-41" x="122.335938"/>
    </g>
   </g>
   <g id="text_51">
    <!-- AAPL -->
    <g transform="translate(559.227273 359.84887) scale(0.05 -0.05)">
     <use xlink:href="#DejaVuSans-41"/>
     <use xlink:href="#DejaVuSans-41" x="71.158203"/>
     <use xlink:href="#DejaVuSans-50" x="139.566406"/>
     <use xlink:href="#DejaVuSans-4c" x="199.869141"/>
    </g>
   </g>
   <g id="text_52">
    <!-- AMAT -->
    <g transform="translate(569.795455 407.25857) scale(0.05 -0.05)">
     <use xlink:href="#DejaVuSans-41"/>
     <use xlink:href="#DejaVuSans-4d" x="68.408203"/>
     <use xlink:href="#DejaVuSans-41" x="154.6875"/>
     <use xlink:href="#DejaVuSans-54" x="215.345703"/>
    </g>
   </g>
   <g id="text_53">
    <!-- APTV -->
    <g transform="translate(580.363636 410.167821) scale(0.05 -0.05)">
     <use xlink:href="#DejaVuSans-41"/>
     <use xlink:href="#DejaVuSans-50" x="68.408203"/>
     <use xlink:href="#DejaVuSans-54" x="128.710938"/>
     <use xlink:href="#DejaVuSans-56" x="189.794922"/>
    </g>
   </g>
   <g id="text_54">
    <!-- ADM -->
    <g transform="translate(590.931818 431.599018) scale(0.05 -0.05)">
     <use xlink:href="#DejaVuSans-41"/>
     <use xlink:href="#DejaVuSans-44" x="68.408203"/>
     <use xlink:href="#DejaVuSans-4d" x="145.410156"/>
    </g>
   </g>
   <g id="text_55">
    <!-- ANET -->
    <g transform="translate(601.5 363.491832) scale(0.05 -0.05)">
     <use xlink:href="#DejaVuSans-41"/>
     <use xlink:href="#DejaVuSans-4e" x="68.408203"/>
     <use xlink:href="#DejaVuSans-45" x="143.212891"/>
     <use xlink:href="#DejaVuSans-54" x="206.396484"/>
    </g>
   </g>
   <g id="text_56">
    <!-- AJG -->
    <g transform="translate(612.068182 325.78248) scale(0.05 -0.05)">
     <defs>
      <path id="DejaVuSans-4a" d="M 628 4666 
L 1259 4666 
L 1259 325 
Q 1259 -519 939 -900 
Q 619 -1281 -91 -1281 
L -331 -1281 
L -331 -750 
L -134 -750 
Q 284 -750 456 -515 
Q 628 -281 628 325 
L 628 4666 
z
" transform="scale(0.015625)"/>
     </defs>
     <use xlink:href="#DejaVuSans-41"/>
     <use xlink:href="#DejaVuSans-4a" x="68.408203"/>
     <use xlink:href="#DejaVuSans-47" x="97.900391"/>
    </g>
   </g>
   <g id="text_57">
    <!-- ELV -->
    <g transform="translate(622.636364 89.28) scale(0.05 -0.05)">
     <use xlink:href="#DejaVuSans-45"/>
     <use xlink:href="#DejaVuSans-4c" x="63.183594"/>
     <use xlink:href="#DejaVuSans-56" x="107.896484"/>
    </g>
   </g>
   <g id="text_58">
    <!-- S&amp;P 500 Companies Price Variance -->
    <g transform="translate(263.77875 63.12) scale(0.12 -0.12)">
     <use xlink:href="#DejaVuSans-53"/>
     <use xlink:href="#DejaVuSans-26" x="63.476562"/>
     <use xlink:href="#DejaVuSans-50" x="141.455078"/>
     <use xlink:href="#DejaVuSans-20" x="201.757812"/>
     <use xlink:href="#DejaVuSans-35" x="233.544922"/>
     <use xlink:href="#DejaVuSans-30" x="297.167969"/>
     <use xlink:href="#DejaVuSans-30" x="360.791016"/>
     <use xlink:href="#DejaVuSans-20" x="424.414062"/>
     <use xlink:href="#DejaVuSans-43" x="456.201172"/>
     <use xlink:href="#DejaVuSans-6f" x="526.025391"/>
     <use xlink:href="#DejaVuSans-6d" x="587.207031"/>
     <use xlink:href="#DejaVuSans-70" x="684.619141"/>
     <use xlink:href="#DejaVuSans-61" x="748.095703"/>
     <use xlink:href="#DejaVuSans-6e" x="809.375"/>
     <use xlink:href="#DejaVuSans-69" x="872.753906"/>
     <use xlink:href="#DejaVuSans-65" x="900.537109"/>
     <use xlink:href="#DejaVuSans-73" x="962.060547"/>
     <use xlink:href="#DejaVuSans-20" x="1014.160156"/>
     <use xlink:href="#DejaVuSans-50" x="1045.947266"/>
     <use xlink:href="#DejaVuSans-72" x="1104.5"/>
     <use xlink:href="#DejaVuSans-69" x="1145.613281"/>
     <use xlink:href="#DejaVuSans-63" x="1173.396484"/>
     <use xlink:href="#DejaVuSans-65" x="1228.376953"/>
     <use xlink:href="#DejaVuSans-20" x="1289.900391"/>
     <use xlink:href="#DejaVuSans-56" x="1321.6875"/>
     <use xlink:href="#DejaVuSans-61" x="1382.345703"/>
     <use xlink:href="#DejaVuSans-72" x="1443.625"/>
     <use xlink:href="#DejaVuSans-69" x="1484.738281"/>
     <use xlink:href="#DejaVuSans-61" x="1512.521484"/>
     <use xlink:href="#DejaVuSans-6e" x="1573.800781"/>
     <use xlink:href="#DejaVuSans-63" x="1637.179688"/>
     <use xlink:href="#DejaVuSans-65" x="1692.160156"/>
    </g>
   </g>
  </g>
 </g>
 <defs>
  <clipPath id="p432c72ca82">
   <rect x="90" y="69.12" width="558" height="443.52"/>
  </clipPath>
 </defs>
</svg>
