<?xml version="1.0" encoding="utf-8" standalone="no"?>
<!DOCTYPE svg PUBLIC "-//W3C//DTD SVG 1.1//EN"
  "http://www.w3.org/Graphics/SVG/1.1/DTD/svg11.dtd">
<svg xmlns:xlink="http://www.w3.org/1999/xlink" width="720pt" height="576pt" viewBox="0 0 720 576" xmlns="http://www.w3.org/2000/svg" version="1.1">
 <metadata>
  <rdf:RDF xmlns:dc="http://purl.org/dc/elements/1.1/" xmlns:cc="http://creativecommons.org/ns#" xmlns:rdf="http://www.w3.org/1999/02/22-rdf-syntax-ns#">
   <cc:Work>
    <dc:type rdf:resource="http://purl.org/dc/dcmitype/StillImage"/>
    <dc:date>2023-05-02T18:37:21.804859</dc:date>
    <dc:format>image/svg+xml</dc:format>
    <dc:creator>
     <cc:Agent>
      <dc:title>Matplotlib v3.7.1, https://matplotlib.org/</dc:title>
     </cc:Agent>
    </dc:creator>
   </cc:Work>
  </rdf:RDF>
 </metadata>
 <defs>
  <style type="text/css">*{stroke-linejoin: round; stroke-linecap: butt}</style>
 </defs>
 <g id="figure_1">
  <g id="patch_1">
   <path d="M 0 576 
L 720 576 
L 720 0 
L 0 0 
z
" style="fill: #ffffff"/>
  </g>
  <g id="axes_1">
   <g id="patch_2">
    <path d="M 90 253.92 
L 648 253.92 
L 648 69.12 
L 90 69.12 
z
" style="fill: #ffffff"/>
   </g>
   <g id="matplotlib.axis_1">
    <g id="xtick_1">
     <g id="line2d_1">
      <defs>
       <path id="m08435e7091" d="M 0 0 
L 0 3.5 
" style="stroke: #000000; stroke-width: 0.8"/>
      </defs>
      <g>
       <use xlink:href="#m08435e7091" x="115.363636" y="253.92" style="stroke: #000000; stroke-width: 0.8"/>
      </g>
     </g>
     <g id="text_1">
      <!-- 2023-04-18 -->
      <g transform="translate(86.305824 268.518438) scale(0.1 -0.1)">
       <defs>
        <path id="DejaVuSans-32" d="M 1228 531 
L 3431 531 
L 3431 0 
L 469 0 
L 469 531 
Q 828 903 1448 1529 
Q 2069 2156 2228 2338 
Q 2531 2678 2651 2914 
Q 2772 3150 2772 3378 
Q 2772 3750 2511 3984 
Q 2250 4219 1831 4219 
Q 1534 4219 1204 4116 
Q 875 4013 500 3803 
L 500 4441 
Q 881 4594 1212 4672 
Q 1544 4750 1819 4750 
Q 2544 4750 2975 4387 
Q 3406 4025 3406 3419 
Q 3406 3131 3298 2873 
Q 3191 2616 2906 2266 
Q 2828 2175 2409 1742 
Q 1991 1309 1228 531 
z
" transform="scale(0.015625)"/>
        <path id="DejaVuSans-30" d="M 2034 4250 
Q 1547 4250 1301 3770 
Q 1056 3291 1056 2328 
Q 1056 1369 1301 889 
Q 1547 409 2034 409 
Q 2525 409 2770 889 
Q 3016 1369 3016 2328 
Q 3016 3291 2770 3770 
Q 2525 4250 2034 4250 
z
M 2034 4750 
Q 2819 4750 3233 4129 
Q 3647 3509 3647 2328 
Q 3647 1150 3233 529 
Q 2819 -91 2034 -91 
Q 1250 -91 836 529 
Q 422 1150 422 2328 
Q 422 3509 836 4129 
Q 1250 4750 2034 4750 
z
" transform="scale(0.015625)"/>
        <path id="DejaVuSans-33" d="M 2597 2516 
Q 3050 2419 3304 2112 
Q 3559 1806 3559 1356 
Q 3559 666 3084 287 
Q 2609 -91 1734 -91 
Q 1441 -91 1130 -33 
Q 819 25 488 141 
L 488 750 
Q 750 597 1062 519 
Q 1375 441 1716 441 
Q 2309 441 2620 675 
Q 2931 909 2931 1356 
Q 2931 1769 2642 2001 
Q 2353 2234 1838 2234 
L 1294 2234 
L 1294 2753 
L 1863 2753 
Q 2328 2753 2575 2939 
Q 2822 3125 2822 3475 
Q 2822 3834 2567 4026 
Q 2313 4219 1838 4219 
Q 1578 4219 1281 4162 
Q 984 4106 628 3988 
L 628 4550 
Q 988 4650 1302 4700 
Q 1616 4750 1894 4750 
Q 2613 4750 3031 4423 
Q 3450 4097 3450 3541 
Q 3450 3153 3228 2886 
Q 3006 2619 2597 2516 
z
" transform="scale(0.015625)"/>
        <path id="DejaVuSans-2d" d="M 313 2009 
L 1997 2009 
L 1997 1497 
L 313 1497 
L 313 2009 
z
" transform="scale(0.015625)"/>
        <path id="DejaVuSans-34" d="M 2419 4116 
L 825 1625 
L 2419 1625 
L 2419 4116 
z
M 2253 4666 
L 3047 4666 
L 3047 1625 
L 3713 1625 
L 3713 1100 
L 3047 1100 
L 3047 0 
L 2419 0 
L 2419 1100 
L 313 1100 
L 313 1709 
L 2253 4666 
z
" transform="scale(0.015625)"/>
        <path id="DejaVuSans-31" d="M 794 531 
L 1825 531 
L 1825 4091 
L 703 3866 
L 703 4441 
L 1819 4666 
L 2450 4666 
L 2450 531 
L 3481 531 
L 3481 0 
L 794 0 
L 794 531 
z
" transform="scale(0.015625)"/>
        <path id="DejaVuSans-38" d="M 2034 2216 
Q 1584 2216 1326 1975 
Q 1069 1734 1069 1313 
Q 1069 891 1326 650 
Q 1584 409 2034 409 
Q 2484 409 2743 651 
Q 3003 894 3003 1313 
Q 3003 1734 2745 1975 
Q 2488 2216 2034 2216 
z
M 1403 2484 
Q 997 2584 770 2862 
Q 544 3141 544 3541 
Q 544 4100 942 4425 
Q 1341 4750 2034 4750 
Q 2731 4750 3128 4425 
Q 3525 4100 3525 3541 
Q 3525 3141 3298 2862 
Q 3072 2584 2669 2484 
Q 3125 2378 3379 2068 
Q 3634 1759 3634 1313 
Q 3634 634 3220 271 
Q 2806 -91 2034 -91 
Q 1263 -91 848 271 
Q 434 634 434 1313 
Q 434 1759 690 2068 
Q 947 2378 1403 2484 
z
M 1172 3481 
Q 1172 3119 1398 2916 
Q 1625 2713 2034 2713 
Q 2441 2713 2670 2916 
Q 2900 3119 2900 3481 
Q 2900 3844 2670 4047 
Q 2441 4250 2034 4250 
Q 1625 4250 1398 4047 
Q 1172 3844 1172 3481 
z
" transform="scale(0.015625)"/>
       </defs>
       <use xlink:href="#DejaVuSans-32"/>
       <use xlink:href="#DejaVuSans-30" x="63.623047"/>
       <use xlink:href="#DejaVuSans-32" x="127.246094"/>
       <use xlink:href="#DejaVuSans-33" x="190.869141"/>
       <use xlink:href="#DejaVuSans-2d" x="254.492188"/>
       <use xlink:href="#DejaVuSans-30" x="290.576172"/>
       <use xlink:href="#DejaVuSans-34" x="354.199219"/>
       <use xlink:href="#DejaVuSans-2d" x="417.822266"/>
       <use xlink:href="#DejaVuSans-31" x="453.90625"/>
       <use xlink:href="#DejaVuSans-38" x="517.529297"/>
      </g>
     </g>
    </g>
    <g id="xtick_2">
     <g id="line2d_2">
      <g>
       <use xlink:href="#m08435e7091" x="217.842975" y="253.92" style="stroke: #000000; stroke-width: 0.8"/>
      </g>
     </g>
     <g id="text_2">
      <!-- 2022-12-20 -->
      <g transform="translate(188.785163 268.518438) scale(0.1 -0.1)">
       <use xlink:href="#DejaVuSans-32"/>
       <use xlink:href="#DejaVuSans-30" x="63.623047"/>
       <use xlink:href="#DejaVuSans-32" x="127.246094"/>
       <use xlink:href="#DejaVuSans-32" x="190.869141"/>
       <use xlink:href="#DejaVuSans-2d" x="254.492188"/>
       <use xlink:href="#DejaVuSans-31" x="290.576172"/>
       <use xlink:href="#DejaVuSans-32" x="354.199219"/>
       <use xlink:href="#DejaVuSans-2d" x="417.822266"/>
       <use xlink:href="#DejaVuSans-32" x="453.90625"/>
       <use xlink:href="#DejaVuSans-30" x="517.529297"/>
      </g>
     </g>
    </g>
    <g id="xtick_3">
     <g id="line2d_3">
      <g>
       <use xlink:href="#m08435e7091" x="320.322314" y="253.92" style="stroke: #000000; stroke-width: 0.8"/>
      </g>
     </g>
     <g id="text_3">
      <!-- 2023-01-20 -->
      <g transform="translate(291.264502 268.518438) scale(0.1 -0.1)">
       <use xlink:href="#DejaVuSans-32"/>
       <use xlink:href="#DejaVuSans-30" x="63.623047"/>
       <use xlink:href="#DejaVuSans-32" x="127.246094"/>
       <use xlink:href="#DejaVuSans-33" x="190.869141"/>
       <use xlink:href="#DejaVuSans-2d" x="254.492188"/>
       <use xlink:href="#DejaVuSans-30" x="290.576172"/>
       <use xlink:href="#DejaVuSans-31" x="354.199219"/>
       <use xlink:href="#DejaVuSans-2d" x="417.822266"/>
       <use xlink:href="#DejaVuSans-32" x="453.90625"/>
       <use xlink:href="#DejaVuSans-30" x="517.529297"/>
      </g>
     </g>
    </g>
    <g id="xtick_4">
     <g id="line2d_4">
      <g>
       <use xlink:href="#m08435e7091" x="422.801653" y="253.92" style="stroke: #000000; stroke-width: 0.8"/>
      </g>
     </g>
     <g id="text_4">
      <!-- 2023-02-17 -->
      <g transform="translate(393.74384 268.518438) scale(0.1 -0.1)">
       <defs>
        <path id="DejaVuSans-37" d="M 525 4666 
L 3525 4666 
L 3525 4397 
L 1831 0 
L 1172 0 
L 2766 4134 
L 525 4134 
L 525 4666 
z
" transform="scale(0.015625)"/>
       </defs>
       <use xlink:href="#DejaVuSans-32"/>
       <use xlink:href="#DejaVuSans-30" x="63.623047"/>
       <use xlink:href="#DejaVuSans-32" x="127.246094"/>
       <use xlink:href="#DejaVuSans-33" x="190.869141"/>
       <use xlink:href="#DejaVuSans-2d" x="254.492188"/>
       <use xlink:href="#DejaVuSans-30" x="290.576172"/>
       <use xlink:href="#DejaVuSans-32" x="354.199219"/>
       <use xlink:href="#DejaVuSans-2d" x="417.822266"/>
       <use xlink:href="#DejaVuSans-31" x="453.90625"/>
       <use xlink:href="#DejaVuSans-37" x="517.529297"/>
      </g>
     </g>
    </g>
    <g id="xtick_5">
     <g id="line2d_5">
      <g>
       <use xlink:href="#m08435e7091" x="525.280992" y="253.92" style="stroke: #000000; stroke-width: 0.8"/>
      </g>
     </g>
     <g id="text_5">
      <!-- 2023-03-20 -->
      <g transform="translate(496.223179 268.518438) scale(0.1 -0.1)">
       <use xlink:href="#DejaVuSans-32"/>
       <use xlink:href="#DejaVuSans-30" x="63.623047"/>
       <use xlink:href="#DejaVuSans-32" x="127.246094"/>
       <use xlink:href="#DejaVuSans-33" x="190.869141"/>
       <use xlink:href="#DejaVuSans-2d" x="254.492188"/>
       <use xlink:href="#DejaVuSans-30" x="290.576172"/>
       <use xlink:href="#DejaVuSans-33" x="354.199219"/>
       <use xlink:href="#DejaVuSans-2d" x="417.822266"/>
       <use xlink:href="#DejaVuSans-32" x="453.90625"/>
       <use xlink:href="#DejaVuSans-30" x="517.529297"/>
      </g>
     </g>
    </g>
    <g id="xtick_6">
     <g id="line2d_6">
      <g>
       <use xlink:href="#m08435e7091" x="627.760331" y="253.92" style="stroke: #000000; stroke-width: 0.8"/>
      </g>
     </g>
    </g>
    <g id="text_6">
     <!-- Date -->
     <g transform="translate(357.049219 282.196563) scale(0.1 -0.1)">
      <defs>
       <path id="DejaVuSans-44" d="M 1259 4147 
L 1259 519 
L 2022 519 
Q 2988 519 3436 956 
Q 3884 1394 3884 2338 
Q 3884 3275 3436 3711 
Q 2988 4147 2022 4147 
L 1259 4147 
z
M 628 4666 
L 1925 4666 
Q 3281 4666 3915 4102 
Q 4550 3538 4550 2338 
Q 4550 1131 3912 565 
Q 3275 0 1925 0 
L 628 0 
L 628 4666 
z
" transform="scale(0.015625)"/>
       <path id="DejaVuSans-61" d="M 2194 1759 
Q 1497 1759 1228 1600 
Q 959 1441 959 1056 
Q 959 750 1161 570 
Q 1363 391 1709 391 
Q 2188 391 2477 730 
Q 2766 1069 2766 1631 
L 2766 1759 
L 2194 1759 
z
M 3341 1997 
L 3341 0 
L 2766 0 
L 2766 531 
Q 2569 213 2275 61 
Q 1981 -91 1556 -91 
Q 1019 -91 701 211 
Q 384 513 384 1019 
Q 384 1609 779 1909 
Q 1175 2209 1959 2209 
L 2766 2209 
L 2766 2266 
Q 2766 2663 2505 2880 
Q 2244 3097 1772 3097 
Q 1472 3097 1187 3025 
Q 903 2953 641 2809 
L 641 3341 
Q 956 3463 1253 3523 
Q 1550 3584 1831 3584 
Q 2591 3584 2966 3190 
Q 3341 2797 3341 1997 
z
" transform="scale(0.015625)"/>
       <path id="DejaVuSans-74" d="M 1172 4494 
L 1172 3500 
L 2356 3500 
L 2356 3053 
L 1172 3053 
L 1172 1153 
Q 1172 725 1289 603 
Q 1406 481 1766 481 
L 2356 481 
L 2356 0 
L 1766 0 
Q 1100 0 847 248 
Q 594 497 594 1153 
L 594 3053 
L 172 3053 
L 172 3500 
L 594 3500 
L 594 4494 
L 1172 4494 
z
" transform="scale(0.015625)"/>
       <path id="DejaVuSans-65" d="M 3597 1894 
L 3597 1613 
L 953 1613 
Q 991 1019 1311 708 
Q 1631 397 2203 397 
Q 2534 397 2845 478 
Q 3156 559 3463 722 
L 3463 178 
Q 3153 47 2828 -22 
Q 2503 -91 2169 -91 
Q 1331 -91 842 396 
Q 353 884 353 1716 
Q 353 2575 817 3079 
Q 1281 3584 2069 3584 
Q 2775 3584 3186 3129 
Q 3597 2675 3597 1894 
z
M 3022 2063 
Q 3016 2534 2758 2815 
Q 2500 3097 2075 3097 
Q 1594 3097 1305 2825 
Q 1016 2553 972 2059 
L 3022 2063 
z
" transform="scale(0.015625)"/>
      </defs>
      <use xlink:href="#DejaVuSans-44"/>
      <use xlink:href="#DejaVuSans-61" x="77.001953"/>
      <use xlink:href="#DejaVuSans-74" x="138.28125"/>
      <use xlink:href="#DejaVuSans-65" x="177.490234"/>
     </g>
    </g>
   </g>
   <g id="matplotlib.axis_2">
    <g id="ytick_1">
     <g id="line2d_7">
      <defs>
       <path id="me048e11da3" d="M 0 0 
L -3.5 0 
" style="stroke: #000000; stroke-width: 0.8"/>
      </defs>
      <g>
       <use xlink:href="#me048e11da3" x="90" y="231.700534" style="stroke: #000000; stroke-width: 0.8"/>
      </g>
     </g>
     <g id="text_7">
      <!-- 100 -->
      <g transform="translate(63.9125 235.499753) scale(0.1 -0.1)">
       <use xlink:href="#DejaVuSans-31"/>
       <use xlink:href="#DejaVuSans-30" x="63.623047"/>
       <use xlink:href="#DejaVuSans-30" x="127.246094"/>
      </g>
     </g>
    </g>
    <g id="ytick_2">
     <g id="line2d_8">
      <g>
       <use xlink:href="#me048e11da3" x="90" y="193.693202" style="stroke: #000000; stroke-width: 0.8"/>
      </g>
     </g>
     <g id="text_8">
      <!-- 150 -->
      <g transform="translate(63.9125 197.49242) scale(0.1 -0.1)">
       <defs>
        <path id="DejaVuSans-35" d="M 691 4666 
L 3169 4666 
L 3169 4134 
L 1269 4134 
L 1269 2991 
Q 1406 3038 1543 3061 
Q 1681 3084 1819 3084 
Q 2600 3084 3056 2656 
Q 3513 2228 3513 1497 
Q 3513 744 3044 326 
Q 2575 -91 1722 -91 
Q 1428 -91 1123 -41 
Q 819 9 494 109 
L 494 744 
Q 775 591 1075 516 
Q 1375 441 1709 441 
Q 2250 441 2565 725 
Q 2881 1009 2881 1497 
Q 2881 1984 2565 2268 
Q 2250 2553 1709 2553 
Q 1456 2553 1204 2497 
Q 953 2441 691 2322 
L 691 4666 
z
" transform="scale(0.015625)"/>
       </defs>
       <use xlink:href="#DejaVuSans-31"/>
       <use xlink:href="#DejaVuSans-35" x="63.623047"/>
       <use xlink:href="#DejaVuSans-30" x="127.246094"/>
      </g>
     </g>
    </g>
    <g id="ytick_3">
     <g id="line2d_9">
      <g>
       <use xlink:href="#me048e11da3" x="90" y="155.685869" style="stroke: #000000; stroke-width: 0.8"/>
      </g>
     </g>
     <g id="text_9">
      <!-- 200 -->
      <g transform="translate(63.9125 159.485088) scale(0.1 -0.1)">
       <use xlink:href="#DejaVuSans-32"/>
       <use xlink:href="#DejaVuSans-30" x="63.623047"/>
       <use xlink:href="#DejaVuSans-30" x="127.246094"/>
      </g>
     </g>
    </g>
    <g id="ytick_4">
     <g id="line2d_10">
      <g>
       <use xlink:href="#me048e11da3" x="90" y="117.678537" style="stroke: #000000; stroke-width: 0.8"/>
      </g>
     </g>
     <g id="text_10">
      <!-- 250 -->
      <g transform="translate(63.9125 121.477756) scale(0.1 -0.1)">
       <use xlink:href="#DejaVuSans-32"/>
       <use xlink:href="#DejaVuSans-35" x="63.623047"/>
       <use xlink:href="#DejaVuSans-30" x="127.246094"/>
      </g>
     </g>
    </g>
    <g id="ytick_5">
     <g id="line2d_11">
      <g>
       <use xlink:href="#me048e11da3" x="90" y="79.671205" style="stroke: #000000; stroke-width: 0.8"/>
      </g>
     </g>
     <g id="text_11">
      <!-- 300 -->
      <g transform="translate(63.9125 83.470424) scale(0.1 -0.1)">
       <use xlink:href="#DejaVuSans-33"/>
       <use xlink:href="#DejaVuSans-30" x="63.623047"/>
       <use xlink:href="#DejaVuSans-30" x="127.246094"/>
      </g>
     </g>
    </g>
    <g id="text_12">
     <!-- Stock Price -->
     <g transform="translate(57.832812 189.145) rotate(-90) scale(0.1 -0.1)">
      <defs>
       <path id="DejaVuSans-53" d="M 3425 4513 
L 3425 3897 
Q 3066 4069 2747 4153 
Q 2428 4238 2131 4238 
Q 1616 4238 1336 4038 
Q 1056 3838 1056 3469 
Q 1056 3159 1242 3001 
Q 1428 2844 1947 2747 
L 2328 2669 
Q 3034 2534 3370 2195 
Q 3706 1856 3706 1288 
Q 3706 609 3251 259 
Q 2797 -91 1919 -91 
Q 1588 -91 1214 -16 
Q 841 59 441 206 
L 441 856 
Q 825 641 1194 531 
Q 1563 422 1919 422 
Q 2459 422 2753 634 
Q 3047 847 3047 1241 
Q 3047 1584 2836 1778 
Q 2625 1972 2144 2069 
L 1759 2144 
Q 1053 2284 737 2584 
Q 422 2884 422 3419 
Q 422 4038 858 4394 
Q 1294 4750 2059 4750 
Q 2388 4750 2728 4690 
Q 3069 4631 3425 4513 
z
" transform="scale(0.015625)"/>
       <path id="DejaVuSans-6f" d="M 1959 3097 
Q 1497 3097 1228 2736 
Q 959 2375 959 1747 
Q 959 1119 1226 758 
Q 1494 397 1959 397 
Q 2419 397 2687 759 
Q 2956 1122 2956 1747 
Q 2956 2369 2687 2733 
Q 2419 3097 1959 3097 
z
M 1959 3584 
Q 2709 3584 3137 3096 
Q 3566 2609 3566 1747 
Q 3566 888 3137 398 
Q 2709 -91 1959 -91 
Q 1206 -91 779 398 
Q 353 888 353 1747 
Q 353 2609 779 3096 
Q 1206 3584 1959 3584 
z
" transform="scale(0.015625)"/>
       <path id="DejaVuSans-63" d="M 3122 3366 
L 3122 2828 
Q 2878 2963 2633 3030 
Q 2388 3097 2138 3097 
Q 1578 3097 1268 2742 
Q 959 2388 959 1747 
Q 959 1106 1268 751 
Q 1578 397 2138 397 
Q 2388 397 2633 464 
Q 2878 531 3122 666 
L 3122 134 
Q 2881 22 2623 -34 
Q 2366 -91 2075 -91 
Q 1284 -91 818 406 
Q 353 903 353 1747 
Q 353 2603 823 3093 
Q 1294 3584 2113 3584 
Q 2378 3584 2631 3529 
Q 2884 3475 3122 3366 
z
" transform="scale(0.015625)"/>
       <path id="DejaVuSans-6b" d="M 581 4863 
L 1159 4863 
L 1159 1991 
L 2875 3500 
L 3609 3500 
L 1753 1863 
L 3688 0 
L 2938 0 
L 1159 1709 
L 1159 0 
L 581 0 
L 581 4863 
z
" transform="scale(0.015625)"/>
       <path id="DejaVuSans-20" transform="scale(0.015625)"/>
       <path id="DejaVuSans-50" d="M 1259 4147 
L 1259 2394 
L 2053 2394 
Q 2494 2394 2734 2622 
Q 2975 2850 2975 3272 
Q 2975 3691 2734 3919 
Q 2494 4147 2053 4147 
L 1259 4147 
z
M 628 4666 
L 2053 4666 
Q 2838 4666 3239 4311 
Q 3641 3956 3641 3272 
Q 3641 2581 3239 2228 
Q 2838 1875 2053 1875 
L 1259 1875 
L 1259 0 
L 628 0 
L 628 4666 
z
" transform="scale(0.015625)"/>
       <path id="DejaVuSans-72" d="M 2631 2963 
Q 2534 3019 2420 3045 
Q 2306 3072 2169 3072 
Q 1681 3072 1420 2755 
Q 1159 2438 1159 1844 
L 1159 0 
L 581 0 
L 581 3500 
L 1159 3500 
L 1159 2956 
Q 1341 3275 1631 3429 
Q 1922 3584 2338 3584 
Q 2397 3584 2469 3576 
Q 2541 3569 2628 3553 
L 2631 2963 
z
" transform="scale(0.015625)"/>
       <path id="DejaVuSans-69" d="M 603 3500 
L 1178 3500 
L 1178 0 
L 603 0 
L 603 3500 
z
M 603 4863 
L 1178 4863 
L 1178 4134 
L 603 4134 
L 603 4863 
z
" transform="scale(0.015625)"/>
      </defs>
      <use xlink:href="#DejaVuSans-53"/>
      <use xlink:href="#DejaVuSans-74" x="63.476562"/>
      <use xlink:href="#DejaVuSans-6f" x="102.685547"/>
      <use xlink:href="#DejaVuSans-63" x="163.867188"/>
      <use xlink:href="#DejaVuSans-6b" x="218.847656"/>
      <use xlink:href="#DejaVuSans-20" x="276.757812"/>
      <use xlink:href="#DejaVuSans-50" x="308.544922"/>
      <use xlink:href="#DejaVuSans-72" x="367.097656"/>
      <use xlink:href="#DejaVuSans-69" x="408.210938"/>
      <use xlink:href="#DejaVuSans-63" x="435.994141"/>
      <use xlink:href="#DejaVuSans-65" x="490.974609"/>
     </g>
    </g>
   </g>
   <g id="line2d_12">
    <path d="M 115.363636 226.935861 
L 120.487603 209.960335 
L 125.61157 210.416428 
L 130.735537 209.62588 
L 135.859504 212.970521 
L 140.983471 211.837904 
L 146.107438 211.959524 
L 151.231405 211.944324 
L 156.355372 211.184177 
L 161.479339 212.978124 
L 166.603306 213.016128 
L 171.727273 211.670671 
L 176.85124 211.936721 
L 181.975207 212.119155 
L 187.099174 211.290598 
L 192.22314 210.956131 
L 197.347107 211.868311 
L 202.471074 214.688454 
L 207.595041 215.212951 
L 212.719008 214.878491 
L 217.842975 215.881884 
L 222.966942 213.867494 
L 228.090909 215.28897 
L 233.214876 216.391181 
L 238.338843 216.330368 
L 243.46281 217.797451 
L 248.586777 216.064318 
L 253.710744 216.558414 
L 258.834711 214.620038 
L 263.958678 212.582844 
L 269.082645 214.247567 
L 274.206612 211.389414 
L 279.330579 211.336204 
L 284.454545 210.317605 
L 289.578512 209.565067 
L 294.702479 209.390225 
L 299.826446 209.26861 
L 304.950413 211.480634 
L 310.07438 214.407198 
L 315.198347 217.691031 
L 320.322314 216.003504 
L 325.446281 214.506015 
L 330.570248 220.298334 
L 335.694215 221.871837 
L 340.818182 221.400544 
L 345.942149 220.108297 
L 351.066116 222.137888 
L 356.190083 220.237521 
L 361.31405 219.644608 
L 366.438017 216.277158 
L 371.561983 218.405571 
L 376.68595 219.158114 
L 381.809917 218.854054 
L 386.933884 220.108297 
L 392.057851 221.871837 
L 397.181818 221.1497 
L 402.305785 220.085494 
L 407.429752 220.898851 
L 412.553719 220.457964 
L 417.677686 222.578774 
L 422.801653 221.82623 
L 427.92562 224.669177 
L 433.049587 224.904821 
L 438.173554 224.927624 
L 443.297521 225.771388 
L 448.421488 225.414124 
L 453.545455 225.817 
L 458.669421 223.939437 
L 463.793388 224.175081 
L 468.917355 223.141281 
L 474.041322 224.152277 
L 479.165289 226.311097 
L 484.289256 226.257881 
L 489.413223 227.504527 
L 494.53719 228.61434 
L 499.661157 229.040021 
L 504.785124 229.587327 
L 509.909091 229.587327 
L 515.033058 228.500317 
L 520.157025 229.404893 
L 525.280992 228.424304 
L 530.404959 228.439504 
L 535.528926 230.529907 
L 540.652893 230.940387 
L 545.77686 230.833967 
L 550.900826 230.567917 
L 556.024793 230.37788 
L 561.14876 229.275664 
L 566.272727 229.587327 
L 571.396694 227.816184 
L 576.520661 228.226664 
L 581.644628 229.990204 
L 586.768595 229.959797 
L 591.892562 230.514707 
L 597.016529 229.602527 
L 602.140496 228.234267 
L 607.264463 228.378691 
L 612.38843 227.025631 
L 617.512397 227.31449 
L 622.636364 226.54674 
" clip-path="url(#pe39f3ed31f)" style="fill: none; stroke: #1f77b4; stroke-width: 1.5; stroke-linecap: square"/>
   </g>
   <g id="line2d_13">
    <path d="M 115.363636 94.858943 
L 120.487603 85.075836 
L 125.61157 83.829208 
L 130.735537 82.407737 
L 135.859504 86.816579 
L 140.983471 88.808159 
L 146.107438 78.964274 
L 151.231405 77.52 
L 156.355372 79.572382 
L 161.479339 85.189877 
L 166.603306 90.761742 
L 171.727273 89.788755 
L 176.85124 85.638361 
L 181.975207 88.481302 
L 187.099174 85.493931 
L 192.22314 83.205882 
L 197.347107 86.170449 
L 202.471074 94.022777 
L 207.595041 106.671605 
L 212.719008 113.57375 
L 217.842975 108.632797 
L 222.966942 103.296552 
L 228.090909 106.458765 
L 233.214876 105.44778 
L 238.338843 106.040694 
L 243.46281 107.705417 
L 248.586777 103.707038 
L 253.710744 104.87767 
L 258.834711 102.277959 
L 263.958678 102.977304 
L 269.082645 107.811825 
L 274.206612 103.076126 
L 279.330579 99.625054 
L 284.454545 98.728087 
L 289.578512 94.05319 
L 294.702479 91.955177 
L 299.826446 93.247413 
L 304.950413 91.164618 
L 310.07438 96.47045 
L 315.198347 100.278769 
L 320.322314 94.516868 
L 325.446281 95.375837 
L 330.570248 98.773694 
L 335.694215 100.073538 
L 340.818182 99.237372 
L 345.942149 96.949346 
L 351.066116 99.191765 
L 356.190083 95.596286 
L 361.31405 92.137605 
L 366.438017 84.156065 
L 371.561983 87.865585 
L 376.68595 91.468672 
L 381.809917 88.929785 
L 386.933884 91.293853 
L 392.057851 90.951778 
L 397.181818 91.863963 
L 402.305785 88.526909 
L 407.429752 91.248247 
L 412.553719 89.059021 
L 417.677686 93.946758 
L 422.801653 97.11658 
L 427.92562 103.121733 
L 433.049587 102.756855 
L 438.173554 101.540615 
L 443.297521 105.113314 
L 448.421488 105.326154 
L 453.545455 105.858266 
L 458.669421 107.348147 
L 463.793388 106.078692 
L 468.917355 103.083712 
L 474.041322 102.756855 
L 479.165289 106.884445 
L 484.289256 107.294931 
L 489.413223 110.259498 
L 494.53719 115.436107 
L 499.661157 116.682747 
L 504.785124 115.793377 
L 509.909091 120.5899 
L 515.033058 115.45891 
L 520.157025 117.678537 
L 525.280992 115.740161 
L 530.404959 111.886223 
L 535.528926 115.192854 
L 540.652893 101.213758 
L 545.77686 100.955311 
L 550.900826 99.46543 
L 556.024793 98.674871 
L 561.14876 94.919745 
L 566.272727 92.852145 
L 571.396694 90.457688 
L 576.520661 90.434884 
L 581.644628 90.434884 
L 586.768595 93.863153 
L 591.892562 93.581879 
L 597.016529 93.597097 
L 602.140496 90.06242 
L 607.264463 92.015979 
L 612.38843 90.868173 
L 617.512397 95.444248 
L 622.636364 94.889332 
" clip-path="url(#pe39f3ed31f)" style="fill: none; stroke: #ff7f0e; stroke-width: 1.5; stroke-linecap: square"/>
   </g>
   <g id="line2d_14">
    <path d="M 115.363636 229.952194 
L 120.487603 236.869533 
L 125.61157 236.162597 
L 130.735537 236.709897 
L 135.859504 236.299423 
L 140.983471 237.462447 
L 146.107438 234.33064 
L 151.231405 235.121194 
L 156.355372 236.162597 
L 161.479339 238.53425 
L 166.603306 240.632257 
L 171.727273 240.472627 
L 176.85124 239.03595 
L 181.975207 239.993736 
L 187.099174 238.883917 
L 192.22314 237.409237 
L 197.347107 238.100967 
L 202.471074 240.48023 
L 207.595041 240.928714 
L 212.719008 243.163547 
L 217.842975 242.958304 
L 222.966942 241.757276 
L 228.090909 244.02251 
L 233.214876 242.912697 
L 238.338843 244.59262 
L 243.46281 245.52 
L 248.586777 243.726053 
L 253.710744 243.86288 
L 258.834711 242.479413 
L 263.958678 242.996313 
L 269.082645 244.531807 
L 274.206612 242.281774 
L 279.330579 241.308787 
L 284.454545 239.400817 
L 289.578512 235.432857 
L 294.702479 235.29603 
L 299.826446 233.129607 
L 304.950413 234.703111 
L 310.07438 235.1516 
L 315.198347 236.50466 
L 320.322314 233.790937 
L 325.446281 233.5857 
L 330.570248 234.497874 
L 335.694215 233.844147 
L 340.818182 232.293447 
L 345.942149 229.997807 
L 351.066116 231.282451 
L 356.190083 229.321277 
L 361.31405 227.785777 
L 366.438017 221.887038 
L 371.561983 229.123637 
L 376.68595 230.043414 
L 381.809917 230.096624 
L 386.933884 231.662524 
L 392.057851 233.038393 
L 397.181818 233.517284 
L 402.305785 232.050201 
L 407.429752 231.92858 
L 412.553719 230.818761 
L 417.677686 233.106804 
L 422.801653 233.828947 
L 427.92562 235.820527 
L 433.049587 234.90075 
L 438.173554 234.877947 
L 443.297521 236.641487 
L 448.421488 236.443847 
L 453.545455 236.086577 
L 458.669421 237.652483 
L 463.793388 237.68289 
L 468.917355 235.57728 
L 474.041322 236.45145 
L 479.165289 236.603477 
L 484.289256 236.322227 
L 489.413223 237.59167 
L 494.53719 238.747091 
L 499.661157 237.454844 
L 504.785124 235.592487 
L 509.909091 234.589093 
L 515.033058 231.670127 
L 520.157025 232.49869 
L 525.280992 233.44127 
L 530.404959 231.236844 
L 535.528926 232.688727 
L 540.652893 232.681124 
L 545.77686 233.12201 
L 550.900826 233.19042 
L 556.024793 233.79854 
L 561.14876 231.510497 
L 566.272727 230.18024 
L 571.396694 229.199651 
L 576.520661 229.868578 
L 581.644628 228.697957 
L 586.768595 230.864374 
L 591.892562 230.134634 
L 597.016529 230.051017 
L 602.140496 231.761347 
L 607.264463 233.350051 
L 612.38843 229.876181 
L 617.512397 229.792564 
L 622.636364 229.617734 
" clip-path="url(#pe39f3ed31f)" style="fill: none; stroke: #2ca02c; stroke-width: 1.5; stroke-linecap: square"/>
   </g>
   <g id="line2d_15">
    <path d="M 115.363636 195.110879 
L 120.487603 195.046262 
L 125.61157 192.735421 
L 130.735537 191.488781 
L 135.859504 193.883238 
L 140.983471 195.867221 
L 146.107438 192.355348 
L 151.231405 190.645018 
L 156.355372 190.850249 
L 161.479339 191.275941 
L 166.603306 190.135721 
L 171.727273 190.812251 
L 176.85124 189.580805 
L 181.975207 189.025902 
L 187.099174 188.379772 
L 192.22314 186.707452 
L 197.347107 187.345972 
L 202.471074 188.813061 
L 207.595041 191.868854 
L 212.719008 192.568188 
L 217.842975 193.495568 
L 222.966942 191.770031 
L 228.090909 192.226124 
L 233.214876 191.397555 
L 238.338843 190.439775 
L 243.46281 191.321548 
L 248.586777 190.059701 
L 253.710744 191.853648 
L 258.834711 190.576596 
L 263.958678 188.242951 
L 269.082645 190.143318 
L 274.206612 187.414394 
L 279.330579 187.277562 
L 284.454545 185.506419 
L 289.578512 185.012328 
L 294.702479 186.532622 
L 299.826446 186.950704 
L 304.950413 188.189736 
L 310.07438 191.648405 
L 315.198347 193.548772 
L 320.322314 192.522581 
L 325.446281 192.955858 
L 330.570248 190.242141 
L 335.694215 189.504798 
L 340.818182 188.980295 
L 345.942149 188.356969 
L 351.066116 189.892468 
L 356.190083 188.759846 
L 361.31405 187.140741 
L 366.438017 185.635642 
L 371.561983 188.668632 
L 376.68595 188.820659 
L 381.809917 189.535198 
L 386.933884 193.168698 
L 392.057851 194.407741 
L 397.181818 193.351138 
L 402.305785 192.393346 
L 407.429752 194.217705 
L 412.553719 194.263312 
L 417.677686 195.623969 
L 422.801653 193.989658 
L 427.92562 195.471942 
L 433.049587 196.216894 
L 438.173554 198.360501 
L 443.297521 200.108841 
L 448.421488 201.461901 
L 453.545455 201.005809 
L 458.669421 202.708541 
L 463.793388 202.389281 
L 468.917355 201.522714 
L 474.041322 201.355481 
L 479.165289 203.476285 
L 484.289256 202.632522 
L 489.413223 204.434077 
L 494.53719 206.121604 
L 499.661157 204.054004 
L 504.785124 203.065811 
L 509.909091 200.815772 
L 515.033058 199.280284 
L 520.157025 199.918804 
L 525.280992 199.348694 
L 530.404959 202.161235 
L 535.528926 204.046395 
L 540.652893 203.787948 
L 545.77686 199.896001 
L 550.900826 200.017627 
L 556.024793 200.367288 
L 561.14876 198.147661 
L 566.272727 196.817405 
L 571.396694 196.361312 
L 576.520661 197.159468 
L 581.644628 195.874819 
L 586.768595 193.533566 
L 591.892562 192.264122 
L 597.016529 192.256525 
L 602.140496 192.127301 
L 607.264463 193.069876 
L 612.38843 192.172908 
L 617.512397 193.921248 
L 622.636364 193.814828 
" clip-path="url(#pe39f3ed31f)" style="fill: none; stroke: #d62728; stroke-width: 1.5; stroke-linecap: square"/>
   </g>
   <g id="line2d_16">
    <path d="M 115.363636 181.173585 
L 120.487603 193.556381 
L 125.61157 192.879839 
L 130.735537 195.129878 
L 135.859504 198.086848 
L 140.983471 200.405298 
L 146.107438 195.190691 
L 151.231405 194.977851 
L 156.355372 195.357925 
L 161.479339 196.254892 
L 166.603306 199.082638 
L 171.727273 200.580128 
L 176.85124 199.280284 
L 181.975207 199.652748 
L 187.099174 197.881605 
L 192.22314 197.136665 
L 197.347107 198.854592 
L 202.471074 203.955181 
L 207.595041 205.467877 
L 212.719008 207.094591 
L 217.842975 207.147795 
L 222.966942 204.753338 
L 228.090909 207.201011 
L 233.214876 207.482261 
L 238.338843 208.873331 
L 243.46281 211.906314 
L 248.586777 209.192591 
L 253.710744 208.94935 
L 258.834711 212.643658 
L 263.958678 211.663068 
L 269.082645 212.681667 
L 274.206612 209.184994 
L 279.330579 208.782117 
L 284.454545 208.341231 
L 289.578512 206.243218 
L 294.702479 206.304032 
L 299.826446 205.277841 
L 304.950413 204.380861 
L 310.07438 204.935765 
L 315.198347 204.890158 
L 320.322314 202.913784 
L 325.446281 200.450905 
L 330.570248 199.371498 
L 335.694215 199.880795 
L 340.818182 198.284482 
L 345.942149 196.787004 
L 351.066116 199.014228 
L 356.190083 198.033644 
L 361.31405 197.167077 
L 366.438017 193.069876 
L 371.561983 190.272542 
L 376.68595 192.378151 
L 381.809917 190.158524 
L 386.933884 192.233721 
L 392.057851 193.031878 
L 397.181818 192.925458 
L 402.305785 190.766632 
L 407.429752 191.260735 
L 412.553719 189.641619 
L 417.677686 190.873052 
L 422.801653 191.754825 
L 427.92562 194.848628 
L 433.049587 194.521759 
L 438.173554 194.149294 
L 443.297521 196.194079 
L 448.421488 195.274308 
L 453.545455 195.661979 
L 458.669421 197.258291 
L 463.793388 196.802199 
L 468.917355 192.910251 
L 474.041322 190.781838 
L 479.165289 192.476962 
L 484.289256 191.511584 
L 489.413223 193.244718 
L 494.53719 194.833421 
L 499.661157 193.335932 
L 504.785124 191.724424 
L 509.909091 191.420359 
L 515.033058 189.246339 
L 520.157025 189.892468 
L 525.280992 188.068121 
L 530.404959 186.639042 
L 535.528926 187.741252 
L 540.652893 186.905098 
L 545.77686 185.901698 
L 550.900826 187.399188 
L 556.024793 187.878084 
L 561.14876 185.506419 
L 566.272727 184.297789 
L 571.396694 182.367021 
L 576.520661 181.401632 
L 581.644628 181.812106 
L 586.768595 183.233588 
L 591.892562 182.549449 
L 597.016529 184.548638 
L 602.140496 185.483615 
L 607.264463 186.015716 
L 612.38843 181.865322 
L 617.512397 182.131366 
L 622.636364 182.116171 
" clip-path="url(#pe39f3ed31f)" style="fill: none; stroke: #9467bd; stroke-width: 1.5; stroke-linecap: square"/>
   </g>
   <g id="patch_3">
    <path d="M 90 253.92 
L 90 69.12 
" style="fill: none; stroke: #000000; stroke-width: 0.8; stroke-linejoin: miter; stroke-linecap: square"/>
   </g>
   <g id="patch_4">
    <path d="M 648 253.92 
L 648 69.12 
" style="fill: none; stroke: #000000; stroke-width: 0.8; stroke-linejoin: miter; stroke-linecap: square"/>
   </g>
   <g id="patch_5">
    <path d="M 90 253.92 
L 648 253.92 
" style="fill: none; stroke: #000000; stroke-width: 0.8; stroke-linejoin: miter; stroke-linecap: square"/>
   </g>
   <g id="patch_6">
    <path d="M 90 69.12 
L 648 69.12 
" style="fill: none; stroke: #000000; stroke-width: 0.8; stroke-linejoin: miter; stroke-linecap: square"/>
   </g>
   <g id="text_13">
    <!-- S&amp;P 500 company-level Stock Prices  -->
    <g transform="translate(257.555625 63.12) scale(0.12 -0.12)">
     <defs>
      <path id="DejaVuSans-26" d="M 1556 2509 
Q 1272 2256 1139 2004 
Q 1006 1753 1006 1478 
Q 1006 1022 1337 719 
Q 1669 416 2169 416 
Q 2466 416 2725 514 
Q 2984 613 3213 813 
L 1556 2509 
z
M 1997 2859 
L 3584 1234 
Q 3769 1513 3872 1830 
Q 3975 2147 3994 2503 
L 4575 2503 
Q 4538 2091 4375 1687 
Q 4213 1284 3922 891 
L 4794 0 
L 4006 0 
L 3559 459 
Q 3234 181 2878 45 
Q 2522 -91 2113 -91 
Q 1359 -91 881 339 
Q 403 769 403 1441 
Q 403 1841 612 2192 
Q 822 2544 1241 2853 
Q 1091 3050 1012 3245 
Q 934 3441 934 3628 
Q 934 4134 1281 4442 
Q 1628 4750 2203 4750 
Q 2463 4750 2720 4694 
Q 2978 4638 3244 4525 
L 3244 3956 
Q 2972 4103 2725 4179 
Q 2478 4256 2266 4256 
Q 1938 4256 1733 4082 
Q 1528 3909 1528 3634 
Q 1528 3475 1620 3314 
Q 1713 3153 1997 2859 
z
" transform="scale(0.015625)"/>
      <path id="DejaVuSans-6d" d="M 3328 2828 
Q 3544 3216 3844 3400 
Q 4144 3584 4550 3584 
Q 5097 3584 5394 3201 
Q 5691 2819 5691 2113 
L 5691 0 
L 5113 0 
L 5113 2094 
Q 5113 2597 4934 2840 
Q 4756 3084 4391 3084 
Q 3944 3084 3684 2787 
Q 3425 2491 3425 1978 
L 3425 0 
L 2847 0 
L 2847 2094 
Q 2847 2600 2669 2842 
Q 2491 3084 2119 3084 
Q 1678 3084 1418 2786 
Q 1159 2488 1159 1978 
L 1159 0 
L 581 0 
L 581 3500 
L 1159 3500 
L 1159 2956 
Q 1356 3278 1631 3431 
Q 1906 3584 2284 3584 
Q 2666 3584 2933 3390 
Q 3200 3197 3328 2828 
z
" transform="scale(0.015625)"/>
      <path id="DejaVuSans-70" d="M 1159 525 
L 1159 -1331 
L 581 -1331 
L 581 3500 
L 1159 3500 
L 1159 2969 
Q 1341 3281 1617 3432 
Q 1894 3584 2278 3584 
Q 2916 3584 3314 3078 
Q 3713 2572 3713 1747 
Q 3713 922 3314 415 
Q 2916 -91 2278 -91 
Q 1894 -91 1617 61 
Q 1341 213 1159 525 
z
M 3116 1747 
Q 3116 2381 2855 2742 
Q 2594 3103 2138 3103 
Q 1681 3103 1420 2742 
Q 1159 2381 1159 1747 
Q 1159 1113 1420 752 
Q 1681 391 2138 391 
Q 2594 391 2855 752 
Q 3116 1113 3116 1747 
z
" transform="scale(0.015625)"/>
      <path id="DejaVuSans-6e" d="M 3513 2113 
L 3513 0 
L 2938 0 
L 2938 2094 
Q 2938 2591 2744 2837 
Q 2550 3084 2163 3084 
Q 1697 3084 1428 2787 
Q 1159 2491 1159 1978 
L 1159 0 
L 581 0 
L 581 3500 
L 1159 3500 
L 1159 2956 
Q 1366 3272 1645 3428 
Q 1925 3584 2291 3584 
Q 2894 3584 3203 3211 
Q 3513 2838 3513 2113 
z
" transform="scale(0.015625)"/>
      <path id="DejaVuSans-79" d="M 2059 -325 
Q 1816 -950 1584 -1140 
Q 1353 -1331 966 -1331 
L 506 -1331 
L 506 -850 
L 844 -850 
Q 1081 -850 1212 -737 
Q 1344 -625 1503 -206 
L 1606 56 
L 191 3500 
L 800 3500 
L 1894 763 
L 2988 3500 
L 3597 3500 
L 2059 -325 
z
" transform="scale(0.015625)"/>
      <path id="DejaVuSans-6c" d="M 603 4863 
L 1178 4863 
L 1178 0 
L 603 0 
L 603 4863 
z
" transform="scale(0.015625)"/>
      <path id="DejaVuSans-76" d="M 191 3500 
L 800 3500 
L 1894 563 
L 2988 3500 
L 3597 3500 
L 2284 0 
L 1503 0 
L 191 3500 
z
" transform="scale(0.015625)"/>
      <path id="DejaVuSans-73" d="M 2834 3397 
L 2834 2853 
Q 2591 2978 2328 3040 
Q 2066 3103 1784 3103 
Q 1356 3103 1142 2972 
Q 928 2841 928 2578 
Q 928 2378 1081 2264 
Q 1234 2150 1697 2047 
L 1894 2003 
Q 2506 1872 2764 1633 
Q 3022 1394 3022 966 
Q 3022 478 2636 193 
Q 2250 -91 1575 -91 
Q 1294 -91 989 -36 
Q 684 19 347 128 
L 347 722 
Q 666 556 975 473 
Q 1284 391 1588 391 
Q 1994 391 2212 530 
Q 2431 669 2431 922 
Q 2431 1156 2273 1281 
Q 2116 1406 1581 1522 
L 1381 1569 
Q 847 1681 609 1914 
Q 372 2147 372 2553 
Q 372 3047 722 3315 
Q 1072 3584 1716 3584 
Q 2034 3584 2315 3537 
Q 2597 3491 2834 3397 
z
" transform="scale(0.015625)"/>
     </defs>
     <use xlink:href="#DejaVuSans-53"/>
     <use xlink:href="#DejaVuSans-26" x="63.476562"/>
     <use xlink:href="#DejaVuSans-50" x="141.455078"/>
     <use xlink:href="#DejaVuSans-20" x="201.757812"/>
     <use xlink:href="#DejaVuSans-35" x="233.544922"/>
     <use xlink:href="#DejaVuSans-30" x="297.167969"/>
     <use xlink:href="#DejaVuSans-30" x="360.791016"/>
     <use xlink:href="#DejaVuSans-20" x="424.414062"/>
     <use xlink:href="#DejaVuSans-63" x="456.201172"/>
     <use xlink:href="#DejaVuSans-6f" x="511.181641"/>
     <use xlink:href="#DejaVuSans-6d" x="572.363281"/>
     <use xlink:href="#DejaVuSans-70" x="669.775391"/>
     <use xlink:href="#DejaVuSans-61" x="733.251953"/>
     <use xlink:href="#DejaVuSans-6e" x="794.53125"/>
     <use xlink:href="#DejaVuSans-79" x="857.910156"/>
     <use xlink:href="#DejaVuSans-2d" x="915.339844"/>
     <use xlink:href="#DejaVuSans-6c" x="951.423828"/>
     <use xlink:href="#DejaVuSans-65" x="979.207031"/>
     <use xlink:href="#DejaVuSans-76" x="1040.730469"/>
     <use xlink:href="#DejaVuSans-65" x="1099.910156"/>
     <use xlink:href="#DejaVuSans-6c" x="1161.433594"/>
     <use xlink:href="#DejaVuSans-20" x="1189.216797"/>
     <use xlink:href="#DejaVuSans-53" x="1221.003906"/>
     <use xlink:href="#DejaVuSans-74" x="1284.480469"/>
     <use xlink:href="#DejaVuSans-6f" x="1323.689453"/>
     <use xlink:href="#DejaVuSans-63" x="1384.871094"/>
     <use xlink:href="#DejaVuSans-6b" x="1439.851562"/>
     <use xlink:href="#DejaVuSans-20" x="1497.761719"/>
     <use xlink:href="#DejaVuSans-50" x="1529.548828"/>
     <use xlink:href="#DejaVuSans-72" x="1588.101562"/>
     <use xlink:href="#DejaVuSans-69" x="1629.214844"/>
     <use xlink:href="#DejaVuSans-63" x="1656.998047"/>
     <use xlink:href="#DejaVuSans-65" x="1711.978516"/>
     <use xlink:href="#DejaVuSans-73" x="1773.501953"/>
     <use xlink:href="#DejaVuSans-20" x="1825.601562"/>
    </g>
   </g>
  </g>
  <g id="axes_2">
   <g id="patch_7">
    <path d="M 90 512.64 
L 648 512.64 
L 648 327.84 
L 90 327.84 
z
" style="fill: #ffffff"/>
   </g>
   <g id="matplotlib.axis_3">
    <g id="xtick_7">
     <g id="line2d_17">
      <g>
       <use xlink:href="#m08435e7091" x="115.363636" y="512.64" style="stroke: #000000; stroke-width: 0.8"/>
      </g>
     </g>
     <g id="text_14">
      <!-- 2023-04-18 -->
      <g transform="translate(86.305824 527.238438) scale(0.1 -0.1)">
       <use xlink:href="#DejaVuSans-32"/>
       <use xlink:href="#DejaVuSans-30" x="63.623047"/>
       <use xlink:href="#DejaVuSans-32" x="127.246094"/>
       <use xlink:href="#DejaVuSans-33" x="190.869141"/>
       <use xlink:href="#DejaVuSans-2d" x="254.492188"/>
       <use xlink:href="#DejaVuSans-30" x="290.576172"/>
       <use xlink:href="#DejaVuSans-34" x="354.199219"/>
       <use xlink:href="#DejaVuSans-2d" x="417.822266"/>
       <use xlink:href="#DejaVuSans-31" x="453.90625"/>
       <use xlink:href="#DejaVuSans-38" x="517.529297"/>
      </g>
     </g>
    </g>
    <g id="xtick_8">
     <g id="line2d_18">
      <g>
       <use xlink:href="#m08435e7091" x="217.842975" y="512.64" style="stroke: #000000; stroke-width: 0.8"/>
      </g>
     </g>
     <g id="text_15">
      <!-- 2022-12-20 -->
      <g transform="translate(188.785163 527.238438) scale(0.1 -0.1)">
       <use xlink:href="#DejaVuSans-32"/>
       <use xlink:href="#DejaVuSans-30" x="63.623047"/>
       <use xlink:href="#DejaVuSans-32" x="127.246094"/>
       <use xlink:href="#DejaVuSans-32" x="190.869141"/>
       <use xlink:href="#DejaVuSans-2d" x="254.492188"/>
       <use xlink:href="#DejaVuSans-31" x="290.576172"/>
       <use xlink:href="#DejaVuSans-32" x="354.199219"/>
       <use xlink:href="#DejaVuSans-2d" x="417.822266"/>
       <use xlink:href="#DejaVuSans-32" x="453.90625"/>
       <use xlink:href="#DejaVuSans-30" x="517.529297"/>
      </g>
     </g>
    </g>
    <g id="xtick_9">
     <g id="line2d_19">
      <g>
       <use xlink:href="#m08435e7091" x="320.322314" y="512.64" style="stroke: #000000; stroke-width: 0.8"/>
      </g>
     </g>
     <g id="text_16">
      <!-- 2023-01-20 -->
      <g transform="translate(291.264502 527.238438) scale(0.1 -0.1)">
       <use xlink:href="#DejaVuSans-32"/>
       <use xlink:href="#DejaVuSans-30" x="63.623047"/>
       <use xlink:href="#DejaVuSans-32" x="127.246094"/>
       <use xlink:href="#DejaVuSans-33" x="190.869141"/>
       <use xlink:href="#DejaVuSans-2d" x="254.492188"/>
       <use xlink:href="#DejaVuSans-30" x="290.576172"/>
       <use xlink:href="#DejaVuSans-31" x="354.199219"/>
       <use xlink:href="#DejaVuSans-2d" x="417.822266"/>
       <use xlink:href="#DejaVuSans-32" x="453.90625"/>
       <use xlink:href="#DejaVuSans-30" x="517.529297"/>
      </g>
     </g>
    </g>
    <g id="xtick_10">
     <g id="line2d_20">
      <g>
       <use xlink:href="#m08435e7091" x="422.801653" y="512.64" style="stroke: #000000; stroke-width: 0.8"/>
      </g>
     </g>
     <g id="text_17">
      <!-- 2023-02-17 -->
      <g transform="translate(393.74384 527.238438) scale(0.1 -0.1)">
       <use xlink:href="#DejaVuSans-32"/>
       <use xlink:href="#DejaVuSans-30" x="63.623047"/>
       <use xlink:href="#DejaVuSans-32" x="127.246094"/>
       <use xlink:href="#DejaVuSans-33" x="190.869141"/>
       <use xlink:href="#DejaVuSans-2d" x="254.492188"/>
       <use xlink:href="#DejaVuSans-30" x="290.576172"/>
       <use xlink:href="#DejaVuSans-32" x="354.199219"/>
       <use xlink:href="#DejaVuSans-2d" x="417.822266"/>
       <use xlink:href="#DejaVuSans-31" x="453.90625"/>
       <use xlink:href="#DejaVuSans-37" x="517.529297"/>
      </g>
     </g>
    </g>
    <g id="xtick_11">
     <g id="line2d_21">
      <g>
       <use xlink:href="#m08435e7091" x="525.280992" y="512.64" style="stroke: #000000; stroke-width: 0.8"/>
      </g>
     </g>
     <g id="text_18">
      <!-- 2023-03-20 -->
      <g transform="translate(496.223179 527.238438) scale(0.1 -0.1)">
       <use xlink:href="#DejaVuSans-32"/>
       <use xlink:href="#DejaVuSans-30" x="63.623047"/>
       <use xlink:href="#DejaVuSans-32" x="127.246094"/>
       <use xlink:href="#DejaVuSans-33" x="190.869141"/>
       <use xlink:href="#DejaVuSans-2d" x="254.492188"/>
       <use xlink:href="#DejaVuSans-30" x="290.576172"/>
       <use xlink:href="#DejaVuSans-33" x="354.199219"/>
       <use xlink:href="#DejaVuSans-2d" x="417.822266"/>
       <use xlink:href="#DejaVuSans-32" x="453.90625"/>
       <use xlink:href="#DejaVuSans-30" x="517.529297"/>
      </g>
     </g>
    </g>
    <g id="xtick_12">
     <g id="line2d_22">
      <g>
       <use xlink:href="#m08435e7091" x="627.760331" y="512.64" style="stroke: #000000; stroke-width: 0.8"/>
      </g>
     </g>
    </g>
    <g id="text_19">
     <!-- Date -->
     <g transform="translate(357.049219 540.916563) scale(0.1 -0.1)">
      <use xlink:href="#DejaVuSans-44"/>
      <use xlink:href="#DejaVuSans-61" x="77.001953"/>
      <use xlink:href="#DejaVuSans-74" x="138.28125"/>
      <use xlink:href="#DejaVuSans-65" x="177.490234"/>
     </g>
    </g>
   </g>
   <g id="matplotlib.axis_4">
    <g id="ytick_6">
     <g id="line2d_23">
      <g>
       <use xlink:href="#me048e11da3" x="90" y="504.609524" style="stroke: #000000; stroke-width: 0.8"/>
      </g>
     </g>
     <g id="text_20">
      <!-- 0.0 -->
      <g transform="translate(67.096875 508.408743) scale(0.1 -0.1)">
       <defs>
        <path id="DejaVuSans-2e" d="M 684 794 
L 1344 794 
L 1344 0 
L 684 0 
L 684 794 
z
" transform="scale(0.015625)"/>
       </defs>
       <use xlink:href="#DejaVuSans-30"/>
       <use xlink:href="#DejaVuSans-2e" x="63.623047"/>
       <use xlink:href="#DejaVuSans-30" x="95.410156"/>
      </g>
     </g>
    </g>
    <g id="ytick_7">
     <g id="line2d_24">
      <g>
       <use xlink:href="#me048e11da3" x="90" y="483.583952" style="stroke: #000000; stroke-width: 0.8"/>
      </g>
     </g>
     <g id="text_21">
      <!-- 0.2 -->
      <g transform="translate(67.096875 487.383171) scale(0.1 -0.1)">
       <use xlink:href="#DejaVuSans-30"/>
       <use xlink:href="#DejaVuSans-2e" x="63.623047"/>
       <use xlink:href="#DejaVuSans-32" x="95.410156"/>
      </g>
     </g>
    </g>
    <g id="ytick_8">
     <g id="line2d_25">
      <g>
       <use xlink:href="#me048e11da3" x="90" y="462.55838" style="stroke: #000000; stroke-width: 0.8"/>
      </g>
     </g>
     <g id="text_22">
      <!-- 0.4 -->
      <g transform="translate(67.096875 466.357598) scale(0.1 -0.1)">
       <use xlink:href="#DejaVuSans-30"/>
       <use xlink:href="#DejaVuSans-2e" x="63.623047"/>
       <use xlink:href="#DejaVuSans-34" x="95.410156"/>
      </g>
     </g>
    </g>
    <g id="ytick_9">
     <g id="line2d_26">
      <g>
       <use xlink:href="#me048e11da3" x="90" y="441.532807" style="stroke: #000000; stroke-width: 0.8"/>
      </g>
     </g>
     <g id="text_23">
      <!-- 0.6 -->
      <g transform="translate(67.096875 445.332026) scale(0.1 -0.1)">
       <defs>
        <path id="DejaVuSans-36" d="M 2113 2584 
Q 1688 2584 1439 2293 
Q 1191 2003 1191 1497 
Q 1191 994 1439 701 
Q 1688 409 2113 409 
Q 2538 409 2786 701 
Q 3034 994 3034 1497 
Q 3034 2003 2786 2293 
Q 2538 2584 2113 2584 
z
M 3366 4563 
L 3366 3988 
Q 3128 4100 2886 4159 
Q 2644 4219 2406 4219 
Q 1781 4219 1451 3797 
Q 1122 3375 1075 2522 
Q 1259 2794 1537 2939 
Q 1816 3084 2150 3084 
Q 2853 3084 3261 2657 
Q 3669 2231 3669 1497 
Q 3669 778 3244 343 
Q 2819 -91 2113 -91 
Q 1303 -91 875 529 
Q 447 1150 447 2328 
Q 447 3434 972 4092 
Q 1497 4750 2381 4750 
Q 2619 4750 2861 4703 
Q 3103 4656 3366 4563 
z
" transform="scale(0.015625)"/>
       </defs>
       <use xlink:href="#DejaVuSans-30"/>
       <use xlink:href="#DejaVuSans-2e" x="63.623047"/>
       <use xlink:href="#DejaVuSans-36" x="95.410156"/>
      </g>
     </g>
    </g>
    <g id="ytick_10">
     <g id="line2d_27">
      <g>
       <use xlink:href="#me048e11da3" x="90" y="420.507235" style="stroke: #000000; stroke-width: 0.8"/>
      </g>
     </g>
     <g id="text_24">
      <!-- 0.8 -->
      <g transform="translate(67.096875 424.306454) scale(0.1 -0.1)">
       <use xlink:href="#DejaVuSans-30"/>
       <use xlink:href="#DejaVuSans-2e" x="63.623047"/>
       <use xlink:href="#DejaVuSans-38" x="95.410156"/>
      </g>
     </g>
    </g>
    <g id="ytick_11">
     <g id="line2d_28">
      <g>
       <use xlink:href="#me048e11da3" x="90" y="399.481663" style="stroke: #000000; stroke-width: 0.8"/>
      </g>
     </g>
     <g id="text_25">
      <!-- 1.0 -->
      <g transform="translate(67.096875 403.280881) scale(0.1 -0.1)">
       <use xlink:href="#DejaVuSans-31"/>
       <use xlink:href="#DejaVuSans-2e" x="63.623047"/>
       <use xlink:href="#DejaVuSans-30" x="95.410156"/>
      </g>
     </g>
    </g>
    <g id="ytick_12">
     <g id="line2d_29">
      <g>
       <use xlink:href="#me048e11da3" x="90" y="378.45609" style="stroke: #000000; stroke-width: 0.8"/>
      </g>
     </g>
     <g id="text_26">
      <!-- 1.2 -->
      <g transform="translate(67.096875 382.255309) scale(0.1 -0.1)">
       <use xlink:href="#DejaVuSans-31"/>
       <use xlink:href="#DejaVuSans-2e" x="63.623047"/>
       <use xlink:href="#DejaVuSans-32" x="95.410156"/>
      </g>
     </g>
    </g>
    <g id="ytick_13">
     <g id="line2d_30">
      <g>
       <use xlink:href="#me048e11da3" x="90" y="357.430518" style="stroke: #000000; stroke-width: 0.8"/>
      </g>
     </g>
     <g id="text_27">
      <!-- 1.4 -->
      <g transform="translate(67.096875 361.229737) scale(0.1 -0.1)">
       <use xlink:href="#DejaVuSans-31"/>
       <use xlink:href="#DejaVuSans-2e" x="63.623047"/>
       <use xlink:href="#DejaVuSans-34" x="95.410156"/>
      </g>
     </g>
    </g>
    <g id="ytick_14">
     <g id="line2d_31">
      <g>
       <use xlink:href="#me048e11da3" x="90" y="336.404946" style="stroke: #000000; stroke-width: 0.8"/>
      </g>
     </g>
     <g id="text_28">
      <!-- 1.6 -->
      <g transform="translate(67.096875 340.204164) scale(0.1 -0.1)">
       <use xlink:href="#DejaVuSans-31"/>
       <use xlink:href="#DejaVuSans-2e" x="63.623047"/>
       <use xlink:href="#DejaVuSans-36" x="95.410156"/>
      </g>
     </g>
    </g>
    <g id="text_29">
     <!-- Stock Volume -->
     <g transform="translate(61.017187 454.264219) rotate(-90) scale(0.1 -0.1)">
      <defs>
       <path id="DejaVuSans-56" d="M 1831 0 
L 50 4666 
L 709 4666 
L 2188 738 
L 3669 4666 
L 4325 4666 
L 2547 0 
L 1831 0 
z
" transform="scale(0.015625)"/>
       <path id="DejaVuSans-75" d="M 544 1381 
L 544 3500 
L 1119 3500 
L 1119 1403 
Q 1119 906 1312 657 
Q 1506 409 1894 409 
Q 2359 409 2629 706 
Q 2900 1003 2900 1516 
L 2900 3500 
L 3475 3500 
L 3475 0 
L 2900 0 
L 2900 538 
Q 2691 219 2414 64 
Q 2138 -91 1772 -91 
Q 1169 -91 856 284 
Q 544 659 544 1381 
z
M 1991 3584 
L 1991 3584 
z
" transform="scale(0.015625)"/>
      </defs>
      <use xlink:href="#DejaVuSans-53"/>
      <use xlink:href="#DejaVuSans-74" x="63.476562"/>
      <use xlink:href="#DejaVuSans-6f" x="102.685547"/>
      <use xlink:href="#DejaVuSans-63" x="163.867188"/>
      <use xlink:href="#DejaVuSans-6b" x="218.847656"/>
      <use xlink:href="#DejaVuSans-20" x="276.757812"/>
      <use xlink:href="#DejaVuSans-56" x="308.544922"/>
      <use xlink:href="#DejaVuSans-6f" x="369.203125"/>
      <use xlink:href="#DejaVuSans-6c" x="430.384766"/>
      <use xlink:href="#DejaVuSans-75" x="458.167969"/>
      <use xlink:href="#DejaVuSans-6d" x="521.546875"/>
      <use xlink:href="#DejaVuSans-65" x="618.958984"/>
     </g>
    </g>
    <g id="text_30">
     <!-- 1e8 -->
     <g transform="translate(90 324.84) scale(0.1 -0.1)">
      <use xlink:href="#DejaVuSans-31"/>
      <use xlink:href="#DejaVuSans-65" x="63.623047"/>
      <use xlink:href="#DejaVuSans-38" x="125.146484"/>
     </g>
    </g>
   </g>
   <g id="line2d_32">
    <path d="M 115.363636 502.912066 
L 120.487603 502.762323 
L 125.61157 502.139335 
L 130.735537 503.681876 
L 135.859504 501.693803 
L 140.983471 502.650887 
L 146.107438 498.479939 
L 151.231405 501.83541 
L 156.355372 502.6942 
L 161.479339 502.356529 
L 166.603306 502.591595 
L 171.727273 501.769495 
L 176.85124 500.630119 
L 181.975207 502.154894 
L 187.099174 500.532876 
L 192.22314 501.185615 
L 197.347107 501.355081 
L 202.471074 501.101933 
L 207.595041 496.620017 
L 212.719008 502.044299 
L 217.842975 501.557663 
L 222.966942 501.899223 
L 228.090909 502.308906 
L 233.214876 501.866423 
L 238.338843 502.705449 
L 243.46281 502.547967 
L 248.586777 502.443049 
L 253.710744 502.406044 
L 258.834711 501.862744 
L 263.958678 501.697798 
L 269.082645 501.869262 
L 274.206612 502.068584 
L 279.330579 501.590988 
L 284.454545 502.876912 
L 289.578512 502.492775 
L 294.702479 502.675697 
L 299.826446 502.829289 
L 304.950413 500.91859 
L 310.07438 500.132654 
L 315.198347 499.374472 
L 320.322314 500.011757 
L 325.446281 501.022352 
L 330.570248 493.80606 
L 335.694215 498.309001 
L 340.818182 499.74673 
L 345.942149 500.284039 
L 351.066116 498.403932 
L 356.190083 499.27828 
L 361.31405 501.34972 
L 366.438017 499.440177 
L 371.561983 501.789575 
L 376.68595 501.994679 
L 381.809917 502.314899 
L 386.933884 501.969028 
L 392.057851 500.822924 
L 397.181818 502.218391 
L 402.305785 502.246671 
L 407.429752 502.020961 
L 412.553719 501.952628 
L 417.677686 501.776223 
L 422.801653 501.636824 
L 427.92562 500.520997 
L 433.049587 501.81838 
L 438.173554 501.51477 
L 443.297521 501.599819 
L 448.421488 500.871178 
L 453.545455 501.055677 
L 458.669421 499.442805 
L 463.793388 496.631056 
L 468.917355 501.412796 
L 474.041322 501.644078 
L 479.165289 501.063772 
L 484.289256 500.998698 
L 489.413223 500.968211 
L 494.53719 500.726206 
L 499.661157 500.182485 
L 504.785124 499.592823 
L 509.909091 499.466985 
L 515.033058 500.780137 
L 520.157025 492.639981 
L 525.280992 501.748049 
L 530.404959 501.85139 
L 535.528926 501.660162 
L 540.652893 501.269297 
L 545.77686 500.874437 
L 550.900826 501.668678 
L 556.024793 502.020435 
L 561.14876 501.222725 
L 566.272727 502.139335 
L 571.396694 500.814829 
L 576.520661 500.386223 
L 581.644628 500.958118 
L 586.768595 501.821534 
L 591.892562 502.066271 
L 597.016529 501.581632 
L 602.140496 501.50615 
L 607.264463 501.745 
L 612.38843 500.998172 
L 617.512397 501.673934 
L 622.636364 502.050607 
" clip-path="url(#p47cda85536)" style="fill: none; stroke: #1f77b4; stroke-width: 1.5; stroke-linecap: square"/>
   </g>
   <g id="line2d_33">
    <path d="M 115.363636 503.039024 
L 120.487603 503.119337 
L 125.61157 503.317398 
L 130.735537 503.896863 
L 135.859504 503.292167 
L 140.983471 503.500425 
L 146.107438 501.700531 
L 151.231405 502.751705 
L 156.355372 502.775569 
L 161.479339 502.716908 
L 166.603306 502.590754 
L 171.727273 502.652464 
L 176.85124 502.458608 
L 181.975207 502.688628 
L 187.099174 502.055023 
L 192.22314 500.912388 
L 197.347107 501.926451 
L 202.471074 501.592355 
L 207.595041 497.742047 
L 212.719008 500.249346 
L 217.842975 501.347933 
L 222.966942 500.845842 
L 228.090909 502.216604 
L 233.214876 503.334008 
L 238.338843 503.548154 
L 243.46281 503.151401 
L 248.586777 503.014945 
L 253.710744 503.201337 
L 258.834711 502.244042 
L 263.958678 502.45188 
L 269.082645 502.005402 
L 274.206612 502.941145 
L 279.330579 502.31616 
L 284.454545 502.661505 
L 289.578512 502.104958 
L 294.702479 501.999725 
L 299.826446 502.268537 
L 304.950413 501.598978 
L 310.07438 502.304386 
L 315.198347 502.28357 
L 320.322314 501.133367 
L 325.446281 501.883244 
L 330.570248 502.29114 
L 335.694215 501.901115 
L 340.818182 502.567311 
L 345.942149 502.400683 
L 351.066116 502.787764 
L 356.190083 502.673279 
L 361.31405 502.720377 
L 366.438017 501.754357 
L 371.561983 502.330352 
L 376.68595 503.28239 
L 381.809917 503.136578 
L 386.933884 503.156868 
L 392.057851 502.767684 
L 397.181818 503.192821 
L 402.305785 503.259157 
L 407.429752 502.695041 
L 412.553719 502.622398 
L 417.677686 502.612936 
L 422.801653 501.747524 
L 427.92562 502.037887 
L 433.049587 502.692202 
L 438.173554 502.627339 
L 443.297521 502.785556 
L 448.421488 503.019045 
L 453.545455 502.338342 
L 458.669421 502.821825 
L 463.793388 502.214396 
L 468.917355 502.931579 
L 474.041322 502.875861 
L 479.165289 502.276422 
L 484.289256 503.071819 
L 489.413223 502.559741 
L 494.53719 501.534955 
L 499.661157 501.211687 
L 504.785124 501.533904 
L 509.909091 499.87036 
L 515.033058 500.278677 
L 520.157025 497.806911 
L 525.280992 501.264251 
L 530.404959 501.633144 
L 535.528926 501.393348 
L 540.652893 499.177673 
L 545.77686 500.274472 
L 550.900826 500.673748 
L 556.024793 501.592986 
L 561.14876 502.05334 
L 566.272727 502.198312 
L 571.396694 501.445912 
L 576.520661 502.068269 
L 581.644628 502.158258 
L 586.768595 502.041041 
L 591.892562 502.375242 
L 597.016529 502.952814 
L 602.140496 501.326907 
L 607.264463 501.817328 
L 612.38843 501.283069 
L 617.512397 501.590568 
L 622.636364 501.561868 
" clip-path="url(#p47cda85536)" style="fill: none; stroke: #ff7f0e; stroke-width: 1.5; stroke-linecap: square"/>
   </g>
   <g id="line2d_34">
    <path d="M 115.363636 464.273742 
L 120.487603 439.228405 
L 125.61157 442.148121 
L 130.735537 467.72163 
L 135.859504 425.823446 
L 140.983471 435.680024 
L 146.107438 396.531985 
L 151.231405 432.609554 
L 156.355372 428.395609 
L 161.479339 429.405783 
L 166.603306 425.234204 
L 171.727273 433.031222 
L 176.85124 427.544599 
L 181.975207 433.754923 
L 187.099174 439.43046 
L 192.22314 399.258792 
L 197.347107 430.70674 
L 202.471074 415.458049 
L 207.595041 350.971357 
L 212.719008 416.794645 
L 217.842975 426.448746 
L 222.966942 442.303184 
L 228.090909 419.00254 
L 233.214876 444.230704 
L 238.338843 444.38808 
L 243.46281 443.395042 
L 248.586777 446.793511 
L 253.710744 439.008477 
L 258.834711 423.970147 
L 263.958678 432.192092 
L 269.082645 433.195327 
L 274.206612 417.034441 
L 279.330579 435.996669 
L 284.454545 433.37846 
L 289.578512 396.195155 
L 294.702479 414.982976 
L 299.826446 414.673269 
L 304.950413 428.123749 
L 310.07438 420.958864 
L 315.198347 432.068461 
L 320.322314 433.667666 
L 325.446281 424.185554 
L 330.570248 434.247972 
L 335.694215 405.51432 
L 340.818182 432.572129 
L 345.942149 412.332913 
L 351.066116 430.292642 
L 356.190083 434.670796 
L 361.31405 420.034055 
L 366.438017 338.345396 
L 371.561983 352.831384 
L 376.68595 418.462288 
L 381.809917 378.980363 
L 386.933884 424.84029 
L 392.057851 436.673272 
L 397.181818 449.164985 
L 402.305785 449.058385 
L 407.429752 445.524617 
L 412.553719 454.192725 
L 417.677686 445.381328 
L 422.801653 441.5019 
L 427.92562 445.12776 
L 433.049587 442.022598 
L 438.173554 453.657204 
L 443.297521 444.630084 
L 448.421488 454.705013 
L 453.545455 458.396052 
L 458.669421 449.628178 
L 463.793388 446.253679 
L 468.917355 445.990649 
L 474.041322 449.824873 
L 479.165289 452.991008 
L 484.289256 457.408061 
L 489.413223 445.508007 
L 494.53719 431.201367 
L 499.661157 428.500001 
L 504.785124 440.573305 
L 509.909091 430.250696 
L 515.033058 415.832304 
L 520.157025 412.832691 
L 525.280992 439.021408 
L 530.404959 443.007436 
L 535.528926 444.186865 
L 540.652893 444.098663 
L 545.77686 445.63763 
L 550.900826 455.492421 
L 556.024793 463.903911 
L 561.14876 452.273406 
L 566.272727 448.225878 
L 571.396694 444.997506 
L 576.520661 461.364443 
L 581.644628 453.451679 
L 586.768595 457.117592 
L 591.892562 458.555111 
L 597.016529 465.437622 
L 602.140496 441.093583 
L 607.264463 444.965232 
L 612.38843 433.201319 
L 617.512397 450.586103 
L 622.636364 462.643008 
" clip-path="url(#p47cda85536)" style="fill: none; stroke: #2ca02c; stroke-width: 1.5; stroke-linecap: square"/>
   </g>
   <g id="line2d_35">
    <path d="M 115.363636 504.120568 
L 120.487603 504.019547 
L 125.61157 503.827689 
L 130.735537 504.24 
L 135.859504 503.868583 
L 140.983471 504.048562 
L 146.107438 503.066878 
L 151.231405 503.756096 
L 156.355372 503.995052 
L 161.479339 503.989901 
L 166.603306 503.676515 
L 171.727273 503.989691 
L 176.85124 504.023857 
L 181.975207 503.895811 
L 187.099174 503.562871 
L 192.22314 503.786058 
L 197.347107 503.896547 
L 202.471074 503.899175 
L 207.595041 502.591805 
L 212.719008 503.888032 
L 217.842975 503.567497 
L 222.966942 503.980124 
L 228.090909 504.042254 
L 233.214876 504.146646 
L 238.338843 504.196582 
L 243.46281 503.999152 
L 248.586777 504.10838 
L 253.710744 504.030585 
L 258.834711 503.935865 
L 263.958678 503.906534 
L 269.082645 503.583792 
L 274.206612 504.040572 
L 279.330579 503.77933 
L 284.454545 503.857124 
L 289.578512 503.711417 
L 294.702479 504.010926 
L 299.826446 504.044147 
L 304.950413 503.753258 
L 310.07438 503.782484 
L 315.198347 504.090613 
L 320.322314 503.814127 
L 325.446281 503.932816 
L 330.570248 503.919255 
L 335.694215 503.71804 
L 340.818182 503.75515 
L 345.942149 503.811499 
L 351.066116 503.75473 
L 356.190083 503.592517 
L 361.31405 503.597353 
L 366.438017 503.636566 
L 371.561983 503.225201 
L 376.68595 503.393405 
L 381.809917 503.551833 
L 386.933884 502.872076 
L 392.057851 503.646553 
L 397.181818 503.741589 
L 402.305785 503.825165 
L 407.429752 503.720353 
L 412.553719 503.884352 
L 417.677686 503.090111 
L 422.801653 501.759193 
L 427.92562 503.44618 
L 433.049587 503.944065 
L 438.173554 503.539113 
L 443.297521 503.644766 
L 448.421488 503.390462 
L 453.545455 502.369986 
L 458.669421 497.708196 
L 463.793388 499.036591 
L 468.917355 501.920879 
L 474.041322 503.170534 
L 479.165289 503.414851 
L 484.289256 503.69754 
L 489.413223 503.271352 
L 494.53719 503.043645 
L 499.661157 502.863666 
L 504.785124 503.119127 
L 509.909091 503.008007 
L 515.033058 503.122806 
L 520.157025 501.861692 
L 525.280992 502.723846 
L 530.404959 503.104514 
L 535.528926 503.496851 
L 540.652893 503.447021 
L 545.77686 503.728973 
L 550.900826 503.704163 
L 556.024793 503.899386 
L 561.14876 503.969506 
L 566.272727 503.803299 
L 571.396694 503.494433 
L 576.520661 503.996419 
L 581.644628 503.749263 
L 586.768595 503.657487 
L 591.892562 503.495905 
L 597.016529 503.636461 
L 602.140496 503.910634 
L 607.264463 503.699853 
L 612.38843 503.586841 
L 617.512397 503.770078 
L 622.636364 503.913788 
" clip-path="url(#p47cda85536)" style="fill: none; stroke: #d62728; stroke-width: 1.5; stroke-linecap: square"/>
   </g>
   <g id="line2d_36">
    <path d="M 115.363636 455.579212 
L 120.487603 450.148982 
L 125.61157 443.318509 
L 130.735537 467.608827 
L 135.859504 431.812685 
L 140.983471 416.550433 
L 146.107438 387.517166 
L 151.231405 429.705502 
L 156.355372 435.806072 
L 161.479339 432.253802 
L 166.603306 436.563203 
L 171.727273 431.313223 
L 176.85124 439.295371 
L 181.975207 424.610375 
L 187.099174 430.533595 
L 192.22314 405.90897 
L 197.347107 418.098545 
L 202.471074 400.604533 
L 207.595041 336.24 
L 212.719008 420.935526 
L 217.842975 423.206077 
L 222.966942 414.275255 
L 228.090909 422.765276 
L 233.214876 437.522285 
L 238.338843 432.0631 
L 243.46281 414.789961 
L 248.586777 425.023843 
L 253.710744 423.625117 
L 258.834711 386.742794 
L 263.958678 410.926302 
L 269.082645 419.495169 
L 274.206612 412.354885 
L 279.330579 430.18867 
L 284.454545 437.436816 
L 289.578512 431.588868 
L 294.702479 429.569677 
L 299.826446 443.835423 
L 304.950413 437.699215 
L 310.07438 431.364 
L 315.198347 443.340586 
L 320.322314 420.272169 
L 325.446281 418.656669 
L 330.570248 434.767724 
L 335.694215 435.436127 
L 340.818182 447.72999 
L 345.942149 430.435721 
L 351.066116 437.311608 
L 356.190083 435.357071 
L 361.31405 422.963442 
L 366.438017 380.202264 
L 371.561983 342.336995 
L 376.68595 431.168987 
L 381.809917 417.014257 
L 386.933884 437.201434 
L 392.057851 445.730458 
L 397.181818 444.212832 
L 402.305785 439.221046 
L 407.429752 439.737644 
L 412.553719 435.673191 
L 417.677686 432.946069 
L 422.801653 442.432597 
L 427.92562 442.723696 
L 433.049587 450.982435 
L 438.173554 453.733737 
L 443.297521 446.29552 
L 448.421488 457.303564 
L 453.545455 451.470544 
L 458.669421 446.285638 
L 463.793388 449.692727 
L 468.917355 430.25017 
L 474.041322 412.561671 
L 479.165289 445.546589 
L 484.289256 454.984128 
L 489.413223 448.015412 
L 494.53719 432.520827 
L 499.661157 415.821581 
L 504.785124 427.134601 
L 509.909091 423.484561 
L 515.033058 424.542989 
L 520.157025 400.591182 
L 525.280992 427.191895 
L 530.404959 426.879771 
L 535.528926 425.025841 
L 540.652893 433.519857 
L 545.77686 442.37751 
L 550.900826 449.532722 
L 556.024793 456.258908 
L 561.14876 450.672939 
L 566.272727 452.569446 
L 571.396694 432.392255 
L 576.520661 444.711664 
L 581.644628 455.958137 
L 586.768595 450.456376 
L 591.892562 456.891883 
L 597.016529 454.445768 
L 602.140496 454.522196 
L 607.264463 451.905668 
L 612.38843 432.654129 
L 617.512397 452.742381 
L 622.636364 460.964431 
" clip-path="url(#p47cda85536)" style="fill: none; stroke: #9467bd; stroke-width: 1.5; stroke-linecap: square"/>
   </g>
   <g id="patch_8">
    <path d="M 90 512.64 
L 90 327.84 
" style="fill: none; stroke: #000000; stroke-width: 0.8; stroke-linejoin: miter; stroke-linecap: square"/>
   </g>
   <g id="patch_9">
    <path d="M 648 512.64 
L 648 327.84 
" style="fill: none; stroke: #000000; stroke-width: 0.8; stroke-linejoin: miter; stroke-linecap: square"/>
   </g>
   <g id="patch_10">
    <path d="M 90 512.64 
L 648 512.64 
" style="fill: none; stroke: #000000; stroke-width: 0.8; stroke-linejoin: miter; stroke-linecap: square"/>
   </g>
   <g id="patch_11">
    <path d="M 90 327.84 
L 648 327.84 
" style="fill: none; stroke: #000000; stroke-width: 0.8; stroke-linejoin: miter; stroke-linecap: square"/>
   </g>
   <g id="text_31">
    <!-- S&amp;P 500 company-level Stock Volume -->
    <g transform="translate(254.909063 321.84) scale(0.12 -0.12)">
     <use xlink:href="#DejaVuSans-53"/>
     <use xlink:href="#DejaVuSans-26" x="63.476562"/>
     <use xlink:href="#DejaVuSans-50" x="141.455078"/>
     <use xlink:href="#DejaVuSans-20" x="201.757812"/>
     <use xlink:href="#DejaVuSans-35" x="233.544922"/>
     <use xlink:href="#DejaVuSans-30" x="297.167969"/>
     <use xlink:href="#DejaVuSans-30" x="360.791016"/>
     <use xlink:href="#DejaVuSans-20" x="424.414062"/>
     <use xlink:href="#DejaVuSans-63" x="456.201172"/>
     <use xlink:href="#DejaVuSans-6f" x="511.181641"/>
     <use xlink:href="#DejaVuSans-6d" x="572.363281"/>
     <use xlink:href="#DejaVuSans-70" x="669.775391"/>
     <use xlink:href="#DejaVuSans-61" x="733.251953"/>
     <use xlink:href="#DejaVuSans-6e" x="794.53125"/>
     <use xlink:href="#DejaVuSans-79" x="857.910156"/>
     <use xlink:href="#DejaVuSans-2d" x="915.339844"/>
     <use xlink:href="#DejaVuSans-6c" x="951.423828"/>
     <use xlink:href="#DejaVuSans-65" x="979.207031"/>
     <use xlink:href="#DejaVuSans-76" x="1040.730469"/>
     <use xlink:href="#DejaVuSans-65" x="1099.910156"/>
     <use xlink:href="#DejaVuSans-6c" x="1161.433594"/>
     <use xlink:href="#DejaVuSans-20" x="1189.216797"/>
     <use xlink:href="#DejaVuSans-53" x="1221.003906"/>
     <use xlink:href="#DejaVuSans-74" x="1284.480469"/>
     <use xlink:href="#DejaVuSans-6f" x="1323.689453"/>
     <use xlink:href="#DejaVuSans-63" x="1384.871094"/>
     <use xlink:href="#DejaVuSans-6b" x="1439.851562"/>
     <use xlink:href="#DejaVuSans-20" x="1497.761719"/>
     <use xlink:href="#DejaVuSans-56" x="1529.548828"/>
     <use xlink:href="#DejaVuSans-6f" x="1590.207031"/>
     <use xlink:href="#DejaVuSans-6c" x="1651.388672"/>
     <use xlink:href="#DejaVuSans-75" x="1679.171875"/>
     <use xlink:href="#DejaVuSans-6d" x="1742.550781"/>
     <use xlink:href="#DejaVuSans-65" x="1839.962891"/>
    </g>
   </g>
  </g>
  <g id="legend_1">
   <g id="patch_12">
    <path d="M 651.2 81.390625 
L 713 81.390625 
Q 715 81.390625 715 79.390625 
L 715 7 
Q 715 5 713 5 
L 651.2 5 
Q 649.2 5 649.2 7 
L 649.2 79.390625 
Q 649.2 81.390625 651.2 81.390625 
z
" style="fill: #ffffff; opacity: 0.8; stroke: #cccccc; stroke-linejoin: miter"/>
   </g>
   <g id="line2d_37">
    <path d="M 653.2 13.098438 
L 663.2 13.098438 
L 673.2 13.098438 
" style="fill: none; stroke: #1f77b4; stroke-width: 1.5; stroke-linecap: square"/>
   </g>
   <g id="text_32">
    <!-- MMM -->
    <g transform="translate(681.2 16.598438) scale(0.1 -0.1)">
     <defs>
      <path id="DejaVuSans-4d" d="M 628 4666 
L 1569 4666 
L 2759 1491 
L 3956 4666 
L 4897 4666 
L 4897 0 
L 4281 0 
L 4281 4097 
L 3078 897 
L 2444 897 
L 1241 4097 
L 1241 0 
L 628 0 
L 628 4666 
z
" transform="scale(0.015625)"/>
     </defs>
     <use xlink:href="#DejaVuSans-4d"/>
     <use xlink:href="#DejaVuSans-4d" x="86.279297"/>
     <use xlink:href="#DejaVuSans-4d" x="172.558594"/>
    </g>
   </g>
   <g id="line2d_38">
    <path d="M 653.2 27.776563 
L 663.2 27.776563 
L 673.2 27.776563 
" style="fill: none; stroke: #ff7f0e; stroke-width: 1.5; stroke-linecap: square"/>
   </g>
   <g id="text_33">
    <!-- ACN -->
    <g transform="translate(681.2 31.276563) scale(0.1 -0.1)">
     <defs>
      <path id="DejaVuSans-41" d="M 2188 4044 
L 1331 1722 
L 3047 1722 
L 2188 4044 
z
M 1831 4666 
L 2547 4666 
L 4325 0 
L 3669 0 
L 3244 1197 
L 1141 1197 
L 716 0 
L 50 0 
L 1831 4666 
z
" transform="scale(0.015625)"/>
      <path id="DejaVuSans-43" d="M 4122 4306 
L 4122 3641 
Q 3803 3938 3442 4084 
Q 3081 4231 2675 4231 
Q 1875 4231 1450 3742 
Q 1025 3253 1025 2328 
Q 1025 1406 1450 917 
Q 1875 428 2675 428 
Q 3081 428 3442 575 
Q 3803 722 4122 1019 
L 4122 359 
Q 3791 134 3420 21 
Q 3050 -91 2638 -91 
Q 1578 -91 968 557 
Q 359 1206 359 2328 
Q 359 3453 968 4101 
Q 1578 4750 2638 4750 
Q 3056 4750 3426 4639 
Q 3797 4528 4122 4306 
z
" transform="scale(0.015625)"/>
      <path id="DejaVuSans-4e" d="M 628 4666 
L 1478 4666 
L 3547 763 
L 3547 4666 
L 4159 4666 
L 4159 0 
L 3309 0 
L 1241 3903 
L 1241 0 
L 628 0 
L 628 4666 
z
" transform="scale(0.015625)"/>
     </defs>
     <use xlink:href="#DejaVuSans-41"/>
     <use xlink:href="#DejaVuSans-43" x="66.658203"/>
     <use xlink:href="#DejaVuSans-4e" x="136.482422"/>
    </g>
   </g>
   <g id="line2d_39">
    <path d="M 653.2 42.454688 
L 663.2 42.454688 
L 673.2 42.454688 
" style="fill: none; stroke: #2ca02c; stroke-width: 1.5; stroke-linecap: square"/>
   </g>
   <g id="text_34">
    <!-- AMZN -->
    <g transform="translate(681.2 45.954688) scale(0.1 -0.1)">
     <defs>
      <path id="DejaVuSans-5a" d="M 359 4666 
L 4025 4666 
L 4025 4184 
L 1075 531 
L 4097 531 
L 4097 0 
L 288 0 
L 288 481 
L 3238 4134 
L 359 4134 
L 359 4666 
z
" transform="scale(0.015625)"/>
     </defs>
     <use xlink:href="#DejaVuSans-41"/>
     <use xlink:href="#DejaVuSans-4d" x="68.408203"/>
     <use xlink:href="#DejaVuSans-5a" x="154.6875"/>
     <use xlink:href="#DejaVuSans-4e" x="223.193359"/>
    </g>
   </g>
   <g id="line2d_40">
    <path d="M 653.2 57.132812 
L 663.2 57.132812 
L 673.2 57.132812 
" style="fill: none; stroke: #d62728; stroke-width: 1.5; stroke-linecap: square"/>
   </g>
   <g id="text_35">
    <!-- AWK -->
    <g transform="translate(681.2 60.632812) scale(0.1 -0.1)">
     <defs>
      <path id="DejaVuSans-57" d="M 213 4666 
L 850 4666 
L 1831 722 
L 2809 4666 
L 3519 4666 
L 4500 722 
L 5478 4666 
L 6119 4666 
L 4947 0 
L 4153 0 
L 3169 4050 
L 2175 0 
L 1381 0 
L 213 4666 
z
" transform="scale(0.015625)"/>
      <path id="DejaVuSans-4b" d="M 628 4666 
L 1259 4666 
L 1259 2694 
L 3353 4666 
L 4166 4666 
L 1850 2491 
L 4331 0 
L 3500 0 
L 1259 2247 
L 1259 0 
L 628 0 
L 628 4666 
z
" transform="scale(0.015625)"/>
     </defs>
     <use xlink:href="#DejaVuSans-41"/>
     <use xlink:href="#DejaVuSans-57" x="62.908203"/>
     <use xlink:href="#DejaVuSans-4b" x="161.785156"/>
    </g>
   </g>
   <g id="line2d_41">
    <path d="M 653.2 71.810938 
L 663.2 71.810938 
L 673.2 71.810938 
" style="fill: none; stroke: #9467bd; stroke-width: 1.5; stroke-linecap: square"/>
   </g>
   <g id="text_36">
    <!-- AAPL -->
    <g transform="translate(681.2 75.310938) scale(0.1 -0.1)">
     <defs>
      <path id="DejaVuSans-4c" d="M 628 4666 
L 1259 4666 
L 1259 531 
L 3531 531 
L 3531 0 
L 628 0 
L 628 4666 
z
" transform="scale(0.015625)"/>
     </defs>
     <use xlink:href="#DejaVuSans-41"/>
     <use xlink:href="#DejaVuSans-41" x="71.158203"/>
     <use xlink:href="#DejaVuSans-50" x="139.566406"/>
     <use xlink:href="#DejaVuSans-4c" x="199.869141"/>
    </g>
   </g>
  </g>
 </g>
 <defs>
  <clipPath id="pe39f3ed31f">
   <rect x="90" y="69.12" width="558" height="184.8"/>
  </clipPath>
  <clipPath id="p47cda85536">
   <rect x="90" y="327.84" width="558" height="184.8"/>
  </clipPath>
 </defs>
</svg>
