<?xml version="1.0" encoding="utf-8" standalone="no"?>
<!DOCTYPE svg PUBLIC "-//W3C//DTD SVG 1.1//EN"
  "http://www.w3.org/Graphics/SVG/1.1/DTD/svg11.dtd">
<svg xmlns:xlink="http://www.w3.org/1999/xlink" width="460.8pt" height="345.6pt" viewBox="0 0 460.8 345.6" xmlns="http://www.w3.org/2000/svg" version="1.1">
 <metadata>
  <rdf:RDF xmlns:dc="http://purl.org/dc/elements/1.1/" xmlns:cc="http://creativecommons.org/ns#" xmlns:rdf="http://www.w3.org/1999/02/22-rdf-syntax-ns#">
   <cc:Work>
    <dc:type rdf:resource="http://purl.org/dc/dcmitype/StillImage"/>
    <dc:date>2023-04-21T16:45:33.400086</dc:date>
    <dc:format>image/svg+xml</dc:format>
    <dc:creator>
     <cc:Agent>
      <dc:title>Matplotlib v3.5.2, https://matplotlib.org/</dc:title>
     </cc:Agent>
    </dc:creator>
   </cc:Work>
  </rdf:RDF>
 </metadata>
 <defs>
  <style type="text/css">*{stroke-linejoin: round; stroke-linecap: butt}</style>
 </defs>
 <g id="figure_1">
  <g id="patch_1">
   <path d="M 0 345.6 
L 460.8 345.6 
L 460.8 0 
L 0 0 
z
" style="fill: #ffffff"/>
  </g>
  <g id="axes_1">
   <g id="patch_2">
    <path d="M 57.6 152.352 
L 414.72 152.352 
L 414.72 41.472 
L 57.6 41.472 
z
" style="fill: #ffffff"/>
   </g>
   <g id="matplotlib.axis_1">
    <g id="xtick_1">
     <g id="line2d_1">
      <defs>
       <path id="m7baffef2d1" d="M 0 0 
L 0 3.5 
" style="stroke: #000000; stroke-width: 0.8"/>
      </defs>
      <g>
       <use xlink:href="#m7baffef2d1" x="73.832727" y="152.352" style="stroke: #000000; stroke-width: 0.8"/>
      </g>
     </g>
     <g id="text_1">
      <!-- 2023-04-18 -->
      <g transform="translate(44.774915 166.950437)scale(0.1 -0.1)">
       <defs>
        <path id="DejaVuSans-32" d="M 1228 531 
L 3431 531 
L 3431 0 
L 469 0 
L 469 531 
Q 828 903 1448 1529 
Q 2069 2156 2228 2338 
Q 2531 2678 2651 2914 
Q 2772 3150 2772 3378 
Q 2772 3750 2511 3984 
Q 2250 4219 1831 4219 
Q 1534 4219 1204 4116 
Q 875 4013 500 3803 
L 500 4441 
Q 881 4594 1212 4672 
Q 1544 4750 1819 4750 
Q 2544 4750 2975 4387 
Q 3406 4025 3406 3419 
Q 3406 3131 3298 2873 
Q 3191 2616 2906 2266 
Q 2828 2175 2409 1742 
Q 1991 1309 1228 531 
z
" transform="scale(0.015625)"/>
        <path id="DejaVuSans-30" d="M 2034 4250 
Q 1547 4250 1301 3770 
Q 1056 3291 1056 2328 
Q 1056 1369 1301 889 
Q 1547 409 2034 409 
Q 2525 409 2770 889 
Q 3016 1369 3016 2328 
Q 3016 3291 2770 3770 
Q 2525 4250 2034 4250 
z
M 2034 4750 
Q 2819 4750 3233 4129 
Q 3647 3509 3647 2328 
Q 3647 1150 3233 529 
Q 2819 -91 2034 -91 
Q 1250 -91 836 529 
Q 422 1150 422 2328 
Q 422 3509 836 4129 
Q 1250 4750 2034 4750 
z
" transform="scale(0.015625)"/>
        <path id="DejaVuSans-33" d="M 2597 2516 
Q 3050 2419 3304 2112 
Q 3559 1806 3559 1356 
Q 3559 666 3084 287 
Q 2609 -91 1734 -91 
Q 1441 -91 1130 -33 
Q 819 25 488 141 
L 488 750 
Q 750 597 1062 519 
Q 1375 441 1716 441 
Q 2309 441 2620 675 
Q 2931 909 2931 1356 
Q 2931 1769 2642 2001 
Q 2353 2234 1838 2234 
L 1294 2234 
L 1294 2753 
L 1863 2753 
Q 2328 2753 2575 2939 
Q 2822 3125 2822 3475 
Q 2822 3834 2567 4026 
Q 2313 4219 1838 4219 
Q 1578 4219 1281 4162 
Q 984 4106 628 3988 
L 628 4550 
Q 988 4650 1302 4700 
Q 1616 4750 1894 4750 
Q 2613 4750 3031 4423 
Q 3450 4097 3450 3541 
Q 3450 3153 3228 2886 
Q 3006 2619 2597 2516 
z
" transform="scale(0.015625)"/>
        <path id="DejaVuSans-2d" d="M 313 2009 
L 1997 2009 
L 1997 1497 
L 313 1497 
L 313 2009 
z
" transform="scale(0.015625)"/>
        <path id="DejaVuSans-34" d="M 2419 4116 
L 825 1625 
L 2419 1625 
L 2419 4116 
z
M 2253 4666 
L 3047 4666 
L 3047 1625 
L 3713 1625 
L 3713 1100 
L 3047 1100 
L 3047 0 
L 2419 0 
L 2419 1100 
L 313 1100 
L 313 1709 
L 2253 4666 
z
" transform="scale(0.015625)"/>
        <path id="DejaVuSans-31" d="M 794 531 
L 1825 531 
L 1825 4091 
L 703 3866 
L 703 4441 
L 1819 4666 
L 2450 4666 
L 2450 531 
L 3481 531 
L 3481 0 
L 794 0 
L 794 531 
z
" transform="scale(0.015625)"/>
        <path id="DejaVuSans-38" d="M 2034 2216 
Q 1584 2216 1326 1975 
Q 1069 1734 1069 1313 
Q 1069 891 1326 650 
Q 1584 409 2034 409 
Q 2484 409 2743 651 
Q 3003 894 3003 1313 
Q 3003 1734 2745 1975 
Q 2488 2216 2034 2216 
z
M 1403 2484 
Q 997 2584 770 2862 
Q 544 3141 544 3541 
Q 544 4100 942 4425 
Q 1341 4750 2034 4750 
Q 2731 4750 3128 4425 
Q 3525 4100 3525 3541 
Q 3525 3141 3298 2862 
Q 3072 2584 2669 2484 
Q 3125 2378 3379 2068 
Q 3634 1759 3634 1313 
Q 3634 634 3220 271 
Q 2806 -91 2034 -91 
Q 1263 -91 848 271 
Q 434 634 434 1313 
Q 434 1759 690 2068 
Q 947 2378 1403 2484 
z
M 1172 3481 
Q 1172 3119 1398 2916 
Q 1625 2713 2034 2713 
Q 2441 2713 2670 2916 
Q 2900 3119 2900 3481 
Q 2900 3844 2670 4047 
Q 2441 4250 2034 4250 
Q 1625 4250 1398 4047 
Q 1172 3844 1172 3481 
z
" transform="scale(0.015625)"/>
       </defs>
       <use xlink:href="#DejaVuSans-32"/>
       <use xlink:href="#DejaVuSans-30" x="63.623047"/>
       <use xlink:href="#DejaVuSans-32" x="127.246094"/>
       <use xlink:href="#DejaVuSans-33" x="190.869141"/>
       <use xlink:href="#DejaVuSans-2d" x="254.492188"/>
       <use xlink:href="#DejaVuSans-30" x="290.576172"/>
       <use xlink:href="#DejaVuSans-34" x="354.199219"/>
       <use xlink:href="#DejaVuSans-2d" x="417.822266"/>
       <use xlink:href="#DejaVuSans-31" x="453.90625"/>
       <use xlink:href="#DejaVuSans-38" x="517.529297"/>
      </g>
     </g>
    </g>
    <g id="xtick_2">
     <g id="line2d_2">
      <g>
       <use xlink:href="#m7baffef2d1" x="139.419504" y="152.352" style="stroke: #000000; stroke-width: 0.8"/>
      </g>
     </g>
     <g id="text_2">
      <!-- 2022-12-20 -->
      <g transform="translate(110.361692 166.950437)scale(0.1 -0.1)">
       <use xlink:href="#DejaVuSans-32"/>
       <use xlink:href="#DejaVuSans-30" x="63.623047"/>
       <use xlink:href="#DejaVuSans-32" x="127.246094"/>
       <use xlink:href="#DejaVuSans-32" x="190.869141"/>
       <use xlink:href="#DejaVuSans-2d" x="254.492188"/>
       <use xlink:href="#DejaVuSans-31" x="290.576172"/>
       <use xlink:href="#DejaVuSans-32" x="354.199219"/>
       <use xlink:href="#DejaVuSans-2d" x="417.822266"/>
       <use xlink:href="#DejaVuSans-32" x="453.90625"/>
       <use xlink:href="#DejaVuSans-30" x="517.529297"/>
      </g>
     </g>
    </g>
    <g id="xtick_3">
     <g id="line2d_3">
      <g>
       <use xlink:href="#m7baffef2d1" x="205.006281" y="152.352" style="stroke: #000000; stroke-width: 0.8"/>
      </g>
     </g>
     <g id="text_3">
      <!-- 2023-01-20 -->
      <g transform="translate(175.948468 166.950437)scale(0.1 -0.1)">
       <use xlink:href="#DejaVuSans-32"/>
       <use xlink:href="#DejaVuSans-30" x="63.623047"/>
       <use xlink:href="#DejaVuSans-32" x="127.246094"/>
       <use xlink:href="#DejaVuSans-33" x="190.869141"/>
       <use xlink:href="#DejaVuSans-2d" x="254.492188"/>
       <use xlink:href="#DejaVuSans-30" x="290.576172"/>
       <use xlink:href="#DejaVuSans-31" x="354.199219"/>
       <use xlink:href="#DejaVuSans-2d" x="417.822266"/>
       <use xlink:href="#DejaVuSans-32" x="453.90625"/>
       <use xlink:href="#DejaVuSans-30" x="517.529297"/>
      </g>
     </g>
    </g>
    <g id="xtick_4">
     <g id="line2d_4">
      <g>
       <use xlink:href="#m7baffef2d1" x="270.593058" y="152.352" style="stroke: #000000; stroke-width: 0.8"/>
      </g>
     </g>
     <g id="text_4">
      <!-- 2023-02-17 -->
      <g transform="translate(241.535245 166.950437)scale(0.1 -0.1)">
       <defs>
        <path id="DejaVuSans-37" d="M 525 4666 
L 3525 4666 
L 3525 4397 
L 1831 0 
L 1172 0 
L 2766 4134 
L 525 4134 
L 525 4666 
z
" transform="scale(0.015625)"/>
       </defs>
       <use xlink:href="#DejaVuSans-32"/>
       <use xlink:href="#DejaVuSans-30" x="63.623047"/>
       <use xlink:href="#DejaVuSans-32" x="127.246094"/>
       <use xlink:href="#DejaVuSans-33" x="190.869141"/>
       <use xlink:href="#DejaVuSans-2d" x="254.492188"/>
       <use xlink:href="#DejaVuSans-30" x="290.576172"/>
       <use xlink:href="#DejaVuSans-32" x="354.199219"/>
       <use xlink:href="#DejaVuSans-2d" x="417.822266"/>
       <use xlink:href="#DejaVuSans-31" x="453.90625"/>
       <use xlink:href="#DejaVuSans-37" x="517.529297"/>
      </g>
     </g>
    </g>
    <g id="xtick_5">
     <g id="line2d_5">
      <g>
       <use xlink:href="#m7baffef2d1" x="336.179835" y="152.352" style="stroke: #000000; stroke-width: 0.8"/>
      </g>
     </g>
     <g id="text_5">
      <!-- 2023-03-20 -->
      <g transform="translate(307.122022 166.950437)scale(0.1 -0.1)">
       <use xlink:href="#DejaVuSans-32"/>
       <use xlink:href="#DejaVuSans-30" x="63.623047"/>
       <use xlink:href="#DejaVuSans-32" x="127.246094"/>
       <use xlink:href="#DejaVuSans-33" x="190.869141"/>
       <use xlink:href="#DejaVuSans-2d" x="254.492188"/>
       <use xlink:href="#DejaVuSans-30" x="290.576172"/>
       <use xlink:href="#DejaVuSans-33" x="354.199219"/>
       <use xlink:href="#DejaVuSans-2d" x="417.822266"/>
       <use xlink:href="#DejaVuSans-32" x="453.90625"/>
       <use xlink:href="#DejaVuSans-30" x="517.529297"/>
      </g>
     </g>
    </g>
    <g id="xtick_6">
     <g id="line2d_6">
      <g>
       <use xlink:href="#m7baffef2d1" x="401.766612" y="152.352" style="stroke: #000000; stroke-width: 0.8"/>
      </g>
     </g>
    </g>
    <g id="text_6">
     <!-- Date -->
     <g transform="translate(224.209219 180.628562)scale(0.1 -0.1)">
      <defs>
       <path id="DejaVuSans-44" d="M 1259 4147 
L 1259 519 
L 2022 519 
Q 2988 519 3436 956 
Q 3884 1394 3884 2338 
Q 3884 3275 3436 3711 
Q 2988 4147 2022 4147 
L 1259 4147 
z
M 628 4666 
L 1925 4666 
Q 3281 4666 3915 4102 
Q 4550 3538 4550 2338 
Q 4550 1131 3912 565 
Q 3275 0 1925 0 
L 628 0 
L 628 4666 
z
" transform="scale(0.015625)"/>
       <path id="DejaVuSans-61" d="M 2194 1759 
Q 1497 1759 1228 1600 
Q 959 1441 959 1056 
Q 959 750 1161 570 
Q 1363 391 1709 391 
Q 2188 391 2477 730 
Q 2766 1069 2766 1631 
L 2766 1759 
L 2194 1759 
z
M 3341 1997 
L 3341 0 
L 2766 0 
L 2766 531 
Q 2569 213 2275 61 
Q 1981 -91 1556 -91 
Q 1019 -91 701 211 
Q 384 513 384 1019 
Q 384 1609 779 1909 
Q 1175 2209 1959 2209 
L 2766 2209 
L 2766 2266 
Q 2766 2663 2505 2880 
Q 2244 3097 1772 3097 
Q 1472 3097 1187 3025 
Q 903 2953 641 2809 
L 641 3341 
Q 956 3463 1253 3523 
Q 1550 3584 1831 3584 
Q 2591 3584 2966 3190 
Q 3341 2797 3341 1997 
z
" transform="scale(0.015625)"/>
       <path id="DejaVuSans-74" d="M 1172 4494 
L 1172 3500 
L 2356 3500 
L 2356 3053 
L 1172 3053 
L 1172 1153 
Q 1172 725 1289 603 
Q 1406 481 1766 481 
L 2356 481 
L 2356 0 
L 1766 0 
Q 1100 0 847 248 
Q 594 497 594 1153 
L 594 3053 
L 172 3053 
L 172 3500 
L 594 3500 
L 594 4494 
L 1172 4494 
z
" transform="scale(0.015625)"/>
       <path id="DejaVuSans-65" d="M 3597 1894 
L 3597 1613 
L 953 1613 
Q 991 1019 1311 708 
Q 1631 397 2203 397 
Q 2534 397 2845 478 
Q 3156 559 3463 722 
L 3463 178 
Q 3153 47 2828 -22 
Q 2503 -91 2169 -91 
Q 1331 -91 842 396 
Q 353 884 353 1716 
Q 353 2575 817 3079 
Q 1281 3584 2069 3584 
Q 2775 3584 3186 3129 
Q 3597 2675 3597 1894 
z
M 3022 2063 
Q 3016 2534 2758 2815 
Q 2500 3097 2075 3097 
Q 1594 3097 1305 2825 
Q 1016 2553 972 2059 
L 3022 2063 
z
" transform="scale(0.015625)"/>
      </defs>
      <use xlink:href="#DejaVuSans-44"/>
      <use xlink:href="#DejaVuSans-61" x="77.001953"/>
      <use xlink:href="#DejaVuSans-74" x="138.28125"/>
      <use xlink:href="#DejaVuSans-65" x="177.490234"/>
     </g>
    </g>
   </g>
   <g id="matplotlib.axis_2">
    <g id="ytick_1">
     <g id="line2d_7">
      <defs>
       <path id="m73753a88e8" d="M 0 0 
L -3.5 0 
" style="stroke: #000000; stroke-width: 0.8"/>
      </defs>
      <g>
       <use xlink:href="#m73753a88e8" x="57.6" y="139.02032" style="stroke: #000000; stroke-width: 0.8"/>
      </g>
     </g>
     <g id="text_7">
      <!-- 100 -->
      <g transform="translate(31.5125 142.819539)scale(0.1 -0.1)">
       <use xlink:href="#DejaVuSans-31"/>
       <use xlink:href="#DejaVuSans-30" x="63.623047"/>
       <use xlink:href="#DejaVuSans-30" x="127.246094"/>
      </g>
     </g>
    </g>
    <g id="ytick_2">
     <g id="line2d_8">
      <g>
       <use xlink:href="#m73753a88e8" x="57.6" y="116.215921" style="stroke: #000000; stroke-width: 0.8"/>
      </g>
     </g>
     <g id="text_8">
      <!-- 150 -->
      <g transform="translate(31.5125 120.01514)scale(0.1 -0.1)">
       <defs>
        <path id="DejaVuSans-35" d="M 691 4666 
L 3169 4666 
L 3169 4134 
L 1269 4134 
L 1269 2991 
Q 1406 3038 1543 3061 
Q 1681 3084 1819 3084 
Q 2600 3084 3056 2656 
Q 3513 2228 3513 1497 
Q 3513 744 3044 326 
Q 2575 -91 1722 -91 
Q 1428 -91 1123 -41 
Q 819 9 494 109 
L 494 744 
Q 775 591 1075 516 
Q 1375 441 1709 441 
Q 2250 441 2565 725 
Q 2881 1009 2881 1497 
Q 2881 1984 2565 2268 
Q 2250 2553 1709 2553 
Q 1456 2553 1204 2497 
Q 953 2441 691 2322 
L 691 4666 
z
" transform="scale(0.015625)"/>
       </defs>
       <use xlink:href="#DejaVuSans-31"/>
       <use xlink:href="#DejaVuSans-35" x="63.623047"/>
       <use xlink:href="#DejaVuSans-30" x="127.246094"/>
      </g>
     </g>
    </g>
    <g id="ytick_3">
     <g id="line2d_9">
      <g>
       <use xlink:href="#m73753a88e8" x="57.6" y="93.411522" style="stroke: #000000; stroke-width: 0.8"/>
      </g>
     </g>
     <g id="text_9">
      <!-- 200 -->
      <g transform="translate(31.5125 97.21074)scale(0.1 -0.1)">
       <use xlink:href="#DejaVuSans-32"/>
       <use xlink:href="#DejaVuSans-30" x="63.623047"/>
       <use xlink:href="#DejaVuSans-30" x="127.246094"/>
      </g>
     </g>
    </g>
    <g id="ytick_4">
     <g id="line2d_10">
      <g>
       <use xlink:href="#m73753a88e8" x="57.6" y="70.607122" style="stroke: #000000; stroke-width: 0.8"/>
      </g>
     </g>
     <g id="text_10">
      <!-- 250 -->
      <g transform="translate(31.5125 74.406341)scale(0.1 -0.1)">
       <use xlink:href="#DejaVuSans-32"/>
       <use xlink:href="#DejaVuSans-35" x="63.623047"/>
       <use xlink:href="#DejaVuSans-30" x="127.246094"/>
      </g>
     </g>
    </g>
    <g id="ytick_5">
     <g id="line2d_11">
      <g>
       <use xlink:href="#m73753a88e8" x="57.6" y="47.802723" style="stroke: #000000; stroke-width: 0.8"/>
      </g>
     </g>
     <g id="text_11">
      <!-- 300 -->
      <g transform="translate(31.5125 51.601942)scale(0.1 -0.1)">
       <use xlink:href="#DejaVuSans-33"/>
       <use xlink:href="#DejaVuSans-30" x="63.623047"/>
       <use xlink:href="#DejaVuSans-30" x="127.246094"/>
      </g>
     </g>
    </g>
    <g id="text_12">
     <!-- Stock Price -->
     <g transform="translate(25.432812 124.537)rotate(-90)scale(0.1 -0.1)">
      <defs>
       <path id="DejaVuSans-53" d="M 3425 4513 
L 3425 3897 
Q 3066 4069 2747 4153 
Q 2428 4238 2131 4238 
Q 1616 4238 1336 4038 
Q 1056 3838 1056 3469 
Q 1056 3159 1242 3001 
Q 1428 2844 1947 2747 
L 2328 2669 
Q 3034 2534 3370 2195 
Q 3706 1856 3706 1288 
Q 3706 609 3251 259 
Q 2797 -91 1919 -91 
Q 1588 -91 1214 -16 
Q 841 59 441 206 
L 441 856 
Q 825 641 1194 531 
Q 1563 422 1919 422 
Q 2459 422 2753 634 
Q 3047 847 3047 1241 
Q 3047 1584 2836 1778 
Q 2625 1972 2144 2069 
L 1759 2144 
Q 1053 2284 737 2584 
Q 422 2884 422 3419 
Q 422 4038 858 4394 
Q 1294 4750 2059 4750 
Q 2388 4750 2728 4690 
Q 3069 4631 3425 4513 
z
" transform="scale(0.015625)"/>
       <path id="DejaVuSans-6f" d="M 1959 3097 
Q 1497 3097 1228 2736 
Q 959 2375 959 1747 
Q 959 1119 1226 758 
Q 1494 397 1959 397 
Q 2419 397 2687 759 
Q 2956 1122 2956 1747 
Q 2956 2369 2687 2733 
Q 2419 3097 1959 3097 
z
M 1959 3584 
Q 2709 3584 3137 3096 
Q 3566 2609 3566 1747 
Q 3566 888 3137 398 
Q 2709 -91 1959 -91 
Q 1206 -91 779 398 
Q 353 888 353 1747 
Q 353 2609 779 3096 
Q 1206 3584 1959 3584 
z
" transform="scale(0.015625)"/>
       <path id="DejaVuSans-63" d="M 3122 3366 
L 3122 2828 
Q 2878 2963 2633 3030 
Q 2388 3097 2138 3097 
Q 1578 3097 1268 2742 
Q 959 2388 959 1747 
Q 959 1106 1268 751 
Q 1578 397 2138 397 
Q 2388 397 2633 464 
Q 2878 531 3122 666 
L 3122 134 
Q 2881 22 2623 -34 
Q 2366 -91 2075 -91 
Q 1284 -91 818 406 
Q 353 903 353 1747 
Q 353 2603 823 3093 
Q 1294 3584 2113 3584 
Q 2378 3584 2631 3529 
Q 2884 3475 3122 3366 
z
" transform="scale(0.015625)"/>
       <path id="DejaVuSans-6b" d="M 581 4863 
L 1159 4863 
L 1159 1991 
L 2875 3500 
L 3609 3500 
L 1753 1863 
L 3688 0 
L 2938 0 
L 1159 1709 
L 1159 0 
L 581 0 
L 581 4863 
z
" transform="scale(0.015625)"/>
       <path id="DejaVuSans-20" transform="scale(0.015625)"/>
       <path id="DejaVuSans-50" d="M 1259 4147 
L 1259 2394 
L 2053 2394 
Q 2494 2394 2734 2622 
Q 2975 2850 2975 3272 
Q 2975 3691 2734 3919 
Q 2494 4147 2053 4147 
L 1259 4147 
z
M 628 4666 
L 2053 4666 
Q 2838 4666 3239 4311 
Q 3641 3956 3641 3272 
Q 3641 2581 3239 2228 
Q 2838 1875 2053 1875 
L 1259 1875 
L 1259 0 
L 628 0 
L 628 4666 
z
" transform="scale(0.015625)"/>
       <path id="DejaVuSans-72" d="M 2631 2963 
Q 2534 3019 2420 3045 
Q 2306 3072 2169 3072 
Q 1681 3072 1420 2755 
Q 1159 2438 1159 1844 
L 1159 0 
L 581 0 
L 581 3500 
L 1159 3500 
L 1159 2956 
Q 1341 3275 1631 3429 
Q 1922 3584 2338 3584 
Q 2397 3584 2469 3576 
Q 2541 3569 2628 3553 
L 2631 2963 
z
" transform="scale(0.015625)"/>
       <path id="DejaVuSans-69" d="M 603 3500 
L 1178 3500 
L 1178 0 
L 603 0 
L 603 3500 
z
M 603 4863 
L 1178 4863 
L 1178 4134 
L 603 4134 
L 603 4863 
z
" transform="scale(0.015625)"/>
      </defs>
      <use xlink:href="#DejaVuSans-53"/>
      <use xlink:href="#DejaVuSans-74" x="63.476562"/>
      <use xlink:href="#DejaVuSans-6f" x="102.685547"/>
      <use xlink:href="#DejaVuSans-63" x="163.867188"/>
      <use xlink:href="#DejaVuSans-6b" x="218.847656"/>
      <use xlink:href="#DejaVuSans-20" x="276.757812"/>
      <use xlink:href="#DejaVuSans-50" x="308.544922"/>
      <use xlink:href="#DejaVuSans-72" x="367.097656"/>
      <use xlink:href="#DejaVuSans-69" x="408.210938"/>
      <use xlink:href="#DejaVuSans-63" x="435.994141"/>
      <use xlink:href="#DejaVuSans-65" x="490.974609"/>
     </g>
    </g>
   </g>
   <g id="line2d_12">
    <path d="M 73.832727 136.161517 
L 77.112066 125.976201 
L 80.391405 126.249857 
L 83.670744 125.775528 
L 86.950083 127.782313 
L 90.229421 127.102742 
L 93.50876 127.175715 
L 96.788099 127.166594 
L 100.067438 126.710506 
L 103.346777 127.786874 
L 106.626116 127.809677 
L 109.905455 127.002403 
L 113.184793 127.162033 
L 116.464132 127.271493 
L 119.743471 126.774359 
L 123.02281 126.573679 
L 126.302149 127.120986 
L 129.581488 128.813072 
L 132.860826 129.127771 
L 136.140165 128.927094 
L 139.419504 129.52913 
L 142.698843 128.320497 
L 145.978182 129.173382 
L 149.257521 129.834708 
L 152.53686 129.798221 
L 155.816198 130.678471 
L 159.095537 129.638591 
L 162.374876 129.935048 
L 165.654215 128.772023 
L 168.933554 127.549707 
L 172.212893 128.54854 
L 175.492231 126.833649 
L 178.77157 126.801723 
L 182.050909 126.190563 
L 185.330248 125.73904 
L 188.609587 125.634135 
L 191.888926 125.561166 
L 195.168264 126.888381 
L 198.447603 128.644319 
L 201.726942 130.614619 
L 205.006281 129.602103 
L 208.28562 128.703609 
L 211.564959 132.179 
L 214.844298 133.123102 
L 218.123636 132.840327 
L 221.402975 132.064978 
L 224.682314 133.282733 
L 227.961653 132.142513 
L 231.240992 131.786765 
L 234.520331 129.766295 
L 237.799669 131.043342 
L 241.079008 131.494868 
L 244.358347 131.312433 
L 247.637686 132.064978 
L 250.917025 133.123102 
L 254.196364 132.68982 
L 257.475702 132.051296 
L 260.755041 132.53931 
L 264.03438 132.274779 
L 267.313719 133.547264 
L 270.593058 133.095738 
L 273.872397 134.801506 
L 277.151736 134.942893 
L 280.431074 134.956575 
L 283.710413 135.462833 
L 286.989752 135.248474 
L 290.269091 135.4902 
L 293.54843 134.363662 
L 296.827769 134.505048 
L 300.107107 133.884769 
L 303.386446 134.491366 
L 306.665785 135.786658 
L 309.945124 135.754729 
L 313.224463 136.502716 
L 316.503802 137.168604 
L 319.78314 137.424012 
L 323.062479 137.752396 
L 326.341818 137.752396 
L 329.621157 137.10019 
L 332.900496 137.642936 
L 336.179835 137.054582 
L 339.459174 137.063702 
L 342.738512 138.317944 
L 346.017851 138.564232 
L 349.29719 138.50038 
L 352.576529 138.34075 
L 355.855868 138.226728 
L 359.135207 137.565398 
L 362.414545 137.752396 
L 365.693884 136.68971 
L 368.973223 136.935998 
L 372.252562 137.994122 
L 375.531901 137.975878 
L 378.81124 138.308824 
L 382.090579 137.761516 
L 385.369917 136.94056 
L 388.649256 137.027215 
L 391.928595 136.215378 
L 395.207934 136.388694 
L 398.487273 135.928044 
" clip-path="url(#pf4d08d3e16)" style="fill: none; stroke: #1f77b4; stroke-width: 1.5; stroke-linecap: square"/>
   </g>
   <g id="line2d_13">
    <path d="M 73.832727 56.915366 
L 77.112066 51.045502 
L 80.391405 50.297525 
L 83.670744 49.444642 
L 86.950083 52.089947 
L 90.229421 53.284895 
L 93.50876 47.378564 
L 96.788099 46.512 
L 100.067438 47.743429 
L 103.346777 51.113926 
L 106.626116 54.457045 
L 109.905455 53.873253 
L 113.184793 51.383016 
L 116.464132 53.088781 
L 119.743471 51.296359 
L 123.02281 49.923529 
L 126.302149 51.70227 
L 129.581488 56.413666 
L 132.860826 64.002963 
L 136.140165 68.14425 
L 139.419504 65.179678 
L 142.698843 61.977931 
L 145.978182 63.875259 
L 149.257521 63.268668 
L 152.53686 63.624416 
L 155.816198 64.62325 
L 159.095537 62.224223 
L 162.374876 62.926602 
L 165.654215 61.366775 
L 168.933554 61.786382 
L 172.212893 64.687095 
L 175.492231 61.845676 
L 178.77157 59.775033 
L 182.050909 59.236852 
L 185.330248 56.431914 
L 188.609587 55.173106 
L 191.888926 55.948448 
L 195.168264 54.698771 
L 198.447603 57.88227 
L 201.726942 60.167262 
L 205.006281 56.710121 
L 208.28562 57.225502 
L 211.564959 59.264216 
L 214.844298 60.044123 
L 218.123636 59.542423 
L 221.402975 58.169608 
L 224.682314 59.515059 
L 227.961653 57.357772 
L 231.240992 55.282563 
L 234.520331 50.493639 
L 237.799669 52.719351 
L 241.079008 54.881203 
L 244.358347 53.357871 
L 247.637686 54.776312 
L 250.917025 54.571067 
L 254.196364 55.118378 
L 257.475702 53.116145 
L 260.755041 54.748948 
L 264.03438 53.435412 
L 267.313719 56.368055 
L 270.593058 58.269948 
L 273.872397 61.87304 
L 277.151736 61.654113 
L 280.431074 60.924369 
L 283.710413 63.067988 
L 286.989752 63.195692 
L 290.269091 63.51496 
L 293.54843 64.408888 
L 296.827769 63.647215 
L 300.107107 61.850227 
L 303.386446 61.654113 
L 306.665785 64.130667 
L 309.945124 64.376959 
L 313.224463 66.155699 
L 316.503802 69.261664 
L 319.78314 70.009648 
L 323.062479 69.476026 
L 326.341818 72.35394 
L 329.621157 69.275346 
L 332.900496 70.607122 
L 336.179835 69.444096 
L 339.459174 67.131734 
L 342.738512 69.115713 
L 346.017851 60.728255 
L 349.29719 60.573187 
L 352.576529 59.679258 
L 355.855868 59.204923 
L 359.135207 56.951847 
L 362.414545 55.711287 
L 365.693884 54.274613 
L 368.973223 54.26093 
L 372.252562 54.26093 
L 375.531901 56.317892 
L 378.81124 56.149127 
L 382.090579 56.158258 
L 385.369917 54.037452 
L 388.649256 55.209587 
L 391.928595 54.520904 
L 395.207934 57.266549 
L 398.487273 56.933599 
" clip-path="url(#pf4d08d3e16)" style="fill: none; stroke: #ff7f0e; stroke-width: 1.5; stroke-linecap: square"/>
   </g>
   <g id="line2d_14">
    <path d="M 73.832727 137.971316 
L 77.112066 142.12172 
L 80.391405 141.697558 
L 83.670744 142.025938 
L 86.950083 141.779654 
L 90.229421 142.477468 
L 93.50876 140.598384 
L 96.788099 141.072716 
L 100.067438 141.697558 
L 103.346777 143.12055 
L 106.626116 144.379354 
L 109.905455 144.283576 
L 113.184793 143.42157 
L 116.464132 143.996242 
L 119.743471 143.33035 
L 123.02281 142.445542 
L 126.302149 142.86058 
L 129.581488 144.288138 
L 132.860826 144.557228 
L 136.140165 145.898128 
L 139.419504 145.774982 
L 142.698843 145.054366 
L 145.978182 146.413506 
L 149.257521 145.747618 
L 152.53686 146.755572 
L 155.816198 147.312 
L 159.095537 146.235632 
L 162.374876 146.317728 
L 165.654215 145.487648 
L 168.933554 145.797788 
L 172.212893 146.719084 
L 175.492231 145.369064 
L 178.77157 144.785272 
L 182.050909 143.64049 
L 185.330248 141.259714 
L 188.609587 141.177618 
L 191.888926 139.877764 
L 195.168264 140.821866 
L 198.447603 141.09096 
L 201.726942 141.902796 
L 205.006281 140.274562 
L 208.28562 140.15142 
L 211.564959 140.698724 
L 214.844298 140.306488 
L 218.123636 139.376068 
L 221.402975 137.998684 
L 224.682314 138.76947 
L 227.961653 137.592766 
L 231.240992 136.671466 
L 234.520331 133.132223 
L 237.799669 137.474182 
L 241.079008 138.026048 
L 244.358347 138.057974 
L 247.637686 138.997514 
L 250.917025 139.823036 
L 254.196364 140.11037 
L 257.475702 139.23012 
L 260.755041 139.157148 
L 264.03438 138.491257 
L 267.313719 139.864082 
L 270.593058 140.297368 
L 273.872397 141.492316 
L 277.151736 140.94045 
L 280.431074 140.926768 
L 283.710413 141.984892 
L 286.989752 141.866308 
L 290.269091 141.651946 
L 293.54843 142.59149 
L 296.827769 142.609734 
L 300.107107 141.346368 
L 303.386446 141.87087 
L 306.665785 141.962086 
L 309.945124 141.793336 
L 313.224463 142.555002 
L 316.503802 143.248254 
L 319.78314 142.472906 
L 323.062479 141.355492 
L 326.341818 140.753456 
L 329.621157 139.002076 
L 332.900496 139.499214 
L 336.179835 140.064762 
L 339.459174 138.742106 
L 342.738512 139.613236 
L 346.017851 139.608674 
L 349.29719 139.873206 
L 352.576529 139.914252 
L 355.855868 140.279124 
L 359.135207 138.906298 
L 362.414545 138.108144 
L 365.693884 137.51979 
L 368.973223 137.921147 
L 372.252562 137.218774 
L 375.531901 138.518624 
L 378.81124 138.08078 
L 382.090579 138.03061 
L 385.369917 139.056808 
L 388.649256 140.01003 
L 391.928595 137.925708 
L 395.207934 137.875538 
L 398.487273 137.77064 
" clip-path="url(#pf4d08d3e16)" style="fill: none; stroke: #2ca02c; stroke-width: 1.5; stroke-linecap: square"/>
   </g>
   <g id="line2d_15">
    <path d="M 73.832727 117.066528 
L 77.112066 117.027757 
L 80.391405 115.641253 
L 83.670744 114.893269 
L 86.950083 116.329943 
L 90.229421 117.520333 
L 93.50876 115.413209 
L 96.788099 114.387011 
L 100.067438 114.510149 
L 103.346777 114.765564 
L 106.626116 114.081432 
L 109.905455 114.487351 
L 113.184793 113.748483 
L 116.464132 113.415541 
L 119.743471 113.027863 
L 123.02281 112.024471 
L 126.302149 112.407583 
L 129.581488 113.287837 
L 132.860826 115.121313 
L 136.140165 115.540913 
L 139.419504 116.097341 
L 142.698843 115.062019 
L 145.978182 115.335674 
L 149.257521 114.838533 
L 152.53686 114.263865 
L 155.816198 114.792929 
L 159.095537 114.035821 
L 162.374876 115.112189 
L 165.654215 114.345957 
L 168.933554 112.945771 
L 172.212893 114.085991 
L 175.492231 112.448637 
L 178.77157 112.366537 
L 182.050909 111.303851 
L 185.330248 111.007397 
L 188.609587 111.919573 
L 191.888926 112.170423 
L 195.168264 112.913841 
L 198.447603 114.989043 
L 201.726942 116.129263 
L 205.006281 115.513548 
L 208.28562 115.773515 
L 211.564959 114.145285 
L 214.844298 113.702879 
L 218.123636 113.388177 
L 221.402975 113.014181 
L 224.682314 113.935481 
L 227.961653 113.255907 
L 231.240992 112.284445 
L 234.520331 111.381385 
L 237.799669 113.201179 
L 241.079008 113.292395 
L 244.358347 113.721119 
L 247.637686 115.901219 
L 250.917025 116.644645 
L 254.196364 116.010683 
L 257.475702 115.436007 
L 260.755041 116.530623 
L 264.03438 116.557987 
L 267.313719 117.374381 
L 270.593058 116.393795 
L 273.872397 117.283165 
L 277.151736 117.730136 
L 280.431074 119.016301 
L 283.710413 120.065305 
L 286.989752 120.877141 
L 290.269091 120.603485 
L 293.54843 121.625125 
L 296.827769 121.433569 
L 300.107107 120.913629 
L 303.386446 120.813289 
L 306.665785 122.085771 
L 309.945124 121.579513 
L 313.224463 122.660446 
L 316.503802 123.672962 
L 319.78314 122.432402 
L 323.062479 121.839487 
L 326.341818 120.489463 
L 329.621157 119.56817 
L 332.900496 119.951283 
L 336.179835 119.609217 
L 339.459174 121.296741 
L 342.738512 122.427837 
L 346.017851 122.272769 
L 349.29719 119.937601 
L 352.576529 120.010576 
L 355.855868 120.220373 
L 359.135207 118.888597 
L 362.414545 118.090443 
L 365.693884 117.816787 
L 368.973223 118.295681 
L 372.252562 117.524891 
L 375.531901 116.120139 
L 378.81124 115.358473 
L 382.090579 115.353915 
L 385.369917 115.276381 
L 388.649256 115.841925 
L 391.928595 115.303745 
L 395.207934 116.352749 
L 398.487273 116.288897 
" clip-path="url(#pf4d08d3e16)" style="fill: none; stroke: #d62728; stroke-width: 1.5; stroke-linecap: square"/>
   </g>
   <g id="line2d_16">
    <path d="M 73.832727 108.704151 
L 77.112066 116.133828 
L 80.391405 115.727903 
L 83.670744 117.077927 
L 86.950083 118.852109 
L 90.229421 120.243179 
L 93.50876 117.114415 
L 96.788099 116.986711 
L 100.067438 117.214755 
L 103.346777 117.752935 
L 106.626116 119.449583 
L 109.905455 120.348077 
L 113.184793 119.56817 
L 116.464132 119.791649 
L 119.743471 118.728963 
L 123.02281 118.281999 
L 126.302149 119.312755 
L 129.581488 122.373109 
L 132.860826 123.280726 
L 136.140165 124.256754 
L 139.419504 124.288677 
L 142.698843 122.852003 
L 145.978182 124.320606 
L 149.257521 124.489357 
L 152.53686 125.323999 
L 155.816198 127.143789 
L 159.095537 125.515555 
L 162.374876 125.36961 
L 165.654215 127.586195 
L 168.933554 126.997841 
L 172.212893 127.609 
L 175.492231 125.510996 
L 178.77157 125.26927 
L 182.050909 125.004738 
L 185.330248 123.745931 
L 188.609587 123.782419 
L 191.888926 123.166704 
L 195.168264 122.628517 
L 198.447603 122.961459 
L 201.726942 122.934095 
L 205.006281 121.74827 
L 208.28562 120.270543 
L 211.564959 119.622899 
L 214.844298 119.928477 
L 218.123636 118.970689 
L 221.402975 118.072202 
L 224.682314 119.408537 
L 227.961653 118.820186 
L 231.240992 118.300246 
L 234.520331 115.841925 
L 237.799669 114.163525 
L 241.079008 115.426891 
L 244.358347 114.095115 
L 247.637686 115.340233 
L 250.917025 115.819127 
L 254.196364 115.755275 
L 257.475702 114.459979 
L 260.755041 114.756441 
L 264.03438 113.784971 
L 267.313719 114.523831 
L 270.593058 115.052895 
L 273.872397 116.909177 
L 277.151736 116.713055 
L 280.431074 116.489576 
L 283.710413 117.716447 
L 286.989752 117.164585 
L 290.269091 117.397187 
L 293.54843 118.354975 
L 296.827769 118.081319 
L 300.107107 115.746151 
L 303.386446 114.469103 
L 306.665785 115.486177 
L 309.945124 114.906951 
L 313.224463 115.946831 
L 316.503802 116.900053 
L 319.78314 116.001559 
L 323.062479 115.034655 
L 326.341818 114.852215 
L 329.621157 113.547803 
L 332.900496 113.935481 
L 336.179835 112.840873 
L 339.459174 111.983425 
L 342.738512 112.644751 
L 346.017851 112.143059 
L 349.29719 111.541019 
L 352.576529 112.439513 
L 355.855868 112.726851 
L 359.135207 111.303851 
L 362.414545 110.578673 
L 365.693884 109.420213 
L 368.973223 108.840979 
L 372.252562 109.087263 
L 375.531901 109.940153 
L 378.81124 109.529669 
L 382.090579 110.729183 
L 385.369917 111.290169 
L 388.649256 111.609429 
L 391.928595 109.119193 
L 395.207934 109.27882 
L 398.487273 109.269703 
" clip-path="url(#pf4d08d3e16)" style="fill: none; stroke: #9467bd; stroke-width: 1.5; stroke-linecap: square"/>
   </g>
   <g id="patch_3">
    <path d="M 57.6 152.352 
L 57.6 41.472 
" style="fill: none; stroke: #000000; stroke-width: 0.8; stroke-linejoin: miter; stroke-linecap: square"/>
   </g>
   <g id="patch_4">
    <path d="M 414.72 152.352 
L 414.72 41.472 
" style="fill: none; stroke: #000000; stroke-width: 0.8; stroke-linejoin: miter; stroke-linecap: square"/>
   </g>
   <g id="patch_5">
    <path d="M 57.6 152.352 
L 414.72 152.352 
" style="fill: none; stroke: #000000; stroke-width: 0.8; stroke-linejoin: miter; stroke-linecap: square"/>
   </g>
   <g id="patch_6">
    <path d="M 57.6 41.472 
L 414.72 41.472 
" style="fill: none; stroke: #000000; stroke-width: 0.8; stroke-linejoin: miter; stroke-linecap: square"/>
   </g>
   <g id="text_13">
    <!-- Correlation of Stock EOD Closing Prices -->
    <g transform="translate(118.324687 35.472)scale(0.12 -0.12)">
     <defs>
      <path id="DejaVuSans-43" d="M 4122 4306 
L 4122 3641 
Q 3803 3938 3442 4084 
Q 3081 4231 2675 4231 
Q 1875 4231 1450 3742 
Q 1025 3253 1025 2328 
Q 1025 1406 1450 917 
Q 1875 428 2675 428 
Q 3081 428 3442 575 
Q 3803 722 4122 1019 
L 4122 359 
Q 3791 134 3420 21 
Q 3050 -91 2638 -91 
Q 1578 -91 968 557 
Q 359 1206 359 2328 
Q 359 3453 968 4101 
Q 1578 4750 2638 4750 
Q 3056 4750 3426 4639 
Q 3797 4528 4122 4306 
z
" transform="scale(0.015625)"/>
      <path id="DejaVuSans-6c" d="M 603 4863 
L 1178 4863 
L 1178 0 
L 603 0 
L 603 4863 
z
" transform="scale(0.015625)"/>
      <path id="DejaVuSans-6e" d="M 3513 2113 
L 3513 0 
L 2938 0 
L 2938 2094 
Q 2938 2591 2744 2837 
Q 2550 3084 2163 3084 
Q 1697 3084 1428 2787 
Q 1159 2491 1159 1978 
L 1159 0 
L 581 0 
L 581 3500 
L 1159 3500 
L 1159 2956 
Q 1366 3272 1645 3428 
Q 1925 3584 2291 3584 
Q 2894 3584 3203 3211 
Q 3513 2838 3513 2113 
z
" transform="scale(0.015625)"/>
      <path id="DejaVuSans-66" d="M 2375 4863 
L 2375 4384 
L 1825 4384 
Q 1516 4384 1395 4259 
Q 1275 4134 1275 3809 
L 1275 3500 
L 2222 3500 
L 2222 3053 
L 1275 3053 
L 1275 0 
L 697 0 
L 697 3053 
L 147 3053 
L 147 3500 
L 697 3500 
L 697 3744 
Q 697 4328 969 4595 
Q 1241 4863 1831 4863 
L 2375 4863 
z
" transform="scale(0.015625)"/>
      <path id="DejaVuSans-45" d="M 628 4666 
L 3578 4666 
L 3578 4134 
L 1259 4134 
L 1259 2753 
L 3481 2753 
L 3481 2222 
L 1259 2222 
L 1259 531 
L 3634 531 
L 3634 0 
L 628 0 
L 628 4666 
z
" transform="scale(0.015625)"/>
      <path id="DejaVuSans-4f" d="M 2522 4238 
Q 1834 4238 1429 3725 
Q 1025 3213 1025 2328 
Q 1025 1447 1429 934 
Q 1834 422 2522 422 
Q 3209 422 3611 934 
Q 4013 1447 4013 2328 
Q 4013 3213 3611 3725 
Q 3209 4238 2522 4238 
z
M 2522 4750 
Q 3503 4750 4090 4092 
Q 4678 3434 4678 2328 
Q 4678 1225 4090 567 
Q 3503 -91 2522 -91 
Q 1538 -91 948 565 
Q 359 1222 359 2328 
Q 359 3434 948 4092 
Q 1538 4750 2522 4750 
z
" transform="scale(0.015625)"/>
      <path id="DejaVuSans-73" d="M 2834 3397 
L 2834 2853 
Q 2591 2978 2328 3040 
Q 2066 3103 1784 3103 
Q 1356 3103 1142 2972 
Q 928 2841 928 2578 
Q 928 2378 1081 2264 
Q 1234 2150 1697 2047 
L 1894 2003 
Q 2506 1872 2764 1633 
Q 3022 1394 3022 966 
Q 3022 478 2636 193 
Q 2250 -91 1575 -91 
Q 1294 -91 989 -36 
Q 684 19 347 128 
L 347 722 
Q 666 556 975 473 
Q 1284 391 1588 391 
Q 1994 391 2212 530 
Q 2431 669 2431 922 
Q 2431 1156 2273 1281 
Q 2116 1406 1581 1522 
L 1381 1569 
Q 847 1681 609 1914 
Q 372 2147 372 2553 
Q 372 3047 722 3315 
Q 1072 3584 1716 3584 
Q 2034 3584 2315 3537 
Q 2597 3491 2834 3397 
z
" transform="scale(0.015625)"/>
      <path id="DejaVuSans-67" d="M 2906 1791 
Q 2906 2416 2648 2759 
Q 2391 3103 1925 3103 
Q 1463 3103 1205 2759 
Q 947 2416 947 1791 
Q 947 1169 1205 825 
Q 1463 481 1925 481 
Q 2391 481 2648 825 
Q 2906 1169 2906 1791 
z
M 3481 434 
Q 3481 -459 3084 -895 
Q 2688 -1331 1869 -1331 
Q 1566 -1331 1297 -1286 
Q 1028 -1241 775 -1147 
L 775 -588 
Q 1028 -725 1275 -790 
Q 1522 -856 1778 -856 
Q 2344 -856 2625 -561 
Q 2906 -266 2906 331 
L 2906 616 
Q 2728 306 2450 153 
Q 2172 0 1784 0 
Q 1141 0 747 490 
Q 353 981 353 1791 
Q 353 2603 747 3093 
Q 1141 3584 1784 3584 
Q 2172 3584 2450 3431 
Q 2728 3278 2906 2969 
L 2906 3500 
L 3481 3500 
L 3481 434 
z
" transform="scale(0.015625)"/>
     </defs>
     <use xlink:href="#DejaVuSans-43"/>
     <use xlink:href="#DejaVuSans-6f" x="69.824219"/>
     <use xlink:href="#DejaVuSans-72" x="131.005859"/>
     <use xlink:href="#DejaVuSans-72" x="170.369141"/>
     <use xlink:href="#DejaVuSans-65" x="209.232422"/>
     <use xlink:href="#DejaVuSans-6c" x="270.755859"/>
     <use xlink:href="#DejaVuSans-61" x="298.539062"/>
     <use xlink:href="#DejaVuSans-74" x="359.818359"/>
     <use xlink:href="#DejaVuSans-69" x="399.027344"/>
     <use xlink:href="#DejaVuSans-6f" x="426.810547"/>
     <use xlink:href="#DejaVuSans-6e" x="487.992188"/>
     <use xlink:href="#DejaVuSans-20" x="551.371094"/>
     <use xlink:href="#DejaVuSans-6f" x="583.158203"/>
     <use xlink:href="#DejaVuSans-66" x="644.339844"/>
     <use xlink:href="#DejaVuSans-20" x="679.544922"/>
     <use xlink:href="#DejaVuSans-53" x="711.332031"/>
     <use xlink:href="#DejaVuSans-74" x="774.808594"/>
     <use xlink:href="#DejaVuSans-6f" x="814.017578"/>
     <use xlink:href="#DejaVuSans-63" x="875.199219"/>
     <use xlink:href="#DejaVuSans-6b" x="930.179688"/>
     <use xlink:href="#DejaVuSans-20" x="988.089844"/>
     <use xlink:href="#DejaVuSans-45" x="1019.876953"/>
     <use xlink:href="#DejaVuSans-4f" x="1083.060547"/>
     <use xlink:href="#DejaVuSans-44" x="1161.771484"/>
     <use xlink:href="#DejaVuSans-20" x="1238.773438"/>
     <use xlink:href="#DejaVuSans-43" x="1270.560547"/>
     <use xlink:href="#DejaVuSans-6c" x="1340.384766"/>
     <use xlink:href="#DejaVuSans-6f" x="1368.167969"/>
     <use xlink:href="#DejaVuSans-73" x="1429.349609"/>
     <use xlink:href="#DejaVuSans-69" x="1481.449219"/>
     <use xlink:href="#DejaVuSans-6e" x="1509.232422"/>
     <use xlink:href="#DejaVuSans-67" x="1572.611328"/>
     <use xlink:href="#DejaVuSans-20" x="1636.087891"/>
     <use xlink:href="#DejaVuSans-50" x="1667.875"/>
     <use xlink:href="#DejaVuSans-72" x="1726.427734"/>
     <use xlink:href="#DejaVuSans-69" x="1767.541016"/>
     <use xlink:href="#DejaVuSans-63" x="1795.324219"/>
     <use xlink:href="#DejaVuSans-65" x="1850.304688"/>
     <use xlink:href="#DejaVuSans-73" x="1911.828125"/>
    </g>
   </g>
  </g>
  <g id="axes_2">
   <g id="patch_7">
    <path d="M 57.6 307.584 
L 414.72 307.584 
L 414.72 196.704 
L 57.6 196.704 
z
" style="fill: #ffffff"/>
   </g>
   <g id="matplotlib.axis_3">
    <g id="xtick_7">
     <g id="line2d_17">
      <g>
       <use xlink:href="#m7baffef2d1" x="73.832727" y="307.584" style="stroke: #000000; stroke-width: 0.8"/>
      </g>
     </g>
     <g id="text_14">
      <!-- 2023-04-18 -->
      <g transform="translate(44.774915 322.182437)scale(0.1 -0.1)">
       <use xlink:href="#DejaVuSans-32"/>
       <use xlink:href="#DejaVuSans-30" x="63.623047"/>
       <use xlink:href="#DejaVuSans-32" x="127.246094"/>
       <use xlink:href="#DejaVuSans-33" x="190.869141"/>
       <use xlink:href="#DejaVuSans-2d" x="254.492188"/>
       <use xlink:href="#DejaVuSans-30" x="290.576172"/>
       <use xlink:href="#DejaVuSans-34" x="354.199219"/>
       <use xlink:href="#DejaVuSans-2d" x="417.822266"/>
       <use xlink:href="#DejaVuSans-31" x="453.90625"/>
       <use xlink:href="#DejaVuSans-38" x="517.529297"/>
      </g>
     </g>
    </g>
    <g id="xtick_8">
     <g id="line2d_18">
      <g>
       <use xlink:href="#m7baffef2d1" x="139.419504" y="307.584" style="stroke: #000000; stroke-width: 0.8"/>
      </g>
     </g>
     <g id="text_15">
      <!-- 2022-12-20 -->
      <g transform="translate(110.361692 322.182437)scale(0.1 -0.1)">
       <use xlink:href="#DejaVuSans-32"/>
       <use xlink:href="#DejaVuSans-30" x="63.623047"/>
       <use xlink:href="#DejaVuSans-32" x="127.246094"/>
       <use xlink:href="#DejaVuSans-32" x="190.869141"/>
       <use xlink:href="#DejaVuSans-2d" x="254.492188"/>
       <use xlink:href="#DejaVuSans-31" x="290.576172"/>
       <use xlink:href="#DejaVuSans-32" x="354.199219"/>
       <use xlink:href="#DejaVuSans-2d" x="417.822266"/>
       <use xlink:href="#DejaVuSans-32" x="453.90625"/>
       <use xlink:href="#DejaVuSans-30" x="517.529297"/>
      </g>
     </g>
    </g>
    <g id="xtick_9">
     <g id="line2d_19">
      <g>
       <use xlink:href="#m7baffef2d1" x="205.006281" y="307.584" style="stroke: #000000; stroke-width: 0.8"/>
      </g>
     </g>
     <g id="text_16">
      <!-- 2023-01-20 -->
      <g transform="translate(175.948468 322.182437)scale(0.1 -0.1)">
       <use xlink:href="#DejaVuSans-32"/>
       <use xlink:href="#DejaVuSans-30" x="63.623047"/>
       <use xlink:href="#DejaVuSans-32" x="127.246094"/>
       <use xlink:href="#DejaVuSans-33" x="190.869141"/>
       <use xlink:href="#DejaVuSans-2d" x="254.492188"/>
       <use xlink:href="#DejaVuSans-30" x="290.576172"/>
       <use xlink:href="#DejaVuSans-31" x="354.199219"/>
       <use xlink:href="#DejaVuSans-2d" x="417.822266"/>
       <use xlink:href="#DejaVuSans-32" x="453.90625"/>
       <use xlink:href="#DejaVuSans-30" x="517.529297"/>
      </g>
     </g>
    </g>
    <g id="xtick_10">
     <g id="line2d_20">
      <g>
       <use xlink:href="#m7baffef2d1" x="270.593058" y="307.584" style="stroke: #000000; stroke-width: 0.8"/>
      </g>
     </g>
     <g id="text_17">
      <!-- 2023-02-17 -->
      <g transform="translate(241.535245 322.182437)scale(0.1 -0.1)">
       <use xlink:href="#DejaVuSans-32"/>
       <use xlink:href="#DejaVuSans-30" x="63.623047"/>
       <use xlink:href="#DejaVuSans-32" x="127.246094"/>
       <use xlink:href="#DejaVuSans-33" x="190.869141"/>
       <use xlink:href="#DejaVuSans-2d" x="254.492188"/>
       <use xlink:href="#DejaVuSans-30" x="290.576172"/>
       <use xlink:href="#DejaVuSans-32" x="354.199219"/>
       <use xlink:href="#DejaVuSans-2d" x="417.822266"/>
       <use xlink:href="#DejaVuSans-31" x="453.90625"/>
       <use xlink:href="#DejaVuSans-37" x="517.529297"/>
      </g>
     </g>
    </g>
    <g id="xtick_11">
     <g id="line2d_21">
      <g>
       <use xlink:href="#m7baffef2d1" x="336.179835" y="307.584" style="stroke: #000000; stroke-width: 0.8"/>
      </g>
     </g>
     <g id="text_18">
      <!-- 2023-03-20 -->
      <g transform="translate(307.122022 322.182437)scale(0.1 -0.1)">
       <use xlink:href="#DejaVuSans-32"/>
       <use xlink:href="#DejaVuSans-30" x="63.623047"/>
       <use xlink:href="#DejaVuSans-32" x="127.246094"/>
       <use xlink:href="#DejaVuSans-33" x="190.869141"/>
       <use xlink:href="#DejaVuSans-2d" x="254.492188"/>
       <use xlink:href="#DejaVuSans-30" x="290.576172"/>
       <use xlink:href="#DejaVuSans-33" x="354.199219"/>
       <use xlink:href="#DejaVuSans-2d" x="417.822266"/>
       <use xlink:href="#DejaVuSans-32" x="453.90625"/>
       <use xlink:href="#DejaVuSans-30" x="517.529297"/>
      </g>
     </g>
    </g>
    <g id="xtick_12">
     <g id="line2d_22">
      <g>
       <use xlink:href="#m7baffef2d1" x="401.766612" y="307.584" style="stroke: #000000; stroke-width: 0.8"/>
      </g>
     </g>
    </g>
    <g id="text_19">
     <!-- Date -->
     <g transform="translate(224.209219 335.860562)scale(0.1 -0.1)">
      <use xlink:href="#DejaVuSans-44"/>
      <use xlink:href="#DejaVuSans-61" x="77.001953"/>
      <use xlink:href="#DejaVuSans-74" x="138.28125"/>
      <use xlink:href="#DejaVuSans-65" x="177.490234"/>
     </g>
    </g>
   </g>
   <g id="matplotlib.axis_4">
    <g id="ytick_6">
     <g id="line2d_23">
      <g>
       <use xlink:href="#m73753a88e8" x="57.6" y="302.765715" style="stroke: #000000; stroke-width: 0.8"/>
      </g>
     </g>
     <g id="text_20">
      <!-- 0.0 -->
      <g transform="translate(34.696875 306.564933)scale(0.1 -0.1)">
       <defs>
        <path id="DejaVuSans-2e" d="M 684 794 
L 1344 794 
L 1344 0 
L 684 0 
L 684 794 
z
" transform="scale(0.015625)"/>
       </defs>
       <use xlink:href="#DejaVuSans-30"/>
       <use xlink:href="#DejaVuSans-2e" x="63.623047"/>
       <use xlink:href="#DejaVuSans-30" x="95.410156"/>
      </g>
     </g>
    </g>
    <g id="ytick_7">
     <g id="line2d_24">
      <g>
       <use xlink:href="#m73753a88e8" x="57.6" y="271.227356" style="stroke: #000000; stroke-width: 0.8"/>
      </g>
     </g>
     <g id="text_21">
      <!-- 0.5 -->
      <g transform="translate(34.696875 275.026575)scale(0.1 -0.1)">
       <use xlink:href="#DejaVuSans-30"/>
       <use xlink:href="#DejaVuSans-2e" x="63.623047"/>
       <use xlink:href="#DejaVuSans-35" x="95.410156"/>
      </g>
     </g>
    </g>
    <g id="ytick_8">
     <g id="line2d_25">
      <g>
       <use xlink:href="#m73753a88e8" x="57.6" y="239.688998" style="stroke: #000000; stroke-width: 0.8"/>
      </g>
     </g>
     <g id="text_22">
      <!-- 1.0 -->
      <g transform="translate(34.696875 243.488216)scale(0.1 -0.1)">
       <use xlink:href="#DejaVuSans-31"/>
       <use xlink:href="#DejaVuSans-2e" x="63.623047"/>
       <use xlink:href="#DejaVuSans-30" x="95.410156"/>
      </g>
     </g>
    </g>
    <g id="ytick_9">
     <g id="line2d_26">
      <g>
       <use xlink:href="#m73753a88e8" x="57.6" y="208.150639" style="stroke: #000000; stroke-width: 0.8"/>
      </g>
     </g>
     <g id="text_23">
      <!-- 1.5 -->
      <g transform="translate(34.696875 211.949858)scale(0.1 -0.1)">
       <use xlink:href="#DejaVuSans-31"/>
       <use xlink:href="#DejaVuSans-2e" x="63.623047"/>
       <use xlink:href="#DejaVuSans-35" x="95.410156"/>
      </g>
     </g>
    </g>
    <g id="text_24">
     <!-- Stock Volume -->
     <g transform="translate(28.617187 286.168219)rotate(-90)scale(0.1 -0.1)">
      <defs>
       <path id="DejaVuSans-56" d="M 1831 0 
L 50 4666 
L 709 4666 
L 2188 738 
L 3669 4666 
L 4325 4666 
L 2547 0 
L 1831 0 
z
" transform="scale(0.015625)"/>
       <path id="DejaVuSans-75" d="M 544 1381 
L 544 3500 
L 1119 3500 
L 1119 1403 
Q 1119 906 1312 657 
Q 1506 409 1894 409 
Q 2359 409 2629 706 
Q 2900 1003 2900 1516 
L 2900 3500 
L 3475 3500 
L 3475 0 
L 2900 0 
L 2900 538 
Q 2691 219 2414 64 
Q 2138 -91 1772 -91 
Q 1169 -91 856 284 
Q 544 659 544 1381 
z
M 1991 3584 
L 1991 3584 
z
" transform="scale(0.015625)"/>
       <path id="DejaVuSans-6d" d="M 3328 2828 
Q 3544 3216 3844 3400 
Q 4144 3584 4550 3584 
Q 5097 3584 5394 3201 
Q 5691 2819 5691 2113 
L 5691 0 
L 5113 0 
L 5113 2094 
Q 5113 2597 4934 2840 
Q 4756 3084 4391 3084 
Q 3944 3084 3684 2787 
Q 3425 2491 3425 1978 
L 3425 0 
L 2847 0 
L 2847 2094 
Q 2847 2600 2669 2842 
Q 2491 3084 2119 3084 
Q 1678 3084 1418 2786 
Q 1159 2488 1159 1978 
L 1159 0 
L 581 0 
L 581 3500 
L 1159 3500 
L 1159 2956 
Q 1356 3278 1631 3431 
Q 1906 3584 2284 3584 
Q 2666 3584 2933 3390 
Q 3200 3197 3328 2828 
z
" transform="scale(0.015625)"/>
      </defs>
      <use xlink:href="#DejaVuSans-53"/>
      <use xlink:href="#DejaVuSans-74" x="63.476562"/>
      <use xlink:href="#DejaVuSans-6f" x="102.685547"/>
      <use xlink:href="#DejaVuSans-63" x="163.867188"/>
      <use xlink:href="#DejaVuSans-6b" x="218.847656"/>
      <use xlink:href="#DejaVuSans-20" x="276.757812"/>
      <use xlink:href="#DejaVuSans-56" x="308.544922"/>
      <use xlink:href="#DejaVuSans-6f" x="369.203125"/>
      <use xlink:href="#DejaVuSans-6c" x="430.384766"/>
      <use xlink:href="#DejaVuSans-75" x="458.167969"/>
      <use xlink:href="#DejaVuSans-6d" x="521.546875"/>
      <use xlink:href="#DejaVuSans-65" x="618.958984"/>
     </g>
    </g>
    <g id="text_25">
     <!-- 1e8 -->
     <g transform="translate(57.6 193.704)scale(0.1 -0.1)">
      <use xlink:href="#DejaVuSans-31"/>
      <use xlink:href="#DejaVuSans-65" x="63.623047"/>
      <use xlink:href="#DejaVuSans-38" x="125.146484"/>
     </g>
    </g>
   </g>
   <g id="line2d_27">
    <path d="M 73.832727 301.74724 
L 77.112066 301.657394 
L 80.391405 301.283601 
L 83.670744 302.209126 
L 86.950083 301.016282 
L 90.229421 301.590532 
L 93.50876 299.087964 
L 96.788099 301.101246 
L 100.067438 301.61652 
L 103.346777 301.413918 
L 106.626116 301.554957 
L 109.905455 301.061697 
L 113.184793 300.378072 
L 116.464132 301.292936 
L 119.743471 300.319726 
L 123.02281 300.711369 
L 126.302149 300.813049 
L 129.581488 300.66116 
L 132.860826 297.97201 
L 136.140165 301.22658 
L 139.419504 300.934598 
L 142.698843 301.139534 
L 145.978182 301.385344 
L 149.257521 301.119854 
L 152.53686 301.623269 
L 155.816198 301.52878 
L 159.095537 301.46583 
L 162.374876 301.443627 
L 165.654215 301.117646 
L 168.933554 301.018679 
L 172.212893 301.121557 
L 175.492231 301.24115 
L 178.77157 300.954593 
L 182.050909 301.726147 
L 185.330248 301.495665 
L 188.609587 301.605418 
L 191.888926 301.697574 
L 195.168264 300.551154 
L 198.447603 300.079593 
L 201.726942 299.624683 
L 205.006281 300.007054 
L 208.28562 300.613411 
L 211.564959 296.283636 
L 214.844298 298.985401 
L 218.123636 299.848038 
L 221.402975 300.170423 
L 224.682314 299.042359 
L 227.961653 299.566968 
L 231.240992 300.809832 
L 234.520331 299.664106 
L 237.799669 301.073745 
L 241.079008 301.196807 
L 244.358347 301.388939 
L 247.637686 301.181417 
L 250.917025 300.493754 
L 254.196364 301.331035 
L 257.475702 301.348002 
L 260.755041 301.212577 
L 264.03438 301.171577 
L 267.313719 301.065734 
L 270.593058 300.982094 
L 273.872397 300.312598 
L 277.151736 301.091028 
L 280.431074 300.908862 
L 283.710413 300.959891 
L 286.989752 300.522707 
L 290.269091 300.633406 
L 293.54843 299.665683 
L 296.827769 297.978633 
L 300.107107 300.847678 
L 303.386446 300.986447 
L 306.665785 300.638263 
L 309.945124 300.599219 
L 313.224463 300.580926 
L 316.503802 300.435724 
L 319.78314 300.109491 
L 323.062479 299.755694 
L 326.341818 299.680191 
L 329.621157 300.468082 
L 332.900496 295.583989 
L 336.179835 301.048829 
L 339.459174 301.110834 
L 342.738512 300.996097 
L 346.017851 300.761578 
L 349.29719 300.524662 
L 352.576529 301.001207 
L 355.855868 301.212261 
L 359.135207 300.733635 
L 362.414545 301.283601 
L 365.693884 300.488897 
L 368.973223 300.231734 
L 372.252562 300.574871 
L 375.531901 301.09292 
L 378.81124 301.239763 
L 382.090579 300.948979 
L 385.369917 300.90369 
L 388.649256 301.047 
L 391.928595 300.598903 
L 395.207934 301.00436 
L 398.487273 301.230364 
" clip-path="url(#p6bdea880f1)" style="fill: none; stroke: #1f77b4; stroke-width: 1.5; stroke-linecap: square"/>
   </g>
   <g id="line2d_28">
    <path d="M 73.832727 301.823414 
L 77.112066 301.871602 
L 80.391405 301.990439 
L 83.670744 302.338118 
L 86.950083 301.9753 
L 90.229421 302.100255 
L 93.50876 301.020319 
L 96.788099 301.651023 
L 100.067438 301.665341 
L 103.346777 301.630145 
L 106.626116 301.554452 
L 109.905455 301.591478 
L 113.184793 301.475165 
L 116.464132 301.613177 
L 119.743471 301.233014 
L 123.02281 300.547433 
L 126.302149 301.155871 
L 129.581488 300.955413 
L 132.860826 298.645228 
L 136.140165 300.149608 
L 139.419504 300.80876 
L 142.698843 300.507505 
L 145.978182 301.329962 
L 149.257521 302.000405 
L 152.53686 302.128892 
L 155.816198 301.890841 
L 159.095537 301.808967 
L 162.374876 301.920802 
L 165.654215 301.346425 
L 168.933554 301.471128 
L 172.212893 301.203241 
L 175.492231 301.764687 
L 178.77157 301.389696 
L 182.050909 301.596903 
L 185.330248 301.262975 
L 188.609587 301.199835 
L 191.888926 301.361122 
L 195.168264 300.959387 
L 198.447603 301.382631 
L 201.726942 301.370142 
L 205.006281 300.68002 
L 208.28562 301.129946 
L 211.564959 301.374684 
L 214.844298 301.140669 
L 218.123636 301.540386 
L 221.402975 301.44041 
L 224.682314 301.672658 
L 227.961653 301.603968 
L 231.240992 301.632226 
L 234.520331 301.052614 
L 237.799669 301.398211 
L 241.079008 301.969434 
L 244.358347 301.881947 
L 247.637686 301.894121 
L 250.917025 301.660611 
L 254.196364 301.915693 
L 257.475702 301.955494 
L 260.755041 301.617025 
L 264.03438 301.573439 
L 267.313719 301.567762 
L 270.593058 301.048514 
L 273.872397 301.222732 
L 277.151736 301.615321 
L 280.431074 301.576403 
L 283.710413 301.671334 
L 286.989752 301.811427 
L 290.269091 301.403005 
L 293.54843 301.693095 
L 296.827769 301.328638 
L 300.107107 301.758947 
L 303.386446 301.725517 
L 306.665785 301.365853 
L 309.945124 301.843092 
L 313.224463 301.535845 
L 316.503802 300.920973 
L 319.78314 300.727012 
L 323.062479 300.920342 
L 326.341818 299.922216 
L 329.621157 300.167206 
L 332.900496 298.684146 
L 336.179835 300.75855 
L 339.459174 300.979887 
L 342.738512 300.836009 
L 346.017851 299.506604 
L 349.29719 300.164683 
L 352.576529 300.404249 
L 355.855868 300.955791 
L 359.135207 301.232004 
L 362.414545 301.318987 
L 365.693884 300.867547 
L 368.973223 301.240961 
L 372.252562 301.294955 
L 375.531901 301.224624 
L 378.81124 301.425145 
L 382.090579 301.771689 
L 385.369917 300.796144 
L 388.649256 301.090397 
L 391.928595 300.769841 
L 395.207934 300.954341 
L 398.487273 300.937121 
" clip-path="url(#p6bdea880f1)" style="fill: none; stroke: #ff7f0e; stroke-width: 1.5; stroke-linecap: square"/>
   </g>
   <g id="line2d_29">
    <path d="M 73.832727 278.564245 
L 77.112066 263.537043 
L 80.391405 265.288872 
L 83.670744 280.632978 
L 86.950083 255.494068 
L 90.229421 261.408014 
L 93.50876 237.919191 
L 96.788099 259.565733 
L 100.067438 257.037366 
L 103.346777 257.64347 
L 106.626116 255.140523 
L 109.905455 259.818733 
L 113.184793 256.52676 
L 116.464132 260.252954 
L 119.743471 263.658276 
L 123.02281 239.555275 
L 126.302149 258.424044 
L 129.581488 249.274829 
L 132.860826 210.582814 
L 136.140165 250.076787 
L 139.419504 255.869248 
L 142.698843 265.381911 
L 145.978182 251.401524 
L 149.257521 266.538422 
L 152.53686 266.632848 
L 155.816198 266.037025 
L 159.095537 268.076106 
L 162.374876 263.405086 
L 165.654215 254.382088 
L 168.933554 259.315255 
L 172.212893 259.917196 
L 175.492231 250.220665 
L 178.77157 261.598001 
L 182.050909 260.027076 
L 185.330248 237.717093 
L 188.609587 248.989786 
L 191.888926 248.803962 
L 195.168264 256.874249 
L 198.447603 252.575319 
L 201.726942 259.241077 
L 205.006281 260.2006 
L 208.28562 254.511332 
L 211.564959 260.548783 
L 214.844298 243.308592 
L 218.123636 259.543277 
L 221.402975 247.399748 
L 224.682314 258.175585 
L 227.961653 260.802478 
L 231.240992 252.020433 
L 234.520331 203.007237 
L 237.799669 211.698831 
L 241.079008 251.077373 
L 244.358347 227.388218 
L 247.637686 254.904174 
L 250.917025 262.003963 
L 254.196364 269.498991 
L 257.475702 269.435031 
L 260.755041 267.31477 
L 264.03438 272.515635 
L 267.313719 267.228797 
L 270.593058 264.90114 
L 273.872397 267.076656 
L 277.151736 265.213559 
L 280.431074 272.194322 
L 283.710413 266.778051 
L 286.989752 272.823008 
L 290.269091 275.037631 
L 293.54843 269.776907 
L 296.827769 267.752207 
L 300.107107 267.59439 
L 303.386446 269.894924 
L 306.665785 271.794605 
L 309.945124 274.444836 
L 313.224463 267.304804 
L 316.503802 258.72082 
L 319.78314 257.100001 
L 323.062479 264.343983 
L 326.341818 258.150417 
L 329.621157 249.499382 
L 332.900496 247.699615 
L 336.179835 263.412845 
L 339.459174 265.804462 
L 342.738512 266.512119 
L 346.017851 266.459198 
L 349.29719 267.382578 
L 352.576529 273.295452 
L 355.855868 278.342347 
L 359.135207 271.364043 
L 362.414545 268.935527 
L 365.693884 266.998504 
L 368.973223 276.818666 
L 372.252562 272.071007 
L 375.531901 274.270555 
L 378.81124 275.133066 
L 382.090579 279.262573 
L 385.369917 264.65615 
L 388.649256 266.979139 
L 391.928595 259.920792 
L 395.207934 270.351662 
L 398.487273 277.585805 
" clip-path="url(#p6bdea880f1)" style="fill: none; stroke: #2ca02c; stroke-width: 1.5; stroke-linecap: square"/>
   </g>
   <g id="line2d_30">
    <path d="M 73.832727 302.472341 
L 77.112066 302.411728 
L 80.391405 302.296613 
L 83.670744 302.544 
L 86.950083 302.32115 
L 90.229421 302.429137 
L 93.50876 301.840127 
L 96.788099 302.253658 
L 100.067438 302.397031 
L 103.346777 302.39394 
L 106.626116 302.205909 
L 109.905455 302.393814 
L 113.184793 302.414314 
L 116.464132 302.337487 
L 119.743471 302.137723 
L 123.02281 302.271635 
L 126.302149 302.337928 
L 129.581488 302.339505 
L 132.860826 301.555083 
L 136.140165 302.332819 
L 139.419504 302.140498 
L 142.698843 302.388074 
L 145.978182 302.425353 
L 149.257521 302.487988 
L 152.53686 302.517949 
L 155.816198 302.399491 
L 159.095537 302.465028 
L 162.374876 302.418351 
L 165.654215 302.361519 
L 168.933554 302.343921 
L 172.212893 302.150275 
L 175.492231 302.424343 
L 178.77157 302.267598 
L 182.050909 302.314275 
L 185.330248 302.22685 
L 188.609587 302.406556 
L 191.888926 302.426488 
L 195.168264 302.251955 
L 198.447603 302.26949 
L 201.726942 302.454368 
L 205.006281 302.288476 
L 208.28562 302.35969 
L 211.564959 302.351553 
L 214.844298 302.230824 
L 218.123636 302.25309 
L 221.402975 302.286899 
L 224.682314 302.252838 
L 227.961653 302.15551 
L 231.240992 302.158412 
L 234.520331 302.18194 
L 237.799669 301.93512 
L 241.079008 302.036043 
L 244.358347 302.1311 
L 247.637686 301.723246 
L 250.917025 302.187932 
L 254.196364 302.244953 
L 257.475702 302.295099 
L 260.755041 302.232212 
L 264.03438 302.330611 
L 267.313719 301.854067 
L 270.593058 301.055516 
L 273.872397 302.067708 
L 277.151736 302.366439 
L 280.431074 302.123468 
L 283.710413 302.18686 
L 286.989752 302.034277 
L 290.269091 301.421991 
L 293.54843 298.624917 
L 296.827769 299.421955 
L 300.107107 301.152528 
L 303.386446 301.902321 
L 306.665785 302.048911 
L 309.945124 302.218524 
L 313.224463 301.962811 
L 316.503802 301.826187 
L 319.78314 301.7182 
L 323.062479 301.871476 
L 326.341818 301.804804 
L 329.621157 301.873684 
L 332.900496 301.117015 
L 336.179835 301.634308 
L 339.459174 301.862708 
L 342.738512 302.098111 
L 346.017851 302.068212 
L 349.29719 302.237384 
L 352.576529 302.222498 
L 355.855868 302.339631 
L 359.135207 302.381704 
L 362.414545 302.281979 
L 365.693884 302.09666 
L 368.973223 302.397851 
L 372.252562 302.249558 
L 375.531901 302.194492 
L 378.81124 302.097543 
L 382.090579 302.181877 
L 385.369917 302.346381 
L 388.649256 302.219912 
L 391.928595 302.152104 
L 395.207934 302.262047 
L 398.487273 302.348273 
" clip-path="url(#p6bdea880f1)" style="fill: none; stroke: #d62728; stroke-width: 1.5; stroke-linecap: square"/>
   </g>
   <g id="line2d_31">
    <path d="M 73.832727 273.347527 
L 77.112066 270.089389 
L 80.391405 265.991106 
L 83.670744 280.565296 
L 86.950083 259.087611 
L 90.229421 249.93026 
L 93.50876 232.5103 
L 96.788099 257.823301 
L 100.067438 261.483643 
L 103.346777 259.352281 
L 106.626116 261.937922 
L 109.905455 258.787934 
L 113.184793 263.577223 
L 116.464132 254.766225 
L 119.743471 258.320157 
L 123.02281 243.545382 
L 126.302149 250.859127 
L 129.581488 240.36272 
L 132.860826 201.744 
L 136.140165 252.561316 
L 139.419504 253.923646 
L 142.698843 248.565153 
L 145.978182 253.659166 
L 149.257521 262.513371 
L 152.53686 259.23786 
L 155.816198 248.873977 
L 159.095537 255.014306 
L 162.374876 254.17507 
L 165.654215 232.045676 
L 168.933554 246.555781 
L 172.212893 251.697101 
L 175.492231 247.412931 
L 178.77157 258.113202 
L 182.050909 262.462089 
L 185.330248 258.953321 
L 188.609587 257.741806 
L 191.888926 266.301254 
L 195.168264 262.619529 
L 198.447603 258.8184 
L 201.726942 266.004352 
L 205.006281 252.163301 
L 208.28562 251.194002 
L 211.564959 260.860635 
L 214.844298 261.261676 
L 218.123636 268.637994 
L 221.402975 258.261432 
L 224.682314 262.386965 
L 227.961653 261.214243 
L 231.240992 253.778065 
L 234.520331 228.121358 
L 237.799669 205.402197 
L 241.079008 258.701392 
L 244.358347 250.208554 
L 247.637686 262.320861 
L 250.917025 267.438275 
L 254.196364 266.527699 
L 257.475702 263.532627 
L 260.755041 263.842586 
L 264.03438 261.403914 
L 267.313719 259.767641 
L 270.593058 265.459558 
L 273.872397 265.634217 
L 277.151736 270.589461 
L 280.431074 272.240242 
L 283.710413 267.777312 
L 286.989752 274.382138 
L 290.269091 270.882326 
L 293.54843 267.771383 
L 296.827769 269.815636 
L 300.107107 258.150102 
L 303.386446 247.537003 
L 306.665785 267.327953 
L 309.945124 272.990477 
L 313.224463 268.809247 
L 316.503802 259.512496 
L 319.78314 249.492949 
L 323.062479 256.28076 
L 326.341818 254.090737 
L 329.621157 254.725793 
L 332.900496 240.354709 
L 336.179835 256.315137 
L 339.459174 256.127862 
L 342.738512 255.015504 
L 346.017851 260.111914 
L 349.29719 265.426506 
L 352.576529 269.719633 
L 355.855868 273.755345 
L 359.135207 270.403763 
L 362.414545 271.541667 
L 365.693884 259.435353 
L 368.973223 266.826998 
L 372.252562 273.574882 
L 375.531901 270.273825 
L 378.81124 274.13513 
L 382.090579 272.667461 
L 385.369917 272.713317 
L 388.649256 271.143401 
L 391.928595 259.592477 
L 395.207934 271.645429 
L 398.487273 276.578659 
" clip-path="url(#p6bdea880f1)" style="fill: none; stroke: #9467bd; stroke-width: 1.5; stroke-linecap: square"/>
   </g>
   <g id="patch_8">
    <path d="M 57.6 307.584 
L 57.6 196.704 
" style="fill: none; stroke: #000000; stroke-width: 0.8; stroke-linejoin: miter; stroke-linecap: square"/>
   </g>
   <g id="patch_9">
    <path d="M 414.72 307.584 
L 414.72 196.704 
" style="fill: none; stroke: #000000; stroke-width: 0.8; stroke-linejoin: miter; stroke-linecap: square"/>
   </g>
   <g id="patch_10">
    <path d="M 57.6 307.584 
L 414.72 307.584 
" style="fill: none; stroke: #000000; stroke-width: 0.8; stroke-linejoin: miter; stroke-linecap: square"/>
   </g>
   <g id="patch_11">
    <path d="M 57.6 196.704 
L 414.72 196.704 
" style="fill: none; stroke: #000000; stroke-width: 0.8; stroke-linejoin: miter; stroke-linecap: square"/>
   </g>
   <g id="text_26">
    <!-- Correlation of Stock Volume -->
    <g transform="translate(152.65125 190.704)scale(0.12 -0.12)">
     <use xlink:href="#DejaVuSans-43"/>
     <use xlink:href="#DejaVuSans-6f" x="69.824219"/>
     <use xlink:href="#DejaVuSans-72" x="131.005859"/>
     <use xlink:href="#DejaVuSans-72" x="170.369141"/>
     <use xlink:href="#DejaVuSans-65" x="209.232422"/>
     <use xlink:href="#DejaVuSans-6c" x="270.755859"/>
     <use xlink:href="#DejaVuSans-61" x="298.539062"/>
     <use xlink:href="#DejaVuSans-74" x="359.818359"/>
     <use xlink:href="#DejaVuSans-69" x="399.027344"/>
     <use xlink:href="#DejaVuSans-6f" x="426.810547"/>
     <use xlink:href="#DejaVuSans-6e" x="487.992188"/>
     <use xlink:href="#DejaVuSans-20" x="551.371094"/>
     <use xlink:href="#DejaVuSans-6f" x="583.158203"/>
     <use xlink:href="#DejaVuSans-66" x="644.339844"/>
     <use xlink:href="#DejaVuSans-20" x="679.544922"/>
     <use xlink:href="#DejaVuSans-53" x="711.332031"/>
     <use xlink:href="#DejaVuSans-74" x="774.808594"/>
     <use xlink:href="#DejaVuSans-6f" x="814.017578"/>
     <use xlink:href="#DejaVuSans-63" x="875.199219"/>
     <use xlink:href="#DejaVuSans-6b" x="930.179688"/>
     <use xlink:href="#DejaVuSans-20" x="988.089844"/>
     <use xlink:href="#DejaVuSans-56" x="1019.876953"/>
     <use xlink:href="#DejaVuSans-6f" x="1080.535156"/>
     <use xlink:href="#DejaVuSans-6c" x="1141.716797"/>
     <use xlink:href="#DejaVuSans-75" x="1169.5"/>
     <use xlink:href="#DejaVuSans-6d" x="1232.878906"/>
     <use xlink:href="#DejaVuSans-65" x="1330.291016"/>
    </g>
   </g>
  </g>
  <g id="legend_1">
   <g id="patch_12">
    <path d="M 392 81.390625 
L 453.8 81.390625 
Q 455.8 81.390625 455.8 79.390625 
L 455.8 7 
Q 455.8 5 453.8 5 
L 392 5 
Q 390 5 390 7 
L 390 79.390625 
Q 390 81.390625 392 81.390625 
z
" style="fill: #ffffff; opacity: 0.8; stroke: #cccccc; stroke-linejoin: miter"/>
   </g>
   <g id="line2d_32">
    <path d="M 394 13.098437 
L 404 13.098437 
L 414 13.098437 
" style="fill: none; stroke: #1f77b4; stroke-width: 1.5; stroke-linecap: square"/>
   </g>
   <g id="text_27">
    <!-- MMM -->
    <g transform="translate(422 16.598437)scale(0.1 -0.1)">
     <defs>
      <path id="DejaVuSans-4d" d="M 628 4666 
L 1569 4666 
L 2759 1491 
L 3956 4666 
L 4897 4666 
L 4897 0 
L 4281 0 
L 4281 4097 
L 3078 897 
L 2444 897 
L 1241 4097 
L 1241 0 
L 628 0 
L 628 4666 
z
" transform="scale(0.015625)"/>
     </defs>
     <use xlink:href="#DejaVuSans-4d"/>
     <use xlink:href="#DejaVuSans-4d" x="86.279297"/>
     <use xlink:href="#DejaVuSans-4d" x="172.558594"/>
    </g>
   </g>
   <g id="line2d_33">
    <path d="M 394 27.776563 
L 404 27.776563 
L 414 27.776563 
" style="fill: none; stroke: #ff7f0e; stroke-width: 1.5; stroke-linecap: square"/>
   </g>
   <g id="text_28">
    <!-- ACN -->
    <g transform="translate(422 31.276563)scale(0.1 -0.1)">
     <defs>
      <path id="DejaVuSans-41" d="M 2188 4044 
L 1331 1722 
L 3047 1722 
L 2188 4044 
z
M 1831 4666 
L 2547 4666 
L 4325 0 
L 3669 0 
L 3244 1197 
L 1141 1197 
L 716 0 
L 50 0 
L 1831 4666 
z
" transform="scale(0.015625)"/>
      <path id="DejaVuSans-4e" d="M 628 4666 
L 1478 4666 
L 3547 763 
L 3547 4666 
L 4159 4666 
L 4159 0 
L 3309 0 
L 1241 3903 
L 1241 0 
L 628 0 
L 628 4666 
z
" transform="scale(0.015625)"/>
     </defs>
     <use xlink:href="#DejaVuSans-41"/>
     <use xlink:href="#DejaVuSans-43" x="66.658203"/>
     <use xlink:href="#DejaVuSans-4e" x="136.482422"/>
    </g>
   </g>
   <g id="line2d_34">
    <path d="M 394 42.454687 
L 404 42.454687 
L 414 42.454687 
" style="fill: none; stroke: #2ca02c; stroke-width: 1.5; stroke-linecap: square"/>
   </g>
   <g id="text_29">
    <!-- AMZN -->
    <g transform="translate(422 45.954687)scale(0.1 -0.1)">
     <defs>
      <path id="DejaVuSans-5a" d="M 359 4666 
L 4025 4666 
L 4025 4184 
L 1075 531 
L 4097 531 
L 4097 0 
L 288 0 
L 288 481 
L 3238 4134 
L 359 4134 
L 359 4666 
z
" transform="scale(0.015625)"/>
     </defs>
     <use xlink:href="#DejaVuSans-41"/>
     <use xlink:href="#DejaVuSans-4d" x="68.408203"/>
     <use xlink:href="#DejaVuSans-5a" x="154.6875"/>
     <use xlink:href="#DejaVuSans-4e" x="223.193359"/>
    </g>
   </g>
   <g id="line2d_35">
    <path d="M 394 57.132812 
L 404 57.132812 
L 414 57.132812 
" style="fill: none; stroke: #d62728; stroke-width: 1.5; stroke-linecap: square"/>
   </g>
   <g id="text_30">
    <!-- AWK -->
    <g transform="translate(422 60.632812)scale(0.1 -0.1)">
     <defs>
      <path id="DejaVuSans-57" d="M 213 4666 
L 850 4666 
L 1831 722 
L 2809 4666 
L 3519 4666 
L 4500 722 
L 5478 4666 
L 6119 4666 
L 4947 0 
L 4153 0 
L 3169 4050 
L 2175 0 
L 1381 0 
L 213 4666 
z
" transform="scale(0.015625)"/>
      <path id="DejaVuSans-4b" d="M 628 4666 
L 1259 4666 
L 1259 2694 
L 3353 4666 
L 4166 4666 
L 1850 2491 
L 4331 0 
L 3500 0 
L 1259 2247 
L 1259 0 
L 628 0 
L 628 4666 
z
" transform="scale(0.015625)"/>
     </defs>
     <use xlink:href="#DejaVuSans-41"/>
     <use xlink:href="#DejaVuSans-57" x="62.908203"/>
     <use xlink:href="#DejaVuSans-4b" x="161.785156"/>
    </g>
   </g>
   <g id="line2d_36">
    <path d="M 394 71.810937 
L 404 71.810937 
L 414 71.810937 
" style="fill: none; stroke: #9467bd; stroke-width: 1.5; stroke-linecap: square"/>
   </g>
   <g id="text_31">
    <!-- AAPL -->
    <g transform="translate(422 75.310937)scale(0.1 -0.1)">
     <defs>
      <path id="DejaVuSans-4c" d="M 628 4666 
L 1259 4666 
L 1259 531 
L 3531 531 
L 3531 0 
L 628 0 
L 628 4666 
z
" transform="scale(0.015625)"/>
     </defs>
     <use xlink:href="#DejaVuSans-41"/>
     <use xlink:href="#DejaVuSans-41" x="71.158203"/>
     <use xlink:href="#DejaVuSans-50" x="139.566406"/>
     <use xlink:href="#DejaVuSans-4c" x="199.869141"/>
    </g>
   </g>
  </g>
 </g>
 <defs>
  <clipPath id="pf4d08d3e16">
   <rect x="57.6" y="41.472" width="357.12" height="110.88"/>
  </clipPath>
  <clipPath id="p6bdea880f1">
   <rect x="57.6" y="196.704" width="357.12" height="110.88"/>
  </clipPath>
 </defs>
</svg>
