<?xml version="1.0" encoding="utf-8" standalone="no"?>
<!DOCTYPE svg PUBLIC "-//W3C//DTD SVG 1.1//EN"
  "http://www.w3.org/Graphics/SVG/1.1/DTD/svg11.dtd">
<svg xmlns:xlink="http://www.w3.org/1999/xlink" width="720pt" height="576pt" viewBox="0 0 720 576" xmlns="http://www.w3.org/2000/svg" version="1.1">
 <metadata>
  <rdf:RDF xmlns:dc="http://purl.org/dc/elements/1.1/" xmlns:cc="http://creativecommons.org/ns#" xmlns:rdf="http://www.w3.org/1999/02/22-rdf-syntax-ns#">
   <cc:Work>
    <dc:type rdf:resource="http://purl.org/dc/dcmitype/StillImage"/>
    <dc:date>2023-05-02T01:17:25.941383</dc:date>
    <dc:format>image/svg+xml</dc:format>
    <dc:creator>
     <cc:Agent>
      <dc:title>Matplotlib v3.7.1, https://matplotlib.org/</dc:title>
     </cc:Agent>
    </dc:creator>
   </cc:Work>
  </rdf:RDF>
 </metadata>
 <defs>
  <style type="text/css">*{stroke-linejoin: round; stroke-linecap: butt}</style>
 </defs>
 <g id="figure_1">
  <g id="patch_1">
   <path d="M 0 576 
L 720 576 
L 720 0 
L 0 0 
z
" style="fill: #ffffff"/>
  </g>
  <g id="axes_1">
   <g id="patch_2">
    <path d="M 90 232.32 
L 648 232.32 
L 648 69.12 
L 90 69.12 
z
" style="fill: #ffffff"/>
   </g>
   <g id="matplotlib.axis_1">
    <g id="xtick_1">
     <g id="line2d_1">
      <defs>
       <path id="mb999241860" d="M 0 0 
L 0 3.5 
" style="stroke: #000000; stroke-width: 0.8"/>
      </defs>
      <g>
       <use xlink:href="#mb999241860" x="177.478664" y="232.32" style="stroke: #000000; stroke-width: 0.8"/>
      </g>
     </g>
     <g id="text_1">
      <!-- 2023-02-01 -->
      <g transform="translate(126.109213 274.958252) rotate(-30) scale(0.1 -0.1)">
       <defs>
        <path id="DejaVuSans-32" d="M 1228 531 
L 3431 531 
L 3431 0 
L 469 0 
L 469 531 
Q 828 903 1448 1529 
Q 2069 2156 2228 2338 
Q 2531 2678 2651 2914 
Q 2772 3150 2772 3378 
Q 2772 3750 2511 3984 
Q 2250 4219 1831 4219 
Q 1534 4219 1204 4116 
Q 875 4013 500 3803 
L 500 4441 
Q 881 4594 1212 4672 
Q 1544 4750 1819 4750 
Q 2544 4750 2975 4387 
Q 3406 4025 3406 3419 
Q 3406 3131 3298 2873 
Q 3191 2616 2906 2266 
Q 2828 2175 2409 1742 
Q 1991 1309 1228 531 
z
" transform="scale(0.015625)"/>
        <path id="DejaVuSans-30" d="M 2034 4250 
Q 1547 4250 1301 3770 
Q 1056 3291 1056 2328 
Q 1056 1369 1301 889 
Q 1547 409 2034 409 
Q 2525 409 2770 889 
Q 3016 1369 3016 2328 
Q 3016 3291 2770 3770 
Q 2525 4250 2034 4250 
z
M 2034 4750 
Q 2819 4750 3233 4129 
Q 3647 3509 3647 2328 
Q 3647 1150 3233 529 
Q 2819 -91 2034 -91 
Q 1250 -91 836 529 
Q 422 1150 422 2328 
Q 422 3509 836 4129 
Q 1250 4750 2034 4750 
z
" transform="scale(0.015625)"/>
        <path id="DejaVuSans-33" d="M 2597 2516 
Q 3050 2419 3304 2112 
Q 3559 1806 3559 1356 
Q 3559 666 3084 287 
Q 2609 -91 1734 -91 
Q 1441 -91 1130 -33 
Q 819 25 488 141 
L 488 750 
Q 750 597 1062 519 
Q 1375 441 1716 441 
Q 2309 441 2620 675 
Q 2931 909 2931 1356 
Q 2931 1769 2642 2001 
Q 2353 2234 1838 2234 
L 1294 2234 
L 1294 2753 
L 1863 2753 
Q 2328 2753 2575 2939 
Q 2822 3125 2822 3475 
Q 2822 3834 2567 4026 
Q 2313 4219 1838 4219 
Q 1578 4219 1281 4162 
Q 984 4106 628 3988 
L 628 4550 
Q 988 4650 1302 4700 
Q 1616 4750 1894 4750 
Q 2613 4750 3031 4423 
Q 3450 4097 3450 3541 
Q 3450 3153 3228 2886 
Q 3006 2619 2597 2516 
z
" transform="scale(0.015625)"/>
        <path id="DejaVuSans-2d" d="M 313 2009 
L 1997 2009 
L 1997 1497 
L 313 1497 
L 313 2009 
z
" transform="scale(0.015625)"/>
        <path id="DejaVuSans-31" d="M 794 531 
L 1825 531 
L 1825 4091 
L 703 3866 
L 703 4441 
L 1819 4666 
L 2450 4666 
L 2450 531 
L 3481 531 
L 3481 0 
L 794 0 
L 794 531 
z
" transform="scale(0.015625)"/>
       </defs>
       <use xlink:href="#DejaVuSans-32"/>
       <use xlink:href="#DejaVuSans-30" x="63.623047"/>
       <use xlink:href="#DejaVuSans-32" x="127.246094"/>
       <use xlink:href="#DejaVuSans-33" x="190.869141"/>
       <use xlink:href="#DejaVuSans-2d" x="254.492188"/>
       <use xlink:href="#DejaVuSans-30" x="290.576172"/>
       <use xlink:href="#DejaVuSans-32" x="354.199219"/>
       <use xlink:href="#DejaVuSans-2d" x="417.822266"/>
       <use xlink:href="#DejaVuSans-30" x="453.90625"/>
       <use xlink:href="#DejaVuSans-31" x="517.529297"/>
      </g>
     </g>
    </g>
    <g id="xtick_2">
     <g id="line2d_2">
      <g>
       <use xlink:href="#mb999241860" x="249.946197" y="232.32" style="stroke: #000000; stroke-width: 0.8"/>
      </g>
     </g>
     <g id="text_2">
      <!-- 2023-02-15 -->
      <g transform="translate(198.576745 274.958252) rotate(-30) scale(0.1 -0.1)">
       <defs>
        <path id="DejaVuSans-35" d="M 691 4666 
L 3169 4666 
L 3169 4134 
L 1269 4134 
L 1269 2991 
Q 1406 3038 1543 3061 
Q 1681 3084 1819 3084 
Q 2600 3084 3056 2656 
Q 3513 2228 3513 1497 
Q 3513 744 3044 326 
Q 2575 -91 1722 -91 
Q 1428 -91 1123 -41 
Q 819 9 494 109 
L 494 744 
Q 775 591 1075 516 
Q 1375 441 1709 441 
Q 2250 441 2565 725 
Q 2881 1009 2881 1497 
Q 2881 1984 2565 2268 
Q 2250 2553 1709 2553 
Q 1456 2553 1204 2497 
Q 953 2441 691 2322 
L 691 4666 
z
" transform="scale(0.015625)"/>
       </defs>
       <use xlink:href="#DejaVuSans-32"/>
       <use xlink:href="#DejaVuSans-30" x="63.623047"/>
       <use xlink:href="#DejaVuSans-32" x="127.246094"/>
       <use xlink:href="#DejaVuSans-33" x="190.869141"/>
       <use xlink:href="#DejaVuSans-2d" x="254.492188"/>
       <use xlink:href="#DejaVuSans-30" x="290.576172"/>
       <use xlink:href="#DejaVuSans-32" x="354.199219"/>
       <use xlink:href="#DejaVuSans-2d" x="417.822266"/>
       <use xlink:href="#DejaVuSans-31" x="453.90625"/>
       <use xlink:href="#DejaVuSans-35" x="517.529297"/>
      </g>
     </g>
    </g>
    <g id="xtick_3">
     <g id="line2d_3">
      <g>
       <use xlink:href="#mb999241860" x="322.413729" y="232.32" style="stroke: #000000; stroke-width: 0.8"/>
      </g>
     </g>
     <g id="text_3">
      <!-- 2023-03-01 -->
      <g transform="translate(271.044278 274.958252) rotate(-30) scale(0.1 -0.1)">
       <use xlink:href="#DejaVuSans-32"/>
       <use xlink:href="#DejaVuSans-30" x="63.623047"/>
       <use xlink:href="#DejaVuSans-32" x="127.246094"/>
       <use xlink:href="#DejaVuSans-33" x="190.869141"/>
       <use xlink:href="#DejaVuSans-2d" x="254.492188"/>
       <use xlink:href="#DejaVuSans-30" x="290.576172"/>
       <use xlink:href="#DejaVuSans-33" x="354.199219"/>
       <use xlink:href="#DejaVuSans-2d" x="417.822266"/>
       <use xlink:href="#DejaVuSans-30" x="453.90625"/>
       <use xlink:href="#DejaVuSans-31" x="517.529297"/>
      </g>
     </g>
    </g>
    <g id="xtick_4">
     <g id="line2d_4">
      <g>
       <use xlink:href="#mb999241860" x="394.881262" y="232.32" style="stroke: #000000; stroke-width: 0.8"/>
      </g>
     </g>
     <g id="text_4">
      <!-- 2023-03-15 -->
      <g transform="translate(343.51181 274.958252) rotate(-30) scale(0.1 -0.1)">
       <use xlink:href="#DejaVuSans-32"/>
       <use xlink:href="#DejaVuSans-30" x="63.623047"/>
       <use xlink:href="#DejaVuSans-32" x="127.246094"/>
       <use xlink:href="#DejaVuSans-33" x="190.869141"/>
       <use xlink:href="#DejaVuSans-2d" x="254.492188"/>
       <use xlink:href="#DejaVuSans-30" x="290.576172"/>
       <use xlink:href="#DejaVuSans-33" x="354.199219"/>
       <use xlink:href="#DejaVuSans-2d" x="417.822266"/>
       <use xlink:href="#DejaVuSans-31" x="453.90625"/>
       <use xlink:href="#DejaVuSans-35" x="517.529297"/>
      </g>
     </g>
    </g>
    <g id="xtick_5">
     <g id="line2d_5">
      <g>
       <use xlink:href="#mb999241860" x="482.877551" y="232.32" style="stroke: #000000; stroke-width: 0.8"/>
      </g>
     </g>
     <g id="text_5">
      <!-- 2023-04-01 -->
      <g transform="translate(431.5081 274.958252) rotate(-30) scale(0.1 -0.1)">
       <defs>
        <path id="DejaVuSans-34" d="M 2419 4116 
L 825 1625 
L 2419 1625 
L 2419 4116 
z
M 2253 4666 
L 3047 4666 
L 3047 1625 
L 3713 1625 
L 3713 1100 
L 3047 1100 
L 3047 0 
L 2419 0 
L 2419 1100 
L 313 1100 
L 313 1709 
L 2253 4666 
z
" transform="scale(0.015625)"/>
       </defs>
       <use xlink:href="#DejaVuSans-32"/>
       <use xlink:href="#DejaVuSans-30" x="63.623047"/>
       <use xlink:href="#DejaVuSans-32" x="127.246094"/>
       <use xlink:href="#DejaVuSans-33" x="190.869141"/>
       <use xlink:href="#DejaVuSans-2d" x="254.492188"/>
       <use xlink:href="#DejaVuSans-30" x="290.576172"/>
       <use xlink:href="#DejaVuSans-34" x="354.199219"/>
       <use xlink:href="#DejaVuSans-2d" x="417.822266"/>
       <use xlink:href="#DejaVuSans-30" x="453.90625"/>
       <use xlink:href="#DejaVuSans-31" x="517.529297"/>
      </g>
     </g>
    </g>
    <g id="xtick_6">
     <g id="line2d_6">
      <g>
       <use xlink:href="#mb999241860" x="555.345083" y="232.32" style="stroke: #000000; stroke-width: 0.8"/>
      </g>
     </g>
     <g id="text_6">
      <!-- 2023-04-15 -->
      <g transform="translate(503.975632 274.958252) rotate(-30) scale(0.1 -0.1)">
       <use xlink:href="#DejaVuSans-32"/>
       <use xlink:href="#DejaVuSans-30" x="63.623047"/>
       <use xlink:href="#DejaVuSans-32" x="127.246094"/>
       <use xlink:href="#DejaVuSans-33" x="190.869141"/>
       <use xlink:href="#DejaVuSans-2d" x="254.492188"/>
       <use xlink:href="#DejaVuSans-30" x="290.576172"/>
       <use xlink:href="#DejaVuSans-34" x="354.199219"/>
       <use xlink:href="#DejaVuSans-2d" x="417.822266"/>
       <use xlink:href="#DejaVuSans-31" x="453.90625"/>
       <use xlink:href="#DejaVuSans-35" x="517.529297"/>
      </g>
     </g>
    </g>
    <g id="xtick_7">
     <g id="line2d_7">
      <g>
       <use xlink:href="#mb999241860" x="638.165121" y="232.32" style="stroke: #000000; stroke-width: 0.8"/>
      </g>
     </g>
     <g id="text_7">
      <!-- 2023-05-01 -->
      <g transform="translate(586.795669 274.958252) rotate(-30) scale(0.1 -0.1)">
       <use xlink:href="#DejaVuSans-32"/>
       <use xlink:href="#DejaVuSans-30" x="63.623047"/>
       <use xlink:href="#DejaVuSans-32" x="127.246094"/>
       <use xlink:href="#DejaVuSans-33" x="190.869141"/>
       <use xlink:href="#DejaVuSans-2d" x="254.492188"/>
       <use xlink:href="#DejaVuSans-30" x="290.576172"/>
       <use xlink:href="#DejaVuSans-35" x="354.199219"/>
       <use xlink:href="#DejaVuSans-2d" x="417.822266"/>
       <use xlink:href="#DejaVuSans-30" x="453.90625"/>
       <use xlink:href="#DejaVuSans-31" x="517.529297"/>
      </g>
     </g>
    </g>
    <g id="text_8">
     <!-- Date -->
     <g transform="translate(357.049219 288.357752) scale(0.1 -0.1)">
      <defs>
       <path id="DejaVuSans-44" d="M 1259 4147 
L 1259 519 
L 2022 519 
Q 2988 519 3436 956 
Q 3884 1394 3884 2338 
Q 3884 3275 3436 3711 
Q 2988 4147 2022 4147 
L 1259 4147 
z
M 628 4666 
L 1925 4666 
Q 3281 4666 3915 4102 
Q 4550 3538 4550 2338 
Q 4550 1131 3912 565 
Q 3275 0 1925 0 
L 628 0 
L 628 4666 
z
" transform="scale(0.015625)"/>
       <path id="DejaVuSans-61" d="M 2194 1759 
Q 1497 1759 1228 1600 
Q 959 1441 959 1056 
Q 959 750 1161 570 
Q 1363 391 1709 391 
Q 2188 391 2477 730 
Q 2766 1069 2766 1631 
L 2766 1759 
L 2194 1759 
z
M 3341 1997 
L 3341 0 
L 2766 0 
L 2766 531 
Q 2569 213 2275 61 
Q 1981 -91 1556 -91 
Q 1019 -91 701 211 
Q 384 513 384 1019 
Q 384 1609 779 1909 
Q 1175 2209 1959 2209 
L 2766 2209 
L 2766 2266 
Q 2766 2663 2505 2880 
Q 2244 3097 1772 3097 
Q 1472 3097 1187 3025 
Q 903 2953 641 2809 
L 641 3341 
Q 956 3463 1253 3523 
Q 1550 3584 1831 3584 
Q 2591 3584 2966 3190 
Q 3341 2797 3341 1997 
z
" transform="scale(0.015625)"/>
       <path id="DejaVuSans-74" d="M 1172 4494 
L 1172 3500 
L 2356 3500 
L 2356 3053 
L 1172 3053 
L 1172 1153 
Q 1172 725 1289 603 
Q 1406 481 1766 481 
L 2356 481 
L 2356 0 
L 1766 0 
Q 1100 0 847 248 
Q 594 497 594 1153 
L 594 3053 
L 172 3053 
L 172 3500 
L 594 3500 
L 594 4494 
L 1172 4494 
z
" transform="scale(0.015625)"/>
       <path id="DejaVuSans-65" d="M 3597 1894 
L 3597 1613 
L 953 1613 
Q 991 1019 1311 708 
Q 1631 397 2203 397 
Q 2534 397 2845 478 
Q 3156 559 3463 722 
L 3463 178 
Q 3153 47 2828 -22 
Q 2503 -91 2169 -91 
Q 1331 -91 842 396 
Q 353 884 353 1716 
Q 353 2575 817 3079 
Q 1281 3584 2069 3584 
Q 2775 3584 3186 3129 
Q 3597 2675 3597 1894 
z
M 3022 2063 
Q 3016 2534 2758 2815 
Q 2500 3097 2075 3097 
Q 1594 3097 1305 2825 
Q 1016 2553 972 2059 
L 3022 2063 
z
" transform="scale(0.015625)"/>
      </defs>
      <use xlink:href="#DejaVuSans-44"/>
      <use xlink:href="#DejaVuSans-61" x="77.001953"/>
      <use xlink:href="#DejaVuSans-74" x="138.28125"/>
      <use xlink:href="#DejaVuSans-65" x="177.490234"/>
     </g>
    </g>
   </g>
   <g id="matplotlib.axis_2">
    <g id="ytick_1">
     <g id="line2d_8">
      <defs>
       <path id="m24a415afb9" d="M 0 0 
L -3.5 0 
" style="stroke: #000000; stroke-width: 0.8"/>
      </defs>
      <g>
       <use xlink:href="#m24a415afb9" x="90" y="218.139118" style="stroke: #000000; stroke-width: 0.8"/>
      </g>
     </g>
     <g id="text_9">
      <!-- 100 -->
      <g transform="translate(63.9125 221.938336) scale(0.1 -0.1)">
       <use xlink:href="#DejaVuSans-31"/>
       <use xlink:href="#DejaVuSans-30" x="63.623047"/>
       <use xlink:href="#DejaVuSans-30" x="127.246094"/>
      </g>
     </g>
    </g>
    <g id="ytick_2">
     <g id="line2d_9">
      <g>
       <use xlink:href="#m24a415afb9" x="90" y="181.662835" style="stroke: #000000; stroke-width: 0.8"/>
      </g>
     </g>
     <g id="text_10">
      <!-- 150 -->
      <g transform="translate(63.9125 185.462053) scale(0.1 -0.1)">
       <use xlink:href="#DejaVuSans-31"/>
       <use xlink:href="#DejaVuSans-35" x="63.623047"/>
       <use xlink:href="#DejaVuSans-30" x="127.246094"/>
      </g>
     </g>
    </g>
    <g id="ytick_3">
     <g id="line2d_10">
      <g>
       <use xlink:href="#m24a415afb9" x="90" y="145.186551" style="stroke: #000000; stroke-width: 0.8"/>
      </g>
     </g>
     <g id="text_11">
      <!-- 200 -->
      <g transform="translate(63.9125 148.98577) scale(0.1 -0.1)">
       <use xlink:href="#DejaVuSans-32"/>
       <use xlink:href="#DejaVuSans-30" x="63.623047"/>
       <use xlink:href="#DejaVuSans-30" x="127.246094"/>
      </g>
     </g>
    </g>
    <g id="ytick_4">
     <g id="line2d_11">
      <g>
       <use xlink:href="#m24a415afb9" x="90" y="108.710268" style="stroke: #000000; stroke-width: 0.8"/>
      </g>
     </g>
     <g id="text_12">
      <!-- 250 -->
      <g transform="translate(63.9125 112.509487) scale(0.1 -0.1)">
       <use xlink:href="#DejaVuSans-32"/>
       <use xlink:href="#DejaVuSans-35" x="63.623047"/>
       <use xlink:href="#DejaVuSans-30" x="127.246094"/>
      </g>
     </g>
    </g>
    <g id="ytick_5">
     <g id="line2d_12">
      <g>
       <use xlink:href="#m24a415afb9" x="90" y="72.233985" style="stroke: #000000; stroke-width: 0.8"/>
      </g>
     </g>
     <g id="text_13">
      <!-- 300 -->
      <g transform="translate(63.9125 76.033204) scale(0.1 -0.1)">
       <use xlink:href="#DejaVuSans-33"/>
       <use xlink:href="#DejaVuSans-30" x="63.623047"/>
       <use xlink:href="#DejaVuSans-30" x="127.246094"/>
      </g>
     </g>
    </g>
    <g id="text_14">
     <!-- Stock Price -->
     <g transform="translate(57.832812 178.345) rotate(-90) scale(0.1 -0.1)">
      <defs>
       <path id="DejaVuSans-53" d="M 3425 4513 
L 3425 3897 
Q 3066 4069 2747 4153 
Q 2428 4238 2131 4238 
Q 1616 4238 1336 4038 
Q 1056 3838 1056 3469 
Q 1056 3159 1242 3001 
Q 1428 2844 1947 2747 
L 2328 2669 
Q 3034 2534 3370 2195 
Q 3706 1856 3706 1288 
Q 3706 609 3251 259 
Q 2797 -91 1919 -91 
Q 1588 -91 1214 -16 
Q 841 59 441 206 
L 441 856 
Q 825 641 1194 531 
Q 1563 422 1919 422 
Q 2459 422 2753 634 
Q 3047 847 3047 1241 
Q 3047 1584 2836 1778 
Q 2625 1972 2144 2069 
L 1759 2144 
Q 1053 2284 737 2584 
Q 422 2884 422 3419 
Q 422 4038 858 4394 
Q 1294 4750 2059 4750 
Q 2388 4750 2728 4690 
Q 3069 4631 3425 4513 
z
" transform="scale(0.015625)"/>
       <path id="DejaVuSans-6f" d="M 1959 3097 
Q 1497 3097 1228 2736 
Q 959 2375 959 1747 
Q 959 1119 1226 758 
Q 1494 397 1959 397 
Q 2419 397 2687 759 
Q 2956 1122 2956 1747 
Q 2956 2369 2687 2733 
Q 2419 3097 1959 3097 
z
M 1959 3584 
Q 2709 3584 3137 3096 
Q 3566 2609 3566 1747 
Q 3566 888 3137 398 
Q 2709 -91 1959 -91 
Q 1206 -91 779 398 
Q 353 888 353 1747 
Q 353 2609 779 3096 
Q 1206 3584 1959 3584 
z
" transform="scale(0.015625)"/>
       <path id="DejaVuSans-63" d="M 3122 3366 
L 3122 2828 
Q 2878 2963 2633 3030 
Q 2388 3097 2138 3097 
Q 1578 3097 1268 2742 
Q 959 2388 959 1747 
Q 959 1106 1268 751 
Q 1578 397 2138 397 
Q 2388 397 2633 464 
Q 2878 531 3122 666 
L 3122 134 
Q 2881 22 2623 -34 
Q 2366 -91 2075 -91 
Q 1284 -91 818 406 
Q 353 903 353 1747 
Q 353 2603 823 3093 
Q 1294 3584 2113 3584 
Q 2378 3584 2631 3529 
Q 2884 3475 3122 3366 
z
" transform="scale(0.015625)"/>
       <path id="DejaVuSans-6b" d="M 581 4863 
L 1159 4863 
L 1159 1991 
L 2875 3500 
L 3609 3500 
L 1753 1863 
L 3688 0 
L 2938 0 
L 1159 1709 
L 1159 0 
L 581 0 
L 581 4863 
z
" transform="scale(0.015625)"/>
       <path id="DejaVuSans-20" transform="scale(0.015625)"/>
       <path id="DejaVuSans-50" d="M 1259 4147 
L 1259 2394 
L 2053 2394 
Q 2494 2394 2734 2622 
Q 2975 2850 2975 3272 
Q 2975 3691 2734 3919 
Q 2494 4147 2053 4147 
L 1259 4147 
z
M 628 4666 
L 2053 4666 
Q 2838 4666 3239 4311 
Q 3641 3956 3641 3272 
Q 3641 2581 3239 2228 
Q 2838 1875 2053 1875 
L 1259 1875 
L 1259 0 
L 628 0 
L 628 4666 
z
" transform="scale(0.015625)"/>
       <path id="DejaVuSans-72" d="M 2631 2963 
Q 2534 3019 2420 3045 
Q 2306 3072 2169 3072 
Q 1681 3072 1420 2755 
Q 1159 2438 1159 1844 
L 1159 0 
L 581 0 
L 581 3500 
L 1159 3500 
L 1159 2956 
Q 1341 3275 1631 3429 
Q 1922 3584 2338 3584 
Q 2397 3584 2469 3576 
Q 2541 3569 2628 3553 
L 2631 2963 
z
" transform="scale(0.015625)"/>
       <path id="DejaVuSans-69" d="M 603 3500 
L 1178 3500 
L 1178 0 
L 603 0 
L 603 3500 
z
M 603 4863 
L 1178 4863 
L 1178 4134 
L 603 4134 
L 603 4863 
z
" transform="scale(0.015625)"/>
      </defs>
      <use xlink:href="#DejaVuSans-53"/>
      <use xlink:href="#DejaVuSans-74" x="63.476562"/>
      <use xlink:href="#DejaVuSans-6f" x="102.685547"/>
      <use xlink:href="#DejaVuSans-63" x="163.867188"/>
      <use xlink:href="#DejaVuSans-6b" x="218.847656"/>
      <use xlink:href="#DejaVuSans-20" x="276.757812"/>
      <use xlink:href="#DejaVuSans-50" x="308.544922"/>
      <use xlink:href="#DejaVuSans-72" x="367.097656"/>
      <use xlink:href="#DejaVuSans-69" x="408.210938"/>
      <use xlink:href="#DejaVuSans-63" x="435.994141"/>
      <use xlink:href="#DejaVuSans-65" x="490.974609"/>
     </g>
    </g>
   </g>
   <g id="line2d_13">
    <path d="M 115.363636 203.074412 
L 130.892393 201.637245 
L 136.068646 207.196233 
L 141.244898 208.706351 
L 146.42115 208.254043 
L 151.597403 207.013851 
L 167.12616 208.961684 
L 172.302412 207.137869 
L 177.478664 206.56884 
L 182.654917 203.337041 
L 187.831169 205.379715 
L 203.359926 206.101944 
L 208.536178 205.810133 
L 213.71243 207.013851 
L 218.888683 208.706351 
L 224.064935 208.013304 
L 239.593692 206.991966 
L 244.769944 207.772559 
L 249.946197 207.349432 
L 255.122449 209.38481 
L 260.298701 208.662581 
L 281.003711 211.391005 
L 286.179963 211.617157 
L 291.356215 211.639041 
L 296.532468 212.448815 
L 312.061224 212.105943 
L 317.237477 212.492591 
L 322.413729 210.690661 
L 327.589981 210.916813 
L 332.766234 209.924657 
L 348.294991 210.894928 
L 353.471243 212.966783 
L 358.647495 212.915711 
L 363.823748 214.112139 
L 369 215.177245 
L 384.528757 215.585778 
L 389.705009 216.111037 
L 394.881262 216.111037 
L 400.057514 215.067815 
L 405.233766 215.935953 
L 420.762523 214.994864 
L 425.938776 215.009452 
L 431.115028 217.015648 
L 436.29128 217.409592 
L 441.467532 217.307459 
L 456.996289 217.052126 
L 462.172542 216.869745 
L 467.348794 215.811929 
L 472.525046 216.111037 
L 477.701299 214.411241 
L 493.230056 214.805186 
L 498.406308 216.497685 
L 503.58256 216.468503 
L 508.758813 217.001059 
L 529.463822 216.125625 
L 534.640074 214.812482 
L 539.816327 214.951089 
L 544.992579 213.652534 
L 550.168831 213.929757 
L 565.697588 213.192935 
L 570.87384 213.564994 
L 576.050093 213.7036 
L 581.226345 214.688459 
L 586.402597 214.87084 
L 601.931354 214.44772 
L 607.107607 214.951089 
L 612.283859 216.008904 
L 617.460111 214.250745 
L 622.636364 213.601467 
" clip-path="url(#pafb5657b4c)" style="fill: none; stroke: #1f77b4; stroke-width: 1.5; stroke-linecap: square"/>
   </g>
   <g id="line2d_14">
    <path d="M 115.363636 86.48162 
L 130.892393 87.305988 
L 136.068646 90.566968 
L 141.244898 91.814451 
L 146.42115 91.011968 
L 151.597403 88.816111 
L 167.12616 90.968199 
L 172.302412 87.517556 
L 177.478664 84.198201 
L 182.654917 76.538182 
L 187.831169 80.098271 
L 203.359926 83.556215 
L 208.536178 81.119602 
L 213.71243 83.388438 
L 218.888683 83.060143 
L 224.064935 83.935583 
L 239.593692 80.732954 
L 244.769944 83.344669 
L 249.946197 81.243631 
L 255.122449 85.934476 
L 260.298701 88.976608 
L 281.003711 94.739856 
L 286.179963 94.389676 
L 291.356215 93.22243 
L 296.532468 96.65121 
L 312.061224 96.855476 
L 317.237477 97.366153 
L 322.413729 98.796017 
L 327.589981 97.577699 
L 332.766234 94.703366 
L 348.294991 94.389676 
L 353.471243 98.350995 
L 358.647495 98.744945 
L 363.823748 101.59009 
L 369 106.55817 
L 384.528757 107.754591 
L 389.705009 106.901048 
L 394.881262 111.504353 
L 400.057514 106.580054 
L 405.233766 108.710268 
L 420.762523 106.849975 
L 425.938776 103.151286 
L 431.115028 106.324716 
L 436.29128 92.90874 
L 441.467532 92.660703 
L 456.996289 91.230839 
L 462.172542 90.472126 
L 467.348794 86.868268 
L 472.525046 84.883957 
L 477.701299 82.585956 
L 493.230056 82.564071 
L 498.406308 82.564071 
L 503.58256 85.854239 
L 508.758813 85.584296 
L 529.463822 85.5989 
L 534.640074 82.20661 
L 539.816327 84.081475 
L 544.992579 82.979906 
L 550.168831 87.371642 
L 565.697588 86.839081 
L 570.87384 86.853685 
L 576.050093 86.897455 
L 581.226345 90.070896 
L 586.402597 89.501867 
L 601.931354 88.830694 
L 607.107607 93.609078 
L 612.283859 93.237035 
L 617.460111 90.143831 
L 622.636364 86.612929 
" clip-path="url(#pafb5657b4c)" style="fill: none; stroke: #ff7f0e; stroke-width: 1.5; stroke-linecap: square"/>
   </g>
   <g id="line2d_15">
    <path d="M 115.363636 220.145313 
L 130.892393 219.948344 
L 136.068646 220.823772 
L 141.244898 220.19638 
L 146.42115 218.708147 
L 151.597403 216.504982 
L 167.12616 217.737876 
L 172.302412 215.855704 
L 177.478664 214.382059 
L 182.654917 208.720939 
L 187.831169 215.666026 
L 203.359926 216.548752 
L 208.536178 216.599818 
L 213.71243 218.102639 
L 218.888683 219.423084 
L 224.064935 219.882684 
L 239.593692 218.474699 
L 244.769944 218.357978 
L 249.946197 217.292865 
L 255.122449 219.488739 
L 260.298701 220.181792 
L 281.003711 222.093145 
L 286.179963 221.21042 
L 291.356215 221.188535 
L 296.532468 222.881035 
L 312.061224 222.691356 
L 317.237477 222.348478 
L 322.413729 223.851305 
L 327.589981 223.880487 
L 332.766234 221.859697 
L 348.294991 222.698653 
L 353.471243 222.844556 
L 358.647495 222.574635 
L 363.823748 223.792942 
L 369 224.901818 
L 384.528757 223.661627 
L 389.705009 221.874291 
L 394.881262 220.911317 
L 400.057514 218.109936 
L 405.233766 218.905122 
L 420.762523 219.809732 
L 425.938776 217.694107 
L 431.115028 219.087503 
L 436.29128 219.080206 
L 441.467532 219.503333 
L 456.996289 219.568987 
L 462.172542 220.15261 
L 467.348794 217.956736 
L 472.525046 216.680066 
L 477.701299 215.738978 
L 493.230056 216.380958 
L 498.406308 215.257494 
L 503.58256 217.336641 
L 508.758813 216.636297 
L 529.463822 216.556048 
L 534.640074 218.197481 
L 539.816327 219.722187 
L 544.992579 216.388255 
L 550.168831 216.308007 
L 565.697588 216.140219 
L 570.87384 216.461206 
L 576.050093 215.002155 
L 581.226345 215.359627 
L 586.402597 213.06162 
L 601.931354 213.608764 
L 607.107607 216.264237 
L 612.283859 214.506077 
L 617.460111 210.975176 
L 622.636364 214.163205 
" clip-path="url(#pafb5657b4c)" style="fill: none; stroke: #2ca02c; stroke-width: 1.5; stroke-linecap: square"/>
   </g>
   <g id="line2d_16">
    <path d="M 115.363636 180.53937 
L 130.892393 180.955194 
L 136.068646 178.350793 
L 141.244898 177.643152 
L 146.42115 177.139778 
L 151.597403 176.541561 
L 167.12616 178.015206 
L 172.302412 176.928209 
L 177.478664 175.374327 
L 182.654917 173.929858 
L 187.831169 176.840669 
L 203.359926 176.986572 
L 208.536178 177.672328 
L 213.71243 181.15946 
L 218.888683 182.34859 
L 224.064935 181.33455 
L 239.593692 180.415341 
L 244.769944 182.166209 
L 249.946197 182.209979 
L 255.122449 183.515825 
L 260.298701 181.947349 
L 281.003711 183.369922 
L 286.179963 184.084865 
L 291.356215 186.142122 
L 296.532468 187.820033 
L 312.061224 189.118588 
L 317.237477 188.680868 
L 322.413729 190.315009 
L 327.589981 190.00861 
L 332.766234 189.176951 
L 348.294991 189.016455 
L 353.471243 191.051826 
L 358.647495 190.242052 
L 363.823748 191.971036 
L 369 193.590584 
L 384.528757 191.606273 
L 389.705009 190.657887 
L 394.881262 188.498486 
L 400.057514 187.024853 
L 405.233766 187.637651 
L 420.762523 187.090507 
L 425.938776 189.78975 
L 431.115028 191.59897 
L 436.29128 191.350934 
L 441.467532 187.615767 
L 456.996289 187.732493 
L 462.172542 188.068069 
L 467.348794 185.937855 
L 472.525046 184.661185 
L 477.701299 184.223466 
L 493.230056 184.98947 
L 498.406308 183.75657 
L 503.58256 181.509629 
L 508.758813 180.291323 
L 529.463822 180.284031 
L 534.640074 180.160013 
L 539.816327 181.064618 
L 544.992579 180.203783 
L 550.168831 181.881694 
L 565.697588 181.779561 
L 570.87384 183.048929 
L 576.050093 182.385069 
L 581.226345 181.940058 
L 586.402597 180.984381 
L 601.931354 180.561255 
L 607.107607 179.897384 
L 612.283859 182.355882 
L 617.460111 182.786299 
L 622.636364 182.939504 
" clip-path="url(#pafb5657b4c)" style="fill: none; stroke: #d62728; stroke-width: 1.5; stroke-linecap: square"/>
   </g>
   <g id="line2d_17">
    <path d="M 115.363636 190.511984 
L 130.892393 188.148317 
L 136.068646 187.112392 
L 141.244898 187.601173 
L 146.42115 186.069165 
L 151.597403 184.632009 
L 167.12616 186.769514 
L 172.302412 185.828431 
L 177.478664 184.996772 
L 182.654917 181.064618 
L 187.831169 178.379969 
L 203.359926 180.400758 
L 208.536178 178.270545 
L 213.71243 180.262147 
L 218.888683 181.028151 
L 224.064935 180.926018 
L 239.593692 178.854156 
L 244.769944 179.328355 
L 249.946197 177.774461 
L 255.122449 178.956289 
L 260.298701 179.802542 
L 281.003711 182.771717 
L 286.179963 182.458015 
L 291.356215 182.100554 
L 296.532468 184.062969 
L 312.061224 183.180249 
L 317.237477 183.552303 
L 322.413729 185.084312 
L 327.589981 184.646592 
L 332.766234 180.911424 
L 348.294991 178.86875 
L 353.471243 180.495589 
L 358.647495 179.569099 
L 363.823748 181.232417 
L 369 182.757123 
L 384.528757 181.319957 
L 389.705009 179.773366 
L 394.881262 179.481549 
L 400.057514 177.395105 
L 405.233766 178.015206 
L 420.762523 176.264349 
L 425.938776 174.892837 
L 431.115028 175.950647 
L 436.29128 175.148176 
L 441.467532 174.185196 
L 456.996289 175.622363 
L 462.172542 176.081968 
L 467.348794 173.80584 
L 472.525046 172.645897 
L 477.701299 170.792907 
L 493.230056 169.866406 
L 498.406308 170.260345 
L 503.58256 171.624565 
L 508.758813 170.967986 
L 529.463822 172.886642 
L 534.640074 173.783955 
L 539.816327 174.294621 
L 544.992579 170.311417 
L 550.168831 170.566744 
L 565.697588 170.552162 
L 570.87384 169.647546 
L 576.050093 168.801293 
L 581.226345 169.516237 
L 586.402597 170.705356 
L 601.931354 170.479205 
L 607.107607 171.617263 
L 612.283859 171.624565 
L 617.460111 168.232264 
L 622.636364 167.305775 
" clip-path="url(#pafb5657b4c)" style="fill: none; stroke: #9467bd; stroke-width: 1.5; stroke-linecap: square"/>
   </g>
   <g id="patch_3">
    <path d="M 90 232.32 
L 90 69.12 
" style="fill: none; stroke: #000000; stroke-width: 0.8; stroke-linejoin: miter; stroke-linecap: square"/>
   </g>
   <g id="patch_4">
    <path d="M 648 232.32 
L 648 69.12 
" style="fill: none; stroke: #000000; stroke-width: 0.8; stroke-linejoin: miter; stroke-linecap: square"/>
   </g>
   <g id="patch_5">
    <path d="M 90 232.32 
L 648 232.32 
" style="fill: none; stroke: #000000; stroke-width: 0.8; stroke-linejoin: miter; stroke-linecap: square"/>
   </g>
   <g id="patch_6">
    <path d="M 90 69.12 
L 648 69.12 
" style="fill: none; stroke: #000000; stroke-width: 0.8; stroke-linejoin: miter; stroke-linecap: square"/>
   </g>
   <g id="text_15">
    <!-- S&amp;P 500 company-level Stock Prices  -->
    <g transform="translate(257.555625 63.12) scale(0.12 -0.12)">
     <defs>
      <path id="DejaVuSans-26" d="M 1556 2509 
Q 1272 2256 1139 2004 
Q 1006 1753 1006 1478 
Q 1006 1022 1337 719 
Q 1669 416 2169 416 
Q 2466 416 2725 514 
Q 2984 613 3213 813 
L 1556 2509 
z
M 1997 2859 
L 3584 1234 
Q 3769 1513 3872 1830 
Q 3975 2147 3994 2503 
L 4575 2503 
Q 4538 2091 4375 1687 
Q 4213 1284 3922 891 
L 4794 0 
L 4006 0 
L 3559 459 
Q 3234 181 2878 45 
Q 2522 -91 2113 -91 
Q 1359 -91 881 339 
Q 403 769 403 1441 
Q 403 1841 612 2192 
Q 822 2544 1241 2853 
Q 1091 3050 1012 3245 
Q 934 3441 934 3628 
Q 934 4134 1281 4442 
Q 1628 4750 2203 4750 
Q 2463 4750 2720 4694 
Q 2978 4638 3244 4525 
L 3244 3956 
Q 2972 4103 2725 4179 
Q 2478 4256 2266 4256 
Q 1938 4256 1733 4082 
Q 1528 3909 1528 3634 
Q 1528 3475 1620 3314 
Q 1713 3153 1997 2859 
z
" transform="scale(0.015625)"/>
      <path id="DejaVuSans-6d" d="M 3328 2828 
Q 3544 3216 3844 3400 
Q 4144 3584 4550 3584 
Q 5097 3584 5394 3201 
Q 5691 2819 5691 2113 
L 5691 0 
L 5113 0 
L 5113 2094 
Q 5113 2597 4934 2840 
Q 4756 3084 4391 3084 
Q 3944 3084 3684 2787 
Q 3425 2491 3425 1978 
L 3425 0 
L 2847 0 
L 2847 2094 
Q 2847 2600 2669 2842 
Q 2491 3084 2119 3084 
Q 1678 3084 1418 2786 
Q 1159 2488 1159 1978 
L 1159 0 
L 581 0 
L 581 3500 
L 1159 3500 
L 1159 2956 
Q 1356 3278 1631 3431 
Q 1906 3584 2284 3584 
Q 2666 3584 2933 3390 
Q 3200 3197 3328 2828 
z
" transform="scale(0.015625)"/>
      <path id="DejaVuSans-70" d="M 1159 525 
L 1159 -1331 
L 581 -1331 
L 581 3500 
L 1159 3500 
L 1159 2969 
Q 1341 3281 1617 3432 
Q 1894 3584 2278 3584 
Q 2916 3584 3314 3078 
Q 3713 2572 3713 1747 
Q 3713 922 3314 415 
Q 2916 -91 2278 -91 
Q 1894 -91 1617 61 
Q 1341 213 1159 525 
z
M 3116 1747 
Q 3116 2381 2855 2742 
Q 2594 3103 2138 3103 
Q 1681 3103 1420 2742 
Q 1159 2381 1159 1747 
Q 1159 1113 1420 752 
Q 1681 391 2138 391 
Q 2594 391 2855 752 
Q 3116 1113 3116 1747 
z
" transform="scale(0.015625)"/>
      <path id="DejaVuSans-6e" d="M 3513 2113 
L 3513 0 
L 2938 0 
L 2938 2094 
Q 2938 2591 2744 2837 
Q 2550 3084 2163 3084 
Q 1697 3084 1428 2787 
Q 1159 2491 1159 1978 
L 1159 0 
L 581 0 
L 581 3500 
L 1159 3500 
L 1159 2956 
Q 1366 3272 1645 3428 
Q 1925 3584 2291 3584 
Q 2894 3584 3203 3211 
Q 3513 2838 3513 2113 
z
" transform="scale(0.015625)"/>
      <path id="DejaVuSans-79" d="M 2059 -325 
Q 1816 -950 1584 -1140 
Q 1353 -1331 966 -1331 
L 506 -1331 
L 506 -850 
L 844 -850 
Q 1081 -850 1212 -737 
Q 1344 -625 1503 -206 
L 1606 56 
L 191 3500 
L 800 3500 
L 1894 763 
L 2988 3500 
L 3597 3500 
L 2059 -325 
z
" transform="scale(0.015625)"/>
      <path id="DejaVuSans-6c" d="M 603 4863 
L 1178 4863 
L 1178 0 
L 603 0 
L 603 4863 
z
" transform="scale(0.015625)"/>
      <path id="DejaVuSans-76" d="M 191 3500 
L 800 3500 
L 1894 563 
L 2988 3500 
L 3597 3500 
L 2284 0 
L 1503 0 
L 191 3500 
z
" transform="scale(0.015625)"/>
      <path id="DejaVuSans-73" d="M 2834 3397 
L 2834 2853 
Q 2591 2978 2328 3040 
Q 2066 3103 1784 3103 
Q 1356 3103 1142 2972 
Q 928 2841 928 2578 
Q 928 2378 1081 2264 
Q 1234 2150 1697 2047 
L 1894 2003 
Q 2506 1872 2764 1633 
Q 3022 1394 3022 966 
Q 3022 478 2636 193 
Q 2250 -91 1575 -91 
Q 1294 -91 989 -36 
Q 684 19 347 128 
L 347 722 
Q 666 556 975 473 
Q 1284 391 1588 391 
Q 1994 391 2212 530 
Q 2431 669 2431 922 
Q 2431 1156 2273 1281 
Q 2116 1406 1581 1522 
L 1381 1569 
Q 847 1681 609 1914 
Q 372 2147 372 2553 
Q 372 3047 722 3315 
Q 1072 3584 1716 3584 
Q 2034 3584 2315 3537 
Q 2597 3491 2834 3397 
z
" transform="scale(0.015625)"/>
     </defs>
     <use xlink:href="#DejaVuSans-53"/>
     <use xlink:href="#DejaVuSans-26" x="63.476562"/>
     <use xlink:href="#DejaVuSans-50" x="141.455078"/>
     <use xlink:href="#DejaVuSans-20" x="201.757812"/>
     <use xlink:href="#DejaVuSans-35" x="233.544922"/>
     <use xlink:href="#DejaVuSans-30" x="297.167969"/>
     <use xlink:href="#DejaVuSans-30" x="360.791016"/>
     <use xlink:href="#DejaVuSans-20" x="424.414062"/>
     <use xlink:href="#DejaVuSans-63" x="456.201172"/>
     <use xlink:href="#DejaVuSans-6f" x="511.181641"/>
     <use xlink:href="#DejaVuSans-6d" x="572.363281"/>
     <use xlink:href="#DejaVuSans-70" x="669.775391"/>
     <use xlink:href="#DejaVuSans-61" x="733.251953"/>
     <use xlink:href="#DejaVuSans-6e" x="794.53125"/>
     <use xlink:href="#DejaVuSans-79" x="857.910156"/>
     <use xlink:href="#DejaVuSans-2d" x="915.339844"/>
     <use xlink:href="#DejaVuSans-6c" x="951.423828"/>
     <use xlink:href="#DejaVuSans-65" x="979.207031"/>
     <use xlink:href="#DejaVuSans-76" x="1040.730469"/>
     <use xlink:href="#DejaVuSans-65" x="1099.910156"/>
     <use xlink:href="#DejaVuSans-6c" x="1161.433594"/>
     <use xlink:href="#DejaVuSans-20" x="1189.216797"/>
     <use xlink:href="#DejaVuSans-53" x="1221.003906"/>
     <use xlink:href="#DejaVuSans-74" x="1284.480469"/>
     <use xlink:href="#DejaVuSans-6f" x="1323.689453"/>
     <use xlink:href="#DejaVuSans-63" x="1384.871094"/>
     <use xlink:href="#DejaVuSans-6b" x="1439.851562"/>
     <use xlink:href="#DejaVuSans-20" x="1497.761719"/>
     <use xlink:href="#DejaVuSans-50" x="1529.548828"/>
     <use xlink:href="#DejaVuSans-72" x="1588.101562"/>
     <use xlink:href="#DejaVuSans-69" x="1629.214844"/>
     <use xlink:href="#DejaVuSans-63" x="1656.998047"/>
     <use xlink:href="#DejaVuSans-65" x="1711.978516"/>
     <use xlink:href="#DejaVuSans-73" x="1773.501953"/>
     <use xlink:href="#DejaVuSans-20" x="1825.601562"/>
    </g>
   </g>
  </g>
  <g id="axes_2">
   <g id="patch_7">
    <path d="M 90 460.8 
L 648 460.8 
L 648 297.6 
L 90 297.6 
z
" style="fill: #ffffff"/>
   </g>
   <g id="matplotlib.axis_3">
    <g id="xtick_8">
     <g id="line2d_18">
      <g>
       <use xlink:href="#mb999241860" x="177.478664" y="460.8" style="stroke: #000000; stroke-width: 0.8"/>
      </g>
     </g>
     <g id="text_16">
      <!-- 2023-02-01 -->
      <g transform="translate(126.109213 503.438252) rotate(-30) scale(0.1 -0.1)">
       <use xlink:href="#DejaVuSans-32"/>
       <use xlink:href="#DejaVuSans-30" x="63.623047"/>
       <use xlink:href="#DejaVuSans-32" x="127.246094"/>
       <use xlink:href="#DejaVuSans-33" x="190.869141"/>
       <use xlink:href="#DejaVuSans-2d" x="254.492188"/>
       <use xlink:href="#DejaVuSans-30" x="290.576172"/>
       <use xlink:href="#DejaVuSans-32" x="354.199219"/>
       <use xlink:href="#DejaVuSans-2d" x="417.822266"/>
       <use xlink:href="#DejaVuSans-30" x="453.90625"/>
       <use xlink:href="#DejaVuSans-31" x="517.529297"/>
      </g>
     </g>
    </g>
    <g id="xtick_9">
     <g id="line2d_19">
      <g>
       <use xlink:href="#mb999241860" x="249.946197" y="460.8" style="stroke: #000000; stroke-width: 0.8"/>
      </g>
     </g>
     <g id="text_17">
      <!-- 2023-02-15 -->
      <g transform="translate(198.576745 503.438252) rotate(-30) scale(0.1 -0.1)">
       <use xlink:href="#DejaVuSans-32"/>
       <use xlink:href="#DejaVuSans-30" x="63.623047"/>
       <use xlink:href="#DejaVuSans-32" x="127.246094"/>
       <use xlink:href="#DejaVuSans-33" x="190.869141"/>
       <use xlink:href="#DejaVuSans-2d" x="254.492188"/>
       <use xlink:href="#DejaVuSans-30" x="290.576172"/>
       <use xlink:href="#DejaVuSans-32" x="354.199219"/>
       <use xlink:href="#DejaVuSans-2d" x="417.822266"/>
       <use xlink:href="#DejaVuSans-31" x="453.90625"/>
       <use xlink:href="#DejaVuSans-35" x="517.529297"/>
      </g>
     </g>
    </g>
    <g id="xtick_10">
     <g id="line2d_20">
      <g>
       <use xlink:href="#mb999241860" x="322.413729" y="460.8" style="stroke: #000000; stroke-width: 0.8"/>
      </g>
     </g>
     <g id="text_18">
      <!-- 2023-03-01 -->
      <g transform="translate(271.044278 503.438252) rotate(-30) scale(0.1 -0.1)">
       <use xlink:href="#DejaVuSans-32"/>
       <use xlink:href="#DejaVuSans-30" x="63.623047"/>
       <use xlink:href="#DejaVuSans-32" x="127.246094"/>
       <use xlink:href="#DejaVuSans-33" x="190.869141"/>
       <use xlink:href="#DejaVuSans-2d" x="254.492188"/>
       <use xlink:href="#DejaVuSans-30" x="290.576172"/>
       <use xlink:href="#DejaVuSans-33" x="354.199219"/>
       <use xlink:href="#DejaVuSans-2d" x="417.822266"/>
       <use xlink:href="#DejaVuSans-30" x="453.90625"/>
       <use xlink:href="#DejaVuSans-31" x="517.529297"/>
      </g>
     </g>
    </g>
    <g id="xtick_11">
     <g id="line2d_21">
      <g>
       <use xlink:href="#mb999241860" x="394.881262" y="460.8" style="stroke: #000000; stroke-width: 0.8"/>
      </g>
     </g>
     <g id="text_19">
      <!-- 2023-03-15 -->
      <g transform="translate(343.51181 503.438252) rotate(-30) scale(0.1 -0.1)">
       <use xlink:href="#DejaVuSans-32"/>
       <use xlink:href="#DejaVuSans-30" x="63.623047"/>
       <use xlink:href="#DejaVuSans-32" x="127.246094"/>
       <use xlink:href="#DejaVuSans-33" x="190.869141"/>
       <use xlink:href="#DejaVuSans-2d" x="254.492188"/>
       <use xlink:href="#DejaVuSans-30" x="290.576172"/>
       <use xlink:href="#DejaVuSans-33" x="354.199219"/>
       <use xlink:href="#DejaVuSans-2d" x="417.822266"/>
       <use xlink:href="#DejaVuSans-31" x="453.90625"/>
       <use xlink:href="#DejaVuSans-35" x="517.529297"/>
      </g>
     </g>
    </g>
    <g id="xtick_12">
     <g id="line2d_22">
      <g>
       <use xlink:href="#mb999241860" x="482.877551" y="460.8" style="stroke: #000000; stroke-width: 0.8"/>
      </g>
     </g>
     <g id="text_20">
      <!-- 2023-04-01 -->
      <g transform="translate(431.5081 503.438252) rotate(-30) scale(0.1 -0.1)">
       <use xlink:href="#DejaVuSans-32"/>
       <use xlink:href="#DejaVuSans-30" x="63.623047"/>
       <use xlink:href="#DejaVuSans-32" x="127.246094"/>
       <use xlink:href="#DejaVuSans-33" x="190.869141"/>
       <use xlink:href="#DejaVuSans-2d" x="254.492188"/>
       <use xlink:href="#DejaVuSans-30" x="290.576172"/>
       <use xlink:href="#DejaVuSans-34" x="354.199219"/>
       <use xlink:href="#DejaVuSans-2d" x="417.822266"/>
       <use xlink:href="#DejaVuSans-30" x="453.90625"/>
       <use xlink:href="#DejaVuSans-31" x="517.529297"/>
      </g>
     </g>
    </g>
    <g id="xtick_13">
     <g id="line2d_23">
      <g>
       <use xlink:href="#mb999241860" x="555.345083" y="460.8" style="stroke: #000000; stroke-width: 0.8"/>
      </g>
     </g>
     <g id="text_21">
      <!-- 2023-04-15 -->
      <g transform="translate(503.975632 503.438252) rotate(-30) scale(0.1 -0.1)">
       <use xlink:href="#DejaVuSans-32"/>
       <use xlink:href="#DejaVuSans-30" x="63.623047"/>
       <use xlink:href="#DejaVuSans-32" x="127.246094"/>
       <use xlink:href="#DejaVuSans-33" x="190.869141"/>
       <use xlink:href="#DejaVuSans-2d" x="254.492188"/>
       <use xlink:href="#DejaVuSans-30" x="290.576172"/>
       <use xlink:href="#DejaVuSans-34" x="354.199219"/>
       <use xlink:href="#DejaVuSans-2d" x="417.822266"/>
       <use xlink:href="#DejaVuSans-31" x="453.90625"/>
       <use xlink:href="#DejaVuSans-35" x="517.529297"/>
      </g>
     </g>
    </g>
    <g id="xtick_14">
     <g id="line2d_24">
      <g>
       <use xlink:href="#mb999241860" x="638.165121" y="460.8" style="stroke: #000000; stroke-width: 0.8"/>
      </g>
     </g>
     <g id="text_22">
      <!-- 2023-05-01 -->
      <g transform="translate(586.795669 503.438252) rotate(-30) scale(0.1 -0.1)">
       <use xlink:href="#DejaVuSans-32"/>
       <use xlink:href="#DejaVuSans-30" x="63.623047"/>
       <use xlink:href="#DejaVuSans-32" x="127.246094"/>
       <use xlink:href="#DejaVuSans-33" x="190.869141"/>
       <use xlink:href="#DejaVuSans-2d" x="254.492188"/>
       <use xlink:href="#DejaVuSans-30" x="290.576172"/>
       <use xlink:href="#DejaVuSans-35" x="354.199219"/>
       <use xlink:href="#DejaVuSans-2d" x="417.822266"/>
       <use xlink:href="#DejaVuSans-30" x="453.90625"/>
       <use xlink:href="#DejaVuSans-31" x="517.529297"/>
      </g>
     </g>
    </g>
    <g id="text_23">
     <!-- Date -->
     <g transform="translate(357.049219 516.837752) scale(0.1 -0.1)">
      <use xlink:href="#DejaVuSans-44"/>
      <use xlink:href="#DejaVuSans-61" x="77.001953"/>
      <use xlink:href="#DejaVuSans-74" x="138.28125"/>
      <use xlink:href="#DejaVuSans-65" x="177.490234"/>
     </g>
    </g>
   </g>
   <g id="matplotlib.axis_4">
    <g id="ytick_6">
     <g id="line2d_25">
      <g>
       <use xlink:href="#m24a415afb9" x="90" y="453.902027" style="stroke: #000000; stroke-width: 0.8"/>
      </g>
     </g>
     <g id="text_24">
      <!-- 0.00 -->
      <g transform="translate(60.734375 457.701246) scale(0.1 -0.1)">
       <defs>
        <path id="DejaVuSans-2e" d="M 684 794 
L 1344 794 
L 1344 0 
L 684 0 
L 684 794 
z
" transform="scale(0.015625)"/>
       </defs>
       <use xlink:href="#DejaVuSans-30"/>
       <use xlink:href="#DejaVuSans-2e" x="63.623047"/>
       <use xlink:href="#DejaVuSans-30" x="95.410156"/>
       <use xlink:href="#DejaVuSans-30" x="159.033203"/>
      </g>
     </g>
    </g>
    <g id="ytick_7">
     <g id="line2d_26">
      <g>
       <use xlink:href="#m24a415afb9" x="90" y="430.367425" style="stroke: #000000; stroke-width: 0.8"/>
      </g>
     </g>
     <g id="text_25">
      <!-- 0.25 -->
      <g transform="translate(60.734375 434.166644) scale(0.1 -0.1)">
       <use xlink:href="#DejaVuSans-30"/>
       <use xlink:href="#DejaVuSans-2e" x="63.623047"/>
       <use xlink:href="#DejaVuSans-32" x="95.410156"/>
       <use xlink:href="#DejaVuSans-35" x="159.033203"/>
      </g>
     </g>
    </g>
    <g id="ytick_8">
     <g id="line2d_27">
      <g>
       <use xlink:href="#m24a415afb9" x="90" y="406.832823" style="stroke: #000000; stroke-width: 0.8"/>
      </g>
     </g>
     <g id="text_26">
      <!-- 0.50 -->
      <g transform="translate(60.734375 410.632042) scale(0.1 -0.1)">
       <use xlink:href="#DejaVuSans-30"/>
       <use xlink:href="#DejaVuSans-2e" x="63.623047"/>
       <use xlink:href="#DejaVuSans-35" x="95.410156"/>
       <use xlink:href="#DejaVuSans-30" x="159.033203"/>
      </g>
     </g>
    </g>
    <g id="ytick_9">
     <g id="line2d_28">
      <g>
       <use xlink:href="#m24a415afb9" x="90" y="383.298221" style="stroke: #000000; stroke-width: 0.8"/>
      </g>
     </g>
     <g id="text_27">
      <!-- 0.75 -->
      <g transform="translate(60.734375 387.09744) scale(0.1 -0.1)">
       <defs>
        <path id="DejaVuSans-37" d="M 525 4666 
L 3525 4666 
L 3525 4397 
L 1831 0 
L 1172 0 
L 2766 4134 
L 525 4134 
L 525 4666 
z
" transform="scale(0.015625)"/>
       </defs>
       <use xlink:href="#DejaVuSans-30"/>
       <use xlink:href="#DejaVuSans-2e" x="63.623047"/>
       <use xlink:href="#DejaVuSans-37" x="95.410156"/>
       <use xlink:href="#DejaVuSans-35" x="159.033203"/>
      </g>
     </g>
    </g>
    <g id="ytick_10">
     <g id="line2d_29">
      <g>
       <use xlink:href="#m24a415afb9" x="90" y="359.76362" style="stroke: #000000; stroke-width: 0.8"/>
      </g>
     </g>
     <g id="text_28">
      <!-- 1.00 -->
      <g transform="translate(60.734375 363.562838) scale(0.1 -0.1)">
       <use xlink:href="#DejaVuSans-31"/>
       <use xlink:href="#DejaVuSans-2e" x="63.623047"/>
       <use xlink:href="#DejaVuSans-30" x="95.410156"/>
       <use xlink:href="#DejaVuSans-30" x="159.033203"/>
      </g>
     </g>
    </g>
    <g id="ytick_11">
     <g id="line2d_30">
      <g>
       <use xlink:href="#m24a415afb9" x="90" y="336.229018" style="stroke: #000000; stroke-width: 0.8"/>
      </g>
     </g>
     <g id="text_29">
      <!-- 1.25 -->
      <g transform="translate(60.734375 340.028236) scale(0.1 -0.1)">
       <use xlink:href="#DejaVuSans-31"/>
       <use xlink:href="#DejaVuSans-2e" x="63.623047"/>
       <use xlink:href="#DejaVuSans-32" x="95.410156"/>
       <use xlink:href="#DejaVuSans-35" x="159.033203"/>
      </g>
     </g>
    </g>
    <g id="ytick_12">
     <g id="line2d_31">
      <g>
       <use xlink:href="#m24a415afb9" x="90" y="312.694416" style="stroke: #000000; stroke-width: 0.8"/>
      </g>
     </g>
     <g id="text_30">
      <!-- 1.50 -->
      <g transform="translate(60.734375 316.493635) scale(0.1 -0.1)">
       <use xlink:href="#DejaVuSans-31"/>
       <use xlink:href="#DejaVuSans-2e" x="63.623047"/>
       <use xlink:href="#DejaVuSans-35" x="95.410156"/>
       <use xlink:href="#DejaVuSans-30" x="159.033203"/>
      </g>
     </g>
    </g>
    <g id="text_31">
     <!-- Stock Volume -->
     <g transform="translate(54.654687 413.224219) rotate(-90) scale(0.1 -0.1)">
      <defs>
       <path id="DejaVuSans-56" d="M 1831 0 
L 50 4666 
L 709 4666 
L 2188 738 
L 3669 4666 
L 4325 4666 
L 2547 0 
L 1831 0 
z
" transform="scale(0.015625)"/>
       <path id="DejaVuSans-75" d="M 544 1381 
L 544 3500 
L 1119 3500 
L 1119 1403 
Q 1119 906 1312 657 
Q 1506 409 1894 409 
Q 2359 409 2629 706 
Q 2900 1003 2900 1516 
L 2900 3500 
L 3475 3500 
L 3475 0 
L 2900 0 
L 2900 538 
Q 2691 219 2414 64 
Q 2138 -91 1772 -91 
Q 1169 -91 856 284 
Q 544 659 544 1381 
z
M 1991 3584 
L 1991 3584 
z
" transform="scale(0.015625)"/>
      </defs>
      <use xlink:href="#DejaVuSans-53"/>
      <use xlink:href="#DejaVuSans-74" x="63.476562"/>
      <use xlink:href="#DejaVuSans-6f" x="102.685547"/>
      <use xlink:href="#DejaVuSans-63" x="163.867188"/>
      <use xlink:href="#DejaVuSans-6b" x="218.847656"/>
      <use xlink:href="#DejaVuSans-20" x="276.757812"/>
      <use xlink:href="#DejaVuSans-56" x="308.544922"/>
      <use xlink:href="#DejaVuSans-6f" x="369.203125"/>
      <use xlink:href="#DejaVuSans-6c" x="430.384766"/>
      <use xlink:href="#DejaVuSans-75" x="458.167969"/>
      <use xlink:href="#DejaVuSans-6d" x="521.546875"/>
      <use xlink:href="#DejaVuSans-65" x="618.958984"/>
     </g>
    </g>
    <g id="text_32">
     <!-- 1e8 -->
     <g transform="translate(90 294.6) scale(0.1 -0.1)">
      <defs>
       <path id="DejaVuSans-38" d="M 2034 2216 
Q 1584 2216 1326 1975 
Q 1069 1734 1069 1313 
Q 1069 891 1326 650 
Q 1584 409 2034 409 
Q 2484 409 2743 651 
Q 3003 894 3003 1313 
Q 3003 1734 2745 1975 
Q 2488 2216 2034 2216 
z
M 1403 2484 
Q 997 2584 770 2862 
Q 544 3141 544 3541 
Q 544 4100 942 4425 
Q 1341 4750 2034 4750 
Q 2731 4750 3128 4425 
Q 3525 4100 3525 3541 
Q 3525 3141 3298 2862 
Q 3072 2584 2669 2484 
Q 3125 2378 3379 2068 
Q 3634 1759 3634 1313 
Q 3634 634 3220 271 
Q 2806 -91 2034 -91 
Q 1263 -91 848 271 
Q 434 634 434 1313 
Q 434 1759 690 2068 
Q 947 2378 1403 2484 
z
M 1172 3481 
Q 1172 3119 1398 2916 
Q 1625 2713 2034 2713 
Q 2441 2713 2670 2916 
Q 2900 3119 2900 3481 
Q 2900 3844 2670 4047 
Q 2441 4250 2034 4250 
Q 1625 4250 1398 4047 
Q 1172 3844 1172 3481 
z
" transform="scale(0.015625)"/>
      </defs>
      <use xlink:href="#DejaVuSans-31"/>
      <use xlink:href="#DejaVuSans-65" x="63.623047"/>
      <use xlink:href="#DejaVuSans-38" x="125.146484"/>
     </g>
    </g>
   </g>
   <g id="line2d_32">
    <path d="M 115.363636 449.784884 
L 130.892393 450.689836 
L 136.068646 444.227894 
L 141.244898 448.260124 
L 146.42115 449.547561 
L 151.597403 450.028702 
L 167.12616 448.345131 
L 172.302412 449.12808 
L 177.478664 450.982983 
L 182.654917 449.273053 
L 187.831169 451.376858 
L 203.359926 451.560522 
L 208.536178 451.847268 
L 213.71243 451.537553 
L 218.888683 450.511256 
L 224.064935 451.760849 
L 239.593692 451.786172 
L 244.769944 451.584057 
L 249.946197 451.522867 
L 255.122449 451.364903 
L 260.298701 451.240075 
L 281.003711 450.24089 
L 286.179963 451.402652 
L 291.356215 451.130781 
L 296.532468 451.206939 
L 312.061224 450.554465 
L 317.237477 450.719678 
L 322.413729 449.275407 
L 327.589981 446.757581 
L 332.766234 451.039466 
L 348.294991 451.246571 
L 353.471243 450.726927 
L 358.647495 450.668655 
L 363.823748 450.641355 
L 369 450.424648 
L 384.528757 449.937765 
L 389.705009 449.409742 
L 394.881262 449.297059 
L 400.057514 450.472941 
L 405.233766 443.18371 
L 420.762523 451.339674 
L 425.938776 451.432212 
L 431.115028 451.260974 
L 436.29128 450.910967 
L 441.467532 450.557384 
L 456.996289 451.268599 
L 462.172542 451.583586 
L 467.348794 450.869264 
L 472.525046 451.690057 
L 477.701299 450.504007 
L 493.230056 450.120205 
L 498.406308 450.632318 
L 503.58256 451.405476 
L 508.758813 451.624631 
L 529.463822 451.190653 
L 534.640074 451.123061 
L 539.816327 451.336944 
L 544.992579 450.668184 
L 550.168831 451.273306 
L 565.697588 451.610604 
L 570.87384 452.102007 
L 576.050093 452.096452 
L 581.226345 450.42333 
L 586.402597 447.885171 
L 601.931354 450.573293 
L 607.107607 449.127892 
L 612.283859 450.914639 
L 617.460111 451.649201 
L 622.636364 450.152306 
" clip-path="url(#p8fdf3eed3b)" style="fill: none; stroke: #1f77b4; stroke-width: 1.5; stroke-linecap: square"/>
   </g>
   <g id="line2d_33">
    <path d="M 115.363636 450.789246 
L 130.892393 451.460736 
L 136.068646 451.825993 
L 141.244898 451.476739 
L 146.42115 452.073294 
L 151.597403 451.924085 
L 167.12616 452.270703 
L 172.302412 452.168186 
L 177.478664 452.21036 
L 182.654917 451.345322 
L 187.831169 451.861106 
L 203.359926 452.713624 
L 208.536178 452.583054 
L 213.71243 452.601223 
L 218.888683 452.252722 
L 224.064935 452.633418 
L 239.593692 452.692819 
L 244.769944 452.187672 
L 249.946197 452.122623 
L 255.122449 452.11415 
L 260.298701 451.339203 
L 281.003711 451.599213 
L 286.179963 452.185131 
L 291.356215 452.127047 
L 296.532468 452.268726 
L 312.061224 452.477807 
L 317.237477 451.868261 
L 322.413729 452.301203 
L 327.589981 451.757272 
L 332.766234 452.399484 
L 348.294991 452.349591 
L 353.471243 451.812813 
L 358.647495 452.525065 
L 363.823748 452.066516 
L 369 451.148855 
L 384.528757 450.85938 
L 389.705009 451.147914 
L 394.881262 449.658268 
L 400.057514 450.023901 
L 405.233766 447.810519 
L 420.762523 450.906449 
L 425.938776 451.23678 
L 431.115028 451.022051 
L 436.29128 449.03799 
L 441.467532 450.020136 
L 456.996289 450.377673 
L 462.172542 451.20082 
L 467.348794 451.613052 
L 472.525046 451.742869 
L 477.701299 451.06912 
L 493.230056 451.626419 
L 498.406308 451.707002 
L 503.58256 451.602037 
L 508.758813 451.901303 
L 529.463822 452.4185 
L 534.640074 450.962555 
L 539.816327 451.401711 
L 544.992579 450.9233 
L 550.168831 451.198654 
L 565.697588 451.172955 
L 570.87384 452.119234 
L 576.050093 451.826558 
L 581.226345 451.373375 
L 586.402597 452.395154 
L 601.931354 452.622027 
L 607.107607 452.080072 
L 612.283859 452.01041 
L 617.460111 452.034698 
L 622.636364 451.939712 
" clip-path="url(#p8fdf3eed3b)" style="fill: none; stroke: #ff7f0e; stroke-width: 1.5; stroke-linecap: square"/>
   </g>
   <g id="line2d_34">
    <path d="M 115.363636 390.376018 
L 130.892393 381.88511 
L 136.068646 390.895662 
L 141.244898 365.165658 
L 146.42115 389.395001 
L 151.597403 371.271475 
L 167.12616 387.353798 
L 172.302412 391.274286 
L 177.478664 378.167584 
L 182.654917 305.018182 
L 187.831169 317.98989 
L 203.359926 376.760121 
L 208.536178 341.405406 
L 213.71243 382.471404 
L 218.888683 393.067435 
L 224.064935 404.253337 
L 239.593692 404.15788 
L 244.769944 400.993512 
L 249.946197 408.755506 
L 255.122449 400.865201 
L 260.298701 397.391306 
L 281.003711 400.63814 
L 286.179963 397.857573 
L 291.356215 408.275965 
L 296.532468 400.192488 
L 312.061224 409.214243 
L 317.237477 412.519442 
L 322.413729 404.668111 
L 327.589981 401.646362 
L 332.766234 401.410828 
L 348.294991 404.844244 
L 353.471243 407.67941 
L 358.647495 411.634729 
L 363.823748 400.978638 
L 369 388.167531 
L 384.528757 385.74855 
L 389.705009 396.559781 
L 394.881262 387.316237 
L 400.057514 374.40506 
L 405.233766 371.719009 
L 420.762523 395.17011 
L 425.938776 398.739462 
L 431.115028 399.795601 
L 436.29128 399.716619 
L 441.467532 401.094711 
L 456.996289 409.919339 
L 462.172542 417.451542 
L 467.348794 407.036821 
L 472.525046 403.412398 
L 477.701299 400.521502 
L 493.230056 415.177534 
L 498.406308 408.091924 
L 503.58256 411.374625 
L 508.758813 412.661873 
L 529.463822 418.824927 
L 534.640074 397.025672 
L 539.816327 400.492602 
L 544.992579 389.95842 
L 550.168831 405.5259 
L 565.697588 416.322445 
L 570.87384 416.443884 
L 576.050093 398.926233 
L 581.226345 399.587084 
L 586.402597 372.293724 
L 601.931354 388.404665 
L 607.107607 392.686833 
L 612.283859 384.424305 
L 617.460111 312.730942 
L 622.636364 330.990215 
" clip-path="url(#p8fdf3eed3b)" style="fill: none; stroke: #2ca02c; stroke-width: 1.5; stroke-linecap: square"/>
   </g>
   <g id="line2d_35">
    <path d="M 115.363636 453.189776 
L 130.892393 453.296058 
L 136.068646 453.283914 
L 141.244898 453.103733 
L 146.42115 453.136964 
L 151.597403 453.187422 
L 167.12616 453.136588 
L 172.302412 452.991332 
L 177.478664 452.995662 
L 182.654917 453.030776 
L 187.831169 452.662412 
L 203.359926 452.813034 
L 208.536178 452.954901 
L 213.71243 452.346202 
L 218.888683 453.039719 
L 224.064935 453.12482 
L 239.593692 453.19966 
L 244.769944 453.105804 
L 249.946197 453.25266 
L 255.122449 452.541445 
L 260.298701 451.349652 
L 281.003711 452.860291 
L 286.179963 453.306131 
L 291.356215 452.94351 
L 296.532468 453.038119 
L 312.061224 452.810398 
L 317.237477 451.896597 
L 322.413729 447.722123 
L 327.589981 448.911656 
L 332.766234 451.494437 
L 348.294991 452.613461 
L 353.471243 452.832238 
L 358.647495 453.085376 
L 363.823748 452.703739 
L 369 452.499835 
L 384.528757 452.33867 
L 389.705009 452.567427 
L 394.881262 452.467923 
L 400.057514 452.570722 
L 405.233766 451.441437 
L 420.762523 452.213466 
L 425.938776 452.554342 
L 431.115028 452.905666 
L 436.29128 452.861045 
L 441.467532 453.113524 
L 456.996289 453.091307 
L 462.172542 453.266122 
L 467.348794 453.328912 
L 472.525046 453.18008 
L 477.701299 452.903501 
L 493.230056 453.353012 
L 498.406308 453.131692 
L 503.58256 453.04951 
L 508.758813 452.904819 
L 529.463822 453.030682 
L 534.640074 453.276195 
L 539.816327 453.087447 
L 544.992579 452.986249 
L 550.168831 453.150332 
L 565.697588 453.279019 
L 570.87384 453.276854 
L 576.050093 453.381818 
L 581.226345 453.291069 
L 586.402597 453.113994 
L 601.931354 452.971657 
L 607.107607 453.125197 
L 612.283859 453.14346 
L 617.460111 452.909432 
L 622.636364 453.177161 
" clip-path="url(#p8fdf3eed3b)" style="fill: none; stroke: #d62728; stroke-width: 1.5; stroke-linecap: square"/>
   </g>
   <g id="line2d_36">
    <path d="M 115.363636 378.380808 
L 130.892393 376.934183 
L 136.068646 391.361082 
L 141.244898 391.959614 
L 146.42115 402.968348 
L 151.597403 387.481921 
L 167.12616 393.639043 
L 172.302412 391.888822 
L 177.478664 380.790751 
L 182.654917 342.499577 
L 187.831169 308.592523 
L 203.359926 388.138536 
L 208.536178 375.463458 
L 213.71243 393.540386 
L 218.888683 401.177835 
L 224.064935 399.818853 
L 239.593692 395.348879 
L 244.769944 395.811475 
L 249.946197 392.171896 
L 255.122449 389.729852 
L 260.298701 398.224713 
L 281.003711 398.485382 
L 286.179963 405.880802 
L 291.356215 408.344498 
L 296.532468 401.683829 
L 312.061224 411.541156 
L 317.237477 406.317886 
L 322.413729 401.67498 
L 327.589981 404.725912 
L 332.766234 387.315766 
L 348.294991 371.47632 
L 353.471243 401.013187 
L 358.647495 409.46418 
L 363.823748 403.223933 
L 369 389.349062 
L 384.528757 374.395458 
L 389.705009 384.52588 
L 394.881262 381.257395 
L 400.057514 382.20518 
L 405.233766 360.757156 
L 420.762523 384.577186 
L 425.938776 384.297689 
L 431.115028 382.637558 
L 436.29128 390.243659 
L 441.467532 398.175385 
L 456.996289 404.582633 
L 462.172542 410.605702 
L 467.348794 405.603658 
L 472.525046 407.301915 
L 477.701299 389.23393 
L 493.230056 400.26554 
L 498.406308 410.336372 
L 503.58256 405.409733 
L 508.758813 411.17251 
L 529.463822 408.982097 
L 534.640074 409.050536 
L 539.816327 406.707525 
L 544.992579 389.468429 
L 550.168831 407.456773 
L 565.697588 414.819338 
L 570.87384 406.90531 
L 576.050093 408.978991 
L 581.226345 404.520407 
L 586.402597 399.008133 
L 601.931354 414.411342 
L 607.107607 408.043349 
L 612.283859 411.070181 
L 617.460111 392.804035 
L 622.636364 401.928965 
" clip-path="url(#p8fdf3eed3b)" style="fill: none; stroke: #9467bd; stroke-width: 1.5; stroke-linecap: square"/>
   </g>
   <g id="patch_8">
    <path d="M 90 460.8 
L 90 297.6 
" style="fill: none; stroke: #000000; stroke-width: 0.8; stroke-linejoin: miter; stroke-linecap: square"/>
   </g>
   <g id="patch_9">
    <path d="M 648 460.8 
L 648 297.6 
" style="fill: none; stroke: #000000; stroke-width: 0.8; stroke-linejoin: miter; stroke-linecap: square"/>
   </g>
   <g id="patch_10">
    <path d="M 90 460.8 
L 648 460.8 
" style="fill: none; stroke: #000000; stroke-width: 0.8; stroke-linejoin: miter; stroke-linecap: square"/>
   </g>
   <g id="patch_11">
    <path d="M 90 297.6 
L 648 297.6 
" style="fill: none; stroke: #000000; stroke-width: 0.8; stroke-linejoin: miter; stroke-linecap: square"/>
   </g>
   <g id="text_33">
    <!-- S&amp;P 500 company-level Stock Volume -->
    <g transform="translate(254.909063 291.6) scale(0.12 -0.12)">
     <use xlink:href="#DejaVuSans-53"/>
     <use xlink:href="#DejaVuSans-26" x="63.476562"/>
     <use xlink:href="#DejaVuSans-50" x="141.455078"/>
     <use xlink:href="#DejaVuSans-20" x="201.757812"/>
     <use xlink:href="#DejaVuSans-35" x="233.544922"/>
     <use xlink:href="#DejaVuSans-30" x="297.167969"/>
     <use xlink:href="#DejaVuSans-30" x="360.791016"/>
     <use xlink:href="#DejaVuSans-20" x="424.414062"/>
     <use xlink:href="#DejaVuSans-63" x="456.201172"/>
     <use xlink:href="#DejaVuSans-6f" x="511.181641"/>
     <use xlink:href="#DejaVuSans-6d" x="572.363281"/>
     <use xlink:href="#DejaVuSans-70" x="669.775391"/>
     <use xlink:href="#DejaVuSans-61" x="733.251953"/>
     <use xlink:href="#DejaVuSans-6e" x="794.53125"/>
     <use xlink:href="#DejaVuSans-79" x="857.910156"/>
     <use xlink:href="#DejaVuSans-2d" x="915.339844"/>
     <use xlink:href="#DejaVuSans-6c" x="951.423828"/>
     <use xlink:href="#DejaVuSans-65" x="979.207031"/>
     <use xlink:href="#DejaVuSans-76" x="1040.730469"/>
     <use xlink:href="#DejaVuSans-65" x="1099.910156"/>
     <use xlink:href="#DejaVuSans-6c" x="1161.433594"/>
     <use xlink:href="#DejaVuSans-20" x="1189.216797"/>
     <use xlink:href="#DejaVuSans-53" x="1221.003906"/>
     <use xlink:href="#DejaVuSans-74" x="1284.480469"/>
     <use xlink:href="#DejaVuSans-6f" x="1323.689453"/>
     <use xlink:href="#DejaVuSans-63" x="1384.871094"/>
     <use xlink:href="#DejaVuSans-6b" x="1439.851562"/>
     <use xlink:href="#DejaVuSans-20" x="1497.761719"/>
     <use xlink:href="#DejaVuSans-56" x="1529.548828"/>
     <use xlink:href="#DejaVuSans-6f" x="1590.207031"/>
     <use xlink:href="#DejaVuSans-6c" x="1651.388672"/>
     <use xlink:href="#DejaVuSans-75" x="1679.171875"/>
     <use xlink:href="#DejaVuSans-6d" x="1742.550781"/>
     <use xlink:href="#DejaVuSans-65" x="1839.962891"/>
    </g>
   </g>
  </g>
  <g id="legend_1">
   <g id="patch_12">
    <path d="M 651.2 81.390625 
L 713 81.390625 
Q 715 81.390625 715 79.390625 
L 715 7 
Q 715 5 713 5 
L 651.2 5 
Q 649.2 5 649.2 7 
L 649.2 79.390625 
Q 649.2 81.390625 651.2 81.390625 
z
" style="fill: #ffffff; opacity: 0.8; stroke: #cccccc; stroke-linejoin: miter"/>
   </g>
   <g id="line2d_37">
    <path d="M 653.2 13.098438 
L 663.2 13.098438 
L 673.2 13.098438 
" style="fill: none; stroke: #1f77b4; stroke-width: 1.5; stroke-linecap: square"/>
   </g>
   <g id="text_34">
    <!-- MMM -->
    <g transform="translate(681.2 16.598438) scale(0.1 -0.1)">
     <defs>
      <path id="DejaVuSans-4d" d="M 628 4666 
L 1569 4666 
L 2759 1491 
L 3956 4666 
L 4897 4666 
L 4897 0 
L 4281 0 
L 4281 4097 
L 3078 897 
L 2444 897 
L 1241 4097 
L 1241 0 
L 628 0 
L 628 4666 
z
" transform="scale(0.015625)"/>
     </defs>
     <use xlink:href="#DejaVuSans-4d"/>
     <use xlink:href="#DejaVuSans-4d" x="86.279297"/>
     <use xlink:href="#DejaVuSans-4d" x="172.558594"/>
    </g>
   </g>
   <g id="line2d_38">
    <path d="M 653.2 27.776563 
L 663.2 27.776563 
L 673.2 27.776563 
" style="fill: none; stroke: #ff7f0e; stroke-width: 1.5; stroke-linecap: square"/>
   </g>
   <g id="text_35">
    <!-- ACN -->
    <g transform="translate(681.2 31.276563) scale(0.1 -0.1)">
     <defs>
      <path id="DejaVuSans-41" d="M 2188 4044 
L 1331 1722 
L 3047 1722 
L 2188 4044 
z
M 1831 4666 
L 2547 4666 
L 4325 0 
L 3669 0 
L 3244 1197 
L 1141 1197 
L 716 0 
L 50 0 
L 1831 4666 
z
" transform="scale(0.015625)"/>
      <path id="DejaVuSans-43" d="M 4122 4306 
L 4122 3641 
Q 3803 3938 3442 4084 
Q 3081 4231 2675 4231 
Q 1875 4231 1450 3742 
Q 1025 3253 1025 2328 
Q 1025 1406 1450 917 
Q 1875 428 2675 428 
Q 3081 428 3442 575 
Q 3803 722 4122 1019 
L 4122 359 
Q 3791 134 3420 21 
Q 3050 -91 2638 -91 
Q 1578 -91 968 557 
Q 359 1206 359 2328 
Q 359 3453 968 4101 
Q 1578 4750 2638 4750 
Q 3056 4750 3426 4639 
Q 3797 4528 4122 4306 
z
" transform="scale(0.015625)"/>
      <path id="DejaVuSans-4e" d="M 628 4666 
L 1478 4666 
L 3547 763 
L 3547 4666 
L 4159 4666 
L 4159 0 
L 3309 0 
L 1241 3903 
L 1241 0 
L 628 0 
L 628 4666 
z
" transform="scale(0.015625)"/>
     </defs>
     <use xlink:href="#DejaVuSans-41"/>
     <use xlink:href="#DejaVuSans-43" x="66.658203"/>
     <use xlink:href="#DejaVuSans-4e" x="136.482422"/>
    </g>
   </g>
   <g id="line2d_39">
    <path d="M 653.2 42.454688 
L 663.2 42.454688 
L 673.2 42.454688 
" style="fill: none; stroke: #2ca02c; stroke-width: 1.5; stroke-linecap: square"/>
   </g>
   <g id="text_36">
    <!-- AMZN -->
    <g transform="translate(681.2 45.954688) scale(0.1 -0.1)">
     <defs>
      <path id="DejaVuSans-5a" d="M 359 4666 
L 4025 4666 
L 4025 4184 
L 1075 531 
L 4097 531 
L 4097 0 
L 288 0 
L 288 481 
L 3238 4134 
L 359 4134 
L 359 4666 
z
" transform="scale(0.015625)"/>
     </defs>
     <use xlink:href="#DejaVuSans-41"/>
     <use xlink:href="#DejaVuSans-4d" x="68.408203"/>
     <use xlink:href="#DejaVuSans-5a" x="154.6875"/>
     <use xlink:href="#DejaVuSans-4e" x="223.193359"/>
    </g>
   </g>
   <g id="line2d_40">
    <path d="M 653.2 57.132812 
L 663.2 57.132812 
L 673.2 57.132812 
" style="fill: none; stroke: #d62728; stroke-width: 1.5; stroke-linecap: square"/>
   </g>
   <g id="text_37">
    <!-- AWK -->
    <g transform="translate(681.2 60.632812) scale(0.1 -0.1)">
     <defs>
      <path id="DejaVuSans-57" d="M 213 4666 
L 850 4666 
L 1831 722 
L 2809 4666 
L 3519 4666 
L 4500 722 
L 5478 4666 
L 6119 4666 
L 4947 0 
L 4153 0 
L 3169 4050 
L 2175 0 
L 1381 0 
L 213 4666 
z
" transform="scale(0.015625)"/>
      <path id="DejaVuSans-4b" d="M 628 4666 
L 1259 4666 
L 1259 2694 
L 3353 4666 
L 4166 4666 
L 1850 2491 
L 4331 0 
L 3500 0 
L 1259 2247 
L 1259 0 
L 628 0 
L 628 4666 
z
" transform="scale(0.015625)"/>
     </defs>
     <use xlink:href="#DejaVuSans-41"/>
     <use xlink:href="#DejaVuSans-57" x="62.908203"/>
     <use xlink:href="#DejaVuSans-4b" x="161.785156"/>
    </g>
   </g>
   <g id="line2d_41">
    <path d="M 653.2 71.810938 
L 663.2 71.810938 
L 673.2 71.810938 
" style="fill: none; stroke: #9467bd; stroke-width: 1.5; stroke-linecap: square"/>
   </g>
   <g id="text_38">
    <!-- AAPL -->
    <g transform="translate(681.2 75.310938) scale(0.1 -0.1)">
     <defs>
      <path id="DejaVuSans-4c" d="M 628 4666 
L 1259 4666 
L 1259 531 
L 3531 531 
L 3531 0 
L 628 0 
L 628 4666 
z
" transform="scale(0.015625)"/>
     </defs>
     <use xlink:href="#DejaVuSans-41"/>
     <use xlink:href="#DejaVuSans-41" x="71.158203"/>
     <use xlink:href="#DejaVuSans-50" x="139.566406"/>
     <use xlink:href="#DejaVuSans-4c" x="199.869141"/>
    </g>
   </g>
  </g>
 </g>
 <defs>
  <clipPath id="pafb5657b4c">
   <rect x="90" y="69.12" width="558" height="163.2"/>
  </clipPath>
  <clipPath id="p8fdf3eed3b">
   <rect x="90" y="297.6" width="558" height="163.2"/>
  </clipPath>
 </defs>
</svg>
