<?xml version="1.0" encoding="utf-8" standalone="no"?>
<!DOCTYPE svg PUBLIC "-//W3C//DTD SVG 1.1//EN"
  "http://www.w3.org/Graphics/SVG/1.1/DTD/svg11.dtd">
<svg xmlns:xlink="http://www.w3.org/1999/xlink" width="720pt" height="576pt" viewBox="0 0 720 576" xmlns="http://www.w3.org/2000/svg" version="1.1">
 <metadata>
  <rdf:RDF xmlns:dc="http://purl.org/dc/elements/1.1/" xmlns:cc="http://creativecommons.org/ns#" xmlns:rdf="http://www.w3.org/1999/02/22-rdf-syntax-ns#">
   <cc:Work>
    <dc:type rdf:resource="http://purl.org/dc/dcmitype/StillImage"/>
    <dc:date>2023-05-02T01:17:25.815694</dc:date>
    <dc:format>image/svg+xml</dc:format>
    <dc:creator>
     <cc:Agent>
      <dc:title>Matplotlib v3.7.1, https://matplotlib.org/</dc:title>
     </cc:Agent>
    </dc:creator>
   </cc:Work>
  </rdf:RDF>
 </metadata>
 <defs>
  <style type="text/css">*{stroke-linejoin: round; stroke-linecap: butt}</style>
 </defs>
 <g id="figure_1">
  <g id="patch_1">
   <path d="M 0 576 
L 720 576 
L 720 0 
L 0 0 
z
" style="fill: #ffffff"/>
  </g>
  <g id="axes_1">
   <g id="patch_2">
    <path d="M 90 512.64 
L 648 512.64 
L 648 69.12 
L 90 69.12 
z
" style="fill: #ffffff"/>
   </g>
   <g id="PathCollection_1">
    <defs>
     <path id="C0_0_88970f086c" d="M -0 4.242641 
L 4.242641 -0 
L 0 -4.242641 
L -4.242641 -0 
z
"/>
    </defs>
    <g clip-path="url(#p5395d0c537)">
     <use xlink:href="#C0_0_88970f086c" x="115.363636" y="488.280156" style="fill: #440154; stroke: #440154"/>
    </g>
    <g clip-path="url(#p5395d0c537)">
     <use xlink:href="#C0_0_88970f086c" x="151.597403" y="219.746562" style="fill: #3bbb75; stroke: #3bbb75"/>
    </g>
    <g clip-path="url(#p5395d0c537)">
     <use xlink:href="#C0_0_88970f086c" x="187.831169" y="184.226254" style="fill: #69cd5b; stroke: #69cd5b"/>
    </g>
    <g clip-path="url(#p5395d0c537)">
     <use xlink:href="#C0_0_88970f086c" x="224.064935" y="180.35355" style="fill: #70cf57; stroke: #70cf57"/>
    </g>
    <g clip-path="url(#p5395d0c537)">
     <use xlink:href="#C0_0_88970f086c" x="260.298701" y="171.467453" style="fill: #7cd250; stroke: #7cd250"/>
    </g>
    <g clip-path="url(#p5395d0c537)">
     <use xlink:href="#C0_0_88970f086c" x="296.532468" y="138.647511" style="fill: #b5de2b; stroke: #b5de2b"/>
    </g>
    <g clip-path="url(#p5395d0c537)">
     <use xlink:href="#C0_0_88970f086c" x="332.766234" y="142.165211" style="fill: #addc30; stroke: #addc30"/>
    </g>
    <g clip-path="url(#p5395d0c537)">
     <use xlink:href="#C0_0_88970f086c" x="369" y="174.889522" style="fill: #77d153; stroke: #77d153"/>
    </g>
    <g clip-path="url(#p5395d0c537)">
     <use xlink:href="#C0_0_88970f086c" x="405.233766" y="185.357312" style="fill: #67cc5c; stroke: #67cc5c"/>
    </g>
    <g clip-path="url(#p5395d0c537)">
     <use xlink:href="#C0_0_88970f086c" x="441.467532" y="180.841336" style="fill: #6ece58; stroke: #6ece58"/>
    </g>
    <g clip-path="url(#p5395d0c537)">
     <use xlink:href="#C0_0_88970f086c" x="477.701299" y="254.766013" style="fill: #21a685; stroke: #21a685"/>
    </g>
    <g clip-path="url(#p5395d0c537)">
     <use xlink:href="#C0_0_88970f086c" x="513.935065" y="301.969103" style="fill: #238a8d; stroke: #238a8d"/>
    </g>
    <g clip-path="url(#p5395d0c537)">
     <use xlink:href="#C0_0_88970f086c" x="550.168831" y="220.86386" style="fill: #3aba76; stroke: #3aba76"/>
    </g>
    <g clip-path="url(#p5395d0c537)">
     <use xlink:href="#C0_0_88970f086c" x="586.402597" y="130.146001" style="fill: #c2df23; stroke: #c2df23"/>
    </g>
    <g clip-path="url(#p5395d0c537)">
     <use xlink:href="#C0_0_88970f086c" x="622.636364" y="94.340865" style="fill: #fde725; stroke: #fde725"/>
    </g>
   </g>
   <g id="PathCollection_2">
    <defs>
     <path id="C1_0_7641c9522e" d="M 0 3 
C 0.795609 3 1.55874 2.683901 2.12132 2.12132 
C 2.683901 1.55874 3 0.795609 3 -0 
C 3 -0.795609 2.683901 -1.55874 2.12132 -2.12132 
C 1.55874 -2.683901 0.795609 -3 0 -3 
C -0.795609 -3 -1.55874 -2.683901 -2.12132 -2.12132 
C -2.683901 -1.55874 -3 -0.795609 -3 0 
C -3 0.795609 -2.683901 1.55874 -2.12132 2.12132 
C -1.55874 2.683901 -0.795609 3 0 3 
z
"/>
    </defs>
    <g clip-path="url(#p5395d0c537)">
     <use xlink:href="#C1_0_7641c9522e" x="115.363636" y="215.099455" style="fill: #277e8e; stroke: #277e8e"/>
    </g>
    <g clip-path="url(#p5395d0c537)">
     <use xlink:href="#C1_0_7641c9522e" x="151.597403" y="221.859384" style="fill: #2a768e; stroke: #2a768e"/>
    </g>
    <g clip-path="url(#p5395d0c537)">
     <use xlink:href="#C1_0_7641c9522e" x="187.831169" y="181.256195" style="fill: #20a486; stroke: #20a486"/>
    </g>
    <g clip-path="url(#p5395d0c537)">
     <use xlink:href="#C1_0_7641c9522e" x="224.064935" y="180.406526" style="fill: #21a585; stroke: #21a585"/>
    </g>
    <g clip-path="url(#p5395d0c537)">
     <use xlink:href="#C1_0_7641c9522e" x="260.298701" y="170.494633" style="fill: #2ab07f; stroke: #2ab07f"/>
    </g>
    <g clip-path="url(#p5395d0c537)">
     <use xlink:href="#C1_0_7641c9522e" x="296.532468" y="139.290783" style="fill: #70cf57; stroke: #70cf57"/>
    </g>
    <g clip-path="url(#p5395d0c537)">
     <use xlink:href="#C1_0_7641c9522e" x="332.766234" y="141.227479" style="fill: #6ccd5a; stroke: #6ccd5a"/>
    </g>
    <g clip-path="url(#p5395d0c537)">
     <use xlink:href="#C1_0_7641c9522e" x="369" y="174.971393" style="fill: #25ac82; stroke: #25ac82"/>
    </g>
    <g clip-path="url(#p5395d0c537)">
     <use xlink:href="#C1_0_7641c9522e" x="405.233766" y="185.294704" style="fill: #1fa088; stroke: #1fa088"/>
    </g>
    <g clip-path="url(#p5395d0c537)">
     <use xlink:href="#C1_0_7641c9522e" x="441.467532" y="180.578523" style="fill: #21a585; stroke: #21a585"/>
    </g>
    <g clip-path="url(#p5395d0c537)">
     <use xlink:href="#C1_0_7641c9522e" x="477.701299" y="258.394479" style="fill: #3f4889; stroke: #3f4889"/>
    </g>
    <g clip-path="url(#p5395d0c537)">
     <use xlink:href="#C1_0_7641c9522e" x="513.935065" y="304.218147" style="fill: #440154; stroke: #440154"/>
    </g>
    <g clip-path="url(#p5395d0c537)">
     <use xlink:href="#C1_0_7641c9522e" x="550.168831" y="216.898278" style="fill: #287c8e; stroke: #287c8e"/>
    </g>
    <g clip-path="url(#p5395d0c537)">
     <use xlink:href="#C1_0_7641c9522e" x="586.402597" y="127.361012" style="fill: #95d840; stroke: #95d840"/>
    </g>
    <g clip-path="url(#p5395d0c537)">
     <use xlink:href="#C1_0_7641c9522e" x="622.636364" y="94.096628" style="fill: #fde725; stroke: #fde725"/>
    </g>
   </g>
   <g id="PathCollection_3">
    <path d="M 112.363636 484.132853 
L 118.363636 484.132853 
M 115.363636 487.132853 
L 115.363636 481.132853 
" clip-path="url(#p5395d0c537)" style="fill: #440154; stroke: #440154; stroke-width: 1.5"/>
    <path d="M 148.597403 213.207204 
L 154.597403 213.207204 
M 151.597403 216.207204 
L 151.597403 210.207204 
" clip-path="url(#p5395d0c537)" style="fill: #3dbc74; stroke: #3dbc74; stroke-width: 1.5"/>
    <path d="M 184.831169 178.263432 
L 190.831169 178.263432 
M 187.831169 181.263432 
L 187.831169 175.263432 
" clip-path="url(#p5395d0c537)" style="fill: #6ccd5a; stroke: #6ccd5a; stroke-width: 1.5"/>
    <path d="M 221.064935 173.781168 
L 227.064935 173.781168 
M 224.064935 176.781168 
L 224.064935 170.781168 
" clip-path="url(#p5395d0c537)" style="fill: #73d056; stroke: #73d056; stroke-width: 1.5"/>
    <path d="M 257.298701 165.97109 
L 263.298701 165.97109 
M 260.298701 168.97109 
L 260.298701 162.97109 
" clip-path="url(#p5395d0c537)" style="fill: #7fd34e; stroke: #7fd34e; stroke-width: 1.5"/>
    <path d="M 293.532468 134.144607 
L 299.532468 134.144607 
M 296.532468 137.144607 
L 296.532468 131.144607 
" clip-path="url(#p5395d0c537)" style="fill: #b2dd2d; stroke: #b2dd2d; stroke-width: 1.5"/>
    <path d="M 329.766234 138.354427 
L 335.766234 138.354427 
M 332.766234 141.354427 
L 332.766234 135.354427 
" clip-path="url(#p5395d0c537)" style="fill: #addc30; stroke: #addc30; stroke-width: 1.5"/>
    <path d="M 366 169.974512 
L 372 169.974512 
M 369 172.974512 
L 369 166.974512 
" clip-path="url(#p5395d0c537)" style="fill: #77d153; stroke: #77d153; stroke-width: 1.5"/>
    <path d="M 402.233766 179.501817 
L 408.233766 179.501817 
M 405.233766 182.501817 
L 405.233766 176.501817 
" clip-path="url(#p5395d0c537)" style="fill: #69cd5b; stroke: #69cd5b; stroke-width: 1.5"/>
    <path d="M 438.467532 176.297153 
L 444.467532 176.297153 
M 441.467532 179.297153 
L 441.467532 173.297153 
" clip-path="url(#p5395d0c537)" style="fill: #6ece58; stroke: #6ece58; stroke-width: 1.5"/>
    <path d="M 474.701299 250.93046 
L 480.701299 250.93046 
M 477.701299 253.93046 
L 477.701299 247.93046 
" clip-path="url(#p5395d0c537)" style="fill: #21a685; stroke: #21a685; stroke-width: 1.5"/>
    <path d="M 510.935065 297.375384 
L 516.935065 297.375384 
M 513.935065 300.375384 
L 513.935065 294.375384 
" clip-path="url(#p5395d0c537)" style="fill: #238a8d; stroke: #238a8d; stroke-width: 1.5"/>
    <path d="M 547.168831 213.567711 
L 553.168831 213.567711 
M 550.168831 216.567711 
L 550.168831 210.567711 
" clip-path="url(#p5395d0c537)" style="fill: #3dbc74; stroke: #3dbc74; stroke-width: 1.5"/>
    <path d="M 583.402597 122.638639 
L 589.402597 122.638639 
M 586.402597 125.638639 
L 586.402597 119.638639 
" clip-path="url(#p5395d0c537)" style="fill: #c8e020; stroke: #c8e020; stroke-width: 1.5"/>
    <path d="M 619.636364 89.28 
L 625.636364 89.28 
M 622.636364 92.28 
L 622.636364 86.28 
" clip-path="url(#p5395d0c537)" style="fill: #fde725; stroke: #fde725; stroke-width: 1.5"/>
   </g>
   <g id="PathCollection_4">
    <defs>
     <path id="C2_0_b4b1dd57a2" d="M 0 -3 
L -0.673542 -0.927051 
L -2.85317 -0.927051 
L -1.089814 0.354102 
L -1.763356 2.427051 
L -0 1.145898 
L 1.763356 2.427051 
L 1.089814 0.354102 
L 2.85317 -0.927051 
L 0.673542 -0.927051 
z
"/>
    </defs>
    <g clip-path="url(#p5395d0c537)">
     <use xlink:href="#C2_0_b4b1dd57a2" x="115.363636" y="492.48" style="fill: #440154; stroke: #440154"/>
    </g>
    <g clip-path="url(#p5395d0c537)">
     <use xlink:href="#C2_0_b4b1dd57a2" x="151.597403" y="229.465817" style="fill: #37b878; stroke: #37b878"/>
    </g>
    <g clip-path="url(#p5395d0c537)">
     <use xlink:href="#C2_0_b4b1dd57a2" x="187.831169" y="187.60154" style="fill: #6ccd5a; stroke: #6ccd5a"/>
    </g>
    <g clip-path="url(#p5395d0c537)">
     <use xlink:href="#C2_0_b4b1dd57a2" x="224.064935" y="188.279899" style="fill: #69cd5b; stroke: #69cd5b"/>
    </g>
    <g clip-path="url(#p5395d0c537)">
     <use xlink:href="#C2_0_b4b1dd57a2" x="260.298701" y="175.88367" style="fill: #7cd250; stroke: #7cd250"/>
    </g>
    <g clip-path="url(#p5395d0c537)">
     <use xlink:href="#C2_0_b4b1dd57a2" x="296.532468" y="145.040327" style="fill: #b0dd2f; stroke: #b0dd2f"/>
    </g>
    <g clip-path="url(#p5395d0c537)">
     <use xlink:href="#C2_0_b4b1dd57a2" x="332.766234" y="146.322743" style="fill: #b0dd2f; stroke: #b0dd2f"/>
    </g>
    <g clip-path="url(#p5395d0c537)">
     <use xlink:href="#C2_0_b4b1dd57a2" x="369" y="180.948663" style="fill: #75d054; stroke: #75d054"/>
    </g>
    <g clip-path="url(#p5395d0c537)">
     <use xlink:href="#C2_0_b4b1dd57a2" x="405.233766" y="190.943802" style="fill: #67cc5c; stroke: #67cc5c"/>
    </g>
    <g clip-path="url(#p5395d0c537)">
     <use xlink:href="#C2_0_b4b1dd57a2" x="441.467532" y="184.760135" style="fill: #70cf57; stroke: #70cf57"/>
    </g>
    <g clip-path="url(#p5395d0c537)">
     <use xlink:href="#C2_0_b4b1dd57a2" x="477.701299" y="262.137152" style="fill: #20a486; stroke: #20a486"/>
    </g>
    <g clip-path="url(#p5395d0c537)">
     <use xlink:href="#C2_0_b4b1dd57a2" x="513.935065" y="309.483345" style="fill: #24878e; stroke: #24878e"/>
    </g>
    <g clip-path="url(#p5395d0c537)">
     <use xlink:href="#C2_0_b4b1dd57a2" x="550.168831" y="223.393604" style="fill: #3bbb75; stroke: #3bbb75"/>
    </g>
    <g clip-path="url(#p5395d0c537)">
     <use xlink:href="#C2_0_b4b1dd57a2" x="586.402597" y="136.430803" style="fill: #c0df25; stroke: #c0df25"/>
    </g>
    <g clip-path="url(#p5395d0c537)">
     <use xlink:href="#C2_0_b4b1dd57a2" x="622.636364" y="98.803865" style="fill: #fde725; stroke: #fde725"/>
    </g>
   </g>
   <g id="matplotlib.axis_1">
    <g id="xtick_1">
     <g id="line2d_1">
      <defs>
       <path id="mc399d6c516" d="M 0 0 
L 0 3.5 
" style="stroke: #000000; stroke-width: 0.8"/>
      </defs>
      <g>
       <use xlink:href="#mc399d6c516" x="115.363636" y="512.64" style="stroke: #000000; stroke-width: 0.8"/>
      </g>
     </g>
     <g id="text_1">
      <!-- 2023-04-11 -->
      <g transform="translate(96.767833 566.106859) rotate(-45) scale(0.1 -0.1)">
       <defs>
        <path id="DejaVuSans-32" d="M 1228 531 
L 3431 531 
L 3431 0 
L 469 0 
L 469 531 
Q 828 903 1448 1529 
Q 2069 2156 2228 2338 
Q 2531 2678 2651 2914 
Q 2772 3150 2772 3378 
Q 2772 3750 2511 3984 
Q 2250 4219 1831 4219 
Q 1534 4219 1204 4116 
Q 875 4013 500 3803 
L 500 4441 
Q 881 4594 1212 4672 
Q 1544 4750 1819 4750 
Q 2544 4750 2975 4387 
Q 3406 4025 3406 3419 
Q 3406 3131 3298 2873 
Q 3191 2616 2906 2266 
Q 2828 2175 2409 1742 
Q 1991 1309 1228 531 
z
" transform="scale(0.015625)"/>
        <path id="DejaVuSans-30" d="M 2034 4250 
Q 1547 4250 1301 3770 
Q 1056 3291 1056 2328 
Q 1056 1369 1301 889 
Q 1547 409 2034 409 
Q 2525 409 2770 889 
Q 3016 1369 3016 2328 
Q 3016 3291 2770 3770 
Q 2525 4250 2034 4250 
z
M 2034 4750 
Q 2819 4750 3233 4129 
Q 3647 3509 3647 2328 
Q 3647 1150 3233 529 
Q 2819 -91 2034 -91 
Q 1250 -91 836 529 
Q 422 1150 422 2328 
Q 422 3509 836 4129 
Q 1250 4750 2034 4750 
z
" transform="scale(0.015625)"/>
        <path id="DejaVuSans-33" d="M 2597 2516 
Q 3050 2419 3304 2112 
Q 3559 1806 3559 1356 
Q 3559 666 3084 287 
Q 2609 -91 1734 -91 
Q 1441 -91 1130 -33 
Q 819 25 488 141 
L 488 750 
Q 750 597 1062 519 
Q 1375 441 1716 441 
Q 2309 441 2620 675 
Q 2931 909 2931 1356 
Q 2931 1769 2642 2001 
Q 2353 2234 1838 2234 
L 1294 2234 
L 1294 2753 
L 1863 2753 
Q 2328 2753 2575 2939 
Q 2822 3125 2822 3475 
Q 2822 3834 2567 4026 
Q 2313 4219 1838 4219 
Q 1578 4219 1281 4162 
Q 984 4106 628 3988 
L 628 4550 
Q 988 4650 1302 4700 
Q 1616 4750 1894 4750 
Q 2613 4750 3031 4423 
Q 3450 4097 3450 3541 
Q 3450 3153 3228 2886 
Q 3006 2619 2597 2516 
z
" transform="scale(0.015625)"/>
        <path id="DejaVuSans-2d" d="M 313 2009 
L 1997 2009 
L 1997 1497 
L 313 1497 
L 313 2009 
z
" transform="scale(0.015625)"/>
        <path id="DejaVuSans-34" d="M 2419 4116 
L 825 1625 
L 2419 1625 
L 2419 4116 
z
M 2253 4666 
L 3047 4666 
L 3047 1625 
L 3713 1625 
L 3713 1100 
L 3047 1100 
L 3047 0 
L 2419 0 
L 2419 1100 
L 313 1100 
L 313 1709 
L 2253 4666 
z
" transform="scale(0.015625)"/>
        <path id="DejaVuSans-31" d="M 794 531 
L 1825 531 
L 1825 4091 
L 703 3866 
L 703 4441 
L 1819 4666 
L 2450 4666 
L 2450 531 
L 3481 531 
L 3481 0 
L 794 0 
L 794 531 
z
" transform="scale(0.015625)"/>
       </defs>
       <use xlink:href="#DejaVuSans-32"/>
       <use xlink:href="#DejaVuSans-30" x="63.623047"/>
       <use xlink:href="#DejaVuSans-32" x="127.246094"/>
       <use xlink:href="#DejaVuSans-33" x="190.869141"/>
       <use xlink:href="#DejaVuSans-2d" x="254.492188"/>
       <use xlink:href="#DejaVuSans-30" x="290.576172"/>
       <use xlink:href="#DejaVuSans-34" x="354.199219"/>
       <use xlink:href="#DejaVuSans-2d" x="417.822266"/>
       <use xlink:href="#DejaVuSans-31" x="453.90625"/>
       <use xlink:href="#DejaVuSans-31" x="517.529297"/>
      </g>
     </g>
    </g>
    <g id="xtick_2">
     <g id="line2d_2">
      <g>
       <use xlink:href="#mc399d6c516" x="187.831169" y="512.64" style="stroke: #000000; stroke-width: 0.8"/>
      </g>
     </g>
     <g id="text_2">
      <!-- 2023-04-13 -->
      <g transform="translate(169.235365 566.106859) rotate(-45) scale(0.1 -0.1)">
       <use xlink:href="#DejaVuSans-32"/>
       <use xlink:href="#DejaVuSans-30" x="63.623047"/>
       <use xlink:href="#DejaVuSans-32" x="127.246094"/>
       <use xlink:href="#DejaVuSans-33" x="190.869141"/>
       <use xlink:href="#DejaVuSans-2d" x="254.492188"/>
       <use xlink:href="#DejaVuSans-30" x="290.576172"/>
       <use xlink:href="#DejaVuSans-34" x="354.199219"/>
       <use xlink:href="#DejaVuSans-2d" x="417.822266"/>
       <use xlink:href="#DejaVuSans-31" x="453.90625"/>
       <use xlink:href="#DejaVuSans-33" x="517.529297"/>
      </g>
     </g>
    </g>
    <g id="xtick_3">
     <g id="line2d_3">
      <g>
       <use xlink:href="#mc399d6c516" x="260.298701" y="512.64" style="stroke: #000000; stroke-width: 0.8"/>
      </g>
     </g>
     <g id="text_3">
      <!-- 2023-04-17 -->
      <g transform="translate(241.702898 566.106859) rotate(-45) scale(0.1 -0.1)">
       <defs>
        <path id="DejaVuSans-37" d="M 525 4666 
L 3525 4666 
L 3525 4397 
L 1831 0 
L 1172 0 
L 2766 4134 
L 525 4134 
L 525 4666 
z
" transform="scale(0.015625)"/>
       </defs>
       <use xlink:href="#DejaVuSans-32"/>
       <use xlink:href="#DejaVuSans-30" x="63.623047"/>
       <use xlink:href="#DejaVuSans-32" x="127.246094"/>
       <use xlink:href="#DejaVuSans-33" x="190.869141"/>
       <use xlink:href="#DejaVuSans-2d" x="254.492188"/>
       <use xlink:href="#DejaVuSans-30" x="290.576172"/>
       <use xlink:href="#DejaVuSans-34" x="354.199219"/>
       <use xlink:href="#DejaVuSans-2d" x="417.822266"/>
       <use xlink:href="#DejaVuSans-31" x="453.90625"/>
       <use xlink:href="#DejaVuSans-37" x="517.529297"/>
      </g>
     </g>
    </g>
    <g id="xtick_4">
     <g id="line2d_4">
      <g>
       <use xlink:href="#mc399d6c516" x="332.766234" y="512.64" style="stroke: #000000; stroke-width: 0.8"/>
      </g>
     </g>
     <g id="text_4">
      <!-- 2023-04-19 -->
      <g transform="translate(314.17043 566.106859) rotate(-45) scale(0.1 -0.1)">
       <defs>
        <path id="DejaVuSans-39" d="M 703 97 
L 703 672 
Q 941 559 1184 500 
Q 1428 441 1663 441 
Q 2288 441 2617 861 
Q 2947 1281 2994 2138 
Q 2813 1869 2534 1725 
Q 2256 1581 1919 1581 
Q 1219 1581 811 2004 
Q 403 2428 403 3163 
Q 403 3881 828 4315 
Q 1253 4750 1959 4750 
Q 2769 4750 3195 4129 
Q 3622 3509 3622 2328 
Q 3622 1225 3098 567 
Q 2575 -91 1691 -91 
Q 1453 -91 1209 -44 
Q 966 3 703 97 
z
M 1959 2075 
Q 2384 2075 2632 2365 
Q 2881 2656 2881 3163 
Q 2881 3666 2632 3958 
Q 2384 4250 1959 4250 
Q 1534 4250 1286 3958 
Q 1038 3666 1038 3163 
Q 1038 2656 1286 2365 
Q 1534 2075 1959 2075 
z
" transform="scale(0.015625)"/>
       </defs>
       <use xlink:href="#DejaVuSans-32"/>
       <use xlink:href="#DejaVuSans-30" x="63.623047"/>
       <use xlink:href="#DejaVuSans-32" x="127.246094"/>
       <use xlink:href="#DejaVuSans-33" x="190.869141"/>
       <use xlink:href="#DejaVuSans-2d" x="254.492188"/>
       <use xlink:href="#DejaVuSans-30" x="290.576172"/>
       <use xlink:href="#DejaVuSans-34" x="354.199219"/>
       <use xlink:href="#DejaVuSans-2d" x="417.822266"/>
       <use xlink:href="#DejaVuSans-31" x="453.90625"/>
       <use xlink:href="#DejaVuSans-39" x="517.529297"/>
      </g>
     </g>
    </g>
    <g id="xtick_5">
     <g id="line2d_5">
      <g>
       <use xlink:href="#mc399d6c516" x="405.233766" y="512.64" style="stroke: #000000; stroke-width: 0.8"/>
      </g>
     </g>
     <g id="text_5">
      <!-- 2023-04-21 -->
      <g transform="translate(386.637963 566.106859) rotate(-45) scale(0.1 -0.1)">
       <use xlink:href="#DejaVuSans-32"/>
       <use xlink:href="#DejaVuSans-30" x="63.623047"/>
       <use xlink:href="#DejaVuSans-32" x="127.246094"/>
       <use xlink:href="#DejaVuSans-33" x="190.869141"/>
       <use xlink:href="#DejaVuSans-2d" x="254.492188"/>
       <use xlink:href="#DejaVuSans-30" x="290.576172"/>
       <use xlink:href="#DejaVuSans-34" x="354.199219"/>
       <use xlink:href="#DejaVuSans-2d" x="417.822266"/>
       <use xlink:href="#DejaVuSans-32" x="453.90625"/>
       <use xlink:href="#DejaVuSans-31" x="517.529297"/>
      </g>
     </g>
    </g>
    <g id="xtick_6">
     <g id="line2d_6">
      <g>
       <use xlink:href="#mc399d6c516" x="477.701299" y="512.64" style="stroke: #000000; stroke-width: 0.8"/>
      </g>
     </g>
     <g id="text_6">
      <!-- 2023-04-25 -->
      <g transform="translate(459.105495 566.106859) rotate(-45) scale(0.1 -0.1)">
       <defs>
        <path id="DejaVuSans-35" d="M 691 4666 
L 3169 4666 
L 3169 4134 
L 1269 4134 
L 1269 2991 
Q 1406 3038 1543 3061 
Q 1681 3084 1819 3084 
Q 2600 3084 3056 2656 
Q 3513 2228 3513 1497 
Q 3513 744 3044 326 
Q 2575 -91 1722 -91 
Q 1428 -91 1123 -41 
Q 819 9 494 109 
L 494 744 
Q 775 591 1075 516 
Q 1375 441 1709 441 
Q 2250 441 2565 725 
Q 2881 1009 2881 1497 
Q 2881 1984 2565 2268 
Q 2250 2553 1709 2553 
Q 1456 2553 1204 2497 
Q 953 2441 691 2322 
L 691 4666 
z
" transform="scale(0.015625)"/>
       </defs>
       <use xlink:href="#DejaVuSans-32"/>
       <use xlink:href="#DejaVuSans-30" x="63.623047"/>
       <use xlink:href="#DejaVuSans-32" x="127.246094"/>
       <use xlink:href="#DejaVuSans-33" x="190.869141"/>
       <use xlink:href="#DejaVuSans-2d" x="254.492188"/>
       <use xlink:href="#DejaVuSans-30" x="290.576172"/>
       <use xlink:href="#DejaVuSans-34" x="354.199219"/>
       <use xlink:href="#DejaVuSans-2d" x="417.822266"/>
       <use xlink:href="#DejaVuSans-32" x="453.90625"/>
       <use xlink:href="#DejaVuSans-35" x="517.529297"/>
      </g>
     </g>
    </g>
    <g id="xtick_7">
     <g id="line2d_7">
      <g>
       <use xlink:href="#mc399d6c516" x="550.168831" y="512.64" style="stroke: #000000; stroke-width: 0.8"/>
      </g>
     </g>
     <g id="text_7">
      <!-- 2023-04-27 -->
      <g transform="translate(531.573028 566.106859) rotate(-45) scale(0.1 -0.1)">
       <use xlink:href="#DejaVuSans-32"/>
       <use xlink:href="#DejaVuSans-30" x="63.623047"/>
       <use xlink:href="#DejaVuSans-32" x="127.246094"/>
       <use xlink:href="#DejaVuSans-33" x="190.869141"/>
       <use xlink:href="#DejaVuSans-2d" x="254.492188"/>
       <use xlink:href="#DejaVuSans-30" x="290.576172"/>
       <use xlink:href="#DejaVuSans-34" x="354.199219"/>
       <use xlink:href="#DejaVuSans-2d" x="417.822266"/>
       <use xlink:href="#DejaVuSans-32" x="453.90625"/>
       <use xlink:href="#DejaVuSans-37" x="517.529297"/>
      </g>
     </g>
    </g>
    <g id="xtick_8">
     <g id="line2d_8">
      <g>
       <use xlink:href="#mc399d6c516" x="622.636364" y="512.64" style="stroke: #000000; stroke-width: 0.8"/>
      </g>
     </g>
     <g id="text_8">
      <!-- 2023-05-01 -->
      <g transform="translate(604.04056 566.106859) rotate(-45) scale(0.1 -0.1)">
       <use xlink:href="#DejaVuSans-32"/>
       <use xlink:href="#DejaVuSans-30" x="63.623047"/>
       <use xlink:href="#DejaVuSans-32" x="127.246094"/>
       <use xlink:href="#DejaVuSans-33" x="190.869141"/>
       <use xlink:href="#DejaVuSans-2d" x="254.492188"/>
       <use xlink:href="#DejaVuSans-30" x="290.576172"/>
       <use xlink:href="#DejaVuSans-35" x="354.199219"/>
       <use xlink:href="#DejaVuSans-2d" x="417.822266"/>
       <use xlink:href="#DejaVuSans-30" x="453.90625"/>
       <use xlink:href="#DejaVuSans-31" x="517.529297"/>
      </g>
     </g>
    </g>
    <g id="text_9">
     <!-- Date -->
     <g transform="translate(357.049219 579.175858) scale(0.1 -0.1)">
      <defs>
       <path id="DejaVuSans-44" d="M 1259 4147 
L 1259 519 
L 2022 519 
Q 2988 519 3436 956 
Q 3884 1394 3884 2338 
Q 3884 3275 3436 3711 
Q 2988 4147 2022 4147 
L 1259 4147 
z
M 628 4666 
L 1925 4666 
Q 3281 4666 3915 4102 
Q 4550 3538 4550 2338 
Q 4550 1131 3912 565 
Q 3275 0 1925 0 
L 628 0 
L 628 4666 
z
" transform="scale(0.015625)"/>
       <path id="DejaVuSans-61" d="M 2194 1759 
Q 1497 1759 1228 1600 
Q 959 1441 959 1056 
Q 959 750 1161 570 
Q 1363 391 1709 391 
Q 2188 391 2477 730 
Q 2766 1069 2766 1631 
L 2766 1759 
L 2194 1759 
z
M 3341 1997 
L 3341 0 
L 2766 0 
L 2766 531 
Q 2569 213 2275 61 
Q 1981 -91 1556 -91 
Q 1019 -91 701 211 
Q 384 513 384 1019 
Q 384 1609 779 1909 
Q 1175 2209 1959 2209 
L 2766 2209 
L 2766 2266 
Q 2766 2663 2505 2880 
Q 2244 3097 1772 3097 
Q 1472 3097 1187 3025 
Q 903 2953 641 2809 
L 641 3341 
Q 956 3463 1253 3523 
Q 1550 3584 1831 3584 
Q 2591 3584 2966 3190 
Q 3341 2797 3341 1997 
z
" transform="scale(0.015625)"/>
       <path id="DejaVuSans-74" d="M 1172 4494 
L 1172 3500 
L 2356 3500 
L 2356 3053 
L 1172 3053 
L 1172 1153 
Q 1172 725 1289 603 
Q 1406 481 1766 481 
L 2356 481 
L 2356 0 
L 1766 0 
Q 1100 0 847 248 
Q 594 497 594 1153 
L 594 3053 
L 172 3053 
L 172 3500 
L 594 3500 
L 594 4494 
L 1172 4494 
z
" transform="scale(0.015625)"/>
       <path id="DejaVuSans-65" d="M 3597 1894 
L 3597 1613 
L 953 1613 
Q 991 1019 1311 708 
Q 1631 397 2203 397 
Q 2534 397 2845 478 
Q 3156 559 3463 722 
L 3463 178 
Q 3153 47 2828 -22 
Q 2503 -91 2169 -91 
Q 1331 -91 842 396 
Q 353 884 353 1716 
Q 353 2575 817 3079 
Q 1281 3584 2069 3584 
Q 2775 3584 3186 3129 
Q 3597 2675 3597 1894 
z
M 3022 2063 
Q 3016 2534 2758 2815 
Q 2500 3097 2075 3097 
Q 1594 3097 1305 2825 
Q 1016 2553 972 2059 
L 3022 2063 
z
" transform="scale(0.015625)"/>
      </defs>
      <use xlink:href="#DejaVuSans-44"/>
      <use xlink:href="#DejaVuSans-61" x="77.001953"/>
      <use xlink:href="#DejaVuSans-74" x="138.28125"/>
      <use xlink:href="#DejaVuSans-65" x="177.490234"/>
     </g>
    </g>
   </g>
   <g id="matplotlib.axis_2">
    <g id="ytick_1">
     <g id="line2d_9">
      <defs>
       <path id="m892f13cd23" d="M 0 0 
L -3.5 0 
" style="stroke: #000000; stroke-width: 0.8"/>
      </defs>
      <g>
       <use xlink:href="#m892f13cd23" x="90" y="492.396868" style="stroke: #000000; stroke-width: 0.8"/>
      </g>
     </g>
     <g id="text_10">
      <!-- 3975 -->
      <g transform="translate(57.55 496.196086) scale(0.1 -0.1)">
       <use xlink:href="#DejaVuSans-33"/>
       <use xlink:href="#DejaVuSans-39" x="63.623047"/>
       <use xlink:href="#DejaVuSans-37" x="127.246094"/>
       <use xlink:href="#DejaVuSans-35" x="190.869141"/>
      </g>
     </g>
    </g>
    <g id="ytick_2">
     <g id="line2d_10">
      <g>
       <use xlink:href="#m892f13cd23" x="90" y="442.517491" style="stroke: #000000; stroke-width: 0.8"/>
      </g>
     </g>
     <g id="text_11">
      <!-- 4000 -->
      <g transform="translate(57.55 446.31671) scale(0.1 -0.1)">
       <use xlink:href="#DejaVuSans-34"/>
       <use xlink:href="#DejaVuSans-30" x="63.623047"/>
       <use xlink:href="#DejaVuSans-30" x="127.246094"/>
       <use xlink:href="#DejaVuSans-30" x="190.869141"/>
      </g>
     </g>
    </g>
    <g id="ytick_3">
     <g id="line2d_11">
      <g>
       <use xlink:href="#m892f13cd23" x="90" y="392.638114" style="stroke: #000000; stroke-width: 0.8"/>
      </g>
     </g>
     <g id="text_12">
      <!-- 4025 -->
      <g transform="translate(57.55 396.437333) scale(0.1 -0.1)">
       <use xlink:href="#DejaVuSans-34"/>
       <use xlink:href="#DejaVuSans-30" x="63.623047"/>
       <use xlink:href="#DejaVuSans-32" x="127.246094"/>
       <use xlink:href="#DejaVuSans-35" x="190.869141"/>
      </g>
     </g>
    </g>
    <g id="ytick_4">
     <g id="line2d_12">
      <g>
       <use xlink:href="#m892f13cd23" x="90" y="342.758737" style="stroke: #000000; stroke-width: 0.8"/>
      </g>
     </g>
     <g id="text_13">
      <!-- 4050 -->
      <g transform="translate(57.55 346.557956) scale(0.1 -0.1)">
       <use xlink:href="#DejaVuSans-34"/>
       <use xlink:href="#DejaVuSans-30" x="63.623047"/>
       <use xlink:href="#DejaVuSans-35" x="127.246094"/>
       <use xlink:href="#DejaVuSans-30" x="190.869141"/>
      </g>
     </g>
    </g>
    <g id="ytick_5">
     <g id="line2d_13">
      <g>
       <use xlink:href="#m892f13cd23" x="90" y="292.87936" style="stroke: #000000; stroke-width: 0.8"/>
      </g>
     </g>
     <g id="text_14">
      <!-- 4075 -->
      <g transform="translate(57.55 296.678579) scale(0.1 -0.1)">
       <use xlink:href="#DejaVuSans-34"/>
       <use xlink:href="#DejaVuSans-30" x="63.623047"/>
       <use xlink:href="#DejaVuSans-37" x="127.246094"/>
       <use xlink:href="#DejaVuSans-35" x="190.869141"/>
      </g>
     </g>
    </g>
    <g id="ytick_6">
     <g id="line2d_14">
      <g>
       <use xlink:href="#m892f13cd23" x="90" y="242.999984" style="stroke: #000000; stroke-width: 0.8"/>
      </g>
     </g>
     <g id="text_15">
      <!-- 4100 -->
      <g transform="translate(57.55 246.799202) scale(0.1 -0.1)">
       <use xlink:href="#DejaVuSans-34"/>
       <use xlink:href="#DejaVuSans-31" x="63.623047"/>
       <use xlink:href="#DejaVuSans-30" x="127.246094"/>
       <use xlink:href="#DejaVuSans-30" x="190.869141"/>
      </g>
     </g>
    </g>
    <g id="ytick_7">
     <g id="line2d_15">
      <g>
       <use xlink:href="#m892f13cd23" x="90" y="193.120607" style="stroke: #000000; stroke-width: 0.8"/>
      </g>
     </g>
     <g id="text_16">
      <!-- 4125 -->
      <g transform="translate(57.55 196.919825) scale(0.1 -0.1)">
       <use xlink:href="#DejaVuSans-34"/>
       <use xlink:href="#DejaVuSans-31" x="63.623047"/>
       <use xlink:href="#DejaVuSans-32" x="127.246094"/>
       <use xlink:href="#DejaVuSans-35" x="190.869141"/>
      </g>
     </g>
    </g>
    <g id="ytick_8">
     <g id="line2d_16">
      <g>
       <use xlink:href="#m892f13cd23" x="90" y="143.24123" style="stroke: #000000; stroke-width: 0.8"/>
      </g>
     </g>
     <g id="text_17">
      <!-- 4150 -->
      <g transform="translate(57.55 147.040449) scale(0.1 -0.1)">
       <use xlink:href="#DejaVuSans-34"/>
       <use xlink:href="#DejaVuSans-31" x="63.623047"/>
       <use xlink:href="#DejaVuSans-35" x="127.246094"/>
       <use xlink:href="#DejaVuSans-30" x="190.869141"/>
      </g>
     </g>
    </g>
    <g id="ytick_9">
     <g id="line2d_17">
      <g>
       <use xlink:href="#m892f13cd23" x="90" y="93.361853" style="stroke: #000000; stroke-width: 0.8"/>
      </g>
     </g>
     <g id="text_18">
      <!-- 4175 -->
      <g transform="translate(57.55 97.161072) scale(0.1 -0.1)">
       <use xlink:href="#DejaVuSans-34"/>
       <use xlink:href="#DejaVuSans-31" x="63.623047"/>
       <use xlink:href="#DejaVuSans-37" x="127.246094"/>
       <use xlink:href="#DejaVuSans-35" x="190.869141"/>
      </g>
     </g>
    </g>
    <g id="text_19">
     <!-- S&amp;P Stock Price -->
     <g transform="translate(51.470312 330.182344) rotate(-90) scale(0.1 -0.1)">
      <defs>
       <path id="DejaVuSans-53" d="M 3425 4513 
L 3425 3897 
Q 3066 4069 2747 4153 
Q 2428 4238 2131 4238 
Q 1616 4238 1336 4038 
Q 1056 3838 1056 3469 
Q 1056 3159 1242 3001 
Q 1428 2844 1947 2747 
L 2328 2669 
Q 3034 2534 3370 2195 
Q 3706 1856 3706 1288 
Q 3706 609 3251 259 
Q 2797 -91 1919 -91 
Q 1588 -91 1214 -16 
Q 841 59 441 206 
L 441 856 
Q 825 641 1194 531 
Q 1563 422 1919 422 
Q 2459 422 2753 634 
Q 3047 847 3047 1241 
Q 3047 1584 2836 1778 
Q 2625 1972 2144 2069 
L 1759 2144 
Q 1053 2284 737 2584 
Q 422 2884 422 3419 
Q 422 4038 858 4394 
Q 1294 4750 2059 4750 
Q 2388 4750 2728 4690 
Q 3069 4631 3425 4513 
z
" transform="scale(0.015625)"/>
       <path id="DejaVuSans-26" d="M 1556 2509 
Q 1272 2256 1139 2004 
Q 1006 1753 1006 1478 
Q 1006 1022 1337 719 
Q 1669 416 2169 416 
Q 2466 416 2725 514 
Q 2984 613 3213 813 
L 1556 2509 
z
M 1997 2859 
L 3584 1234 
Q 3769 1513 3872 1830 
Q 3975 2147 3994 2503 
L 4575 2503 
Q 4538 2091 4375 1687 
Q 4213 1284 3922 891 
L 4794 0 
L 4006 0 
L 3559 459 
Q 3234 181 2878 45 
Q 2522 -91 2113 -91 
Q 1359 -91 881 339 
Q 403 769 403 1441 
Q 403 1841 612 2192 
Q 822 2544 1241 2853 
Q 1091 3050 1012 3245 
Q 934 3441 934 3628 
Q 934 4134 1281 4442 
Q 1628 4750 2203 4750 
Q 2463 4750 2720 4694 
Q 2978 4638 3244 4525 
L 3244 3956 
Q 2972 4103 2725 4179 
Q 2478 4256 2266 4256 
Q 1938 4256 1733 4082 
Q 1528 3909 1528 3634 
Q 1528 3475 1620 3314 
Q 1713 3153 1997 2859 
z
" transform="scale(0.015625)"/>
       <path id="DejaVuSans-50" d="M 1259 4147 
L 1259 2394 
L 2053 2394 
Q 2494 2394 2734 2622 
Q 2975 2850 2975 3272 
Q 2975 3691 2734 3919 
Q 2494 4147 2053 4147 
L 1259 4147 
z
M 628 4666 
L 2053 4666 
Q 2838 4666 3239 4311 
Q 3641 3956 3641 3272 
Q 3641 2581 3239 2228 
Q 2838 1875 2053 1875 
L 1259 1875 
L 1259 0 
L 628 0 
L 628 4666 
z
" transform="scale(0.015625)"/>
       <path id="DejaVuSans-20" transform="scale(0.015625)"/>
       <path id="DejaVuSans-6f" d="M 1959 3097 
Q 1497 3097 1228 2736 
Q 959 2375 959 1747 
Q 959 1119 1226 758 
Q 1494 397 1959 397 
Q 2419 397 2687 759 
Q 2956 1122 2956 1747 
Q 2956 2369 2687 2733 
Q 2419 3097 1959 3097 
z
M 1959 3584 
Q 2709 3584 3137 3096 
Q 3566 2609 3566 1747 
Q 3566 888 3137 398 
Q 2709 -91 1959 -91 
Q 1206 -91 779 398 
Q 353 888 353 1747 
Q 353 2609 779 3096 
Q 1206 3584 1959 3584 
z
" transform="scale(0.015625)"/>
       <path id="DejaVuSans-63" d="M 3122 3366 
L 3122 2828 
Q 2878 2963 2633 3030 
Q 2388 3097 2138 3097 
Q 1578 3097 1268 2742 
Q 959 2388 959 1747 
Q 959 1106 1268 751 
Q 1578 397 2138 397 
Q 2388 397 2633 464 
Q 2878 531 3122 666 
L 3122 134 
Q 2881 22 2623 -34 
Q 2366 -91 2075 -91 
Q 1284 -91 818 406 
Q 353 903 353 1747 
Q 353 2603 823 3093 
Q 1294 3584 2113 3584 
Q 2378 3584 2631 3529 
Q 2884 3475 3122 3366 
z
" transform="scale(0.015625)"/>
       <path id="DejaVuSans-6b" d="M 581 4863 
L 1159 4863 
L 1159 1991 
L 2875 3500 
L 3609 3500 
L 1753 1863 
L 3688 0 
L 2938 0 
L 1159 1709 
L 1159 0 
L 581 0 
L 581 4863 
z
" transform="scale(0.015625)"/>
       <path id="DejaVuSans-72" d="M 2631 2963 
Q 2534 3019 2420 3045 
Q 2306 3072 2169 3072 
Q 1681 3072 1420 2755 
Q 1159 2438 1159 1844 
L 1159 0 
L 581 0 
L 581 3500 
L 1159 3500 
L 1159 2956 
Q 1341 3275 1631 3429 
Q 1922 3584 2338 3584 
Q 2397 3584 2469 3576 
Q 2541 3569 2628 3553 
L 2631 2963 
z
" transform="scale(0.015625)"/>
       <path id="DejaVuSans-69" d="M 603 3500 
L 1178 3500 
L 1178 0 
L 603 0 
L 603 3500 
z
M 603 4863 
L 1178 4863 
L 1178 4134 
L 603 4134 
L 603 4863 
z
" transform="scale(0.015625)"/>
      </defs>
      <use xlink:href="#DejaVuSans-53"/>
      <use xlink:href="#DejaVuSans-26" x="63.476562"/>
      <use xlink:href="#DejaVuSans-50" x="141.455078"/>
      <use xlink:href="#DejaVuSans-20" x="201.757812"/>
      <use xlink:href="#DejaVuSans-53" x="233.544922"/>
      <use xlink:href="#DejaVuSans-74" x="297.021484"/>
      <use xlink:href="#DejaVuSans-6f" x="336.230469"/>
      <use xlink:href="#DejaVuSans-63" x="397.412109"/>
      <use xlink:href="#DejaVuSans-6b" x="452.392578"/>
      <use xlink:href="#DejaVuSans-20" x="510.302734"/>
      <use xlink:href="#DejaVuSans-50" x="542.089844"/>
      <use xlink:href="#DejaVuSans-72" x="600.642578"/>
      <use xlink:href="#DejaVuSans-69" x="641.755859"/>
      <use xlink:href="#DejaVuSans-63" x="669.539062"/>
      <use xlink:href="#DejaVuSans-65" x="724.519531"/>
     </g>
    </g>
   </g>
   <g id="line2d_18">
    <path d="M 115.363636 419.998116 
L 151.597403 221.069741 
L 187.831169 182.836855 
L 224.064935 180.705286 
L 260.298701 170.954212 
L 296.532468 139.280807 
L 332.766234 142.017465 
L 369 175.196023 
L 405.233766 185.274409 
L 441.467532 180.619287 
L 477.701299 256.557026 
L 513.935065 303.261495 
L 550.168831 218.680863 
L 586.402597 129.144114 
L 622.636364 94.130339 
" clip-path="url(#p5395d0c537)" style="fill: none; stroke: #1f77b4; stroke-width: 1.5; stroke-linecap: square"/>
   </g>
   <g id="patch_3">
    <path d="M 90 512.64 
L 90 69.12 
" style="fill: none; stroke: #000000; stroke-width: 0.8; stroke-linejoin: miter; stroke-linecap: square"/>
   </g>
   <g id="patch_4">
    <path d="M 648 512.64 
L 648 69.12 
" style="fill: none; stroke: #000000; stroke-width: 0.8; stroke-linejoin: miter; stroke-linecap: square"/>
   </g>
   <g id="patch_5">
    <path d="M 90 512.64 
L 648 512.64 
" style="fill: none; stroke: #000000; stroke-width: 0.8; stroke-linejoin: miter; stroke-linecap: square"/>
   </g>
   <g id="patch_6">
    <path d="M 90 69.12 
L 648 69.12 
" style="fill: none; stroke: #000000; stroke-width: 0.8; stroke-linejoin: miter; stroke-linecap: square"/>
   </g>
   <g id="text_20">
    <!-- S&amp;P 500 Stock Price -->
    <g transform="translate(308.477813 63.12) scale(0.12 -0.12)">
     <use xlink:href="#DejaVuSans-53"/>
     <use xlink:href="#DejaVuSans-26" x="63.476562"/>
     <use xlink:href="#DejaVuSans-50" x="141.455078"/>
     <use xlink:href="#DejaVuSans-20" x="201.757812"/>
     <use xlink:href="#DejaVuSans-35" x="233.544922"/>
     <use xlink:href="#DejaVuSans-30" x="297.167969"/>
     <use xlink:href="#DejaVuSans-30" x="360.791016"/>
     <use xlink:href="#DejaVuSans-20" x="424.414062"/>
     <use xlink:href="#DejaVuSans-53" x="456.201172"/>
     <use xlink:href="#DejaVuSans-74" x="519.677734"/>
     <use xlink:href="#DejaVuSans-6f" x="558.886719"/>
     <use xlink:href="#DejaVuSans-63" x="620.068359"/>
     <use xlink:href="#DejaVuSans-6b" x="675.048828"/>
     <use xlink:href="#DejaVuSans-20" x="732.958984"/>
     <use xlink:href="#DejaVuSans-50" x="764.746094"/>
     <use xlink:href="#DejaVuSans-72" x="823.298828"/>
     <use xlink:href="#DejaVuSans-69" x="864.412109"/>
     <use xlink:href="#DejaVuSans-63" x="892.195312"/>
     <use xlink:href="#DejaVuSans-65" x="947.175781"/>
    </g>
   </g>
  </g>
  <g id="legend_1">
   <g id="patch_7">
    <path d="M 595.325 81.390625 
L 713 81.390625 
Q 715 81.390625 715 79.390625 
L 715 7 
Q 715 5 713 5 
L 595.325 5 
Q 593.325 5 593.325 7 
L 593.325 79.390625 
Q 593.325 81.390625 595.325 81.390625 
z
" style="fill: #ffffff; opacity: 0.8; stroke: #cccccc; stroke-linejoin: miter"/>
   </g>
   <g id="line2d_19">
    <path d="M 597.325 13.098438 
L 607.325 13.098438 
L 617.325 13.098438 
" style="fill: none; stroke: #1f77b4; stroke-width: 1.5; stroke-linecap: square"/>
   </g>
   <g id="text_21">
    <!-- Stock Mean Price -->
    <g transform="translate(625.325 16.598438) scale(0.1 -0.1)">
     <defs>
      <path id="DejaVuSans-4d" d="M 628 4666 
L 1569 4666 
L 2759 1491 
L 3956 4666 
L 4897 4666 
L 4897 0 
L 4281 0 
L 4281 4097 
L 3078 897 
L 2444 897 
L 1241 4097 
L 1241 0 
L 628 0 
L 628 4666 
z
" transform="scale(0.015625)"/>
      <path id="DejaVuSans-6e" d="M 3513 2113 
L 3513 0 
L 2938 0 
L 2938 2094 
Q 2938 2591 2744 2837 
Q 2550 3084 2163 3084 
Q 1697 3084 1428 2787 
Q 1159 2491 1159 1978 
L 1159 0 
L 581 0 
L 581 3500 
L 1159 3500 
L 1159 2956 
Q 1366 3272 1645 3428 
Q 1925 3584 2291 3584 
Q 2894 3584 3203 3211 
Q 3513 2838 3513 2113 
z
" transform="scale(0.015625)"/>
     </defs>
     <use xlink:href="#DejaVuSans-53"/>
     <use xlink:href="#DejaVuSans-74" x="63.476562"/>
     <use xlink:href="#DejaVuSans-6f" x="102.685547"/>
     <use xlink:href="#DejaVuSans-63" x="163.867188"/>
     <use xlink:href="#DejaVuSans-6b" x="218.847656"/>
     <use xlink:href="#DejaVuSans-20" x="276.757812"/>
     <use xlink:href="#DejaVuSans-4d" x="308.544922"/>
     <use xlink:href="#DejaVuSans-65" x="394.824219"/>
     <use xlink:href="#DejaVuSans-61" x="456.347656"/>
     <use xlink:href="#DejaVuSans-6e" x="517.626953"/>
     <use xlink:href="#DejaVuSans-20" x="581.005859"/>
     <use xlink:href="#DejaVuSans-50" x="612.792969"/>
     <use xlink:href="#DejaVuSans-72" x="671.345703"/>
     <use xlink:href="#DejaVuSans-69" x="712.458984"/>
     <use xlink:href="#DejaVuSans-63" x="740.242188"/>
     <use xlink:href="#DejaVuSans-65" x="795.222656"/>
    </g>
   </g>
   <g id="PathCollection_5">
    <path d="M 607.325 32.894203 
L 611.567641 28.651563 
L 607.325 24.408922 
L 603.082359 28.651563 
z
" style="fill: #440154; stroke: #440154"/>
   </g>
   <g id="text_22">
    <!-- Stock Open Price -->
    <g transform="translate(625.325 31.276563) scale(0.1 -0.1)">
     <defs>
      <path id="DejaVuSans-4f" d="M 2522 4238 
Q 1834 4238 1429 3725 
Q 1025 3213 1025 2328 
Q 1025 1447 1429 934 
Q 1834 422 2522 422 
Q 3209 422 3611 934 
Q 4013 1447 4013 2328 
Q 4013 3213 3611 3725 
Q 3209 4238 2522 4238 
z
M 2522 4750 
Q 3503 4750 4090 4092 
Q 4678 3434 4678 2328 
Q 4678 1225 4090 567 
Q 3503 -91 2522 -91 
Q 1538 -91 948 565 
Q 359 1222 359 2328 
Q 359 3434 948 4092 
Q 1538 4750 2522 4750 
z
" transform="scale(0.015625)"/>
      <path id="DejaVuSans-70" d="M 1159 525 
L 1159 -1331 
L 581 -1331 
L 581 3500 
L 1159 3500 
L 1159 2969 
Q 1341 3281 1617 3432 
Q 1894 3584 2278 3584 
Q 2916 3584 3314 3078 
Q 3713 2572 3713 1747 
Q 3713 922 3314 415 
Q 2916 -91 2278 -91 
Q 1894 -91 1617 61 
Q 1341 213 1159 525 
z
M 3116 1747 
Q 3116 2381 2855 2742 
Q 2594 3103 2138 3103 
Q 1681 3103 1420 2742 
Q 1159 2381 1159 1747 
Q 1159 1113 1420 752 
Q 1681 391 2138 391 
Q 2594 391 2855 752 
Q 3116 1113 3116 1747 
z
" transform="scale(0.015625)"/>
     </defs>
     <use xlink:href="#DejaVuSans-53"/>
     <use xlink:href="#DejaVuSans-74" x="63.476562"/>
     <use xlink:href="#DejaVuSans-6f" x="102.685547"/>
     <use xlink:href="#DejaVuSans-63" x="163.867188"/>
     <use xlink:href="#DejaVuSans-6b" x="218.847656"/>
     <use xlink:href="#DejaVuSans-20" x="276.757812"/>
     <use xlink:href="#DejaVuSans-4f" x="308.544922"/>
     <use xlink:href="#DejaVuSans-70" x="387.255859"/>
     <use xlink:href="#DejaVuSans-65" x="450.732422"/>
     <use xlink:href="#DejaVuSans-6e" x="512.255859"/>
     <use xlink:href="#DejaVuSans-20" x="575.634766"/>
     <use xlink:href="#DejaVuSans-50" x="607.421875"/>
     <use xlink:href="#DejaVuSans-72" x="665.974609"/>
     <use xlink:href="#DejaVuSans-69" x="707.087891"/>
     <use xlink:href="#DejaVuSans-63" x="734.871094"/>
     <use xlink:href="#DejaVuSans-65" x="789.851562"/>
    </g>
   </g>
   <g id="PathCollection_6">
    <path d="M 607.325 46.329688 
C 608.120609 46.329688 608.88374 46.013589 609.44632 45.451008 
C 610.008901 44.888427 610.325 44.125297 610.325 43.329688 
C 610.325 42.534078 610.008901 41.770948 609.44632 41.208367 
C 608.88374 40.645786 608.120609 40.329688 607.325 40.329688 
C 606.529391 40.329688 605.76626 40.645786 605.20368 41.208367 
C 604.641099 41.770948 604.325 42.534078 604.325 43.329688 
C 604.325 44.125297 604.641099 44.888427 605.20368 45.451008 
C 605.76626 46.013589 606.529391 46.329688 607.325 46.329688 
z
" style="fill: #277e8e; stroke: #277e8e"/>
   </g>
   <g id="text_23">
    <!-- Stock Close Price -->
    <g transform="translate(625.325 45.954688) scale(0.1 -0.1)">
     <defs>
      <path id="DejaVuSans-43" d="M 4122 4306 
L 4122 3641 
Q 3803 3938 3442 4084 
Q 3081 4231 2675 4231 
Q 1875 4231 1450 3742 
Q 1025 3253 1025 2328 
Q 1025 1406 1450 917 
Q 1875 428 2675 428 
Q 3081 428 3442 575 
Q 3803 722 4122 1019 
L 4122 359 
Q 3791 134 3420 21 
Q 3050 -91 2638 -91 
Q 1578 -91 968 557 
Q 359 1206 359 2328 
Q 359 3453 968 4101 
Q 1578 4750 2638 4750 
Q 3056 4750 3426 4639 
Q 3797 4528 4122 4306 
z
" transform="scale(0.015625)"/>
      <path id="DejaVuSans-6c" d="M 603 4863 
L 1178 4863 
L 1178 0 
L 603 0 
L 603 4863 
z
" transform="scale(0.015625)"/>
      <path id="DejaVuSans-73" d="M 2834 3397 
L 2834 2853 
Q 2591 2978 2328 3040 
Q 2066 3103 1784 3103 
Q 1356 3103 1142 2972 
Q 928 2841 928 2578 
Q 928 2378 1081 2264 
Q 1234 2150 1697 2047 
L 1894 2003 
Q 2506 1872 2764 1633 
Q 3022 1394 3022 966 
Q 3022 478 2636 193 
Q 2250 -91 1575 -91 
Q 1294 -91 989 -36 
Q 684 19 347 128 
L 347 722 
Q 666 556 975 473 
Q 1284 391 1588 391 
Q 1994 391 2212 530 
Q 2431 669 2431 922 
Q 2431 1156 2273 1281 
Q 2116 1406 1581 1522 
L 1381 1569 
Q 847 1681 609 1914 
Q 372 2147 372 2553 
Q 372 3047 722 3315 
Q 1072 3584 1716 3584 
Q 2034 3584 2315 3537 
Q 2597 3491 2834 3397 
z
" transform="scale(0.015625)"/>
     </defs>
     <use xlink:href="#DejaVuSans-53"/>
     <use xlink:href="#DejaVuSans-74" x="63.476562"/>
     <use xlink:href="#DejaVuSans-6f" x="102.685547"/>
     <use xlink:href="#DejaVuSans-63" x="163.867188"/>
     <use xlink:href="#DejaVuSans-6b" x="218.847656"/>
     <use xlink:href="#DejaVuSans-20" x="276.757812"/>
     <use xlink:href="#DejaVuSans-43" x="308.544922"/>
     <use xlink:href="#DejaVuSans-6c" x="378.369141"/>
     <use xlink:href="#DejaVuSans-6f" x="406.152344"/>
     <use xlink:href="#DejaVuSans-73" x="467.333984"/>
     <use xlink:href="#DejaVuSans-65" x="519.433594"/>
     <use xlink:href="#DejaVuSans-20" x="580.957031"/>
     <use xlink:href="#DejaVuSans-50" x="612.744141"/>
     <use xlink:href="#DejaVuSans-72" x="671.296875"/>
     <use xlink:href="#DejaVuSans-69" x="712.410156"/>
     <use xlink:href="#DejaVuSans-63" x="740.193359"/>
     <use xlink:href="#DejaVuSans-65" x="795.173828"/>
    </g>
   </g>
   <g id="PathCollection_7">
    <path d="M 604.325 58.007812 
L 610.325 58.007812 
M 607.325 61.007812 
L 607.325 55.007812 
" style="fill: #440154; stroke: #440154; stroke-width: 1.5"/>
   </g>
   <g id="text_24">
    <!-- Stock High Price -->
    <g transform="translate(625.325 60.632812) scale(0.1 -0.1)">
     <defs>
      <path id="DejaVuSans-48" d="M 628 4666 
L 1259 4666 
L 1259 2753 
L 3553 2753 
L 3553 4666 
L 4184 4666 
L 4184 0 
L 3553 0 
L 3553 2222 
L 1259 2222 
L 1259 0 
L 628 0 
L 628 4666 
z
" transform="scale(0.015625)"/>
      <path id="DejaVuSans-67" d="M 2906 1791 
Q 2906 2416 2648 2759 
Q 2391 3103 1925 3103 
Q 1463 3103 1205 2759 
Q 947 2416 947 1791 
Q 947 1169 1205 825 
Q 1463 481 1925 481 
Q 2391 481 2648 825 
Q 2906 1169 2906 1791 
z
M 3481 434 
Q 3481 -459 3084 -895 
Q 2688 -1331 1869 -1331 
Q 1566 -1331 1297 -1286 
Q 1028 -1241 775 -1147 
L 775 -588 
Q 1028 -725 1275 -790 
Q 1522 -856 1778 -856 
Q 2344 -856 2625 -561 
Q 2906 -266 2906 331 
L 2906 616 
Q 2728 306 2450 153 
Q 2172 0 1784 0 
Q 1141 0 747 490 
Q 353 981 353 1791 
Q 353 2603 747 3093 
Q 1141 3584 1784 3584 
Q 2172 3584 2450 3431 
Q 2728 3278 2906 2969 
L 2906 3500 
L 3481 3500 
L 3481 434 
z
" transform="scale(0.015625)"/>
      <path id="DejaVuSans-68" d="M 3513 2113 
L 3513 0 
L 2938 0 
L 2938 2094 
Q 2938 2591 2744 2837 
Q 2550 3084 2163 3084 
Q 1697 3084 1428 2787 
Q 1159 2491 1159 1978 
L 1159 0 
L 581 0 
L 581 4863 
L 1159 4863 
L 1159 2956 
Q 1366 3272 1645 3428 
Q 1925 3584 2291 3584 
Q 2894 3584 3203 3211 
Q 3513 2838 3513 2113 
z
" transform="scale(0.015625)"/>
     </defs>
     <use xlink:href="#DejaVuSans-53"/>
     <use xlink:href="#DejaVuSans-74" x="63.476562"/>
     <use xlink:href="#DejaVuSans-6f" x="102.685547"/>
     <use xlink:href="#DejaVuSans-63" x="163.867188"/>
     <use xlink:href="#DejaVuSans-6b" x="218.847656"/>
     <use xlink:href="#DejaVuSans-20" x="276.757812"/>
     <use xlink:href="#DejaVuSans-48" x="308.544922"/>
     <use xlink:href="#DejaVuSans-69" x="383.740234"/>
     <use xlink:href="#DejaVuSans-67" x="411.523438"/>
     <use xlink:href="#DejaVuSans-68" x="475"/>
     <use xlink:href="#DejaVuSans-20" x="538.378906"/>
     <use xlink:href="#DejaVuSans-50" x="570.166016"/>
     <use xlink:href="#DejaVuSans-72" x="628.71875"/>
     <use xlink:href="#DejaVuSans-69" x="669.832031"/>
     <use xlink:href="#DejaVuSans-63" x="697.615234"/>
     <use xlink:href="#DejaVuSans-65" x="752.595703"/>
    </g>
   </g>
   <g id="PathCollection_8">
    <path d="M 607.325 69.685938 
L 606.651458 71.758887 
L 604.47183 71.758887 
L 606.235186 73.040039 
L 605.561644 75.112988 
L 607.325 73.831836 
L 609.088356 75.112988 
L 608.414814 73.040039 
L 610.17817 71.758887 
L 607.998542 71.758887 
z
" style="fill: #440154; stroke: #440154"/>
   </g>
   <g id="text_25">
    <!-- Stock Low Price -->
    <g transform="translate(625.325 75.310938) scale(0.1 -0.1)">
     <defs>
      <path id="DejaVuSans-4c" d="M 628 4666 
L 1259 4666 
L 1259 531 
L 3531 531 
L 3531 0 
L 628 0 
L 628 4666 
z
" transform="scale(0.015625)"/>
      <path id="DejaVuSans-77" d="M 269 3500 
L 844 3500 
L 1563 769 
L 2278 3500 
L 2956 3500 
L 3675 769 
L 4391 3500 
L 4966 3500 
L 4050 0 
L 3372 0 
L 2619 2869 
L 1863 0 
L 1184 0 
L 269 3500 
z
" transform="scale(0.015625)"/>
     </defs>
     <use xlink:href="#DejaVuSans-53"/>
     <use xlink:href="#DejaVuSans-74" x="63.476562"/>
     <use xlink:href="#DejaVuSans-6f" x="102.685547"/>
     <use xlink:href="#DejaVuSans-63" x="163.867188"/>
     <use xlink:href="#DejaVuSans-6b" x="218.847656"/>
     <use xlink:href="#DejaVuSans-20" x="276.757812"/>
     <use xlink:href="#DejaVuSans-4c" x="308.544922"/>
     <use xlink:href="#DejaVuSans-6f" x="362.507812"/>
     <use xlink:href="#DejaVuSans-77" x="423.689453"/>
     <use xlink:href="#DejaVuSans-20" x="505.476562"/>
     <use xlink:href="#DejaVuSans-50" x="537.263672"/>
     <use xlink:href="#DejaVuSans-72" x="595.816406"/>
     <use xlink:href="#DejaVuSans-69" x="636.929688"/>
     <use xlink:href="#DejaVuSans-63" x="664.712891"/>
     <use xlink:href="#DejaVuSans-65" x="719.693359"/>
    </g>
   </g>
  </g>
 </g>
 <defs>
  <clipPath id="p5395d0c537">
   <rect x="90" y="69.12" width="558" height="443.52"/>
  </clipPath>
 </defs>
</svg>
