<?xml version="1.0" encoding="utf-8" standalone="no"?>
<!DOCTYPE svg PUBLIC "-//W3C//DTD SVG 1.1//EN"
  "http://www.w3.org/Graphics/SVG/1.1/DTD/svg11.dtd">
<svg xmlns:xlink="http://www.w3.org/1999/xlink" width="460.8pt" height="345.6pt" viewBox="0 0 460.8 345.6" xmlns="http://www.w3.org/2000/svg" version="1.1">
 <metadata>
  <rdf:RDF xmlns:dc="http://purl.org/dc/elements/1.1/" xmlns:cc="http://creativecommons.org/ns#" xmlns:rdf="http://www.w3.org/1999/02/22-rdf-syntax-ns#">
   <cc:Work>
    <dc:type rdf:resource="http://purl.org/dc/dcmitype/StillImage"/>
    <dc:date>2023-04-21T19:07:54.482153</dc:date>
    <dc:format>image/svg+xml</dc:format>
    <dc:creator>
     <cc:Agent>
      <dc:title>Matplotlib v3.5.2, https://matplotlib.org/</dc:title>
     </cc:Agent>
    </dc:creator>
   </cc:Work>
  </rdf:RDF>
 </metadata>
 <defs>
  <style type="text/css">*{stroke-linejoin: round; stroke-linecap: butt}</style>
 </defs>
 <g id="figure_1">
  <g id="patch_1">
   <path d="M 0 345.6 
L 460.8 345.6 
L 460.8 0 
L 0 0 
z
" style="fill: #ffffff"/>
  </g>
  <g id="axes_1">
   <g id="patch_2">
    <path d="M 57.6 139.392 
L 414.72 139.392 
L 414.72 41.472 
L 57.6 41.472 
z
" style="fill: #ffffff"/>
   </g>
   <g id="matplotlib.axis_1">
    <g id="xtick_1">
     <g id="line2d_1">
      <defs>
       <path id="m0db916813a" d="M 0 0 
L 0 3.5 
" style="stroke: #000000; stroke-width: 0.8"/>
      </defs>
      <g>
       <use xlink:href="#m0db916813a" x="80.596364" y="139.392" style="stroke: #000000; stroke-width: 0.8"/>
      </g>
     </g>
     <g id="text_1">
      <!-- 2022-12 -->
      <g transform="translate(43.371543 173.863846)rotate(-30)scale(0.1 -0.1)">
       <defs>
        <path id="DejaVuSans-32" d="M 1228 531 
L 3431 531 
L 3431 0 
L 469 0 
L 469 531 
Q 828 903 1448 1529 
Q 2069 2156 2228 2338 
Q 2531 2678 2651 2914 
Q 2772 3150 2772 3378 
Q 2772 3750 2511 3984 
Q 2250 4219 1831 4219 
Q 1534 4219 1204 4116 
Q 875 4013 500 3803 
L 500 4441 
Q 881 4594 1212 4672 
Q 1544 4750 1819 4750 
Q 2544 4750 2975 4387 
Q 3406 4025 3406 3419 
Q 3406 3131 3298 2873 
Q 3191 2616 2906 2266 
Q 2828 2175 2409 1742 
Q 1991 1309 1228 531 
z
" transform="scale(0.015625)"/>
        <path id="DejaVuSans-30" d="M 2034 4250 
Q 1547 4250 1301 3770 
Q 1056 3291 1056 2328 
Q 1056 1369 1301 889 
Q 1547 409 2034 409 
Q 2525 409 2770 889 
Q 3016 1369 3016 2328 
Q 3016 3291 2770 3770 
Q 2525 4250 2034 4250 
z
M 2034 4750 
Q 2819 4750 3233 4129 
Q 3647 3509 3647 2328 
Q 3647 1150 3233 529 
Q 2819 -91 2034 -91 
Q 1250 -91 836 529 
Q 422 1150 422 2328 
Q 422 3509 836 4129 
Q 1250 4750 2034 4750 
z
" transform="scale(0.015625)"/>
        <path id="DejaVuSans-2d" d="M 313 2009 
L 1997 2009 
L 1997 1497 
L 313 1497 
L 313 2009 
z
" transform="scale(0.015625)"/>
        <path id="DejaVuSans-31" d="M 794 531 
L 1825 531 
L 1825 4091 
L 703 3866 
L 703 4441 
L 1819 4666 
L 2450 4666 
L 2450 531 
L 3481 531 
L 3481 0 
L 794 0 
L 794 531 
z
" transform="scale(0.015625)"/>
       </defs>
       <use xlink:href="#DejaVuSans-32"/>
       <use xlink:href="#DejaVuSans-30" x="63.623047"/>
       <use xlink:href="#DejaVuSans-32" x="127.246094"/>
       <use xlink:href="#DejaVuSans-32" x="190.869141"/>
       <use xlink:href="#DejaVuSans-2d" x="254.492188"/>
       <use xlink:href="#DejaVuSans-31" x="290.576172"/>
       <use xlink:href="#DejaVuSans-32" x="354.199219"/>
      </g>
     </g>
    </g>
    <g id="xtick_2">
     <g id="line2d_2">
      <g>
       <use xlink:href="#m0db916813a" x="150.487273" y="139.392" style="stroke: #000000; stroke-width: 0.8"/>
      </g>
     </g>
     <g id="text_2">
      <!-- 2023-01 -->
      <g transform="translate(113.262452 173.863846)rotate(-30)scale(0.1 -0.1)">
       <defs>
        <path id="DejaVuSans-33" d="M 2597 2516 
Q 3050 2419 3304 2112 
Q 3559 1806 3559 1356 
Q 3559 666 3084 287 
Q 2609 -91 1734 -91 
Q 1441 -91 1130 -33 
Q 819 25 488 141 
L 488 750 
Q 750 597 1062 519 
Q 1375 441 1716 441 
Q 2309 441 2620 675 
Q 2931 909 2931 1356 
Q 2931 1769 2642 2001 
Q 2353 2234 1838 2234 
L 1294 2234 
L 1294 2753 
L 1863 2753 
Q 2328 2753 2575 2939 
Q 2822 3125 2822 3475 
Q 2822 3834 2567 4026 
Q 2313 4219 1838 4219 
Q 1578 4219 1281 4162 
Q 984 4106 628 3988 
L 628 4550 
Q 988 4650 1302 4700 
Q 1616 4750 1894 4750 
Q 2613 4750 3031 4423 
Q 3450 4097 3450 3541 
Q 3450 3153 3228 2886 
Q 3006 2619 2597 2516 
z
" transform="scale(0.015625)"/>
       </defs>
       <use xlink:href="#DejaVuSans-32"/>
       <use xlink:href="#DejaVuSans-30" x="63.623047"/>
       <use xlink:href="#DejaVuSans-32" x="127.246094"/>
       <use xlink:href="#DejaVuSans-33" x="190.869141"/>
       <use xlink:href="#DejaVuSans-2d" x="254.492188"/>
       <use xlink:href="#DejaVuSans-30" x="290.576172"/>
       <use xlink:href="#DejaVuSans-31" x="354.199219"/>
      </g>
     </g>
    </g>
    <g id="xtick_3">
     <g id="line2d_3">
      <g>
       <use xlink:href="#m0db916813a" x="220.378182" y="139.392" style="stroke: #000000; stroke-width: 0.8"/>
      </g>
     </g>
     <g id="text_3">
      <!-- 2023-02 -->
      <g transform="translate(183.153361 173.863846)rotate(-30)scale(0.1 -0.1)">
       <use xlink:href="#DejaVuSans-32"/>
       <use xlink:href="#DejaVuSans-30" x="63.623047"/>
       <use xlink:href="#DejaVuSans-32" x="127.246094"/>
       <use xlink:href="#DejaVuSans-33" x="190.869141"/>
       <use xlink:href="#DejaVuSans-2d" x="254.492188"/>
       <use xlink:href="#DejaVuSans-30" x="290.576172"/>
       <use xlink:href="#DejaVuSans-32" x="354.199219"/>
      </g>
     </g>
    </g>
    <g id="xtick_4">
     <g id="line2d_4">
      <g>
       <use xlink:href="#m0db916813a" x="283.505455" y="139.392" style="stroke: #000000; stroke-width: 0.8"/>
      </g>
     </g>
     <g id="text_4">
      <!-- 2023-03 -->
      <g transform="translate(246.280634 173.863846)rotate(-30)scale(0.1 -0.1)">
       <use xlink:href="#DejaVuSans-32"/>
       <use xlink:href="#DejaVuSans-30" x="63.623047"/>
       <use xlink:href="#DejaVuSans-32" x="127.246094"/>
       <use xlink:href="#DejaVuSans-33" x="190.869141"/>
       <use xlink:href="#DejaVuSans-2d" x="254.492188"/>
       <use xlink:href="#DejaVuSans-30" x="290.576172"/>
       <use xlink:href="#DejaVuSans-33" x="354.199219"/>
      </g>
     </g>
    </g>
    <g id="xtick_5">
     <g id="line2d_5">
      <g>
       <use xlink:href="#m0db916813a" x="353.396364" y="139.392" style="stroke: #000000; stroke-width: 0.8"/>
      </g>
     </g>
     <g id="text_5">
      <!-- 2023-04 -->
      <g transform="translate(316.171543 173.863846)rotate(-30)scale(0.1 -0.1)">
       <defs>
        <path id="DejaVuSans-34" d="M 2419 4116 
L 825 1625 
L 2419 1625 
L 2419 4116 
z
M 2253 4666 
L 3047 4666 
L 3047 1625 
L 3713 1625 
L 3713 1100 
L 3047 1100 
L 3047 0 
L 2419 0 
L 2419 1100 
L 313 1100 
L 313 1709 
L 2253 4666 
z
" transform="scale(0.015625)"/>
       </defs>
       <use xlink:href="#DejaVuSans-32"/>
       <use xlink:href="#DejaVuSans-30" x="63.623047"/>
       <use xlink:href="#DejaVuSans-32" x="127.246094"/>
       <use xlink:href="#DejaVuSans-33" x="190.869141"/>
       <use xlink:href="#DejaVuSans-2d" x="254.492188"/>
       <use xlink:href="#DejaVuSans-30" x="290.576172"/>
       <use xlink:href="#DejaVuSans-34" x="354.199219"/>
      </g>
     </g>
    </g>
    <g id="text_6">
     <!-- Date -->
     <g transform="translate(224.209219 187.263346)scale(0.1 -0.1)">
      <defs>
       <path id="DejaVuSans-44" d="M 1259 4147 
L 1259 519 
L 2022 519 
Q 2988 519 3436 956 
Q 3884 1394 3884 2338 
Q 3884 3275 3436 3711 
Q 2988 4147 2022 4147 
L 1259 4147 
z
M 628 4666 
L 1925 4666 
Q 3281 4666 3915 4102 
Q 4550 3538 4550 2338 
Q 4550 1131 3912 565 
Q 3275 0 1925 0 
L 628 0 
L 628 4666 
z
" transform="scale(0.015625)"/>
       <path id="DejaVuSans-61" d="M 2194 1759 
Q 1497 1759 1228 1600 
Q 959 1441 959 1056 
Q 959 750 1161 570 
Q 1363 391 1709 391 
Q 2188 391 2477 730 
Q 2766 1069 2766 1631 
L 2766 1759 
L 2194 1759 
z
M 3341 1997 
L 3341 0 
L 2766 0 
L 2766 531 
Q 2569 213 2275 61 
Q 1981 -91 1556 -91 
Q 1019 -91 701 211 
Q 384 513 384 1019 
Q 384 1609 779 1909 
Q 1175 2209 1959 2209 
L 2766 2209 
L 2766 2266 
Q 2766 2663 2505 2880 
Q 2244 3097 1772 3097 
Q 1472 3097 1187 3025 
Q 903 2953 641 2809 
L 641 3341 
Q 956 3463 1253 3523 
Q 1550 3584 1831 3584 
Q 2591 3584 2966 3190 
Q 3341 2797 3341 1997 
z
" transform="scale(0.015625)"/>
       <path id="DejaVuSans-74" d="M 1172 4494 
L 1172 3500 
L 2356 3500 
L 2356 3053 
L 1172 3053 
L 1172 1153 
Q 1172 725 1289 603 
Q 1406 481 1766 481 
L 2356 481 
L 2356 0 
L 1766 0 
Q 1100 0 847 248 
Q 594 497 594 1153 
L 594 3053 
L 172 3053 
L 172 3500 
L 594 3500 
L 594 4494 
L 1172 4494 
z
" transform="scale(0.015625)"/>
       <path id="DejaVuSans-65" d="M 3597 1894 
L 3597 1613 
L 953 1613 
Q 991 1019 1311 708 
Q 1631 397 2203 397 
Q 2534 397 2845 478 
Q 3156 559 3463 722 
L 3463 178 
Q 3153 47 2828 -22 
Q 2503 -91 2169 -91 
Q 1331 -91 842 396 
Q 353 884 353 1716 
Q 353 2575 817 3079 
Q 1281 3584 2069 3584 
Q 2775 3584 3186 3129 
Q 3597 2675 3597 1894 
z
M 3022 2063 
Q 3016 2534 2758 2815 
Q 2500 3097 2075 3097 
Q 1594 3097 1305 2825 
Q 1016 2553 972 2059 
L 3022 2063 
z
" transform="scale(0.015625)"/>
      </defs>
      <use xlink:href="#DejaVuSans-44"/>
      <use xlink:href="#DejaVuSans-61" x="77.001953"/>
      <use xlink:href="#DejaVuSans-74" x="138.28125"/>
      <use xlink:href="#DejaVuSans-65" x="177.490234"/>
     </g>
    </g>
   </g>
   <g id="matplotlib.axis_2">
    <g id="ytick_1">
     <g id="line2d_6">
      <defs>
       <path id="m2c151ca6c8" d="M 0 0 
L -3.5 0 
" style="stroke: #000000; stroke-width: 0.8"/>
      </defs>
      <g>
       <use xlink:href="#m2c151ca6c8" x="57.6" y="127.618569" style="stroke: #000000; stroke-width: 0.8"/>
      </g>
     </g>
     <g id="text_7">
      <!-- 100 -->
      <g transform="translate(31.5125 131.417787)scale(0.1 -0.1)">
       <use xlink:href="#DejaVuSans-31"/>
       <use xlink:href="#DejaVuSans-30" x="63.623047"/>
       <use xlink:href="#DejaVuSans-30" x="127.246094"/>
      </g>
     </g>
    </g>
    <g id="ytick_2">
     <g id="line2d_7">
      <g>
       <use xlink:href="#m2c151ca6c8" x="57.6" y="87.340668" style="stroke: #000000; stroke-width: 0.8"/>
      </g>
     </g>
     <g id="text_8">
      <!-- 200 -->
      <g transform="translate(31.5125 91.139887)scale(0.1 -0.1)">
       <use xlink:href="#DejaVuSans-32"/>
       <use xlink:href="#DejaVuSans-30" x="63.623047"/>
       <use xlink:href="#DejaVuSans-30" x="127.246094"/>
      </g>
     </g>
    </g>
    <g id="ytick_3">
     <g id="line2d_8">
      <g>
       <use xlink:href="#m2c151ca6c8" x="57.6" y="47.062768" style="stroke: #000000; stroke-width: 0.8"/>
      </g>
     </g>
     <g id="text_9">
      <!-- 300 -->
      <g transform="translate(31.5125 50.861987)scale(0.1 -0.1)">
       <use xlink:href="#DejaVuSans-33"/>
       <use xlink:href="#DejaVuSans-30" x="63.623047"/>
       <use xlink:href="#DejaVuSans-30" x="127.246094"/>
      </g>
     </g>
    </g>
    <g id="text_10">
     <!-- Stock Price -->
     <g transform="translate(25.432812 118.057)rotate(-90)scale(0.1 -0.1)">
      <defs>
       <path id="DejaVuSans-53" d="M 3425 4513 
L 3425 3897 
Q 3066 4069 2747 4153 
Q 2428 4238 2131 4238 
Q 1616 4238 1336 4038 
Q 1056 3838 1056 3469 
Q 1056 3159 1242 3001 
Q 1428 2844 1947 2747 
L 2328 2669 
Q 3034 2534 3370 2195 
Q 3706 1856 3706 1288 
Q 3706 609 3251 259 
Q 2797 -91 1919 -91 
Q 1588 -91 1214 -16 
Q 841 59 441 206 
L 441 856 
Q 825 641 1194 531 
Q 1563 422 1919 422 
Q 2459 422 2753 634 
Q 3047 847 3047 1241 
Q 3047 1584 2836 1778 
Q 2625 1972 2144 2069 
L 1759 2144 
Q 1053 2284 737 2584 
Q 422 2884 422 3419 
Q 422 4038 858 4394 
Q 1294 4750 2059 4750 
Q 2388 4750 2728 4690 
Q 3069 4631 3425 4513 
z
" transform="scale(0.015625)"/>
       <path id="DejaVuSans-6f" d="M 1959 3097 
Q 1497 3097 1228 2736 
Q 959 2375 959 1747 
Q 959 1119 1226 758 
Q 1494 397 1959 397 
Q 2419 397 2687 759 
Q 2956 1122 2956 1747 
Q 2956 2369 2687 2733 
Q 2419 3097 1959 3097 
z
M 1959 3584 
Q 2709 3584 3137 3096 
Q 3566 2609 3566 1747 
Q 3566 888 3137 398 
Q 2709 -91 1959 -91 
Q 1206 -91 779 398 
Q 353 888 353 1747 
Q 353 2609 779 3096 
Q 1206 3584 1959 3584 
z
" transform="scale(0.015625)"/>
       <path id="DejaVuSans-63" d="M 3122 3366 
L 3122 2828 
Q 2878 2963 2633 3030 
Q 2388 3097 2138 3097 
Q 1578 3097 1268 2742 
Q 959 2388 959 1747 
Q 959 1106 1268 751 
Q 1578 397 2138 397 
Q 2388 397 2633 464 
Q 2878 531 3122 666 
L 3122 134 
Q 2881 22 2623 -34 
Q 2366 -91 2075 -91 
Q 1284 -91 818 406 
Q 353 903 353 1747 
Q 353 2603 823 3093 
Q 1294 3584 2113 3584 
Q 2378 3584 2631 3529 
Q 2884 3475 3122 3366 
z
" transform="scale(0.015625)"/>
       <path id="DejaVuSans-6b" d="M 581 4863 
L 1159 4863 
L 1159 1991 
L 2875 3500 
L 3609 3500 
L 1753 1863 
L 3688 0 
L 2938 0 
L 1159 1709 
L 1159 0 
L 581 0 
L 581 4863 
z
" transform="scale(0.015625)"/>
       <path id="DejaVuSans-20" transform="scale(0.015625)"/>
       <path id="DejaVuSans-50" d="M 1259 4147 
L 1259 2394 
L 2053 2394 
Q 2494 2394 2734 2622 
Q 2975 2850 2975 3272 
Q 2975 3691 2734 3919 
Q 2494 4147 2053 4147 
L 1259 4147 
z
M 628 4666 
L 2053 4666 
Q 2838 4666 3239 4311 
Q 3641 3956 3641 3272 
Q 3641 2581 3239 2228 
Q 2838 1875 2053 1875 
L 1259 1875 
L 1259 0 
L 628 0 
L 628 4666 
z
" transform="scale(0.015625)"/>
       <path id="DejaVuSans-72" d="M 2631 2963 
Q 2534 3019 2420 3045 
Q 2306 3072 2169 3072 
Q 1681 3072 1420 2755 
Q 1159 2438 1159 1844 
L 1159 0 
L 581 0 
L 581 3500 
L 1159 3500 
L 1159 2956 
Q 1341 3275 1631 3429 
Q 1922 3584 2338 3584 
Q 2397 3584 2469 3576 
Q 2541 3569 2628 3553 
L 2631 2963 
z
" transform="scale(0.015625)"/>
       <path id="DejaVuSans-69" d="M 603 3500 
L 1178 3500 
L 1178 0 
L 603 0 
L 603 3500 
z
M 603 4863 
L 1178 4863 
L 1178 4134 
L 603 4134 
L 603 4863 
z
" transform="scale(0.015625)"/>
      </defs>
      <use xlink:href="#DejaVuSans-53"/>
      <use xlink:href="#DejaVuSans-74" x="63.476562"/>
      <use xlink:href="#DejaVuSans-6f" x="102.685547"/>
      <use xlink:href="#DejaVuSans-63" x="163.867188"/>
      <use xlink:href="#DejaVuSans-6b" x="218.847656"/>
      <use xlink:href="#DejaVuSans-20" x="276.757812"/>
      <use xlink:href="#DejaVuSans-50" x="308.544922"/>
      <use xlink:href="#DejaVuSans-72" x="367.097656"/>
      <use xlink:href="#DejaVuSans-69" x="408.210938"/>
      <use xlink:href="#DejaVuSans-63" x="435.994141"/>
      <use xlink:href="#DejaVuSans-65" x="490.974609"/>
     </g>
    </g>
   </g>
   <g id="line2d_9">
    <path d="M 73.832727 117.694094 
L 76.087273 117.093954 
L 78.341818 117.158397 
L 80.596364 117.150343 
L 82.850909 116.747564 
L 89.614545 117.698123 
L 91.869091 117.71826 
L 94.123636 117.005342 
L 96.378182 117.146315 
L 98.632727 117.242981 
L 105.396364 116.803953 
L 107.650909 116.626729 
L 109.905455 117.110066 
L 112.16 118.604376 
L 114.414545 118.882291 
L 121.178182 118.70507 
L 123.432727 119.236739 
L 125.687273 118.169374 
L 127.941818 118.922571 
L 130.196364 119.5066 
L 139.214545 119.474377 
L 141.469091 120.25174 
L 143.723636 119.333405 
L 145.978182 119.595212 
L 154.996364 118.568124 
L 157.250909 117.488676 
L 159.505455 118.370763 
L 161.76 116.856313 
L 168.523636 116.828119 
L 170.778182 116.288393 
L 173.032727 115.889646 
L 175.287273 115.797002 
L 177.541818 115.732562 
L 186.56 116.904648 
L 188.814545 118.455346 
L 191.069091 120.195351 
L 193.323636 119.301182 
L 200.087273 118.507706 
L 202.341818 121.576884 
L 204.596364 122.410636 
L 206.850909 122.160912 
L 209.105455 121.476189 
L 215.869091 122.551608 
L 218.123636 121.54466 
L 220.378182 121.230493 
L 222.632727 119.446182 
L 224.887273 120.573965 
L 231.650909 120.972715 
L 233.905455 120.811603 
L 236.16 121.476189 
L 238.414545 122.410636 
L 240.669091 122.027997 
L 247.432727 121.464106 
L 249.687273 121.895079 
L 251.941818 121.661467 
L 254.196364 122.785221 
L 256.450909 122.38647 
L 265.469091 123.892863 
L 267.723636 124.017723 
L 269.978182 124.029806 
L 272.232727 124.476891 
L 278.996364 124.287588 
L 281.250909 124.50106 
L 283.505455 123.506195 
L 285.76 123.631056 
L 288.014545 123.083276 
L 294.778182 123.618973 
L 297.032727 124.762867 
L 299.287273 124.734669 
L 301.541818 125.39523 
L 303.796364 125.983287 
L 310.56 126.208842 
L 312.814545 126.498843 
L 315.069091 126.498843 
L 317.323636 125.922869 
L 319.578182 126.402177 
L 326.341818 125.882592 
L 328.596364 125.890646 
L 330.850909 126.998289 
L 333.105455 127.21579 
L 335.36 127.159401 
L 342.123636 127.018429 
L 344.378182 126.917734 
L 346.632727 126.333703 
L 348.887273 126.498843 
L 351.141818 125.560368 
L 357.905455 125.777869 
L 360.16 126.712316 
L 362.414545 126.696204 
L 364.669091 126.990234 
L 373.687273 126.506898 
L 375.941818 125.781897 
L 378.196364 125.858423 
L 380.450909 125.141477 
L 382.705455 125.294535 
L 389.469091 124.887727 
L 391.723636 125.093146 
L 393.978182 125.169671 
L 396.232727 125.713423 
L 398.487273 125.814117 
" clip-path="url(#p0d47118091)" style="fill: none; stroke: #1f77b4; stroke-width: 1.5; stroke-linecap: square"/>
   </g>
   <g id="line2d_10">
    <path d="M 73.832727 50.848888 
L 76.087273 51.904167 
L 78.341818 46.688187 
L 80.596364 45.922909 
L 82.850909 47.010405 
L 89.614545 49.986948 
L 91.869091 52.939312 
L 94.123636 52.423756 
L 96.378182 50.224586 
L 98.632727 51.730975 
L 105.396364 50.148057 
L 107.650909 48.935688 
L 109.905455 50.506524 
L 112.16 54.667238 
L 114.414545 61.369474 
L 121.178182 65.026714 
L 123.432727 62.408651 
L 125.687273 59.581134 
L 127.941818 61.256696 
L 130.196364 60.721006 
L 139.214545 61.035173 
L 141.469091 61.91726 
L 143.723636 59.798638 
L 145.978182 60.418921 
L 154.996364 59.041412 
L 157.250909 59.411974 
L 159.505455 61.973642 
L 161.76 59.464337 
L 168.523636 57.635717 
L 170.778182 57.160441 
L 173.032727 54.683352 
L 175.287273 53.571678 
L 177.541818 54.256395 
L 186.56 53.152785 
L 188.814545 55.964187 
L 191.069091 57.982101 
L 193.323636 54.929042 
L 200.087273 55.384184 
L 202.341818 57.184607 
L 204.596364 57.873355 
L 206.850909 57.430296 
L 209.105455 56.217939 
L 215.869091 57.40613 
L 218.123636 55.500993 
L 220.378182 53.668341 
L 222.632727 49.439162 
L 224.887273 51.404725 
L 231.650909 53.313894 
L 233.905455 51.968614 
L 236.16 53.221263 
L 238.414545 53.040007 
L 240.669091 53.523347 
L 247.432727 51.755141 
L 249.687273 53.197097 
L 251.941818 52.037091 
L 254.196364 54.626957 
L 256.450909 56.306551 
L 265.469091 59.488503 
L 267.723636 59.295165 
L 269.978182 58.650716 
L 272.232727 60.543782 
L 278.996364 60.65656 
L 281.250909 60.93851 
L 283.505455 61.727953 
L 285.76 61.055307 
L 288.014545 59.468357 
L 294.778182 59.295165 
L 297.032727 61.482252 
L 299.287273 61.699756 
L 301.541818 63.270591 
L 303.796364 66.013522 
L 310.56 66.674079 
L 312.814545 66.202828 
L 315.069091 68.744363 
L 317.323636 66.025604 
L 319.578182 67.201718 
L 326.341818 66.174631 
L 328.596364 64.132544 
L 330.850909 65.884629 
L 333.105455 58.477524 
L 335.36 58.34058 
L 342.123636 57.551137 
L 344.378182 57.132243 
L 346.632727 55.142514 
L 348.887273 54.046955 
L 351.141818 52.778203 
L 357.905455 52.76612 
L 360.16 52.76612 
L 362.414545 54.582658 
L 364.669091 54.433619 
L 373.687273 54.441683 
L 375.941818 52.568763 
L 378.196364 53.603895 
L 380.450909 52.995707 
L 382.705455 55.420433 
L 389.469091 55.126399 
L 391.723636 55.134463 
L 393.978182 55.158629 
L 396.232727 56.91072 
L 398.487273 56.596553 
" clip-path="url(#p0d47118091)" style="fill: none; stroke: #ff7f0e; stroke-width: 1.5; stroke-linecap: square"/>
   </g>
   <g id="line2d_11">
    <path d="M 73.832727 130.055383 
L 76.087273 130.671634 
L 78.341818 129.012184 
L 80.596364 129.431074 
L 82.850909 129.982882 
L 89.614545 131.239551 
L 91.869091 132.351222 
L 94.123636 132.266639 
L 96.378182 131.505387 
L 98.632727 132.012889 
L 105.396364 131.424829 
L 107.650909 130.64344 
L 109.905455 131.009967 
L 112.16 132.270667 
L 114.414545 132.508305 
L 121.178182 133.692477 
L 123.432727 133.583725 
L 125.687273 132.947336 
L 127.941818 134.147616 
L 130.196364 133.559559 
L 139.214545 134.4497 
L 141.469091 134.941091 
L 143.723636 133.990532 
L 145.978182 134.063033 
L 154.996364 133.329975 
L 157.250909 133.603865 
L 159.505455 134.417477 
L 161.76 133.225252 
L 168.523636 132.709695 
L 170.778182 131.698719 
L 173.032727 129.596215 
L 175.287273 129.523715 
L 177.541818 128.375792 
L 186.56 129.209544 
L 188.814545 129.447186 
L 191.069091 130.164132 
L 193.323636 128.726211 
L 200.087273 128.617462 
L 202.341818 129.100795 
L 204.596364 128.754405 
L 206.850909 127.932736 
L 209.105455 126.716344 
L 215.869091 127.397039 
L 218.123636 126.357871 
L 220.378182 125.544256 
L 222.632727 122.41869 
L 224.887273 126.253148 
L 231.650909 126.74051 
L 233.905455 126.768705 
L 236.16 127.598428 
L 238.414545 128.32746 
L 240.669091 128.58121 
L 247.432727 127.803847 
L 249.687273 127.739403 
L 251.941818 127.151343 
L 254.196364 128.363709 
L 256.450909 128.746351 
L 265.469091 129.80163 
L 267.723636 129.314268 
L 269.978182 129.302185 
L 272.232727 130.236632 
L 278.996364 130.131909 
L 281.250909 129.942602 
L 283.505455 130.772329 
L 285.76 130.78844 
L 288.014545 129.672741 
L 294.778182 130.135937 
L 297.032727 130.216492 
L 299.287273 130.067466 
L 301.541818 130.740106 
L 303.796364 131.352329 
L 310.56 130.667605 
L 312.814545 129.680798 
L 315.069091 129.14913 
L 317.323636 127.602457 
L 319.578182 128.041488 
L 326.341818 128.540933 
L 328.596364 127.372873 
L 330.850909 128.142182 
L 333.105455 128.138154 
L 335.36 128.371766 
L 342.123636 128.408015 
L 344.378182 128.730239 
L 346.632727 127.517874 
L 348.887273 126.813011 
L 351.141818 126.293425 
L 357.905455 126.64787 
L 360.16 126.027593 
L 362.414545 127.175512 
L 364.669091 126.788845 
L 373.687273 126.744539 
L 375.941818 127.650792 
L 378.196364 128.492598 
L 380.450909 126.651898 
L 382.705455 126.607592 
L 389.469091 126.514955 
L 391.723636 126.692176 
L 393.978182 125.886618 
L 396.232727 126.083982 
L 398.487273 124.815227 
" clip-path="url(#p0d47118091)" style="fill: none; stroke: #2ca02c; stroke-width: 1.5; stroke-linecap: square"/>
   </g>
   <g id="line2d_12">
    <path d="M 73.832727 107.580313 
L 76.087273 108.631567 
L 78.341818 106.77073 
L 80.596364 105.864477 
L 82.850909 105.973223 
L 89.614545 106.198784 
L 91.869091 105.594616 
L 94.123636 105.953089 
L 96.378182 105.300583 
L 98.632727 105.006556 
L 105.396364 104.664191 
L 107.650909 103.778078 
L 109.905455 104.116411 
L 112.16 104.893778 
L 114.414545 106.512951 
L 121.178182 106.883507 
L 123.432727 107.374898 
L 125.687273 106.460588 
L 127.941818 106.702258 
L 130.196364 106.263224 
L 139.214545 105.755725 
L 141.469091 106.22295 
L 143.723636 105.554335 
L 145.978182 106.504894 
L 154.996364 105.828222 
L 157.250909 104.591694 
L 159.505455 105.598641 
L 161.76 104.152666 
L 168.523636 104.080163 
L 170.778182 103.141687 
L 173.032727 102.879883 
L 175.287273 103.685441 
L 177.541818 103.906971 
L 186.56 104.563496 
L 188.814545 106.396142 
L 191.069091 107.403089 
L 193.323636 106.859342 
L 200.087273 107.088922 
L 202.341818 105.651005 
L 204.596364 105.260308 
L 206.850909 104.98239 
L 209.105455 104.652108 
L 215.869091 105.465723 
L 218.123636 104.865581 
L 220.378182 104.007665 
L 222.632727 103.210159 
L 224.887273 104.817249 
L 231.650909 104.897804 
L 233.905455 105.276417 
L 236.16 107.2017 
L 238.414545 107.858232 
L 240.669091 107.298369 
L 247.432727 106.790864 
L 249.687273 107.757537 
L 251.941818 107.781703 
L 254.196364 108.502674 
L 256.450909 107.636702 
L 265.469091 108.42212 
L 267.723636 108.816848 
L 269.978182 109.952681 
L 272.232727 110.879074 
L 278.996364 111.59602 
L 281.250909 111.35435 
L 283.505455 112.256578 
L 285.76 112.087411 
L 288.014545 111.628243 
L 294.778182 111.539632 
L 297.032727 112.663382 
L 299.287273 112.216297 
L 301.541818 113.170888 
L 303.796364 114.065058 
L 310.56 112.969498 
L 312.814545 112.445884 
L 315.069091 111.253656 
L 317.323636 110.440047 
L 319.578182 110.778379 
L 326.341818 110.476295 
L 328.596364 111.966576 
L 330.850909 112.965467 
L 333.105455 112.828523 
L 335.36 110.766297 
L 342.123636 110.830743 
L 344.378182 111.016018 
L 346.632727 109.839904 
L 348.887273 109.13504 
L 351.141818 108.893371 
L 357.905455 109.31629 
L 360.16 108.635592 
L 362.414545 107.395032 
L 364.669091 106.722392 
L 373.687273 106.718366 
L 375.941818 106.649895 
L 378.196364 107.149337 
L 380.450909 106.67406 
L 382.705455 107.600453 
L 389.469091 107.544065 
L 391.723636 108.244896 
L 393.978182 107.878372 
L 396.232727 107.632676 
L 398.487273 107.105037 
" clip-path="url(#p0d47118091)" style="fill: none; stroke: #d62728; stroke-width: 1.5; stroke-linecap: square"/>
   </g>
   <g id="line2d_13">
    <path d="M 73.832727 109.807681 
L 76.087273 111.036158 
L 78.341818 108.273094 
L 80.596364 108.160316 
L 82.850909 108.361705 
L 89.614545 108.836982 
L 91.869091 110.33532 
L 94.123636 111.128795 
L 96.378182 110.440047 
L 98.632727 110.637404 
L 105.396364 109.698929 
L 107.650909 109.304207 
L 109.905455 110.214485 
L 112.16 112.917135 
L 114.414545 113.718667 
L 121.178182 114.580614 
L 123.432727 114.608806 
L 125.687273 113.340054 
L 127.941818 114.637003 
L 130.196364 114.786029 
L 139.214545 115.523116 
L 141.469091 117.130203 
L 143.723636 115.692282 
L 145.978182 115.563396 
L 154.996364 117.520899 
L 157.250909 117.001314 
L 159.505455 117.541039 
L 161.76 115.688256 
L 168.523636 115.474784 
L 170.778182 115.241172 
L 173.032727 114.129498 
L 175.287273 114.161721 
L 177.541818 113.617973 
L 186.56 113.14269 
L 188.814545 113.436717 
L 191.069091 113.412551 
L 193.323636 112.36533 
L 200.087273 111.060324 
L 202.341818 110.488378 
L 204.596364 110.758239 
L 206.850909 109.912401 
L 209.105455 109.118932 
L 215.869091 110.299071 
L 218.123636 109.779489 
L 220.378182 109.320321 
L 222.632727 107.149337 
L 224.887273 105.667113 
L 231.650909 106.782813 
L 233.905455 105.606699 
L 236.16 106.706284 
L 238.414545 107.129203 
L 240.669091 107.072814 
L 247.432727 105.928917 
L 249.687273 106.190727 
L 251.941818 105.332806 
L 254.196364 105.985306 
L 256.450909 106.452531 
L 265.469091 108.091844 
L 267.723636 107.918646 
L 269.978182 107.721288 
L 272.232727 108.804759 
L 278.996364 108.3174 
L 281.250909 108.522815 
L 283.505455 109.368653 
L 285.76 109.126983 
L 288.014545 107.064757 
L 294.778182 105.936974 
L 297.032727 106.83517 
L 299.287273 106.323645 
L 301.541818 107.24198 
L 303.796364 108.083787 
L 310.56 107.290312 
L 312.814545 106.436422 
L 315.069091 106.275307 
L 317.323636 105.123359 
L 319.578182 105.465723 
L 326.341818 104.499056 
L 328.596364 103.74183 
L 330.850909 104.325858 
L 333.105455 103.882805 
L 335.36 103.351134 
L 342.123636 104.144609 
L 344.378182 104.398362 
L 346.632727 103.141687 
L 348.887273 102.50127 
L 351.141818 101.478214 
L 357.905455 100.966683 
L 360.16 101.184181 
L 362.414545 101.937382 
L 364.669091 101.574877 
L 373.687273 102.634188 
L 375.941818 103.129604 
L 378.196364 103.411548 
L 380.450909 101.212378 
L 382.705455 101.353347 
L 389.469091 101.345296 
L 391.723636 100.845848 
L 393.978182 100.378623 
L 396.232727 100.773351 
L 398.487273 101.429876 
" clip-path="url(#p0d47118091)" style="fill: none; stroke: #9467bd; stroke-width: 1.5; stroke-linecap: square"/>
   </g>
   <g id="patch_3">
    <path d="M 57.6 139.392 
L 57.6 41.472 
" style="fill: none; stroke: #000000; stroke-width: 0.8; stroke-linejoin: miter; stroke-linecap: square"/>
   </g>
   <g id="patch_4">
    <path d="M 414.72 139.392 
L 414.72 41.472 
" style="fill: none; stroke: #000000; stroke-width: 0.8; stroke-linejoin: miter; stroke-linecap: square"/>
   </g>
   <g id="patch_5">
    <path d="M 57.6 139.392 
L 414.72 139.392 
" style="fill: none; stroke: #000000; stroke-width: 0.8; stroke-linejoin: miter; stroke-linecap: square"/>
   </g>
   <g id="patch_6">
    <path d="M 57.6 41.472 
L 414.72 41.472 
" style="fill: none; stroke: #000000; stroke-width: 0.8; stroke-linejoin: miter; stroke-linecap: square"/>
   </g>
   <g id="text_11">
    <!-- Correlation of Stock EOD Closing Prices -->
    <g transform="translate(118.324687 35.472)scale(0.12 -0.12)">
     <defs>
      <path id="DejaVuSans-43" d="M 4122 4306 
L 4122 3641 
Q 3803 3938 3442 4084 
Q 3081 4231 2675 4231 
Q 1875 4231 1450 3742 
Q 1025 3253 1025 2328 
Q 1025 1406 1450 917 
Q 1875 428 2675 428 
Q 3081 428 3442 575 
Q 3803 722 4122 1019 
L 4122 359 
Q 3791 134 3420 21 
Q 3050 -91 2638 -91 
Q 1578 -91 968 557 
Q 359 1206 359 2328 
Q 359 3453 968 4101 
Q 1578 4750 2638 4750 
Q 3056 4750 3426 4639 
Q 3797 4528 4122 4306 
z
" transform="scale(0.015625)"/>
      <path id="DejaVuSans-6c" d="M 603 4863 
L 1178 4863 
L 1178 0 
L 603 0 
L 603 4863 
z
" transform="scale(0.015625)"/>
      <path id="DejaVuSans-6e" d="M 3513 2113 
L 3513 0 
L 2938 0 
L 2938 2094 
Q 2938 2591 2744 2837 
Q 2550 3084 2163 3084 
Q 1697 3084 1428 2787 
Q 1159 2491 1159 1978 
L 1159 0 
L 581 0 
L 581 3500 
L 1159 3500 
L 1159 2956 
Q 1366 3272 1645 3428 
Q 1925 3584 2291 3584 
Q 2894 3584 3203 3211 
Q 3513 2838 3513 2113 
z
" transform="scale(0.015625)"/>
      <path id="DejaVuSans-66" d="M 2375 4863 
L 2375 4384 
L 1825 4384 
Q 1516 4384 1395 4259 
Q 1275 4134 1275 3809 
L 1275 3500 
L 2222 3500 
L 2222 3053 
L 1275 3053 
L 1275 0 
L 697 0 
L 697 3053 
L 147 3053 
L 147 3500 
L 697 3500 
L 697 3744 
Q 697 4328 969 4595 
Q 1241 4863 1831 4863 
L 2375 4863 
z
" transform="scale(0.015625)"/>
      <path id="DejaVuSans-45" d="M 628 4666 
L 3578 4666 
L 3578 4134 
L 1259 4134 
L 1259 2753 
L 3481 2753 
L 3481 2222 
L 1259 2222 
L 1259 531 
L 3634 531 
L 3634 0 
L 628 0 
L 628 4666 
z
" transform="scale(0.015625)"/>
      <path id="DejaVuSans-4f" d="M 2522 4238 
Q 1834 4238 1429 3725 
Q 1025 3213 1025 2328 
Q 1025 1447 1429 934 
Q 1834 422 2522 422 
Q 3209 422 3611 934 
Q 4013 1447 4013 2328 
Q 4013 3213 3611 3725 
Q 3209 4238 2522 4238 
z
M 2522 4750 
Q 3503 4750 4090 4092 
Q 4678 3434 4678 2328 
Q 4678 1225 4090 567 
Q 3503 -91 2522 -91 
Q 1538 -91 948 565 
Q 359 1222 359 2328 
Q 359 3434 948 4092 
Q 1538 4750 2522 4750 
z
" transform="scale(0.015625)"/>
      <path id="DejaVuSans-73" d="M 2834 3397 
L 2834 2853 
Q 2591 2978 2328 3040 
Q 2066 3103 1784 3103 
Q 1356 3103 1142 2972 
Q 928 2841 928 2578 
Q 928 2378 1081 2264 
Q 1234 2150 1697 2047 
L 1894 2003 
Q 2506 1872 2764 1633 
Q 3022 1394 3022 966 
Q 3022 478 2636 193 
Q 2250 -91 1575 -91 
Q 1294 -91 989 -36 
Q 684 19 347 128 
L 347 722 
Q 666 556 975 473 
Q 1284 391 1588 391 
Q 1994 391 2212 530 
Q 2431 669 2431 922 
Q 2431 1156 2273 1281 
Q 2116 1406 1581 1522 
L 1381 1569 
Q 847 1681 609 1914 
Q 372 2147 372 2553 
Q 372 3047 722 3315 
Q 1072 3584 1716 3584 
Q 2034 3584 2315 3537 
Q 2597 3491 2834 3397 
z
" transform="scale(0.015625)"/>
      <path id="DejaVuSans-67" d="M 2906 1791 
Q 2906 2416 2648 2759 
Q 2391 3103 1925 3103 
Q 1463 3103 1205 2759 
Q 947 2416 947 1791 
Q 947 1169 1205 825 
Q 1463 481 1925 481 
Q 2391 481 2648 825 
Q 2906 1169 2906 1791 
z
M 3481 434 
Q 3481 -459 3084 -895 
Q 2688 -1331 1869 -1331 
Q 1566 -1331 1297 -1286 
Q 1028 -1241 775 -1147 
L 775 -588 
Q 1028 -725 1275 -790 
Q 1522 -856 1778 -856 
Q 2344 -856 2625 -561 
Q 2906 -266 2906 331 
L 2906 616 
Q 2728 306 2450 153 
Q 2172 0 1784 0 
Q 1141 0 747 490 
Q 353 981 353 1791 
Q 353 2603 747 3093 
Q 1141 3584 1784 3584 
Q 2172 3584 2450 3431 
Q 2728 3278 2906 2969 
L 2906 3500 
L 3481 3500 
L 3481 434 
z
" transform="scale(0.015625)"/>
     </defs>
     <use xlink:href="#DejaVuSans-43"/>
     <use xlink:href="#DejaVuSans-6f" x="69.824219"/>
     <use xlink:href="#DejaVuSans-72" x="131.005859"/>
     <use xlink:href="#DejaVuSans-72" x="170.369141"/>
     <use xlink:href="#DejaVuSans-65" x="209.232422"/>
     <use xlink:href="#DejaVuSans-6c" x="270.755859"/>
     <use xlink:href="#DejaVuSans-61" x="298.539062"/>
     <use xlink:href="#DejaVuSans-74" x="359.818359"/>
     <use xlink:href="#DejaVuSans-69" x="399.027344"/>
     <use xlink:href="#DejaVuSans-6f" x="426.810547"/>
     <use xlink:href="#DejaVuSans-6e" x="487.992188"/>
     <use xlink:href="#DejaVuSans-20" x="551.371094"/>
     <use xlink:href="#DejaVuSans-6f" x="583.158203"/>
     <use xlink:href="#DejaVuSans-66" x="644.339844"/>
     <use xlink:href="#DejaVuSans-20" x="679.544922"/>
     <use xlink:href="#DejaVuSans-53" x="711.332031"/>
     <use xlink:href="#DejaVuSans-74" x="774.808594"/>
     <use xlink:href="#DejaVuSans-6f" x="814.017578"/>
     <use xlink:href="#DejaVuSans-63" x="875.199219"/>
     <use xlink:href="#DejaVuSans-6b" x="930.179688"/>
     <use xlink:href="#DejaVuSans-20" x="988.089844"/>
     <use xlink:href="#DejaVuSans-45" x="1019.876953"/>
     <use xlink:href="#DejaVuSans-4f" x="1083.060547"/>
     <use xlink:href="#DejaVuSans-44" x="1161.771484"/>
     <use xlink:href="#DejaVuSans-20" x="1238.773438"/>
     <use xlink:href="#DejaVuSans-43" x="1270.560547"/>
     <use xlink:href="#DejaVuSans-6c" x="1340.384766"/>
     <use xlink:href="#DejaVuSans-6f" x="1368.167969"/>
     <use xlink:href="#DejaVuSans-73" x="1429.349609"/>
     <use xlink:href="#DejaVuSans-69" x="1481.449219"/>
     <use xlink:href="#DejaVuSans-6e" x="1509.232422"/>
     <use xlink:href="#DejaVuSans-67" x="1572.611328"/>
     <use xlink:href="#DejaVuSans-20" x="1636.087891"/>
     <use xlink:href="#DejaVuSans-50" x="1667.875"/>
     <use xlink:href="#DejaVuSans-72" x="1726.427734"/>
     <use xlink:href="#DejaVuSans-69" x="1767.541016"/>
     <use xlink:href="#DejaVuSans-63" x="1795.324219"/>
     <use xlink:href="#DejaVuSans-65" x="1850.304688"/>
     <use xlink:href="#DejaVuSans-73" x="1911.828125"/>
    </g>
   </g>
  </g>
  <g id="axes_2">
   <g id="patch_7">
    <path d="M 57.6 276.48 
L 414.72 276.48 
L 414.72 178.56 
L 57.6 178.56 
z
" style="fill: #ffffff"/>
   </g>
   <g id="matplotlib.axis_3">
    <g id="xtick_6">
     <g id="line2d_14">
      <g>
       <use xlink:href="#m0db916813a" x="80.596364" y="276.48" style="stroke: #000000; stroke-width: 0.8"/>
      </g>
     </g>
     <g id="text_12">
      <!-- 2022-12 -->
      <g transform="translate(43.371543 310.951846)rotate(-30)scale(0.1 -0.1)">
       <use xlink:href="#DejaVuSans-32"/>
       <use xlink:href="#DejaVuSans-30" x="63.623047"/>
       <use xlink:href="#DejaVuSans-32" x="127.246094"/>
       <use xlink:href="#DejaVuSans-32" x="190.869141"/>
       <use xlink:href="#DejaVuSans-2d" x="254.492188"/>
       <use xlink:href="#DejaVuSans-31" x="290.576172"/>
       <use xlink:href="#DejaVuSans-32" x="354.199219"/>
      </g>
     </g>
    </g>
    <g id="xtick_7">
     <g id="line2d_15">
      <g>
       <use xlink:href="#m0db916813a" x="150.487273" y="276.48" style="stroke: #000000; stroke-width: 0.8"/>
      </g>
     </g>
     <g id="text_13">
      <!-- 2023-01 -->
      <g transform="translate(113.262452 310.951846)rotate(-30)scale(0.1 -0.1)">
       <use xlink:href="#DejaVuSans-32"/>
       <use xlink:href="#DejaVuSans-30" x="63.623047"/>
       <use xlink:href="#DejaVuSans-32" x="127.246094"/>
       <use xlink:href="#DejaVuSans-33" x="190.869141"/>
       <use xlink:href="#DejaVuSans-2d" x="254.492188"/>
       <use xlink:href="#DejaVuSans-30" x="290.576172"/>
       <use xlink:href="#DejaVuSans-31" x="354.199219"/>
      </g>
     </g>
    </g>
    <g id="xtick_8">
     <g id="line2d_16">
      <g>
       <use xlink:href="#m0db916813a" x="220.378182" y="276.48" style="stroke: #000000; stroke-width: 0.8"/>
      </g>
     </g>
     <g id="text_14">
      <!-- 2023-02 -->
      <g transform="translate(183.153361 310.951846)rotate(-30)scale(0.1 -0.1)">
       <use xlink:href="#DejaVuSans-32"/>
       <use xlink:href="#DejaVuSans-30" x="63.623047"/>
       <use xlink:href="#DejaVuSans-32" x="127.246094"/>
       <use xlink:href="#DejaVuSans-33" x="190.869141"/>
       <use xlink:href="#DejaVuSans-2d" x="254.492188"/>
       <use xlink:href="#DejaVuSans-30" x="290.576172"/>
       <use xlink:href="#DejaVuSans-32" x="354.199219"/>
      </g>
     </g>
    </g>
    <g id="xtick_9">
     <g id="line2d_17">
      <g>
       <use xlink:href="#m0db916813a" x="283.505455" y="276.48" style="stroke: #000000; stroke-width: 0.8"/>
      </g>
     </g>
     <g id="text_15">
      <!-- 2023-03 -->
      <g transform="translate(246.280634 310.951846)rotate(-30)scale(0.1 -0.1)">
       <use xlink:href="#DejaVuSans-32"/>
       <use xlink:href="#DejaVuSans-30" x="63.623047"/>
       <use xlink:href="#DejaVuSans-32" x="127.246094"/>
       <use xlink:href="#DejaVuSans-33" x="190.869141"/>
       <use xlink:href="#DejaVuSans-2d" x="254.492188"/>
       <use xlink:href="#DejaVuSans-30" x="290.576172"/>
       <use xlink:href="#DejaVuSans-33" x="354.199219"/>
      </g>
     </g>
    </g>
    <g id="xtick_10">
     <g id="line2d_18">
      <g>
       <use xlink:href="#m0db916813a" x="353.396364" y="276.48" style="stroke: #000000; stroke-width: 0.8"/>
      </g>
     </g>
     <g id="text_16">
      <!-- 2023-04 -->
      <g transform="translate(316.171543 310.951846)rotate(-30)scale(0.1 -0.1)">
       <use xlink:href="#DejaVuSans-32"/>
       <use xlink:href="#DejaVuSans-30" x="63.623047"/>
       <use xlink:href="#DejaVuSans-32" x="127.246094"/>
       <use xlink:href="#DejaVuSans-33" x="190.869141"/>
       <use xlink:href="#DejaVuSans-2d" x="254.492188"/>
       <use xlink:href="#DejaVuSans-30" x="290.576172"/>
       <use xlink:href="#DejaVuSans-34" x="354.199219"/>
      </g>
     </g>
    </g>
    <g id="text_17">
     <!-- Date -->
     <g transform="translate(224.209219 324.351346)scale(0.1 -0.1)">
      <use xlink:href="#DejaVuSans-44"/>
      <use xlink:href="#DejaVuSans-61" x="77.001953"/>
      <use xlink:href="#DejaVuSans-74" x="138.28125"/>
      <use xlink:href="#DejaVuSans-65" x="177.490234"/>
     </g>
    </g>
   </g>
   <g id="matplotlib.axis_4">
    <g id="ytick_4">
     <g id="line2d_19">
      <g>
       <use xlink:href="#m2c151ca6c8" x="57.6" y="272.247953" style="stroke: #000000; stroke-width: 0.8"/>
      </g>
     </g>
     <g id="text_18">
      <!-- 0.0 -->
      <g transform="translate(34.696875 276.047172)scale(0.1 -0.1)">
       <defs>
        <path id="DejaVuSans-2e" d="M 684 794 
L 1344 794 
L 1344 0 
L 684 0 
L 684 794 
z
" transform="scale(0.015625)"/>
       </defs>
       <use xlink:href="#DejaVuSans-30"/>
       <use xlink:href="#DejaVuSans-2e" x="63.623047"/>
       <use xlink:href="#DejaVuSans-30" x="95.410156"/>
      </g>
     </g>
    </g>
    <g id="ytick_5">
     <g id="line2d_20">
      <g>
       <use xlink:href="#m2c151ca6c8" x="57.6" y="244.388696" style="stroke: #000000; stroke-width: 0.8"/>
      </g>
     </g>
     <g id="text_19">
      <!-- 0.5 -->
      <g transform="translate(34.696875 248.187915)scale(0.1 -0.1)">
       <defs>
        <path id="DejaVuSans-35" d="M 691 4666 
L 3169 4666 
L 3169 4134 
L 1269 4134 
L 1269 2991 
Q 1406 3038 1543 3061 
Q 1681 3084 1819 3084 
Q 2600 3084 3056 2656 
Q 3513 2228 3513 1497 
Q 3513 744 3044 326 
Q 2575 -91 1722 -91 
Q 1428 -91 1123 -41 
Q 819 9 494 109 
L 494 744 
Q 775 591 1075 516 
Q 1375 441 1709 441 
Q 2250 441 2565 725 
Q 2881 1009 2881 1497 
Q 2881 1984 2565 2268 
Q 2250 2553 1709 2553 
Q 1456 2553 1204 2497 
Q 953 2441 691 2322 
L 691 4666 
z
" transform="scale(0.015625)"/>
       </defs>
       <use xlink:href="#DejaVuSans-30"/>
       <use xlink:href="#DejaVuSans-2e" x="63.623047"/>
       <use xlink:href="#DejaVuSans-35" x="95.410156"/>
      </g>
     </g>
    </g>
    <g id="ytick_6">
     <g id="line2d_21">
      <g>
       <use xlink:href="#m2c151ca6c8" x="57.6" y="216.52944" style="stroke: #000000; stroke-width: 0.8"/>
      </g>
     </g>
     <g id="text_20">
      <!-- 1.0 -->
      <g transform="translate(34.696875 220.328658)scale(0.1 -0.1)">
       <use xlink:href="#DejaVuSans-31"/>
       <use xlink:href="#DejaVuSans-2e" x="63.623047"/>
       <use xlink:href="#DejaVuSans-30" x="95.410156"/>
      </g>
     </g>
    </g>
    <g id="ytick_7">
     <g id="line2d_22">
      <g>
       <use xlink:href="#m2c151ca6c8" x="57.6" y="188.670183" style="stroke: #000000; stroke-width: 0.8"/>
      </g>
     </g>
     <g id="text_21">
      <!-- 1.5 -->
      <g transform="translate(34.696875 192.469402)scale(0.1 -0.1)">
       <use xlink:href="#DejaVuSans-31"/>
       <use xlink:href="#DejaVuSans-2e" x="63.623047"/>
       <use xlink:href="#DejaVuSans-35" x="95.410156"/>
      </g>
     </g>
    </g>
    <g id="text_22">
     <!-- Stock Volume -->
     <g transform="translate(28.617187 261.544219)rotate(-90)scale(0.1 -0.1)">
      <defs>
       <path id="DejaVuSans-56" d="M 1831 0 
L 50 4666 
L 709 4666 
L 2188 738 
L 3669 4666 
L 4325 4666 
L 2547 0 
L 1831 0 
z
" transform="scale(0.015625)"/>
       <path id="DejaVuSans-75" d="M 544 1381 
L 544 3500 
L 1119 3500 
L 1119 1403 
Q 1119 906 1312 657 
Q 1506 409 1894 409 
Q 2359 409 2629 706 
Q 2900 1003 2900 1516 
L 2900 3500 
L 3475 3500 
L 3475 0 
L 2900 0 
L 2900 538 
Q 2691 219 2414 64 
Q 2138 -91 1772 -91 
Q 1169 -91 856 284 
Q 544 659 544 1381 
z
M 1991 3584 
L 1991 3584 
z
" transform="scale(0.015625)"/>
       <path id="DejaVuSans-6d" d="M 3328 2828 
Q 3544 3216 3844 3400 
Q 4144 3584 4550 3584 
Q 5097 3584 5394 3201 
Q 5691 2819 5691 2113 
L 5691 0 
L 5113 0 
L 5113 2094 
Q 5113 2597 4934 2840 
Q 4756 3084 4391 3084 
Q 3944 3084 3684 2787 
Q 3425 2491 3425 1978 
L 3425 0 
L 2847 0 
L 2847 2094 
Q 2847 2600 2669 2842 
Q 2491 3084 2119 3084 
Q 1678 3084 1418 2786 
Q 1159 2488 1159 1978 
L 1159 0 
L 581 0 
L 581 3500 
L 1159 3500 
L 1159 2956 
Q 1356 3278 1631 3431 
Q 1906 3584 2284 3584 
Q 2666 3584 2933 3390 
Q 3200 3197 3328 2828 
z
" transform="scale(0.015625)"/>
      </defs>
      <use xlink:href="#DejaVuSans-53"/>
      <use xlink:href="#DejaVuSans-74" x="63.476562"/>
      <use xlink:href="#DejaVuSans-6f" x="102.685547"/>
      <use xlink:href="#DejaVuSans-63" x="163.867188"/>
      <use xlink:href="#DejaVuSans-6b" x="218.847656"/>
      <use xlink:href="#DejaVuSans-20" x="276.757812"/>
      <use xlink:href="#DejaVuSans-56" x="308.544922"/>
      <use xlink:href="#DejaVuSans-6f" x="369.203125"/>
      <use xlink:href="#DejaVuSans-6c" x="430.384766"/>
      <use xlink:href="#DejaVuSans-75" x="458.167969"/>
      <use xlink:href="#DejaVuSans-6d" x="521.546875"/>
      <use xlink:href="#DejaVuSans-65" x="618.958984"/>
     </g>
    </g>
    <g id="text_23">
     <!-- 1e8 -->
     <g transform="translate(57.6 175.56)scale(0.1 -0.1)">
      <defs>
       <path id="DejaVuSans-38" d="M 2034 2216 
Q 1584 2216 1326 1975 
Q 1069 1734 1069 1313 
Q 1069 891 1326 650 
Q 1584 409 2034 409 
Q 2484 409 2743 651 
Q 3003 894 3003 1313 
Q 3003 1734 2745 1975 
Q 2488 2216 2034 2216 
z
M 1403 2484 
Q 997 2584 770 2862 
Q 544 3141 544 3541 
Q 544 4100 942 4425 
Q 1341 4750 2034 4750 
Q 2731 4750 3128 4425 
Q 3525 4100 3525 3541 
Q 3525 3141 3298 2862 
Q 3072 2584 2669 2484 
Q 3125 2378 3379 2068 
Q 3634 1759 3634 1313 
Q 3634 634 3220 271 
Q 2806 -91 2034 -91 
Q 1263 -91 848 271 
Q 434 634 434 1313 
Q 434 1759 690 2068 
Q 947 2378 1403 2484 
z
M 1172 3481 
Q 1172 3119 1398 2916 
Q 1625 2713 2034 2713 
Q 2441 2713 2670 2916 
Q 2900 3119 2900 3481 
Q 2900 3844 2670 4047 
Q 2441 4250 2034 4250 
Q 1625 4250 1398 4047 
Q 1172 3844 1172 3481 
z
" transform="scale(0.015625)"/>
      </defs>
      <use xlink:href="#DejaVuSans-31"/>
      <use xlink:href="#DejaVuSans-65" x="63.623047"/>
      <use xlink:href="#DejaVuSans-38" x="125.146484"/>
     </g>
    </g>
   </g>
   <g id="line2d_23">
    <path d="M 73.832727 270.7026 
L 76.087273 271.209862 
L 78.341818 268.99923 
L 80.596364 270.777653 
L 82.850909 271.232818 
L 89.614545 271.05385 
L 91.869091 271.178436 
L 94.123636 270.742718 
L 96.378182 270.13884 
L 98.632727 270.946982 
L 105.396364 270.087301 
L 107.650909 270.433257 
L 109.905455 270.523075 
L 112.16 270.388905 
L 114.414545 268.013458 
L 121.178182 270.888366 
L 123.432727 270.630445 
L 125.687273 270.811474 
L 127.941818 271.028609 
L 130.196364 270.79409 
L 139.214545 271.23878 
L 141.469091 271.155313 
L 143.723636 271.099706 
L 145.978182 271.080093 
L 154.996364 270.79214 
L 157.250909 270.704718 
L 159.505455 270.795594 
L 161.76 270.901237 
L 168.523636 270.648108 
L 170.778182 271.329656 
L 173.032727 271.126061 
L 175.287273 271.223011 
L 177.541818 271.304416 
L 186.56 270.291732 
L 188.814545 269.87518 
L 191.069091 269.473338 
L 193.323636 269.811104 
L 200.087273 270.346726 
L 202.341818 266.52204 
L 204.596364 268.908631 
L 206.850909 269.670638 
L 209.105455 269.955415 
L 215.869091 268.958945 
L 218.123636 269.422356 
L 220.378182 270.520234 
L 222.632727 269.508162 
L 224.887273 270.75336 
L 231.650909 270.862067 
L 233.905455 271.031785 
L 236.16 270.848471 
L 238.414545 270.241028 
L 240.669091 270.980636 
L 247.432727 270.995624 
L 249.687273 270.875996 
L 251.941818 270.839779 
L 254.196364 270.746284 
L 256.450909 270.672401 
L 265.469091 270.081005 
L 267.723636 270.768627 
L 269.978182 270.607712 
L 272.232727 270.652788 
L 278.996364 270.266603 
L 281.250909 270.364389 
L 283.505455 269.509555 
L 285.76 268.019308 
L 288.014545 270.553665 
L 294.778182 270.676245 
L 297.032727 270.368679 
L 299.287273 270.334189 
L 301.541818 270.318031 
L 303.796364 270.189767 
L 310.56 269.901591 
L 312.814545 269.589066 
L 315.069091 269.522371 
L 317.323636 270.218351 
L 319.578182 265.90401 
L 326.341818 270.731351 
L 328.596364 270.786122 
L 330.850909 270.68477 
L 333.105455 270.477609 
L 335.36 270.26833 
L 342.123636 270.689284 
L 344.378182 270.875718 
L 346.632727 270.452926 
L 348.887273 270.938735 
L 351.141818 270.236738 
L 357.905455 270.009573 
L 360.16 270.312682 
L 362.414545 270.770298 
L 364.669091 270.900011 
L 373.687273 270.643149 
L 375.941818 270.603143 
L 378.196364 270.729735 
L 380.450909 270.333911 
L 382.705455 270.692069 
L 389.469091 270.891709 
L 391.723636 271.18256 
L 393.978182 271.179272 
L 396.232727 270.188987 
L 398.487273 268.686704 
" clip-path="url(#p49f6759c02)" style="fill: none; stroke: #1f77b4; stroke-width: 1.5; stroke-linecap: square"/>
   </g>
   <g id="line2d_24">
    <path d="M 73.832727 271.549745 
L 76.087273 271.660123 
L 78.341818 270.706166 
L 80.596364 271.263296 
L 82.850909 271.275944 
L 89.614545 271.244853 
L 91.869091 271.177991 
L 94.123636 271.210697 
L 96.378182 271.107952 
L 98.632727 271.229865 
L 105.396364 270.894049 
L 107.650909 270.288445 
L 109.905455 270.825905 
L 112.16 270.648832 
L 114.414545 268.608141 
L 121.178182 269.937028 
L 123.432727 270.519286 
L 125.687273 270.253175 
L 127.941818 270.979688 
L 130.196364 271.571921 
L 139.214545 271.685419 
L 141.469091 271.475137 
L 143.723636 271.402815 
L 145.978182 271.501604 
L 154.996364 270.994231 
L 157.250909 271.104386 
L 159.505455 270.86775 
L 161.76 271.3637 
L 168.523636 271.032454 
L 170.778182 271.215489 
L 173.032727 270.920515 
L 175.287273 270.864741 
L 177.541818 271.007213 
L 186.56 270.652342 
L 188.814545 271.026213 
L 191.069091 271.015181 
L 193.323636 270.405565 
L 200.087273 270.803005 
L 202.341818 271.019193 
L 204.596364 270.812477 
L 206.850909 271.165565 
L 209.105455 271.077252 
L 215.869091 271.282407 
L 218.123636 271.22173 
L 220.378182 271.246692 
L 222.632727 270.734694 
L 224.887273 271.039976 
L 231.650909 271.544563 
L 233.905455 271.467281 
L 236.16 271.478035 
L 238.414545 271.271765 
L 240.669091 271.497091 
L 247.432727 271.532249 
L 249.687273 271.233263 
L 251.941818 271.194762 
L 254.196364 271.189747 
L 256.450909 270.731072 
L 265.469091 270.884967 
L 267.723636 271.231759 
L 269.978182 271.197381 
L 272.232727 271.281237 
L 278.996364 271.404988 
L 281.250909 271.04421 
L 283.505455 271.30046 
L 285.76 270.978518 
L 288.014545 271.35863 
L 294.778182 271.329099 
L 297.032727 271.011392 
L 299.287273 271.432959 
L 301.541818 271.161554 
L 303.796364 270.61841 
L 310.56 270.447075 
L 312.814545 270.617852 
L 315.069091 269.736163 
L 317.323636 269.952573 
L 319.578182 268.64252 
L 326.341818 270.474934 
L 328.596364 270.670451 
L 330.850909 270.543357 
L 333.105455 269.369033 
L 335.36 269.950345 
L 342.123636 270.161964 
L 344.378182 270.649166 
L 346.632727 270.893158 
L 348.887273 270.969993 
L 351.141818 270.571216 
L 357.905455 270.90107 
L 360.16 270.948765 
L 362.414545 270.886639 
L 364.669091 271.063768 
L 373.687273 271.369885 
L 375.941818 270.508143 
L 378.196364 270.76807 
L 380.450909 270.484908 
L 382.705455 270.647885 
L 389.469091 270.632674 
L 391.723636 271.192756 
L 393.978182 271.019527 
L 396.232727 270.751298 
L 398.487273 271.356067 
" clip-path="url(#p49f6759c02)" style="fill: none; stroke: #ff7f0e; stroke-width: 1.5; stroke-linecap: square"/>
   </g>
   <g id="line2d_25">
    <path d="M 73.832727 230.490772 
L 76.087273 235.714828 
L 78.341818 214.96609 
L 80.596364 234.087458 
L 82.850909 231.854037 
L 89.614545 232.389436 
L 91.869091 230.17847 
L 94.123636 234.310945 
L 96.378182 231.402995 
L 98.632727 234.694511 
L 105.396364 237.702586 
L 107.650909 216.411316 
L 109.905455 233.078953 
L 112.16 224.997038 
L 114.414545 190.818633 
L 121.178182 225.705443 
L 123.432727 230.822186 
L 125.687273 239.22515 
L 127.941818 226.875643 
L 130.196364 240.246749 
L 139.214545 240.33016 
L 141.469091 239.803843 
L 143.723636 241.605055 
L 145.978182 237.478932 
L 154.996364 229.50851 
L 157.250909 233.866199 
L 159.505455 234.397921 
L 161.76 225.832537 
L 168.523636 235.882652 
L 170.778182 234.494983 
L 173.032727 214.787567 
L 175.287273 224.745246 
L 177.541818 224.581099 
L 186.56 231.709949 
L 188.814545 227.912509 
L 191.069091 233.800674 
L 193.323636 234.648264 
L 200.087273 229.622677 
L 202.341818 234.955831 
L 204.596364 219.726791 
L 206.850909 234.067622 
L 209.105455 223.340694 
L 215.869091 232.859477 
L 218.123636 235.179931 
L 220.378182 227.422353 
L 222.632727 184.126784 
L 224.887273 191.804461 
L 231.650909 226.589306 
L 233.905455 205.663605 
L 236.16 229.969692 
L 238.414545 236.241257 
L 240.669091 242.861953 
L 247.432727 242.805455 
L 249.687273 240.932533 
L 251.941818 245.526691 
L 254.196364 240.856588 
L 256.450909 238.800464 
L 265.469091 240.722195 
L 267.723636 239.076438 
L 269.978182 245.242861 
L 272.232727 240.458424 
L 278.996364 245.798208 
L 281.250909 247.754485 
L 283.505455 243.107449 
L 285.76 241.318941 
L 288.014545 241.179533 
L 294.778182 243.211699 
L 297.032727 244.889773 
L 299.287273 247.230842 
L 301.541818 240.923729 
L 303.796364 233.341108 
L 310.56 231.909365 
L 312.814545 238.308302 
L 315.069091 232.837246 
L 317.323636 225.195396 
L 319.578182 223.605579 
L 326.341818 237.485785 
L 328.596364 239.598409 
L 330.850909 240.223515 
L 333.105455 240.176767 
L 335.36 240.99243 
L 342.123636 246.215539 
L 344.378182 250.673689 
L 346.632727 244.509438 
L 348.887273 242.36422 
L 351.141818 240.65316 
L 357.905455 249.327753 
L 360.16 245.133932 
L 362.414545 247.076892 
L 364.669091 247.838787 
L 373.687273 251.486566 
L 375.941818 238.584053 
L 378.196364 240.636055 
L 380.450909 234.401097 
L 382.705455 243.615156 
L 389.469091 250.005401 
L 391.723636 250.077278 
L 393.978182 239.708954 
L 396.232727 240.100098 
L 398.487273 223.945741 
" clip-path="url(#p49f6759c02)" style="fill: none; stroke: #2ca02c; stroke-width: 1.5; stroke-linecap: square"/>
   </g>
   <g id="line2d_26">
    <path d="M 73.832727 271.855249 
L 76.087273 271.950639 
L 78.341818 271.43034 
L 80.596364 271.79563 
L 82.850909 271.922279 
L 89.614545 271.919548 
L 91.869091 271.753451 
L 94.123636 271.919437 
L 96.378182 271.937545 
L 98.632727 271.86968 
L 105.396364 271.69322 
L 107.650909 271.81151 
L 109.905455 271.87007 
L 112.16 271.871463 
L 114.414545 271.178548 
L 121.178182 271.865557 
L 123.432727 271.695671 
L 125.687273 271.914366 
L 127.941818 271.947296 
L 130.196364 272.002625 
L 139.214545 272.029091 
L 141.469091 271.924452 
L 143.723636 271.982343 
L 145.978182 271.941111 
L 154.996364 271.890909 
L 157.250909 271.875364 
L 159.505455 271.704308 
L 161.76 271.946405 
L 168.523636 271.807944 
L 170.778182 271.849176 
L 173.032727 271.77195 
L 175.287273 271.930692 
L 177.541818 271.948299 
L 186.56 271.794126 
L 188.814545 271.809616 
L 191.069091 271.972927 
L 193.323636 271.826387 
L 200.087273 271.889293 
L 202.341818 271.882105 
L 204.596364 271.77546 
L 206.850909 271.795129 
L 209.105455 271.824994 
L 215.869091 271.794906 
L 218.123636 271.708932 
L 220.378182 271.711495 
L 222.632727 271.732278 
L 224.887273 271.514252 
L 231.650909 271.603401 
L 233.905455 271.687369 
L 236.16 271.327093 
L 238.414545 271.737572 
L 240.669091 271.787941 
L 247.432727 271.832237 
L 249.687273 271.776686 
L 251.941818 271.863607 
L 254.196364 271.442654 
L 256.450909 270.737257 
L 265.469091 271.631372 
L 267.723636 271.895255 
L 269.978182 271.680627 
L 272.232727 271.736624 
L 278.996364 271.601841 
L 281.250909 271.060982 
L 283.505455 268.5902 
L 285.76 269.294259 
L 288.014545 270.822952 
L 294.778182 271.485278 
L 297.032727 271.614768 
L 299.287273 271.764595 
L 301.541818 271.538712 
L 303.796364 271.418026 
L 310.56 271.322636 
L 312.814545 271.458032 
L 315.069091 271.399137 
L 317.323636 271.459982 
L 319.578182 270.791583 
L 326.341818 271.24853 
L 328.596364 271.450287 
L 330.850909 271.658228 
L 333.105455 271.631818 
L 335.36 271.781255 
L 342.123636 271.768105 
L 344.378182 271.871575 
L 346.632727 271.908739 
L 348.887273 271.820648 
L 351.141818 271.656947 
L 357.905455 271.923003 
L 360.16 271.792009 
L 362.414545 271.743366 
L 364.669091 271.657727 
L 373.687273 271.732223 
L 375.941818 271.877537 
L 378.196364 271.765821 
L 380.450909 271.705924 
L 382.705455 271.803041 
L 389.469091 271.879208 
L 391.723636 271.877927 
L 393.978182 271.940053 
L 396.232727 271.88634 
L 398.487273 271.781534 
" clip-path="url(#p49f6759c02)" style="fill: none; stroke: #d62728; stroke-width: 1.5; stroke-linecap: square"/>
   </g>
   <g id="line2d_27">
    <path d="M 73.832727 233.665111 
L 76.087273 225.576009 
L 78.341818 210.188171 
L 80.596364 232.548289 
L 82.850909 235.781635 
L 89.614545 233.898906 
L 91.869091 236.182919 
L 94.123636 233.400393 
L 96.378182 237.630988 
L 98.632727 229.847836 
L 105.396364 232.987184 
L 107.650909 219.935958 
L 109.905455 226.39652 
L 112.16 217.124569 
L 114.414545 183.010909 
L 121.178182 227.90014 
L 123.432727 229.103548 
L 125.687273 224.370149 
L 127.941818 228.86992 
L 130.196364 236.691239 
L 139.214545 233.797833 
L 141.469091 224.642947 
L 143.723636 230.066977 
L 145.978182 229.325642 
L 154.996364 209.777749 
L 157.250909 222.59518 
L 159.505455 227.13674 
L 161.76 223.352339 
L 168.523636 232.804372 
L 170.778182 236.64594 
L 173.032727 233.546487 
L 175.287273 232.476301 
L 177.541818 240.037248 
L 186.56 236.785014 
L 188.814545 233.427305 
L 191.069091 239.774981 
L 193.323636 227.548556 
L 200.087273 226.692329 
L 202.341818 235.231303 
L 204.596364 235.585561 
L 206.850909 242.101396 
L 209.105455 232.93531 
L 215.869091 236.57958 
L 218.123636 235.543661 
L 220.378182 228.97495 
L 222.632727 206.311221 
L 224.887273 186.24236 
L 231.650909 233.323947 
L 233.905455 225.821839 
L 236.16 236.521187 
L 238.414545 241.04163 
L 240.669091 240.237277 
L 247.432727 237.591595 
L 249.687273 237.865396 
L 251.941818 235.711207 
L 254.196364 234.265813 
L 256.450909 239.29374 
L 265.469091 239.448024 
L 267.723636 243.825215 
L 269.978182 245.283424 
L 272.232727 241.341117 
L 278.996364 247.175458 
L 281.250909 244.083916 
L 283.505455 241.335879 
L 285.76 243.14166 
L 288.014545 232.836967 
L 294.778182 223.461937 
L 297.032727 240.944178 
L 299.287273 245.94614 
L 301.541818 242.252671 
L 303.796364 234.040431 
L 310.56 225.189712 
L 312.814545 231.185693 
L 315.069091 229.251146 
L 317.323636 229.81212 
L 319.578182 217.117493 
L 326.341818 231.21606 
L 328.596364 231.050631 
L 330.850909 230.068035 
L 333.105455 234.569924 
L 335.36 239.264543 
L 342.123636 243.056857 
L 344.378182 246.621783 
L 346.632727 243.66118 
L 348.887273 244.666342 
L 351.141818 233.972287 
L 357.905455 240.501661 
L 360.16 246.462372 
L 362.414545 243.5464 
L 364.669091 246.957264 
L 373.687273 245.660806 
L 375.941818 245.701313 
L 378.196364 244.314535 
L 380.450909 234.111082 
L 382.705455 244.757999 
L 389.469091 249.115744 
L 391.723636 244.4316 
L 393.978182 245.658967 
L 396.232727 243.020027 
L 398.487273 239.757429 
" clip-path="url(#p49f6759c02)" style="fill: none; stroke: #9467bd; stroke-width: 1.5; stroke-linecap: square"/>
   </g>
   <g id="patch_8">
    <path d="M 57.6 276.48 
L 57.6 178.56 
" style="fill: none; stroke: #000000; stroke-width: 0.8; stroke-linejoin: miter; stroke-linecap: square"/>
   </g>
   <g id="patch_9">
    <path d="M 414.72 276.48 
L 414.72 178.56 
" style="fill: none; stroke: #000000; stroke-width: 0.8; stroke-linejoin: miter; stroke-linecap: square"/>
   </g>
   <g id="patch_10">
    <path d="M 57.6 276.48 
L 414.72 276.48 
" style="fill: none; stroke: #000000; stroke-width: 0.8; stroke-linejoin: miter; stroke-linecap: square"/>
   </g>
   <g id="patch_11">
    <path d="M 57.6 178.56 
L 414.72 178.56 
" style="fill: none; stroke: #000000; stroke-width: 0.8; stroke-linejoin: miter; stroke-linecap: square"/>
   </g>
   <g id="text_24">
    <!-- Correlation of Stock Volume -->
    <g transform="translate(152.65125 172.56)scale(0.12 -0.12)">
     <use xlink:href="#DejaVuSans-43"/>
     <use xlink:href="#DejaVuSans-6f" x="69.824219"/>
     <use xlink:href="#DejaVuSans-72" x="131.005859"/>
     <use xlink:href="#DejaVuSans-72" x="170.369141"/>
     <use xlink:href="#DejaVuSans-65" x="209.232422"/>
     <use xlink:href="#DejaVuSans-6c" x="270.755859"/>
     <use xlink:href="#DejaVuSans-61" x="298.539062"/>
     <use xlink:href="#DejaVuSans-74" x="359.818359"/>
     <use xlink:href="#DejaVuSans-69" x="399.027344"/>
     <use xlink:href="#DejaVuSans-6f" x="426.810547"/>
     <use xlink:href="#DejaVuSans-6e" x="487.992188"/>
     <use xlink:href="#DejaVuSans-20" x="551.371094"/>
     <use xlink:href="#DejaVuSans-6f" x="583.158203"/>
     <use xlink:href="#DejaVuSans-66" x="644.339844"/>
     <use xlink:href="#DejaVuSans-20" x="679.544922"/>
     <use xlink:href="#DejaVuSans-53" x="711.332031"/>
     <use xlink:href="#DejaVuSans-74" x="774.808594"/>
     <use xlink:href="#DejaVuSans-6f" x="814.017578"/>
     <use xlink:href="#DejaVuSans-63" x="875.199219"/>
     <use xlink:href="#DejaVuSans-6b" x="930.179688"/>
     <use xlink:href="#DejaVuSans-20" x="988.089844"/>
     <use xlink:href="#DejaVuSans-56" x="1019.876953"/>
     <use xlink:href="#DejaVuSans-6f" x="1080.535156"/>
     <use xlink:href="#DejaVuSans-6c" x="1141.716797"/>
     <use xlink:href="#DejaVuSans-75" x="1169.5"/>
     <use xlink:href="#DejaVuSans-6d" x="1232.878906"/>
     <use xlink:href="#DejaVuSans-65" x="1330.291016"/>
    </g>
   </g>
  </g>
  <g id="legend_1">
   <g id="patch_12">
    <path d="M 392 81.390625 
L 453.8 81.390625 
Q 455.8 81.390625 455.8 79.390625 
L 455.8 7 
Q 455.8 5 453.8 5 
L 392 5 
Q 390 5 390 7 
L 390 79.390625 
Q 390 81.390625 392 81.390625 
z
" style="fill: #ffffff; opacity: 0.8; stroke: #cccccc; stroke-linejoin: miter"/>
   </g>
   <g id="line2d_28">
    <path d="M 394 13.098437 
L 404 13.098437 
L 414 13.098437 
" style="fill: none; stroke: #1f77b4; stroke-width: 1.5; stroke-linecap: square"/>
   </g>
   <g id="text_25">
    <!-- MMM -->
    <g transform="translate(422 16.598437)scale(0.1 -0.1)">
     <defs>
      <path id="DejaVuSans-4d" d="M 628 4666 
L 1569 4666 
L 2759 1491 
L 3956 4666 
L 4897 4666 
L 4897 0 
L 4281 0 
L 4281 4097 
L 3078 897 
L 2444 897 
L 1241 4097 
L 1241 0 
L 628 0 
L 628 4666 
z
" transform="scale(0.015625)"/>
     </defs>
     <use xlink:href="#DejaVuSans-4d"/>
     <use xlink:href="#DejaVuSans-4d" x="86.279297"/>
     <use xlink:href="#DejaVuSans-4d" x="172.558594"/>
    </g>
   </g>
   <g id="line2d_29">
    <path d="M 394 27.776563 
L 404 27.776563 
L 414 27.776563 
" style="fill: none; stroke: #ff7f0e; stroke-width: 1.5; stroke-linecap: square"/>
   </g>
   <g id="text_26">
    <!-- ACN -->
    <g transform="translate(422 31.276563)scale(0.1 -0.1)">
     <defs>
      <path id="DejaVuSans-41" d="M 2188 4044 
L 1331 1722 
L 3047 1722 
L 2188 4044 
z
M 1831 4666 
L 2547 4666 
L 4325 0 
L 3669 0 
L 3244 1197 
L 1141 1197 
L 716 0 
L 50 0 
L 1831 4666 
z
" transform="scale(0.015625)"/>
      <path id="DejaVuSans-4e" d="M 628 4666 
L 1478 4666 
L 3547 763 
L 3547 4666 
L 4159 4666 
L 4159 0 
L 3309 0 
L 1241 3903 
L 1241 0 
L 628 0 
L 628 4666 
z
" transform="scale(0.015625)"/>
     </defs>
     <use xlink:href="#DejaVuSans-41"/>
     <use xlink:href="#DejaVuSans-43" x="66.658203"/>
     <use xlink:href="#DejaVuSans-4e" x="136.482422"/>
    </g>
   </g>
   <g id="line2d_30">
    <path d="M 394 42.454687 
L 404 42.454687 
L 414 42.454687 
" style="fill: none; stroke: #2ca02c; stroke-width: 1.5; stroke-linecap: square"/>
   </g>
   <g id="text_27">
    <!-- AMZN -->
    <g transform="translate(422 45.954687)scale(0.1 -0.1)">
     <defs>
      <path id="DejaVuSans-5a" d="M 359 4666 
L 4025 4666 
L 4025 4184 
L 1075 531 
L 4097 531 
L 4097 0 
L 288 0 
L 288 481 
L 3238 4134 
L 359 4134 
L 359 4666 
z
" transform="scale(0.015625)"/>
     </defs>
     <use xlink:href="#DejaVuSans-41"/>
     <use xlink:href="#DejaVuSans-4d" x="68.408203"/>
     <use xlink:href="#DejaVuSans-5a" x="154.6875"/>
     <use xlink:href="#DejaVuSans-4e" x="223.193359"/>
    </g>
   </g>
   <g id="line2d_31">
    <path d="M 394 57.132812 
L 404 57.132812 
L 414 57.132812 
" style="fill: none; stroke: #d62728; stroke-width: 1.5; stroke-linecap: square"/>
   </g>
   <g id="text_28">
    <!-- AWK -->
    <g transform="translate(422 60.632812)scale(0.1 -0.1)">
     <defs>
      <path id="DejaVuSans-57" d="M 213 4666 
L 850 4666 
L 1831 722 
L 2809 4666 
L 3519 4666 
L 4500 722 
L 5478 4666 
L 6119 4666 
L 4947 0 
L 4153 0 
L 3169 4050 
L 2175 0 
L 1381 0 
L 213 4666 
z
" transform="scale(0.015625)"/>
      <path id="DejaVuSans-4b" d="M 628 4666 
L 1259 4666 
L 1259 2694 
L 3353 4666 
L 4166 4666 
L 1850 2491 
L 4331 0 
L 3500 0 
L 1259 2247 
L 1259 0 
L 628 0 
L 628 4666 
z
" transform="scale(0.015625)"/>
     </defs>
     <use xlink:href="#DejaVuSans-41"/>
     <use xlink:href="#DejaVuSans-57" x="62.908203"/>
     <use xlink:href="#DejaVuSans-4b" x="161.785156"/>
    </g>
   </g>
   <g id="line2d_32">
    <path d="M 394 71.810937 
L 404 71.810937 
L 414 71.810937 
" style="fill: none; stroke: #9467bd; stroke-width: 1.5; stroke-linecap: square"/>
   </g>
   <g id="text_29">
    <!-- AAPL -->
    <g transform="translate(422 75.310937)scale(0.1 -0.1)">
     <defs>
      <path id="DejaVuSans-4c" d="M 628 4666 
L 1259 4666 
L 1259 531 
L 3531 531 
L 3531 0 
L 628 0 
L 628 4666 
z
" transform="scale(0.015625)"/>
     </defs>
     <use xlink:href="#DejaVuSans-41"/>
     <use xlink:href="#DejaVuSans-41" x="71.158203"/>
     <use xlink:href="#DejaVuSans-50" x="139.566406"/>
     <use xlink:href="#DejaVuSans-4c" x="199.869141"/>
    </g>
   </g>
  </g>
 </g>
 <defs>
  <clipPath id="p0d47118091">
   <rect x="57.6" y="41.472" width="357.12" height="97.92"/>
  </clipPath>
  <clipPath id="p49f6759c02">
   <rect x="57.6" y="178.56" width="357.12" height="97.92"/>
  </clipPath>
 </defs>
</svg>
