<?xml version="1.0" encoding="utf-8" standalone="no"?>
<!DOCTYPE svg PUBLIC "-//W3C//DTD SVG 1.1//EN"
  "http://www.w3.org/Graphics/SVG/1.1/DTD/svg11.dtd">
<svg xmlns:xlink="http://www.w3.org/1999/xlink" width="460.8pt" height="345.6pt" viewBox="0 0 460.8 345.6" xmlns="http://www.w3.org/2000/svg" version="1.1">
 <metadata>
  <rdf:RDF xmlns:dc="http://purl.org/dc/elements/1.1/" xmlns:cc="http://creativecommons.org/ns#" xmlns:rdf="http://www.w3.org/1999/02/22-rdf-syntax-ns#">
   <cc:Work>
    <dc:type rdf:resource="http://purl.org/dc/dcmitype/StillImage"/>
    <dc:date>2023-04-21T21:13:01.723824</dc:date>
    <dc:format>image/svg+xml</dc:format>
    <dc:creator>
     <cc:Agent>
      <dc:title>Matplotlib v3.5.2, https://matplotlib.org/</dc:title>
     </cc:Agent>
    </dc:creator>
   </cc:Work>
  </rdf:RDF>
 </metadata>
 <defs>
  <style type="text/css">*{stroke-linejoin: round; stroke-linecap: butt}</style>
 </defs>
 <g id="figure_1">
  <g id="patch_1">
   <path d="M 0 345.6 
L 460.8 345.6 
L 460.8 0 
L 0 0 
z
" style="fill: #ffffff"/>
  </g>
  <g id="axes_1">
   <g id="patch_2">
    <path d="M 57.6 139.392 
L 414.72 139.392 
L 414.72 41.472 
L 57.6 41.472 
z
" style="fill: #ffffff"/>
   </g>
   <g id="matplotlib.axis_1">
    <g id="xtick_1">
     <g id="line2d_1">
      <defs>
       <path id="m31bf37e592" d="M 0 0 
L 0 3.5 
" style="stroke: #000000; stroke-width: 0.8"/>
      </defs>
      <g>
       <use xlink:href="#m31bf37e592" x="80.596364" y="139.392" style="stroke: #000000; stroke-width: 0.8"/>
      </g>
     </g>
     <g id="text_1">
      <!-- 2022-12 -->
      <g transform="translate(43.371543 173.863846)rotate(-30)scale(0.1 -0.1)">
       <defs>
        <path id="DejaVuSans-32" d="M 1228 531 
L 3431 531 
L 3431 0 
L 469 0 
L 469 531 
Q 828 903 1448 1529 
Q 2069 2156 2228 2338 
Q 2531 2678 2651 2914 
Q 2772 3150 2772 3378 
Q 2772 3750 2511 3984 
Q 2250 4219 1831 4219 
Q 1534 4219 1204 4116 
Q 875 4013 500 3803 
L 500 4441 
Q 881 4594 1212 4672 
Q 1544 4750 1819 4750 
Q 2544 4750 2975 4387 
Q 3406 4025 3406 3419 
Q 3406 3131 3298 2873 
Q 3191 2616 2906 2266 
Q 2828 2175 2409 1742 
Q 1991 1309 1228 531 
z
" transform="scale(0.015625)"/>
        <path id="DejaVuSans-30" d="M 2034 4250 
Q 1547 4250 1301 3770 
Q 1056 3291 1056 2328 
Q 1056 1369 1301 889 
Q 1547 409 2034 409 
Q 2525 409 2770 889 
Q 3016 1369 3016 2328 
Q 3016 3291 2770 3770 
Q 2525 4250 2034 4250 
z
M 2034 4750 
Q 2819 4750 3233 4129 
Q 3647 3509 3647 2328 
Q 3647 1150 3233 529 
Q 2819 -91 2034 -91 
Q 1250 -91 836 529 
Q 422 1150 422 2328 
Q 422 3509 836 4129 
Q 1250 4750 2034 4750 
z
" transform="scale(0.015625)"/>
        <path id="DejaVuSans-2d" d="M 313 2009 
L 1997 2009 
L 1997 1497 
L 313 1497 
L 313 2009 
z
" transform="scale(0.015625)"/>
        <path id="DejaVuSans-31" d="M 794 531 
L 1825 531 
L 1825 4091 
L 703 3866 
L 703 4441 
L 1819 4666 
L 2450 4666 
L 2450 531 
L 3481 531 
L 3481 0 
L 794 0 
L 794 531 
z
" transform="scale(0.015625)"/>
       </defs>
       <use xlink:href="#DejaVuSans-32"/>
       <use xlink:href="#DejaVuSans-30" x="63.623047"/>
       <use xlink:href="#DejaVuSans-32" x="127.246094"/>
       <use xlink:href="#DejaVuSans-32" x="190.869141"/>
       <use xlink:href="#DejaVuSans-2d" x="254.492188"/>
       <use xlink:href="#DejaVuSans-31" x="290.576172"/>
       <use xlink:href="#DejaVuSans-32" x="354.199219"/>
      </g>
     </g>
    </g>
    <g id="xtick_2">
     <g id="line2d_2">
      <g>
       <use xlink:href="#m31bf37e592" x="150.487273" y="139.392" style="stroke: #000000; stroke-width: 0.8"/>
      </g>
     </g>
     <g id="text_2">
      <!-- 2023-01 -->
      <g transform="translate(113.262452 173.863846)rotate(-30)scale(0.1 -0.1)">
       <defs>
        <path id="DejaVuSans-33" d="M 2597 2516 
Q 3050 2419 3304 2112 
Q 3559 1806 3559 1356 
Q 3559 666 3084 287 
Q 2609 -91 1734 -91 
Q 1441 -91 1130 -33 
Q 819 25 488 141 
L 488 750 
Q 750 597 1062 519 
Q 1375 441 1716 441 
Q 2309 441 2620 675 
Q 2931 909 2931 1356 
Q 2931 1769 2642 2001 
Q 2353 2234 1838 2234 
L 1294 2234 
L 1294 2753 
L 1863 2753 
Q 2328 2753 2575 2939 
Q 2822 3125 2822 3475 
Q 2822 3834 2567 4026 
Q 2313 4219 1838 4219 
Q 1578 4219 1281 4162 
Q 984 4106 628 3988 
L 628 4550 
Q 988 4650 1302 4700 
Q 1616 4750 1894 4750 
Q 2613 4750 3031 4423 
Q 3450 4097 3450 3541 
Q 3450 3153 3228 2886 
Q 3006 2619 2597 2516 
z
" transform="scale(0.015625)"/>
       </defs>
       <use xlink:href="#DejaVuSans-32"/>
       <use xlink:href="#DejaVuSans-30" x="63.623047"/>
       <use xlink:href="#DejaVuSans-32" x="127.246094"/>
       <use xlink:href="#DejaVuSans-33" x="190.869141"/>
       <use xlink:href="#DejaVuSans-2d" x="254.492188"/>
       <use xlink:href="#DejaVuSans-30" x="290.576172"/>
       <use xlink:href="#DejaVuSans-31" x="354.199219"/>
      </g>
     </g>
    </g>
    <g id="xtick_3">
     <g id="line2d_3">
      <g>
       <use xlink:href="#m31bf37e592" x="220.378182" y="139.392" style="stroke: #000000; stroke-width: 0.8"/>
      </g>
     </g>
     <g id="text_3">
      <!-- 2023-02 -->
      <g transform="translate(183.153361 173.863846)rotate(-30)scale(0.1 -0.1)">
       <use xlink:href="#DejaVuSans-32"/>
       <use xlink:href="#DejaVuSans-30" x="63.623047"/>
       <use xlink:href="#DejaVuSans-32" x="127.246094"/>
       <use xlink:href="#DejaVuSans-33" x="190.869141"/>
       <use xlink:href="#DejaVuSans-2d" x="254.492188"/>
       <use xlink:href="#DejaVuSans-30" x="290.576172"/>
       <use xlink:href="#DejaVuSans-32" x="354.199219"/>
      </g>
     </g>
    </g>
    <g id="xtick_4">
     <g id="line2d_4">
      <g>
       <use xlink:href="#m31bf37e592" x="283.505455" y="139.392" style="stroke: #000000; stroke-width: 0.8"/>
      </g>
     </g>
     <g id="text_4">
      <!-- 2023-03 -->
      <g transform="translate(246.280634 173.863846)rotate(-30)scale(0.1 -0.1)">
       <use xlink:href="#DejaVuSans-32"/>
       <use xlink:href="#DejaVuSans-30" x="63.623047"/>
       <use xlink:href="#DejaVuSans-32" x="127.246094"/>
       <use xlink:href="#DejaVuSans-33" x="190.869141"/>
       <use xlink:href="#DejaVuSans-2d" x="254.492188"/>
       <use xlink:href="#DejaVuSans-30" x="290.576172"/>
       <use xlink:href="#DejaVuSans-33" x="354.199219"/>
      </g>
     </g>
    </g>
    <g id="xtick_5">
     <g id="line2d_5">
      <g>
       <use xlink:href="#m31bf37e592" x="353.396364" y="139.392" style="stroke: #000000; stroke-width: 0.8"/>
      </g>
     </g>
     <g id="text_5">
      <!-- 2023-04 -->
      <g transform="translate(316.171543 173.863846)rotate(-30)scale(0.1 -0.1)">
       <defs>
        <path id="DejaVuSans-34" d="M 2419 4116 
L 825 1625 
L 2419 1625 
L 2419 4116 
z
M 2253 4666 
L 3047 4666 
L 3047 1625 
L 3713 1625 
L 3713 1100 
L 3047 1100 
L 3047 0 
L 2419 0 
L 2419 1100 
L 313 1100 
L 313 1709 
L 2253 4666 
z
" transform="scale(0.015625)"/>
       </defs>
       <use xlink:href="#DejaVuSans-32"/>
       <use xlink:href="#DejaVuSans-30" x="63.623047"/>
       <use xlink:href="#DejaVuSans-32" x="127.246094"/>
       <use xlink:href="#DejaVuSans-33" x="190.869141"/>
       <use xlink:href="#DejaVuSans-2d" x="254.492188"/>
       <use xlink:href="#DejaVuSans-30" x="290.576172"/>
       <use xlink:href="#DejaVuSans-34" x="354.199219"/>
      </g>
     </g>
    </g>
    <g id="text_6">
     <!-- Date -->
     <g transform="translate(224.209219 187.263346)scale(0.1 -0.1)">
      <defs>
       <path id="DejaVuSans-44" d="M 1259 4147 
L 1259 519 
L 2022 519 
Q 2988 519 3436 956 
Q 3884 1394 3884 2338 
Q 3884 3275 3436 3711 
Q 2988 4147 2022 4147 
L 1259 4147 
z
M 628 4666 
L 1925 4666 
Q 3281 4666 3915 4102 
Q 4550 3538 4550 2338 
Q 4550 1131 3912 565 
Q 3275 0 1925 0 
L 628 0 
L 628 4666 
z
" transform="scale(0.015625)"/>
       <path id="DejaVuSans-61" d="M 2194 1759 
Q 1497 1759 1228 1600 
Q 959 1441 959 1056 
Q 959 750 1161 570 
Q 1363 391 1709 391 
Q 2188 391 2477 730 
Q 2766 1069 2766 1631 
L 2766 1759 
L 2194 1759 
z
M 3341 1997 
L 3341 0 
L 2766 0 
L 2766 531 
Q 2569 213 2275 61 
Q 1981 -91 1556 -91 
Q 1019 -91 701 211 
Q 384 513 384 1019 
Q 384 1609 779 1909 
Q 1175 2209 1959 2209 
L 2766 2209 
L 2766 2266 
Q 2766 2663 2505 2880 
Q 2244 3097 1772 3097 
Q 1472 3097 1187 3025 
Q 903 2953 641 2809 
L 641 3341 
Q 956 3463 1253 3523 
Q 1550 3584 1831 3584 
Q 2591 3584 2966 3190 
Q 3341 2797 3341 1997 
z
" transform="scale(0.015625)"/>
       <path id="DejaVuSans-74" d="M 1172 4494 
L 1172 3500 
L 2356 3500 
L 2356 3053 
L 1172 3053 
L 1172 1153 
Q 1172 725 1289 603 
Q 1406 481 1766 481 
L 2356 481 
L 2356 0 
L 1766 0 
Q 1100 0 847 248 
Q 594 497 594 1153 
L 594 3053 
L 172 3053 
L 172 3500 
L 594 3500 
L 594 4494 
L 1172 4494 
z
" transform="scale(0.015625)"/>
       <path id="DejaVuSans-65" d="M 3597 1894 
L 3597 1613 
L 953 1613 
Q 991 1019 1311 708 
Q 1631 397 2203 397 
Q 2534 397 2845 478 
Q 3156 559 3463 722 
L 3463 178 
Q 3153 47 2828 -22 
Q 2503 -91 2169 -91 
Q 1331 -91 842 396 
Q 353 884 353 1716 
Q 353 2575 817 3079 
Q 1281 3584 2069 3584 
Q 2775 3584 3186 3129 
Q 3597 2675 3597 1894 
z
M 3022 2063 
Q 3016 2534 2758 2815 
Q 2500 3097 2075 3097 
Q 1594 3097 1305 2825 
Q 1016 2553 972 2059 
L 3022 2063 
z
" transform="scale(0.015625)"/>
      </defs>
      <use xlink:href="#DejaVuSans-44"/>
      <use xlink:href="#DejaVuSans-61" x="77.001953"/>
      <use xlink:href="#DejaVuSans-74" x="138.28125"/>
      <use xlink:href="#DejaVuSans-65" x="177.490234"/>
     </g>
    </g>
   </g>
   <g id="matplotlib.axis_2">
    <g id="ytick_1">
     <g id="line2d_6">
      <defs>
       <path id="m861db9ab94" d="M 0 0 
L -3.5 0 
" style="stroke: #000000; stroke-width: 0.8"/>
      </defs>
      <g>
       <use xlink:href="#m861db9ab94" x="57.6" y="136.29911" style="stroke: #000000; stroke-width: 0.8"/>
      </g>
     </g>
     <g id="text_7">
      <!-- 100 -->
      <g transform="translate(31.5125 140.098329)scale(0.1 -0.1)">
       <use xlink:href="#DejaVuSans-31"/>
       <use xlink:href="#DejaVuSans-30" x="63.623047"/>
       <use xlink:href="#DejaVuSans-30" x="127.246094"/>
      </g>
     </g>
    </g>
    <g id="ytick_2">
     <g id="line2d_7">
      <g>
       <use xlink:href="#m861db9ab94" x="57.6" y="109.138721" style="stroke: #000000; stroke-width: 0.8"/>
      </g>
     </g>
     <g id="text_8">
      <!-- 120 -->
      <g transform="translate(31.5125 112.937939)scale(0.1 -0.1)">
       <use xlink:href="#DejaVuSans-31"/>
       <use xlink:href="#DejaVuSans-32" x="63.623047"/>
       <use xlink:href="#DejaVuSans-30" x="127.246094"/>
      </g>
     </g>
    </g>
    <g id="ytick_3">
     <g id="line2d_8">
      <g>
       <use xlink:href="#m861db9ab94" x="57.6" y="81.978331" style="stroke: #000000; stroke-width: 0.8"/>
      </g>
     </g>
     <g id="text_9">
      <!-- 140 -->
      <g transform="translate(31.5125 85.777549)scale(0.1 -0.1)">
       <use xlink:href="#DejaVuSans-31"/>
       <use xlink:href="#DejaVuSans-34" x="63.623047"/>
       <use xlink:href="#DejaVuSans-30" x="127.246094"/>
      </g>
     </g>
    </g>
    <g id="ytick_4">
     <g id="line2d_9">
      <g>
       <use xlink:href="#m861db9ab94" x="57.6" y="54.817941" style="stroke: #000000; stroke-width: 0.8"/>
      </g>
     </g>
     <g id="text_10">
      <!-- 160 -->
      <g transform="translate(31.5125 58.61716)scale(0.1 -0.1)">
       <defs>
        <path id="DejaVuSans-36" d="M 2113 2584 
Q 1688 2584 1439 2293 
Q 1191 2003 1191 1497 
Q 1191 994 1439 701 
Q 1688 409 2113 409 
Q 2538 409 2786 701 
Q 3034 994 3034 1497 
Q 3034 2003 2786 2293 
Q 2538 2584 2113 2584 
z
M 3366 4563 
L 3366 3988 
Q 3128 4100 2886 4159 
Q 2644 4219 2406 4219 
Q 1781 4219 1451 3797 
Q 1122 3375 1075 2522 
Q 1259 2794 1537 2939 
Q 1816 3084 2150 3084 
Q 2853 3084 3261 2657 
Q 3669 2231 3669 1497 
Q 3669 778 3244 343 
Q 2819 -91 2113 -91 
Q 1303 -91 875 529 
Q 447 1150 447 2328 
Q 447 3434 972 4092 
Q 1497 4750 2381 4750 
Q 2619 4750 2861 4703 
Q 3103 4656 3366 4563 
z
" transform="scale(0.015625)"/>
       </defs>
       <use xlink:href="#DejaVuSans-31"/>
       <use xlink:href="#DejaVuSans-36" x="63.623047"/>
       <use xlink:href="#DejaVuSans-30" x="127.246094"/>
      </g>
     </g>
    </g>
    <g id="text_11">
     <!-- Stock Price -->
     <g transform="translate(25.432812 118.057)rotate(-90)scale(0.1 -0.1)">
      <defs>
       <path id="DejaVuSans-53" d="M 3425 4513 
L 3425 3897 
Q 3066 4069 2747 4153 
Q 2428 4238 2131 4238 
Q 1616 4238 1336 4038 
Q 1056 3838 1056 3469 
Q 1056 3159 1242 3001 
Q 1428 2844 1947 2747 
L 2328 2669 
Q 3034 2534 3370 2195 
Q 3706 1856 3706 1288 
Q 3706 609 3251 259 
Q 2797 -91 1919 -91 
Q 1588 -91 1214 -16 
Q 841 59 441 206 
L 441 856 
Q 825 641 1194 531 
Q 1563 422 1919 422 
Q 2459 422 2753 634 
Q 3047 847 3047 1241 
Q 3047 1584 2836 1778 
Q 2625 1972 2144 2069 
L 1759 2144 
Q 1053 2284 737 2584 
Q 422 2884 422 3419 
Q 422 4038 858 4394 
Q 1294 4750 2059 4750 
Q 2388 4750 2728 4690 
Q 3069 4631 3425 4513 
z
" transform="scale(0.015625)"/>
       <path id="DejaVuSans-6f" d="M 1959 3097 
Q 1497 3097 1228 2736 
Q 959 2375 959 1747 
Q 959 1119 1226 758 
Q 1494 397 1959 397 
Q 2419 397 2687 759 
Q 2956 1122 2956 1747 
Q 2956 2369 2687 2733 
Q 2419 3097 1959 3097 
z
M 1959 3584 
Q 2709 3584 3137 3096 
Q 3566 2609 3566 1747 
Q 3566 888 3137 398 
Q 2709 -91 1959 -91 
Q 1206 -91 779 398 
Q 353 888 353 1747 
Q 353 2609 779 3096 
Q 1206 3584 1959 3584 
z
" transform="scale(0.015625)"/>
       <path id="DejaVuSans-63" d="M 3122 3366 
L 3122 2828 
Q 2878 2963 2633 3030 
Q 2388 3097 2138 3097 
Q 1578 3097 1268 2742 
Q 959 2388 959 1747 
Q 959 1106 1268 751 
Q 1578 397 2138 397 
Q 2388 397 2633 464 
Q 2878 531 3122 666 
L 3122 134 
Q 2881 22 2623 -34 
Q 2366 -91 2075 -91 
Q 1284 -91 818 406 
Q 353 903 353 1747 
Q 353 2603 823 3093 
Q 1294 3584 2113 3584 
Q 2378 3584 2631 3529 
Q 2884 3475 3122 3366 
z
" transform="scale(0.015625)"/>
       <path id="DejaVuSans-6b" d="M 581 4863 
L 1159 4863 
L 1159 1991 
L 2875 3500 
L 3609 3500 
L 1753 1863 
L 3688 0 
L 2938 0 
L 1159 1709 
L 1159 0 
L 581 0 
L 581 4863 
z
" transform="scale(0.015625)"/>
       <path id="DejaVuSans-20" transform="scale(0.015625)"/>
       <path id="DejaVuSans-50" d="M 1259 4147 
L 1259 2394 
L 2053 2394 
Q 2494 2394 2734 2622 
Q 2975 2850 2975 3272 
Q 2975 3691 2734 3919 
Q 2494 4147 2053 4147 
L 1259 4147 
z
M 628 4666 
L 2053 4666 
Q 2838 4666 3239 4311 
Q 3641 3956 3641 3272 
Q 3641 2581 3239 2228 
Q 2838 1875 2053 1875 
L 1259 1875 
L 1259 0 
L 628 0 
L 628 4666 
z
" transform="scale(0.015625)"/>
       <path id="DejaVuSans-72" d="M 2631 2963 
Q 2534 3019 2420 3045 
Q 2306 3072 2169 3072 
Q 1681 3072 1420 2755 
Q 1159 2438 1159 1844 
L 1159 0 
L 581 0 
L 581 3500 
L 1159 3500 
L 1159 2956 
Q 1341 3275 1631 3429 
Q 1922 3584 2338 3584 
Q 2397 3584 2469 3576 
Q 2541 3569 2628 3553 
L 2631 2963 
z
" transform="scale(0.015625)"/>
       <path id="DejaVuSans-69" d="M 603 3500 
L 1178 3500 
L 1178 0 
L 603 0 
L 603 3500 
z
M 603 4863 
L 1178 4863 
L 1178 4134 
L 603 4134 
L 603 4863 
z
" transform="scale(0.015625)"/>
      </defs>
      <use xlink:href="#DejaVuSans-53"/>
      <use xlink:href="#DejaVuSans-74" x="63.476562"/>
      <use xlink:href="#DejaVuSans-6f" x="102.685547"/>
      <use xlink:href="#DejaVuSans-63" x="163.867188"/>
      <use xlink:href="#DejaVuSans-6b" x="218.847656"/>
      <use xlink:href="#DejaVuSans-20" x="276.757812"/>
      <use xlink:href="#DejaVuSans-50" x="308.544922"/>
      <use xlink:href="#DejaVuSans-72" x="367.097656"/>
      <use xlink:href="#DejaVuSans-69" x="408.210938"/>
      <use xlink:href="#DejaVuSans-63" x="435.994141"/>
      <use xlink:href="#DejaVuSans-65" x="490.974609"/>
     </g>
    </g>
   </g>
   <g id="line2d_10">
    <path d="M 73.832727 102.837511 
L 76.087273 100.814065 
L 78.341818 101.031343 
L 80.596364 101.004187 
L 82.850909 99.646167 
L 89.614545 102.851094 
L 91.869091 102.918989 
L 94.123636 100.515299 
L 96.378182 100.990604 
L 98.632727 101.316525 
L 105.396364 99.836289 
L 107.650909 99.238757 
L 109.905455 100.868387 
L 112.16 105.906638 
L 114.414545 106.843664 
L 121.178182 106.246143 
L 123.432727 108.038728 
L 125.687273 104.439974 
L 127.941818 106.979475 
L 130.196364 108.948599 
L 139.214545 108.839955 
L 141.469091 111.460933 
L 143.723636 108.36465 
L 145.978182 109.247365 
L 154.996364 105.784411 
L 157.250909 102.144918 
L 159.505455 105.118984 
L 161.76 100.012828 
L 168.523636 99.917767 
L 170.778182 98.098015 
L 173.032727 96.753589 
L 175.287273 96.44123 
L 177.541818 96.223963 
L 186.56 100.175794 
L 188.814545 105.404167 
L 191.069091 111.270811 
L 193.323636 108.256006 
L 200.087273 105.580706 
L 202.341818 115.928818 
L 204.596364 118.739918 
L 206.850909 117.897942 
L 209.105455 115.589313 
L 215.869091 119.215223 
L 218.123636 115.820174 
L 220.378182 114.76092 
L 222.632727 108.744894 
L 224.887273 112.547352 
L 231.650909 113.891789 
L 233.905455 113.348579 
L 236.16 115.589313 
L 238.414545 118.739918 
L 240.669091 117.449804 
L 247.432727 115.548574 
L 249.687273 117.001655 
L 251.941818 116.214001 
L 254.196364 120.002877 
L 256.450909 118.65844 
L 265.469091 123.73743 
L 267.723636 124.158413 
L 269.978182 124.199152 
L 272.232727 125.706554 
L 278.996364 125.068294 
L 281.250909 125.788042 
L 283.505455 122.433733 
L 285.76 122.854715 
L 288.014545 121.007808 
L 294.778182 122.813976 
L 297.032727 126.670757 
L 299.287273 126.575686 
L 301.541818 128.802847 
L 303.796364 130.785555 
L 310.56 131.546042 
L 312.814545 132.523818 
L 315.069091 132.523818 
L 317.323636 130.58185 
L 319.578182 132.197896 
L 326.341818 130.44605 
L 328.596364 130.473206 
L 330.850909 134.207759 
L 333.105455 134.941091 
L 335.36 134.750969 
L 342.123636 134.275664 
L 344.378182 133.936159 
L 346.632727 131.967025 
L 348.887273 132.523818 
L 351.141818 129.35963 
L 357.905455 130.092962 
L 360.16 133.243567 
L 362.414545 133.189245 
L 364.669091 134.180603 
L 373.687273 132.550974 
L 375.941818 130.106545 
L 378.196364 130.364561 
L 380.450909 127.947288 
L 382.705455 128.463342 
L 389.469091 127.09174 
L 391.723636 127.784333 
L 393.978182 128.042349 
L 396.232727 129.875674 
L 398.487273 130.215179 
" clip-path="url(#p9d9cfeb829)" style="fill: none; stroke: #1f77b4; stroke-width: 1.5; stroke-linecap: square"/>
   </g>
   <g id="line2d_11">
    <path d="M 73.832727 56.950041 
L 76.087273 57.26238 
L 78.341818 53.215488 
L 80.596364 52.604363 
L 82.850909 49.847585 
L 89.614545 49.467341 
L 91.869091 49.766107 
L 94.123636 47.484644 
L 96.378182 46.683397 
L 98.632727 50.662405 
L 105.396364 47.593267 
L 107.650909 48.313037 
L 109.905455 48.217965 
L 112.16 50.608072 
L 114.414545 54.166097 
L 121.178182 52.794484 
L 123.432727 54.030287 
L 125.687273 51.816709 
L 127.941818 50.377211 
L 130.196364 50.608072 
L 139.214545 50.757455 
L 141.469091 51.789563 
L 143.723636 51.341414 
L 145.978182 52.631529 
L 154.996364 51.585848 
L 157.250909 49.806846 
L 159.505455 50.078445 
L 161.76 45.922909 
L 168.523636 52.563624 
L 170.778182 55.306829 
L 173.032727 58.661139 
L 175.287273 65.383331 
L 177.541818 63.509257 
L 186.56 64.554938 
L 188.814545 69.484556 
L 191.069091 70.149972 
L 193.323636 68.954929 
L 200.087273 70.36726 
L 202.341818 71.535158 
L 204.596364 71.399368 
L 206.850909 71.928995 
L 209.105455 73.44997 
L 215.869091 74.305529 
L 218.123636 71.45368 
L 220.378182 73.015394 
L 222.632727 75.405521 
L 224.887273 74.916634 
L 231.650909 75.161067 
L 233.905455 74.998111 
L 236.16 75.71786 
L 238.414545 70.163565 
L 240.669091 65.614192 
L 247.432727 63.332729 
L 249.687273 64.88087 
L 251.941818 66.958638 
L 254.196364 69.036407 
L 256.450909 66.619134 
L 265.469091 65.682097 
L 267.723636 67.488265 
L 269.978182 65.587026 
L 272.232727 64.717894 
L 278.996364 62.585814 
L 281.250909 63.101868 
L 283.505455 61.241367 
L 285.76 62.450004 
L 288.014545 60.168541 
L 294.778182 61.227795 
L 297.032727 64.419149 
L 299.287273 68.941335 
L 301.541818 71.996879 
L 303.796364 68.791952 
L 310.56 65.750002 
L 312.814545 63.169752 
L 315.069091 62.88458 
L 317.323636 61.200628 
L 319.578182 62.667292 
L 326.341818 60.087063 
L 328.596364 59.204338 
L 330.850909 63.414207 
L 333.105455 61.200628 
L 335.36 57.506814 
L 342.123636 58.158678 
L 344.378182 57.194475 
L 346.632727 57.53398 
L 348.887273 57.642624 
L 351.141818 55.6735 
L 357.905455 54.247575 
L 360.16 55.116707 
L 362.414545 53.731521 
L 364.669091 52.713007 
L 373.687273 53.079678 
L 375.941818 52.943867 
L 378.196364 51.613014 
L 380.450909 51.164865 
L 382.705455 52.658695 
L 389.469091 53.215488 
L 391.723636 55.374734 
L 393.978182 53.174728 
L 396.232727 52.45498 
L 398.487273 51.545109 
" clip-path="url(#p9d9cfeb829)" style="fill: none; stroke: #ff7f0e; stroke-width: 1.5; stroke-linecap: square"/>
   </g>
   <g id="patch_3">
    <path d="M 57.6 139.392 
L 57.6 41.472 
" style="fill: none; stroke: #000000; stroke-width: 0.8; stroke-linejoin: miter; stroke-linecap: square"/>
   </g>
   <g id="patch_4">
    <path d="M 414.72 139.392 
L 414.72 41.472 
" style="fill: none; stroke: #000000; stroke-width: 0.8; stroke-linejoin: miter; stroke-linecap: square"/>
   </g>
   <g id="patch_5">
    <path d="M 57.6 139.392 
L 414.72 139.392 
" style="fill: none; stroke: #000000; stroke-width: 0.8; stroke-linejoin: miter; stroke-linecap: square"/>
   </g>
   <g id="patch_6">
    <path d="M 57.6 41.472 
L 414.72 41.472 
" style="fill: none; stroke: #000000; stroke-width: 0.8; stroke-linejoin: miter; stroke-linecap: square"/>
   </g>
   <g id="text_12">
    <!-- Correlation of Stock EOD Closing Prices -->
    <g transform="translate(118.324687 35.472)scale(0.12 -0.12)">
     <defs>
      <path id="DejaVuSans-43" d="M 4122 4306 
L 4122 3641 
Q 3803 3938 3442 4084 
Q 3081 4231 2675 4231 
Q 1875 4231 1450 3742 
Q 1025 3253 1025 2328 
Q 1025 1406 1450 917 
Q 1875 428 2675 428 
Q 3081 428 3442 575 
Q 3803 722 4122 1019 
L 4122 359 
Q 3791 134 3420 21 
Q 3050 -91 2638 -91 
Q 1578 -91 968 557 
Q 359 1206 359 2328 
Q 359 3453 968 4101 
Q 1578 4750 2638 4750 
Q 3056 4750 3426 4639 
Q 3797 4528 4122 4306 
z
" transform="scale(0.015625)"/>
      <path id="DejaVuSans-6c" d="M 603 4863 
L 1178 4863 
L 1178 0 
L 603 0 
L 603 4863 
z
" transform="scale(0.015625)"/>
      <path id="DejaVuSans-6e" d="M 3513 2113 
L 3513 0 
L 2938 0 
L 2938 2094 
Q 2938 2591 2744 2837 
Q 2550 3084 2163 3084 
Q 1697 3084 1428 2787 
Q 1159 2491 1159 1978 
L 1159 0 
L 581 0 
L 581 3500 
L 1159 3500 
L 1159 2956 
Q 1366 3272 1645 3428 
Q 1925 3584 2291 3584 
Q 2894 3584 3203 3211 
Q 3513 2838 3513 2113 
z
" transform="scale(0.015625)"/>
      <path id="DejaVuSans-66" d="M 2375 4863 
L 2375 4384 
L 1825 4384 
Q 1516 4384 1395 4259 
Q 1275 4134 1275 3809 
L 1275 3500 
L 2222 3500 
L 2222 3053 
L 1275 3053 
L 1275 0 
L 697 0 
L 697 3053 
L 147 3053 
L 147 3500 
L 697 3500 
L 697 3744 
Q 697 4328 969 4595 
Q 1241 4863 1831 4863 
L 2375 4863 
z
" transform="scale(0.015625)"/>
      <path id="DejaVuSans-45" d="M 628 4666 
L 3578 4666 
L 3578 4134 
L 1259 4134 
L 1259 2753 
L 3481 2753 
L 3481 2222 
L 1259 2222 
L 1259 531 
L 3634 531 
L 3634 0 
L 628 0 
L 628 4666 
z
" transform="scale(0.015625)"/>
      <path id="DejaVuSans-4f" d="M 2522 4238 
Q 1834 4238 1429 3725 
Q 1025 3213 1025 2328 
Q 1025 1447 1429 934 
Q 1834 422 2522 422 
Q 3209 422 3611 934 
Q 4013 1447 4013 2328 
Q 4013 3213 3611 3725 
Q 3209 4238 2522 4238 
z
M 2522 4750 
Q 3503 4750 4090 4092 
Q 4678 3434 4678 2328 
Q 4678 1225 4090 567 
Q 3503 -91 2522 -91 
Q 1538 -91 948 565 
Q 359 1222 359 2328 
Q 359 3434 948 4092 
Q 1538 4750 2522 4750 
z
" transform="scale(0.015625)"/>
      <path id="DejaVuSans-73" d="M 2834 3397 
L 2834 2853 
Q 2591 2978 2328 3040 
Q 2066 3103 1784 3103 
Q 1356 3103 1142 2972 
Q 928 2841 928 2578 
Q 928 2378 1081 2264 
Q 1234 2150 1697 2047 
L 1894 2003 
Q 2506 1872 2764 1633 
Q 3022 1394 3022 966 
Q 3022 478 2636 193 
Q 2250 -91 1575 -91 
Q 1294 -91 989 -36 
Q 684 19 347 128 
L 347 722 
Q 666 556 975 473 
Q 1284 391 1588 391 
Q 1994 391 2212 530 
Q 2431 669 2431 922 
Q 2431 1156 2273 1281 
Q 2116 1406 1581 1522 
L 1381 1569 
Q 847 1681 609 1914 
Q 372 2147 372 2553 
Q 372 3047 722 3315 
Q 1072 3584 1716 3584 
Q 2034 3584 2315 3537 
Q 2597 3491 2834 3397 
z
" transform="scale(0.015625)"/>
      <path id="DejaVuSans-67" d="M 2906 1791 
Q 2906 2416 2648 2759 
Q 2391 3103 1925 3103 
Q 1463 3103 1205 2759 
Q 947 2416 947 1791 
Q 947 1169 1205 825 
Q 1463 481 1925 481 
Q 2391 481 2648 825 
Q 2906 1169 2906 1791 
z
M 3481 434 
Q 3481 -459 3084 -895 
Q 2688 -1331 1869 -1331 
Q 1566 -1331 1297 -1286 
Q 1028 -1241 775 -1147 
L 775 -588 
Q 1028 -725 1275 -790 
Q 1522 -856 1778 -856 
Q 2344 -856 2625 -561 
Q 2906 -266 2906 331 
L 2906 616 
Q 2728 306 2450 153 
Q 2172 0 1784 0 
Q 1141 0 747 490 
Q 353 981 353 1791 
Q 353 2603 747 3093 
Q 1141 3584 1784 3584 
Q 2172 3584 2450 3431 
Q 2728 3278 2906 2969 
L 2906 3500 
L 3481 3500 
L 3481 434 
z
" transform="scale(0.015625)"/>
     </defs>
     <use xlink:href="#DejaVuSans-43"/>
     <use xlink:href="#DejaVuSans-6f" x="69.824219"/>
     <use xlink:href="#DejaVuSans-72" x="131.005859"/>
     <use xlink:href="#DejaVuSans-72" x="170.369141"/>
     <use xlink:href="#DejaVuSans-65" x="209.232422"/>
     <use xlink:href="#DejaVuSans-6c" x="270.755859"/>
     <use xlink:href="#DejaVuSans-61" x="298.539062"/>
     <use xlink:href="#DejaVuSans-74" x="359.818359"/>
     <use xlink:href="#DejaVuSans-69" x="399.027344"/>
     <use xlink:href="#DejaVuSans-6f" x="426.810547"/>
     <use xlink:href="#DejaVuSans-6e" x="487.992188"/>
     <use xlink:href="#DejaVuSans-20" x="551.371094"/>
     <use xlink:href="#DejaVuSans-6f" x="583.158203"/>
     <use xlink:href="#DejaVuSans-66" x="644.339844"/>
     <use xlink:href="#DejaVuSans-20" x="679.544922"/>
     <use xlink:href="#DejaVuSans-53" x="711.332031"/>
     <use xlink:href="#DejaVuSans-74" x="774.808594"/>
     <use xlink:href="#DejaVuSans-6f" x="814.017578"/>
     <use xlink:href="#DejaVuSans-63" x="875.199219"/>
     <use xlink:href="#DejaVuSans-6b" x="930.179688"/>
     <use xlink:href="#DejaVuSans-20" x="988.089844"/>
     <use xlink:href="#DejaVuSans-45" x="1019.876953"/>
     <use xlink:href="#DejaVuSans-4f" x="1083.060547"/>
     <use xlink:href="#DejaVuSans-44" x="1161.771484"/>
     <use xlink:href="#DejaVuSans-20" x="1238.773438"/>
     <use xlink:href="#DejaVuSans-43" x="1270.560547"/>
     <use xlink:href="#DejaVuSans-6c" x="1340.384766"/>
     <use xlink:href="#DejaVuSans-6f" x="1368.167969"/>
     <use xlink:href="#DejaVuSans-73" x="1429.349609"/>
     <use xlink:href="#DejaVuSans-69" x="1481.449219"/>
     <use xlink:href="#DejaVuSans-6e" x="1509.232422"/>
     <use xlink:href="#DejaVuSans-67" x="1572.611328"/>
     <use xlink:href="#DejaVuSans-20" x="1636.087891"/>
     <use xlink:href="#DejaVuSans-50" x="1667.875"/>
     <use xlink:href="#DejaVuSans-72" x="1726.427734"/>
     <use xlink:href="#DejaVuSans-69" x="1767.541016"/>
     <use xlink:href="#DejaVuSans-63" x="1795.324219"/>
     <use xlink:href="#DejaVuSans-65" x="1850.304688"/>
     <use xlink:href="#DejaVuSans-73" x="1911.828125"/>
    </g>
   </g>
  </g>
  <g id="axes_2">
   <g id="patch_7">
    <path d="M 57.6 276.48 
L 414.72 276.48 
L 414.72 178.56 
L 57.6 178.56 
z
" style="fill: #ffffff"/>
   </g>
   <g id="matplotlib.axis_3">
    <g id="xtick_6">
     <g id="line2d_12">
      <g>
       <use xlink:href="#m31bf37e592" x="80.596364" y="276.48" style="stroke: #000000; stroke-width: 0.8"/>
      </g>
     </g>
     <g id="text_13">
      <!-- 2022-12 -->
      <g transform="translate(43.371543 310.951846)rotate(-30)scale(0.1 -0.1)">
       <use xlink:href="#DejaVuSans-32"/>
       <use xlink:href="#DejaVuSans-30" x="63.623047"/>
       <use xlink:href="#DejaVuSans-32" x="127.246094"/>
       <use xlink:href="#DejaVuSans-32" x="190.869141"/>
       <use xlink:href="#DejaVuSans-2d" x="254.492188"/>
       <use xlink:href="#DejaVuSans-31" x="290.576172"/>
       <use xlink:href="#DejaVuSans-32" x="354.199219"/>
      </g>
     </g>
    </g>
    <g id="xtick_7">
     <g id="line2d_13">
      <g>
       <use xlink:href="#m31bf37e592" x="150.487273" y="276.48" style="stroke: #000000; stroke-width: 0.8"/>
      </g>
     </g>
     <g id="text_14">
      <!-- 2023-01 -->
      <g transform="translate(113.262452 310.951846)rotate(-30)scale(0.1 -0.1)">
       <use xlink:href="#DejaVuSans-32"/>
       <use xlink:href="#DejaVuSans-30" x="63.623047"/>
       <use xlink:href="#DejaVuSans-32" x="127.246094"/>
       <use xlink:href="#DejaVuSans-33" x="190.869141"/>
       <use xlink:href="#DejaVuSans-2d" x="254.492188"/>
       <use xlink:href="#DejaVuSans-30" x="290.576172"/>
       <use xlink:href="#DejaVuSans-31" x="354.199219"/>
      </g>
     </g>
    </g>
    <g id="xtick_8">
     <g id="line2d_14">
      <g>
       <use xlink:href="#m31bf37e592" x="220.378182" y="276.48" style="stroke: #000000; stroke-width: 0.8"/>
      </g>
     </g>
     <g id="text_15">
      <!-- 2023-02 -->
      <g transform="translate(183.153361 310.951846)rotate(-30)scale(0.1 -0.1)">
       <use xlink:href="#DejaVuSans-32"/>
       <use xlink:href="#DejaVuSans-30" x="63.623047"/>
       <use xlink:href="#DejaVuSans-32" x="127.246094"/>
       <use xlink:href="#DejaVuSans-33" x="190.869141"/>
       <use xlink:href="#DejaVuSans-2d" x="254.492188"/>
       <use xlink:href="#DejaVuSans-30" x="290.576172"/>
       <use xlink:href="#DejaVuSans-32" x="354.199219"/>
      </g>
     </g>
    </g>
    <g id="xtick_9">
     <g id="line2d_15">
      <g>
       <use xlink:href="#m31bf37e592" x="283.505455" y="276.48" style="stroke: #000000; stroke-width: 0.8"/>
      </g>
     </g>
     <g id="text_16">
      <!-- 2023-03 -->
      <g transform="translate(246.280634 310.951846)rotate(-30)scale(0.1 -0.1)">
       <use xlink:href="#DejaVuSans-32"/>
       <use xlink:href="#DejaVuSans-30" x="63.623047"/>
       <use xlink:href="#DejaVuSans-32" x="127.246094"/>
       <use xlink:href="#DejaVuSans-33" x="190.869141"/>
       <use xlink:href="#DejaVuSans-2d" x="254.492188"/>
       <use xlink:href="#DejaVuSans-30" x="290.576172"/>
       <use xlink:href="#DejaVuSans-33" x="354.199219"/>
      </g>
     </g>
    </g>
    <g id="xtick_10">
     <g id="line2d_16">
      <g>
       <use xlink:href="#m31bf37e592" x="353.396364" y="276.48" style="stroke: #000000; stroke-width: 0.8"/>
      </g>
     </g>
     <g id="text_17">
      <!-- 2023-04 -->
      <g transform="translate(316.171543 310.951846)rotate(-30)scale(0.1 -0.1)">
       <use xlink:href="#DejaVuSans-32"/>
       <use xlink:href="#DejaVuSans-30" x="63.623047"/>
       <use xlink:href="#DejaVuSans-32" x="127.246094"/>
       <use xlink:href="#DejaVuSans-33" x="190.869141"/>
       <use xlink:href="#DejaVuSans-2d" x="254.492188"/>
       <use xlink:href="#DejaVuSans-30" x="290.576172"/>
       <use xlink:href="#DejaVuSans-34" x="354.199219"/>
      </g>
     </g>
    </g>
    <g id="text_18">
     <!-- Date -->
     <g transform="translate(224.209219 324.351346)scale(0.1 -0.1)">
      <use xlink:href="#DejaVuSans-44"/>
      <use xlink:href="#DejaVuSans-61" x="77.001953"/>
      <use xlink:href="#DejaVuSans-74" x="138.28125"/>
      <use xlink:href="#DejaVuSans-65" x="177.490234"/>
     </g>
    </g>
   </g>
   <g id="matplotlib.axis_4">
    <g id="ytick_5">
     <g id="line2d_17">
      <g>
       <use xlink:href="#m861db9ab94" x="57.6" y="275.597978" style="stroke: #000000; stroke-width: 0.8"/>
      </g>
     </g>
     <g id="text_19">
      <!-- 0 -->
      <g transform="translate(44.2375 279.397196)scale(0.1 -0.1)">
       <use xlink:href="#DejaVuSans-30"/>
      </g>
     </g>
    </g>
    <g id="ytick_6">
     <g id="line2d_18">
      <g>
       <use xlink:href="#m861db9ab94" x="57.6" y="232.288874" style="stroke: #000000; stroke-width: 0.8"/>
      </g>
     </g>
     <g id="text_20">
      <!-- 2 -->
      <g transform="translate(44.2375 236.088092)scale(0.1 -0.1)">
       <use xlink:href="#DejaVuSans-32"/>
      </g>
     </g>
    </g>
    <g id="ytick_7">
     <g id="line2d_19">
      <g>
       <use xlink:href="#m861db9ab94" x="57.6" y="188.97977" style="stroke: #000000; stroke-width: 0.8"/>
      </g>
     </g>
     <g id="text_21">
      <!-- 4 -->
      <g transform="translate(44.2375 192.778989)scale(0.1 -0.1)">
       <use xlink:href="#DejaVuSans-34"/>
      </g>
     </g>
    </g>
    <g id="text_22">
     <!-- Stock Volume -->
     <g transform="translate(38.157812 261.544219)rotate(-90)scale(0.1 -0.1)">
      <defs>
       <path id="DejaVuSans-56" d="M 1831 0 
L 50 4666 
L 709 4666 
L 2188 738 
L 3669 4666 
L 4325 4666 
L 2547 0 
L 1831 0 
z
" transform="scale(0.015625)"/>
       <path id="DejaVuSans-75" d="M 544 1381 
L 544 3500 
L 1119 3500 
L 1119 1403 
Q 1119 906 1312 657 
Q 1506 409 1894 409 
Q 2359 409 2629 706 
Q 2900 1003 2900 1516 
L 2900 3500 
L 3475 3500 
L 3475 0 
L 2900 0 
L 2900 538 
Q 2691 219 2414 64 
Q 2138 -91 1772 -91 
Q 1169 -91 856 284 
Q 544 659 544 1381 
z
M 1991 3584 
L 1991 3584 
z
" transform="scale(0.015625)"/>
       <path id="DejaVuSans-6d" d="M 3328 2828 
Q 3544 3216 3844 3400 
Q 4144 3584 4550 3584 
Q 5097 3584 5394 3201 
Q 5691 2819 5691 2113 
L 5691 0 
L 5113 0 
L 5113 2094 
Q 5113 2597 4934 2840 
Q 4756 3084 4391 3084 
Q 3944 3084 3684 2787 
Q 3425 2491 3425 1978 
L 3425 0 
L 2847 0 
L 2847 2094 
Q 2847 2600 2669 2842 
Q 2491 3084 2119 3084 
Q 1678 3084 1418 2786 
Q 1159 2488 1159 1978 
L 1159 0 
L 581 0 
L 581 3500 
L 1159 3500 
L 1159 2956 
Q 1356 3278 1631 3431 
Q 1906 3584 2284 3584 
Q 2666 3584 2933 3390 
Q 3200 3197 3328 2828 
z
" transform="scale(0.015625)"/>
      </defs>
      <use xlink:href="#DejaVuSans-53"/>
      <use xlink:href="#DejaVuSans-74" x="63.476562"/>
      <use xlink:href="#DejaVuSans-6f" x="102.685547"/>
      <use xlink:href="#DejaVuSans-63" x="163.867188"/>
      <use xlink:href="#DejaVuSans-6b" x="218.847656"/>
      <use xlink:href="#DejaVuSans-20" x="276.757812"/>
      <use xlink:href="#DejaVuSans-56" x="308.544922"/>
      <use xlink:href="#DejaVuSans-6f" x="369.203125"/>
      <use xlink:href="#DejaVuSans-6c" x="430.384766"/>
      <use xlink:href="#DejaVuSans-75" x="458.167969"/>
      <use xlink:href="#DejaVuSans-6d" x="521.546875"/>
      <use xlink:href="#DejaVuSans-65" x="618.958984"/>
     </g>
    </g>
    <g id="text_23">
     <!-- 1e7 -->
     <g transform="translate(57.6 175.56)scale(0.1 -0.1)">
      <defs>
       <path id="DejaVuSans-37" d="M 525 4666 
L 3525 4666 
L 3525 4397 
L 1831 0 
L 1172 0 
L 2766 4134 
L 525 4134 
L 525 4666 
z
" transform="scale(0.015625)"/>
      </defs>
      <use xlink:href="#DejaVuSans-31"/>
      <use xlink:href="#DejaVuSans-65" x="63.623047"/>
      <use xlink:href="#DejaVuSans-37" x="125.146484"/>
     </g>
    </g>
   </g>
   <g id="line2d_20">
    <path d="M 73.832727 269.592088 
L 76.087273 271.563518 
L 78.341818 262.972075 
L 80.596364 269.883774 
L 82.850909 271.652735 
L 89.614545 270.957191 
L 91.869091 271.441386 
L 94.123636 269.748 
L 96.378182 267.40108 
L 98.632727 270.541856 
L 105.396364 267.200775 
L 107.650909 268.545307 
L 109.905455 268.894378 
L 112.16 268.372936 
L 114.414545 259.140951 
L 121.178182 270.31405 
L 123.432727 269.311661 
L 125.687273 270.015218 
L 127.941818 270.859095 
L 130.196364 269.947655 
L 139.214545 271.675905 
L 141.469091 271.35152 
L 143.723636 271.135408 
L 145.978182 271.059184 
L 154.996364 269.940076 
L 157.250909 269.600316 
L 159.505455 269.953502 
L 161.76 270.364072 
L 168.523636 269.380306 
L 170.778182 272.029091 
L 173.032727 271.237834 
L 175.287273 271.614623 
L 177.541818 271.930996 
L 186.56 267.995281 
L 188.814545 266.376387 
L 191.069091 264.81466 
L 193.323636 266.127359 
L 200.087273 268.209011 
L 202.341818 253.344677 
L 204.596364 262.619972 
L 206.850909 265.581448 
L 209.105455 266.688212 
L 215.869091 262.815512 
L 218.123636 264.616521 
L 220.378182 268.883334 
L 222.632727 264.950001 
L 224.887273 269.789361 
L 231.650909 270.211841 
L 233.905455 270.871439 
L 236.16 270.159004 
L 238.414545 267.798225 
L 240.669091 270.67265 
L 247.432727 270.730901 
L 249.687273 270.265977 
L 251.941818 270.125223 
L 254.196364 269.761859 
L 256.450909 269.47472 
L 265.469091 267.176306 
L 267.723636 269.848694 
L 269.978182 269.223311 
L 272.232727 269.398496 
L 278.996364 267.897619 
L 281.250909 268.277656 
L 283.505455 264.955415 
L 285.76 259.163689 
L 288.014545 269.013261 
L 294.778182 269.489662 
L 297.032727 268.29433 
L 299.287273 268.160289 
L 301.541818 268.09749 
L 303.796364 267.599003 
L 310.56 266.479029 
L 312.814545 265.264425 
L 315.069091 265.00522 
L 317.323636 267.710091 
L 319.578182 250.942754 
L 326.341818 269.703825 
L 328.596364 269.916689 
L 330.850909 269.522793 
L 333.105455 268.717677 
L 335.36 267.904332 
L 342.123636 269.540333 
L 344.378182 270.264895 
L 346.632727 268.621747 
L 348.887273 270.509808 
L 351.141818 267.781551 
L 357.905455 266.898694 
L 360.16 268.076702 
L 362.414545 269.85519 
L 364.669091 270.359308 
L 373.687273 269.361034 
L 375.941818 269.205554 
L 378.196364 269.697545 
L 380.450909 268.159206 
L 382.705455 269.551161 
L 389.469091 270.327043 
L 391.723636 271.457411 
L 393.978182 271.444635 
L 396.232727 267.595971 
L 398.487273 261.757471 
" clip-path="url(#p227162b05d)" style="fill: none; stroke: #1f77b4; stroke-width: 1.5; stroke-linecap: square"/>
   </g>
   <g id="line2d_21">
    <path d="M 73.832727 267.146639 
L 76.087273 267.609613 
L 78.341818 248.870847 
L 80.596364 262.978138 
L 82.850909 266.27591 
L 89.614545 265.075165 
L 91.869091 263.730417 
L 94.123636 265.55503 
L 96.378182 266.341956 
L 98.632727 265.539871 
L 105.396364 266.699256 
L 107.650909 264.661563 
L 109.905455 265.885045 
L 112.16 264.18971 
L 114.414545 234.658964 
L 121.178182 266.863831 
L 123.432727 266.457591 
L 125.687273 267.570202 
L 127.941818 267.789346 
L 130.196364 269.783514 
L 139.214545 269.817945 
L 141.469091 269.221795 
L 143.723636 268.857998 
L 145.978182 267.628236 
L 154.996364 264.906043 
L 157.250909 265.98249 
L 159.505455 267.984237 
L 161.76 264.556105 
L 168.523636 258.635967 
L 170.778182 262.743402 
L 173.032727 259.374387 
L 175.287273 258.999547 
L 177.541818 262.563453 
L 186.56 257.17645 
L 188.814545 262.192078 
L 191.069091 260.07188 
L 193.323636 260.312029 
L 200.087273 259.105005 
L 202.341818 264.399543 
L 204.596364 263.158953 
L 206.850909 265.684957 
L 209.105455 265.65529 
L 215.869091 265.694485 
L 218.123636 263.40928 
L 220.378182 263.818118 
L 222.632727 262.257041 
L 224.887273 261.40775 
L 231.650909 266.293017 
L 233.905455 263.900405 
L 236.16 263.138382 
L 238.414545 249.142828 
L 240.669091 256.202645 
L 247.432727 263.465798 
L 249.687273 265.500893 
L 251.941818 263.36727 
L 254.196364 267.46128 
L 256.450909 265.718305 
L 265.469091 257.265017 
L 267.723636 262.514947 
L 269.978182 262.619755 
L 272.232727 263.425737 
L 278.996364 260.810517 
L 281.250909 259.223455 
L 283.505455 263.718724 
L 285.76 265.706611 
L 288.014545 265.092921 
L 294.778182 266.82377 
L 297.032727 265.621942 
L 299.287273 262.908194 
L 301.541818 264.012359 
L 303.796364 260.817663 
L 310.56 259.024017 
L 312.814545 261.210477 
L 315.069091 261.945649 
L 317.323636 261.888048 
L 319.578182 183.010909 
L 326.341818 266.052218 
L 328.596364 265.472959 
L 330.850909 266.119997 
L 333.105455 265.671531 
L 335.36 265.466462 
L 342.123636 267.179121 
L 344.378182 267.948507 
L 346.632727 267.022992 
L 348.887273 267.724816 
L 351.141818 264.864249 
L 357.905455 266.092929 
L 360.16 266.450229 
L 362.414545 263.161768 
L 364.669091 263.691655 
L 373.687273 268.431404 
L 375.941818 269.370562 
L 378.196364 266.92533 
L 380.450909 267.220914 
L 382.705455 268.077135 
L 389.469091 266.169369 
L 391.723636 264.77893 
L 393.978182 265.145542 
L 396.232727 267.351708 
L 398.487273 265.177591 
" clip-path="url(#p227162b05d)" style="fill: none; stroke: #ff7f0e; stroke-width: 1.5; stroke-linecap: square"/>
   </g>
   <g id="patch_8">
    <path d="M 57.6 276.48 
L 57.6 178.56 
" style="fill: none; stroke: #000000; stroke-width: 0.8; stroke-linejoin: miter; stroke-linecap: square"/>
   </g>
   <g id="patch_9">
    <path d="M 414.72 276.48 
L 414.72 178.56 
" style="fill: none; stroke: #000000; stroke-width: 0.8; stroke-linejoin: miter; stroke-linecap: square"/>
   </g>
   <g id="patch_10">
    <path d="M 57.6 276.48 
L 414.72 276.48 
" style="fill: none; stroke: #000000; stroke-width: 0.8; stroke-linejoin: miter; stroke-linecap: square"/>
   </g>
   <g id="patch_11">
    <path d="M 57.6 178.56 
L 414.72 178.56 
" style="fill: none; stroke: #000000; stroke-width: 0.8; stroke-linejoin: miter; stroke-linecap: square"/>
   </g>
   <g id="text_24">
    <!-- Correlation of Stock Volume -->
    <g transform="translate(152.65125 172.56)scale(0.12 -0.12)">
     <use xlink:href="#DejaVuSans-43"/>
     <use xlink:href="#DejaVuSans-6f" x="69.824219"/>
     <use xlink:href="#DejaVuSans-72" x="131.005859"/>
     <use xlink:href="#DejaVuSans-72" x="170.369141"/>
     <use xlink:href="#DejaVuSans-65" x="209.232422"/>
     <use xlink:href="#DejaVuSans-6c" x="270.755859"/>
     <use xlink:href="#DejaVuSans-61" x="298.539062"/>
     <use xlink:href="#DejaVuSans-74" x="359.818359"/>
     <use xlink:href="#DejaVuSans-69" x="399.027344"/>
     <use xlink:href="#DejaVuSans-6f" x="426.810547"/>
     <use xlink:href="#DejaVuSans-6e" x="487.992188"/>
     <use xlink:href="#DejaVuSans-20" x="551.371094"/>
     <use xlink:href="#DejaVuSans-6f" x="583.158203"/>
     <use xlink:href="#DejaVuSans-66" x="644.339844"/>
     <use xlink:href="#DejaVuSans-20" x="679.544922"/>
     <use xlink:href="#DejaVuSans-53" x="711.332031"/>
     <use xlink:href="#DejaVuSans-74" x="774.808594"/>
     <use xlink:href="#DejaVuSans-6f" x="814.017578"/>
     <use xlink:href="#DejaVuSans-63" x="875.199219"/>
     <use xlink:href="#DejaVuSans-6b" x="930.179688"/>
     <use xlink:href="#DejaVuSans-20" x="988.089844"/>
     <use xlink:href="#DejaVuSans-56" x="1019.876953"/>
     <use xlink:href="#DejaVuSans-6f" x="1080.535156"/>
     <use xlink:href="#DejaVuSans-6c" x="1141.716797"/>
     <use xlink:href="#DejaVuSans-75" x="1169.5"/>
     <use xlink:href="#DejaVuSans-6d" x="1232.878906"/>
     <use xlink:href="#DejaVuSans-65" x="1330.291016"/>
    </g>
   </g>
  </g>
  <g id="legend_1">
   <g id="patch_12">
    <path d="M 394.709375 37.35625 
L 453.8 37.35625 
Q 455.8 37.35625 455.8 35.35625 
L 455.8 7 
Q 455.8 5 453.8 5 
L 394.709375 5 
Q 392.709375 5 392.709375 7 
L 392.709375 35.35625 
Q 392.709375 37.35625 394.709375 37.35625 
z
" style="fill: #ffffff; opacity: 0.8; stroke: #cccccc; stroke-linejoin: miter"/>
   </g>
   <g id="line2d_22">
    <path d="M 396.709375 13.098437 
L 406.709375 13.098437 
L 416.709375 13.098437 
" style="fill: none; stroke: #1f77b4; stroke-width: 1.5; stroke-linecap: square"/>
   </g>
   <g id="text_25">
    <!-- MMM -->
    <g transform="translate(424.709375 16.598437)scale(0.1 -0.1)">
     <defs>
      <path id="DejaVuSans-4d" d="M 628 4666 
L 1569 4666 
L 2759 1491 
L 3956 4666 
L 4897 4666 
L 4897 0 
L 4281 0 
L 4281 4097 
L 3078 897 
L 2444 897 
L 1241 4097 
L 1241 0 
L 628 0 
L 628 4666 
z
" transform="scale(0.015625)"/>
     </defs>
     <use xlink:href="#DejaVuSans-4d"/>
     <use xlink:href="#DejaVuSans-4d" x="86.279297"/>
     <use xlink:href="#DejaVuSans-4d" x="172.558594"/>
    </g>
   </g>
   <g id="line2d_23">
    <path d="M 396.709375 27.776563 
L 406.709375 27.776563 
L 416.709375 27.776563 
" style="fill: none; stroke: #ff7f0e; stroke-width: 1.5; stroke-linecap: square"/>
   </g>
   <g id="text_26">
    <!-- ABBV -->
    <g transform="translate(424.709375 31.276563)scale(0.1 -0.1)">
     <defs>
      <path id="DejaVuSans-41" d="M 2188 4044 
L 1331 1722 
L 3047 1722 
L 2188 4044 
z
M 1831 4666 
L 2547 4666 
L 4325 0 
L 3669 0 
L 3244 1197 
L 1141 1197 
L 716 0 
L 50 0 
L 1831 4666 
z
" transform="scale(0.015625)"/>
      <path id="DejaVuSans-42" d="M 1259 2228 
L 1259 519 
L 2272 519 
Q 2781 519 3026 730 
Q 3272 941 3272 1375 
Q 3272 1813 3026 2020 
Q 2781 2228 2272 2228 
L 1259 2228 
z
M 1259 4147 
L 1259 2741 
L 2194 2741 
Q 2656 2741 2882 2914 
Q 3109 3088 3109 3444 
Q 3109 3797 2882 3972 
Q 2656 4147 2194 4147 
L 1259 4147 
z
M 628 4666 
L 2241 4666 
Q 2963 4666 3353 4366 
Q 3744 4066 3744 3513 
Q 3744 3084 3544 2831 
Q 3344 2578 2956 2516 
Q 3422 2416 3680 2098 
Q 3938 1781 3938 1306 
Q 3938 681 3513 340 
Q 3088 0 2303 0 
L 628 0 
L 628 4666 
z
" transform="scale(0.015625)"/>
     </defs>
     <use xlink:href="#DejaVuSans-41"/>
     <use xlink:href="#DejaVuSans-42" x="68.408203"/>
     <use xlink:href="#DejaVuSans-42" x="137.011719"/>
     <use xlink:href="#DejaVuSans-56" x="202.490234"/>
    </g>
   </g>
  </g>
 </g>
 <defs>
  <clipPath id="p9d9cfeb829">
   <rect x="57.6" y="41.472" width="357.12" height="97.92"/>
  </clipPath>
  <clipPath id="p227162b05d">
   <rect x="57.6" y="178.56" width="357.12" height="97.92"/>
  </clipPath>
 </defs>
</svg>
