<?xml version="1.0" encoding="utf-8" standalone="no"?>
<!DOCTYPE svg PUBLIC "-//W3C//DTD SVG 1.1//EN"
  "http://www.w3.org/Graphics/SVG/1.1/DTD/svg11.dtd">
<svg xmlns:xlink="http://www.w3.org/1999/xlink" width="460.8pt" height="345.6pt" viewBox="0 0 460.8 345.6" xmlns="http://www.w3.org/2000/svg" version="1.1">
 <metadata>
  <rdf:RDF xmlns:dc="http://purl.org/dc/elements/1.1/" xmlns:cc="http://creativecommons.org/ns#" xmlns:rdf="http://www.w3.org/1999/02/22-rdf-syntax-ns#">
   <cc:Work>
    <dc:type rdf:resource="http://purl.org/dc/dcmitype/StillImage"/>
    <dc:date>2023-04-20T22:17:58.346046</dc:date>
    <dc:format>image/svg+xml</dc:format>
    <dc:creator>
     <cc:Agent>
      <dc:title>Matplotlib v3.5.2, https://matplotlib.org/</dc:title>
     </cc:Agent>
    </dc:creator>
   </cc:Work>
  </rdf:RDF>
 </metadata>
 <defs>
  <style type="text/css">*{stroke-linejoin: round; stroke-linecap: butt}</style>
 </defs>
 <g id="figure_1">
  <g id="patch_1">
   <path d="M 0 345.6 
L 460.8 345.6 
L 460.8 0 
L 0 0 
z
" style="fill: #ffffff"/>
  </g>
  <g id="axes_1">
   <g id="patch_2">
    <path d="M 57.6 139.392 
L 414.72 139.392 
L 414.72 41.472 
L 57.6 41.472 
z
" style="fill: #ffffff"/>
   </g>
   <g id="matplotlib.axis_1">
    <g id="xtick_1">
     <g id="line2d_1">
      <defs>
       <path id="m101855abe1" d="M 0 0 
L 0 3.5 
" style="stroke: #000000; stroke-width: 0.8"/>
      </defs>
      <g>
       <use xlink:href="#m101855abe1" x="87.174695" y="139.392" style="stroke: #000000; stroke-width: 0.8"/>
      </g>
     </g>
     <g id="text_1">
      <!-- 2022-12 -->
      <g transform="translate(49.949874 173.863846)rotate(-30)scale(0.1 -0.1)">
       <defs>
        <path id="DejaVuSans-32" d="M 1228 531 
L 3431 531 
L 3431 0 
L 469 0 
L 469 531 
Q 828 903 1448 1529 
Q 2069 2156 2228 2338 
Q 2531 2678 2651 2914 
Q 2772 3150 2772 3378 
Q 2772 3750 2511 3984 
Q 2250 4219 1831 4219 
Q 1534 4219 1204 4116 
Q 875 4013 500 3803 
L 500 4441 
Q 881 4594 1212 4672 
Q 1544 4750 1819 4750 
Q 2544 4750 2975 4387 
Q 3406 4025 3406 3419 
Q 3406 3131 3298 2873 
Q 3191 2616 2906 2266 
Q 2828 2175 2409 1742 
Q 1991 1309 1228 531 
z
" transform="scale(0.015625)"/>
        <path id="DejaVuSans-30" d="M 2034 4250 
Q 1547 4250 1301 3770 
Q 1056 3291 1056 2328 
Q 1056 1369 1301 889 
Q 1547 409 2034 409 
Q 2525 409 2770 889 
Q 3016 1369 3016 2328 
Q 3016 3291 2770 3770 
Q 2525 4250 2034 4250 
z
M 2034 4750 
Q 2819 4750 3233 4129 
Q 3647 3509 3647 2328 
Q 3647 1150 3233 529 
Q 2819 -91 2034 -91 
Q 1250 -91 836 529 
Q 422 1150 422 2328 
Q 422 3509 836 4129 
Q 1250 4750 2034 4750 
z
" transform="scale(0.015625)"/>
        <path id="DejaVuSans-2d" d="M 313 2009 
L 1997 2009 
L 1997 1497 
L 313 1497 
L 313 2009 
z
" transform="scale(0.015625)"/>
        <path id="DejaVuSans-31" d="M 794 531 
L 1825 531 
L 1825 4091 
L 703 3866 
L 703 4441 
L 1819 4666 
L 2450 4666 
L 2450 531 
L 3481 531 
L 3481 0 
L 794 0 
L 794 531 
z
" transform="scale(0.015625)"/>
       </defs>
       <use xlink:href="#DejaVuSans-32"/>
       <use xlink:href="#DejaVuSans-30" x="63.623047"/>
       <use xlink:href="#DejaVuSans-32" x="127.246094"/>
       <use xlink:href="#DejaVuSans-32" x="190.869141"/>
       <use xlink:href="#DejaVuSans-2d" x="254.492188"/>
       <use xlink:href="#DejaVuSans-31" x="290.576172"/>
       <use xlink:href="#DejaVuSans-32" x="354.199219"/>
      </g>
     </g>
    </g>
    <g id="xtick_2">
     <g id="line2d_2">
      <g>
       <use xlink:href="#m101855abe1" x="156.108194" y="139.392" style="stroke: #000000; stroke-width: 0.8"/>
      </g>
     </g>
     <g id="text_2">
      <!-- 2023-01 -->
      <g transform="translate(118.883373 173.863846)rotate(-30)scale(0.1 -0.1)">
       <defs>
        <path id="DejaVuSans-33" d="M 2597 2516 
Q 3050 2419 3304 2112 
Q 3559 1806 3559 1356 
Q 3559 666 3084 287 
Q 2609 -91 1734 -91 
Q 1441 -91 1130 -33 
Q 819 25 488 141 
L 488 750 
Q 750 597 1062 519 
Q 1375 441 1716 441 
Q 2309 441 2620 675 
Q 2931 909 2931 1356 
Q 2931 1769 2642 2001 
Q 2353 2234 1838 2234 
L 1294 2234 
L 1294 2753 
L 1863 2753 
Q 2328 2753 2575 2939 
Q 2822 3125 2822 3475 
Q 2822 3834 2567 4026 
Q 2313 4219 1838 4219 
Q 1578 4219 1281 4162 
Q 984 4106 628 3988 
L 628 4550 
Q 988 4650 1302 4700 
Q 1616 4750 1894 4750 
Q 2613 4750 3031 4423 
Q 3450 4097 3450 3541 
Q 3450 3153 3228 2886 
Q 3006 2619 2597 2516 
z
" transform="scale(0.015625)"/>
       </defs>
       <use xlink:href="#DejaVuSans-32"/>
       <use xlink:href="#DejaVuSans-30" x="63.623047"/>
       <use xlink:href="#DejaVuSans-32" x="127.246094"/>
       <use xlink:href="#DejaVuSans-33" x="190.869141"/>
       <use xlink:href="#DejaVuSans-2d" x="254.492188"/>
       <use xlink:href="#DejaVuSans-30" x="290.576172"/>
       <use xlink:href="#DejaVuSans-31" x="354.199219"/>
      </g>
     </g>
    </g>
    <g id="xtick_3">
     <g id="line2d_3">
      <g>
       <use xlink:href="#m101855abe1" x="225.041694" y="139.392" style="stroke: #000000; stroke-width: 0.8"/>
      </g>
     </g>
     <g id="text_3">
      <!-- 2023-02 -->
      <g transform="translate(187.816873 173.863846)rotate(-30)scale(0.1 -0.1)">
       <use xlink:href="#DejaVuSans-32"/>
       <use xlink:href="#DejaVuSans-30" x="63.623047"/>
       <use xlink:href="#DejaVuSans-32" x="127.246094"/>
       <use xlink:href="#DejaVuSans-33" x="190.869141"/>
       <use xlink:href="#DejaVuSans-2d" x="254.492188"/>
       <use xlink:href="#DejaVuSans-30" x="290.576172"/>
       <use xlink:href="#DejaVuSans-32" x="354.199219"/>
      </g>
     </g>
    </g>
    <g id="xtick_4">
     <g id="line2d_4">
      <g>
       <use xlink:href="#m101855abe1" x="287.304209" y="139.392" style="stroke: #000000; stroke-width: 0.8"/>
      </g>
     </g>
     <g id="text_4">
      <!-- 2023-03 -->
      <g transform="translate(250.079388 173.863846)rotate(-30)scale(0.1 -0.1)">
       <use xlink:href="#DejaVuSans-32"/>
       <use xlink:href="#DejaVuSans-30" x="63.623047"/>
       <use xlink:href="#DejaVuSans-32" x="127.246094"/>
       <use xlink:href="#DejaVuSans-33" x="190.869141"/>
       <use xlink:href="#DejaVuSans-2d" x="254.492188"/>
       <use xlink:href="#DejaVuSans-30" x="290.576172"/>
       <use xlink:href="#DejaVuSans-33" x="354.199219"/>
      </g>
     </g>
    </g>
    <g id="xtick_5">
     <g id="line2d_5">
      <g>
       <use xlink:href="#m101855abe1" x="356.237709" y="139.392" style="stroke: #000000; stroke-width: 0.8"/>
      </g>
     </g>
     <g id="text_5">
      <!-- 2023-04 -->
      <g transform="translate(319.012888 173.863846)rotate(-30)scale(0.1 -0.1)">
       <defs>
        <path id="DejaVuSans-34" d="M 2419 4116 
L 825 1625 
L 2419 1625 
L 2419 4116 
z
M 2253 4666 
L 3047 4666 
L 3047 1625 
L 3713 1625 
L 3713 1100 
L 3047 1100 
L 3047 0 
L 2419 0 
L 2419 1100 
L 313 1100 
L 313 1709 
L 2253 4666 
z
" transform="scale(0.015625)"/>
       </defs>
       <use xlink:href="#DejaVuSans-32"/>
       <use xlink:href="#DejaVuSans-30" x="63.623047"/>
       <use xlink:href="#DejaVuSans-32" x="127.246094"/>
       <use xlink:href="#DejaVuSans-33" x="190.869141"/>
       <use xlink:href="#DejaVuSans-2d" x="254.492188"/>
       <use xlink:href="#DejaVuSans-30" x="290.576172"/>
       <use xlink:href="#DejaVuSans-34" x="354.199219"/>
      </g>
     </g>
    </g>
    <g id="text_6">
     <!-- Date -->
     <g transform="translate(224.209219 187.263346)scale(0.1 -0.1)">
      <defs>
       <path id="DejaVuSans-44" d="M 1259 4147 
L 1259 519 
L 2022 519 
Q 2988 519 3436 956 
Q 3884 1394 3884 2338 
Q 3884 3275 3436 3711 
Q 2988 4147 2022 4147 
L 1259 4147 
z
M 628 4666 
L 1925 4666 
Q 3281 4666 3915 4102 
Q 4550 3538 4550 2338 
Q 4550 1131 3912 565 
Q 3275 0 1925 0 
L 628 0 
L 628 4666 
z
" transform="scale(0.015625)"/>
       <path id="DejaVuSans-61" d="M 2194 1759 
Q 1497 1759 1228 1600 
Q 959 1441 959 1056 
Q 959 750 1161 570 
Q 1363 391 1709 391 
Q 2188 391 2477 730 
Q 2766 1069 2766 1631 
L 2766 1759 
L 2194 1759 
z
M 3341 1997 
L 3341 0 
L 2766 0 
L 2766 531 
Q 2569 213 2275 61 
Q 1981 -91 1556 -91 
Q 1019 -91 701 211 
Q 384 513 384 1019 
Q 384 1609 779 1909 
Q 1175 2209 1959 2209 
L 2766 2209 
L 2766 2266 
Q 2766 2663 2505 2880 
Q 2244 3097 1772 3097 
Q 1472 3097 1187 3025 
Q 903 2953 641 2809 
L 641 3341 
Q 956 3463 1253 3523 
Q 1550 3584 1831 3584 
Q 2591 3584 2966 3190 
Q 3341 2797 3341 1997 
z
" transform="scale(0.015625)"/>
       <path id="DejaVuSans-74" d="M 1172 4494 
L 1172 3500 
L 2356 3500 
L 2356 3053 
L 1172 3053 
L 1172 1153 
Q 1172 725 1289 603 
Q 1406 481 1766 481 
L 2356 481 
L 2356 0 
L 1766 0 
Q 1100 0 847 248 
Q 594 497 594 1153 
L 594 3053 
L 172 3053 
L 172 3500 
L 594 3500 
L 594 4494 
L 1172 4494 
z
" transform="scale(0.015625)"/>
       <path id="DejaVuSans-65" d="M 3597 1894 
L 3597 1613 
L 953 1613 
Q 991 1019 1311 708 
Q 1631 397 2203 397 
Q 2534 397 2845 478 
Q 3156 559 3463 722 
L 3463 178 
Q 3153 47 2828 -22 
Q 2503 -91 2169 -91 
Q 1331 -91 842 396 
Q 353 884 353 1716 
Q 353 2575 817 3079 
Q 1281 3584 2069 3584 
Q 2775 3584 3186 3129 
Q 3597 2675 3597 1894 
z
M 3022 2063 
Q 3016 2534 2758 2815 
Q 2500 3097 2075 3097 
Q 1594 3097 1305 2825 
Q 1016 2553 972 2059 
L 3022 2063 
z
" transform="scale(0.015625)"/>
      </defs>
      <use xlink:href="#DejaVuSans-44"/>
      <use xlink:href="#DejaVuSans-61" x="77.001953"/>
      <use xlink:href="#DejaVuSans-74" x="138.28125"/>
      <use xlink:href="#DejaVuSans-65" x="177.490234"/>
     </g>
    </g>
   </g>
   <g id="matplotlib.axis_2">
    <g id="ytick_1">
     <g id="line2d_6">
      <defs>
       <path id="md126d864b7" d="M 0 0 
L -3.5 0 
" style="stroke: #000000; stroke-width: 0.8"/>
      </defs>
      <g>
       <use xlink:href="#md126d864b7" x="57.6" y="127.618569" style="stroke: #000000; stroke-width: 0.8"/>
      </g>
     </g>
     <g id="text_7">
      <!-- 100 -->
      <g transform="translate(31.5125 131.417787)scale(0.1 -0.1)">
       <use xlink:href="#DejaVuSans-31"/>
       <use xlink:href="#DejaVuSans-30" x="63.623047"/>
       <use xlink:href="#DejaVuSans-30" x="127.246094"/>
      </g>
     </g>
    </g>
    <g id="ytick_2">
     <g id="line2d_7">
      <g>
       <use xlink:href="#md126d864b7" x="57.6" y="87.340668" style="stroke: #000000; stroke-width: 0.8"/>
      </g>
     </g>
     <g id="text_8">
      <!-- 200 -->
      <g transform="translate(31.5125 91.139887)scale(0.1 -0.1)">
       <use xlink:href="#DejaVuSans-32"/>
       <use xlink:href="#DejaVuSans-30" x="63.623047"/>
       <use xlink:href="#DejaVuSans-30" x="127.246094"/>
      </g>
     </g>
    </g>
    <g id="ytick_3">
     <g id="line2d_8">
      <g>
       <use xlink:href="#md126d864b7" x="57.6" y="47.062768" style="stroke: #000000; stroke-width: 0.8"/>
      </g>
     </g>
     <g id="text_9">
      <!-- 300 -->
      <g transform="translate(31.5125 50.861987)scale(0.1 -0.1)">
       <use xlink:href="#DejaVuSans-33"/>
       <use xlink:href="#DejaVuSans-30" x="63.623047"/>
       <use xlink:href="#DejaVuSans-30" x="127.246094"/>
      </g>
     </g>
    </g>
    <g id="text_10">
     <!-- Stock Price -->
     <g transform="translate(25.432812 118.057)rotate(-90)scale(0.1 -0.1)">
      <defs>
       <path id="DejaVuSans-53" d="M 3425 4513 
L 3425 3897 
Q 3066 4069 2747 4153 
Q 2428 4238 2131 4238 
Q 1616 4238 1336 4038 
Q 1056 3838 1056 3469 
Q 1056 3159 1242 3001 
Q 1428 2844 1947 2747 
L 2328 2669 
Q 3034 2534 3370 2195 
Q 3706 1856 3706 1288 
Q 3706 609 3251 259 
Q 2797 -91 1919 -91 
Q 1588 -91 1214 -16 
Q 841 59 441 206 
L 441 856 
Q 825 641 1194 531 
Q 1563 422 1919 422 
Q 2459 422 2753 634 
Q 3047 847 3047 1241 
Q 3047 1584 2836 1778 
Q 2625 1972 2144 2069 
L 1759 2144 
Q 1053 2284 737 2584 
Q 422 2884 422 3419 
Q 422 4038 858 4394 
Q 1294 4750 2059 4750 
Q 2388 4750 2728 4690 
Q 3069 4631 3425 4513 
z
" transform="scale(0.015625)"/>
       <path id="DejaVuSans-6f" d="M 1959 3097 
Q 1497 3097 1228 2736 
Q 959 2375 959 1747 
Q 959 1119 1226 758 
Q 1494 397 1959 397 
Q 2419 397 2687 759 
Q 2956 1122 2956 1747 
Q 2956 2369 2687 2733 
Q 2419 3097 1959 3097 
z
M 1959 3584 
Q 2709 3584 3137 3096 
Q 3566 2609 3566 1747 
Q 3566 888 3137 398 
Q 2709 -91 1959 -91 
Q 1206 -91 779 398 
Q 353 888 353 1747 
Q 353 2609 779 3096 
Q 1206 3584 1959 3584 
z
" transform="scale(0.015625)"/>
       <path id="DejaVuSans-63" d="M 3122 3366 
L 3122 2828 
Q 2878 2963 2633 3030 
Q 2388 3097 2138 3097 
Q 1578 3097 1268 2742 
Q 959 2388 959 1747 
Q 959 1106 1268 751 
Q 1578 397 2138 397 
Q 2388 397 2633 464 
Q 2878 531 3122 666 
L 3122 134 
Q 2881 22 2623 -34 
Q 2366 -91 2075 -91 
Q 1284 -91 818 406 
Q 353 903 353 1747 
Q 353 2603 823 3093 
Q 1294 3584 2113 3584 
Q 2378 3584 2631 3529 
Q 2884 3475 3122 3366 
z
" transform="scale(0.015625)"/>
       <path id="DejaVuSans-6b" d="M 581 4863 
L 1159 4863 
L 1159 1991 
L 2875 3500 
L 3609 3500 
L 1753 1863 
L 3688 0 
L 2938 0 
L 1159 1709 
L 1159 0 
L 581 0 
L 581 4863 
z
" transform="scale(0.015625)"/>
       <path id="DejaVuSans-20" transform="scale(0.015625)"/>
       <path id="DejaVuSans-50" d="M 1259 4147 
L 1259 2394 
L 2053 2394 
Q 2494 2394 2734 2622 
Q 2975 2850 2975 3272 
Q 2975 3691 2734 3919 
Q 2494 4147 2053 4147 
L 1259 4147 
z
M 628 4666 
L 2053 4666 
Q 2838 4666 3239 4311 
Q 3641 3956 3641 3272 
Q 3641 2581 3239 2228 
Q 2838 1875 2053 1875 
L 1259 1875 
L 1259 0 
L 628 0 
L 628 4666 
z
" transform="scale(0.015625)"/>
       <path id="DejaVuSans-72" d="M 2631 2963 
Q 2534 3019 2420 3045 
Q 2306 3072 2169 3072 
Q 1681 3072 1420 2755 
Q 1159 2438 1159 1844 
L 1159 0 
L 581 0 
L 581 3500 
L 1159 3500 
L 1159 2956 
Q 1341 3275 1631 3429 
Q 1922 3584 2338 3584 
Q 2397 3584 2469 3576 
Q 2541 3569 2628 3553 
L 2631 2963 
z
" transform="scale(0.015625)"/>
       <path id="DejaVuSans-69" d="M 603 3500 
L 1178 3500 
L 1178 0 
L 603 0 
L 603 3500 
z
M 603 4863 
L 1178 4863 
L 1178 4134 
L 603 4134 
L 603 4863 
z
" transform="scale(0.015625)"/>
      </defs>
      <use xlink:href="#DejaVuSans-53"/>
      <use xlink:href="#DejaVuSans-74" x="63.476562"/>
      <use xlink:href="#DejaVuSans-6f" x="102.685547"/>
      <use xlink:href="#DejaVuSans-63" x="163.867188"/>
      <use xlink:href="#DejaVuSans-6b" x="218.847656"/>
      <use xlink:href="#DejaVuSans-20" x="276.757812"/>
      <use xlink:href="#DejaVuSans-50" x="308.544922"/>
      <use xlink:href="#DejaVuSans-72" x="367.097656"/>
      <use xlink:href="#DejaVuSans-69" x="408.210938"/>
      <use xlink:href="#DejaVuSans-63" x="435.994141"/>
      <use xlink:href="#DejaVuSans-65" x="490.974609"/>
     </g>
    </g>
   </g>
   <g id="line2d_9">
    <path d="M 73.832727 115.921869 
L 80.503711 117.694094 
L 82.727372 117.093954 
L 84.951034 117.158397 
L 87.174695 117.150343 
L 89.398356 116.747564 
L 96.06934 117.698123 
L 98.293001 117.71826 
L 100.516663 117.005342 
L 102.740324 117.146315 
L 104.963985 117.242981 
L 111.634969 116.803953 
L 113.85863 116.626729 
L 116.082291 117.110066 
L 118.305953 118.604376 
L 120.529614 118.882291 
L 127.200598 118.70507 
L 129.424259 119.236739 
L 131.64792 118.169374 
L 133.871582 118.922571 
L 136.095243 119.5066 
L 144.989888 119.474377 
L 147.213549 120.25174 
L 149.43721 119.333405 
L 151.660872 119.595212 
L 160.555517 118.568124 
L 162.779178 117.488676 
L 165.002839 118.370763 
L 167.226501 116.856313 
L 173.897484 116.828119 
L 176.121146 116.288393 
L 178.344807 115.889646 
L 180.568468 115.797002 
L 182.79213 115.732562 
L 191.686775 116.904648 
L 193.910436 118.455346 
L 196.134097 120.195351 
L 198.357758 119.301182 
L 205.028742 118.507706 
L 207.252403 121.576884 
L 209.476065 122.410636 
L 211.699726 122.160912 
L 213.923387 121.476189 
L 220.594371 122.551608 
L 222.818032 121.54466 
L 225.041694 121.230493 
L 227.265355 119.446182 
L 229.489016 120.573965 
L 236.16 120.972715 
L 238.383661 120.811603 
L 240.607323 121.476189 
L 242.830984 122.410636 
L 245.054645 122.027997 
L 251.725629 121.464106 
L 253.94929 121.895079 
L 256.172951 121.661467 
L 258.396613 122.785221 
L 260.620274 122.38647 
L 269.514919 123.892863 
L 271.73858 124.017723 
L 273.962242 124.029806 
L 276.185903 124.476891 
L 282.856887 124.287588 
L 285.080548 124.50106 
L 287.304209 123.506195 
L 289.52787 123.631056 
L 291.751532 123.083276 
L 298.422516 123.618973 
L 300.646177 124.762867 
L 302.869838 124.734669 
L 305.093499 125.39523 
L 307.317161 125.983287 
L 313.988144 126.208842 
L 316.211806 126.498843 
L 318.435467 126.498843 
L 320.659128 125.922869 
L 322.88279 126.402177 
L 329.553773 125.882592 
L 331.777435 125.890646 
L 334.001096 126.998289 
L 336.224757 127.21579 
L 338.448418 127.159401 
L 345.119402 127.018429 
L 347.343064 126.917734 
L 349.566725 126.333703 
L 351.790386 126.498843 
L 354.014047 125.560368 
L 360.685031 125.777869 
L 362.908692 126.712316 
L 365.132354 126.696204 
L 367.356015 126.990234 
L 376.25066 126.506898 
L 378.474321 125.781897 
L 380.697983 125.858423 
L 382.921644 125.141477 
L 385.145305 125.294535 
L 391.816289 124.887727 
L 394.03995 125.093146 
L 396.263611 125.169671 
L 398.487273 125.713423 
" clip-path="url(#p4c7e2a5ce9)" style="fill: none; stroke: #1f77b4; stroke-width: 1.5; stroke-linecap: square"/>
   </g>
   <g id="line2d_10">
    <path d="M 73.832727 48.512775 
L 80.503711 50.848888 
L 82.727372 51.904167 
L 84.951034 46.688187 
L 87.174695 45.922909 
L 89.398356 47.010405 
L 96.06934 49.986948 
L 98.293001 52.939312 
L 100.516663 52.423756 
L 102.740324 50.224586 
L 104.963985 51.730975 
L 111.634969 50.148057 
L 113.85863 48.935688 
L 116.082291 50.506524 
L 118.305953 54.667238 
L 120.529614 61.369474 
L 127.200598 65.026714 
L 129.424259 62.408651 
L 131.64792 59.581134 
L 133.871582 61.256696 
L 136.095243 60.721006 
L 144.989888 61.035173 
L 147.213549 61.91726 
L 149.43721 59.798638 
L 151.660872 60.418921 
L 160.555517 59.041412 
L 162.779178 59.411974 
L 165.002839 61.973642 
L 167.226501 59.464337 
L 173.897484 57.635717 
L 176.121146 57.160441 
L 178.344807 54.683352 
L 180.568468 53.571678 
L 182.79213 54.256395 
L 191.686775 53.152785 
L 193.910436 55.964187 
L 196.134097 57.982101 
L 198.357758 54.929042 
L 205.028742 55.384184 
L 207.252403 57.184607 
L 209.476065 57.873355 
L 211.699726 57.430296 
L 213.923387 56.217939 
L 220.594371 57.40613 
L 222.818032 55.500993 
L 225.041694 53.668341 
L 227.265355 49.439162 
L 229.489016 51.404725 
L 236.16 53.313894 
L 238.383661 51.968614 
L 240.607323 53.221263 
L 242.830984 53.040007 
L 245.054645 53.523347 
L 251.725629 51.755141 
L 253.94929 53.197097 
L 256.172951 52.037091 
L 258.396613 54.626957 
L 260.620274 56.306551 
L 269.514919 59.488503 
L 271.73858 59.295165 
L 273.962242 58.650716 
L 276.185903 60.543782 
L 282.856887 60.65656 
L 285.080548 60.93851 
L 287.304209 61.727953 
L 289.52787 61.055307 
L 291.751532 59.468357 
L 298.422516 59.295165 
L 300.646177 61.482252 
L 302.869838 61.699756 
L 305.093499 63.270591 
L 307.317161 66.013522 
L 313.988144 66.674079 
L 316.211806 66.202828 
L 318.435467 68.744363 
L 320.659128 66.025604 
L 322.88279 67.201718 
L 329.553773 66.174631 
L 331.777435 64.132544 
L 334.001096 65.884629 
L 336.224757 58.477524 
L 338.448418 58.34058 
L 345.119402 57.551137 
L 347.343064 57.132243 
L 349.566725 55.142514 
L 351.790386 54.046955 
L 354.014047 52.778203 
L 360.685031 52.76612 
L 362.908692 52.76612 
L 365.132354 54.582658 
L 367.356015 54.433619 
L 376.25066 54.441683 
L 378.474321 52.568763 
L 380.697983 53.603895 
L 382.921644 52.995707 
L 385.145305 55.420433 
L 391.816289 55.126399 
L 394.03995 55.134463 
L 396.263611 55.158629 
L 398.487273 56.91072 
" clip-path="url(#p4c7e2a5ce9)" style="fill: none; stroke: #ff7f0e; stroke-width: 1.5; stroke-linecap: square"/>
   </g>
   <g id="line2d_11">
    <path d="M 73.832727 130.272881 
L 80.503711 130.055383 
L 82.727372 130.671634 
L 84.951034 129.012184 
L 87.174695 129.431074 
L 89.398356 129.982882 
L 96.06934 131.239551 
L 98.293001 132.351222 
L 100.516663 132.266639 
L 102.740324 131.505387 
L 104.963985 132.012889 
L 111.634969 131.424829 
L 113.85863 130.64344 
L 116.082291 131.009967 
L 118.305953 132.270667 
L 120.529614 132.508305 
L 127.200598 133.692477 
L 129.424259 133.583725 
L 131.64792 132.947336 
L 133.871582 134.147616 
L 136.095243 133.559559 
L 144.989888 134.4497 
L 147.213549 134.941091 
L 149.43721 133.990532 
L 151.660872 134.063033 
L 160.555517 133.329975 
L 162.779178 133.603865 
L 165.002839 134.417477 
L 167.226501 133.225252 
L 173.897484 132.709695 
L 176.121146 131.698719 
L 178.344807 129.596215 
L 180.568468 129.523715 
L 182.79213 128.375792 
L 191.686775 129.209544 
L 193.910436 129.447186 
L 196.134097 130.164132 
L 198.357758 128.726211 
L 205.028742 128.617462 
L 207.252403 129.100795 
L 209.476065 128.754405 
L 211.699726 127.932736 
L 213.923387 126.716344 
L 220.594371 127.397039 
L 222.818032 126.357871 
L 225.041694 125.544256 
L 227.265355 122.41869 
L 229.489016 126.253148 
L 236.16 126.74051 
L 238.383661 126.768705 
L 240.607323 127.598428 
L 242.830984 128.32746 
L 245.054645 128.58121 
L 251.725629 127.803847 
L 253.94929 127.739403 
L 256.172951 127.151343 
L 258.396613 128.363709 
L 260.620274 128.746351 
L 269.514919 129.80163 
L 271.73858 129.314268 
L 273.962242 129.302185 
L 276.185903 130.236632 
L 282.856887 130.131909 
L 285.080548 129.942602 
L 287.304209 130.772329 
L 289.52787 130.78844 
L 291.751532 129.672741 
L 298.422516 130.135937 
L 300.646177 130.216492 
L 302.869838 130.067466 
L 305.093499 130.740106 
L 307.317161 131.352329 
L 313.988144 130.667605 
L 316.211806 129.680798 
L 318.435467 129.14913 
L 320.659128 127.602457 
L 322.88279 128.041488 
L 329.553773 128.540933 
L 331.777435 127.372873 
L 334.001096 128.142182 
L 336.224757 128.138154 
L 338.448418 128.371766 
L 345.119402 128.408015 
L 347.343064 128.730239 
L 349.566725 127.517874 
L 351.790386 126.813011 
L 354.014047 126.293425 
L 360.685031 126.64787 
L 362.908692 126.027593 
L 365.132354 127.175512 
L 367.356015 126.788845 
L 376.25066 126.744539 
L 378.474321 127.650792 
L 380.697983 128.492598 
L 382.921644 126.651898 
L 385.145305 126.607592 
L 391.816289 126.514955 
L 394.03995 126.692176 
L 396.263611 125.886618 
L 398.487273 126.083982 
" clip-path="url(#p4c7e2a5ce9)" style="fill: none; stroke: #2ca02c; stroke-width: 1.5; stroke-linecap: square"/>
   </g>
   <g id="line2d_12">
    <path d="M 73.832727 106.311562 
L 80.503711 107.580313 
L 82.727372 108.631567 
L 84.951034 106.77073 
L 87.174695 105.864477 
L 89.398356 105.973223 
L 96.06934 106.198784 
L 98.293001 105.594616 
L 100.516663 105.953089 
L 102.740324 105.300583 
L 104.963985 105.006556 
L 111.634969 104.664191 
L 113.85863 103.778078 
L 116.082291 104.116411 
L 118.305953 104.893778 
L 120.529614 106.512951 
L 127.200598 106.883507 
L 129.424259 107.374898 
L 131.64792 106.460588 
L 133.871582 106.702258 
L 136.095243 106.263224 
L 144.989888 105.755725 
L 147.213549 106.22295 
L 149.43721 105.554335 
L 151.660872 106.504894 
L 160.555517 105.828222 
L 162.779178 104.591694 
L 165.002839 105.598641 
L 167.226501 104.152666 
L 173.897484 104.080163 
L 176.121146 103.141687 
L 178.344807 102.879883 
L 180.568468 103.685441 
L 182.79213 103.906971 
L 191.686775 104.563496 
L 193.910436 106.396142 
L 196.134097 107.403089 
L 198.357758 106.859342 
L 205.028742 107.088922 
L 207.252403 105.651005 
L 209.476065 105.260308 
L 211.699726 104.98239 
L 213.923387 104.652108 
L 220.594371 105.465723 
L 222.818032 104.865581 
L 225.041694 104.007665 
L 227.265355 103.210159 
L 229.489016 104.817249 
L 236.16 104.897804 
L 238.383661 105.276417 
L 240.607323 107.2017 
L 242.830984 107.858232 
L 245.054645 107.298369 
L 251.725629 106.790864 
L 253.94929 107.757537 
L 256.172951 107.781703 
L 258.396613 108.502674 
L 260.620274 107.636702 
L 269.514919 108.42212 
L 271.73858 108.816848 
L 273.962242 109.952681 
L 276.185903 110.879074 
L 282.856887 111.59602 
L 285.080548 111.35435 
L 287.304209 112.256578 
L 289.52787 112.087411 
L 291.751532 111.628243 
L 298.422516 111.539632 
L 300.646177 112.663382 
L 302.869838 112.216297 
L 305.093499 113.170888 
L 307.317161 114.065058 
L 313.988144 112.969498 
L 316.211806 112.445884 
L 318.435467 111.253656 
L 320.659128 110.440047 
L 322.88279 110.778379 
L 329.553773 110.476295 
L 331.777435 111.966576 
L 334.001096 112.965467 
L 336.224757 112.828523 
L 338.448418 110.766297 
L 345.119402 110.830743 
L 347.343064 111.016018 
L 349.566725 109.839904 
L 351.790386 109.13504 
L 354.014047 108.893371 
L 360.685031 109.31629 
L 362.908692 108.635592 
L 365.132354 107.395032 
L 367.356015 106.722392 
L 376.25066 106.718366 
L 378.474321 106.649895 
L 380.697983 107.149337 
L 382.921644 106.67406 
L 385.145305 107.600453 
L 391.816289 107.544065 
L 394.03995 108.244896 
L 396.263611 107.878372 
L 398.487273 107.632676 
" clip-path="url(#p4c7e2a5ce9)" style="fill: none; stroke: #d62728; stroke-width: 1.5; stroke-linecap: square"/>
   </g>
   <g id="line2d_13">
    <path d="M 73.832727 108.240871 
L 80.503711 109.807681 
L 82.727372 111.036158 
L 84.951034 108.273094 
L 87.174695 108.160316 
L 89.398356 108.361705 
L 96.06934 108.836982 
L 98.293001 110.33532 
L 100.516663 111.128795 
L 102.740324 110.440047 
L 104.963985 110.637404 
L 111.634969 109.698929 
L 113.85863 109.304207 
L 116.082291 110.214485 
L 118.305953 112.917135 
L 120.529614 113.718667 
L 127.200598 114.580614 
L 129.424259 114.608806 
L 131.64792 113.340054 
L 133.871582 114.637003 
L 136.095243 114.786029 
L 144.989888 115.523116 
L 147.213549 117.130203 
L 149.43721 115.692282 
L 151.660872 115.563396 
L 160.555517 117.520899 
L 162.779178 117.001314 
L 165.002839 117.541039 
L 167.226501 115.688256 
L 173.897484 115.474784 
L 176.121146 115.241172 
L 178.344807 114.129498 
L 180.568468 114.161721 
L 182.79213 113.617973 
L 191.686775 113.14269 
L 193.910436 113.436717 
L 196.134097 113.412551 
L 198.357758 112.36533 
L 205.028742 111.060324 
L 207.252403 110.488378 
L 209.476065 110.758239 
L 211.699726 109.912401 
L 213.923387 109.118932 
L 220.594371 110.299071 
L 222.818032 109.779489 
L 225.041694 109.320321 
L 227.265355 107.149337 
L 229.489016 105.667113 
L 236.16 106.782813 
L 238.383661 105.606699 
L 240.607323 106.706284 
L 242.830984 107.129203 
L 245.054645 107.072814 
L 251.725629 105.928917 
L 253.94929 106.190727 
L 256.172951 105.332806 
L 258.396613 105.985306 
L 260.620274 106.452531 
L 269.514919 108.091844 
L 271.73858 107.918646 
L 273.962242 107.721288 
L 276.185903 108.804759 
L 282.856887 108.3174 
L 285.080548 108.522815 
L 287.304209 109.368653 
L 289.52787 109.126983 
L 291.751532 107.064757 
L 298.422516 105.936974 
L 300.646177 106.83517 
L 302.869838 106.323645 
L 305.093499 107.24198 
L 307.317161 108.083787 
L 313.988144 107.290312 
L 316.211806 106.436422 
L 318.435467 106.275307 
L 320.659128 105.123359 
L 322.88279 105.465723 
L 329.553773 104.499056 
L 331.777435 103.74183 
L 334.001096 104.325858 
L 336.224757 103.882805 
L 338.448418 103.351134 
L 345.119402 104.144609 
L 347.343064 104.398362 
L 349.566725 103.141687 
L 351.790386 102.50127 
L 354.014047 101.478214 
L 360.685031 100.966683 
L 362.908692 101.184181 
L 365.132354 101.937382 
L 367.356015 101.574877 
L 376.25066 102.634188 
L 378.474321 103.129604 
L 380.697983 103.411548 
L 382.921644 101.212378 
L 385.145305 101.353347 
L 391.816289 101.345296 
L 394.03995 100.845848 
L 396.263611 100.378623 
L 398.487273 100.773351 
" clip-path="url(#p4c7e2a5ce9)" style="fill: none; stroke: #9467bd; stroke-width: 1.5; stroke-linecap: square"/>
   </g>
   <g id="patch_3">
    <path d="M 57.6 139.392 
L 57.6 41.472 
" style="fill: none; stroke: #000000; stroke-width: 0.8; stroke-linejoin: miter; stroke-linecap: square"/>
   </g>
   <g id="patch_4">
    <path d="M 414.72 139.392 
L 414.72 41.472 
" style="fill: none; stroke: #000000; stroke-width: 0.8; stroke-linejoin: miter; stroke-linecap: square"/>
   </g>
   <g id="patch_5">
    <path d="M 57.6 139.392 
L 414.72 139.392 
" style="fill: none; stroke: #000000; stroke-width: 0.8; stroke-linejoin: miter; stroke-linecap: square"/>
   </g>
   <g id="patch_6">
    <path d="M 57.6 41.472 
L 414.72 41.472 
" style="fill: none; stroke: #000000; stroke-width: 0.8; stroke-linejoin: miter; stroke-linecap: square"/>
   </g>
   <g id="text_11">
    <!-- Correlation of Stock EOD Closing Prices -->
    <g transform="translate(118.324687 35.472)scale(0.12 -0.12)">
     <defs>
      <path id="DejaVuSans-43" d="M 4122 4306 
L 4122 3641 
Q 3803 3938 3442 4084 
Q 3081 4231 2675 4231 
Q 1875 4231 1450 3742 
Q 1025 3253 1025 2328 
Q 1025 1406 1450 917 
Q 1875 428 2675 428 
Q 3081 428 3442 575 
Q 3803 722 4122 1019 
L 4122 359 
Q 3791 134 3420 21 
Q 3050 -91 2638 -91 
Q 1578 -91 968 557 
Q 359 1206 359 2328 
Q 359 3453 968 4101 
Q 1578 4750 2638 4750 
Q 3056 4750 3426 4639 
Q 3797 4528 4122 4306 
z
" transform="scale(0.015625)"/>
      <path id="DejaVuSans-6c" d="M 603 4863 
L 1178 4863 
L 1178 0 
L 603 0 
L 603 4863 
z
" transform="scale(0.015625)"/>
      <path id="DejaVuSans-6e" d="M 3513 2113 
L 3513 0 
L 2938 0 
L 2938 2094 
Q 2938 2591 2744 2837 
Q 2550 3084 2163 3084 
Q 1697 3084 1428 2787 
Q 1159 2491 1159 1978 
L 1159 0 
L 581 0 
L 581 3500 
L 1159 3500 
L 1159 2956 
Q 1366 3272 1645 3428 
Q 1925 3584 2291 3584 
Q 2894 3584 3203 3211 
Q 3513 2838 3513 2113 
z
" transform="scale(0.015625)"/>
      <path id="DejaVuSans-66" d="M 2375 4863 
L 2375 4384 
L 1825 4384 
Q 1516 4384 1395 4259 
Q 1275 4134 1275 3809 
L 1275 3500 
L 2222 3500 
L 2222 3053 
L 1275 3053 
L 1275 0 
L 697 0 
L 697 3053 
L 147 3053 
L 147 3500 
L 697 3500 
L 697 3744 
Q 697 4328 969 4595 
Q 1241 4863 1831 4863 
L 2375 4863 
z
" transform="scale(0.015625)"/>
      <path id="DejaVuSans-45" d="M 628 4666 
L 3578 4666 
L 3578 4134 
L 1259 4134 
L 1259 2753 
L 3481 2753 
L 3481 2222 
L 1259 2222 
L 1259 531 
L 3634 531 
L 3634 0 
L 628 0 
L 628 4666 
z
" transform="scale(0.015625)"/>
      <path id="DejaVuSans-4f" d="M 2522 4238 
Q 1834 4238 1429 3725 
Q 1025 3213 1025 2328 
Q 1025 1447 1429 934 
Q 1834 422 2522 422 
Q 3209 422 3611 934 
Q 4013 1447 4013 2328 
Q 4013 3213 3611 3725 
Q 3209 4238 2522 4238 
z
M 2522 4750 
Q 3503 4750 4090 4092 
Q 4678 3434 4678 2328 
Q 4678 1225 4090 567 
Q 3503 -91 2522 -91 
Q 1538 -91 948 565 
Q 359 1222 359 2328 
Q 359 3434 948 4092 
Q 1538 4750 2522 4750 
z
" transform="scale(0.015625)"/>
      <path id="DejaVuSans-73" d="M 2834 3397 
L 2834 2853 
Q 2591 2978 2328 3040 
Q 2066 3103 1784 3103 
Q 1356 3103 1142 2972 
Q 928 2841 928 2578 
Q 928 2378 1081 2264 
Q 1234 2150 1697 2047 
L 1894 2003 
Q 2506 1872 2764 1633 
Q 3022 1394 3022 966 
Q 3022 478 2636 193 
Q 2250 -91 1575 -91 
Q 1294 -91 989 -36 
Q 684 19 347 128 
L 347 722 
Q 666 556 975 473 
Q 1284 391 1588 391 
Q 1994 391 2212 530 
Q 2431 669 2431 922 
Q 2431 1156 2273 1281 
Q 2116 1406 1581 1522 
L 1381 1569 
Q 847 1681 609 1914 
Q 372 2147 372 2553 
Q 372 3047 722 3315 
Q 1072 3584 1716 3584 
Q 2034 3584 2315 3537 
Q 2597 3491 2834 3397 
z
" transform="scale(0.015625)"/>
      <path id="DejaVuSans-67" d="M 2906 1791 
Q 2906 2416 2648 2759 
Q 2391 3103 1925 3103 
Q 1463 3103 1205 2759 
Q 947 2416 947 1791 
Q 947 1169 1205 825 
Q 1463 481 1925 481 
Q 2391 481 2648 825 
Q 2906 1169 2906 1791 
z
M 3481 434 
Q 3481 -459 3084 -895 
Q 2688 -1331 1869 -1331 
Q 1566 -1331 1297 -1286 
Q 1028 -1241 775 -1147 
L 775 -588 
Q 1028 -725 1275 -790 
Q 1522 -856 1778 -856 
Q 2344 -856 2625 -561 
Q 2906 -266 2906 331 
L 2906 616 
Q 2728 306 2450 153 
Q 2172 0 1784 0 
Q 1141 0 747 490 
Q 353 981 353 1791 
Q 353 2603 747 3093 
Q 1141 3584 1784 3584 
Q 2172 3584 2450 3431 
Q 2728 3278 2906 2969 
L 2906 3500 
L 3481 3500 
L 3481 434 
z
" transform="scale(0.015625)"/>
     </defs>
     <use xlink:href="#DejaVuSans-43"/>
     <use xlink:href="#DejaVuSans-6f" x="69.824219"/>
     <use xlink:href="#DejaVuSans-72" x="131.005859"/>
     <use xlink:href="#DejaVuSans-72" x="170.369141"/>
     <use xlink:href="#DejaVuSans-65" x="209.232422"/>
     <use xlink:href="#DejaVuSans-6c" x="270.755859"/>
     <use xlink:href="#DejaVuSans-61" x="298.539062"/>
     <use xlink:href="#DejaVuSans-74" x="359.818359"/>
     <use xlink:href="#DejaVuSans-69" x="399.027344"/>
     <use xlink:href="#DejaVuSans-6f" x="426.810547"/>
     <use xlink:href="#DejaVuSans-6e" x="487.992188"/>
     <use xlink:href="#DejaVuSans-20" x="551.371094"/>
     <use xlink:href="#DejaVuSans-6f" x="583.158203"/>
     <use xlink:href="#DejaVuSans-66" x="644.339844"/>
     <use xlink:href="#DejaVuSans-20" x="679.544922"/>
     <use xlink:href="#DejaVuSans-53" x="711.332031"/>
     <use xlink:href="#DejaVuSans-74" x="774.808594"/>
     <use xlink:href="#DejaVuSans-6f" x="814.017578"/>
     <use xlink:href="#DejaVuSans-63" x="875.199219"/>
     <use xlink:href="#DejaVuSans-6b" x="930.179688"/>
     <use xlink:href="#DejaVuSans-20" x="988.089844"/>
     <use xlink:href="#DejaVuSans-45" x="1019.876953"/>
     <use xlink:href="#DejaVuSans-4f" x="1083.060547"/>
     <use xlink:href="#DejaVuSans-44" x="1161.771484"/>
     <use xlink:href="#DejaVuSans-20" x="1238.773438"/>
     <use xlink:href="#DejaVuSans-43" x="1270.560547"/>
     <use xlink:href="#DejaVuSans-6c" x="1340.384766"/>
     <use xlink:href="#DejaVuSans-6f" x="1368.167969"/>
     <use xlink:href="#DejaVuSans-73" x="1429.349609"/>
     <use xlink:href="#DejaVuSans-69" x="1481.449219"/>
     <use xlink:href="#DejaVuSans-6e" x="1509.232422"/>
     <use xlink:href="#DejaVuSans-67" x="1572.611328"/>
     <use xlink:href="#DejaVuSans-20" x="1636.087891"/>
     <use xlink:href="#DejaVuSans-50" x="1667.875"/>
     <use xlink:href="#DejaVuSans-72" x="1726.427734"/>
     <use xlink:href="#DejaVuSans-69" x="1767.541016"/>
     <use xlink:href="#DejaVuSans-63" x="1795.324219"/>
     <use xlink:href="#DejaVuSans-65" x="1850.304688"/>
     <use xlink:href="#DejaVuSans-73" x="1911.828125"/>
    </g>
   </g>
  </g>
  <g id="axes_2">
   <g id="patch_7">
    <path d="M 57.6 276.48 
L 414.72 276.48 
L 414.72 178.56 
L 57.6 178.56 
z
" style="fill: #ffffff"/>
   </g>
   <g id="matplotlib.axis_3">
    <g id="xtick_6">
     <g id="line2d_14">
      <g>
       <use xlink:href="#m101855abe1" x="87.174695" y="276.48" style="stroke: #000000; stroke-width: 0.8"/>
      </g>
     </g>
     <g id="text_12">
      <!-- 2022-12 -->
      <g transform="translate(49.949874 310.951846)rotate(-30)scale(0.1 -0.1)">
       <use xlink:href="#DejaVuSans-32"/>
       <use xlink:href="#DejaVuSans-30" x="63.623047"/>
       <use xlink:href="#DejaVuSans-32" x="127.246094"/>
       <use xlink:href="#DejaVuSans-32" x="190.869141"/>
       <use xlink:href="#DejaVuSans-2d" x="254.492188"/>
       <use xlink:href="#DejaVuSans-31" x="290.576172"/>
       <use xlink:href="#DejaVuSans-32" x="354.199219"/>
      </g>
     </g>
    </g>
    <g id="xtick_7">
     <g id="line2d_15">
      <g>
       <use xlink:href="#m101855abe1" x="156.108194" y="276.48" style="stroke: #000000; stroke-width: 0.8"/>
      </g>
     </g>
     <g id="text_13">
      <!-- 2023-01 -->
      <g transform="translate(118.883373 310.951846)rotate(-30)scale(0.1 -0.1)">
       <use xlink:href="#DejaVuSans-32"/>
       <use xlink:href="#DejaVuSans-30" x="63.623047"/>
       <use xlink:href="#DejaVuSans-32" x="127.246094"/>
       <use xlink:href="#DejaVuSans-33" x="190.869141"/>
       <use xlink:href="#DejaVuSans-2d" x="254.492188"/>
       <use xlink:href="#DejaVuSans-30" x="290.576172"/>
       <use xlink:href="#DejaVuSans-31" x="354.199219"/>
      </g>
     </g>
    </g>
    <g id="xtick_8">
     <g id="line2d_16">
      <g>
       <use xlink:href="#m101855abe1" x="225.041694" y="276.48" style="stroke: #000000; stroke-width: 0.8"/>
      </g>
     </g>
     <g id="text_14">
      <!-- 2023-02 -->
      <g transform="translate(187.816873 310.951846)rotate(-30)scale(0.1 -0.1)">
       <use xlink:href="#DejaVuSans-32"/>
       <use xlink:href="#DejaVuSans-30" x="63.623047"/>
       <use xlink:href="#DejaVuSans-32" x="127.246094"/>
       <use xlink:href="#DejaVuSans-33" x="190.869141"/>
       <use xlink:href="#DejaVuSans-2d" x="254.492188"/>
       <use xlink:href="#DejaVuSans-30" x="290.576172"/>
       <use xlink:href="#DejaVuSans-32" x="354.199219"/>
      </g>
     </g>
    </g>
    <g id="xtick_9">
     <g id="line2d_17">
      <g>
       <use xlink:href="#m101855abe1" x="287.304209" y="276.48" style="stroke: #000000; stroke-width: 0.8"/>
      </g>
     </g>
     <g id="text_15">
      <!-- 2023-03 -->
      <g transform="translate(250.079388 310.951846)rotate(-30)scale(0.1 -0.1)">
       <use xlink:href="#DejaVuSans-32"/>
       <use xlink:href="#DejaVuSans-30" x="63.623047"/>
       <use xlink:href="#DejaVuSans-32" x="127.246094"/>
       <use xlink:href="#DejaVuSans-33" x="190.869141"/>
       <use xlink:href="#DejaVuSans-2d" x="254.492188"/>
       <use xlink:href="#DejaVuSans-30" x="290.576172"/>
       <use xlink:href="#DejaVuSans-33" x="354.199219"/>
      </g>
     </g>
    </g>
    <g id="xtick_10">
     <g id="line2d_18">
      <g>
       <use xlink:href="#m101855abe1" x="356.237709" y="276.48" style="stroke: #000000; stroke-width: 0.8"/>
      </g>
     </g>
     <g id="text_16">
      <!-- 2023-04 -->
      <g transform="translate(319.012888 310.951846)rotate(-30)scale(0.1 -0.1)">
       <use xlink:href="#DejaVuSans-32"/>
       <use xlink:href="#DejaVuSans-30" x="63.623047"/>
       <use xlink:href="#DejaVuSans-32" x="127.246094"/>
       <use xlink:href="#DejaVuSans-33" x="190.869141"/>
       <use xlink:href="#DejaVuSans-2d" x="254.492188"/>
       <use xlink:href="#DejaVuSans-30" x="290.576172"/>
       <use xlink:href="#DejaVuSans-34" x="354.199219"/>
      </g>
     </g>
    </g>
    <g id="text_17">
     <!-- Date -->
     <g transform="translate(224.209219 324.351346)scale(0.1 -0.1)">
      <use xlink:href="#DejaVuSans-44"/>
      <use xlink:href="#DejaVuSans-61" x="77.001953"/>
      <use xlink:href="#DejaVuSans-74" x="138.28125"/>
      <use xlink:href="#DejaVuSans-65" x="177.490234"/>
     </g>
    </g>
   </g>
   <g id="matplotlib.axis_4">
    <g id="ytick_4">
     <g id="line2d_19">
      <g>
       <use xlink:href="#md126d864b7" x="57.6" y="272.224891" style="stroke: #000000; stroke-width: 0.8"/>
      </g>
     </g>
     <g id="text_18">
      <!-- 0.0 -->
      <g transform="translate(34.696875 276.02411)scale(0.1 -0.1)">
       <defs>
        <path id="DejaVuSans-2e" d="M 684 794 
L 1344 794 
L 1344 0 
L 684 0 
L 684 794 
z
" transform="scale(0.015625)"/>
       </defs>
       <use xlink:href="#DejaVuSans-30"/>
       <use xlink:href="#DejaVuSans-2e" x="63.623047"/>
       <use xlink:href="#DejaVuSans-30" x="95.410156"/>
      </g>
     </g>
    </g>
    <g id="ytick_5">
     <g id="line2d_20">
      <g>
       <use xlink:href="#md126d864b7" x="57.6" y="244.372834" style="stroke: #000000; stroke-width: 0.8"/>
      </g>
     </g>
     <g id="text_19">
      <!-- 0.5 -->
      <g transform="translate(34.696875 248.172053)scale(0.1 -0.1)">
       <defs>
        <path id="DejaVuSans-35" d="M 691 4666 
L 3169 4666 
L 3169 4134 
L 1269 4134 
L 1269 2991 
Q 1406 3038 1543 3061 
Q 1681 3084 1819 3084 
Q 2600 3084 3056 2656 
Q 3513 2228 3513 1497 
Q 3513 744 3044 326 
Q 2575 -91 1722 -91 
Q 1428 -91 1123 -41 
Q 819 9 494 109 
L 494 744 
Q 775 591 1075 516 
Q 1375 441 1709 441 
Q 2250 441 2565 725 
Q 2881 1009 2881 1497 
Q 2881 1984 2565 2268 
Q 2250 2553 1709 2553 
Q 1456 2553 1204 2497 
Q 953 2441 691 2322 
L 691 4666 
z
" transform="scale(0.015625)"/>
       </defs>
       <use xlink:href="#DejaVuSans-30"/>
       <use xlink:href="#DejaVuSans-2e" x="63.623047"/>
       <use xlink:href="#DejaVuSans-35" x="95.410156"/>
      </g>
     </g>
    </g>
    <g id="ytick_6">
     <g id="line2d_21">
      <g>
       <use xlink:href="#md126d864b7" x="57.6" y="216.520777" style="stroke: #000000; stroke-width: 0.8"/>
      </g>
     </g>
     <g id="text_20">
      <!-- 1.0 -->
      <g transform="translate(34.696875 220.319996)scale(0.1 -0.1)">
       <use xlink:href="#DejaVuSans-31"/>
       <use xlink:href="#DejaVuSans-2e" x="63.623047"/>
       <use xlink:href="#DejaVuSans-30" x="95.410156"/>
      </g>
     </g>
    </g>
    <g id="ytick_7">
     <g id="line2d_22">
      <g>
       <use xlink:href="#md126d864b7" x="57.6" y="188.66872" style="stroke: #000000; stroke-width: 0.8"/>
      </g>
     </g>
     <g id="text_21">
      <!-- 1.5 -->
      <g transform="translate(34.696875 192.467939)scale(0.1 -0.1)">
       <use xlink:href="#DejaVuSans-31"/>
       <use xlink:href="#DejaVuSans-2e" x="63.623047"/>
       <use xlink:href="#DejaVuSans-35" x="95.410156"/>
      </g>
     </g>
    </g>
    <g id="text_22">
     <!-- Stock Volume -->
     <g transform="translate(28.617187 261.544219)rotate(-90)scale(0.1 -0.1)">
      <defs>
       <path id="DejaVuSans-56" d="M 1831 0 
L 50 4666 
L 709 4666 
L 2188 738 
L 3669 4666 
L 4325 4666 
L 2547 0 
L 1831 0 
z
" transform="scale(0.015625)"/>
       <path id="DejaVuSans-75" d="M 544 1381 
L 544 3500 
L 1119 3500 
L 1119 1403 
Q 1119 906 1312 657 
Q 1506 409 1894 409 
Q 2359 409 2629 706 
Q 2900 1003 2900 1516 
L 2900 3500 
L 3475 3500 
L 3475 0 
L 2900 0 
L 2900 538 
Q 2691 219 2414 64 
Q 2138 -91 1772 -91 
Q 1169 -91 856 284 
Q 544 659 544 1381 
z
M 1991 3584 
L 1991 3584 
z
" transform="scale(0.015625)"/>
       <path id="DejaVuSans-6d" d="M 3328 2828 
Q 3544 3216 3844 3400 
Q 4144 3584 4550 3584 
Q 5097 3584 5394 3201 
Q 5691 2819 5691 2113 
L 5691 0 
L 5113 0 
L 5113 2094 
Q 5113 2597 4934 2840 
Q 4756 3084 4391 3084 
Q 3944 3084 3684 2787 
Q 3425 2491 3425 1978 
L 3425 0 
L 2847 0 
L 2847 2094 
Q 2847 2600 2669 2842 
Q 2491 3084 2119 3084 
Q 1678 3084 1418 2786 
Q 1159 2488 1159 1978 
L 1159 0 
L 581 0 
L 581 3500 
L 1159 3500 
L 1159 2956 
Q 1356 3278 1631 3431 
Q 1906 3584 2284 3584 
Q 2666 3584 2933 3390 
Q 3200 3197 3328 2828 
z
" transform="scale(0.015625)"/>
      </defs>
      <use xlink:href="#DejaVuSans-53"/>
      <use xlink:href="#DejaVuSans-74" x="63.476562"/>
      <use xlink:href="#DejaVuSans-6f" x="102.685547"/>
      <use xlink:href="#DejaVuSans-63" x="163.867188"/>
      <use xlink:href="#DejaVuSans-6b" x="218.847656"/>
      <use xlink:href="#DejaVuSans-20" x="276.757812"/>
      <use xlink:href="#DejaVuSans-56" x="308.544922"/>
      <use xlink:href="#DejaVuSans-6f" x="369.203125"/>
      <use xlink:href="#DejaVuSans-6c" x="430.384766"/>
      <use xlink:href="#DejaVuSans-75" x="458.167969"/>
      <use xlink:href="#DejaVuSans-6d" x="521.546875"/>
      <use xlink:href="#DejaVuSans-65" x="618.958984"/>
     </g>
    </g>
    <g id="text_23">
     <!-- 1e8 -->
     <g transform="translate(57.6 175.56)scale(0.1 -0.1)">
      <defs>
       <path id="DejaVuSans-38" d="M 2034 2216 
Q 1584 2216 1326 1975 
Q 1069 1734 1069 1313 
Q 1069 891 1326 650 
Q 1584 409 2034 409 
Q 2484 409 2743 651 
Q 3003 894 3003 1313 
Q 3003 1734 2745 1975 
Q 2488 2216 2034 2216 
z
M 1403 2484 
Q 997 2584 770 2862 
Q 544 3141 544 3541 
Q 544 4100 942 4425 
Q 1341 4750 2034 4750 
Q 2731 4750 3128 4425 
Q 3525 4100 3525 3541 
Q 3525 3141 3298 2862 
Q 3072 2584 2669 2484 
Q 3125 2378 3379 2068 
Q 3634 1759 3634 1313 
Q 3634 634 3220 271 
Q 2806 -91 2034 -91 
Q 1263 -91 848 271 
Q 434 634 434 1313 
Q 434 1759 690 2068 
Q 947 2378 1403 2484 
z
M 1172 3481 
Q 1172 3119 1398 2916 
Q 1625 2713 2034 2713 
Q 2441 2713 2670 2916 
Q 2900 3119 2900 3481 
Q 2900 3844 2670 4047 
Q 2441 4250 2034 4250 
Q 1625 4250 1398 4047 
Q 1172 3844 1172 3481 
z
" transform="scale(0.015625)"/>
      </defs>
      <use xlink:href="#DejaVuSans-31"/>
      <use xlink:href="#DejaVuSans-65" x="63.623047"/>
      <use xlink:href="#DejaVuSans-38" x="125.146484"/>
     </g>
    </g>
   </g>
   <g id="line2d_23">
    <path d="M 73.832727 271.733358 
L 80.503711 270.679937 
L 82.727372 271.187068 
L 84.951034 268.977007 
L 87.174695 270.754971 
L 89.398356 271.210018 
L 96.06934 271.031096 
L 98.293001 271.15565 
L 100.516663 270.720044 
L 102.740324 270.116323 
L 104.963985 270.924256 
L 111.634969 270.064797 
L 113.85863 270.410664 
L 116.082291 270.500459 
L 118.305953 270.366323 
L 120.529614 267.99149 
L 127.200598 270.865655 
L 129.424259 270.6078 
L 131.64792 270.788783 
L 133.871582 271.005862 
L 136.095243 270.771403 
L 144.989888 271.215978 
L 147.213549 271.132533 
L 149.43721 271.07694 
L 151.660872 271.057333 
L 160.555517 270.769454 
L 162.779178 270.682054 
L 165.002839 270.772907 
L 167.226501 270.878522 
L 173.897484 270.625459 
L 176.121146 271.306831 
L 178.344807 271.103289 
L 180.568468 271.200214 
L 182.79213 271.281597 
L 191.686775 270.269175 
L 193.910436 269.852731 
L 196.134097 269.450993 
L 198.357758 269.788671 
L 205.028742 270.324155 
L 207.252403 266.500458 
L 209.476065 268.886432 
L 211.699726 269.648241 
L 213.923387 269.932945 
L 220.594371 268.936733 
L 222.818032 269.400024 
L 225.041694 270.497618 
L 227.265355 269.485808 
L 229.489016 270.730684 
L 236.16 270.839362 
L 238.383661 271.009037 
L 240.607323 270.825771 
L 242.830984 270.218484 
L 245.054645 270.957901 
L 251.725629 270.972885 
L 253.94929 270.853288 
L 256.172951 270.817081 
L 258.396613 270.723609 
L 260.620274 270.649746 
L 269.514919 270.058502 
L 271.73858 270.745947 
L 273.962242 270.585073 
L 276.185903 270.630138 
L 282.856887 270.244053 
L 285.080548 270.341813 
L 287.304209 269.487201 
L 289.52787 267.997339 
L 291.751532 270.53104 
L 298.422516 270.653589 
L 300.646177 270.346103 
L 302.869838 270.311622 
L 305.093499 270.295467 
L 307.317161 270.167237 
L 313.988144 269.879135 
L 316.211806 269.566691 
L 318.435467 269.500013 
L 320.659128 270.195813 
L 322.88279 265.882588 
L 329.553773 270.708681 
L 331.777435 270.763438 
L 334.001096 270.662112 
L 336.224757 270.455004 
L 338.448418 270.245779 
L 345.119402 270.666624 
L 347.343064 270.85301 
L 349.566725 270.430327 
L 351.790386 270.916011 
L 354.014047 270.214195 
L 360.685031 269.98709 
L 362.908692 270.29012 
L 365.132354 270.747618 
L 367.356015 270.877297 
L 376.25066 270.620501 
L 378.474321 270.580505 
L 380.697983 270.707065 
L 382.921644 270.311343 
L 385.145305 270.669409 
L 391.816289 270.868997 
L 394.03995 271.159773 
L 396.263611 271.156486 
L 398.487273 270.167014 
" clip-path="url(#p9172436ab3)" style="fill: none; stroke: #1f77b4; stroke-width: 1.5; stroke-linecap: square"/>
   </g>
   <g id="line2d_24">
    <path d="M 73.832727 271.847273 
L 80.503711 271.526863 
L 82.727372 271.637212 
L 84.951034 270.683502 
L 87.174695 271.240488 
L 89.398356 271.253133 
L 96.06934 271.22205 
L 98.293001 271.155205 
L 100.516663 271.187903 
L 102.740324 271.085185 
L 104.963985 271.207065 
L 111.634969 270.871337 
L 113.85863 270.265889 
L 116.082291 270.80321 
L 118.305953 270.626183 
L 120.529614 268.58602 
L 127.200598 269.914563 
L 129.424259 270.496671 
L 131.64792 270.230628 
L 133.871582 270.956954 
L 136.095243 271.549033 
L 144.989888 271.662502 
L 147.213549 271.452275 
L 149.43721 271.379971 
L 151.660872 271.478734 
L 160.555517 270.971493 
L 162.779178 271.08162 
L 165.002839 270.845044 
L 167.226501 271.340867 
L 173.897484 271.009706 
L 176.121146 271.192694 
L 178.344807 270.897796 
L 180.568468 270.842036 
L 182.79213 270.984472 
L 191.686775 270.629692 
L 193.910436 271.003467 
L 196.134097 270.992437 
L 198.357758 270.382979 
L 205.028742 270.780316 
L 207.252403 270.996448 
L 209.476065 270.789786 
L 211.699726 271.142783 
L 213.923387 271.054492 
L 220.594371 271.259594 
L 222.818032 271.198933 
L 225.041694 271.223888 
L 227.265355 270.712023 
L 229.489016 271.017226 
L 236.16 271.521682 
L 238.383661 271.444421 
L 240.607323 271.455171 
L 242.830984 271.248955 
L 245.054645 271.474222 
L 251.725629 271.509372 
L 253.94929 271.210463 
L 256.172951 271.171972 
L 258.396613 271.166958 
L 260.620274 270.708402 
L 269.514919 270.862257 
L 271.73858 271.208959 
L 273.962242 271.17459 
L 276.185903 271.258424 
L 282.856887 271.382143 
L 285.080548 271.021459 
L 287.304209 271.277642 
L 289.52787 270.955784 
L 291.751532 271.335798 
L 298.422516 271.306274 
L 300.646177 270.988649 
L 302.869838 271.410107 
L 305.093499 271.138772 
L 307.317161 270.595768 
L 313.988144 270.424478 
L 316.211806 270.595211 
L 318.435467 269.713749 
L 320.659128 269.930104 
L 322.88279 268.620389 
L 329.553773 270.45233 
L 331.777435 270.647796 
L 334.001096 270.520735 
L 336.224757 269.346715 
L 338.448418 269.927876 
L 345.119402 270.13944 
L 347.343064 270.626517 
L 349.566725 270.870445 
L 351.790386 270.947261 
L 354.014047 270.548587 
L 360.685031 270.878355 
L 362.908692 270.926038 
L 365.132354 270.863928 
L 367.356015 271.041011 
L 376.25066 271.34705 
L 378.474321 270.48553 
L 380.697983 270.74539 
L 382.921644 270.462301 
L 385.145305 270.625236 
L 391.816289 270.610029 
L 394.03995 271.169966 
L 396.263611 270.996782 
L 398.487273 270.728623 
" clip-path="url(#p9172436ab3)" style="fill: none; stroke: #ff7f0e; stroke-width: 1.5; stroke-linecap: square"/>
   </g>
   <g id="line2d_25">
    <path d="M 73.832727 252.679097 
L 80.503711 230.478501 
L 82.727372 235.701207 
L 84.951034 214.957831 
L 87.174695 234.074257 
L 89.398356 231.841414 
L 96.06934 232.376675 
L 98.293001 230.16628 
L 100.516663 234.297687 
L 102.740324 231.390489 
L 104.963985 234.681154 
L 111.634969 237.688452 
L 113.85863 216.402684 
L 116.082291 233.066013 
L 118.305953 224.986187 
L 120.529614 190.816615 
L 127.200598 225.694409 
L 129.424259 230.809829 
L 131.64792 239.210622 
L 133.871582 226.864307 
L 136.095243 240.231957 
L 144.989888 240.315346 
L 147.213549 239.789165 
L 149.43721 241.589912 
L 151.660872 237.464855 
L 160.555517 229.496493 
L 162.779178 233.853056 
L 165.002839 234.384641 
L 167.226501 225.82147 
L 173.897484 235.868988 
L 176.121146 234.481677 
L 178.344807 214.779355 
L 180.568468 224.73446 
L 182.79213 224.570356 
L 191.686775 231.697363 
L 193.910436 227.900905 
L 196.134097 233.787548 
L 198.357758 234.634919 
L 205.028742 229.610631 
L 207.252403 234.942406 
L 209.476065 219.717302 
L 211.699726 234.054427 
L 213.923387 223.330271 
L 220.594371 232.846594 
L 222.818032 235.166448 
L 225.041694 227.410876 
L 227.265355 184.126495 
L 229.489016 191.802188 
L 236.16 226.578043 
L 238.383661 205.657751 
L 240.607323 229.957556 
L 242.830984 236.2275 
L 245.054645 242.846486 
L 251.725629 242.790002 
L 253.94929 240.917564 
L 256.172951 245.510535 
L 258.396613 240.841639 
L 260.620274 238.786046 
L 269.514919 240.70728 
L 271.73858 239.061948 
L 273.962242 245.226778 
L 276.185903 240.443577 
L 282.856887 245.781981 
L 285.080548 247.737752 
L 287.304209 243.091918 
L 289.52787 241.303872 
L 291.751532 241.1645 
L 298.422516 243.19614 
L 300.646177 244.873781 
L 302.869838 247.214245 
L 305.093499 240.908762 
L 307.317161 233.328101 
L 313.988144 231.896728 
L 316.211806 238.294011 
L 318.435467 232.824369 
L 320.659128 225.184494 
L 322.88279 223.595088 
L 329.553773 237.471707 
L 331.777435 239.583784 
L 334.001096 240.208729 
L 336.224757 240.161993 
L 338.448418 240.977445 
L 345.119402 246.199205 
L 347.343064 250.656202 
L 349.566725 244.493545 
L 351.790386 242.348881 
L 354.014047 240.638263 
L 360.685031 249.310614 
L 362.908692 245.117877 
L 365.132354 247.060335 
L 367.356015 247.822033 
L 376.25066 251.46887 
L 378.474321 238.569691 
L 380.697983 240.621162 
L 382.921644 234.387816 
L 385.145305 243.599494 
L 391.816289 249.988087 
L 394.03995 250.059945 
L 396.263611 239.694301 
L 398.487273 240.127066 
" clip-path="url(#p9172436ab3)" style="fill: none; stroke: #2ca02c; stroke-width: 1.5; stroke-linecap: square"/>
   </g>
   <g id="line2d_26">
    <path d="M 73.832727 272.029091 
L 80.503711 271.832288 
L 82.727372 271.927654 
L 84.951034 271.407489 
L 87.174695 271.772685 
L 89.398356 271.8993 
L 96.06934 271.896571 
L 98.293001 271.730517 
L 100.516663 271.896459 
L 102.740324 271.914563 
L 104.963985 271.846716 
L 111.634969 271.670301 
L 113.85863 271.788561 
L 116.082291 271.847106 
L 118.305953 271.848498 
L 120.529614 271.155762 
L 127.200598 271.842594 
L 129.424259 271.672752 
L 131.64792 271.89139 
L 133.871582 271.924311 
L 136.095243 271.979626 
L 144.989888 272.006085 
L 147.213549 271.901473 
L 149.43721 271.959349 
L 151.660872 271.918128 
L 160.555517 271.867939 
L 162.779178 271.852397 
L 165.002839 271.681386 
L 167.226501 271.92342 
L 173.897484 271.784995 
L 176.121146 271.826217 
L 178.344807 271.749011 
L 180.568468 271.907712 
L 182.79213 271.925314 
L 191.686775 271.771181 
L 193.910436 271.786667 
L 196.134097 271.949935 
L 198.357758 271.803434 
L 205.028742 271.866323 
L 207.252403 271.859138 
L 209.476065 271.75252 
L 211.699726 271.772184 
L 213.923387 271.802041 
L 220.594371 271.771961 
L 222.818032 271.686009 
L 225.041694 271.688572 
L 227.265355 271.709349 
L 229.489016 271.491379 
L 236.16 271.580506 
L 238.383661 271.664452 
L 240.607323 271.304269 
L 242.830984 271.714641 
L 245.054645 271.764998 
L 251.725629 271.809282 
L 253.94929 271.753745 
L 256.172951 271.840644 
L 258.396613 271.419799 
L 260.620274 270.714585 
L 269.514919 271.608469 
L 271.73858 271.872284 
L 273.962242 271.657712 
L 276.185903 271.713694 
L 282.856887 271.578946 
L 285.080548 271.038226 
L 287.304209 268.568083 
L 289.52787 269.27196 
L 291.751532 270.800258 
L 298.422516 271.462413 
L 300.646177 271.591869 
L 302.869838 271.741658 
L 305.093499 271.515833 
L 307.317161 271.395178 
L 313.988144 271.299813 
L 316.211806 271.435174 
L 318.435467 271.376294 
L 320.659128 271.437123 
L 322.88279 270.768897 
L 329.553773 271.225726 
L 331.777435 271.427431 
L 334.001096 271.635319 
L 336.224757 271.608915 
L 338.448418 271.758313 
L 345.119402 271.745167 
L 347.343064 271.84861 
L 349.566725 271.885764 
L 351.790386 271.797696 
L 354.014047 271.634037 
L 360.685031 271.900024 
L 362.908692 271.769064 
L 365.132354 271.720434 
L 367.356015 271.634817 
L 376.25066 271.709294 
L 378.474321 271.85457 
L 380.697983 271.742883 
L 382.921644 271.683001 
L 385.145305 271.780094 
L 391.816289 271.856241 
L 394.03995 271.85496 
L 396.263611 271.91707 
L 398.487273 271.863371 
" clip-path="url(#p9172436ab3)" style="fill: none; stroke: #d62728; stroke-width: 1.5; stroke-linecap: square"/>
   </g>
   <g id="line2d_27">
    <path d="M 73.832727 252.619327 
L 80.503711 233.65202 
L 82.727372 225.565008 
L 84.951034 210.181148 
L 87.174695 232.535487 
L 89.398356 235.767997 
L 96.06934 233.885755 
L 98.293001 236.169178 
L 100.516663 233.38737 
L 102.740324 237.616872 
L 104.963985 229.835731 
L 111.634969 232.974268 
L 113.85863 219.926415 
L 116.082291 226.385307 
L 118.305953 217.115753 
L 120.529614 183.010909 
L 127.200598 227.888538 
L 129.424259 229.091636 
L 131.64792 224.35946 
L 133.871582 228.858069 
L 136.095243 236.677366 
L 144.989888 233.784707 
L 147.213549 224.632187 
L 149.43721 230.054816 
L 151.660872 229.313672 
L 160.555517 209.770831 
L 162.779178 222.58495 
L 165.002839 227.125336 
L 167.226501 223.341913 
L 173.897484 232.791503 
L 176.121146 236.632079 
L 178.344807 233.533426 
L 180.568468 232.463517 
L 182.79213 240.02251 
L 191.686775 236.771116 
L 193.910436 233.414275 
L 196.134097 239.760311 
L 198.357758 227.537045 
L 205.028742 226.68104 
L 207.252403 235.217807 
L 209.476065 235.571974 
L 211.699726 242.086124 
L 213.923387 232.922408 
L 220.594371 236.565735 
L 222.818032 235.530084 
L 225.041694 228.963071 
L 227.265355 206.3052 
L 229.489016 186.241525 
L 236.16 233.310944 
L 238.383661 225.810775 
L 240.607323 236.507357 
L 242.830984 241.026632 
L 245.054645 240.222488 
L 251.725629 237.577489 
L 253.94929 237.851219 
L 256.172951 235.697587 
L 258.396613 234.252566 
L 260.620274 239.279194 
L 269.514919 239.433439 
L 271.73858 243.809498 
L 273.962242 245.267331 
L 276.185903 241.326042 
L 282.856887 247.158875 
L 285.080548 244.068132 
L 287.304209 241.320806 
L 289.52787 243.12612 
L 291.751532 232.82409 
L 298.422516 223.451483 
L 300.646177 240.929206 
L 302.869838 245.929875 
L 305.093499 242.237361 
L 307.317161 234.027243 
L 313.988144 225.178812 
L 316.211806 231.173243 
L 318.435467 229.239196 
L 320.659128 229.800025 
L 322.88279 217.108678 
L 329.553773 231.203602 
L 331.777435 231.038216 
L 334.001096 230.055874 
L 336.224757 234.556599 
L 338.448418 239.250005 
L 345.119402 243.041339 
L 347.343064 246.605343 
L 349.566725 243.645505 
L 351.790386 244.650408 
L 354.014047 233.959117 
L 360.685031 240.486804 
L 362.908692 246.445974 
L 365.132354 243.530755 
L 367.356015 246.940738 
L 376.25066 245.644615 
L 378.474321 245.685111 
L 380.697983 244.298692 
L 382.921644 234.097876 
L 385.145305 244.742041 
L 391.816289 249.09866 
L 394.03995 244.415726 
L 396.263611 245.642776 
L 398.487273 243.056601 
" clip-path="url(#p9172436ab3)" style="fill: none; stroke: #9467bd; stroke-width: 1.5; stroke-linecap: square"/>
   </g>
   <g id="patch_8">
    <path d="M 57.6 276.48 
L 57.6 178.56 
" style="fill: none; stroke: #000000; stroke-width: 0.8; stroke-linejoin: miter; stroke-linecap: square"/>
   </g>
   <g id="patch_9">
    <path d="M 414.72 276.48 
L 414.72 178.56 
" style="fill: none; stroke: #000000; stroke-width: 0.8; stroke-linejoin: miter; stroke-linecap: square"/>
   </g>
   <g id="patch_10">
    <path d="M 57.6 276.48 
L 414.72 276.48 
" style="fill: none; stroke: #000000; stroke-width: 0.8; stroke-linejoin: miter; stroke-linecap: square"/>
   </g>
   <g id="patch_11">
    <path d="M 57.6 178.56 
L 414.72 178.56 
" style="fill: none; stroke: #000000; stroke-width: 0.8; stroke-linejoin: miter; stroke-linecap: square"/>
   </g>
   <g id="text_24">
    <!-- Correlation of Stock Volume -->
    <g transform="translate(152.65125 172.56)scale(0.12 -0.12)">
     <use xlink:href="#DejaVuSans-43"/>
     <use xlink:href="#DejaVuSans-6f" x="69.824219"/>
     <use xlink:href="#DejaVuSans-72" x="131.005859"/>
     <use xlink:href="#DejaVuSans-72" x="170.369141"/>
     <use xlink:href="#DejaVuSans-65" x="209.232422"/>
     <use xlink:href="#DejaVuSans-6c" x="270.755859"/>
     <use xlink:href="#DejaVuSans-61" x="298.539062"/>
     <use xlink:href="#DejaVuSans-74" x="359.818359"/>
     <use xlink:href="#DejaVuSans-69" x="399.027344"/>
     <use xlink:href="#DejaVuSans-6f" x="426.810547"/>
     <use xlink:href="#DejaVuSans-6e" x="487.992188"/>
     <use xlink:href="#DejaVuSans-20" x="551.371094"/>
     <use xlink:href="#DejaVuSans-6f" x="583.158203"/>
     <use xlink:href="#DejaVuSans-66" x="644.339844"/>
     <use xlink:href="#DejaVuSans-20" x="679.544922"/>
     <use xlink:href="#DejaVuSans-53" x="711.332031"/>
     <use xlink:href="#DejaVuSans-74" x="774.808594"/>
     <use xlink:href="#DejaVuSans-6f" x="814.017578"/>
     <use xlink:href="#DejaVuSans-63" x="875.199219"/>
     <use xlink:href="#DejaVuSans-6b" x="930.179688"/>
     <use xlink:href="#DejaVuSans-20" x="988.089844"/>
     <use xlink:href="#DejaVuSans-56" x="1019.876953"/>
     <use xlink:href="#DejaVuSans-6f" x="1080.535156"/>
     <use xlink:href="#DejaVuSans-6c" x="1141.716797"/>
     <use xlink:href="#DejaVuSans-75" x="1169.5"/>
     <use xlink:href="#DejaVuSans-6d" x="1232.878906"/>
     <use xlink:href="#DejaVuSans-65" x="1330.291016"/>
    </g>
   </g>
  </g>
  <g id="legend_1">
   <g id="patch_12">
    <path d="M 392 81.390625 
L 453.8 81.390625 
Q 455.8 81.390625 455.8 79.390625 
L 455.8 7 
Q 455.8 5 453.8 5 
L 392 5 
Q 390 5 390 7 
L 390 79.390625 
Q 390 81.390625 392 81.390625 
z
" style="fill: #ffffff; opacity: 0.8; stroke: #cccccc; stroke-linejoin: miter"/>
   </g>
   <g id="line2d_28">
    <path d="M 394 13.098437 
L 404 13.098437 
L 414 13.098437 
" style="fill: none; stroke: #1f77b4; stroke-width: 1.5; stroke-linecap: square"/>
   </g>
   <g id="text_25">
    <!-- MMM -->
    <g transform="translate(422 16.598437)scale(0.1 -0.1)">
     <defs>
      <path id="DejaVuSans-4d" d="M 628 4666 
L 1569 4666 
L 2759 1491 
L 3956 4666 
L 4897 4666 
L 4897 0 
L 4281 0 
L 4281 4097 
L 3078 897 
L 2444 897 
L 1241 4097 
L 1241 0 
L 628 0 
L 628 4666 
z
" transform="scale(0.015625)"/>
     </defs>
     <use xlink:href="#DejaVuSans-4d"/>
     <use xlink:href="#DejaVuSans-4d" x="86.279297"/>
     <use xlink:href="#DejaVuSans-4d" x="172.558594"/>
    </g>
   </g>
   <g id="line2d_29">
    <path d="M 394 27.776563 
L 404 27.776563 
L 414 27.776563 
" style="fill: none; stroke: #ff7f0e; stroke-width: 1.5; stroke-linecap: square"/>
   </g>
   <g id="text_26">
    <!-- ACN -->
    <g transform="translate(422 31.276563)scale(0.1 -0.1)">
     <defs>
      <path id="DejaVuSans-41" d="M 2188 4044 
L 1331 1722 
L 3047 1722 
L 2188 4044 
z
M 1831 4666 
L 2547 4666 
L 4325 0 
L 3669 0 
L 3244 1197 
L 1141 1197 
L 716 0 
L 50 0 
L 1831 4666 
z
" transform="scale(0.015625)"/>
      <path id="DejaVuSans-4e" d="M 628 4666 
L 1478 4666 
L 3547 763 
L 3547 4666 
L 4159 4666 
L 4159 0 
L 3309 0 
L 1241 3903 
L 1241 0 
L 628 0 
L 628 4666 
z
" transform="scale(0.015625)"/>
     </defs>
     <use xlink:href="#DejaVuSans-41"/>
     <use xlink:href="#DejaVuSans-43" x="66.658203"/>
     <use xlink:href="#DejaVuSans-4e" x="136.482422"/>
    </g>
   </g>
   <g id="line2d_30">
    <path d="M 394 42.454687 
L 404 42.454687 
L 414 42.454687 
" style="fill: none; stroke: #2ca02c; stroke-width: 1.5; stroke-linecap: square"/>
   </g>
   <g id="text_27">
    <!-- AMZN -->
    <g transform="translate(422 45.954687)scale(0.1 -0.1)">
     <defs>
      <path id="DejaVuSans-5a" d="M 359 4666 
L 4025 4666 
L 4025 4184 
L 1075 531 
L 4097 531 
L 4097 0 
L 288 0 
L 288 481 
L 3238 4134 
L 359 4134 
L 359 4666 
z
" transform="scale(0.015625)"/>
     </defs>
     <use xlink:href="#DejaVuSans-41"/>
     <use xlink:href="#DejaVuSans-4d" x="68.408203"/>
     <use xlink:href="#DejaVuSans-5a" x="154.6875"/>
     <use xlink:href="#DejaVuSans-4e" x="223.193359"/>
    </g>
   </g>
   <g id="line2d_31">
    <path d="M 394 57.132812 
L 404 57.132812 
L 414 57.132812 
" style="fill: none; stroke: #d62728; stroke-width: 1.5; stroke-linecap: square"/>
   </g>
   <g id="text_28">
    <!-- AWK -->
    <g transform="translate(422 60.632812)scale(0.1 -0.1)">
     <defs>
      <path id="DejaVuSans-57" d="M 213 4666 
L 850 4666 
L 1831 722 
L 2809 4666 
L 3519 4666 
L 4500 722 
L 5478 4666 
L 6119 4666 
L 4947 0 
L 4153 0 
L 3169 4050 
L 2175 0 
L 1381 0 
L 213 4666 
z
" transform="scale(0.015625)"/>
      <path id="DejaVuSans-4b" d="M 628 4666 
L 1259 4666 
L 1259 2694 
L 3353 4666 
L 4166 4666 
L 1850 2491 
L 4331 0 
L 3500 0 
L 1259 2247 
L 1259 0 
L 628 0 
L 628 4666 
z
" transform="scale(0.015625)"/>
     </defs>
     <use xlink:href="#DejaVuSans-41"/>
     <use xlink:href="#DejaVuSans-57" x="62.908203"/>
     <use xlink:href="#DejaVuSans-4b" x="161.785156"/>
    </g>
   </g>
   <g id="line2d_32">
    <path d="M 394 71.810937 
L 404 71.810937 
L 414 71.810937 
" style="fill: none; stroke: #9467bd; stroke-width: 1.5; stroke-linecap: square"/>
   </g>
   <g id="text_29">
    <!-- AAPL -->
    <g transform="translate(422 75.310937)scale(0.1 -0.1)">
     <defs>
      <path id="DejaVuSans-4c" d="M 628 4666 
L 1259 4666 
L 1259 531 
L 3531 531 
L 3531 0 
L 628 0 
L 628 4666 
z
" transform="scale(0.015625)"/>
     </defs>
     <use xlink:href="#DejaVuSans-41"/>
     <use xlink:href="#DejaVuSans-41" x="71.158203"/>
     <use xlink:href="#DejaVuSans-50" x="139.566406"/>
     <use xlink:href="#DejaVuSans-4c" x="199.869141"/>
    </g>
   </g>
  </g>
 </g>
 <defs>
  <clipPath id="p4c7e2a5ce9">
   <rect x="57.6" y="41.472" width="357.12" height="97.92"/>
  </clipPath>
  <clipPath id="p9172436ab3">
   <rect x="57.6" y="178.56" width="357.12" height="97.92"/>
  </clipPath>
 </defs>
</svg>
