<?xml version="1.0" encoding="utf-8" standalone="no"?>
<!DOCTYPE svg PUBLIC "-//W3C//DTD SVG 1.1//EN"
  "http://www.w3.org/Graphics/SVG/1.1/DTD/svg11.dtd">
<svg xmlns:xlink="http://www.w3.org/1999/xlink" width="720pt" height="576pt" viewBox="0 0 720 576" xmlns="http://www.w3.org/2000/svg" version="1.1">
 <metadata>
  <rdf:RDF xmlns:dc="http://purl.org/dc/elements/1.1/" xmlns:cc="http://creativecommons.org/ns#" xmlns:rdf="http://www.w3.org/1999/02/22-rdf-syntax-ns#">
   <cc:Work>
    <dc:type rdf:resource="http://purl.org/dc/dcmitype/StillImage"/>
    <dc:date>2023-05-02T16:41:37.207448</dc:date>
    <dc:format>image/svg+xml</dc:format>
    <dc:creator>
     <cc:Agent>
      <dc:title>Matplotlib v3.7.1, https://matplotlib.org/</dc:title>
     </cc:Agent>
    </dc:creator>
   </cc:Work>
  </rdf:RDF>
 </metadata>
 <defs>
  <style type="text/css">*{stroke-linejoin: round; stroke-linecap: butt}</style>
 </defs>
 <g id="figure_1">
  <g id="patch_1">
   <path d="M 0 576 
L 720 576 
L 720 0 
L 0 0 
z
" style="fill: #ffffff"/>
  </g>
  <g id="axes_1">
   <g id="patch_2">
    <path d="M 90 232.32 
L 648 232.32 
L 648 69.12 
L 90 69.12 
z
" style="fill: #ffffff"/>
   </g>
   <g id="matplotlib.axis_1">
    <g id="xtick_1">
     <g id="line2d_1">
      <defs>
       <path id="m116ac3fe3e" d="M 0 0 
L 0 3.5 
" style="stroke: #000000; stroke-width: 0.8"/>
      </defs>
      <g>
       <use xlink:href="#m116ac3fe3e" x="177.478664" y="232.32" style="stroke: #000000; stroke-width: 0.8"/>
      </g>
     </g>
     <g id="text_1">
      <!-- 2023-02-01 -->
      <g transform="translate(126.109213 274.958252) rotate(-30) scale(0.1 -0.1)">
       <defs>
        <path id="DejaVuSans-32" d="M 1228 531 
L 3431 531 
L 3431 0 
L 469 0 
L 469 531 
Q 828 903 1448 1529 
Q 2069 2156 2228 2338 
Q 2531 2678 2651 2914 
Q 2772 3150 2772 3378 
Q 2772 3750 2511 3984 
Q 2250 4219 1831 4219 
Q 1534 4219 1204 4116 
Q 875 4013 500 3803 
L 500 4441 
Q 881 4594 1212 4672 
Q 1544 4750 1819 4750 
Q 2544 4750 2975 4387 
Q 3406 4025 3406 3419 
Q 3406 3131 3298 2873 
Q 3191 2616 2906 2266 
Q 2828 2175 2409 1742 
Q 1991 1309 1228 531 
z
" transform="scale(0.015625)"/>
        <path id="DejaVuSans-30" d="M 2034 4250 
Q 1547 4250 1301 3770 
Q 1056 3291 1056 2328 
Q 1056 1369 1301 889 
Q 1547 409 2034 409 
Q 2525 409 2770 889 
Q 3016 1369 3016 2328 
Q 3016 3291 2770 3770 
Q 2525 4250 2034 4250 
z
M 2034 4750 
Q 2819 4750 3233 4129 
Q 3647 3509 3647 2328 
Q 3647 1150 3233 529 
Q 2819 -91 2034 -91 
Q 1250 -91 836 529 
Q 422 1150 422 2328 
Q 422 3509 836 4129 
Q 1250 4750 2034 4750 
z
" transform="scale(0.015625)"/>
        <path id="DejaVuSans-33" d="M 2597 2516 
Q 3050 2419 3304 2112 
Q 3559 1806 3559 1356 
Q 3559 666 3084 287 
Q 2609 -91 1734 -91 
Q 1441 -91 1130 -33 
Q 819 25 488 141 
L 488 750 
Q 750 597 1062 519 
Q 1375 441 1716 441 
Q 2309 441 2620 675 
Q 2931 909 2931 1356 
Q 2931 1769 2642 2001 
Q 2353 2234 1838 2234 
L 1294 2234 
L 1294 2753 
L 1863 2753 
Q 2328 2753 2575 2939 
Q 2822 3125 2822 3475 
Q 2822 3834 2567 4026 
Q 2313 4219 1838 4219 
Q 1578 4219 1281 4162 
Q 984 4106 628 3988 
L 628 4550 
Q 988 4650 1302 4700 
Q 1616 4750 1894 4750 
Q 2613 4750 3031 4423 
Q 3450 4097 3450 3541 
Q 3450 3153 3228 2886 
Q 3006 2619 2597 2516 
z
" transform="scale(0.015625)"/>
        <path id="DejaVuSans-2d" d="M 313 2009 
L 1997 2009 
L 1997 1497 
L 313 1497 
L 313 2009 
z
" transform="scale(0.015625)"/>
        <path id="DejaVuSans-31" d="M 794 531 
L 1825 531 
L 1825 4091 
L 703 3866 
L 703 4441 
L 1819 4666 
L 2450 4666 
L 2450 531 
L 3481 531 
L 3481 0 
L 794 0 
L 794 531 
z
" transform="scale(0.015625)"/>
       </defs>
       <use xlink:href="#DejaVuSans-32"/>
       <use xlink:href="#DejaVuSans-30" x="63.623047"/>
       <use xlink:href="#DejaVuSans-32" x="127.246094"/>
       <use xlink:href="#DejaVuSans-33" x="190.869141"/>
       <use xlink:href="#DejaVuSans-2d" x="254.492188"/>
       <use xlink:href="#DejaVuSans-30" x="290.576172"/>
       <use xlink:href="#DejaVuSans-32" x="354.199219"/>
       <use xlink:href="#DejaVuSans-2d" x="417.822266"/>
       <use xlink:href="#DejaVuSans-30" x="453.90625"/>
       <use xlink:href="#DejaVuSans-31" x="517.529297"/>
      </g>
     </g>
    </g>
    <g id="xtick_2">
     <g id="line2d_2">
      <g>
       <use xlink:href="#m116ac3fe3e" x="249.946197" y="232.32" style="stroke: #000000; stroke-width: 0.8"/>
      </g>
     </g>
     <g id="text_2">
      <!-- 2023-02-15 -->
      <g transform="translate(198.576745 274.958252) rotate(-30) scale(0.1 -0.1)">
       <defs>
        <path id="DejaVuSans-35" d="M 691 4666 
L 3169 4666 
L 3169 4134 
L 1269 4134 
L 1269 2991 
Q 1406 3038 1543 3061 
Q 1681 3084 1819 3084 
Q 2600 3084 3056 2656 
Q 3513 2228 3513 1497 
Q 3513 744 3044 326 
Q 2575 -91 1722 -91 
Q 1428 -91 1123 -41 
Q 819 9 494 109 
L 494 744 
Q 775 591 1075 516 
Q 1375 441 1709 441 
Q 2250 441 2565 725 
Q 2881 1009 2881 1497 
Q 2881 1984 2565 2268 
Q 2250 2553 1709 2553 
Q 1456 2553 1204 2497 
Q 953 2441 691 2322 
L 691 4666 
z
" transform="scale(0.015625)"/>
       </defs>
       <use xlink:href="#DejaVuSans-32"/>
       <use xlink:href="#DejaVuSans-30" x="63.623047"/>
       <use xlink:href="#DejaVuSans-32" x="127.246094"/>
       <use xlink:href="#DejaVuSans-33" x="190.869141"/>
       <use xlink:href="#DejaVuSans-2d" x="254.492188"/>
       <use xlink:href="#DejaVuSans-30" x="290.576172"/>
       <use xlink:href="#DejaVuSans-32" x="354.199219"/>
       <use xlink:href="#DejaVuSans-2d" x="417.822266"/>
       <use xlink:href="#DejaVuSans-31" x="453.90625"/>
       <use xlink:href="#DejaVuSans-35" x="517.529297"/>
      </g>
     </g>
    </g>
    <g id="xtick_3">
     <g id="line2d_3">
      <g>
       <use xlink:href="#m116ac3fe3e" x="322.413729" y="232.32" style="stroke: #000000; stroke-width: 0.8"/>
      </g>
     </g>
     <g id="text_3">
      <!-- 2023-03-01 -->
      <g transform="translate(271.044278 274.958252) rotate(-30) scale(0.1 -0.1)">
       <use xlink:href="#DejaVuSans-32"/>
       <use xlink:href="#DejaVuSans-30" x="63.623047"/>
       <use xlink:href="#DejaVuSans-32" x="127.246094"/>
       <use xlink:href="#DejaVuSans-33" x="190.869141"/>
       <use xlink:href="#DejaVuSans-2d" x="254.492188"/>
       <use xlink:href="#DejaVuSans-30" x="290.576172"/>
       <use xlink:href="#DejaVuSans-33" x="354.199219"/>
       <use xlink:href="#DejaVuSans-2d" x="417.822266"/>
       <use xlink:href="#DejaVuSans-30" x="453.90625"/>
       <use xlink:href="#DejaVuSans-31" x="517.529297"/>
      </g>
     </g>
    </g>
    <g id="xtick_4">
     <g id="line2d_4">
      <g>
       <use xlink:href="#m116ac3fe3e" x="394.881262" y="232.32" style="stroke: #000000; stroke-width: 0.8"/>
      </g>
     </g>
     <g id="text_4">
      <!-- 2023-03-15 -->
      <g transform="translate(343.51181 274.958252) rotate(-30) scale(0.1 -0.1)">
       <use xlink:href="#DejaVuSans-32"/>
       <use xlink:href="#DejaVuSans-30" x="63.623047"/>
       <use xlink:href="#DejaVuSans-32" x="127.246094"/>
       <use xlink:href="#DejaVuSans-33" x="190.869141"/>
       <use xlink:href="#DejaVuSans-2d" x="254.492188"/>
       <use xlink:href="#DejaVuSans-30" x="290.576172"/>
       <use xlink:href="#DejaVuSans-33" x="354.199219"/>
       <use xlink:href="#DejaVuSans-2d" x="417.822266"/>
       <use xlink:href="#DejaVuSans-31" x="453.90625"/>
       <use xlink:href="#DejaVuSans-35" x="517.529297"/>
      </g>
     </g>
    </g>
    <g id="xtick_5">
     <g id="line2d_5">
      <g>
       <use xlink:href="#m116ac3fe3e" x="482.877551" y="232.32" style="stroke: #000000; stroke-width: 0.8"/>
      </g>
     </g>
     <g id="text_5">
      <!-- 2023-04-01 -->
      <g transform="translate(431.5081 274.958252) rotate(-30) scale(0.1 -0.1)">
       <defs>
        <path id="DejaVuSans-34" d="M 2419 4116 
L 825 1625 
L 2419 1625 
L 2419 4116 
z
M 2253 4666 
L 3047 4666 
L 3047 1625 
L 3713 1625 
L 3713 1100 
L 3047 1100 
L 3047 0 
L 2419 0 
L 2419 1100 
L 313 1100 
L 313 1709 
L 2253 4666 
z
" transform="scale(0.015625)"/>
       </defs>
       <use xlink:href="#DejaVuSans-32"/>
       <use xlink:href="#DejaVuSans-30" x="63.623047"/>
       <use xlink:href="#DejaVuSans-32" x="127.246094"/>
       <use xlink:href="#DejaVuSans-33" x="190.869141"/>
       <use xlink:href="#DejaVuSans-2d" x="254.492188"/>
       <use xlink:href="#DejaVuSans-30" x="290.576172"/>
       <use xlink:href="#DejaVuSans-34" x="354.199219"/>
       <use xlink:href="#DejaVuSans-2d" x="417.822266"/>
       <use xlink:href="#DejaVuSans-30" x="453.90625"/>
       <use xlink:href="#DejaVuSans-31" x="517.529297"/>
      </g>
     </g>
    </g>
    <g id="xtick_6">
     <g id="line2d_6">
      <g>
       <use xlink:href="#m116ac3fe3e" x="555.345083" y="232.32" style="stroke: #000000; stroke-width: 0.8"/>
      </g>
     </g>
     <g id="text_6">
      <!-- 2023-04-15 -->
      <g transform="translate(503.975632 274.958252) rotate(-30) scale(0.1 -0.1)">
       <use xlink:href="#DejaVuSans-32"/>
       <use xlink:href="#DejaVuSans-30" x="63.623047"/>
       <use xlink:href="#DejaVuSans-32" x="127.246094"/>
       <use xlink:href="#DejaVuSans-33" x="190.869141"/>
       <use xlink:href="#DejaVuSans-2d" x="254.492188"/>
       <use xlink:href="#DejaVuSans-30" x="290.576172"/>
       <use xlink:href="#DejaVuSans-34" x="354.199219"/>
       <use xlink:href="#DejaVuSans-2d" x="417.822266"/>
       <use xlink:href="#DejaVuSans-31" x="453.90625"/>
       <use xlink:href="#DejaVuSans-35" x="517.529297"/>
      </g>
     </g>
    </g>
    <g id="xtick_7">
     <g id="line2d_7">
      <g>
       <use xlink:href="#m116ac3fe3e" x="638.165121" y="232.32" style="stroke: #000000; stroke-width: 0.8"/>
      </g>
     </g>
     <g id="text_7">
      <!-- 2023-05-01 -->
      <g transform="translate(586.795669 274.958252) rotate(-30) scale(0.1 -0.1)">
       <use xlink:href="#DejaVuSans-32"/>
       <use xlink:href="#DejaVuSans-30" x="63.623047"/>
       <use xlink:href="#DejaVuSans-32" x="127.246094"/>
       <use xlink:href="#DejaVuSans-33" x="190.869141"/>
       <use xlink:href="#DejaVuSans-2d" x="254.492188"/>
       <use xlink:href="#DejaVuSans-30" x="290.576172"/>
       <use xlink:href="#DejaVuSans-35" x="354.199219"/>
       <use xlink:href="#DejaVuSans-2d" x="417.822266"/>
       <use xlink:href="#DejaVuSans-30" x="453.90625"/>
       <use xlink:href="#DejaVuSans-31" x="517.529297"/>
      </g>
     </g>
    </g>
    <g id="text_8">
     <!-- Date -->
     <g transform="translate(357.049219 288.357752) scale(0.1 -0.1)">
      <defs>
       <path id="DejaVuSans-44" d="M 1259 4147 
L 1259 519 
L 2022 519 
Q 2988 519 3436 956 
Q 3884 1394 3884 2338 
Q 3884 3275 3436 3711 
Q 2988 4147 2022 4147 
L 1259 4147 
z
M 628 4666 
L 1925 4666 
Q 3281 4666 3915 4102 
Q 4550 3538 4550 2338 
Q 4550 1131 3912 565 
Q 3275 0 1925 0 
L 628 0 
L 628 4666 
z
" transform="scale(0.015625)"/>
       <path id="DejaVuSans-61" d="M 2194 1759 
Q 1497 1759 1228 1600 
Q 959 1441 959 1056 
Q 959 750 1161 570 
Q 1363 391 1709 391 
Q 2188 391 2477 730 
Q 2766 1069 2766 1631 
L 2766 1759 
L 2194 1759 
z
M 3341 1997 
L 3341 0 
L 2766 0 
L 2766 531 
Q 2569 213 2275 61 
Q 1981 -91 1556 -91 
Q 1019 -91 701 211 
Q 384 513 384 1019 
Q 384 1609 779 1909 
Q 1175 2209 1959 2209 
L 2766 2209 
L 2766 2266 
Q 2766 2663 2505 2880 
Q 2244 3097 1772 3097 
Q 1472 3097 1187 3025 
Q 903 2953 641 2809 
L 641 3341 
Q 956 3463 1253 3523 
Q 1550 3584 1831 3584 
Q 2591 3584 2966 3190 
Q 3341 2797 3341 1997 
z
" transform="scale(0.015625)"/>
       <path id="DejaVuSans-74" d="M 1172 4494 
L 1172 3500 
L 2356 3500 
L 2356 3053 
L 1172 3053 
L 1172 1153 
Q 1172 725 1289 603 
Q 1406 481 1766 481 
L 2356 481 
L 2356 0 
L 1766 0 
Q 1100 0 847 248 
Q 594 497 594 1153 
L 594 3053 
L 172 3053 
L 172 3500 
L 594 3500 
L 594 4494 
L 1172 4494 
z
" transform="scale(0.015625)"/>
       <path id="DejaVuSans-65" d="M 3597 1894 
L 3597 1613 
L 953 1613 
Q 991 1019 1311 708 
Q 1631 397 2203 397 
Q 2534 397 2845 478 
Q 3156 559 3463 722 
L 3463 178 
Q 3153 47 2828 -22 
Q 2503 -91 2169 -91 
Q 1331 -91 842 396 
Q 353 884 353 1716 
Q 353 2575 817 3079 
Q 1281 3584 2069 3584 
Q 2775 3584 3186 3129 
Q 3597 2675 3597 1894 
z
M 3022 2063 
Q 3016 2534 2758 2815 
Q 2500 3097 2075 3097 
Q 1594 3097 1305 2825 
Q 1016 2553 972 2059 
L 3022 2063 
z
" transform="scale(0.015625)"/>
      </defs>
      <use xlink:href="#DejaVuSans-44"/>
      <use xlink:href="#DejaVuSans-61" x="77.001953"/>
      <use xlink:href="#DejaVuSans-74" x="138.28125"/>
      <use xlink:href="#DejaVuSans-65" x="177.490234"/>
     </g>
    </g>
   </g>
   <g id="matplotlib.axis_2">
    <g id="ytick_1">
     <g id="line2d_8">
      <defs>
       <path id="mf422aad863" d="M 0 0 
L -3.5 0 
" style="stroke: #000000; stroke-width: 0.8"/>
      </defs>
      <g>
       <use xlink:href="#mf422aad863" x="90" y="219.11796" style="stroke: #000000; stroke-width: 0.8"/>
      </g>
     </g>
     <g id="text_9">
      <!-- 100 -->
      <g transform="translate(63.9125 222.917179) scale(0.1 -0.1)">
       <use xlink:href="#DejaVuSans-31"/>
       <use xlink:href="#DejaVuSans-30" x="63.623047"/>
       <use xlink:href="#DejaVuSans-30" x="127.246094"/>
      </g>
     </g>
    </g>
    <g id="ytick_2">
     <g id="line2d_9">
      <g>
       <use xlink:href="#mf422aad863" x="90" y="192.513283" style="stroke: #000000; stroke-width: 0.8"/>
      </g>
     </g>
     <g id="text_10">
      <!-- 150 -->
      <g transform="translate(63.9125 196.312502) scale(0.1 -0.1)">
       <use xlink:href="#DejaVuSans-31"/>
       <use xlink:href="#DejaVuSans-35" x="63.623047"/>
       <use xlink:href="#DejaVuSans-30" x="127.246094"/>
      </g>
     </g>
    </g>
    <g id="ytick_3">
     <g id="line2d_10">
      <g>
       <use xlink:href="#mf422aad863" x="90" y="165.908607" style="stroke: #000000; stroke-width: 0.8"/>
      </g>
     </g>
     <g id="text_11">
      <!-- 200 -->
      <g transform="translate(63.9125 169.707826) scale(0.1 -0.1)">
       <use xlink:href="#DejaVuSans-32"/>
       <use xlink:href="#DejaVuSans-30" x="63.623047"/>
       <use xlink:href="#DejaVuSans-30" x="127.246094"/>
      </g>
     </g>
    </g>
    <g id="ytick_4">
     <g id="line2d_11">
      <g>
       <use xlink:href="#mf422aad863" x="90" y="139.30393" style="stroke: #000000; stroke-width: 0.8"/>
      </g>
     </g>
     <g id="text_12">
      <!-- 250 -->
      <g transform="translate(63.9125 143.103149) scale(0.1 -0.1)">
       <use xlink:href="#DejaVuSans-32"/>
       <use xlink:href="#DejaVuSans-35" x="63.623047"/>
       <use xlink:href="#DejaVuSans-30" x="127.246094"/>
      </g>
     </g>
    </g>
    <g id="ytick_5">
     <g id="line2d_12">
      <g>
       <use xlink:href="#mf422aad863" x="90" y="112.699254" style="stroke: #000000; stroke-width: 0.8"/>
      </g>
     </g>
     <g id="text_13">
      <!-- 300 -->
      <g transform="translate(63.9125 116.498472) scale(0.1 -0.1)">
       <use xlink:href="#DejaVuSans-33"/>
       <use xlink:href="#DejaVuSans-30" x="63.623047"/>
       <use xlink:href="#DejaVuSans-30" x="127.246094"/>
      </g>
     </g>
    </g>
    <g id="ytick_6">
     <g id="line2d_13">
      <g>
       <use xlink:href="#mf422aad863" x="90" y="86.094577" style="stroke: #000000; stroke-width: 0.8"/>
      </g>
     </g>
     <g id="text_14">
      <!-- 350 -->
      <g transform="translate(63.9125 89.893796) scale(0.1 -0.1)">
       <use xlink:href="#DejaVuSans-33"/>
       <use xlink:href="#DejaVuSans-35" x="63.623047"/>
       <use xlink:href="#DejaVuSans-30" x="127.246094"/>
      </g>
     </g>
    </g>
    <g id="text_15">
     <!-- Stock Price -->
     <g transform="translate(57.832812 178.345) rotate(-90) scale(0.1 -0.1)">
      <defs>
       <path id="DejaVuSans-53" d="M 3425 4513 
L 3425 3897 
Q 3066 4069 2747 4153 
Q 2428 4238 2131 4238 
Q 1616 4238 1336 4038 
Q 1056 3838 1056 3469 
Q 1056 3159 1242 3001 
Q 1428 2844 1947 2747 
L 2328 2669 
Q 3034 2534 3370 2195 
Q 3706 1856 3706 1288 
Q 3706 609 3251 259 
Q 2797 -91 1919 -91 
Q 1588 -91 1214 -16 
Q 841 59 441 206 
L 441 856 
Q 825 641 1194 531 
Q 1563 422 1919 422 
Q 2459 422 2753 634 
Q 3047 847 3047 1241 
Q 3047 1584 2836 1778 
Q 2625 1972 2144 2069 
L 1759 2144 
Q 1053 2284 737 2584 
Q 422 2884 422 3419 
Q 422 4038 858 4394 
Q 1294 4750 2059 4750 
Q 2388 4750 2728 4690 
Q 3069 4631 3425 4513 
z
" transform="scale(0.015625)"/>
       <path id="DejaVuSans-6f" d="M 1959 3097 
Q 1497 3097 1228 2736 
Q 959 2375 959 1747 
Q 959 1119 1226 758 
Q 1494 397 1959 397 
Q 2419 397 2687 759 
Q 2956 1122 2956 1747 
Q 2956 2369 2687 2733 
Q 2419 3097 1959 3097 
z
M 1959 3584 
Q 2709 3584 3137 3096 
Q 3566 2609 3566 1747 
Q 3566 888 3137 398 
Q 2709 -91 1959 -91 
Q 1206 -91 779 398 
Q 353 888 353 1747 
Q 353 2609 779 3096 
Q 1206 3584 1959 3584 
z
" transform="scale(0.015625)"/>
       <path id="DejaVuSans-63" d="M 3122 3366 
L 3122 2828 
Q 2878 2963 2633 3030 
Q 2388 3097 2138 3097 
Q 1578 3097 1268 2742 
Q 959 2388 959 1747 
Q 959 1106 1268 751 
Q 1578 397 2138 397 
Q 2388 397 2633 464 
Q 2878 531 3122 666 
L 3122 134 
Q 2881 22 2623 -34 
Q 2366 -91 2075 -91 
Q 1284 -91 818 406 
Q 353 903 353 1747 
Q 353 2603 823 3093 
Q 1294 3584 2113 3584 
Q 2378 3584 2631 3529 
Q 2884 3475 3122 3366 
z
" transform="scale(0.015625)"/>
       <path id="DejaVuSans-6b" d="M 581 4863 
L 1159 4863 
L 1159 1991 
L 2875 3500 
L 3609 3500 
L 1753 1863 
L 3688 0 
L 2938 0 
L 1159 1709 
L 1159 0 
L 581 0 
L 581 4863 
z
" transform="scale(0.015625)"/>
       <path id="DejaVuSans-20" transform="scale(0.015625)"/>
       <path id="DejaVuSans-50" d="M 1259 4147 
L 1259 2394 
L 2053 2394 
Q 2494 2394 2734 2622 
Q 2975 2850 2975 3272 
Q 2975 3691 2734 3919 
Q 2494 4147 2053 4147 
L 1259 4147 
z
M 628 4666 
L 2053 4666 
Q 2838 4666 3239 4311 
Q 3641 3956 3641 3272 
Q 3641 2581 3239 2228 
Q 2838 1875 2053 1875 
L 1259 1875 
L 1259 0 
L 628 0 
L 628 4666 
z
" transform="scale(0.015625)"/>
       <path id="DejaVuSans-72" d="M 2631 2963 
Q 2534 3019 2420 3045 
Q 2306 3072 2169 3072 
Q 1681 3072 1420 2755 
Q 1159 2438 1159 1844 
L 1159 0 
L 581 0 
L 581 3500 
L 1159 3500 
L 1159 2956 
Q 1341 3275 1631 3429 
Q 1922 3584 2338 3584 
Q 2397 3584 2469 3576 
Q 2541 3569 2628 3553 
L 2631 2963 
z
" transform="scale(0.015625)"/>
       <path id="DejaVuSans-69" d="M 603 3500 
L 1178 3500 
L 1178 0 
L 603 0 
L 603 3500 
z
M 603 4863 
L 1178 4863 
L 1178 4134 
L 603 4134 
L 603 4863 
z
" transform="scale(0.015625)"/>
      </defs>
      <use xlink:href="#DejaVuSans-53"/>
      <use xlink:href="#DejaVuSans-74" x="63.476562"/>
      <use xlink:href="#DejaVuSans-6f" x="102.685547"/>
      <use xlink:href="#DejaVuSans-63" x="163.867188"/>
      <use xlink:href="#DejaVuSans-6b" x="218.847656"/>
      <use xlink:href="#DejaVuSans-20" x="276.757812"/>
      <use xlink:href="#DejaVuSans-50" x="308.544922"/>
      <use xlink:href="#DejaVuSans-72" x="367.097656"/>
      <use xlink:href="#DejaVuSans-69" x="408.210938"/>
      <use xlink:href="#DejaVuSans-63" x="435.994141"/>
      <use xlink:href="#DejaVuSans-65" x="490.974609"/>
     </g>
    </g>
   </g>
   <g id="line2d_14">
    <path d="M 115.363636 220.171507 
L 130.892393 219.229699 
L 136.068646 220.341777 
L 141.244898 221.661366 
L 146.42115 220.437554 
L 151.597403 219.453177 
L 167.12616 220.746165 
L 172.302412 219.73519 
L 177.478664 218.88916 
L 182.654917 214.999557 
L 187.831169 216.574554 
L 203.359926 217.574888 
L 208.536178 215.052766 
L 213.71243 219.453177 
L 218.888683 221.773106 
L 224.064935 222.007228 
L 239.593692 221.985944 
L 244.769944 221.948697 
L 249.946197 220.746165 
L 255.122449 221.507059 
L 260.298701 222.124289 
L 281.003711 223.486447 
L 286.179963 223.56094 
L 291.356215 223.965332 
L 296.532468 224.901818 
L 312.061224 224.508066 
L 317.237477 224.406971 
L 322.413729 224.247341 
L 327.589981 223.374708 
L 332.766234 222.496753 
L 348.294991 221.709257 
L 353.471243 222.385014 
L 358.647495 222.177498 
L 363.823748 223.204439 
L 369 224.103678 
L 384.528757 223.848271 
L 389.705009 222.326483 
L 394.881262 221.187804 
L 400.057514 218.94769 
L 405.233766 218.255967 
L 420.762523 218.468805 
L 425.938776 216.500061 
L 431.115028 217.324803 
L 436.29128 216.138237 
L 441.467532 216.22337 
L 456.996289 217.80901 
L 462.172542 218.569904 
L 467.348794 218.37835 
L 472.525046 218.644397 
L 477.701299 217.133249 
L 493.230056 216.798032 
L 498.406308 216.606478 
L 503.58256 216.739501 
L 508.758813 214.637733 
L 529.463822 215.691276 
L 534.640074 216.27126 
L 539.816327 216.649046 
L 544.992579 215.164505 
L 550.168831 214.398289 
L 565.697588 215.941361 
L 570.87384 216.723539 
L 576.050093 216.893809 
L 581.226345 216.303185 
L 586.402597 216.239332 
L 601.931354 215.941361 
L 607.107607 217.069401 
L 612.283859 217.143894 
L 617.460111 215.079372 
L 622.636364 215.212395 
" clip-path="url(#p02632716c0)" style="fill: none; stroke: #1f77b4; stroke-width: 1.5; stroke-linecap: square"/>
   </g>
   <g id="line2d_15">
    <path d="M 115.363636 220.581217 
L 130.892393 220.437554 
L 136.068646 221.076064 
L 141.244898 220.618464 
L 146.42115 219.532992 
L 151.597403 217.926072 
L 167.12616 218.825307 
L 172.302412 217.452509 
L 177.478664 216.377678 
L 182.654917 212.248631 
L 187.831169 217.314163 
L 203.359926 217.957996 
L 208.536178 217.995242 
L 213.71243 219.091354 
L 218.888683 220.054446 
L 224.064935 220.389663 
L 239.593692 219.362723 
L 244.769944 219.27759 
L 249.946197 218.50073 
L 255.122449 220.102332 
L 260.298701 220.607824 
L 281.003711 222.001906 
L 286.179963 221.358073 
L 291.356215 221.342111 
L 296.532468 222.576568 
L 312.061224 222.438223 
L 317.237477 222.188138 
L 322.413729 223.284253 
L 327.589981 223.305538 
L 332.766234 221.831636 
L 348.294991 222.443545 
L 353.471243 222.549962 
L 358.647495 222.35309 
L 363.823748 223.241685 
L 369 224.050465 
L 384.528757 223.145908 
L 389.705009 221.84228 
L 394.881262 221.139917 
L 400.057514 219.096676 
L 405.233766 219.67666 
L 420.762523 220.336455 
L 425.938776 218.793383 
L 431.115028 219.809683 
L 436.29128 219.804361 
L 441.467532 220.112976 
L 456.996289 220.160863 
L 462.172542 220.586539 
L 467.348794 218.984937 
L 472.525046 218.053773 
L 477.701299 217.367372 
L 493.230056 217.835613 
L 498.406308 217.016192 
L 503.58256 218.532658 
L 508.758813 218.021849 
L 529.463822 217.963318 
L 534.640074 219.160528 
L 539.816327 220.272602 
L 544.992579 217.840935 
L 550.168831 217.782404 
L 565.697588 217.660025 
L 570.87384 217.894143 
L 576.050093 216.829956 
L 581.226345 217.090685 
L 586.402597 215.41459 
L 601.931354 215.81366 
L 607.107607 217.75048 
L 612.283859 216.468132 
L 617.460111 213.892802 
L 622.636364 216.218052 
" clip-path="url(#p02632716c0)" style="fill: none; stroke: #ff7f0e; stroke-width: 1.5; stroke-linecap: square"/>
   </g>
   <g id="line2d_16">
    <path d="M 115.363636 198.967581 
L 130.892393 197.243595 
L 136.068646 196.488023 
L 141.244898 196.844524 
L 146.42115 195.727125 
L 151.597403 194.678908 
L 167.12616 196.237938 
L 172.302412 195.551541 
L 177.478664 194.944955 
L 182.654917 192.076963 
L 187.831169 190.118863 
L 203.359926 191.592764 
L 208.536178 190.039052 
L 213.71243 191.491665 
L 218.888683 192.050365 
L 224.064935 191.975872 
L 239.593692 190.46472 
L 244.769944 190.810586 
L 249.946197 189.677224 
L 255.122449 190.539213 
L 260.298701 191.156443 
L 281.003711 193.322068 
L 286.179963 193.093263 
L 291.356215 192.832543 
L 296.532468 194.263868 
L 312.061224 193.620039 
L 317.237477 193.891404 
L 322.413729 195.008803 
L 327.589981 194.689544 
L 332.766234 191.965228 
L 348.294991 190.475364 
L 353.471243 191.661931 
L 358.647495 190.986178 
L 363.823748 192.19935 
L 369 193.311424 
L 384.528757 192.263199 
L 389.705009 191.135163 
L 394.881262 190.922321 
L 400.057514 189.400533 
L 405.233766 189.852816 
L 420.762523 188.575795 
L 425.938776 187.575456 
L 431.115028 188.34699 
L 436.29128 187.761692 
L 441.467532 187.059325 
L 456.996289 188.10755 
L 462.172542 188.442771 
L 467.348794 186.782634 
L 472.525046 185.936607 
L 477.701299 184.585093 
L 493.230056 183.909332 
L 498.406308 184.196659 
L 503.58256 185.191679 
L 508.758813 184.71279 
L 529.463822 186.112199 
L 534.640074 186.766672 
L 539.816327 187.139136 
L 544.992579 184.233909 
L 550.168831 184.420137 
L 565.697588 184.409501 
L 570.87384 183.749702 
L 576.050093 183.132472 
L 581.226345 183.653929 
L 586.402597 184.521236 
L 601.931354 184.356289 
L 607.107607 185.186353 
L 612.283859 185.191679 
L 617.460111 182.71744 
L 622.636364 182.041687 
" clip-path="url(#p02632716c0)" style="fill: none; stroke: #2ca02c; stroke-width: 1.5; stroke-linecap: square"/>
   </g>
   <g id="line2d_17">
    <path d="M 115.363636 198.16944 
L 130.892393 196.094271 
L 136.068646 196.163445 
L 141.244898 197.036078 
L 146.42115 193.949934 
L 151.597403 191.587438 
L 167.12616 194.07764 
L 172.302412 193.061339 
L 177.478664 190.853154 
L 182.654917 171.884015 
L 187.831169 173.075907 
L 203.359926 173.325992 
L 208.536178 170.367553 
L 213.71243 174.725401 
L 218.888683 177.657233 
L 224.064935 179.663228 
L 239.593692 176.853775 
L 244.769944 176.827168 
L 249.946197 178.061621 
L 255.122449 180.573103 
L 260.298701 180.338981 
L 281.003711 180.764657 
L 286.179963 181.275471 
L 291.356215 180.785946 
L 296.532468 181.663897 
L 312.061224 182.116179 
L 317.237477 179.242869 
L 322.413729 180.051654 
L 327.589981 179.46103 
L 332.766234 173.756986 
L 348.294991 173.943222 
L 353.471243 174.150739 
L 358.647495 173.905972 
L 363.823748 175.651238 
L 369 176.811206 
L 384.528757 176.071597 
L 389.705009 169.090524 
L 394.881262 167.105817 
L 400.057514 163.28539 
L 405.233766 168.244497 
L 420.762523 167.073893 
L 425.938776 164.759283 
L 431.115028 166.009706 
L 436.29128 163.631247 
L 441.467532 162.710728 
L 456.996289 164.397463 
L 462.172542 165.546787 
L 467.348794 163.061903 
L 472.525046 161.736996 
L 477.701299 159.555409 
L 493.230056 158.954141 
L 498.406308 158.076189 
L 503.58256 159.800175 
L 508.758813 157.341898 
L 529.463822 158.060227 
L 534.640074 158.539108 
L 539.816327 158.459297 
L 544.992579 155.0805 
L 550.168831 154.473914 
L 565.697588 155.873323 
L 570.87384 156.389454 
L 576.050093 157.55474 
L 581.226345 158.954141 
L 586.402597 159.049922 
L 601.931354 159.103134 
L 607.107607 161.891299 
L 612.283859 160.906931 
L 617.460111 145.391082 
L 622.636364 144.454592 
" clip-path="url(#p02632716c0)" style="fill: none; stroke: #d62728; stroke-width: 1.5; stroke-linecap: square"/>
   </g>
   <g id="line2d_18">
    <path d="M 115.363636 90.085279 
L 130.892393 82.146436 
L 136.068646 78.735731 
L 141.244898 76.538182 
L 146.42115 78.182349 
L 151.597403 80.363936 
L 167.12616 84.439774 
L 172.302412 84.040704 
L 177.478664 79.714781 
L 182.654917 77.10751 
L 187.831169 77.634293 
L 203.359926 79.986138 
L 208.536178 79.203959 
L 213.71243 77.13945 
L 218.888683 79.443408 
L 224.064935 87.499312 
L 239.593692 81.534532 
L 244.769944 80.79493 
L 249.946197 80.018062 
L 255.122449 85.716795 
L 260.298701 87.180052 
L 281.003711 92.745746 
L 286.179963 94.139829 
L 291.356215 100.115245 
L 296.532468 103.573853 
L 312.061224 100.44514 
L 317.237477 100.924021 
L 322.413729 105.526627 
L 327.589981 106.37798 
L 332.766234 104.622078 
L 348.294991 106.298169 
L 353.471243 108.192421 
L 358.647495 106.425866 
L 363.823748 113.880502 
L 369 116.551606 
L 384.528757 116.152536 
L 389.705009 115.391646 
L 394.881262 110.682615 
L 400.057514 107.346394 
L 405.233766 110.836926 
L 420.762523 109.969611 
L 425.938776 109.618428 
L 431.115028 115.945027 
L 436.29128 101.860511 
L 441.467532 97.593111 
L 456.996289 97.981545 
L 462.172542 100.18442 
L 467.348794 95.656299 
L 472.525046 92.250903 
L 477.701299 88.499634 
L 493.230056 87.009779 
L 498.406308 87.823881 
L 503.58256 90.165089 
L 508.758813 91.772022 
L 529.463822 91.952932 
L 534.640074 92.367964 
L 539.816327 96.188392 
L 544.992579 88.121852 
L 550.168831 92.144478 
L 565.697588 95.289153 
L 570.87384 94.767695 
L 576.050093 100.397254 
L 581.226345 99.210679 
L 586.402597 97.811271 
L 601.931354 97.257905 
L 607.107607 100.700551 
L 612.283859 101.445479 
L 617.460111 98.944633 
L 622.636364 96.773698 
" clip-path="url(#p02632716c0)" style="fill: none; stroke: #9467bd; stroke-width: 1.5; stroke-linecap: square"/>
   </g>
   <g id="patch_3">
    <path d="M 90 232.32 
L 90 69.12 
" style="fill: none; stroke: #000000; stroke-width: 0.8; stroke-linejoin: miter; stroke-linecap: square"/>
   </g>
   <g id="patch_4">
    <path d="M 648 232.32 
L 648 69.12 
" style="fill: none; stroke: #000000; stroke-width: 0.8; stroke-linejoin: miter; stroke-linecap: square"/>
   </g>
   <g id="patch_5">
    <path d="M 90 232.32 
L 648 232.32 
" style="fill: none; stroke: #000000; stroke-width: 0.8; stroke-linejoin: miter; stroke-linecap: square"/>
   </g>
   <g id="patch_6">
    <path d="M 90 69.12 
L 648 69.12 
" style="fill: none; stroke: #000000; stroke-width: 0.8; stroke-linejoin: miter; stroke-linecap: square"/>
   </g>
   <g id="text_16">
    <!-- S&amp;P 500 company-level Stock Prices  -->
    <g transform="translate(257.555625 63.12) scale(0.12 -0.12)">
     <defs>
      <path id="DejaVuSans-26" d="M 1556 2509 
Q 1272 2256 1139 2004 
Q 1006 1753 1006 1478 
Q 1006 1022 1337 719 
Q 1669 416 2169 416 
Q 2466 416 2725 514 
Q 2984 613 3213 813 
L 1556 2509 
z
M 1997 2859 
L 3584 1234 
Q 3769 1513 3872 1830 
Q 3975 2147 3994 2503 
L 4575 2503 
Q 4538 2091 4375 1687 
Q 4213 1284 3922 891 
L 4794 0 
L 4006 0 
L 3559 459 
Q 3234 181 2878 45 
Q 2522 -91 2113 -91 
Q 1359 -91 881 339 
Q 403 769 403 1441 
Q 403 1841 612 2192 
Q 822 2544 1241 2853 
Q 1091 3050 1012 3245 
Q 934 3441 934 3628 
Q 934 4134 1281 4442 
Q 1628 4750 2203 4750 
Q 2463 4750 2720 4694 
Q 2978 4638 3244 4525 
L 3244 3956 
Q 2972 4103 2725 4179 
Q 2478 4256 2266 4256 
Q 1938 4256 1733 4082 
Q 1528 3909 1528 3634 
Q 1528 3475 1620 3314 
Q 1713 3153 1997 2859 
z
" transform="scale(0.015625)"/>
      <path id="DejaVuSans-6d" d="M 3328 2828 
Q 3544 3216 3844 3400 
Q 4144 3584 4550 3584 
Q 5097 3584 5394 3201 
Q 5691 2819 5691 2113 
L 5691 0 
L 5113 0 
L 5113 2094 
Q 5113 2597 4934 2840 
Q 4756 3084 4391 3084 
Q 3944 3084 3684 2787 
Q 3425 2491 3425 1978 
L 3425 0 
L 2847 0 
L 2847 2094 
Q 2847 2600 2669 2842 
Q 2491 3084 2119 3084 
Q 1678 3084 1418 2786 
Q 1159 2488 1159 1978 
L 1159 0 
L 581 0 
L 581 3500 
L 1159 3500 
L 1159 2956 
Q 1356 3278 1631 3431 
Q 1906 3584 2284 3584 
Q 2666 3584 2933 3390 
Q 3200 3197 3328 2828 
z
" transform="scale(0.015625)"/>
      <path id="DejaVuSans-70" d="M 1159 525 
L 1159 -1331 
L 581 -1331 
L 581 3500 
L 1159 3500 
L 1159 2969 
Q 1341 3281 1617 3432 
Q 1894 3584 2278 3584 
Q 2916 3584 3314 3078 
Q 3713 2572 3713 1747 
Q 3713 922 3314 415 
Q 2916 -91 2278 -91 
Q 1894 -91 1617 61 
Q 1341 213 1159 525 
z
M 3116 1747 
Q 3116 2381 2855 2742 
Q 2594 3103 2138 3103 
Q 1681 3103 1420 2742 
Q 1159 2381 1159 1747 
Q 1159 1113 1420 752 
Q 1681 391 2138 391 
Q 2594 391 2855 752 
Q 3116 1113 3116 1747 
z
" transform="scale(0.015625)"/>
      <path id="DejaVuSans-6e" d="M 3513 2113 
L 3513 0 
L 2938 0 
L 2938 2094 
Q 2938 2591 2744 2837 
Q 2550 3084 2163 3084 
Q 1697 3084 1428 2787 
Q 1159 2491 1159 1978 
L 1159 0 
L 581 0 
L 581 3500 
L 1159 3500 
L 1159 2956 
Q 1366 3272 1645 3428 
Q 1925 3584 2291 3584 
Q 2894 3584 3203 3211 
Q 3513 2838 3513 2113 
z
" transform="scale(0.015625)"/>
      <path id="DejaVuSans-79" d="M 2059 -325 
Q 1816 -950 1584 -1140 
Q 1353 -1331 966 -1331 
L 506 -1331 
L 506 -850 
L 844 -850 
Q 1081 -850 1212 -737 
Q 1344 -625 1503 -206 
L 1606 56 
L 191 3500 
L 800 3500 
L 1894 763 
L 2988 3500 
L 3597 3500 
L 2059 -325 
z
" transform="scale(0.015625)"/>
      <path id="DejaVuSans-6c" d="M 603 4863 
L 1178 4863 
L 1178 0 
L 603 0 
L 603 4863 
z
" transform="scale(0.015625)"/>
      <path id="DejaVuSans-76" d="M 191 3500 
L 800 3500 
L 1894 563 
L 2988 3500 
L 3597 3500 
L 2284 0 
L 1503 0 
L 191 3500 
z
" transform="scale(0.015625)"/>
      <path id="DejaVuSans-73" d="M 2834 3397 
L 2834 2853 
Q 2591 2978 2328 3040 
Q 2066 3103 1784 3103 
Q 1356 3103 1142 2972 
Q 928 2841 928 2578 
Q 928 2378 1081 2264 
Q 1234 2150 1697 2047 
L 1894 2003 
Q 2506 1872 2764 1633 
Q 3022 1394 3022 966 
Q 3022 478 2636 193 
Q 2250 -91 1575 -91 
Q 1294 -91 989 -36 
Q 684 19 347 128 
L 347 722 
Q 666 556 975 473 
Q 1284 391 1588 391 
Q 1994 391 2212 530 
Q 2431 669 2431 922 
Q 2431 1156 2273 1281 
Q 2116 1406 1581 1522 
L 1381 1569 
Q 847 1681 609 1914 
Q 372 2147 372 2553 
Q 372 3047 722 3315 
Q 1072 3584 1716 3584 
Q 2034 3584 2315 3537 
Q 2597 3491 2834 3397 
z
" transform="scale(0.015625)"/>
     </defs>
     <use xlink:href="#DejaVuSans-53"/>
     <use xlink:href="#DejaVuSans-26" x="63.476562"/>
     <use xlink:href="#DejaVuSans-50" x="141.455078"/>
     <use xlink:href="#DejaVuSans-20" x="201.757812"/>
     <use xlink:href="#DejaVuSans-35" x="233.544922"/>
     <use xlink:href="#DejaVuSans-30" x="297.167969"/>
     <use xlink:href="#DejaVuSans-30" x="360.791016"/>
     <use xlink:href="#DejaVuSans-20" x="424.414062"/>
     <use xlink:href="#DejaVuSans-63" x="456.201172"/>
     <use xlink:href="#DejaVuSans-6f" x="511.181641"/>
     <use xlink:href="#DejaVuSans-6d" x="572.363281"/>
     <use xlink:href="#DejaVuSans-70" x="669.775391"/>
     <use xlink:href="#DejaVuSans-61" x="733.251953"/>
     <use xlink:href="#DejaVuSans-6e" x="794.53125"/>
     <use xlink:href="#DejaVuSans-79" x="857.910156"/>
     <use xlink:href="#DejaVuSans-2d" x="915.339844"/>
     <use xlink:href="#DejaVuSans-6c" x="951.423828"/>
     <use xlink:href="#DejaVuSans-65" x="979.207031"/>
     <use xlink:href="#DejaVuSans-76" x="1040.730469"/>
     <use xlink:href="#DejaVuSans-65" x="1099.910156"/>
     <use xlink:href="#DejaVuSans-6c" x="1161.433594"/>
     <use xlink:href="#DejaVuSans-20" x="1189.216797"/>
     <use xlink:href="#DejaVuSans-53" x="1221.003906"/>
     <use xlink:href="#DejaVuSans-74" x="1284.480469"/>
     <use xlink:href="#DejaVuSans-6f" x="1323.689453"/>
     <use xlink:href="#DejaVuSans-63" x="1384.871094"/>
     <use xlink:href="#DejaVuSans-6b" x="1439.851562"/>
     <use xlink:href="#DejaVuSans-20" x="1497.761719"/>
     <use xlink:href="#DejaVuSans-50" x="1529.548828"/>
     <use xlink:href="#DejaVuSans-72" x="1588.101562"/>
     <use xlink:href="#DejaVuSans-69" x="1629.214844"/>
     <use xlink:href="#DejaVuSans-63" x="1656.998047"/>
     <use xlink:href="#DejaVuSans-65" x="1711.978516"/>
     <use xlink:href="#DejaVuSans-73" x="1773.501953"/>
     <use xlink:href="#DejaVuSans-20" x="1825.601562"/>
    </g>
   </g>
  </g>
  <g id="axes_2">
   <g id="patch_7">
    <path d="M 90 460.8 
L 648 460.8 
L 648 297.6 
L 90 297.6 
z
" style="fill: #ffffff"/>
   </g>
   <g id="matplotlib.axis_3">
    <g id="xtick_8">
     <g id="line2d_19">
      <g>
       <use xlink:href="#m116ac3fe3e" x="177.478664" y="460.8" style="stroke: #000000; stroke-width: 0.8"/>
      </g>
     </g>
     <g id="text_17">
      <!-- 2023-02-01 -->
      <g transform="translate(126.109213 503.438252) rotate(-30) scale(0.1 -0.1)">
       <use xlink:href="#DejaVuSans-32"/>
       <use xlink:href="#DejaVuSans-30" x="63.623047"/>
       <use xlink:href="#DejaVuSans-32" x="127.246094"/>
       <use xlink:href="#DejaVuSans-33" x="190.869141"/>
       <use xlink:href="#DejaVuSans-2d" x="254.492188"/>
       <use xlink:href="#DejaVuSans-30" x="290.576172"/>
       <use xlink:href="#DejaVuSans-32" x="354.199219"/>
       <use xlink:href="#DejaVuSans-2d" x="417.822266"/>
       <use xlink:href="#DejaVuSans-30" x="453.90625"/>
       <use xlink:href="#DejaVuSans-31" x="517.529297"/>
      </g>
     </g>
    </g>
    <g id="xtick_9">
     <g id="line2d_20">
      <g>
       <use xlink:href="#m116ac3fe3e" x="249.946197" y="460.8" style="stroke: #000000; stroke-width: 0.8"/>
      </g>
     </g>
     <g id="text_18">
      <!-- 2023-02-15 -->
      <g transform="translate(198.576745 503.438252) rotate(-30) scale(0.1 -0.1)">
       <use xlink:href="#DejaVuSans-32"/>
       <use xlink:href="#DejaVuSans-30" x="63.623047"/>
       <use xlink:href="#DejaVuSans-32" x="127.246094"/>
       <use xlink:href="#DejaVuSans-33" x="190.869141"/>
       <use xlink:href="#DejaVuSans-2d" x="254.492188"/>
       <use xlink:href="#DejaVuSans-30" x="290.576172"/>
       <use xlink:href="#DejaVuSans-32" x="354.199219"/>
       <use xlink:href="#DejaVuSans-2d" x="417.822266"/>
       <use xlink:href="#DejaVuSans-31" x="453.90625"/>
       <use xlink:href="#DejaVuSans-35" x="517.529297"/>
      </g>
     </g>
    </g>
    <g id="xtick_10">
     <g id="line2d_21">
      <g>
       <use xlink:href="#m116ac3fe3e" x="322.413729" y="460.8" style="stroke: #000000; stroke-width: 0.8"/>
      </g>
     </g>
     <g id="text_19">
      <!-- 2023-03-01 -->
      <g transform="translate(271.044278 503.438252) rotate(-30) scale(0.1 -0.1)">
       <use xlink:href="#DejaVuSans-32"/>
       <use xlink:href="#DejaVuSans-30" x="63.623047"/>
       <use xlink:href="#DejaVuSans-32" x="127.246094"/>
       <use xlink:href="#DejaVuSans-33" x="190.869141"/>
       <use xlink:href="#DejaVuSans-2d" x="254.492188"/>
       <use xlink:href="#DejaVuSans-30" x="290.576172"/>
       <use xlink:href="#DejaVuSans-33" x="354.199219"/>
       <use xlink:href="#DejaVuSans-2d" x="417.822266"/>
       <use xlink:href="#DejaVuSans-30" x="453.90625"/>
       <use xlink:href="#DejaVuSans-31" x="517.529297"/>
      </g>
     </g>
    </g>
    <g id="xtick_11">
     <g id="line2d_22">
      <g>
       <use xlink:href="#m116ac3fe3e" x="394.881262" y="460.8" style="stroke: #000000; stroke-width: 0.8"/>
      </g>
     </g>
     <g id="text_20">
      <!-- 2023-03-15 -->
      <g transform="translate(343.51181 503.438252) rotate(-30) scale(0.1 -0.1)">
       <use xlink:href="#DejaVuSans-32"/>
       <use xlink:href="#DejaVuSans-30" x="63.623047"/>
       <use xlink:href="#DejaVuSans-32" x="127.246094"/>
       <use xlink:href="#DejaVuSans-33" x="190.869141"/>
       <use xlink:href="#DejaVuSans-2d" x="254.492188"/>
       <use xlink:href="#DejaVuSans-30" x="290.576172"/>
       <use xlink:href="#DejaVuSans-33" x="354.199219"/>
       <use xlink:href="#DejaVuSans-2d" x="417.822266"/>
       <use xlink:href="#DejaVuSans-31" x="453.90625"/>
       <use xlink:href="#DejaVuSans-35" x="517.529297"/>
      </g>
     </g>
    </g>
    <g id="xtick_12">
     <g id="line2d_23">
      <g>
       <use xlink:href="#m116ac3fe3e" x="482.877551" y="460.8" style="stroke: #000000; stroke-width: 0.8"/>
      </g>
     </g>
     <g id="text_21">
      <!-- 2023-04-01 -->
      <g transform="translate(431.5081 503.438252) rotate(-30) scale(0.1 -0.1)">
       <use xlink:href="#DejaVuSans-32"/>
       <use xlink:href="#DejaVuSans-30" x="63.623047"/>
       <use xlink:href="#DejaVuSans-32" x="127.246094"/>
       <use xlink:href="#DejaVuSans-33" x="190.869141"/>
       <use xlink:href="#DejaVuSans-2d" x="254.492188"/>
       <use xlink:href="#DejaVuSans-30" x="290.576172"/>
       <use xlink:href="#DejaVuSans-34" x="354.199219"/>
       <use xlink:href="#DejaVuSans-2d" x="417.822266"/>
       <use xlink:href="#DejaVuSans-30" x="453.90625"/>
       <use xlink:href="#DejaVuSans-31" x="517.529297"/>
      </g>
     </g>
    </g>
    <g id="xtick_13">
     <g id="line2d_24">
      <g>
       <use xlink:href="#m116ac3fe3e" x="555.345083" y="460.8" style="stroke: #000000; stroke-width: 0.8"/>
      </g>
     </g>
     <g id="text_22">
      <!-- 2023-04-15 -->
      <g transform="translate(503.975632 503.438252) rotate(-30) scale(0.1 -0.1)">
       <use xlink:href="#DejaVuSans-32"/>
       <use xlink:href="#DejaVuSans-30" x="63.623047"/>
       <use xlink:href="#DejaVuSans-32" x="127.246094"/>
       <use xlink:href="#DejaVuSans-33" x="190.869141"/>
       <use xlink:href="#DejaVuSans-2d" x="254.492188"/>
       <use xlink:href="#DejaVuSans-30" x="290.576172"/>
       <use xlink:href="#DejaVuSans-34" x="354.199219"/>
       <use xlink:href="#DejaVuSans-2d" x="417.822266"/>
       <use xlink:href="#DejaVuSans-31" x="453.90625"/>
       <use xlink:href="#DejaVuSans-35" x="517.529297"/>
      </g>
     </g>
    </g>
    <g id="xtick_14">
     <g id="line2d_25">
      <g>
       <use xlink:href="#m116ac3fe3e" x="638.165121" y="460.8" style="stroke: #000000; stroke-width: 0.8"/>
      </g>
     </g>
     <g id="text_23">
      <!-- 2023-05-01 -->
      <g transform="translate(586.795669 503.438252) rotate(-30) scale(0.1 -0.1)">
       <use xlink:href="#DejaVuSans-32"/>
       <use xlink:href="#DejaVuSans-30" x="63.623047"/>
       <use xlink:href="#DejaVuSans-32" x="127.246094"/>
       <use xlink:href="#DejaVuSans-33" x="190.869141"/>
       <use xlink:href="#DejaVuSans-2d" x="254.492188"/>
       <use xlink:href="#DejaVuSans-30" x="290.576172"/>
       <use xlink:href="#DejaVuSans-35" x="354.199219"/>
       <use xlink:href="#DejaVuSans-2d" x="417.822266"/>
       <use xlink:href="#DejaVuSans-30" x="453.90625"/>
       <use xlink:href="#DejaVuSans-31" x="517.529297"/>
      </g>
     </g>
    </g>
    <g id="text_24">
     <!-- Date -->
     <g transform="translate(357.049219 516.837752) scale(0.1 -0.1)">
      <use xlink:href="#DejaVuSans-44"/>
      <use xlink:href="#DejaVuSans-61" x="77.001953"/>
      <use xlink:href="#DejaVuSans-74" x="138.28125"/>
      <use xlink:href="#DejaVuSans-65" x="177.490234"/>
     </g>
    </g>
   </g>
   <g id="matplotlib.axis_4">
    <g id="ytick_7">
     <g id="line2d_26">
      <g>
       <use xlink:href="#mf422aad863" x="90" y="455.917799" style="stroke: #000000; stroke-width: 0.8"/>
      </g>
     </g>
     <g id="text_25">
      <!-- 0.00 -->
      <g transform="translate(60.734375 459.717018) scale(0.1 -0.1)">
       <defs>
        <path id="DejaVuSans-2e" d="M 684 794 
L 1344 794 
L 1344 0 
L 684 0 
L 684 794 
z
" transform="scale(0.015625)"/>
       </defs>
       <use xlink:href="#DejaVuSans-30"/>
       <use xlink:href="#DejaVuSans-2e" x="63.623047"/>
       <use xlink:href="#DejaVuSans-30" x="95.410156"/>
       <use xlink:href="#DejaVuSans-30" x="159.033203"/>
      </g>
     </g>
    </g>
    <g id="ytick_8">
     <g id="line2d_27">
      <g>
       <use xlink:href="#mf422aad863" x="90" y="432.064557" style="stroke: #000000; stroke-width: 0.8"/>
      </g>
     </g>
     <g id="text_26">
      <!-- 0.25 -->
      <g transform="translate(60.734375 435.863776) scale(0.1 -0.1)">
       <use xlink:href="#DejaVuSans-30"/>
       <use xlink:href="#DejaVuSans-2e" x="63.623047"/>
       <use xlink:href="#DejaVuSans-32" x="95.410156"/>
       <use xlink:href="#DejaVuSans-35" x="159.033203"/>
      </g>
     </g>
    </g>
    <g id="ytick_9">
     <g id="line2d_28">
      <g>
       <use xlink:href="#mf422aad863" x="90" y="408.211315" style="stroke: #000000; stroke-width: 0.8"/>
      </g>
     </g>
     <g id="text_27">
      <!-- 0.50 -->
      <g transform="translate(60.734375 412.010534) scale(0.1 -0.1)">
       <use xlink:href="#DejaVuSans-30"/>
       <use xlink:href="#DejaVuSans-2e" x="63.623047"/>
       <use xlink:href="#DejaVuSans-35" x="95.410156"/>
       <use xlink:href="#DejaVuSans-30" x="159.033203"/>
      </g>
     </g>
    </g>
    <g id="ytick_10">
     <g id="line2d_29">
      <g>
       <use xlink:href="#mf422aad863" x="90" y="384.358073" style="stroke: #000000; stroke-width: 0.8"/>
      </g>
     </g>
     <g id="text_28">
      <!-- 0.75 -->
      <g transform="translate(60.734375 388.157292) scale(0.1 -0.1)">
       <defs>
        <path id="DejaVuSans-37" d="M 525 4666 
L 3525 4666 
L 3525 4397 
L 1831 0 
L 1172 0 
L 2766 4134 
L 525 4134 
L 525 4666 
z
" transform="scale(0.015625)"/>
       </defs>
       <use xlink:href="#DejaVuSans-30"/>
       <use xlink:href="#DejaVuSans-2e" x="63.623047"/>
       <use xlink:href="#DejaVuSans-37" x="95.410156"/>
       <use xlink:href="#DejaVuSans-35" x="159.033203"/>
      </g>
     </g>
    </g>
    <g id="ytick_11">
     <g id="line2d_30">
      <g>
       <use xlink:href="#mf422aad863" x="90" y="360.504831" style="stroke: #000000; stroke-width: 0.8"/>
      </g>
     </g>
     <g id="text_29">
      <!-- 1.00 -->
      <g transform="translate(60.734375 364.304049) scale(0.1 -0.1)">
       <use xlink:href="#DejaVuSans-31"/>
       <use xlink:href="#DejaVuSans-2e" x="63.623047"/>
       <use xlink:href="#DejaVuSans-30" x="95.410156"/>
       <use xlink:href="#DejaVuSans-30" x="159.033203"/>
      </g>
     </g>
    </g>
    <g id="ytick_12">
     <g id="line2d_31">
      <g>
       <use xlink:href="#mf422aad863" x="90" y="336.651588" style="stroke: #000000; stroke-width: 0.8"/>
      </g>
     </g>
     <g id="text_30">
      <!-- 1.25 -->
      <g transform="translate(60.734375 340.450807) scale(0.1 -0.1)">
       <use xlink:href="#DejaVuSans-31"/>
       <use xlink:href="#DejaVuSans-2e" x="63.623047"/>
       <use xlink:href="#DejaVuSans-32" x="95.410156"/>
       <use xlink:href="#DejaVuSans-35" x="159.033203"/>
      </g>
     </g>
    </g>
    <g id="ytick_13">
     <g id="line2d_32">
      <g>
       <use xlink:href="#mf422aad863" x="90" y="312.798346" style="stroke: #000000; stroke-width: 0.8"/>
      </g>
     </g>
     <g id="text_31">
      <!-- 1.50 -->
      <g transform="translate(60.734375 316.597565) scale(0.1 -0.1)">
       <use xlink:href="#DejaVuSans-31"/>
       <use xlink:href="#DejaVuSans-2e" x="63.623047"/>
       <use xlink:href="#DejaVuSans-35" x="95.410156"/>
       <use xlink:href="#DejaVuSans-30" x="159.033203"/>
      </g>
     </g>
    </g>
    <g id="text_32">
     <!-- Stock Volume -->
     <g transform="translate(54.654687 413.224219) rotate(-90) scale(0.1 -0.1)">
      <defs>
       <path id="DejaVuSans-56" d="M 1831 0 
L 50 4666 
L 709 4666 
L 2188 738 
L 3669 4666 
L 4325 4666 
L 2547 0 
L 1831 0 
z
" transform="scale(0.015625)"/>
       <path id="DejaVuSans-75" d="M 544 1381 
L 544 3500 
L 1119 3500 
L 1119 1403 
Q 1119 906 1312 657 
Q 1506 409 1894 409 
Q 2359 409 2629 706 
Q 2900 1003 2900 1516 
L 2900 3500 
L 3475 3500 
L 3475 0 
L 2900 0 
L 2900 538 
Q 2691 219 2414 64 
Q 2138 -91 1772 -91 
Q 1169 -91 856 284 
Q 544 659 544 1381 
z
M 1991 3584 
L 1991 3584 
z
" transform="scale(0.015625)"/>
      </defs>
      <use xlink:href="#DejaVuSans-53"/>
      <use xlink:href="#DejaVuSans-74" x="63.476562"/>
      <use xlink:href="#DejaVuSans-6f" x="102.685547"/>
      <use xlink:href="#DejaVuSans-63" x="163.867188"/>
      <use xlink:href="#DejaVuSans-6b" x="218.847656"/>
      <use xlink:href="#DejaVuSans-20" x="276.757812"/>
      <use xlink:href="#DejaVuSans-56" x="308.544922"/>
      <use xlink:href="#DejaVuSans-6f" x="369.203125"/>
      <use xlink:href="#DejaVuSans-6c" x="430.384766"/>
      <use xlink:href="#DejaVuSans-75" x="458.167969"/>
      <use xlink:href="#DejaVuSans-6d" x="521.546875"/>
      <use xlink:href="#DejaVuSans-65" x="618.958984"/>
     </g>
    </g>
    <g id="text_33">
     <!-- 1e8 -->
     <g transform="translate(90 294.6) scale(0.1 -0.1)">
      <defs>
       <path id="DejaVuSans-38" d="M 2034 2216 
Q 1584 2216 1326 1975 
Q 1069 1734 1069 1313 
Q 1069 891 1326 650 
Q 1584 409 2034 409 
Q 2484 409 2743 651 
Q 3003 894 3003 1313 
Q 3003 1734 2745 1975 
Q 2488 2216 2034 2216 
z
M 1403 2484 
Q 997 2584 770 2862 
Q 544 3141 544 3541 
Q 544 4100 942 4425 
Q 1341 4750 2034 4750 
Q 2731 4750 3128 4425 
Q 3525 4100 3525 3541 
Q 3525 3141 3298 2862 
Q 3072 2584 2669 2484 
Q 3125 2378 3379 2068 
Q 3634 1759 3634 1313 
Q 3634 634 3220 271 
Q 2806 -91 2034 -91 
Q 1263 -91 848 271 
Q 434 634 434 1313 
Q 434 1759 690 2068 
Q 947 2378 1403 2484 
z
M 1172 3481 
Q 1172 3119 1398 2916 
Q 1625 2713 2034 2713 
Q 2441 2713 2670 2916 
Q 2900 3119 2900 3481 
Q 2900 3844 2670 4047 
Q 2441 4250 2034 4250 
Q 1625 4250 1398 4047 
Q 1172 3844 1172 3481 
z
" transform="scale(0.015625)"/>
      </defs>
      <use xlink:href="#DejaVuSans-31"/>
      <use xlink:href="#DejaVuSans-65" x="63.623047"/>
      <use xlink:href="#DejaVuSans-38" x="125.146484"/>
     </g>
    </g>
   </g>
   <g id="line2d_33">
    <path d="M 115.363636 395.625295 
L 130.892393 417.747746 
L 136.068646 424.356621 
L 141.244898 415.52949 
L 146.42115 427.185138 
L 151.597403 423.592076 
L 167.12616 429.940474 
L 172.302412 427.417278 
L 177.478664 422.016522 
L 182.654917 389.239591 
L 187.831169 393.604257 
L 203.359926 425.386031 
L 208.536178 409.155713 
L 213.71243 365.520213 
L 218.888683 341.942237 
L 224.064935 403.459081 
L 239.593692 408.138706 
L 244.769944 403.702003 
L 249.946197 408.050067 
L 255.122449 415.402972 
L 260.298701 423.206322 
L 281.003711 423.831086 
L 286.179963 426.450458 
L 291.356215 416.60155 
L 296.532468 421.010869 
L 312.061224 429.677039 
L 317.237477 427.158422 
L 322.413729 426.23368 
L 327.589981 425.190625 
L 332.766234 422.370504 
L 348.294991 424.775674 
L 353.471243 429.359123 
L 358.647495 423.378828 
L 363.823748 428.425984 
L 369 421.625424 
L 384.528757 420.294795 
L 389.705009 421.521233 
L 394.881262 407.617751 
L 400.057514 393.429938 
L 405.233766 397.688696 
L 420.762523 424.469303 
L 425.938776 415.739112 
L 431.115028 414.482428 
L 436.29128 416.991407 
L 441.467532 426.901762 
L 456.996289 426.224425 
L 462.172542 425.330405 
L 467.348794 428.458329 
L 472.525046 424.349274 
L 477.701299 420.783691 
L 493.230056 432.030781 
L 498.406308 432.617857 
L 503.58256 428.924994 
L 508.758813 409.440711 
L 529.463822 430.09199 
L 534.640074 430.81293 
L 539.816327 432.665373 
L 544.992579 432.213783 
L 550.168831 430.587755 
L 565.697588 420.070002 
L 570.87384 430.541385 
L 576.050093 435.97105 
L 581.226345 429.373148 
L 586.402597 431.315947 
L 601.931354 433.454915 
L 607.107607 411.394196 
L 612.283859 405.01727 
L 617.460111 408.126207 
L 622.636364 421.435743 
" clip-path="url(#p8732179bc6)" style="fill: none; stroke: #1f77b4; stroke-width: 1.5; stroke-linecap: square"/>
   </g>
   <g id="line2d_34">
    <path d="M 115.363636 391.531697 
L 130.892393 382.925829 
L 136.068646 392.058376 
L 141.244898 365.980008 
L 146.42115 390.537398 
L 151.597403 372.168494 
L 167.12616 388.468559 
L 172.302412 392.442127 
L 177.478664 379.157971 
L 182.654917 305.018182 
L 187.831169 318.165516 
L 203.359926 377.731451 
L 208.536178 341.898061 
L 213.71243 383.520061 
L 218.888683 394.259554 
L 224.064935 405.596904 
L 239.593692 405.500156 
L 244.769944 402.292944 
L 249.946197 410.16003 
L 255.122449 402.162896 
L 260.298701 398.641967 
L 281.003711 401.93276 
L 286.179963 399.114547 
L 291.356215 409.673996 
L 296.532468 401.481075 
L 312.061224 410.624977 
L 317.237477 413.974926 
L 322.413729 406.017294 
L 327.589981 402.954633 
L 332.766234 402.71591 
L 348.294991 406.195811 
L 353.471243 409.069364 
L 358.647495 413.078235 
L 363.823748 402.277869 
L 369 389.293309 
L 384.528757 386.841577 
L 389.705009 397.799184 
L 394.881262 388.430489 
L 400.057514 375.344505 
L 405.233766 372.622087 
L 420.762523 396.390698 
L 425.938776 400.008376 
L 431.115028 401.078814 
L 436.29128 400.998762 
L 441.467532 402.395513 
L 456.996289 411.33962 
L 462.172542 418.973803 
L 467.348794 408.418075 
L 472.525046 404.74458 
L 477.701299 401.814543 
L 493.230056 416.669007 
L 498.406308 409.487463 
L 503.58256 412.814609 
L 508.758813 414.119286 
L 529.463822 420.365782 
L 534.640074 398.271383 
L 539.816327 401.785252 
L 544.992579 391.108445 
L 550.168831 406.886697 
L 565.697588 417.829419 
L 570.87384 417.952502 
L 576.050093 400.197675 
L 581.226345 400.867474 
L 586.402597 373.204583 
L 601.931354 389.533654 
L 607.107607 393.873799 
L 612.283859 385.499403 
L 617.460111 312.835366 
L 622.636364 331.341857 
" clip-path="url(#p8732179bc6)" style="fill: none; stroke: #ff7f0e; stroke-width: 1.5; stroke-linecap: square"/>
   </g>
   <g id="line2d_35">
    <path d="M 115.363636 379.374081 
L 130.892393 377.90787 
L 136.068646 392.530098 
L 141.244898 393.136734 
L 146.42115 404.294517 
L 151.597403 388.598416 
L 167.12616 394.838901 
L 172.302412 393.064983 
L 177.478664 381.816653 
L 182.654917 343.007046 
L 187.831169 308.640917 
L 203.359926 389.263921 
L 208.536178 376.417233 
L 213.71243 394.738908 
L 218.888683 402.479763 
L 224.064935 401.102381 
L 239.593692 396.571887 
L 244.769944 397.040746 
L 249.946197 393.35189 
L 255.122449 390.876782 
L 260.298701 399.486658 
L 281.003711 399.750856 
L 286.179963 407.246404 
L 291.356215 409.743456 
L 296.532468 402.992607 
L 312.061224 412.983395 
L 317.237477 407.689406 
L 322.413729 402.983638 
L 327.589981 406.075877 
L 332.766234 388.430012 
L 348.294991 372.376112 
L 353.471243 402.312885 
L 358.647495 410.878298 
L 363.823748 404.553563 
L 369 390.490837 
L 384.528757 375.334773 
L 389.705009 385.602353 
L 394.881262 382.289615 
L 400.057514 383.250233 
L 405.233766 361.511819 
L 420.762523 385.654353 
L 425.938776 385.371072 
L 431.115028 383.688465 
L 436.29128 391.397546 
L 441.467532 399.436661 
L 456.996289 405.930659 
L 462.172542 412.035276 
L 467.348794 406.965508 
L 472.525046 408.686758 
L 477.701299 390.374147 
L 493.230056 401.555115 
L 498.406308 411.762299 
L 503.58256 406.768957 
L 508.758813 412.609757 
L 529.463822 410.389689 
L 534.640074 410.459054 
L 539.816327 408.08432 
L 544.992579 390.61182 
L 550.168831 408.843712 
L 565.697588 416.30596 
L 570.87384 408.284783 
L 576.050093 410.38654 
L 581.226345 405.867591 
L 586.402597 400.280684 
L 601.931354 415.892441 
L 607.107607 409.43823 
L 612.283859 412.506044 
L 617.460111 393.992588 
L 622.636364 403.241063 
" clip-path="url(#p8732179bc6)" style="fill: none; stroke: #2ca02c; stroke-width: 1.5; stroke-linecap: square"/>
   </g>
   <g id="line2d_36">
    <path d="M 115.363636 428.545154 
L 130.892393 429.707762 
L 136.068646 434.955379 
L 141.244898 430.516959 
L 146.42115 431.604571 
L 151.597403 421.786768 
L 167.12616 429.163908 
L 172.302412 427.444566 
L 177.478664 402.809987 
L 182.654917 312.344467 
L 187.831169 382.631384 
L 203.359926 415.382745 
L 208.536178 410.996706 
L 213.71243 421.436411 
L 218.888683 420.50165 
L 224.064935 424.017809 
L 239.593692 425.897826 
L 244.769944 432.985674 
L 249.946197 431.769827 
L 255.122449 431.275015 
L 260.298701 432.855245 
L 281.003711 422.911973 
L 286.179963 434.513617 
L 291.356215 436.818222 
L 296.532468 437.034333 
L 312.061224 437.525041 
L 317.237477 411.979078 
L 322.413729 426.341306 
L 327.589981 439.361741 
L 332.766234 412.144524 
L 348.294991 424.231725 
L 353.471243 420.899809 
L 358.647495 437.37677 
L 363.823748 430.554361 
L 369 431.430061 
L 384.528757 432.324081 
L 389.705009 416.185358 
L 394.881262 415.726422 
L 400.057514 407.784724 
L 405.233766 408.076687 
L 420.762523 431.886803 
L 425.938776 425.550714 
L 431.115028 428.746285 
L 436.29128 429.784474 
L 441.467532 429.456921 
L 456.996289 438.240448 
L 462.172542 437.667875 
L 467.348794 437.931405 
L 472.525046 434.346549 
L 477.701299 431.671456 
L 493.230056 438.815406 
L 498.406308 435.855887 
L 503.58256 437.410928 
L 508.758813 431.010816 
L 529.463822 440.550491 
L 534.640074 439.974197 
L 539.816327 437.81586 
L 544.992579 433.676655 
L 550.168831 435.333215 
L 565.697588 441.146059 
L 570.87384 444.200133 
L 576.050093 440.74895 
L 581.226345 440.198131 
L 586.402597 439.027414 
L 601.931354 440.889398 
L 607.107607 437.600227 
L 612.283859 415.851318 
L 617.460111 387.987105 
L 622.636364 418.178154 
" clip-path="url(#p8732179bc6)" style="fill: none; stroke: #d62728; stroke-width: 1.5; stroke-linecap: square"/>
   </g>
   <g id="line2d_37">
    <path d="M 115.363636 428.791606 
L 130.892393 440.988628 
L 136.068646 444.662409 
L 141.244898 448.50717 
L 146.42115 448.039741 
L 151.597403 449.521791 
L 167.12616 451.025404 
L 172.302412 450.516758 
L 177.478664 448.2798 
L 182.654917 448.421203 
L 187.831169 446.947072 
L 203.359926 451.152017 
L 208.536178 449.916896 
L 213.71243 449.951436 
L 218.888683 449.333255 
L 224.064935 448.961145 
L 239.593692 449.110657 
L 244.769944 451.50514 
L 249.946197 452.133721 
L 255.122449 450.941345 
L 260.298701 450.865969 
L 281.003711 450.469433 
L 286.179963 451.580135 
L 291.356215 443.286363 
L 296.532468 449.400426 
L 312.061224 450.056962 
L 317.237477 452.410323 
L 322.413729 451.231782 
L 327.589981 451.232069 
L 332.766234 450.237579 
L 348.294991 450.516758 
L 353.471243 451.573552 
L 358.647495 452.597905 
L 363.823748 448.815831 
L 369 450.42268 
L 384.528757 449.914034 
L 389.705009 450.234335 
L 394.881262 447.125208 
L 400.057514 448.376645 
L 405.233766 449.316367 
L 420.762523 451.038953 
L 425.938776 451.255636 
L 431.115028 450.376214 
L 436.29128 440.982521 
L 441.467532 443.522033 
L 456.996289 447.687668 
L 462.172542 449.72607 
L 467.348794 449.9189 
L 472.525046 449.113424 
L 477.701299 450.57057 
L 493.230056 451.706557 
L 498.406308 452.770984 
L 503.58256 451.905207 
L 508.758813 451.471078 
L 529.463822 453.381818 
L 534.640074 452.058536 
L 539.816327 452.134294 
L 544.992579 448.851133 
L 550.168831 450.817404 
L 565.697588 450.06326 
L 570.87384 438.796419 
L 576.050093 434.804531 
L 581.226345 446.426308 
L 586.402597 449.866137 
L 601.931354 450.587459 
L 607.107607 450.740119 
L 612.283859 451.506667 
L 617.460111 450.556736 
L 622.636364 451.889559 
" clip-path="url(#p8732179bc6)" style="fill: none; stroke: #9467bd; stroke-width: 1.5; stroke-linecap: square"/>
   </g>
   <g id="patch_8">
    <path d="M 90 460.8 
L 90 297.6 
" style="fill: none; stroke: #000000; stroke-width: 0.8; stroke-linejoin: miter; stroke-linecap: square"/>
   </g>
   <g id="patch_9">
    <path d="M 648 460.8 
L 648 297.6 
" style="fill: none; stroke: #000000; stroke-width: 0.8; stroke-linejoin: miter; stroke-linecap: square"/>
   </g>
   <g id="patch_10">
    <path d="M 90 460.8 
L 648 460.8 
" style="fill: none; stroke: #000000; stroke-width: 0.8; stroke-linejoin: miter; stroke-linecap: square"/>
   </g>
   <g id="patch_11">
    <path d="M 90 297.6 
L 648 297.6 
" style="fill: none; stroke: #000000; stroke-width: 0.8; stroke-linejoin: miter; stroke-linecap: square"/>
   </g>
   <g id="text_34">
    <!-- S&amp;P 500 company-level Stock Volume -->
    <g transform="translate(254.909063 291.6) scale(0.12 -0.12)">
     <use xlink:href="#DejaVuSans-53"/>
     <use xlink:href="#DejaVuSans-26" x="63.476562"/>
     <use xlink:href="#DejaVuSans-50" x="141.455078"/>
     <use xlink:href="#DejaVuSans-20" x="201.757812"/>
     <use xlink:href="#DejaVuSans-35" x="233.544922"/>
     <use xlink:href="#DejaVuSans-30" x="297.167969"/>
     <use xlink:href="#DejaVuSans-30" x="360.791016"/>
     <use xlink:href="#DejaVuSans-20" x="424.414062"/>
     <use xlink:href="#DejaVuSans-63" x="456.201172"/>
     <use xlink:href="#DejaVuSans-6f" x="511.181641"/>
     <use xlink:href="#DejaVuSans-6d" x="572.363281"/>
     <use xlink:href="#DejaVuSans-70" x="669.775391"/>
     <use xlink:href="#DejaVuSans-61" x="733.251953"/>
     <use xlink:href="#DejaVuSans-6e" x="794.53125"/>
     <use xlink:href="#DejaVuSans-79" x="857.910156"/>
     <use xlink:href="#DejaVuSans-2d" x="915.339844"/>
     <use xlink:href="#DejaVuSans-6c" x="951.423828"/>
     <use xlink:href="#DejaVuSans-65" x="979.207031"/>
     <use xlink:href="#DejaVuSans-76" x="1040.730469"/>
     <use xlink:href="#DejaVuSans-65" x="1099.910156"/>
     <use xlink:href="#DejaVuSans-6c" x="1161.433594"/>
     <use xlink:href="#DejaVuSans-20" x="1189.216797"/>
     <use xlink:href="#DejaVuSans-53" x="1221.003906"/>
     <use xlink:href="#DejaVuSans-74" x="1284.480469"/>
     <use xlink:href="#DejaVuSans-6f" x="1323.689453"/>
     <use xlink:href="#DejaVuSans-63" x="1384.871094"/>
     <use xlink:href="#DejaVuSans-6b" x="1439.851562"/>
     <use xlink:href="#DejaVuSans-20" x="1497.761719"/>
     <use xlink:href="#DejaVuSans-56" x="1529.548828"/>
     <use xlink:href="#DejaVuSans-6f" x="1590.207031"/>
     <use xlink:href="#DejaVuSans-6c" x="1651.388672"/>
     <use xlink:href="#DejaVuSans-75" x="1679.171875"/>
     <use xlink:href="#DejaVuSans-6d" x="1742.550781"/>
     <use xlink:href="#DejaVuSans-65" x="1839.962891"/>
    </g>
   </g>
  </g>
  <g id="legend_1">
   <g id="patch_12">
    <path d="M 644.1875 81.390625 
L 713 81.390625 
Q 715 81.390625 715 79.390625 
L 715 7 
Q 715 5 713 5 
L 644.1875 5 
Q 642.1875 5 642.1875 7 
L 642.1875 79.390625 
Q 642.1875 81.390625 644.1875 81.390625 
z
" style="fill: #ffffff; opacity: 0.8; stroke: #cccccc; stroke-linejoin: miter"/>
   </g>
   <g id="line2d_38">
    <path d="M 646.1875 13.098438 
L 656.1875 13.098438 
L 666.1875 13.098438 
" style="fill: none; stroke: #1f77b4; stroke-width: 1.5; stroke-linecap: square"/>
   </g>
   <g id="text_35">
    <!-- GOOGL -->
    <g transform="translate(674.1875 16.598438) scale(0.1 -0.1)">
     <defs>
      <path id="DejaVuSans-47" d="M 3809 666 
L 3809 1919 
L 2778 1919 
L 2778 2438 
L 4434 2438 
L 4434 434 
Q 4069 175 3628 42 
Q 3188 -91 2688 -91 
Q 1594 -91 976 548 
Q 359 1188 359 2328 
Q 359 3472 976 4111 
Q 1594 4750 2688 4750 
Q 3144 4750 3555 4637 
Q 3966 4525 4313 4306 
L 4313 3634 
Q 3963 3931 3569 4081 
Q 3175 4231 2741 4231 
Q 1884 4231 1454 3753 
Q 1025 3275 1025 2328 
Q 1025 1384 1454 906 
Q 1884 428 2741 428 
Q 3075 428 3337 486 
Q 3600 544 3809 666 
z
" transform="scale(0.015625)"/>
      <path id="DejaVuSans-4f" d="M 2522 4238 
Q 1834 4238 1429 3725 
Q 1025 3213 1025 2328 
Q 1025 1447 1429 934 
Q 1834 422 2522 422 
Q 3209 422 3611 934 
Q 4013 1447 4013 2328 
Q 4013 3213 3611 3725 
Q 3209 4238 2522 4238 
z
M 2522 4750 
Q 3503 4750 4090 4092 
Q 4678 3434 4678 2328 
Q 4678 1225 4090 567 
Q 3503 -91 2522 -91 
Q 1538 -91 948 565 
Q 359 1222 359 2328 
Q 359 3434 948 4092 
Q 1538 4750 2522 4750 
z
" transform="scale(0.015625)"/>
      <path id="DejaVuSans-4c" d="M 628 4666 
L 1259 4666 
L 1259 531 
L 3531 531 
L 3531 0 
L 628 0 
L 628 4666 
z
" transform="scale(0.015625)"/>
     </defs>
     <use xlink:href="#DejaVuSans-47"/>
     <use xlink:href="#DejaVuSans-4f" x="77.490234"/>
     <use xlink:href="#DejaVuSans-4f" x="156.201172"/>
     <use xlink:href="#DejaVuSans-47" x="234.912109"/>
     <use xlink:href="#DejaVuSans-4c" x="312.402344"/>
    </g>
   </g>
   <g id="line2d_39">
    <path d="M 646.1875 27.776563 
L 656.1875 27.776563 
L 666.1875 27.776563 
" style="fill: none; stroke: #ff7f0e; stroke-width: 1.5; stroke-linecap: square"/>
   </g>
   <g id="text_36">
    <!-- AMZN -->
    <g transform="translate(674.1875 31.276563) scale(0.1 -0.1)">
     <defs>
      <path id="DejaVuSans-41" d="M 2188 4044 
L 1331 1722 
L 3047 1722 
L 2188 4044 
z
M 1831 4666 
L 2547 4666 
L 4325 0 
L 3669 0 
L 3244 1197 
L 1141 1197 
L 716 0 
L 50 0 
L 1831 4666 
z
" transform="scale(0.015625)"/>
      <path id="DejaVuSans-4d" d="M 628 4666 
L 1569 4666 
L 2759 1491 
L 3956 4666 
L 4897 4666 
L 4897 0 
L 4281 0 
L 4281 4097 
L 3078 897 
L 2444 897 
L 1241 4097 
L 1241 0 
L 628 0 
L 628 4666 
z
" transform="scale(0.015625)"/>
      <path id="DejaVuSans-5a" d="M 359 4666 
L 4025 4666 
L 4025 4184 
L 1075 531 
L 4097 531 
L 4097 0 
L 288 0 
L 288 481 
L 3238 4134 
L 359 4134 
L 359 4666 
z
" transform="scale(0.015625)"/>
      <path id="DejaVuSans-4e" d="M 628 4666 
L 1478 4666 
L 3547 763 
L 3547 4666 
L 4159 4666 
L 4159 0 
L 3309 0 
L 1241 3903 
L 1241 0 
L 628 0 
L 628 4666 
z
" transform="scale(0.015625)"/>
     </defs>
     <use xlink:href="#DejaVuSans-41"/>
     <use xlink:href="#DejaVuSans-4d" x="68.408203"/>
     <use xlink:href="#DejaVuSans-5a" x="154.6875"/>
     <use xlink:href="#DejaVuSans-4e" x="223.193359"/>
    </g>
   </g>
   <g id="line2d_40">
    <path d="M 646.1875 42.454688 
L 656.1875 42.454688 
L 666.1875 42.454688 
" style="fill: none; stroke: #2ca02c; stroke-width: 1.5; stroke-linecap: square"/>
   </g>
   <g id="text_37">
    <!-- AAPL -->
    <g transform="translate(674.1875 45.954688) scale(0.1 -0.1)">
     <use xlink:href="#DejaVuSans-41"/>
     <use xlink:href="#DejaVuSans-41" x="71.158203"/>
     <use xlink:href="#DejaVuSans-50" x="139.566406"/>
     <use xlink:href="#DejaVuSans-4c" x="199.869141"/>
    </g>
   </g>
   <g id="line2d_41">
    <path d="M 646.1875 57.132812 
L 656.1875 57.132812 
L 666.1875 57.132812 
" style="fill: none; stroke: #d62728; stroke-width: 1.5; stroke-linecap: square"/>
   </g>
   <g id="text_38">
    <!-- META -->
    <g transform="translate(674.1875 60.632812) scale(0.1 -0.1)">
     <defs>
      <path id="DejaVuSans-45" d="M 628 4666 
L 3578 4666 
L 3578 4134 
L 1259 4134 
L 1259 2753 
L 3481 2753 
L 3481 2222 
L 1259 2222 
L 1259 531 
L 3634 531 
L 3634 0 
L 628 0 
L 628 4666 
z
" transform="scale(0.015625)"/>
      <path id="DejaVuSans-54" d="M -19 4666 
L 3928 4666 
L 3928 4134 
L 2272 4134 
L 2272 0 
L 1638 0 
L 1638 4134 
L -19 4134 
L -19 4666 
z
" transform="scale(0.015625)"/>
     </defs>
     <use xlink:href="#DejaVuSans-4d"/>
     <use xlink:href="#DejaVuSans-45" x="86.279297"/>
     <use xlink:href="#DejaVuSans-54" x="149.462891"/>
     <use xlink:href="#DejaVuSans-41" x="202.796875"/>
    </g>
   </g>
   <g id="line2d_42">
    <path d="M 646.1875 71.810938 
L 656.1875 71.810938 
L 666.1875 71.810938 
" style="fill: none; stroke: #9467bd; stroke-width: 1.5; stroke-linecap: square"/>
   </g>
   <g id="text_39">
    <!-- NFLX -->
    <g transform="translate(674.1875 75.310938) scale(0.1 -0.1)">
     <defs>
      <path id="DejaVuSans-46" d="M 628 4666 
L 3309 4666 
L 3309 4134 
L 1259 4134 
L 1259 2759 
L 3109 2759 
L 3109 2228 
L 1259 2228 
L 1259 0 
L 628 0 
L 628 4666 
z
" transform="scale(0.015625)"/>
      <path id="DejaVuSans-58" d="M 403 4666 
L 1081 4666 
L 2241 2931 
L 3406 4666 
L 4084 4666 
L 2584 2425 
L 4184 0 
L 3506 0 
L 2194 1984 
L 872 0 
L 191 0 
L 1856 2491 
L 403 4666 
z
" transform="scale(0.015625)"/>
     </defs>
     <use xlink:href="#DejaVuSans-4e"/>
     <use xlink:href="#DejaVuSans-46" x="74.804688"/>
     <use xlink:href="#DejaVuSans-4c" x="132.324219"/>
     <use xlink:href="#DejaVuSans-58" x="188.037109"/>
    </g>
   </g>
  </g>
 </g>
 <defs>
  <clipPath id="p02632716c0">
   <rect x="90" y="69.12" width="558" height="163.2"/>
  </clipPath>
  <clipPath id="p8732179bc6">
   <rect x="90" y="297.6" width="558" height="163.2"/>
  </clipPath>
 </defs>
</svg>
