<?xml version="1.0" encoding="utf-8" standalone="no"?>
<!DOCTYPE svg PUBLIC "-//W3C//DTD SVG 1.1//EN"
  "http://www.w3.org/Graphics/SVG/1.1/DTD/svg11.dtd">
<svg xmlns:xlink="http://www.w3.org/1999/xlink" width="720pt" height="576pt" viewBox="0 0 720 576" xmlns="http://www.w3.org/2000/svg" version="1.1">
 <metadata>
  <rdf:RDF xmlns:dc="http://purl.org/dc/elements/1.1/" xmlns:cc="http://creativecommons.org/ns#" xmlns:rdf="http://www.w3.org/1999/02/22-rdf-syntax-ns#">
   <cc:Work>
    <dc:type rdf:resource="http://purl.org/dc/dcmitype/StillImage"/>
    <dc:date>2023-05-02T19:18:58.551494</dc:date>
    <dc:format>image/svg+xml</dc:format>
    <dc:creator>
     <cc:Agent>
      <dc:title>Matplotlib v3.7.1, https://matplotlib.org/</dc:title>
     </cc:Agent>
    </dc:creator>
   </cc:Work>
  </rdf:RDF>
 </metadata>
 <defs>
  <style type="text/css">*{stroke-linejoin: round; stroke-linecap: butt}</style>
 </defs>
 <g id="figure_1">
  <g id="patch_1">
   <path d="M 0 576 
L 720 576 
L 720 0 
L 0 0 
z
" style="fill: #ffffff"/>
  </g>
  <g id="axes_1">
   <g id="patch_2">
    <path d="M 90 512.64 
L 648 512.64 
L 648 69.12 
L 90 69.12 
z
" style="fill: #ffffff"/>
   </g>
   <g id="PathCollection_1">
    <path d="M 115.363636 197.597621 
C 115.880084 197.597621 116.375449 197.392434 116.740633 197.027251 
C 117.105817 196.662067 117.311004 196.166702 117.311004 195.650254 
C 117.311004 195.133806 117.105817 194.638441 116.740633 194.273257 
C 116.375449 193.908073 115.880084 193.702887 115.363636 193.702887 
C 114.847188 193.702887 114.351823 193.908073 113.98664 194.273257 
C 113.621456 194.638441 113.416269 195.133806 113.416269 195.650254 
C 113.416269 196.166702 113.621456 196.662067 113.98664 197.027251 
C 114.351823 197.392434 114.847188 197.597621 115.363636 197.597621 
z
" clip-path="url(#pb023b5e14f)" style="fill: #0000ff; fill-opacity: 0.3; stroke: #0000ff; stroke-opacity: 0.3"/>
    <path d="M 166.090909 89.325997 
C 166.103108 89.325997 166.114808 89.32115 166.123434 89.312524 
C 166.132059 89.303899 166.136906 89.292198 166.136906 89.28 
C 166.136906 89.267802 166.132059 89.256101 166.123434 89.247476 
C 166.114808 89.23885 166.103108 89.234003 166.090909 89.234003 
C 166.078711 89.234003 166.06701 89.23885 166.058385 89.247476 
C 166.049759 89.256101 166.044913 89.267802 166.044913 89.28 
C 166.044913 89.292198 166.049759 89.303899 166.058385 89.312524 
C 166.06701 89.32115 166.078711 89.325997 166.090909 89.325997 
z
" clip-path="url(#pb023b5e14f)" style="fill: #0000ff; fill-opacity: 0.3; stroke: #0000ff; stroke-opacity: 0.3"/>
    <path d="M 216.818182 244.254635 
C 218.186814 244.254635 219.499575 243.710872 220.467344 242.743102 
C 221.435113 241.775333 221.978877 240.462572 221.978877 239.09394 
C 221.978877 237.725308 221.435113 236.412547 220.467344 235.444778 
C 219.499575 234.477008 218.186814 233.933245 216.818182 233.933245 
C 215.44955 233.933245 214.136789 234.477008 213.169019 235.444778 
C 212.20125 236.412547 211.657487 237.725308 211.657487 239.09394 
C 211.657487 240.462572 212.20125 241.775333 213.169019 242.743102 
C 214.136789 243.710872 215.44955 244.254635 216.818182 244.254635 
z
" clip-path="url(#pb023b5e14f)" style="fill: #0000ff; fill-opacity: 0.3; stroke: #0000ff; stroke-opacity: 0.3"/>
    <path d="M 267.545455 390.672972 
C 269.820199 390.672972 272.002083 389.769207 273.61057 388.160719 
C 275.219058 386.552232 276.122824 384.370348 276.122824 382.095603 
C 276.122824 379.820859 275.219058 377.638975 273.61057 376.030488 
C 272.002083 374.422 269.820199 373.518234 267.545455 373.518234 
C 265.27071 373.518234 263.088826 374.422 261.480339 376.030488 
C 259.871851 377.638975 258.968086 379.820859 258.968086 382.095603 
C 258.968086 384.370348 259.871851 386.552232 261.480339 388.160719 
C 263.088826 389.769207 265.27071 390.672972 267.545455 390.672972 
z
" clip-path="url(#pb023b5e14f)" style="fill: #ff0000; fill-opacity: 0.3; stroke: #ff0000; stroke-opacity: 0.3"/>
    <path d="M 318.272727 493.152294 
C 318.451022 493.152294 318.622038 493.081457 318.748111 492.955384 
C 318.874184 492.82931 318.945021 492.658294 318.945021 492.48 
C 318.945021 492.301706 318.874184 492.13069 318.748111 492.004616 
C 318.622038 491.878543 318.451022 491.807706 318.272727 491.807706 
C 318.094433 491.807706 317.923417 491.878543 317.797344 492.004616 
C 317.67127 492.13069 317.600433 492.301706 317.600433 492.48 
C 317.600433 492.658294 317.67127 492.82931 317.797344 492.955384 
C 317.923417 493.081457 318.094433 493.152294 318.272727 493.152294 
z
" clip-path="url(#pb023b5e14f)" style="fill: #ff0000; fill-opacity: 0.3; stroke: #ff0000; stroke-opacity: 0.3"/>
    <path d="M 369 437.547821 
C 369.869698 437.547821 370.703892 437.202286 371.318861 436.587317 
C 371.933831 435.972348 372.279365 435.138153 372.279365 434.268456 
C 372.279365 433.398758 371.933831 432.564564 371.318861 431.949594 
C 370.703892 431.334625 369.869698 430.98909 369 430.98909 
C 368.130302 430.98909 367.296108 431.334625 366.681139 431.949594 
C 366.066169 432.564564 365.720635 433.398758 365.720635 434.268456 
C 365.720635 435.138153 366.066169 435.972348 366.681139 436.587317 
C 367.296108 437.202286 368.130302 437.547821 369 437.547821 
z
" clip-path="url(#pb023b5e14f)" style="fill: #ff0000; fill-opacity: 0.3; stroke: #ff0000; stroke-opacity: 0.3"/>
    <path d="M 419.727273 342.716154 
C 423.8792 342.716154 427.861635 341.066575 430.797491 338.130719 
C 433.733347 335.194863 435.382925 331.212429 435.382925 327.060501 
C 435.382925 322.908574 433.733347 318.926139 430.797491 315.990283 
C 427.861635 313.054427 423.8792 311.404849 419.727273 311.404849 
C 415.575345 311.404849 411.592911 313.054427 408.657055 315.990283 
C 405.721199 318.926139 404.07162 322.908574 404.07162 327.060501 
C 404.07162 331.212429 405.721199 335.194863 408.657055 338.130719 
C 411.592911 341.066575 415.575345 342.716154 419.727273 342.716154 
z
" clip-path="url(#pb023b5e14f)" style="fill: #ff0000; fill-opacity: 0.3; stroke: #ff0000; stroke-opacity: 0.3"/>
    <path d="M 470.454545 365.134181 
C 473.744797 365.134181 476.900731 363.82695 479.227289 361.500392 
C 481.553848 359.173833 482.861079 356.017899 482.861079 352.727647 
C 482.861079 349.437396 481.553848 346.281462 479.227289 343.954903 
C 476.900731 341.628345 473.744797 340.321114 470.454545 340.321114 
C 467.164294 340.321114 464.00836 341.628345 461.681801 343.954903 
C 459.355242 346.281462 458.048012 349.437396 458.048012 352.727647 
C 458.048012 356.017899 459.355242 359.173833 461.681801 361.500392 
C 464.00836 363.82695 467.164294 365.134181 470.454545 365.134181 
z
" clip-path="url(#pb023b5e14f)" style="fill: #ff0000; fill-opacity: 0.3; stroke: #ff0000; stroke-opacity: 0.3"/>
    <path d="M 521.181818 396.742529 
C 523.231364 396.742529 525.197242 395.928235 526.64649 394.478988 
C 528.095738 393.02974 528.910031 391.063862 528.910031 389.014316 
C 528.910031 386.96477 528.095738 384.998892 526.64649 383.549644 
C 525.197242 382.100396 523.231364 381.286103 521.181818 381.286103 
C 519.132272 381.286103 517.166394 382.100396 515.717146 383.549644 
C 514.267899 384.998892 513.453605 386.96477 513.453605 389.014316 
C 513.453605 391.063862 514.267899 393.02974 515.717146 394.478988 
C 517.166394 395.928235 519.132272 396.742529 521.181818 396.742529 
z
" clip-path="url(#pb023b5e14f)" style="fill: #ff0000; fill-opacity: 0.3; stroke: #ff0000; stroke-opacity: 0.3"/>
    <path d="M 571.909091 438.292435 
C 572.76321 438.292435 573.582461 437.95309 574.186414 437.349137 
C 574.790367 436.745184 575.129712 435.925933 575.129712 435.071814 
C 575.129712 434.217696 574.790367 433.398444 574.186414 432.794491 
C 573.582461 432.190538 572.76321 431.851193 571.909091 431.851193 
C 571.054972 431.851193 570.235721 432.190538 569.631768 432.794491 
C 569.027815 433.398444 568.68847 434.217696 568.68847 435.071814 
C 568.68847 435.925933 569.027815 436.745184 569.631768 437.349137 
C 570.235721 437.95309 571.054972 438.292435 571.909091 438.292435 
z
" clip-path="url(#pb023b5e14f)" style="fill: #ff0000; fill-opacity: 0.3; stroke: #ff0000; stroke-opacity: 0.3"/>
    <path d="M 622.636364 437.286777 
C 623.511573 437.286777 624.351053 436.939053 624.969919 436.320187 
C 625.588785 435.701321 625.936509 434.861841 625.936509 433.986632 
C 625.936509 433.111423 625.588785 432.271942 624.969919 431.653076 
C 624.351053 431.03421 623.511573 430.686486 622.636364 430.686486 
C 621.761155 430.686486 620.921674 431.03421 620.302808 431.653076 
C 619.683942 432.271942 619.336218 433.111423 619.336218 433.986632 
C 619.336218 434.861841 619.683942 435.701321 620.302808 436.320187 
C 620.921674 436.939053 621.761155 437.286777 622.636364 437.286777 
z
" clip-path="url(#pb023b5e14f)" style="fill: #ff0000; fill-opacity: 0.3; stroke: #ff0000; stroke-opacity: 0.3"/>
   </g>
   <g id="matplotlib.axis_1">
    <g id="xtick_1">
     <g id="line2d_1">
      <defs>
       <path id="m0aed316424" d="M 0 0 
L 0 3.5 
" style="stroke: #000000; stroke-width: 0.8"/>
      </defs>
      <g>
       <use xlink:href="#m0aed316424" x="115.363636" y="512.64" style="stroke: #000000; stroke-width: 0.8"/>
      </g>
     </g>
     <g id="text_1">
      <!-- Industrials -->
      <g transform="translate(98.891915 561.858694) rotate(-45) scale(0.1 -0.1)">
       <defs>
        <path id="DejaVuSans-49" d="M 628 4666 
L 1259 4666 
L 1259 0 
L 628 0 
L 628 4666 
z
" transform="scale(0.015625)"/>
        <path id="DejaVuSans-6e" d="M 3513 2113 
L 3513 0 
L 2938 0 
L 2938 2094 
Q 2938 2591 2744 2837 
Q 2550 3084 2163 3084 
Q 1697 3084 1428 2787 
Q 1159 2491 1159 1978 
L 1159 0 
L 581 0 
L 581 3500 
L 1159 3500 
L 1159 2956 
Q 1366 3272 1645 3428 
Q 1925 3584 2291 3584 
Q 2894 3584 3203 3211 
Q 3513 2838 3513 2113 
z
" transform="scale(0.015625)"/>
        <path id="DejaVuSans-64" d="M 2906 2969 
L 2906 4863 
L 3481 4863 
L 3481 0 
L 2906 0 
L 2906 525 
Q 2725 213 2448 61 
Q 2172 -91 1784 -91 
Q 1150 -91 751 415 
Q 353 922 353 1747 
Q 353 2572 751 3078 
Q 1150 3584 1784 3584 
Q 2172 3584 2448 3432 
Q 2725 3281 2906 2969 
z
M 947 1747 
Q 947 1113 1208 752 
Q 1469 391 1925 391 
Q 2381 391 2643 752 
Q 2906 1113 2906 1747 
Q 2906 2381 2643 2742 
Q 2381 3103 1925 3103 
Q 1469 3103 1208 2742 
Q 947 2381 947 1747 
z
" transform="scale(0.015625)"/>
        <path id="DejaVuSans-75" d="M 544 1381 
L 544 3500 
L 1119 3500 
L 1119 1403 
Q 1119 906 1312 657 
Q 1506 409 1894 409 
Q 2359 409 2629 706 
Q 2900 1003 2900 1516 
L 2900 3500 
L 3475 3500 
L 3475 0 
L 2900 0 
L 2900 538 
Q 2691 219 2414 64 
Q 2138 -91 1772 -91 
Q 1169 -91 856 284 
Q 544 659 544 1381 
z
M 1991 3584 
L 1991 3584 
z
" transform="scale(0.015625)"/>
        <path id="DejaVuSans-73" d="M 2834 3397 
L 2834 2853 
Q 2591 2978 2328 3040 
Q 2066 3103 1784 3103 
Q 1356 3103 1142 2972 
Q 928 2841 928 2578 
Q 928 2378 1081 2264 
Q 1234 2150 1697 2047 
L 1894 2003 
Q 2506 1872 2764 1633 
Q 3022 1394 3022 966 
Q 3022 478 2636 193 
Q 2250 -91 1575 -91 
Q 1294 -91 989 -36 
Q 684 19 347 128 
L 347 722 
Q 666 556 975 473 
Q 1284 391 1588 391 
Q 1994 391 2212 530 
Q 2431 669 2431 922 
Q 2431 1156 2273 1281 
Q 2116 1406 1581 1522 
L 1381 1569 
Q 847 1681 609 1914 
Q 372 2147 372 2553 
Q 372 3047 722 3315 
Q 1072 3584 1716 3584 
Q 2034 3584 2315 3537 
Q 2597 3491 2834 3397 
z
" transform="scale(0.015625)"/>
        <path id="DejaVuSans-74" d="M 1172 4494 
L 1172 3500 
L 2356 3500 
L 2356 3053 
L 1172 3053 
L 1172 1153 
Q 1172 725 1289 603 
Q 1406 481 1766 481 
L 2356 481 
L 2356 0 
L 1766 0 
Q 1100 0 847 248 
Q 594 497 594 1153 
L 594 3053 
L 172 3053 
L 172 3500 
L 594 3500 
L 594 4494 
L 1172 4494 
z
" transform="scale(0.015625)"/>
        <path id="DejaVuSans-72" d="M 2631 2963 
Q 2534 3019 2420 3045 
Q 2306 3072 2169 3072 
Q 1681 3072 1420 2755 
Q 1159 2438 1159 1844 
L 1159 0 
L 581 0 
L 581 3500 
L 1159 3500 
L 1159 2956 
Q 1341 3275 1631 3429 
Q 1922 3584 2338 3584 
Q 2397 3584 2469 3576 
Q 2541 3569 2628 3553 
L 2631 2963 
z
" transform="scale(0.015625)"/>
        <path id="DejaVuSans-69" d="M 603 3500 
L 1178 3500 
L 1178 0 
L 603 0 
L 603 3500 
z
M 603 4863 
L 1178 4863 
L 1178 4134 
L 603 4134 
L 603 4863 
z
" transform="scale(0.015625)"/>
        <path id="DejaVuSans-61" d="M 2194 1759 
Q 1497 1759 1228 1600 
Q 959 1441 959 1056 
Q 959 750 1161 570 
Q 1363 391 1709 391 
Q 2188 391 2477 730 
Q 2766 1069 2766 1631 
L 2766 1759 
L 2194 1759 
z
M 3341 1997 
L 3341 0 
L 2766 0 
L 2766 531 
Q 2569 213 2275 61 
Q 1981 -91 1556 -91 
Q 1019 -91 701 211 
Q 384 513 384 1019 
Q 384 1609 779 1909 
Q 1175 2209 1959 2209 
L 2766 2209 
L 2766 2266 
Q 2766 2663 2505 2880 
Q 2244 3097 1772 3097 
Q 1472 3097 1187 3025 
Q 903 2953 641 2809 
L 641 3341 
Q 956 3463 1253 3523 
Q 1550 3584 1831 3584 
Q 2591 3584 2966 3190 
Q 3341 2797 3341 1997 
z
" transform="scale(0.015625)"/>
        <path id="DejaVuSans-6c" d="M 603 4863 
L 1178 4863 
L 1178 0 
L 603 0 
L 603 4863 
z
" transform="scale(0.015625)"/>
       </defs>
       <use xlink:href="#DejaVuSans-49"/>
       <use xlink:href="#DejaVuSans-6e" x="29.492188"/>
       <use xlink:href="#DejaVuSans-64" x="92.871094"/>
       <use xlink:href="#DejaVuSans-75" x="156.347656"/>
       <use xlink:href="#DejaVuSans-73" x="219.726562"/>
       <use xlink:href="#DejaVuSans-74" x="271.826172"/>
       <use xlink:href="#DejaVuSans-72" x="311.035156"/>
       <use xlink:href="#DejaVuSans-69" x="352.148438"/>
       <use xlink:href="#DejaVuSans-61" x="379.931641"/>
       <use xlink:href="#DejaVuSans-6c" x="441.210938"/>
       <use xlink:href="#DejaVuSans-73" x="468.994141"/>
      </g>
     </g>
    </g>
    <g id="xtick_2">
     <g id="line2d_2">
      <g>
       <use xlink:href="#m0aed316424" x="166.090909" y="512.64" style="stroke: #000000; stroke-width: 0.8"/>
      </g>
     </g>
     <g id="text_2">
      <!-- Health Care -->
      <g transform="translate(147.123875 566.849321) rotate(-45) scale(0.1 -0.1)">
       <defs>
        <path id="DejaVuSans-48" d="M 628 4666 
L 1259 4666 
L 1259 2753 
L 3553 2753 
L 3553 4666 
L 4184 4666 
L 4184 0 
L 3553 0 
L 3553 2222 
L 1259 2222 
L 1259 0 
L 628 0 
L 628 4666 
z
" transform="scale(0.015625)"/>
        <path id="DejaVuSans-65" d="M 3597 1894 
L 3597 1613 
L 953 1613 
Q 991 1019 1311 708 
Q 1631 397 2203 397 
Q 2534 397 2845 478 
Q 3156 559 3463 722 
L 3463 178 
Q 3153 47 2828 -22 
Q 2503 -91 2169 -91 
Q 1331 -91 842 396 
Q 353 884 353 1716 
Q 353 2575 817 3079 
Q 1281 3584 2069 3584 
Q 2775 3584 3186 3129 
Q 3597 2675 3597 1894 
z
M 3022 2063 
Q 3016 2534 2758 2815 
Q 2500 3097 2075 3097 
Q 1594 3097 1305 2825 
Q 1016 2553 972 2059 
L 3022 2063 
z
" transform="scale(0.015625)"/>
        <path id="DejaVuSans-68" d="M 3513 2113 
L 3513 0 
L 2938 0 
L 2938 2094 
Q 2938 2591 2744 2837 
Q 2550 3084 2163 3084 
Q 1697 3084 1428 2787 
Q 1159 2491 1159 1978 
L 1159 0 
L 581 0 
L 581 4863 
L 1159 4863 
L 1159 2956 
Q 1366 3272 1645 3428 
Q 1925 3584 2291 3584 
Q 2894 3584 3203 3211 
Q 3513 2838 3513 2113 
z
" transform="scale(0.015625)"/>
        <path id="DejaVuSans-20" transform="scale(0.015625)"/>
        <path id="DejaVuSans-43" d="M 4122 4306 
L 4122 3641 
Q 3803 3938 3442 4084 
Q 3081 4231 2675 4231 
Q 1875 4231 1450 3742 
Q 1025 3253 1025 2328 
Q 1025 1406 1450 917 
Q 1875 428 2675 428 
Q 3081 428 3442 575 
Q 3803 722 4122 1019 
L 4122 359 
Q 3791 134 3420 21 
Q 3050 -91 2638 -91 
Q 1578 -91 968 557 
Q 359 1206 359 2328 
Q 359 3453 968 4101 
Q 1578 4750 2638 4750 
Q 3056 4750 3426 4639 
Q 3797 4528 4122 4306 
z
" transform="scale(0.015625)"/>
       </defs>
       <use xlink:href="#DejaVuSans-48"/>
       <use xlink:href="#DejaVuSans-65" x="75.195312"/>
       <use xlink:href="#DejaVuSans-61" x="136.71875"/>
       <use xlink:href="#DejaVuSans-6c" x="197.998047"/>
       <use xlink:href="#DejaVuSans-74" x="225.78125"/>
       <use xlink:href="#DejaVuSans-68" x="264.990234"/>
       <use xlink:href="#DejaVuSans-20" x="328.369141"/>
       <use xlink:href="#DejaVuSans-43" x="360.15625"/>
       <use xlink:href="#DejaVuSans-61" x="429.980469"/>
       <use xlink:href="#DejaVuSans-72" x="491.259766"/>
       <use xlink:href="#DejaVuSans-65" x="530.123047"/>
      </g>
     </g>
    </g>
    <g id="xtick_3">
     <g id="line2d_3">
      <g>
       <use xlink:href="#m0aed316424" x="216.818182" y="512.64" style="stroke: #000000; stroke-width: 0.8"/>
      </g>
     </g>
     <g id="text_3">
      <!-- Information Technology -->
      <g transform="translate(177.374882 607.801853) rotate(-45) scale(0.1 -0.1)">
       <defs>
        <path id="DejaVuSans-66" d="M 2375 4863 
L 2375 4384 
L 1825 4384 
Q 1516 4384 1395 4259 
Q 1275 4134 1275 3809 
L 1275 3500 
L 2222 3500 
L 2222 3053 
L 1275 3053 
L 1275 0 
L 697 0 
L 697 3053 
L 147 3053 
L 147 3500 
L 697 3500 
L 697 3744 
Q 697 4328 969 4595 
Q 1241 4863 1831 4863 
L 2375 4863 
z
" transform="scale(0.015625)"/>
        <path id="DejaVuSans-6f" d="M 1959 3097 
Q 1497 3097 1228 2736 
Q 959 2375 959 1747 
Q 959 1119 1226 758 
Q 1494 397 1959 397 
Q 2419 397 2687 759 
Q 2956 1122 2956 1747 
Q 2956 2369 2687 2733 
Q 2419 3097 1959 3097 
z
M 1959 3584 
Q 2709 3584 3137 3096 
Q 3566 2609 3566 1747 
Q 3566 888 3137 398 
Q 2709 -91 1959 -91 
Q 1206 -91 779 398 
Q 353 888 353 1747 
Q 353 2609 779 3096 
Q 1206 3584 1959 3584 
z
" transform="scale(0.015625)"/>
        <path id="DejaVuSans-6d" d="M 3328 2828 
Q 3544 3216 3844 3400 
Q 4144 3584 4550 3584 
Q 5097 3584 5394 3201 
Q 5691 2819 5691 2113 
L 5691 0 
L 5113 0 
L 5113 2094 
Q 5113 2597 4934 2840 
Q 4756 3084 4391 3084 
Q 3944 3084 3684 2787 
Q 3425 2491 3425 1978 
L 3425 0 
L 2847 0 
L 2847 2094 
Q 2847 2600 2669 2842 
Q 2491 3084 2119 3084 
Q 1678 3084 1418 2786 
Q 1159 2488 1159 1978 
L 1159 0 
L 581 0 
L 581 3500 
L 1159 3500 
L 1159 2956 
Q 1356 3278 1631 3431 
Q 1906 3584 2284 3584 
Q 2666 3584 2933 3390 
Q 3200 3197 3328 2828 
z
" transform="scale(0.015625)"/>
        <path id="DejaVuSans-54" d="M -19 4666 
L 3928 4666 
L 3928 4134 
L 2272 4134 
L 2272 0 
L 1638 0 
L 1638 4134 
L -19 4134 
L -19 4666 
z
" transform="scale(0.015625)"/>
        <path id="DejaVuSans-63" d="M 3122 3366 
L 3122 2828 
Q 2878 2963 2633 3030 
Q 2388 3097 2138 3097 
Q 1578 3097 1268 2742 
Q 959 2388 959 1747 
Q 959 1106 1268 751 
Q 1578 397 2138 397 
Q 2388 397 2633 464 
Q 2878 531 3122 666 
L 3122 134 
Q 2881 22 2623 -34 
Q 2366 -91 2075 -91 
Q 1284 -91 818 406 
Q 353 903 353 1747 
Q 353 2603 823 3093 
Q 1294 3584 2113 3584 
Q 2378 3584 2631 3529 
Q 2884 3475 3122 3366 
z
" transform="scale(0.015625)"/>
        <path id="DejaVuSans-67" d="M 2906 1791 
Q 2906 2416 2648 2759 
Q 2391 3103 1925 3103 
Q 1463 3103 1205 2759 
Q 947 2416 947 1791 
Q 947 1169 1205 825 
Q 1463 481 1925 481 
Q 2391 481 2648 825 
Q 2906 1169 2906 1791 
z
M 3481 434 
Q 3481 -459 3084 -895 
Q 2688 -1331 1869 -1331 
Q 1566 -1331 1297 -1286 
Q 1028 -1241 775 -1147 
L 775 -588 
Q 1028 -725 1275 -790 
Q 1522 -856 1778 -856 
Q 2344 -856 2625 -561 
Q 2906 -266 2906 331 
L 2906 616 
Q 2728 306 2450 153 
Q 2172 0 1784 0 
Q 1141 0 747 490 
Q 353 981 353 1791 
Q 353 2603 747 3093 
Q 1141 3584 1784 3584 
Q 2172 3584 2450 3431 
Q 2728 3278 2906 2969 
L 2906 3500 
L 3481 3500 
L 3481 434 
z
" transform="scale(0.015625)"/>
        <path id="DejaVuSans-79" d="M 2059 -325 
Q 1816 -950 1584 -1140 
Q 1353 -1331 966 -1331 
L 506 -1331 
L 506 -850 
L 844 -850 
Q 1081 -850 1212 -737 
Q 1344 -625 1503 -206 
L 1606 56 
L 191 3500 
L 800 3500 
L 1894 763 
L 2988 3500 
L 3597 3500 
L 2059 -325 
z
" transform="scale(0.015625)"/>
       </defs>
       <use xlink:href="#DejaVuSans-49"/>
       <use xlink:href="#DejaVuSans-6e" x="29.492188"/>
       <use xlink:href="#DejaVuSans-66" x="92.871094"/>
       <use xlink:href="#DejaVuSans-6f" x="128.076172"/>
       <use xlink:href="#DejaVuSans-72" x="189.257812"/>
       <use xlink:href="#DejaVuSans-6d" x="228.621094"/>
       <use xlink:href="#DejaVuSans-61" x="326.033203"/>
       <use xlink:href="#DejaVuSans-74" x="387.3125"/>
       <use xlink:href="#DejaVuSans-69" x="426.521484"/>
       <use xlink:href="#DejaVuSans-6f" x="454.304688"/>
       <use xlink:href="#DejaVuSans-6e" x="515.486328"/>
       <use xlink:href="#DejaVuSans-20" x="578.865234"/>
       <use xlink:href="#DejaVuSans-54" x="610.652344"/>
       <use xlink:href="#DejaVuSans-65" x="654.736328"/>
       <use xlink:href="#DejaVuSans-63" x="716.259766"/>
       <use xlink:href="#DejaVuSans-68" x="771.240234"/>
       <use xlink:href="#DejaVuSans-6e" x="834.619141"/>
       <use xlink:href="#DejaVuSans-6f" x="897.998047"/>
       <use xlink:href="#DejaVuSans-6c" x="959.179688"/>
       <use xlink:href="#DejaVuSans-6f" x="986.962891"/>
       <use xlink:href="#DejaVuSans-67" x="1048.144531"/>
       <use xlink:href="#DejaVuSans-79" x="1111.621094"/>
      </g>
     </g>
    </g>
    <g id="xtick_4">
     <g id="line2d_4">
      <g>
       <use xlink:href="#m0aed316424" x="267.545455" y="512.64" style="stroke: #000000; stroke-width: 0.8"/>
      </g>
     </g>
     <g id="text_4">
      <!-- Consumer Discretionary -->
      <g transform="translate(226.820523 610.365115) rotate(-45) scale(0.1 -0.1)">
       <defs>
        <path id="DejaVuSans-44" d="M 1259 4147 
L 1259 519 
L 2022 519 
Q 2988 519 3436 956 
Q 3884 1394 3884 2338 
Q 3884 3275 3436 3711 
Q 2988 4147 2022 4147 
L 1259 4147 
z
M 628 4666 
L 1925 4666 
Q 3281 4666 3915 4102 
Q 4550 3538 4550 2338 
Q 4550 1131 3912 565 
Q 3275 0 1925 0 
L 628 0 
L 628 4666 
z
" transform="scale(0.015625)"/>
       </defs>
       <use xlink:href="#DejaVuSans-43"/>
       <use xlink:href="#DejaVuSans-6f" x="69.824219"/>
       <use xlink:href="#DejaVuSans-6e" x="131.005859"/>
       <use xlink:href="#DejaVuSans-73" x="194.384766"/>
       <use xlink:href="#DejaVuSans-75" x="246.484375"/>
       <use xlink:href="#DejaVuSans-6d" x="309.863281"/>
       <use xlink:href="#DejaVuSans-65" x="407.275391"/>
       <use xlink:href="#DejaVuSans-72" x="468.798828"/>
       <use xlink:href="#DejaVuSans-20" x="509.912109"/>
       <use xlink:href="#DejaVuSans-44" x="541.699219"/>
       <use xlink:href="#DejaVuSans-69" x="618.701172"/>
       <use xlink:href="#DejaVuSans-73" x="646.484375"/>
       <use xlink:href="#DejaVuSans-63" x="698.583984"/>
       <use xlink:href="#DejaVuSans-72" x="753.564453"/>
       <use xlink:href="#DejaVuSans-65" x="792.427734"/>
       <use xlink:href="#DejaVuSans-74" x="853.951172"/>
       <use xlink:href="#DejaVuSans-69" x="893.160156"/>
       <use xlink:href="#DejaVuSans-6f" x="920.943359"/>
       <use xlink:href="#DejaVuSans-6e" x="982.125"/>
       <use xlink:href="#DejaVuSans-61" x="1045.503906"/>
       <use xlink:href="#DejaVuSans-72" x="1106.783203"/>
       <use xlink:href="#DejaVuSans-79" x="1147.896484"/>
      </g>
     </g>
    </g>
    <g id="xtick_5">
     <g id="line2d_5">
      <g>
       <use xlink:href="#m0aed316424" x="318.272727" y="512.64" style="stroke: #000000; stroke-width: 0.8"/>
      </g>
     </g>
     <g id="text_5">
      <!-- Utilities -->
      <g transform="translate(306.918139 551.624428) rotate(-45) scale(0.1 -0.1)">
       <defs>
        <path id="DejaVuSans-55" d="M 556 4666 
L 1191 4666 
L 1191 1831 
Q 1191 1081 1462 751 
Q 1734 422 2344 422 
Q 2950 422 3222 751 
Q 3494 1081 3494 1831 
L 3494 4666 
L 4128 4666 
L 4128 1753 
Q 4128 841 3676 375 
Q 3225 -91 2344 -91 
Q 1459 -91 1007 375 
Q 556 841 556 1753 
L 556 4666 
z
" transform="scale(0.015625)"/>
       </defs>
       <use xlink:href="#DejaVuSans-55"/>
       <use xlink:href="#DejaVuSans-74" x="73.193359"/>
       <use xlink:href="#DejaVuSans-69" x="112.402344"/>
       <use xlink:href="#DejaVuSans-6c" x="140.185547"/>
       <use xlink:href="#DejaVuSans-69" x="167.96875"/>
       <use xlink:href="#DejaVuSans-74" x="195.751953"/>
       <use xlink:href="#DejaVuSans-69" x="234.960938"/>
       <use xlink:href="#DejaVuSans-65" x="262.744141"/>
       <use xlink:href="#DejaVuSans-73" x="324.267578"/>
      </g>
     </g>
    </g>
    <g id="xtick_6">
     <g id="line2d_6">
      <g>
       <use xlink:href="#m0aed316424" x="369" y="512.64" style="stroke: #000000; stroke-width: 0.8"/>
      </g>
     </g>
     <g id="text_6">
      <!-- Financials -->
      <g transform="translate(353.627057 559.661139) rotate(-45) scale(0.1 -0.1)">
       <defs>
        <path id="DejaVuSans-46" d="M 628 4666 
L 3309 4666 
L 3309 4134 
L 1259 4134 
L 1259 2759 
L 3109 2759 
L 3109 2228 
L 1259 2228 
L 1259 0 
L 628 0 
L 628 4666 
z
" transform="scale(0.015625)"/>
       </defs>
       <use xlink:href="#DejaVuSans-46"/>
       <use xlink:href="#DejaVuSans-69" x="50.269531"/>
       <use xlink:href="#DejaVuSans-6e" x="78.052734"/>
       <use xlink:href="#DejaVuSans-61" x="141.431641"/>
       <use xlink:href="#DejaVuSans-6e" x="202.710938"/>
       <use xlink:href="#DejaVuSans-63" x="266.089844"/>
       <use xlink:href="#DejaVuSans-69" x="321.070312"/>
       <use xlink:href="#DejaVuSans-61" x="348.853516"/>
       <use xlink:href="#DejaVuSans-6c" x="410.132812"/>
       <use xlink:href="#DejaVuSans-73" x="437.916016"/>
      </g>
     </g>
    </g>
    <g id="xtick_7">
     <g id="line2d_7">
      <g>
       <use xlink:href="#m0aed316424" x="419.727273" y="512.64" style="stroke: #000000; stroke-width: 0.8"/>
      </g>
     </g>
     <g id="text_7">
      <!-- Materials -->
      <g transform="translate(405.473547 557.422704) rotate(-45) scale(0.1 -0.1)">
       <defs>
        <path id="DejaVuSans-4d" d="M 628 4666 
L 1569 4666 
L 2759 1491 
L 3956 4666 
L 4897 4666 
L 4897 0 
L 4281 0 
L 4281 4097 
L 3078 897 
L 2444 897 
L 1241 4097 
L 1241 0 
L 628 0 
L 628 4666 
z
" transform="scale(0.015625)"/>
       </defs>
       <use xlink:href="#DejaVuSans-4d"/>
       <use xlink:href="#DejaVuSans-61" x="86.279297"/>
       <use xlink:href="#DejaVuSans-74" x="147.558594"/>
       <use xlink:href="#DejaVuSans-65" x="186.767578"/>
       <use xlink:href="#DejaVuSans-72" x="248.291016"/>
       <use xlink:href="#DejaVuSans-69" x="289.404297"/>
       <use xlink:href="#DejaVuSans-61" x="317.1875"/>
       <use xlink:href="#DejaVuSans-6c" x="378.466797"/>
       <use xlink:href="#DejaVuSans-73" x="406.25"/>
      </g>
     </g>
    </g>
    <g id="xtick_8">
     <g id="line2d_8">
      <g>
       <use xlink:href="#m0aed316424" x="470.454545" y="512.64" style="stroke: #000000; stroke-width: 0.8"/>
      </g>
     </g>
     <g id="text_8">
      <!-- Real Estate -->
      <g transform="translate(452.470279 564.883785) rotate(-45) scale(0.1 -0.1)">
       <defs>
        <path id="DejaVuSans-52" d="M 2841 2188 
Q 3044 2119 3236 1894 
Q 3428 1669 3622 1275 
L 4263 0 
L 3584 0 
L 2988 1197 
Q 2756 1666 2539 1819 
Q 2322 1972 1947 1972 
L 1259 1972 
L 1259 0 
L 628 0 
L 628 4666 
L 2053 4666 
Q 2853 4666 3247 4331 
Q 3641 3997 3641 3322 
Q 3641 2881 3436 2590 
Q 3231 2300 2841 2188 
z
M 1259 4147 
L 1259 2491 
L 2053 2491 
Q 2509 2491 2742 2702 
Q 2975 2913 2975 3322 
Q 2975 3731 2742 3939 
Q 2509 4147 2053 4147 
L 1259 4147 
z
" transform="scale(0.015625)"/>
        <path id="DejaVuSans-45" d="M 628 4666 
L 3578 4666 
L 3578 4134 
L 1259 4134 
L 1259 2753 
L 3481 2753 
L 3481 2222 
L 1259 2222 
L 1259 531 
L 3634 531 
L 3634 0 
L 628 0 
L 628 4666 
z
" transform="scale(0.015625)"/>
       </defs>
       <use xlink:href="#DejaVuSans-52"/>
       <use xlink:href="#DejaVuSans-65" x="64.982422"/>
       <use xlink:href="#DejaVuSans-61" x="126.505859"/>
       <use xlink:href="#DejaVuSans-6c" x="187.785156"/>
       <use xlink:href="#DejaVuSans-20" x="215.568359"/>
       <use xlink:href="#DejaVuSans-45" x="247.355469"/>
       <use xlink:href="#DejaVuSans-73" x="310.539062"/>
       <use xlink:href="#DejaVuSans-74" x="362.638672"/>
       <use xlink:href="#DejaVuSans-61" x="401.847656"/>
       <use xlink:href="#DejaVuSans-74" x="463.126953"/>
       <use xlink:href="#DejaVuSans-65" x="502.335938"/>
      </g>
     </g>
    </g>
    <g id="xtick_9">
     <g id="line2d_9">
      <g>
       <use xlink:href="#m0aed316424" x="521.181818" y="512.64" style="stroke: #000000; stroke-width: 0.8"/>
      </g>
     </g>
     <g id="text_9">
      <!-- Consumer Staples -->
      <g transform="translate(490.940297 589.398294) rotate(-45) scale(0.1 -0.1)">
       <defs>
        <path id="DejaVuSans-53" d="M 3425 4513 
L 3425 3897 
Q 3066 4069 2747 4153 
Q 2428 4238 2131 4238 
Q 1616 4238 1336 4038 
Q 1056 3838 1056 3469 
Q 1056 3159 1242 3001 
Q 1428 2844 1947 2747 
L 2328 2669 
Q 3034 2534 3370 2195 
Q 3706 1856 3706 1288 
Q 3706 609 3251 259 
Q 2797 -91 1919 -91 
Q 1588 -91 1214 -16 
Q 841 59 441 206 
L 441 856 
Q 825 641 1194 531 
Q 1563 422 1919 422 
Q 2459 422 2753 634 
Q 3047 847 3047 1241 
Q 3047 1584 2836 1778 
Q 2625 1972 2144 2069 
L 1759 2144 
Q 1053 2284 737 2584 
Q 422 2884 422 3419 
Q 422 4038 858 4394 
Q 1294 4750 2059 4750 
Q 2388 4750 2728 4690 
Q 3069 4631 3425 4513 
z
" transform="scale(0.015625)"/>
        <path id="DejaVuSans-70" d="M 1159 525 
L 1159 -1331 
L 581 -1331 
L 581 3500 
L 1159 3500 
L 1159 2969 
Q 1341 3281 1617 3432 
Q 1894 3584 2278 3584 
Q 2916 3584 3314 3078 
Q 3713 2572 3713 1747 
Q 3713 922 3314 415 
Q 2916 -91 2278 -91 
Q 1894 -91 1617 61 
Q 1341 213 1159 525 
z
M 3116 1747 
Q 3116 2381 2855 2742 
Q 2594 3103 2138 3103 
Q 1681 3103 1420 2742 
Q 1159 2381 1159 1747 
Q 1159 1113 1420 752 
Q 1681 391 2138 391 
Q 2594 391 2855 752 
Q 3116 1113 3116 1747 
z
" transform="scale(0.015625)"/>
       </defs>
       <use xlink:href="#DejaVuSans-43"/>
       <use xlink:href="#DejaVuSans-6f" x="69.824219"/>
       <use xlink:href="#DejaVuSans-6e" x="131.005859"/>
       <use xlink:href="#DejaVuSans-73" x="194.384766"/>
       <use xlink:href="#DejaVuSans-75" x="246.484375"/>
       <use xlink:href="#DejaVuSans-6d" x="309.863281"/>
       <use xlink:href="#DejaVuSans-65" x="407.275391"/>
       <use xlink:href="#DejaVuSans-72" x="468.798828"/>
       <use xlink:href="#DejaVuSans-20" x="509.912109"/>
       <use xlink:href="#DejaVuSans-53" x="541.699219"/>
       <use xlink:href="#DejaVuSans-74" x="605.175781"/>
       <use xlink:href="#DejaVuSans-61" x="644.384766"/>
       <use xlink:href="#DejaVuSans-70" x="705.664062"/>
       <use xlink:href="#DejaVuSans-6c" x="769.140625"/>
       <use xlink:href="#DejaVuSans-65" x="796.923828"/>
       <use xlink:href="#DejaVuSans-73" x="858.447266"/>
      </g>
     </g>
    </g>
    <g id="xtick_10">
     <g id="line2d_10">
      <g>
       <use xlink:href="#m0aed316424" x="571.909091" y="512.64" style="stroke: #000000; stroke-width: 0.8"/>
      </g>
     </g>
     <g id="text_10">
      <!-- Energy -->
      <g transform="translate(561.481476 549.770483) rotate(-45) scale(0.1 -0.1)">
       <use xlink:href="#DejaVuSans-45"/>
       <use xlink:href="#DejaVuSans-6e" x="63.183594"/>
       <use xlink:href="#DejaVuSans-65" x="126.5625"/>
       <use xlink:href="#DejaVuSans-72" x="188.085938"/>
       <use xlink:href="#DejaVuSans-67" x="227.449219"/>
       <use xlink:href="#DejaVuSans-79" x="290.925781"/>
      </g>
     </g>
    </g>
    <g id="xtick_11">
     <g id="line2d_11">
      <g>
       <use xlink:href="#m0aed316424" x="622.636364" y="512.64" style="stroke: #000000; stroke-width: 0.8"/>
      </g>
     </g>
     <g id="text_11">
      <!-- Telecommunication Services -->
      <g transform="translate(574.321636 625.544708) rotate(-45) scale(0.1 -0.1)">
       <defs>
        <path id="DejaVuSans-76" d="M 191 3500 
L 800 3500 
L 1894 563 
L 2988 3500 
L 3597 3500 
L 2284 0 
L 1503 0 
L 191 3500 
z
" transform="scale(0.015625)"/>
       </defs>
       <use xlink:href="#DejaVuSans-54"/>
       <use xlink:href="#DejaVuSans-65" x="44.083984"/>
       <use xlink:href="#DejaVuSans-6c" x="105.607422"/>
       <use xlink:href="#DejaVuSans-65" x="133.390625"/>
       <use xlink:href="#DejaVuSans-63" x="194.914062"/>
       <use xlink:href="#DejaVuSans-6f" x="249.894531"/>
       <use xlink:href="#DejaVuSans-6d" x="311.076172"/>
       <use xlink:href="#DejaVuSans-6d" x="408.488281"/>
       <use xlink:href="#DejaVuSans-75" x="505.900391"/>
       <use xlink:href="#DejaVuSans-6e" x="569.279297"/>
       <use xlink:href="#DejaVuSans-69" x="632.658203"/>
       <use xlink:href="#DejaVuSans-63" x="660.441406"/>
       <use xlink:href="#DejaVuSans-61" x="715.421875"/>
       <use xlink:href="#DejaVuSans-74" x="776.701172"/>
       <use xlink:href="#DejaVuSans-69" x="815.910156"/>
       <use xlink:href="#DejaVuSans-6f" x="843.693359"/>
       <use xlink:href="#DejaVuSans-6e" x="904.875"/>
       <use xlink:href="#DejaVuSans-20" x="968.253906"/>
       <use xlink:href="#DejaVuSans-53" x="1000.041016"/>
       <use xlink:href="#DejaVuSans-65" x="1063.517578"/>
       <use xlink:href="#DejaVuSans-72" x="1125.041016"/>
       <use xlink:href="#DejaVuSans-76" x="1166.154297"/>
       <use xlink:href="#DejaVuSans-69" x="1225.333984"/>
       <use xlink:href="#DejaVuSans-63" x="1253.117188"/>
       <use xlink:href="#DejaVuSans-65" x="1308.097656"/>
       <use xlink:href="#DejaVuSans-73" x="1369.621094"/>
      </g>
     </g>
    </g>
    <g id="text_12">
     <!-- Industrial Sectors -->
     <g transform="translate(325.282031 638.613707) scale(0.1 -0.1)">
      <use xlink:href="#DejaVuSans-49"/>
      <use xlink:href="#DejaVuSans-6e" x="29.492188"/>
      <use xlink:href="#DejaVuSans-64" x="92.871094"/>
      <use xlink:href="#DejaVuSans-75" x="156.347656"/>
      <use xlink:href="#DejaVuSans-73" x="219.726562"/>
      <use xlink:href="#DejaVuSans-74" x="271.826172"/>
      <use xlink:href="#DejaVuSans-72" x="311.035156"/>
      <use xlink:href="#DejaVuSans-69" x="352.148438"/>
      <use xlink:href="#DejaVuSans-61" x="379.931641"/>
      <use xlink:href="#DejaVuSans-6c" x="441.210938"/>
      <use xlink:href="#DejaVuSans-20" x="468.994141"/>
      <use xlink:href="#DejaVuSans-53" x="500.78125"/>
      <use xlink:href="#DejaVuSans-65" x="564.257812"/>
      <use xlink:href="#DejaVuSans-63" x="625.78125"/>
      <use xlink:href="#DejaVuSans-74" x="680.761719"/>
      <use xlink:href="#DejaVuSans-6f" x="719.970703"/>
      <use xlink:href="#DejaVuSans-72" x="781.152344"/>
      <use xlink:href="#DejaVuSans-73" x="822.265625"/>
     </g>
    </g>
   </g>
   <g id="matplotlib.axis_2">
    <g id="ytick_1">
     <g id="line2d_12">
      <defs>
       <path id="m976068097d" d="M 0 0 
L -3.5 0 
" style="stroke: #000000; stroke-width: 0.8"/>
      </defs>
      <g>
       <use xlink:href="#m976068097d" x="90" y="485.336638" style="stroke: #000000; stroke-width: 0.8"/>
      </g>
     </g>
     <g id="text_13">
      <!-- −0.15 -->
      <g transform="translate(52.354687 489.135857) scale(0.1 -0.1)">
       <defs>
        <path id="DejaVuSans-2212" d="M 678 2272 
L 4684 2272 
L 4684 1741 
L 678 1741 
L 678 2272 
z
" transform="scale(0.015625)"/>
        <path id="DejaVuSans-30" d="M 2034 4250 
Q 1547 4250 1301 3770 
Q 1056 3291 1056 2328 
Q 1056 1369 1301 889 
Q 1547 409 2034 409 
Q 2525 409 2770 889 
Q 3016 1369 3016 2328 
Q 3016 3291 2770 3770 
Q 2525 4250 2034 4250 
z
M 2034 4750 
Q 2819 4750 3233 4129 
Q 3647 3509 3647 2328 
Q 3647 1150 3233 529 
Q 2819 -91 2034 -91 
Q 1250 -91 836 529 
Q 422 1150 422 2328 
Q 422 3509 836 4129 
Q 1250 4750 2034 4750 
z
" transform="scale(0.015625)"/>
        <path id="DejaVuSans-2e" d="M 684 794 
L 1344 794 
L 1344 0 
L 684 0 
L 684 794 
z
" transform="scale(0.015625)"/>
        <path id="DejaVuSans-31" d="M 794 531 
L 1825 531 
L 1825 4091 
L 703 3866 
L 703 4441 
L 1819 4666 
L 2450 4666 
L 2450 531 
L 3481 531 
L 3481 0 
L 794 0 
L 794 531 
z
" transform="scale(0.015625)"/>
        <path id="DejaVuSans-35" d="M 691 4666 
L 3169 4666 
L 3169 4134 
L 1269 4134 
L 1269 2991 
Q 1406 3038 1543 3061 
Q 1681 3084 1819 3084 
Q 2600 3084 3056 2656 
Q 3513 2228 3513 1497 
Q 3513 744 3044 326 
Q 2575 -91 1722 -91 
Q 1428 -91 1123 -41 
Q 819 9 494 109 
L 494 744 
Q 775 591 1075 516 
Q 1375 441 1709 441 
Q 2250 441 2565 725 
Q 2881 1009 2881 1497 
Q 2881 1984 2565 2268 
Q 2250 2553 1709 2553 
Q 1456 2553 1204 2497 
Q 953 2441 691 2322 
L 691 4666 
z
" transform="scale(0.015625)"/>
       </defs>
       <use xlink:href="#DejaVuSans-2212"/>
       <use xlink:href="#DejaVuSans-30" x="83.789062"/>
       <use xlink:href="#DejaVuSans-2e" x="147.412109"/>
       <use xlink:href="#DejaVuSans-31" x="179.199219"/>
       <use xlink:href="#DejaVuSans-35" x="242.822266"/>
      </g>
     </g>
    </g>
    <g id="ytick_2">
     <g id="line2d_13">
      <g>
       <use xlink:href="#m976068097d" x="90" y="432.137518" style="stroke: #000000; stroke-width: 0.8"/>
      </g>
     </g>
     <g id="text_14">
      <!-- −0.10 -->
      <g transform="translate(52.354687 435.936737) scale(0.1 -0.1)">
       <use xlink:href="#DejaVuSans-2212"/>
       <use xlink:href="#DejaVuSans-30" x="83.789062"/>
       <use xlink:href="#DejaVuSans-2e" x="147.412109"/>
       <use xlink:href="#DejaVuSans-31" x="179.199219"/>
       <use xlink:href="#DejaVuSans-30" x="242.822266"/>
      </g>
     </g>
    </g>
    <g id="ytick_3">
     <g id="line2d_14">
      <g>
       <use xlink:href="#m976068097d" x="90" y="378.938398" style="stroke: #000000; stroke-width: 0.8"/>
      </g>
     </g>
     <g id="text_15">
      <!-- −0.05 -->
      <g transform="translate(52.354687 382.737617) scale(0.1 -0.1)">
       <use xlink:href="#DejaVuSans-2212"/>
       <use xlink:href="#DejaVuSans-30" x="83.789062"/>
       <use xlink:href="#DejaVuSans-2e" x="147.412109"/>
       <use xlink:href="#DejaVuSans-30" x="179.199219"/>
       <use xlink:href="#DejaVuSans-35" x="242.822266"/>
      </g>
     </g>
    </g>
    <g id="ytick_4">
     <g id="line2d_15">
      <g>
       <use xlink:href="#m976068097d" x="90" y="325.739278" style="stroke: #000000; stroke-width: 0.8"/>
      </g>
     </g>
     <g id="text_16">
      <!-- 0.00 -->
      <g transform="translate(60.734375 329.538497) scale(0.1 -0.1)">
       <use xlink:href="#DejaVuSans-30"/>
       <use xlink:href="#DejaVuSans-2e" x="63.623047"/>
       <use xlink:href="#DejaVuSans-30" x="95.410156"/>
       <use xlink:href="#DejaVuSans-30" x="159.033203"/>
      </g>
     </g>
    </g>
    <g id="ytick_5">
     <g id="line2d_16">
      <g>
       <use xlink:href="#m976068097d" x="90" y="272.540158" style="stroke: #000000; stroke-width: 0.8"/>
      </g>
     </g>
     <g id="text_17">
      <!-- 0.05 -->
      <g transform="translate(60.734375 276.339376) scale(0.1 -0.1)">
       <use xlink:href="#DejaVuSans-30"/>
       <use xlink:href="#DejaVuSans-2e" x="63.623047"/>
       <use xlink:href="#DejaVuSans-30" x="95.410156"/>
       <use xlink:href="#DejaVuSans-35" x="159.033203"/>
      </g>
     </g>
    </g>
    <g id="ytick_6">
     <g id="line2d_17">
      <g>
       <use xlink:href="#m976068097d" x="90" y="219.341037" style="stroke: #000000; stroke-width: 0.8"/>
      </g>
     </g>
     <g id="text_18">
      <!-- 0.10 -->
      <g transform="translate(60.734375 223.140256) scale(0.1 -0.1)">
       <use xlink:href="#DejaVuSans-30"/>
       <use xlink:href="#DejaVuSans-2e" x="63.623047"/>
       <use xlink:href="#DejaVuSans-31" x="95.410156"/>
       <use xlink:href="#DejaVuSans-30" x="159.033203"/>
      </g>
     </g>
    </g>
    <g id="ytick_7">
     <g id="line2d_18">
      <g>
       <use xlink:href="#m976068097d" x="90" y="166.141917" style="stroke: #000000; stroke-width: 0.8"/>
      </g>
     </g>
     <g id="text_19">
      <!-- 0.15 -->
      <g transform="translate(60.734375 169.941136) scale(0.1 -0.1)">
       <use xlink:href="#DejaVuSans-30"/>
       <use xlink:href="#DejaVuSans-2e" x="63.623047"/>
       <use xlink:href="#DejaVuSans-31" x="95.410156"/>
       <use xlink:href="#DejaVuSans-35" x="159.033203"/>
      </g>
     </g>
    </g>
    <g id="ytick_8">
     <g id="line2d_19">
      <g>
       <use xlink:href="#m976068097d" x="90" y="112.942797" style="stroke: #000000; stroke-width: 0.8"/>
      </g>
     </g>
     <g id="text_20">
      <!-- 0.20 -->
      <g transform="translate(60.734375 116.742016) scale(0.1 -0.1)">
       <defs>
        <path id="DejaVuSans-32" d="M 1228 531 
L 3431 531 
L 3431 0 
L 469 0 
L 469 531 
Q 828 903 1448 1529 
Q 2069 2156 2228 2338 
Q 2531 2678 2651 2914 
Q 2772 3150 2772 3378 
Q 2772 3750 2511 3984 
Q 2250 4219 1831 4219 
Q 1534 4219 1204 4116 
Q 875 4013 500 3803 
L 500 4441 
Q 881 4594 1212 4672 
Q 1544 4750 1819 4750 
Q 2544 4750 2975 4387 
Q 3406 4025 3406 3419 
Q 3406 3131 3298 2873 
Q 3191 2616 2906 2266 
Q 2828 2175 2409 1742 
Q 1991 1309 1228 531 
z
" transform="scale(0.015625)"/>
       </defs>
       <use xlink:href="#DejaVuSans-30"/>
       <use xlink:href="#DejaVuSans-2e" x="63.623047"/>
       <use xlink:href="#DejaVuSans-32" x="95.410156"/>
       <use xlink:href="#DejaVuSans-30" x="159.033203"/>
      </g>
     </g>
    </g>
    <g id="text_21">
     <!-- Correlation Coefficient -->
     <g transform="translate(46.275 346.918281) rotate(-90) scale(0.1 -0.1)">
      <use xlink:href="#DejaVuSans-43"/>
      <use xlink:href="#DejaVuSans-6f" x="69.824219"/>
      <use xlink:href="#DejaVuSans-72" x="131.005859"/>
      <use xlink:href="#DejaVuSans-72" x="170.369141"/>
      <use xlink:href="#DejaVuSans-65" x="209.232422"/>
      <use xlink:href="#DejaVuSans-6c" x="270.755859"/>
      <use xlink:href="#DejaVuSans-61" x="298.539062"/>
      <use xlink:href="#DejaVuSans-74" x="359.818359"/>
      <use xlink:href="#DejaVuSans-69" x="399.027344"/>
      <use xlink:href="#DejaVuSans-6f" x="426.810547"/>
      <use xlink:href="#DejaVuSans-6e" x="487.992188"/>
      <use xlink:href="#DejaVuSans-20" x="551.371094"/>
      <use xlink:href="#DejaVuSans-43" x="583.158203"/>
      <use xlink:href="#DejaVuSans-6f" x="652.982422"/>
      <use xlink:href="#DejaVuSans-65" x="714.164062"/>
      <use xlink:href="#DejaVuSans-66" x="775.6875"/>
      <use xlink:href="#DejaVuSans-66" x="810.892578"/>
      <use xlink:href="#DejaVuSans-69" x="846.097656"/>
      <use xlink:href="#DejaVuSans-63" x="873.880859"/>
      <use xlink:href="#DejaVuSans-69" x="928.861328"/>
      <use xlink:href="#DejaVuSans-65" x="956.644531"/>
      <use xlink:href="#DejaVuSans-6e" x="1018.167969"/>
      <use xlink:href="#DejaVuSans-74" x="1081.546875"/>
     </g>
    </g>
   </g>
   <g id="line2d_20">
    <path d="M 90 325.739278 
L 648 325.739278 
" clip-path="url(#pb023b5e14f)" style="fill: none; stroke: #000000; stroke-width: 1.5; stroke-linecap: square"/>
   </g>
   <g id="patch_3">
    <path d="M 90 512.64 
L 90 69.12 
" style="fill: none; stroke: #000000; stroke-width: 0.8; stroke-linejoin: miter; stroke-linecap: square"/>
   </g>
   <g id="patch_4">
    <path d="M 648 512.64 
L 648 69.12 
" style="fill: none; stroke: #000000; stroke-width: 0.8; stroke-linejoin: miter; stroke-linecap: square"/>
   </g>
   <g id="patch_5">
    <path d="M 90 512.64 
L 648 512.64 
" style="fill: none; stroke: #000000; stroke-width: 0.8; stroke-linejoin: miter; stroke-linecap: square"/>
   </g>
   <g id="patch_6">
    <path d="M 90 69.12 
L 648 69.12 
" style="fill: none; stroke: #000000; stroke-width: 0.8; stroke-linejoin: miter; stroke-linecap: square"/>
   </g>
   <g id="text_22">
    <!-- p-value: 0.015 -->
    <g transform="translate(115.363636 195.650254) scale(0.05 -0.05)">
     <defs>
      <path id="DejaVuSans-2d" d="M 313 2009 
L 1997 2009 
L 1997 1497 
L 313 1497 
L 313 2009 
z
" transform="scale(0.015625)"/>
      <path id="DejaVuSans-3a" d="M 750 794 
L 1409 794 
L 1409 0 
L 750 0 
L 750 794 
z
M 750 3309 
L 1409 3309 
L 1409 2516 
L 750 2516 
L 750 3309 
z
" transform="scale(0.015625)"/>
     </defs>
     <use xlink:href="#DejaVuSans-70"/>
     <use xlink:href="#DejaVuSans-2d" x="63.476562"/>
     <use xlink:href="#DejaVuSans-76" x="96.935547"/>
     <use xlink:href="#DejaVuSans-61" x="156.115234"/>
     <use xlink:href="#DejaVuSans-6c" x="217.394531"/>
     <use xlink:href="#DejaVuSans-75" x="245.177734"/>
     <use xlink:href="#DejaVuSans-65" x="308.556641"/>
     <use xlink:href="#DejaVuSans-3a" x="370.080078"/>
     <use xlink:href="#DejaVuSans-20" x="403.771484"/>
     <use xlink:href="#DejaVuSans-30" x="435.558594"/>
     <use xlink:href="#DejaVuSans-2e" x="499.181641"/>
     <use xlink:href="#DejaVuSans-30" x="530.96875"/>
     <use xlink:href="#DejaVuSans-31" x="594.591797"/>
     <use xlink:href="#DejaVuSans-35" x="658.214844"/>
    </g>
   </g>
   <g id="text_23">
    <!-- p-value: 0.0 -->
    <g transform="translate(166.090909 89.28) scale(0.05 -0.05)">
     <use xlink:href="#DejaVuSans-70"/>
     <use xlink:href="#DejaVuSans-2d" x="63.476562"/>
     <use xlink:href="#DejaVuSans-76" x="96.935547"/>
     <use xlink:href="#DejaVuSans-61" x="156.115234"/>
     <use xlink:href="#DejaVuSans-6c" x="217.394531"/>
     <use xlink:href="#DejaVuSans-75" x="245.177734"/>
     <use xlink:href="#DejaVuSans-65" x="308.556641"/>
     <use xlink:href="#DejaVuSans-3a" x="370.080078"/>
     <use xlink:href="#DejaVuSans-20" x="403.771484"/>
     <use xlink:href="#DejaVuSans-30" x="435.558594"/>
     <use xlink:href="#DejaVuSans-2e" x="499.181641"/>
     <use xlink:href="#DejaVuSans-30" x="530.96875"/>
    </g>
   </g>
   <g id="text_24">
    <!-- p-value: 0.107 -->
    <g transform="translate(216.818182 239.09394) scale(0.05 -0.05)">
     <defs>
      <path id="DejaVuSans-37" d="M 525 4666 
L 3525 4666 
L 3525 4397 
L 1831 0 
L 1172 0 
L 2766 4134 
L 525 4134 
L 525 4666 
z
" transform="scale(0.015625)"/>
     </defs>
     <use xlink:href="#DejaVuSans-70"/>
     <use xlink:href="#DejaVuSans-2d" x="63.476562"/>
     <use xlink:href="#DejaVuSans-76" x="96.935547"/>
     <use xlink:href="#DejaVuSans-61" x="156.115234"/>
     <use xlink:href="#DejaVuSans-6c" x="217.394531"/>
     <use xlink:href="#DejaVuSans-75" x="245.177734"/>
     <use xlink:href="#DejaVuSans-65" x="308.556641"/>
     <use xlink:href="#DejaVuSans-3a" x="370.080078"/>
     <use xlink:href="#DejaVuSans-20" x="403.771484"/>
     <use xlink:href="#DejaVuSans-30" x="435.558594"/>
     <use xlink:href="#DejaVuSans-2e" x="499.181641"/>
     <use xlink:href="#DejaVuSans-31" x="530.96875"/>
     <use xlink:href="#DejaVuSans-30" x="594.591797"/>
     <use xlink:href="#DejaVuSans-37" x="658.214844"/>
    </g>
   </g>
   <g id="text_25">
    <!-- p-value: 0.294 -->
    <g transform="translate(267.545455 382.095603) scale(0.05 -0.05)">
     <defs>
      <path id="DejaVuSans-39" d="M 703 97 
L 703 672 
Q 941 559 1184 500 
Q 1428 441 1663 441 
Q 2288 441 2617 861 
Q 2947 1281 2994 2138 
Q 2813 1869 2534 1725 
Q 2256 1581 1919 1581 
Q 1219 1581 811 2004 
Q 403 2428 403 3163 
Q 403 3881 828 4315 
Q 1253 4750 1959 4750 
Q 2769 4750 3195 4129 
Q 3622 3509 3622 2328 
Q 3622 1225 3098 567 
Q 2575 -91 1691 -91 
Q 1453 -91 1209 -44 
Q 966 3 703 97 
z
M 1959 2075 
Q 2384 2075 2632 2365 
Q 2881 2656 2881 3163 
Q 2881 3666 2632 3958 
Q 2384 4250 1959 4250 
Q 1534 4250 1286 3958 
Q 1038 3666 1038 3163 
Q 1038 2656 1286 2365 
Q 1534 2075 1959 2075 
z
" transform="scale(0.015625)"/>
      <path id="DejaVuSans-34" d="M 2419 4116 
L 825 1625 
L 2419 1625 
L 2419 4116 
z
M 2253 4666 
L 3047 4666 
L 3047 1625 
L 3713 1625 
L 3713 1100 
L 3047 1100 
L 3047 0 
L 2419 0 
L 2419 1100 
L 313 1100 
L 313 1709 
L 2253 4666 
z
" transform="scale(0.015625)"/>
     </defs>
     <use xlink:href="#DejaVuSans-70"/>
     <use xlink:href="#DejaVuSans-2d" x="63.476562"/>
     <use xlink:href="#DejaVuSans-76" x="96.935547"/>
     <use xlink:href="#DejaVuSans-61" x="156.115234"/>
     <use xlink:href="#DejaVuSans-6c" x="217.394531"/>
     <use xlink:href="#DejaVuSans-75" x="245.177734"/>
     <use xlink:href="#DejaVuSans-65" x="308.556641"/>
     <use xlink:href="#DejaVuSans-3a" x="370.080078"/>
     <use xlink:href="#DejaVuSans-20" x="403.771484"/>
     <use xlink:href="#DejaVuSans-30" x="435.558594"/>
     <use xlink:href="#DejaVuSans-2e" x="499.181641"/>
     <use xlink:href="#DejaVuSans-32" x="530.96875"/>
     <use xlink:href="#DejaVuSans-39" x="594.591797"/>
     <use xlink:href="#DejaVuSans-34" x="658.214844"/>
    </g>
   </g>
   <g id="text_26">
    <!-- p-value: 0.002 -->
    <g transform="translate(318.272727 492.48) scale(0.05 -0.05)">
     <use xlink:href="#DejaVuSans-70"/>
     <use xlink:href="#DejaVuSans-2d" x="63.476562"/>
     <use xlink:href="#DejaVuSans-76" x="96.935547"/>
     <use xlink:href="#DejaVuSans-61" x="156.115234"/>
     <use xlink:href="#DejaVuSans-6c" x="217.394531"/>
     <use xlink:href="#DejaVuSans-75" x="245.177734"/>
     <use xlink:href="#DejaVuSans-65" x="308.556641"/>
     <use xlink:href="#DejaVuSans-3a" x="370.080078"/>
     <use xlink:href="#DejaVuSans-20" x="403.771484"/>
     <use xlink:href="#DejaVuSans-30" x="435.558594"/>
     <use xlink:href="#DejaVuSans-2e" x="499.181641"/>
     <use xlink:href="#DejaVuSans-30" x="530.96875"/>
     <use xlink:href="#DejaVuSans-30" x="594.591797"/>
     <use xlink:href="#DejaVuSans-32" x="658.214844"/>
    </g>
   </g>
   <g id="text_27">
    <!-- p-value: 0.043 -->
    <g transform="translate(369 434.268456) scale(0.05 -0.05)">
     <defs>
      <path id="DejaVuSans-33" d="M 2597 2516 
Q 3050 2419 3304 2112 
Q 3559 1806 3559 1356 
Q 3559 666 3084 287 
Q 2609 -91 1734 -91 
Q 1441 -91 1130 -33 
Q 819 25 488 141 
L 488 750 
Q 750 597 1062 519 
Q 1375 441 1716 441 
Q 2309 441 2620 675 
Q 2931 909 2931 1356 
Q 2931 1769 2642 2001 
Q 2353 2234 1838 2234 
L 1294 2234 
L 1294 2753 
L 1863 2753 
Q 2328 2753 2575 2939 
Q 2822 3125 2822 3475 
Q 2822 3834 2567 4026 
Q 2313 4219 1838 4219 
Q 1578 4219 1281 4162 
Q 984 4106 628 3988 
L 628 4550 
Q 988 4650 1302 4700 
Q 1616 4750 1894 4750 
Q 2613 4750 3031 4423 
Q 3450 4097 3450 3541 
Q 3450 3153 3228 2886 
Q 3006 2619 2597 2516 
z
" transform="scale(0.015625)"/>
     </defs>
     <use xlink:href="#DejaVuSans-70"/>
     <use xlink:href="#DejaVuSans-2d" x="63.476562"/>
     <use xlink:href="#DejaVuSans-76" x="96.935547"/>
     <use xlink:href="#DejaVuSans-61" x="156.115234"/>
     <use xlink:href="#DejaVuSans-6c" x="217.394531"/>
     <use xlink:href="#DejaVuSans-75" x="245.177734"/>
     <use xlink:href="#DejaVuSans-65" x="308.556641"/>
     <use xlink:href="#DejaVuSans-3a" x="370.080078"/>
     <use xlink:href="#DejaVuSans-20" x="403.771484"/>
     <use xlink:href="#DejaVuSans-30" x="435.558594"/>
     <use xlink:href="#DejaVuSans-2e" x="499.181641"/>
     <use xlink:href="#DejaVuSans-30" x="530.96875"/>
     <use xlink:href="#DejaVuSans-34" x="594.591797"/>
     <use xlink:href="#DejaVuSans-33" x="658.214844"/>
    </g>
   </g>
   <g id="text_28">
    <!-- p-value: 0.98 -->
    <g transform="translate(419.727273 327.060501) scale(0.05 -0.05)">
     <defs>
      <path id="DejaVuSans-38" d="M 2034 2216 
Q 1584 2216 1326 1975 
Q 1069 1734 1069 1313 
Q 1069 891 1326 650 
Q 1584 409 2034 409 
Q 2484 409 2743 651 
Q 3003 894 3003 1313 
Q 3003 1734 2745 1975 
Q 2488 2216 2034 2216 
z
M 1403 2484 
Q 997 2584 770 2862 
Q 544 3141 544 3541 
Q 544 4100 942 4425 
Q 1341 4750 2034 4750 
Q 2731 4750 3128 4425 
Q 3525 4100 3525 3541 
Q 3525 3141 3298 2862 
Q 3072 2584 2669 2484 
Q 3125 2378 3379 2068 
Q 3634 1759 3634 1313 
Q 3634 634 3220 271 
Q 2806 -91 2034 -91 
Q 1263 -91 848 271 
Q 434 634 434 1313 
Q 434 1759 690 2068 
Q 947 2378 1403 2484 
z
M 1172 3481 
Q 1172 3119 1398 2916 
Q 1625 2713 2034 2713 
Q 2441 2713 2670 2916 
Q 2900 3119 2900 3481 
Q 2900 3844 2670 4047 
Q 2441 4250 2034 4250 
Q 1625 4250 1398 4047 
Q 1172 3844 1172 3481 
z
" transform="scale(0.015625)"/>
     </defs>
     <use xlink:href="#DejaVuSans-70"/>
     <use xlink:href="#DejaVuSans-2d" x="63.476562"/>
     <use xlink:href="#DejaVuSans-76" x="96.935547"/>
     <use xlink:href="#DejaVuSans-61" x="156.115234"/>
     <use xlink:href="#DejaVuSans-6c" x="217.394531"/>
     <use xlink:href="#DejaVuSans-75" x="245.177734"/>
     <use xlink:href="#DejaVuSans-65" x="308.556641"/>
     <use xlink:href="#DejaVuSans-3a" x="370.080078"/>
     <use xlink:href="#DejaVuSans-20" x="403.771484"/>
     <use xlink:href="#DejaVuSans-30" x="435.558594"/>
     <use xlink:href="#DejaVuSans-2e" x="499.181641"/>
     <use xlink:href="#DejaVuSans-39" x="530.96875"/>
     <use xlink:href="#DejaVuSans-38" x="594.591797"/>
    </g>
   </g>
   <g id="text_29">
    <!-- p-value: 0.616 -->
    <g transform="translate(470.454545 352.727647) scale(0.05 -0.05)">
     <defs>
      <path id="DejaVuSans-36" d="M 2113 2584 
Q 1688 2584 1439 2293 
Q 1191 2003 1191 1497 
Q 1191 994 1439 701 
Q 1688 409 2113 409 
Q 2538 409 2786 701 
Q 3034 994 3034 1497 
Q 3034 2003 2786 2293 
Q 2538 2584 2113 2584 
z
M 3366 4563 
L 3366 3988 
Q 3128 4100 2886 4159 
Q 2644 4219 2406 4219 
Q 1781 4219 1451 3797 
Q 1122 3375 1075 2522 
Q 1259 2794 1537 2939 
Q 1816 3084 2150 3084 
Q 2853 3084 3261 2657 
Q 3669 2231 3669 1497 
Q 3669 778 3244 343 
Q 2819 -91 2113 -91 
Q 1303 -91 875 529 
Q 447 1150 447 2328 
Q 447 3434 972 4092 
Q 1497 4750 2381 4750 
Q 2619 4750 2861 4703 
Q 3103 4656 3366 4563 
z
" transform="scale(0.015625)"/>
     </defs>
     <use xlink:href="#DejaVuSans-70"/>
     <use xlink:href="#DejaVuSans-2d" x="63.476562"/>
     <use xlink:href="#DejaVuSans-76" x="96.935547"/>
     <use xlink:href="#DejaVuSans-61" x="156.115234"/>
     <use xlink:href="#DejaVuSans-6c" x="217.394531"/>
     <use xlink:href="#DejaVuSans-75" x="245.177734"/>
     <use xlink:href="#DejaVuSans-65" x="308.556641"/>
     <use xlink:href="#DejaVuSans-3a" x="370.080078"/>
     <use xlink:href="#DejaVuSans-20" x="403.771484"/>
     <use xlink:href="#DejaVuSans-30" x="435.558594"/>
     <use xlink:href="#DejaVuSans-2e" x="499.181641"/>
     <use xlink:href="#DejaVuSans-36" x="530.96875"/>
     <use xlink:href="#DejaVuSans-31" x="594.591797"/>
     <use xlink:href="#DejaVuSans-36" x="658.214844"/>
    </g>
   </g>
   <g id="text_30">
    <!-- p-value: 0.239 -->
    <g transform="translate(521.181818 389.014316) scale(0.05 -0.05)">
     <use xlink:href="#DejaVuSans-70"/>
     <use xlink:href="#DejaVuSans-2d" x="63.476562"/>
     <use xlink:href="#DejaVuSans-76" x="96.935547"/>
     <use xlink:href="#DejaVuSans-61" x="156.115234"/>
     <use xlink:href="#DejaVuSans-6c" x="217.394531"/>
     <use xlink:href="#DejaVuSans-75" x="245.177734"/>
     <use xlink:href="#DejaVuSans-65" x="308.556641"/>
     <use xlink:href="#DejaVuSans-3a" x="370.080078"/>
     <use xlink:href="#DejaVuSans-20" x="403.771484"/>
     <use xlink:href="#DejaVuSans-30" x="435.558594"/>
     <use xlink:href="#DejaVuSans-2e" x="499.181641"/>
     <use xlink:href="#DejaVuSans-32" x="530.96875"/>
     <use xlink:href="#DejaVuSans-33" x="594.591797"/>
     <use xlink:href="#DejaVuSans-39" x="658.214844"/>
    </g>
   </g>
   <g id="text_31">
    <!-- p-value: 0.041 -->
    <g transform="translate(571.909091 435.071814) scale(0.05 -0.05)">
     <use xlink:href="#DejaVuSans-70"/>
     <use xlink:href="#DejaVuSans-2d" x="63.476562"/>
     <use xlink:href="#DejaVuSans-76" x="96.935547"/>
     <use xlink:href="#DejaVuSans-61" x="156.115234"/>
     <use xlink:href="#DejaVuSans-6c" x="217.394531"/>
     <use xlink:href="#DejaVuSans-75" x="245.177734"/>
     <use xlink:href="#DejaVuSans-65" x="308.556641"/>
     <use xlink:href="#DejaVuSans-3a" x="370.080078"/>
     <use xlink:href="#DejaVuSans-20" x="403.771484"/>
     <use xlink:href="#DejaVuSans-30" x="435.558594"/>
     <use xlink:href="#DejaVuSans-2e" x="499.181641"/>
     <use xlink:href="#DejaVuSans-30" x="530.96875"/>
     <use xlink:href="#DejaVuSans-34" x="594.591797"/>
     <use xlink:href="#DejaVuSans-31" x="658.214844"/>
    </g>
   </g>
   <g id="text_32">
    <!-- p-value: 0.044 -->
    <g transform="translate(622.636364 433.986632) scale(0.05 -0.05)">
     <use xlink:href="#DejaVuSans-70"/>
     <use xlink:href="#DejaVuSans-2d" x="63.476562"/>
     <use xlink:href="#DejaVuSans-76" x="96.935547"/>
     <use xlink:href="#DejaVuSans-61" x="156.115234"/>
     <use xlink:href="#DejaVuSans-6c" x="217.394531"/>
     <use xlink:href="#DejaVuSans-75" x="245.177734"/>
     <use xlink:href="#DejaVuSans-65" x="308.556641"/>
     <use xlink:href="#DejaVuSans-3a" x="370.080078"/>
     <use xlink:href="#DejaVuSans-20" x="403.771484"/>
     <use xlink:href="#DejaVuSans-30" x="435.558594"/>
     <use xlink:href="#DejaVuSans-2e" x="499.181641"/>
     <use xlink:href="#DejaVuSans-30" x="530.96875"/>
     <use xlink:href="#DejaVuSans-34" x="594.591797"/>
     <use xlink:href="#DejaVuSans-34" x="658.214844"/>
    </g>
   </g>
   <g id="text_33">
    <!-- S&amp;P Statistical Analysis of Industrial Sectors using Spearman rank correlation coefficient -->
    <g transform="translate(103.265625 63.12) scale(0.12 -0.12)">
     <defs>
      <path id="DejaVuSans-26" d="M 1556 2509 
Q 1272 2256 1139 2004 
Q 1006 1753 1006 1478 
Q 1006 1022 1337 719 
Q 1669 416 2169 416 
Q 2466 416 2725 514 
Q 2984 613 3213 813 
L 1556 2509 
z
M 1997 2859 
L 3584 1234 
Q 3769 1513 3872 1830 
Q 3975 2147 3994 2503 
L 4575 2503 
Q 4538 2091 4375 1687 
Q 4213 1284 3922 891 
L 4794 0 
L 4006 0 
L 3559 459 
Q 3234 181 2878 45 
Q 2522 -91 2113 -91 
Q 1359 -91 881 339 
Q 403 769 403 1441 
Q 403 1841 612 2192 
Q 822 2544 1241 2853 
Q 1091 3050 1012 3245 
Q 934 3441 934 3628 
Q 934 4134 1281 4442 
Q 1628 4750 2203 4750 
Q 2463 4750 2720 4694 
Q 2978 4638 3244 4525 
L 3244 3956 
Q 2972 4103 2725 4179 
Q 2478 4256 2266 4256 
Q 1938 4256 1733 4082 
Q 1528 3909 1528 3634 
Q 1528 3475 1620 3314 
Q 1713 3153 1997 2859 
z
" transform="scale(0.015625)"/>
      <path id="DejaVuSans-50" d="M 1259 4147 
L 1259 2394 
L 2053 2394 
Q 2494 2394 2734 2622 
Q 2975 2850 2975 3272 
Q 2975 3691 2734 3919 
Q 2494 4147 2053 4147 
L 1259 4147 
z
M 628 4666 
L 2053 4666 
Q 2838 4666 3239 4311 
Q 3641 3956 3641 3272 
Q 3641 2581 3239 2228 
Q 2838 1875 2053 1875 
L 1259 1875 
L 1259 0 
L 628 0 
L 628 4666 
z
" transform="scale(0.015625)"/>
      <path id="DejaVuSans-41" d="M 2188 4044 
L 1331 1722 
L 3047 1722 
L 2188 4044 
z
M 1831 4666 
L 2547 4666 
L 4325 0 
L 3669 0 
L 3244 1197 
L 1141 1197 
L 716 0 
L 50 0 
L 1831 4666 
z
" transform="scale(0.015625)"/>
      <path id="DejaVuSans-6b" d="M 581 4863 
L 1159 4863 
L 1159 1991 
L 2875 3500 
L 3609 3500 
L 1753 1863 
L 3688 0 
L 2938 0 
L 1159 1709 
L 1159 0 
L 581 0 
L 581 4863 
z
" transform="scale(0.015625)"/>
     </defs>
     <use xlink:href="#DejaVuSans-53"/>
     <use xlink:href="#DejaVuSans-26" x="63.476562"/>
     <use xlink:href="#DejaVuSans-50" x="141.455078"/>
     <use xlink:href="#DejaVuSans-20" x="201.757812"/>
     <use xlink:href="#DejaVuSans-53" x="233.544922"/>
     <use xlink:href="#DejaVuSans-74" x="297.021484"/>
     <use xlink:href="#DejaVuSans-61" x="336.230469"/>
     <use xlink:href="#DejaVuSans-74" x="397.509766"/>
     <use xlink:href="#DejaVuSans-69" x="436.71875"/>
     <use xlink:href="#DejaVuSans-73" x="464.501953"/>
     <use xlink:href="#DejaVuSans-74" x="516.601562"/>
     <use xlink:href="#DejaVuSans-69" x="555.810547"/>
     <use xlink:href="#DejaVuSans-63" x="583.59375"/>
     <use xlink:href="#DejaVuSans-61" x="638.574219"/>
     <use xlink:href="#DejaVuSans-6c" x="699.853516"/>
     <use xlink:href="#DejaVuSans-20" x="727.636719"/>
     <use xlink:href="#DejaVuSans-41" x="759.423828"/>
     <use xlink:href="#DejaVuSans-6e" x="827.832031"/>
     <use xlink:href="#DejaVuSans-61" x="891.210938"/>
     <use xlink:href="#DejaVuSans-6c" x="952.490234"/>
     <use xlink:href="#DejaVuSans-79" x="980.273438"/>
     <use xlink:href="#DejaVuSans-73" x="1039.453125"/>
     <use xlink:href="#DejaVuSans-69" x="1091.552734"/>
     <use xlink:href="#DejaVuSans-73" x="1119.335938"/>
     <use xlink:href="#DejaVuSans-20" x="1171.435547"/>
     <use xlink:href="#DejaVuSans-6f" x="1203.222656"/>
     <use xlink:href="#DejaVuSans-66" x="1264.404297"/>
     <use xlink:href="#DejaVuSans-20" x="1299.609375"/>
     <use xlink:href="#DejaVuSans-49" x="1331.396484"/>
     <use xlink:href="#DejaVuSans-6e" x="1360.888672"/>
     <use xlink:href="#DejaVuSans-64" x="1424.267578"/>
     <use xlink:href="#DejaVuSans-75" x="1487.744141"/>
     <use xlink:href="#DejaVuSans-73" x="1551.123047"/>
     <use xlink:href="#DejaVuSans-74" x="1603.222656"/>
     <use xlink:href="#DejaVuSans-72" x="1642.431641"/>
     <use xlink:href="#DejaVuSans-69" x="1683.544922"/>
     <use xlink:href="#DejaVuSans-61" x="1711.328125"/>
     <use xlink:href="#DejaVuSans-6c" x="1772.607422"/>
     <use xlink:href="#DejaVuSans-20" x="1800.390625"/>
     <use xlink:href="#DejaVuSans-53" x="1832.177734"/>
     <use xlink:href="#DejaVuSans-65" x="1895.654297"/>
     <use xlink:href="#DejaVuSans-63" x="1957.177734"/>
     <use xlink:href="#DejaVuSans-74" x="2012.158203"/>
     <use xlink:href="#DejaVuSans-6f" x="2051.367188"/>
     <use xlink:href="#DejaVuSans-72" x="2112.548828"/>
     <use xlink:href="#DejaVuSans-73" x="2153.662109"/>
     <use xlink:href="#DejaVuSans-20" x="2205.761719"/>
     <use xlink:href="#DejaVuSans-75" x="2237.548828"/>
     <use xlink:href="#DejaVuSans-73" x="2300.927734"/>
     <use xlink:href="#DejaVuSans-69" x="2353.027344"/>
     <use xlink:href="#DejaVuSans-6e" x="2380.810547"/>
     <use xlink:href="#DejaVuSans-67" x="2444.189453"/>
     <use xlink:href="#DejaVuSans-20" x="2507.666016"/>
     <use xlink:href="#DejaVuSans-53" x="2539.453125"/>
     <use xlink:href="#DejaVuSans-70" x="2602.929688"/>
     <use xlink:href="#DejaVuSans-65" x="2666.40625"/>
     <use xlink:href="#DejaVuSans-61" x="2727.929688"/>
     <use xlink:href="#DejaVuSans-72" x="2789.208984"/>
     <use xlink:href="#DejaVuSans-6d" x="2828.572266"/>
     <use xlink:href="#DejaVuSans-61" x="2925.984375"/>
     <use xlink:href="#DejaVuSans-6e" x="2987.263672"/>
     <use xlink:href="#DejaVuSans-20" x="3050.642578"/>
     <use xlink:href="#DejaVuSans-72" x="3082.429688"/>
     <use xlink:href="#DejaVuSans-61" x="3123.542969"/>
     <use xlink:href="#DejaVuSans-6e" x="3184.822266"/>
     <use xlink:href="#DejaVuSans-6b" x="3248.201172"/>
     <use xlink:href="#DejaVuSans-20" x="3306.111328"/>
     <use xlink:href="#DejaVuSans-63" x="3337.898438"/>
     <use xlink:href="#DejaVuSans-6f" x="3392.878906"/>
     <use xlink:href="#DejaVuSans-72" x="3454.060547"/>
     <use xlink:href="#DejaVuSans-72" x="3493.423828"/>
     <use xlink:href="#DejaVuSans-65" x="3532.287109"/>
     <use xlink:href="#DejaVuSans-6c" x="3593.810547"/>
     <use xlink:href="#DejaVuSans-61" x="3621.59375"/>
     <use xlink:href="#DejaVuSans-74" x="3682.873047"/>
     <use xlink:href="#DejaVuSans-69" x="3722.082031"/>
     <use xlink:href="#DejaVuSans-6f" x="3749.865234"/>
     <use xlink:href="#DejaVuSans-6e" x="3811.046875"/>
     <use xlink:href="#DejaVuSans-20" x="3874.425781"/>
     <use xlink:href="#DejaVuSans-63" x="3906.212891"/>
     <use xlink:href="#DejaVuSans-6f" x="3961.193359"/>
     <use xlink:href="#DejaVuSans-65" x="4022.375"/>
     <use xlink:href="#DejaVuSans-66" x="4083.898438"/>
     <use xlink:href="#DejaVuSans-66" x="4119.103516"/>
     <use xlink:href="#DejaVuSans-69" x="4154.308594"/>
     <use xlink:href="#DejaVuSans-63" x="4182.091797"/>
     <use xlink:href="#DejaVuSans-69" x="4237.072266"/>
     <use xlink:href="#DejaVuSans-65" x="4264.855469"/>
     <use xlink:href="#DejaVuSans-6e" x="4326.378906"/>
     <use xlink:href="#DejaVuSans-74" x="4389.757812"/>
    </g>
   </g>
  </g>
 </g>
 <defs>
  <clipPath id="pb023b5e14f">
   <rect x="90" y="69.12" width="558" height="443.52"/>
  </clipPath>
 </defs>
</svg>
