<?xml version="1.0" encoding="utf-8" standalone="no"?>
<!DOCTYPE svg PUBLIC "-//W3C//DTD SVG 1.1//EN"
  "http://www.w3.org/Graphics/SVG/1.1/DTD/svg11.dtd">
<svg xmlns:xlink="http://www.w3.org/1999/xlink" width="720pt" height="576pt" viewBox="0 0 720 576" xmlns="http://www.w3.org/2000/svg" version="1.1">
 <metadata>
  <rdf:RDF xmlns:dc="http://purl.org/dc/elements/1.1/" xmlns:cc="http://creativecommons.org/ns#" xmlns:rdf="http://www.w3.org/1999/02/22-rdf-syntax-ns#">
   <cc:Work>
    <dc:type rdf:resource="http://purl.org/dc/dcmitype/StillImage"/>
    <dc:date>2023-05-02T19:18:58.478422</dc:date>
    <dc:format>image/svg+xml</dc:format>
    <dc:creator>
     <cc:Agent>
      <dc:title>Matplotlib v3.7.1, https://matplotlib.org/</dc:title>
     </cc:Agent>
    </dc:creator>
   </cc:Work>
  </rdf:RDF>
 </metadata>
 <defs>
  <style type="text/css">*{stroke-linejoin: round; stroke-linecap: butt}</style>
 </defs>
 <g id="figure_1">
  <g id="patch_1">
   <path d="M 0 576 
L 720 576 
L 720 0 
L 0 0 
z
" style="fill: #ffffff"/>
  </g>
  <g id="axes_1">
   <g id="patch_2">
    <path d="M 90 232.32 
L 648 232.32 
L 648 69.12 
L 90 69.12 
z
" style="fill: #ffffff"/>
   </g>
   <g id="matplotlib.axis_1">
    <g id="xtick_1">
     <g id="line2d_1">
      <defs>
       <path id="mfe9ba82535" d="M 0 0 
L 0 3.5 
" style="stroke: #000000; stroke-width: 0.8"/>
      </defs>
      <g>
       <use xlink:href="#mfe9ba82535" x="177.478664" y="232.32" style="stroke: #000000; stroke-width: 0.8"/>
      </g>
     </g>
     <g id="text_1">
      <!-- 2023-02-01 -->
      <g transform="translate(126.109213 274.958252) rotate(-30) scale(0.1 -0.1)">
       <defs>
        <path id="DejaVuSans-32" d="M 1228 531 
L 3431 531 
L 3431 0 
L 469 0 
L 469 531 
Q 828 903 1448 1529 
Q 2069 2156 2228 2338 
Q 2531 2678 2651 2914 
Q 2772 3150 2772 3378 
Q 2772 3750 2511 3984 
Q 2250 4219 1831 4219 
Q 1534 4219 1204 4116 
Q 875 4013 500 3803 
L 500 4441 
Q 881 4594 1212 4672 
Q 1544 4750 1819 4750 
Q 2544 4750 2975 4387 
Q 3406 4025 3406 3419 
Q 3406 3131 3298 2873 
Q 3191 2616 2906 2266 
Q 2828 2175 2409 1742 
Q 1991 1309 1228 531 
z
" transform="scale(0.015625)"/>
        <path id="DejaVuSans-30" d="M 2034 4250 
Q 1547 4250 1301 3770 
Q 1056 3291 1056 2328 
Q 1056 1369 1301 889 
Q 1547 409 2034 409 
Q 2525 409 2770 889 
Q 3016 1369 3016 2328 
Q 3016 3291 2770 3770 
Q 2525 4250 2034 4250 
z
M 2034 4750 
Q 2819 4750 3233 4129 
Q 3647 3509 3647 2328 
Q 3647 1150 3233 529 
Q 2819 -91 2034 -91 
Q 1250 -91 836 529 
Q 422 1150 422 2328 
Q 422 3509 836 4129 
Q 1250 4750 2034 4750 
z
" transform="scale(0.015625)"/>
        <path id="DejaVuSans-33" d="M 2597 2516 
Q 3050 2419 3304 2112 
Q 3559 1806 3559 1356 
Q 3559 666 3084 287 
Q 2609 -91 1734 -91 
Q 1441 -91 1130 -33 
Q 819 25 488 141 
L 488 750 
Q 750 597 1062 519 
Q 1375 441 1716 441 
Q 2309 441 2620 675 
Q 2931 909 2931 1356 
Q 2931 1769 2642 2001 
Q 2353 2234 1838 2234 
L 1294 2234 
L 1294 2753 
L 1863 2753 
Q 2328 2753 2575 2939 
Q 2822 3125 2822 3475 
Q 2822 3834 2567 4026 
Q 2313 4219 1838 4219 
Q 1578 4219 1281 4162 
Q 984 4106 628 3988 
L 628 4550 
Q 988 4650 1302 4700 
Q 1616 4750 1894 4750 
Q 2613 4750 3031 4423 
Q 3450 4097 3450 3541 
Q 3450 3153 3228 2886 
Q 3006 2619 2597 2516 
z
" transform="scale(0.015625)"/>
        <path id="DejaVuSans-2d" d="M 313 2009 
L 1997 2009 
L 1997 1497 
L 313 1497 
L 313 2009 
z
" transform="scale(0.015625)"/>
        <path id="DejaVuSans-31" d="M 794 531 
L 1825 531 
L 1825 4091 
L 703 3866 
L 703 4441 
L 1819 4666 
L 2450 4666 
L 2450 531 
L 3481 531 
L 3481 0 
L 794 0 
L 794 531 
z
" transform="scale(0.015625)"/>
       </defs>
       <use xlink:href="#DejaVuSans-32"/>
       <use xlink:href="#DejaVuSans-30" x="63.623047"/>
       <use xlink:href="#DejaVuSans-32" x="127.246094"/>
       <use xlink:href="#DejaVuSans-33" x="190.869141"/>
       <use xlink:href="#DejaVuSans-2d" x="254.492188"/>
       <use xlink:href="#DejaVuSans-30" x="290.576172"/>
       <use xlink:href="#DejaVuSans-32" x="354.199219"/>
       <use xlink:href="#DejaVuSans-2d" x="417.822266"/>
       <use xlink:href="#DejaVuSans-30" x="453.90625"/>
       <use xlink:href="#DejaVuSans-31" x="517.529297"/>
      </g>
     </g>
    </g>
    <g id="xtick_2">
     <g id="line2d_2">
      <g>
       <use xlink:href="#mfe9ba82535" x="249.946197" y="232.32" style="stroke: #000000; stroke-width: 0.8"/>
      </g>
     </g>
     <g id="text_2">
      <!-- 2023-02-15 -->
      <g transform="translate(198.576745 274.958252) rotate(-30) scale(0.1 -0.1)">
       <defs>
        <path id="DejaVuSans-35" d="M 691 4666 
L 3169 4666 
L 3169 4134 
L 1269 4134 
L 1269 2991 
Q 1406 3038 1543 3061 
Q 1681 3084 1819 3084 
Q 2600 3084 3056 2656 
Q 3513 2228 3513 1497 
Q 3513 744 3044 326 
Q 2575 -91 1722 -91 
Q 1428 -91 1123 -41 
Q 819 9 494 109 
L 494 744 
Q 775 591 1075 516 
Q 1375 441 1709 441 
Q 2250 441 2565 725 
Q 2881 1009 2881 1497 
Q 2881 1984 2565 2268 
Q 2250 2553 1709 2553 
Q 1456 2553 1204 2497 
Q 953 2441 691 2322 
L 691 4666 
z
" transform="scale(0.015625)"/>
       </defs>
       <use xlink:href="#DejaVuSans-32"/>
       <use xlink:href="#DejaVuSans-30" x="63.623047"/>
       <use xlink:href="#DejaVuSans-32" x="127.246094"/>
       <use xlink:href="#DejaVuSans-33" x="190.869141"/>
       <use xlink:href="#DejaVuSans-2d" x="254.492188"/>
       <use xlink:href="#DejaVuSans-30" x="290.576172"/>
       <use xlink:href="#DejaVuSans-32" x="354.199219"/>
       <use xlink:href="#DejaVuSans-2d" x="417.822266"/>
       <use xlink:href="#DejaVuSans-31" x="453.90625"/>
       <use xlink:href="#DejaVuSans-35" x="517.529297"/>
      </g>
     </g>
    </g>
    <g id="xtick_3">
     <g id="line2d_3">
      <g>
       <use xlink:href="#mfe9ba82535" x="322.413729" y="232.32" style="stroke: #000000; stroke-width: 0.8"/>
      </g>
     </g>
     <g id="text_3">
      <!-- 2023-03-01 -->
      <g transform="translate(271.044278 274.958252) rotate(-30) scale(0.1 -0.1)">
       <use xlink:href="#DejaVuSans-32"/>
       <use xlink:href="#DejaVuSans-30" x="63.623047"/>
       <use xlink:href="#DejaVuSans-32" x="127.246094"/>
       <use xlink:href="#DejaVuSans-33" x="190.869141"/>
       <use xlink:href="#DejaVuSans-2d" x="254.492188"/>
       <use xlink:href="#DejaVuSans-30" x="290.576172"/>
       <use xlink:href="#DejaVuSans-33" x="354.199219"/>
       <use xlink:href="#DejaVuSans-2d" x="417.822266"/>
       <use xlink:href="#DejaVuSans-30" x="453.90625"/>
       <use xlink:href="#DejaVuSans-31" x="517.529297"/>
      </g>
     </g>
    </g>
    <g id="xtick_4">
     <g id="line2d_4">
      <g>
       <use xlink:href="#mfe9ba82535" x="394.881262" y="232.32" style="stroke: #000000; stroke-width: 0.8"/>
      </g>
     </g>
     <g id="text_4">
      <!-- 2023-03-15 -->
      <g transform="translate(343.51181 274.958252) rotate(-30) scale(0.1 -0.1)">
       <use xlink:href="#DejaVuSans-32"/>
       <use xlink:href="#DejaVuSans-30" x="63.623047"/>
       <use xlink:href="#DejaVuSans-32" x="127.246094"/>
       <use xlink:href="#DejaVuSans-33" x="190.869141"/>
       <use xlink:href="#DejaVuSans-2d" x="254.492188"/>
       <use xlink:href="#DejaVuSans-30" x="290.576172"/>
       <use xlink:href="#DejaVuSans-33" x="354.199219"/>
       <use xlink:href="#DejaVuSans-2d" x="417.822266"/>
       <use xlink:href="#DejaVuSans-31" x="453.90625"/>
       <use xlink:href="#DejaVuSans-35" x="517.529297"/>
      </g>
     </g>
    </g>
    <g id="xtick_5">
     <g id="line2d_5">
      <g>
       <use xlink:href="#mfe9ba82535" x="482.877551" y="232.32" style="stroke: #000000; stroke-width: 0.8"/>
      </g>
     </g>
     <g id="text_5">
      <!-- 2023-04-01 -->
      <g transform="translate(431.5081 274.958252) rotate(-30) scale(0.1 -0.1)">
       <defs>
        <path id="DejaVuSans-34" d="M 2419 4116 
L 825 1625 
L 2419 1625 
L 2419 4116 
z
M 2253 4666 
L 3047 4666 
L 3047 1625 
L 3713 1625 
L 3713 1100 
L 3047 1100 
L 3047 0 
L 2419 0 
L 2419 1100 
L 313 1100 
L 313 1709 
L 2253 4666 
z
" transform="scale(0.015625)"/>
       </defs>
       <use xlink:href="#DejaVuSans-32"/>
       <use xlink:href="#DejaVuSans-30" x="63.623047"/>
       <use xlink:href="#DejaVuSans-32" x="127.246094"/>
       <use xlink:href="#DejaVuSans-33" x="190.869141"/>
       <use xlink:href="#DejaVuSans-2d" x="254.492188"/>
       <use xlink:href="#DejaVuSans-30" x="290.576172"/>
       <use xlink:href="#DejaVuSans-34" x="354.199219"/>
       <use xlink:href="#DejaVuSans-2d" x="417.822266"/>
       <use xlink:href="#DejaVuSans-30" x="453.90625"/>
       <use xlink:href="#DejaVuSans-31" x="517.529297"/>
      </g>
     </g>
    </g>
    <g id="xtick_6">
     <g id="line2d_6">
      <g>
       <use xlink:href="#mfe9ba82535" x="555.345083" y="232.32" style="stroke: #000000; stroke-width: 0.8"/>
      </g>
     </g>
     <g id="text_6">
      <!-- 2023-04-15 -->
      <g transform="translate(503.975632 274.958252) rotate(-30) scale(0.1 -0.1)">
       <use xlink:href="#DejaVuSans-32"/>
       <use xlink:href="#DejaVuSans-30" x="63.623047"/>
       <use xlink:href="#DejaVuSans-32" x="127.246094"/>
       <use xlink:href="#DejaVuSans-33" x="190.869141"/>
       <use xlink:href="#DejaVuSans-2d" x="254.492188"/>
       <use xlink:href="#DejaVuSans-30" x="290.576172"/>
       <use xlink:href="#DejaVuSans-34" x="354.199219"/>
       <use xlink:href="#DejaVuSans-2d" x="417.822266"/>
       <use xlink:href="#DejaVuSans-31" x="453.90625"/>
       <use xlink:href="#DejaVuSans-35" x="517.529297"/>
      </g>
     </g>
    </g>
    <g id="xtick_7">
     <g id="line2d_7">
      <g>
       <use xlink:href="#mfe9ba82535" x="638.165121" y="232.32" style="stroke: #000000; stroke-width: 0.8"/>
      </g>
     </g>
     <g id="text_7">
      <!-- 2023-05-01 -->
      <g transform="translate(586.795669 274.958252) rotate(-30) scale(0.1 -0.1)">
       <use xlink:href="#DejaVuSans-32"/>
       <use xlink:href="#DejaVuSans-30" x="63.623047"/>
       <use xlink:href="#DejaVuSans-32" x="127.246094"/>
       <use xlink:href="#DejaVuSans-33" x="190.869141"/>
       <use xlink:href="#DejaVuSans-2d" x="254.492188"/>
       <use xlink:href="#DejaVuSans-30" x="290.576172"/>
       <use xlink:href="#DejaVuSans-35" x="354.199219"/>
       <use xlink:href="#DejaVuSans-2d" x="417.822266"/>
       <use xlink:href="#DejaVuSans-30" x="453.90625"/>
       <use xlink:href="#DejaVuSans-31" x="517.529297"/>
      </g>
     </g>
    </g>
    <g id="text_8">
     <!-- Date -->
     <g transform="translate(357.049219 288.357752) scale(0.1 -0.1)">
      <defs>
       <path id="DejaVuSans-44" d="M 1259 4147 
L 1259 519 
L 2022 519 
Q 2988 519 3436 956 
Q 3884 1394 3884 2338 
Q 3884 3275 3436 3711 
Q 2988 4147 2022 4147 
L 1259 4147 
z
M 628 4666 
L 1925 4666 
Q 3281 4666 3915 4102 
Q 4550 3538 4550 2338 
Q 4550 1131 3912 565 
Q 3275 0 1925 0 
L 628 0 
L 628 4666 
z
" transform="scale(0.015625)"/>
       <path id="DejaVuSans-61" d="M 2194 1759 
Q 1497 1759 1228 1600 
Q 959 1441 959 1056 
Q 959 750 1161 570 
Q 1363 391 1709 391 
Q 2188 391 2477 730 
Q 2766 1069 2766 1631 
L 2766 1759 
L 2194 1759 
z
M 3341 1997 
L 3341 0 
L 2766 0 
L 2766 531 
Q 2569 213 2275 61 
Q 1981 -91 1556 -91 
Q 1019 -91 701 211 
Q 384 513 384 1019 
Q 384 1609 779 1909 
Q 1175 2209 1959 2209 
L 2766 2209 
L 2766 2266 
Q 2766 2663 2505 2880 
Q 2244 3097 1772 3097 
Q 1472 3097 1187 3025 
Q 903 2953 641 2809 
L 641 3341 
Q 956 3463 1253 3523 
Q 1550 3584 1831 3584 
Q 2591 3584 2966 3190 
Q 3341 2797 3341 1997 
z
" transform="scale(0.015625)"/>
       <path id="DejaVuSans-74" d="M 1172 4494 
L 1172 3500 
L 2356 3500 
L 2356 3053 
L 1172 3053 
L 1172 1153 
Q 1172 725 1289 603 
Q 1406 481 1766 481 
L 2356 481 
L 2356 0 
L 1766 0 
Q 1100 0 847 248 
Q 594 497 594 1153 
L 594 3053 
L 172 3053 
L 172 3500 
L 594 3500 
L 594 4494 
L 1172 4494 
z
" transform="scale(0.015625)"/>
       <path id="DejaVuSans-65" d="M 3597 1894 
L 3597 1613 
L 953 1613 
Q 991 1019 1311 708 
Q 1631 397 2203 397 
Q 2534 397 2845 478 
Q 3156 559 3463 722 
L 3463 178 
Q 3153 47 2828 -22 
Q 2503 -91 2169 -91 
Q 1331 -91 842 396 
Q 353 884 353 1716 
Q 353 2575 817 3079 
Q 1281 3584 2069 3584 
Q 2775 3584 3186 3129 
Q 3597 2675 3597 1894 
z
M 3022 2063 
Q 3016 2534 2758 2815 
Q 2500 3097 2075 3097 
Q 1594 3097 1305 2825 
Q 1016 2553 972 2059 
L 3022 2063 
z
" transform="scale(0.015625)"/>
      </defs>
      <use xlink:href="#DejaVuSans-44"/>
      <use xlink:href="#DejaVuSans-61" x="77.001953"/>
      <use xlink:href="#DejaVuSans-74" x="138.28125"/>
      <use xlink:href="#DejaVuSans-65" x="177.490234"/>
     </g>
    </g>
   </g>
   <g id="matplotlib.axis_2">
    <g id="ytick_1">
     <g id="line2d_8">
      <defs>
       <path id="mdb6edff104" d="M 0 0 
L -3.5 0 
" style="stroke: #000000; stroke-width: 0.8"/>
      </defs>
      <g>
       <use xlink:href="#mdb6edff104" x="90" y="193.63194" style="stroke: #000000; stroke-width: 0.8"/>
      </g>
     </g>
     <g id="text_9">
      <!-- 100 -->
      <g transform="translate(63.9125 197.431158) scale(0.1 -0.1)">
       <use xlink:href="#DejaVuSans-31"/>
       <use xlink:href="#DejaVuSans-30" x="63.623047"/>
       <use xlink:href="#DejaVuSans-30" x="127.246094"/>
      </g>
     </g>
    </g>
    <g id="ytick_2">
     <g id="line2d_9">
      <g>
       <use xlink:href="#mdb6edff104" x="90" y="153.5629" style="stroke: #000000; stroke-width: 0.8"/>
      </g>
     </g>
     <g id="text_10">
      <!-- 200 -->
      <g transform="translate(63.9125 157.362119) scale(0.1 -0.1)">
       <use xlink:href="#DejaVuSans-32"/>
       <use xlink:href="#DejaVuSans-30" x="63.623047"/>
       <use xlink:href="#DejaVuSans-30" x="127.246094"/>
      </g>
     </g>
    </g>
    <g id="ytick_3">
     <g id="line2d_10">
      <g>
       <use xlink:href="#mdb6edff104" x="90" y="113.493861" style="stroke: #000000; stroke-width: 0.8"/>
      </g>
     </g>
     <g id="text_11">
      <!-- 300 -->
      <g transform="translate(63.9125 117.29308) scale(0.1 -0.1)">
       <use xlink:href="#DejaVuSans-33"/>
       <use xlink:href="#DejaVuSans-30" x="63.623047"/>
       <use xlink:href="#DejaVuSans-30" x="127.246094"/>
      </g>
     </g>
    </g>
    <g id="ytick_4">
     <g id="line2d_11">
      <g>
       <use xlink:href="#mdb6edff104" x="90" y="73.424822" style="stroke: #000000; stroke-width: 0.8"/>
      </g>
     </g>
     <g id="text_12">
      <!-- 400 -->
      <g transform="translate(63.9125 77.224041) scale(0.1 -0.1)">
       <use xlink:href="#DejaVuSans-34"/>
       <use xlink:href="#DejaVuSans-30" x="63.623047"/>
       <use xlink:href="#DejaVuSans-30" x="127.246094"/>
      </g>
     </g>
    </g>
    <g id="text_13">
     <!-- Stock Price -->
     <g transform="translate(57.832812 178.345) rotate(-90) scale(0.1 -0.1)">
      <defs>
       <path id="DejaVuSans-53" d="M 3425 4513 
L 3425 3897 
Q 3066 4069 2747 4153 
Q 2428 4238 2131 4238 
Q 1616 4238 1336 4038 
Q 1056 3838 1056 3469 
Q 1056 3159 1242 3001 
Q 1428 2844 1947 2747 
L 2328 2669 
Q 3034 2534 3370 2195 
Q 3706 1856 3706 1288 
Q 3706 609 3251 259 
Q 2797 -91 1919 -91 
Q 1588 -91 1214 -16 
Q 841 59 441 206 
L 441 856 
Q 825 641 1194 531 
Q 1563 422 1919 422 
Q 2459 422 2753 634 
Q 3047 847 3047 1241 
Q 3047 1584 2836 1778 
Q 2625 1972 2144 2069 
L 1759 2144 
Q 1053 2284 737 2584 
Q 422 2884 422 3419 
Q 422 4038 858 4394 
Q 1294 4750 2059 4750 
Q 2388 4750 2728 4690 
Q 3069 4631 3425 4513 
z
" transform="scale(0.015625)"/>
       <path id="DejaVuSans-6f" d="M 1959 3097 
Q 1497 3097 1228 2736 
Q 959 2375 959 1747 
Q 959 1119 1226 758 
Q 1494 397 1959 397 
Q 2419 397 2687 759 
Q 2956 1122 2956 1747 
Q 2956 2369 2687 2733 
Q 2419 3097 1959 3097 
z
M 1959 3584 
Q 2709 3584 3137 3096 
Q 3566 2609 3566 1747 
Q 3566 888 3137 398 
Q 2709 -91 1959 -91 
Q 1206 -91 779 398 
Q 353 888 353 1747 
Q 353 2609 779 3096 
Q 1206 3584 1959 3584 
z
" transform="scale(0.015625)"/>
       <path id="DejaVuSans-63" d="M 3122 3366 
L 3122 2828 
Q 2878 2963 2633 3030 
Q 2388 3097 2138 3097 
Q 1578 3097 1268 2742 
Q 959 2388 959 1747 
Q 959 1106 1268 751 
Q 1578 397 2138 397 
Q 2388 397 2633 464 
Q 2878 531 3122 666 
L 3122 134 
Q 2881 22 2623 -34 
Q 2366 -91 2075 -91 
Q 1284 -91 818 406 
Q 353 903 353 1747 
Q 353 2603 823 3093 
Q 1294 3584 2113 3584 
Q 2378 3584 2631 3529 
Q 2884 3475 3122 3366 
z
" transform="scale(0.015625)"/>
       <path id="DejaVuSans-6b" d="M 581 4863 
L 1159 4863 
L 1159 1991 
L 2875 3500 
L 3609 3500 
L 1753 1863 
L 3688 0 
L 2938 0 
L 1159 1709 
L 1159 0 
L 581 0 
L 581 4863 
z
" transform="scale(0.015625)"/>
       <path id="DejaVuSans-20" transform="scale(0.015625)"/>
       <path id="DejaVuSans-50" d="M 1259 4147 
L 1259 2394 
L 2053 2394 
Q 2494 2394 2734 2622 
Q 2975 2850 2975 3272 
Q 2975 3691 2734 3919 
Q 2494 4147 2053 4147 
L 1259 4147 
z
M 628 4666 
L 2053 4666 
Q 2838 4666 3239 4311 
Q 3641 3956 3641 3272 
Q 3641 2581 3239 2228 
Q 2838 1875 2053 1875 
L 1259 1875 
L 1259 0 
L 628 0 
L 628 4666 
z
" transform="scale(0.015625)"/>
       <path id="DejaVuSans-72" d="M 2631 2963 
Q 2534 3019 2420 3045 
Q 2306 3072 2169 3072 
Q 1681 3072 1420 2755 
Q 1159 2438 1159 1844 
L 1159 0 
L 581 0 
L 581 3500 
L 1159 3500 
L 1159 2956 
Q 1341 3275 1631 3429 
Q 1922 3584 2338 3584 
Q 2397 3584 2469 3576 
Q 2541 3569 2628 3553 
L 2631 2963 
z
" transform="scale(0.015625)"/>
       <path id="DejaVuSans-69" d="M 603 3500 
L 1178 3500 
L 1178 0 
L 603 0 
L 603 3500 
z
M 603 4863 
L 1178 4863 
L 1178 4134 
L 603 4134 
L 603 4863 
z
" transform="scale(0.015625)"/>
      </defs>
      <use xlink:href="#DejaVuSans-53"/>
      <use xlink:href="#DejaVuSans-74" x="63.476562"/>
      <use xlink:href="#DejaVuSans-6f" x="102.685547"/>
      <use xlink:href="#DejaVuSans-63" x="163.867188"/>
      <use xlink:href="#DejaVuSans-6b" x="218.847656"/>
      <use xlink:href="#DejaVuSans-20" x="276.757812"/>
      <use xlink:href="#DejaVuSans-50" x="308.544922"/>
      <use xlink:href="#DejaVuSans-72" x="367.097656"/>
      <use xlink:href="#DejaVuSans-69" x="408.210938"/>
      <use xlink:href="#DejaVuSans-63" x="435.994141"/>
      <use xlink:href="#DejaVuSans-65" x="490.974609"/>
     </g>
    </g>
   </g>
   <g id="line2d_12">
    <path d="M 115.363636 185.357682 
L 130.892393 184.568322 
L 136.068646 187.621584 
L 141.244898 188.451013 
L 146.42115 188.202584 
L 151.597403 187.521411 
L 167.12616 188.591254 
L 172.302412 187.589528 
L 177.478664 187.27699 
L 182.654917 185.501931 
L 187.831169 186.623865 
L 203.359926 187.020548 
L 208.536178 186.860271 
L 213.71243 187.521411 
L 218.888683 188.451013 
L 224.064935 188.070358 
L 239.593692 187.509391 
L 244.769944 187.938129 
L 249.946197 187.705728 
L 255.122449 188.823655 
L 260.298701 188.426972 
L 281.003711 189.925553 
L 286.179963 190.049767 
L 291.356215 190.061787 
L 296.532468 190.506553 
L 312.061224 190.318231 
L 317.237477 190.530597 
L 322.413729 189.540891 
L 327.589981 189.665104 
L 332.766234 189.120165 
L 348.294991 189.653084 
L 353.471243 190.791046 
L 358.647495 190.762995 
L 363.823748 191.42013 
L 369 192.005138 
L 384.528757 192.229523 
L 389.705009 192.518021 
L 394.881262 192.518021 
L 400.057514 191.945033 
L 405.233766 192.421856 
L 420.762523 191.904965 
L 425.938776 191.912977 
L 431.115028 193.014876 
L 436.29128 193.231249 
L 441.467532 193.175153 
L 456.996289 193.034912 
L 462.172542 192.934739 
L 467.348794 192.353736 
L 472.525046 192.518021 
L 477.701299 191.584411 
L 493.230056 191.800785 
L 498.406308 192.730386 
L 503.58256 192.714358 
L 508.758813 193.006864 
L 529.463822 192.526033 
L 534.640074 191.804792 
L 539.816327 191.880921 
L 544.992579 191.167693 
L 550.168831 191.319957 
L 565.697588 190.915259 
L 570.87384 191.119612 
L 576.050093 191.195741 
L 581.226345 191.736673 
L 586.402597 191.836845 
L 601.931354 191.604447 
L 607.107607 191.880921 
L 612.283859 192.461924 
L 617.460111 191.496259 
L 622.636364 191.139645 
" clip-path="url(#p12f5d045d3)" style="fill: none; stroke: #1f77b4; stroke-width: 1.5; stroke-linecap: square"/>
   </g>
   <g id="line2d_13">
    <path d="M 115.363636 210.000142 
L 130.892393 209.575411 
L 136.068646 209.391093 
L 141.244898 209.451196 
L 146.42115 210.12035 
L 151.597403 209.515307 
L 167.12616 209.835859 
L 172.302412 206.57424 
L 177.478664 205.668679 
L 182.654917 205.492375 
L 187.831169 206.033306 
L 203.359926 206.658385 
L 208.536178 207.002979 
L 213.71243 207.171268 
L 218.888683 207.331545 
L 224.064935 207.211337 
L 239.593692 206.442012 
L 244.769944 206.66239 
L 249.946197 206.442012 
L 255.122449 206.566225 
L 260.298701 206.758558 
L 281.003711 207.387641 
L 286.179963 207.467778 
L 291.356215 207.331545 
L 296.532468 207.696172 
L 312.061224 207.527883 
L 317.237477 207.403669 
L 322.413729 206.946883 
L 327.589981 206.598281 
L 332.766234 206.401943 
L 348.294991 206.894791 
L 353.471243 207.099144 
L 358.647495 206.850715 
L 363.823748 206.682426 
L 369 207.215345 
L 384.528757 207.343565 
L 389.705009 206.66239 
L 394.881262 206.986951 
L 400.057514 206.706466 
L 405.233766 207.467778 
L 420.762523 207.075103 
L 425.938776 206.886779 
L 431.115028 207.059075 
L 436.29128 207.139212 
L 441.467532 206.958903 
L 456.996289 206.614309 
L 462.172542 206.393928 
L 467.348794 206.085398 
L 472.525046 206.494101 
L 477.701299 205.993238 
L 493.230056 206.113446 
L 498.406308 207.32353 
L 503.58256 207.812372 
L 508.758813 207.81638 
L 529.463822 207.467778 
L 534.640074 207.431718 
L 539.816327 207.2474 
L 544.992579 207.115172 
L 550.168831 206.806639 
L 565.697588 206.626329 
L 570.87384 206.237659 
L 576.050093 206.502116 
L 581.226345 206.145502 
L 586.402597 206.141494 
L 601.931354 206.085398 
L 607.107607 206.225639 
L 612.283859 206.654377 
L 617.460111 206.229647 
L 622.636364 206.337832 
" clip-path="url(#p12f5d045d3)" style="fill: none; stroke: #ff7f0e; stroke-width: 1.5; stroke-linecap: square"/>
   </g>
   <g id="line2d_14">
    <path d="M 115.363636 188.495089 
L 130.892393 188.018266 
L 136.068646 188.611289 
L 141.244898 189.224345 
L 146.42115 189.196297 
L 151.597403 189.645071 
L 167.12616 189.701168 
L 172.302412 189.404655 
L 177.478664 188.895779 
L 182.654917 188.723482 
L 187.831169 188.907799 
L 203.359926 189.324518 
L 208.536178 188.827663 
L 213.71243 189.544899 
L 218.888683 190.398368 
L 224.064935 190.362305 
L 239.593692 190.218059 
L 244.769944 190.722926 
L 249.946197 190.714914 
L 255.122449 191.195741 
L 260.298701 190.931287 
L 281.003711 192.169419 
L 286.179963 192.554081 
L 291.356215 192.610178 
L 296.532468 193.447622 
L 312.061224 193.7241 
L 317.237477 192.942752 
L 322.413729 193.299366 
L 327.589981 192.578125 
L 332.766234 191.848869 
L 348.294991 192.530041 
L 353.471243 193.639952 
L 358.647495 193.872353 
L 363.823748 194.493425 
L 369 194.850039 
L 384.528757 194.357188 
L 389.705009 194.212939 
L 394.881262 194.513457 
L 400.057514 194.02061 
L 405.233766 194.830003 
L 420.762523 194.485409 
L 425.938776 194.301092 
L 431.115028 194.890107 
L 436.29128 194.817983 
L 441.467532 194.413285 
L 456.996289 194.249003 
L 462.172542 194.789935 
L 467.348794 194.184891 
L 472.525046 194.000574 
L 477.701299 193.127069 
L 493.230056 192.994843 
L 498.406308 192.510005 
L 503.58256 191.945033 
L 508.758813 191.656536 
L 529.463822 192.149386 
L 534.640074 192.313668 
L 539.816327 192.606173 
L 544.992579 192.185447 
L 550.168831 192.045206 
L 565.697588 191.82082 
L 570.87384 191.969074 
L 576.050093 188.707454 
L 581.226345 189.484795 
L 586.402597 188.959888 
L 601.931354 189.464759 
L 607.107607 189.637056 
L 612.283859 190.125899 
L 617.460111 189.825381 
L 622.636364 189.436711 
" clip-path="url(#p12f5d045d3)" style="fill: none; stroke: #2ca02c; stroke-width: 1.5; stroke-linecap: square"/>
   </g>
   <g id="line2d_15">
    <path d="M 115.363636 173.761705 
L 130.892393 174.17842 
L 136.068646 174.523014 
L 141.244898 174.482948 
L 146.42115 174.639217 
L 151.597403 175.087989 
L 167.12616 175.340426 
L 172.302412 174.498973 
L 177.478664 174.959765 
L 182.654917 175.664984 
L 187.831169 175.520735 
L 203.359926 175.592856 
L 208.536178 175.544776 
L 213.71243 175.757141 
L 218.888683 174.118319 
L 224.064935 172.776003 
L 239.593692 172.102847 
L 244.769944 172.559633 
L 249.946197 173.172689 
L 255.122449 173.785745 
L 260.298701 173.072517 
L 281.003711 172.796039 
L 286.179963 173.328958 
L 291.356215 172.767988 
L 296.532468 172.511546 
L 312.061224 171.882466 
L 317.237477 172.03473 
L 322.413729 171.48578 
L 327.589981 171.842394 
L 332.766234 171.169237 
L 348.294991 171.481775 
L 353.471243 172.4234 
L 358.647495 173.757694 
L 363.823748 174.659247 
L 369 173.713617 
L 384.528757 172.816075 
L 389.705009 172.05476 
L 394.881262 171.970618 
L 400.057514 171.47376 
L 405.233766 171.906506 
L 420.762523 171.145197 
L 425.938776 170.884744 
L 431.115028 172.126887 
L 436.29128 171.47376 
L 441.467532 170.383881 
L 456.996289 170.576217 
L 462.172542 170.291724 
L 467.348794 170.391897 
L 472.525046 170.423953 
L 477.701299 169.842953 
L 493.230056 169.422227 
L 498.406308 169.678668 
L 503.58256 169.269963 
L 508.758813 168.969445 
L 529.463822 169.077633 
L 534.640074 169.037561 
L 539.816327 168.644886 
L 544.992579 168.512658 
L 550.168831 168.95342 
L 565.697588 169.117704 
L 570.87384 169.754801 
L 576.050093 169.105678 
L 581.226345 168.893313 
L 586.402597 168.624851 
L 601.931354 167.955699 
L 607.107607 167.627136 
L 612.283859 168.869272 
L 617.460111 174.050202 
L 622.636364 173.148649 
" clip-path="url(#p12f5d045d3)" style="fill: none; stroke: #d62728; stroke-width: 1.5; stroke-linecap: square"/>
   </g>
   <g id="line2d_16">
    <path d="M 115.363636 121.319344 
L 130.892393 121.772126 
L 136.068646 123.563213 
L 141.244898 124.24839 
L 146.42115 123.807628 
L 151.597403 122.601558 
L 167.12616 123.783587 
L 172.302412 121.88833 
L 177.478664 120.065181 
L 182.654917 115.857932 
L 187.831169 117.813303 
L 203.359926 119.712572 
L 208.536178 118.374267 
L 213.71243 119.620421 
L 218.888683 119.440105 
L 224.064935 119.920938 
L 239.593692 118.161902 
L 244.769944 119.59638 
L 249.946197 118.44239 
L 255.122449 121.018826 
L 260.298701 122.689711 
L 281.003711 125.855162 
L 286.179963 125.662826 
L 291.356215 125.021719 
L 296.532468 126.904969 
L 312.061224 127.017162 
L 317.237477 127.29765 
L 322.413729 128.083 
L 327.589981 127.413841 
L 332.766234 125.83512 
L 348.294991 125.662826 
L 353.471243 127.838572 
L 358.647495 128.054949 
L 363.823748 129.617639 
L 369 132.346345 
L 384.528757 133.003477 
L 389.705009 132.53467 
L 394.881262 135.063026 
L 400.057514 132.358366 
L 405.233766 133.528381 
L 420.762523 132.506619 
L 425.938776 130.475122 
L 431.115028 132.218121 
L 436.29128 124.849425 
L 441.467532 124.713192 
L 456.996289 123.927842 
L 462.172542 123.511121 
L 467.348794 121.531709 
L 472.525046 120.441831 
L 477.701299 119.179659 
L 493.230056 119.167639 
L 498.406308 119.167639 
L 503.58256 120.974756 
L 508.758813 120.82649 
L 529.463822 120.834512 
L 534.640074 118.971304 
L 539.816327 120.001069 
L 544.992579 119.396035 
L 550.168831 121.808187 
L 565.697588 121.515678 
L 570.87384 121.5237 
L 576.050093 121.54774 
L 581.226345 123.290746 
L 586.402597 122.978208 
L 601.931354 122.609568 
L 607.107607 125.234085 
L 612.283859 125.029741 
L 617.460111 123.330805 
L 622.636364 121.391465 
" clip-path="url(#p12f5d045d3)" style="fill: none; stroke: #9467bd; stroke-width: 1.5; stroke-linecap: square"/>
   </g>
   <g id="line2d_17">
    <path d="M 115.363636 204.114002 
L 130.892393 203.561047 
L 136.068646 203.605123 
L 141.244898 203.793448 
L 146.42115 203.408786 
L 151.597403 203.004088 
L 167.12616 203.264537 
L 172.302412 203.020116 
L 177.478664 202.968027 
L 182.654917 202.803742 
L 187.831169 203.553035 
L 203.359926 205.01956 
L 208.536178 203.408786 
L 213.71243 204.494656 
L 218.888683 203.545019 
L 224.064935 203.46889 
L 239.593692 203.012103 
L 244.769944 202.935971 
L 249.946197 202.567337 
L 255.122449 202.643466 
L 260.298701 202.619425 
L 281.003711 202.847819 
L 286.179963 202.799735 
L 291.356215 202.81977 
L 296.532468 202.919943 
L 312.061224 202.951999 
L 317.237477 203.148336 
L 322.413729 203.360702 
L 327.589981 202.563329 
L 332.766234 201.890169 
L 348.294991 201.794004 
L 353.471243 201.942257 
L 358.647495 201.854105 
L 363.823748 202.298872 
L 369 202.459148 
L 384.528757 202.391032 
L 389.705009 202.010377 
L 394.881262 201.942257 
L 400.057514 201.697836 
L 405.233766 202.050446 
L 420.762523 201.910205 
L 425.938776 201.74592 
L 431.115028 202.190687 
L 436.29128 201.773968 
L 441.467532 199.886717 
L 456.996289 199.910757 
L 462.172542 199.902745 
L 467.348794 199.826613 
L 472.525046 199.686372 
L 477.701299 199.40589 
L 493.230056 199.510067 
L 498.406308 199.598219 
L 503.58256 199.490034 
L 508.758813 199.554143 
L 529.463822 199.449963 
L 534.640074 199.606235 
L 539.816327 199.662331 
L 544.992579 199.409894 
L 550.168831 199.53411 
L 565.697588 199.44195 
L 570.87384 199.421915 
L 576.050093 199.44195 
L 581.226345 199.413902 
L 586.402597 199.42993 
L 601.931354 199.205544 
L 607.107607 198.945095 
L 612.283859 202.923951 
L 617.460111 202.603397 
L 622.636364 202.563329 
" clip-path="url(#p12f5d045d3)" style="fill: none; stroke: #8c564b; stroke-width: 1.5; stroke-linecap: square"/>
   </g>
   <g id="line2d_18">
    <path d="M 115.363636 90.902935 
L 130.892393 87.456995 
L 136.068646 88.923523 
L 141.244898 90.185696 
L 146.42115 87.120417 
L 151.597403 85.161047 
L 167.12616 88.082071 
L 172.302412 85.3093 
L 177.478664 79.867918 
L 182.654917 76.538182 
L 187.831169 81.707098 
L 203.359926 83.349918 
L 208.536178 79.907989 
L 213.71243 82.095768 
L 218.888683 83.117523 
L 224.064935 85.048854 
L 239.593692 83.442082 
L 244.769944 82.280082 
L 249.946197 83.065432 
L 255.122449 87.384874 
L 260.298701 90.71461 
L 281.003711 94.781615 
L 286.179963 93.972225 
L 291.356215 94.653403 
L 296.532468 105.263677 
L 312.061224 104.550449 
L 317.237477 103.897321 
L 322.413729 104.125718 
L 327.589981 100.070733 
L 332.766234 95.847453 
L 348.294991 94.653403 
L 353.471243 95.542936 
L 358.647495 95.126215 
L 363.823748 98.119373 
L 369 101.753638 
L 384.528757 103.76911 
L 389.705009 100.138856 
L 394.881262 100.026663 
L 400.057514 92.141067 
L 405.233766 90.197716 
L 420.762523 88.298447 
L 425.938776 83.75462 
L 431.115028 88.76726 
L 436.29128 85.846224 
L 441.467532 83.458113 
L 456.996289 84.183361 
L 462.172542 84.083189 
L 467.348794 81.775208 
L 472.525046 80.67732 
L 477.701299 79.286924 
L 493.230056 81.40658 
L 498.406308 79.375077 
L 503.58256 80.62924 
L 508.758813 81.198213 
L 529.463822 82.941219 
L 534.640074 85.000773 
L 539.816327 85.489604 
L 544.992579 81.919463 
L 550.168831 81.687056 
L 565.697588 82.27206 
L 570.87384 82.420326 
L 576.050093 81.39456 
L 581.226345 81.334446 
L 586.402597 82.372233 
L 601.931354 82.504468 
L 607.107607 85.609818 
L 612.283859 88.226326 
L 617.460111 84.876548 
L 622.636364 82.416315 
" clip-path="url(#p12f5d045d3)" style="fill: none; stroke: #e377c2; stroke-width: 1.5; stroke-linecap: square"/>
   </g>
   <g id="line2d_19">
    <path d="M 115.363636 174.603151 
L 130.892393 174.150375 
L 136.068646 174.691303 
L 141.244898 173.954034 
L 146.42115 174.551065 
L 151.597403 174.623186 
L 167.12616 173.645501 
L 172.302412 172.683846 
L 177.478664 170.856699 
L 182.654917 171.4978 
L 187.831169 172.727923 
L 203.359926 172.928268 
L 208.536178 173.008405 
L 213.71243 174.070232 
L 218.888683 172.8321 
L 224.064935 172.876176 
L 239.593692 172.719907 
L 244.769944 173.292897 
L 249.946197 173.080532 
L 255.122449 173.521288 
L 260.298701 173.601425 
L 281.003711 175.92543 
L 286.179963 176.153827 
L 291.356215 176.798938 
L 296.532468 178.065115 
L 312.061224 177.351887 
L 317.237477 175.616897 
L 322.413729 178.077136 
L 327.589981 177.920867 
L 332.766234 178.213375 
L 348.294991 179.555684 
L 353.471243 180.132679 
L 358.647495 180.725699 
L 363.823748 181.679344 
L 369 182.396584 
L 384.528757 183.871121 
L 389.705009 184.936959 
L 394.881262 184.908911 
L 400.057514 184.804731 
L 405.233766 185.858545 
L 420.762523 186.147043 
L 425.938776 185.702276 
L 431.115028 188.182551 
L 436.29128 189.168249 
L 441.467532 189.292462 
L 456.996289 187.725764 
L 462.172542 187.325074 
L 467.348794 186.599822 
L 472.525046 186.175091 
L 477.701299 184.97302 
L 493.230056 184.540274 
L 498.406308 185.081208 
L 503.58256 185.533987 
L 508.758813 185.341654 
L 529.463822 185.461863 
L 534.640074 184.744627 
L 539.816327 185.081208 
L 544.992579 184.315888 
L 550.168831 184.175647 
L 565.697588 182.865388 
L 570.87384 182.95354 
L 576.050093 182.368532 
L 581.226345 182.264355 
L 586.402597 182.328461 
L 601.931354 182.881416 
L 607.107607 184.103523 
L 612.283859 184.684522 
L 617.460111 183.654748 
L 622.636364 183.402314 
" clip-path="url(#p12f5d045d3)" style="fill: none; stroke: #7f7f7f; stroke-width: 1.5; stroke-linecap: square"/>
   </g>
   <g id="line2d_20">
    <path d="M 115.363636 222.910386 
L 130.892393 222.9184 
L 136.068646 222.886345 
L 141.244898 222.878331 
L 146.42115 222.63391 
L 151.597403 222.894359 
L 167.12616 223.102718 
L 172.302412 222.718055 
L 177.478664 222.962477 
L 182.654917 223.074669 
L 187.831169 223.186863 
L 203.359926 223.198884 
L 208.536178 223.114739 
L 213.71243 223.218918 
L 218.888683 223.451319 
L 224.064935 223.238952 
L 239.593692 223.142787 
L 244.769944 223.166828 
L 249.946197 223.006552 
L 255.122449 223.134773 
L 260.298701 223.19087 
L 281.003711 223.455326 
L 286.179963 223.52745 
L 291.356215 223.52745 
L 296.532468 223.555498 
L 312.061224 223.731802 
L 317.237477 223.81194 
L 322.413729 223.831975 
L 327.589981 223.827968 
L 332.766234 223.64365 
L 348.294991 223.683719 
L 353.471243 223.880057 
L 358.647495 223.795913 
L 363.823748 223.968209 
L 369 224.38092 
L 384.528757 224.525169 
L 389.705009 224.396948 
L 394.881262 224.465066 
L 400.057514 224.384927 
L 405.233766 224.729521 
L 420.762523 224.625342 
L 425.938776 224.497121 
L 431.115028 224.793632 
L 436.29128 224.901818 
L 441.467532 224.801646 
L 456.996289 224.645376 
L 462.172542 224.513148 
L 467.348794 224.300783 
L 472.525046 224.256706 
L 477.701299 224.052354 
L 493.230056 224.156534 
L 498.406308 224.156534 
L 503.58256 224.04434 
L 508.758813 223.924133 
L 529.463822 223.723788 
L 534.640074 223.543477 
L 539.816327 223.559505 
L 544.992579 223.467346 
L 550.168831 223.739815 
L 565.697588 223.952182 
L 570.87384 223.916119 
L 576.050093 223.884064 
L 581.226345 224.136499 
L 586.402597 224.084409 
L 601.931354 224.020299 
L 607.107607 224.136499 
L 612.283859 224.461059 
L 617.460111 224.256706 
L 622.636364 224.220644 
" clip-path="url(#p12f5d045d3)" style="fill: none; stroke: #bcbd22; stroke-width: 1.5; stroke-linecap: square"/>
   </g>
   <g id="line2d_21">
    <path d="M 115.363636 205.231925 
L 130.892393 205.035588 
L 136.068646 204.530717 
L 141.244898 204.41452 
L 146.42115 204.466608 
L 151.597403 204.486641 
L 167.12616 204.434552 
L 172.302412 204.250235 
L 177.478664 204.338387 
L 182.654917 206.09341 
L 187.831169 205.897073 
L 203.359926 205.820941 
L 208.536178 205.672687 
L 213.71243 205.468334 
L 218.888683 205.800908 
L 224.064935 205.700735 
L 239.593692 205.247953 
L 244.769944 205.969197 
L 249.946197 205.945157 
L 255.122449 206.001253 
L 260.298701 205.905085 
L 281.003711 206.401943 
L 286.179963 206.309783 
L 291.356215 206.454032 
L 296.532468 206.225639 
L 312.061224 206.361872 
L 317.237477 206.393928 
L 322.413729 206.405948 
L 327.589981 206.630337 
L 332.766234 206.277727 
L 348.294991 206.36588 
L 353.471243 206.830682 
L 358.647495 207.207329 
L 363.823748 207.720215 
L 369 208.044773 
L 384.528757 208.794064 
L 389.705009 208.409402 
L 394.881262 209.162699 
L 400.057514 208.665843 
L 405.233766 209.142664 
L 420.762523 208.305221 
L 425.938776 207.776312 
L 431.115028 208.405394 
L 436.29128 208.645809 
L 441.467532 208.505567 
L 456.996289 208.413408 
L 462.172542 208.233097 
L 467.348794 207.940593 
L 472.525046 207.940593 
L 477.701299 207.848436 
L 493.230056 207.792337 
L 498.406308 208.092856 
L 503.58256 207.872477 
L 508.758813 207.832408 
L 529.463822 207.668124 
L 534.640074 207.371614 
L 539.816327 207.263425 
L 544.992579 207.135205 
L 550.168831 207.171268 
L 565.697588 207.02702 
L 570.87384 206.898799 
L 576.050093 206.878763 
L 581.226345 207.06308 
L 586.402597 207.263425 
L 601.931354 207.223357 
L 607.107607 207.347573 
L 612.283859 207.499834 
L 617.460111 205.865017 
L 622.636364 205.712756 
" clip-path="url(#p12f5d045d3)" style="fill: none; stroke: #17becf; stroke-width: 1.5; stroke-linecap: square"/>
   </g>
   <g id="patch_3">
    <path d="M 90 232.32 
L 90 69.12 
" style="fill: none; stroke: #000000; stroke-width: 0.8; stroke-linejoin: miter; stroke-linecap: square"/>
   </g>
   <g id="patch_4">
    <path d="M 648 232.32 
L 648 69.12 
" style="fill: none; stroke: #000000; stroke-width: 0.8; stroke-linejoin: miter; stroke-linecap: square"/>
   </g>
   <g id="patch_5">
    <path d="M 90 232.32 
L 648 232.32 
" style="fill: none; stroke: #000000; stroke-width: 0.8; stroke-linejoin: miter; stroke-linecap: square"/>
   </g>
   <g id="patch_6">
    <path d="M 90 69.12 
L 648 69.12 
" style="fill: none; stroke: #000000; stroke-width: 0.8; stroke-linejoin: miter; stroke-linecap: square"/>
   </g>
   <g id="text_14">
    <!-- S&amp;P 500 company-level Stock Prices  -->
    <g transform="translate(257.555625 63.12) scale(0.12 -0.12)">
     <defs>
      <path id="DejaVuSans-26" d="M 1556 2509 
Q 1272 2256 1139 2004 
Q 1006 1753 1006 1478 
Q 1006 1022 1337 719 
Q 1669 416 2169 416 
Q 2466 416 2725 514 
Q 2984 613 3213 813 
L 1556 2509 
z
M 1997 2859 
L 3584 1234 
Q 3769 1513 3872 1830 
Q 3975 2147 3994 2503 
L 4575 2503 
Q 4538 2091 4375 1687 
Q 4213 1284 3922 891 
L 4794 0 
L 4006 0 
L 3559 459 
Q 3234 181 2878 45 
Q 2522 -91 2113 -91 
Q 1359 -91 881 339 
Q 403 769 403 1441 
Q 403 1841 612 2192 
Q 822 2544 1241 2853 
Q 1091 3050 1012 3245 
Q 934 3441 934 3628 
Q 934 4134 1281 4442 
Q 1628 4750 2203 4750 
Q 2463 4750 2720 4694 
Q 2978 4638 3244 4525 
L 3244 3956 
Q 2972 4103 2725 4179 
Q 2478 4256 2266 4256 
Q 1938 4256 1733 4082 
Q 1528 3909 1528 3634 
Q 1528 3475 1620 3314 
Q 1713 3153 1997 2859 
z
" transform="scale(0.015625)"/>
      <path id="DejaVuSans-6d" d="M 3328 2828 
Q 3544 3216 3844 3400 
Q 4144 3584 4550 3584 
Q 5097 3584 5394 3201 
Q 5691 2819 5691 2113 
L 5691 0 
L 5113 0 
L 5113 2094 
Q 5113 2597 4934 2840 
Q 4756 3084 4391 3084 
Q 3944 3084 3684 2787 
Q 3425 2491 3425 1978 
L 3425 0 
L 2847 0 
L 2847 2094 
Q 2847 2600 2669 2842 
Q 2491 3084 2119 3084 
Q 1678 3084 1418 2786 
Q 1159 2488 1159 1978 
L 1159 0 
L 581 0 
L 581 3500 
L 1159 3500 
L 1159 2956 
Q 1356 3278 1631 3431 
Q 1906 3584 2284 3584 
Q 2666 3584 2933 3390 
Q 3200 3197 3328 2828 
z
" transform="scale(0.015625)"/>
      <path id="DejaVuSans-70" d="M 1159 525 
L 1159 -1331 
L 581 -1331 
L 581 3500 
L 1159 3500 
L 1159 2969 
Q 1341 3281 1617 3432 
Q 1894 3584 2278 3584 
Q 2916 3584 3314 3078 
Q 3713 2572 3713 1747 
Q 3713 922 3314 415 
Q 2916 -91 2278 -91 
Q 1894 -91 1617 61 
Q 1341 213 1159 525 
z
M 3116 1747 
Q 3116 2381 2855 2742 
Q 2594 3103 2138 3103 
Q 1681 3103 1420 2742 
Q 1159 2381 1159 1747 
Q 1159 1113 1420 752 
Q 1681 391 2138 391 
Q 2594 391 2855 752 
Q 3116 1113 3116 1747 
z
" transform="scale(0.015625)"/>
      <path id="DejaVuSans-6e" d="M 3513 2113 
L 3513 0 
L 2938 0 
L 2938 2094 
Q 2938 2591 2744 2837 
Q 2550 3084 2163 3084 
Q 1697 3084 1428 2787 
Q 1159 2491 1159 1978 
L 1159 0 
L 581 0 
L 581 3500 
L 1159 3500 
L 1159 2956 
Q 1366 3272 1645 3428 
Q 1925 3584 2291 3584 
Q 2894 3584 3203 3211 
Q 3513 2838 3513 2113 
z
" transform="scale(0.015625)"/>
      <path id="DejaVuSans-79" d="M 2059 -325 
Q 1816 -950 1584 -1140 
Q 1353 -1331 966 -1331 
L 506 -1331 
L 506 -850 
L 844 -850 
Q 1081 -850 1212 -737 
Q 1344 -625 1503 -206 
L 1606 56 
L 191 3500 
L 800 3500 
L 1894 763 
L 2988 3500 
L 3597 3500 
L 2059 -325 
z
" transform="scale(0.015625)"/>
      <path id="DejaVuSans-6c" d="M 603 4863 
L 1178 4863 
L 1178 0 
L 603 0 
L 603 4863 
z
" transform="scale(0.015625)"/>
      <path id="DejaVuSans-76" d="M 191 3500 
L 800 3500 
L 1894 563 
L 2988 3500 
L 3597 3500 
L 2284 0 
L 1503 0 
L 191 3500 
z
" transform="scale(0.015625)"/>
      <path id="DejaVuSans-73" d="M 2834 3397 
L 2834 2853 
Q 2591 2978 2328 3040 
Q 2066 3103 1784 3103 
Q 1356 3103 1142 2972 
Q 928 2841 928 2578 
Q 928 2378 1081 2264 
Q 1234 2150 1697 2047 
L 1894 2003 
Q 2506 1872 2764 1633 
Q 3022 1394 3022 966 
Q 3022 478 2636 193 
Q 2250 -91 1575 -91 
Q 1294 -91 989 -36 
Q 684 19 347 128 
L 347 722 
Q 666 556 975 473 
Q 1284 391 1588 391 
Q 1994 391 2212 530 
Q 2431 669 2431 922 
Q 2431 1156 2273 1281 
Q 2116 1406 1581 1522 
L 1381 1569 
Q 847 1681 609 1914 
Q 372 2147 372 2553 
Q 372 3047 722 3315 
Q 1072 3584 1716 3584 
Q 2034 3584 2315 3537 
Q 2597 3491 2834 3397 
z
" transform="scale(0.015625)"/>
     </defs>
     <use xlink:href="#DejaVuSans-53"/>
     <use xlink:href="#DejaVuSans-26" x="63.476562"/>
     <use xlink:href="#DejaVuSans-50" x="141.455078"/>
     <use xlink:href="#DejaVuSans-20" x="201.757812"/>
     <use xlink:href="#DejaVuSans-35" x="233.544922"/>
     <use xlink:href="#DejaVuSans-30" x="297.167969"/>
     <use xlink:href="#DejaVuSans-30" x="360.791016"/>
     <use xlink:href="#DejaVuSans-20" x="424.414062"/>
     <use xlink:href="#DejaVuSans-63" x="456.201172"/>
     <use xlink:href="#DejaVuSans-6f" x="511.181641"/>
     <use xlink:href="#DejaVuSans-6d" x="572.363281"/>
     <use xlink:href="#DejaVuSans-70" x="669.775391"/>
     <use xlink:href="#DejaVuSans-61" x="733.251953"/>
     <use xlink:href="#DejaVuSans-6e" x="794.53125"/>
     <use xlink:href="#DejaVuSans-79" x="857.910156"/>
     <use xlink:href="#DejaVuSans-2d" x="915.339844"/>
     <use xlink:href="#DejaVuSans-6c" x="951.423828"/>
     <use xlink:href="#DejaVuSans-65" x="979.207031"/>
     <use xlink:href="#DejaVuSans-76" x="1040.730469"/>
     <use xlink:href="#DejaVuSans-65" x="1099.910156"/>
     <use xlink:href="#DejaVuSans-6c" x="1161.433594"/>
     <use xlink:href="#DejaVuSans-20" x="1189.216797"/>
     <use xlink:href="#DejaVuSans-53" x="1221.003906"/>
     <use xlink:href="#DejaVuSans-74" x="1284.480469"/>
     <use xlink:href="#DejaVuSans-6f" x="1323.689453"/>
     <use xlink:href="#DejaVuSans-63" x="1384.871094"/>
     <use xlink:href="#DejaVuSans-6b" x="1439.851562"/>
     <use xlink:href="#DejaVuSans-20" x="1497.761719"/>
     <use xlink:href="#DejaVuSans-50" x="1529.548828"/>
     <use xlink:href="#DejaVuSans-72" x="1588.101562"/>
     <use xlink:href="#DejaVuSans-69" x="1629.214844"/>
     <use xlink:href="#DejaVuSans-63" x="1656.998047"/>
     <use xlink:href="#DejaVuSans-65" x="1711.978516"/>
     <use xlink:href="#DejaVuSans-73" x="1773.501953"/>
     <use xlink:href="#DejaVuSans-20" x="1825.601562"/>
    </g>
   </g>
  </g>
  <g id="axes_2">
   <g id="patch_7">
    <path d="M 90 460.8 
L 648 460.8 
L 648 297.6 
L 90 297.6 
z
" style="fill: #ffffff"/>
   </g>
   <g id="matplotlib.axis_3">
    <g id="xtick_8">
     <g id="line2d_22">
      <g>
       <use xlink:href="#mfe9ba82535" x="177.478664" y="460.8" style="stroke: #000000; stroke-width: 0.8"/>
      </g>
     </g>
     <g id="text_15">
      <!-- 2023-02-01 -->
      <g transform="translate(126.109213 503.438252) rotate(-30) scale(0.1 -0.1)">
       <use xlink:href="#DejaVuSans-32"/>
       <use xlink:href="#DejaVuSans-30" x="63.623047"/>
       <use xlink:href="#DejaVuSans-32" x="127.246094"/>
       <use xlink:href="#DejaVuSans-33" x="190.869141"/>
       <use xlink:href="#DejaVuSans-2d" x="254.492188"/>
       <use xlink:href="#DejaVuSans-30" x="290.576172"/>
       <use xlink:href="#DejaVuSans-32" x="354.199219"/>
       <use xlink:href="#DejaVuSans-2d" x="417.822266"/>
       <use xlink:href="#DejaVuSans-30" x="453.90625"/>
       <use xlink:href="#DejaVuSans-31" x="517.529297"/>
      </g>
     </g>
    </g>
    <g id="xtick_9">
     <g id="line2d_23">
      <g>
       <use xlink:href="#mfe9ba82535" x="249.946197" y="460.8" style="stroke: #000000; stroke-width: 0.8"/>
      </g>
     </g>
     <g id="text_16">
      <!-- 2023-02-15 -->
      <g transform="translate(198.576745 503.438252) rotate(-30) scale(0.1 -0.1)">
       <use xlink:href="#DejaVuSans-32"/>
       <use xlink:href="#DejaVuSans-30" x="63.623047"/>
       <use xlink:href="#DejaVuSans-32" x="127.246094"/>
       <use xlink:href="#DejaVuSans-33" x="190.869141"/>
       <use xlink:href="#DejaVuSans-2d" x="254.492188"/>
       <use xlink:href="#DejaVuSans-30" x="290.576172"/>
       <use xlink:href="#DejaVuSans-32" x="354.199219"/>
       <use xlink:href="#DejaVuSans-2d" x="417.822266"/>
       <use xlink:href="#DejaVuSans-31" x="453.90625"/>
       <use xlink:href="#DejaVuSans-35" x="517.529297"/>
      </g>
     </g>
    </g>
    <g id="xtick_10">
     <g id="line2d_24">
      <g>
       <use xlink:href="#mfe9ba82535" x="322.413729" y="460.8" style="stroke: #000000; stroke-width: 0.8"/>
      </g>
     </g>
     <g id="text_17">
      <!-- 2023-03-01 -->
      <g transform="translate(271.044278 503.438252) rotate(-30) scale(0.1 -0.1)">
       <use xlink:href="#DejaVuSans-32"/>
       <use xlink:href="#DejaVuSans-30" x="63.623047"/>
       <use xlink:href="#DejaVuSans-32" x="127.246094"/>
       <use xlink:href="#DejaVuSans-33" x="190.869141"/>
       <use xlink:href="#DejaVuSans-2d" x="254.492188"/>
       <use xlink:href="#DejaVuSans-30" x="290.576172"/>
       <use xlink:href="#DejaVuSans-33" x="354.199219"/>
       <use xlink:href="#DejaVuSans-2d" x="417.822266"/>
       <use xlink:href="#DejaVuSans-30" x="453.90625"/>
       <use xlink:href="#DejaVuSans-31" x="517.529297"/>
      </g>
     </g>
    </g>
    <g id="xtick_11">
     <g id="line2d_25">
      <g>
       <use xlink:href="#mfe9ba82535" x="394.881262" y="460.8" style="stroke: #000000; stroke-width: 0.8"/>
      </g>
     </g>
     <g id="text_18">
      <!-- 2023-03-15 -->
      <g transform="translate(343.51181 503.438252) rotate(-30) scale(0.1 -0.1)">
       <use xlink:href="#DejaVuSans-32"/>
       <use xlink:href="#DejaVuSans-30" x="63.623047"/>
       <use xlink:href="#DejaVuSans-32" x="127.246094"/>
       <use xlink:href="#DejaVuSans-33" x="190.869141"/>
       <use xlink:href="#DejaVuSans-2d" x="254.492188"/>
       <use xlink:href="#DejaVuSans-30" x="290.576172"/>
       <use xlink:href="#DejaVuSans-33" x="354.199219"/>
       <use xlink:href="#DejaVuSans-2d" x="417.822266"/>
       <use xlink:href="#DejaVuSans-31" x="453.90625"/>
       <use xlink:href="#DejaVuSans-35" x="517.529297"/>
      </g>
     </g>
    </g>
    <g id="xtick_12">
     <g id="line2d_26">
      <g>
       <use xlink:href="#mfe9ba82535" x="482.877551" y="460.8" style="stroke: #000000; stroke-width: 0.8"/>
      </g>
     </g>
     <g id="text_19">
      <!-- 2023-04-01 -->
      <g transform="translate(431.5081 503.438252) rotate(-30) scale(0.1 -0.1)">
       <use xlink:href="#DejaVuSans-32"/>
       <use xlink:href="#DejaVuSans-30" x="63.623047"/>
       <use xlink:href="#DejaVuSans-32" x="127.246094"/>
       <use xlink:href="#DejaVuSans-33" x="190.869141"/>
       <use xlink:href="#DejaVuSans-2d" x="254.492188"/>
       <use xlink:href="#DejaVuSans-30" x="290.576172"/>
       <use xlink:href="#DejaVuSans-34" x="354.199219"/>
       <use xlink:href="#DejaVuSans-2d" x="417.822266"/>
       <use xlink:href="#DejaVuSans-30" x="453.90625"/>
       <use xlink:href="#DejaVuSans-31" x="517.529297"/>
      </g>
     </g>
    </g>
    <g id="xtick_13">
     <g id="line2d_27">
      <g>
       <use xlink:href="#mfe9ba82535" x="555.345083" y="460.8" style="stroke: #000000; stroke-width: 0.8"/>
      </g>
     </g>
     <g id="text_20">
      <!-- 2023-04-15 -->
      <g transform="translate(503.975632 503.438252) rotate(-30) scale(0.1 -0.1)">
       <use xlink:href="#DejaVuSans-32"/>
       <use xlink:href="#DejaVuSans-30" x="63.623047"/>
       <use xlink:href="#DejaVuSans-32" x="127.246094"/>
       <use xlink:href="#DejaVuSans-33" x="190.869141"/>
       <use xlink:href="#DejaVuSans-2d" x="254.492188"/>
       <use xlink:href="#DejaVuSans-30" x="290.576172"/>
       <use xlink:href="#DejaVuSans-34" x="354.199219"/>
       <use xlink:href="#DejaVuSans-2d" x="417.822266"/>
       <use xlink:href="#DejaVuSans-31" x="453.90625"/>
       <use xlink:href="#DejaVuSans-35" x="517.529297"/>
      </g>
     </g>
    </g>
    <g id="xtick_14">
     <g id="line2d_28">
      <g>
       <use xlink:href="#mfe9ba82535" x="638.165121" y="460.8" style="stroke: #000000; stroke-width: 0.8"/>
      </g>
     </g>
     <g id="text_21">
      <!-- 2023-05-01 -->
      <g transform="translate(586.795669 503.438252) rotate(-30) scale(0.1 -0.1)">
       <use xlink:href="#DejaVuSans-32"/>
       <use xlink:href="#DejaVuSans-30" x="63.623047"/>
       <use xlink:href="#DejaVuSans-32" x="127.246094"/>
       <use xlink:href="#DejaVuSans-33" x="190.869141"/>
       <use xlink:href="#DejaVuSans-2d" x="254.492188"/>
       <use xlink:href="#DejaVuSans-30" x="290.576172"/>
       <use xlink:href="#DejaVuSans-35" x="354.199219"/>
       <use xlink:href="#DejaVuSans-2d" x="417.822266"/>
       <use xlink:href="#DejaVuSans-30" x="453.90625"/>
       <use xlink:href="#DejaVuSans-31" x="517.529297"/>
      </g>
     </g>
    </g>
    <g id="text_22">
     <!-- Date -->
     <g transform="translate(357.049219 516.837752) scale(0.1 -0.1)">
      <use xlink:href="#DejaVuSans-44"/>
      <use xlink:href="#DejaVuSans-61" x="77.001953"/>
      <use xlink:href="#DejaVuSans-74" x="138.28125"/>
      <use xlink:href="#DejaVuSans-65" x="177.490234"/>
     </g>
    </g>
   </g>
   <g id="matplotlib.axis_4">
    <g id="ytick_5">
     <g id="line2d_29">
      <g>
       <use xlink:href="#mdb6edff104" x="90" y="455.117927" style="stroke: #000000; stroke-width: 0.8"/>
      </g>
     </g>
     <g id="text_23">
      <!-- 0 -->
      <g transform="translate(76.6375 458.917146) scale(0.1 -0.1)">
       <use xlink:href="#DejaVuSans-30"/>
      </g>
     </g>
    </g>
    <g id="ytick_6">
     <g id="line2d_30">
      <g>
       <use xlink:href="#mdb6edff104" x="90" y="425.221093" style="stroke: #000000; stroke-width: 0.8"/>
      </g>
     </g>
     <g id="text_24">
      <!-- 1 -->
      <g transform="translate(76.6375 429.020312) scale(0.1 -0.1)">
       <use xlink:href="#DejaVuSans-31"/>
      </g>
     </g>
    </g>
    <g id="ytick_7">
     <g id="line2d_31">
      <g>
       <use xlink:href="#mdb6edff104" x="90" y="395.324259" style="stroke: #000000; stroke-width: 0.8"/>
      </g>
     </g>
     <g id="text_25">
      <!-- 2 -->
      <g transform="translate(76.6375 399.123478) scale(0.1 -0.1)">
       <use xlink:href="#DejaVuSans-32"/>
      </g>
     </g>
    </g>
    <g id="ytick_8">
     <g id="line2d_32">
      <g>
       <use xlink:href="#mdb6edff104" x="90" y="365.427426" style="stroke: #000000; stroke-width: 0.8"/>
      </g>
     </g>
     <g id="text_26">
      <!-- 3 -->
      <g transform="translate(76.6375 369.226644) scale(0.1 -0.1)">
       <use xlink:href="#DejaVuSans-33"/>
      </g>
     </g>
    </g>
    <g id="ytick_9">
     <g id="line2d_33">
      <g>
       <use xlink:href="#mdb6edff104" x="90" y="335.530592" style="stroke: #000000; stroke-width: 0.8"/>
      </g>
     </g>
     <g id="text_27">
      <!-- 4 -->
      <g transform="translate(76.6375 339.32981) scale(0.1 -0.1)">
       <use xlink:href="#DejaVuSans-34"/>
      </g>
     </g>
    </g>
    <g id="ytick_10">
     <g id="line2d_34">
      <g>
       <use xlink:href="#mdb6edff104" x="90" y="305.633758" style="stroke: #000000; stroke-width: 0.8"/>
      </g>
     </g>
     <g id="text_28">
      <!-- 5 -->
      <g transform="translate(76.6375 309.432976) scale(0.1 -0.1)">
       <use xlink:href="#DejaVuSans-35"/>
      </g>
     </g>
    </g>
    <g id="text_29">
     <!-- Stock Volume -->
     <g transform="translate(70.557812 413.224219) rotate(-90) scale(0.1 -0.1)">
      <defs>
       <path id="DejaVuSans-56" d="M 1831 0 
L 50 4666 
L 709 4666 
L 2188 738 
L 3669 4666 
L 4325 4666 
L 2547 0 
L 1831 0 
z
" transform="scale(0.015625)"/>
       <path id="DejaVuSans-75" d="M 544 1381 
L 544 3500 
L 1119 3500 
L 1119 1403 
Q 1119 906 1312 657 
Q 1506 409 1894 409 
Q 2359 409 2629 706 
Q 2900 1003 2900 1516 
L 2900 3500 
L 3475 3500 
L 3475 0 
L 2900 0 
L 2900 538 
Q 2691 219 2414 64 
Q 2138 -91 1772 -91 
Q 1169 -91 856 284 
Q 544 659 544 1381 
z
M 1991 3584 
L 1991 3584 
z
" transform="scale(0.015625)"/>
      </defs>
      <use xlink:href="#DejaVuSans-53"/>
      <use xlink:href="#DejaVuSans-74" x="63.476562"/>
      <use xlink:href="#DejaVuSans-6f" x="102.685547"/>
      <use xlink:href="#DejaVuSans-63" x="163.867188"/>
      <use xlink:href="#DejaVuSans-6b" x="218.847656"/>
      <use xlink:href="#DejaVuSans-20" x="276.757812"/>
      <use xlink:href="#DejaVuSans-56" x="308.544922"/>
      <use xlink:href="#DejaVuSans-6f" x="369.203125"/>
      <use xlink:href="#DejaVuSans-6c" x="430.384766"/>
      <use xlink:href="#DejaVuSans-75" x="458.167969"/>
      <use xlink:href="#DejaVuSans-6d" x="521.546875"/>
      <use xlink:href="#DejaVuSans-65" x="618.958984"/>
     </g>
    </g>
    <g id="text_30">
     <!-- 1e7 -->
     <g transform="translate(90 294.6) scale(0.1 -0.1)">
      <defs>
       <path id="DejaVuSans-37" d="M 525 4666 
L 3525 4666 
L 3525 4397 
L 1831 0 
L 1172 0 
L 2766 4134 
L 525 4134 
L 525 4666 
z
" transform="scale(0.015625)"/>
      </defs>
      <use xlink:href="#DejaVuSans-31"/>
      <use xlink:href="#DejaVuSans-65" x="63.623047"/>
      <use xlink:href="#DejaVuSans-37" x="125.146484"/>
     </g>
    </g>
   </g>
   <g id="line2d_35">
    <path d="M 115.363636 442.042547 
L 130.892393 444.91653 
L 136.068646 424.394446 
L 141.244898 437.200157 
L 146.42115 441.288848 
L 151.597403 442.816875 
L 167.12616 437.470125 
L 172.302412 439.956645 
L 177.478664 445.847517 
L 182.654917 440.417056 
L 187.831169 447.098401 
L 203.359926 447.681688 
L 208.536178 448.592345 
L 213.71243 447.60874 
L 218.888683 444.349387 
L 224.064935 448.317892 
L 239.593692 448.398315 
L 244.769944 447.75643 
L 249.946197 447.5621 
L 255.122449 447.060432 
L 260.298701 446.664 
L 281.003711 443.49075 
L 286.179963 447.180318 
L 291.356215 446.316897 
L 296.532468 446.558763 
L 312.061224 444.486613 
L 317.237477 445.011303 
L 322.413729 440.42453 
L 327.589981 432.428323 
L 332.766234 446.026898 
L 348.294991 446.684628 
L 353.471243 445.034323 
L 358.647495 444.849262 
L 363.823748 444.762561 
L 369 444.074336 
L 384.528757 442.528072 
L 389.705009 440.851158 
L 394.881262 440.493293 
L 400.057514 444.227707 
L 405.233766 421.078289 
L 420.762523 446.980308 
L 425.938776 447.274194 
L 431.115028 446.730371 
L 436.29128 445.618806 
L 441.467532 444.495881 
L 456.996289 446.754587 
L 462.172542 447.754935 
L 467.348794 445.486363 
L 472.525046 448.093068 
L 477.701299 444.326366 
L 493.230056 443.107472 
L 498.406308 444.73386 
L 503.58256 447.189287 
L 508.758813 447.885285 
L 529.463822 446.507041 
L 534.640074 446.292382 
L 539.816327 446.971638 
L 544.992579 444.847767 
L 550.168831 446.769535 
L 565.697588 447.840739 
L 570.87384 449.401354 
L 576.050093 449.383715 
L 581.226345 444.07015 
L 586.402597 436.009366 
L 601.931354 444.546407 
L 607.107607 439.956047 
L 612.283859 445.630466 
L 617.460111 447.963316 
L 622.636364 443.20942 
" clip-path="url(#pfa923625ed)" style="fill: none; stroke: #1f77b4; stroke-width: 1.5; stroke-linecap: square"/>
   </g>
   <g id="line2d_36">
    <path d="M 115.363636 451.502503 
L 130.892393 451.91209 
L 136.068646 453.02784 
L 141.244898 453.056242 
L 146.42115 450.342805 
L 151.597403 449.985538 
L 167.12616 450.013342 
L 172.302412 436.13284 
L 177.478664 448.766943 
L 182.654917 450.25162 
L 187.831169 452.27145 
L 203.359926 451.17603 
L 208.536178 451.536885 
L 213.71243 452.566532 
L 218.888683 452.801521 
L 224.064935 452.831716 
L 239.593692 451.961121 
L 244.769944 452.499264 
L 249.946197 453.339365 
L 255.122449 452.899582 
L 260.298701 451.593988 
L 281.003711 450.832515 
L 286.179963 453.245489 
L 291.356215 452.696583 
L 296.532468 452.695088 
L 312.061224 453.119623 
L 317.237477 452.076522 
L 322.413729 449.569374 
L 327.589981 452.380872 
L 332.766234 452.64815 
L 348.294991 452.115986 
L 353.471243 452.563542 
L 358.647495 453.174334 
L 363.823748 450.641474 
L 369 451.592792 
L 384.528757 452.286996 
L 389.705009 452.635294 
L 394.881262 451.293524 
L 400.057514 452.081306 
L 405.233766 447.690956 
L 420.762523 451.906708 
L 425.938776 452.480429 
L 431.115028 452.312109 
L 436.29128 451.512967 
L 441.467532 452.499563 
L 456.996289 452.342903 
L 462.172542 452.439769 
L 467.348794 452.67416 
L 472.525046 452.336924 
L 477.701299 452.208666 
L 493.230056 452.546501 
L 498.406308 451.634946 
L 503.58256 450.038754 
L 508.758813 451.652585 
L 529.463822 452.922603 
L 534.640074 452.94084 
L 539.816327 452.220924 
L 544.992579 452.772521 
L 550.168831 450.364331 
L 565.697588 451.746461 
L 570.87384 452.593738 
L 576.050093 451.641523 
L 581.226345 452.484614 
L 586.402597 453.031427 
L 601.931354 451.572163 
L 607.107607 449.865951 
L 612.283859 449.520343 
L 617.460111 446.642474 
L 622.636364 445.327013 
" clip-path="url(#pfa923625ed)" style="fill: none; stroke: #ff7f0e; stroke-width: 1.5; stroke-linecap: square"/>
   </g>
   <g id="line2d_37">
    <path d="M 115.363636 439.935418 
L 130.892393 436.835116 
L 136.068646 441.180023 
L 141.244898 436.968157 
L 146.42115 442.682339 
L 151.597403 440.586272 
L 167.12616 441.859279 
L 172.302412 438.081814 
L 177.478664 441.567785 
L 182.654917 440.014645 
L 187.831169 443.893161 
L 203.359926 442.723896 
L 208.536178 444.94822 
L 213.71243 442.494587 
L 218.888683 443.420193 
L 224.064935 442.602216 
L 239.593692 444.023212 
L 244.769944 442.429711 
L 249.946197 442.978916 
L 255.122449 445.254962 
L 260.298701 444.462397 
L 281.003711 439.558718 
L 286.179963 428.507054 
L 291.356215 441.332198 
L 296.532468 438.744029 
L 312.061224 441.694847 
L 317.237477 431.568191 
L 322.413729 443.268317 
L 327.589981 439.541976 
L 332.766234 440.222129 
L 348.294991 440.154263 
L 353.471243 436.136427 
L 358.647495 436.424633 
L 363.823748 439.733017 
L 369 434.063381 
L 384.528757 435.526532 
L 389.705009 439.888779 
L 394.881262 438.040557 
L 400.057514 439.305193 
L 405.233766 422.685543 
L 420.762523 436.953508 
L 425.938776 441.739094 
L 431.115028 444.335036 
L 436.29128 441.58961 
L 441.467532 439.364987 
L 456.996289 441.282569 
L 462.172542 440.721406 
L 467.348794 434.847276 
L 472.525046 439.573666 
L 477.701299 435.857191 
L 493.230056 438.876771 
L 498.406308 431.263244 
L 503.58256 433.298321 
L 508.758813 439.975181 
L 529.463822 440.467881 
L 534.640074 441.191982 
L 539.816327 441.482878 
L 544.992579 440.831127 
L 550.168831 440.040356 
L 565.697588 440.748313 
L 570.87384 435.529223 
L 576.050093 417.969915 
L 581.226345 432.954806 
L 586.402597 436.279633 
L 601.931354 439.147338 
L 607.107607 438.265979 
L 612.283859 442.44167 
L 617.460111 442.390247 
L 622.636364 440.660117 
" clip-path="url(#pfa923625ed)" style="fill: none; stroke: #2ca02c; stroke-width: 1.5; stroke-linecap: square"/>
   </g>
   <g id="line2d_38">
    <path d="M 115.363636 434.013752 
L 130.892393 432.347303 
L 136.068646 439.657079 
L 141.244898 437.944289 
L 146.42115 441.431755 
L 151.597403 441.390796 
L 167.12616 441.444909 
L 172.302412 438.289896 
L 177.478664 438.854349 
L 182.654917 436.699086 
L 187.831169 435.526532 
L 203.359926 442.271258 
L 208.536178 438.967957 
L 213.71243 437.915887 
L 218.888683 418.593264 
L 224.064935 428.34023 
L 239.593692 438.367927 
L 244.769944 441.177632 
L 249.946197 438.231897 
L 255.122449 443.884192 
L 260.298701 441.477796 
L 281.003711 429.806969 
L 286.179963 437.055157 
L 291.356215 437.199858 
L 296.532468 438.312618 
L 312.061224 434.701977 
L 317.237477 432.510838 
L 322.413729 438.717122 
L 327.589981 441.461652 
L 332.766234 440.614375 
L 348.294991 443.004029 
L 353.471243 441.344755 
L 358.647495 437.598084 
L 363.823748 439.122523 
L 369 434.711843 
L 384.528757 432.235489 
L 389.705009 435.254172 
L 394.881262 436.269169 
L 400.057514 436.189644 
L 405.233766 327.289828 
L 420.762523 441.938805 
L 425.938776 441.139065 
L 431.115028 442.032382 
L 436.29128 441.413219 
L 441.467532 441.130096 
L 456.996289 443.494636 
L 462.172542 444.556871 
L 467.348794 443.27908 
L 472.525046 444.248036 
L 477.701299 440.298665 
L 493.230056 441.995011 
L 498.406308 442.488309 
L 503.58256 437.948176 
L 508.758813 438.679751 
L 529.463822 445.22357 
L 534.640074 446.520196 
L 539.816327 443.144245 
L 544.992579 443.552337 
L 550.168831 444.734458 
L 565.697588 442.100547 
L 570.87384 440.180871 
L 576.050093 440.687025 
L 581.226345 443.732914 
L 586.402597 440.731272 
L 601.931354 440.980014 
L 607.107607 438.656133 
L 612.283859 439.595491 
L 617.460111 404.10496 
L 622.636364 433.820021 
" clip-path="url(#pfa923625ed)" style="fill: none; stroke: #d62728; stroke-width: 1.5; stroke-linecap: square"/>
   </g>
   <g id="line2d_39">
    <path d="M 115.363636 445.23224 
L 130.892393 447.364781 
L 136.068646 448.524779 
L 141.244898 447.415606 
L 146.42115 449.310168 
L 151.597403 448.836304 
L 167.12616 449.937105 
L 172.302412 449.611528 
L 177.478664 449.745466 
L 182.654917 446.998246 
L 187.831169 448.636294 
L 203.359926 451.343751 
L 208.536178 450.929082 
L 213.71243 450.986783 
L 218.888683 449.880002 
L 224.064935 451.08903 
L 239.593692 451.277679 
L 244.769944 449.673415 
L 249.946197 449.466828 
L 255.122449 449.439921 
L 260.298701 446.978813 
L 281.003711 447.804564 
L 286.179963 449.665343 
L 291.356215 449.480879 
L 296.532468 449.930827 
L 312.061224 450.594835 
L 317.237477 448.659015 
L 322.413729 450.033971 
L 327.589981 448.306532 
L 332.766234 450.346094 
L 348.294991 450.18764 
L 353.471243 448.482923 
L 358.647495 450.744917 
L 363.823748 449.288643 
L 369 446.374299 
L 384.528757 445.454972 
L 389.705009 446.37131 
L 394.881262 441.640435 
L 400.057514 442.801628 
L 405.233766 435.772284 
L 420.762523 445.604456 
L 425.938776 446.653536 
L 431.115028 445.971589 
L 436.29128 439.670532 
L 441.467532 442.789669 
L 456.996289 443.925151 
L 462.172542 446.53933 
L 467.348794 447.848512 
L 472.525046 448.260789 
L 477.701299 446.121073 
L 493.230056 447.890966 
L 498.406308 448.146883 
L 503.58256 447.813533 
L 508.758813 448.763953 
L 529.463822 450.406485 
L 534.640074 445.782641 
L 539.816327 447.177328 
L 544.992579 445.657971 
L 550.168831 446.532454 
L 565.697588 446.450835 
L 570.87384 449.456065 
L 576.050093 448.526572 
L 581.226345 447.087339 
L 586.402597 450.332341 
L 601.931354 451.052855 
L 607.107607 449.331694 
L 612.283859 449.110458 
L 617.460111 449.187591 
L 622.636364 448.885932 
" clip-path="url(#pfa923625ed)" style="fill: none; stroke: #9467bd; stroke-width: 1.5; stroke-linecap: square"/>
   </g>
   <g id="line2d_40">
    <path d="M 115.363636 433.145548 
L 130.892393 436.225819 
L 136.068646 439.961428 
L 141.244898 443.146338 
L 146.42115 443.276389 
L 151.597403 442.015042 
L 167.12616 442.419546 
L 172.302412 442.806411 
L 177.478664 441.43893 
L 182.654917 441.078075 
L 187.831169 437.834568 
L 203.359926 415.039428 
L 208.536178 410.626356 
L 213.71243 375.221329 
L 218.888683 417.463762 
L 224.064935 434.42304 
L 239.593692 439.050472 
L 244.769944 436.869797 
L 249.946197 434.799441 
L 255.122449 440.389252 
L 260.298701 439.078874 
L 281.003711 434.516318 
L 286.179963 443.329008 
L 291.356215 443.102091 
L 296.532468 443.446502 
L 312.061224 443.430956 
L 317.237477 441.880207 
L 322.413729 442.303546 
L 327.589981 430.701781 
L 332.766234 427.824211 
L 348.294991 441.518456 
L 353.471243 439.178729 
L 358.647495 442.292186 
L 363.823748 440.806014 
L 369 439.2741 
L 384.528757 437.97867 
L 389.705009 438.989781 
L 394.881262 433.737506 
L 400.057514 440.518705 
L 405.233766 426.987398 
L 420.762523 435.864067 
L 425.938776 438.96407 
L 431.115028 444.366428 
L 436.29128 442.403103 
L 441.467532 381.84587 
L 456.996289 433.321342 
L 462.172542 438.832823 
L 467.348794 435.142059 
L 472.525046 440.011057 
L 477.701299 439.468729 
L 493.230056 435.760624 
L 498.406308 432.059396 
L 503.58256 432.578405 
L 508.758813 435.314862 
L 529.463822 440.321984 
L 534.640074 430.218648 
L 539.816327 433.845433 
L 544.992579 438.832524 
L 550.168831 444.545809 
L 565.697588 441.411425 
L 570.87384 440.172201 
L 576.050093 439.962026 
L 581.226345 434.101051 
L 586.402597 438.356566 
L 601.931354 430.738255 
L 607.107607 415.104902 
L 612.283859 305.018182 
L 617.460111 418.806429 
L 622.636364 425.748175 
" clip-path="url(#pfa923625ed)" style="fill: none; stroke: #8c564b; stroke-width: 1.5; stroke-linecap: square"/>
   </g>
   <g id="line2d_41">
    <path d="M 115.363636 445.702218 
L 130.892393 445.589507 
L 136.068646 447.744172 
L 141.244898 448.423727 
L 146.42115 448.090677 
L 151.597403 447.298111 
L 167.12616 447.154607 
L 172.302412 447.427266 
L 177.478664 445.066612 
L 182.654917 443.0994 
L 187.831169 447.059535 
L 203.359926 448.033574 
L 208.536178 447.714873 
L 213.71243 447.141153 
L 218.888683 448.345697 
L 224.064935 449.598075 
L 239.593692 449.505395 
L 244.769944 447.704409 
L 249.946197 448.87487 
L 255.122449 446.397021 
L 260.298701 446.19163 
L 281.003711 446.140805 
L 286.179963 447.346843 
L 291.356215 445.686971 
L 296.532468 429.871546 
L 312.061224 444.652242 
L 317.237477 447.003329 
L 322.413729 448.009357 
L 327.589981 443.620203 
L 332.766234 443.979862 
L 348.294991 445.968599 
L 353.471243 448.382769 
L 358.647495 447.587214 
L 363.823748 443.762213 
L 369 442.716123 
L 384.528757 442.550793 
L 389.705009 443.604956 
L 394.881262 441.284363 
L 400.057514 434.349793 
L 405.233766 435.011111 
L 420.762523 443.318245 
L 425.938776 441.726537 
L 431.115028 443.522739 
L 436.29128 445.734507 
L 441.467532 446.168609 
L 456.996289 446.650546 
L 462.172542 449.793899 
L 467.348794 447.650894 
L 472.525046 448.722995 
L 477.701299 445.96262 
L 493.230056 447.008112 
L 498.406308 447.435039 
L 503.58256 448.30982 
L 508.758813 449.629168 
L 529.463822 450.066259 
L 534.640074 448.656923 
L 539.816327 449.203736 
L 544.992579 447.838646 
L 550.168831 450.557165 
L 565.697588 450.291681 
L 570.87384 450.374197 
L 576.050093 449.810641 
L 581.226345 449.294323 
L 586.402597 449.613023 
L 601.931354 450.540423 
L 607.107607 447.903522 
L 612.283859 446.737247 
L 617.460111 448.125656 
L 622.636364 448.955592 
" clip-path="url(#pfa923625ed)" style="fill: none; stroke: #e377c2; stroke-width: 1.5; stroke-linecap: square"/>
   </g>
   <g id="line2d_42">
    <path d="M 115.363636 452.276233 
L 130.892393 452.704356 
L 136.068646 452.571016 
L 141.244898 451.907007 
L 146.42115 453.198252 
L 151.597403 451.531503 
L 167.12616 452.243347 
L 172.302412 449.612126 
L 177.478664 452.096852 
L 182.654917 452.914531 
L 187.831169 453.381818 
L 203.359926 452.644861 
L 208.536178 452.353068 
L 213.71243 452.050512 
L 218.888683 452.051708 
L 224.064935 451.783832 
L 239.593692 453.038901 
L 244.769944 452.264275 
L 249.946197 451.846616 
L 255.122449 451.024154 
L 260.298701 451.292328 
L 281.003711 451.321029 
L 286.179963 449.778652 
L 291.356215 450.341609 
L 296.532468 448.898489 
L 312.061224 447.740884 
L 317.237477 446.345299 
L 322.413729 447.339967 
L 327.589981 450.389444 
L 332.766234 449.415106 
L 348.294991 450.312609 
L 353.471243 451.872327 
L 358.647495 450.793051 
L 363.823748 451.142545 
L 369 450.875567 
L 384.528757 449.088035 
L 389.705009 448.688015 
L 394.881262 449.606446 
L 400.057514 449.403148 
L 405.233766 442.157351 
L 420.762523 449.761312 
L 425.938776 451.261236 
L 431.115028 448.955891 
L 436.29128 448.951107 
L 441.467532 449.109262 
L 456.996289 449.940992 
L 462.172542 451.984739 
L 467.348794 451.017577 
L 472.525046 451.025948 
L 477.701299 452.04244 
L 493.230056 450.704557 
L 498.406308 452.425418 
L 503.58256 452.437676 
L 508.758813 452.039151 
L 529.463822 452.371305 
L 534.640074 451.580534 
L 539.816327 451.959925 
L 544.992579 450.519196 
L 550.168831 452.595232 
L 565.697588 450.824742 
L 570.87384 451.723142 
L 576.050093 449.342756 
L 581.226345 451.710884 
L 586.402597 451.703111 
L 601.931354 452.677748 
L 607.107607 452.325862 
L 612.283859 451.617905 
L 617.460111 452.62483 
L 622.636364 453.099592 
" clip-path="url(#pfa923625ed)" style="fill: none; stroke: #7f7f7f; stroke-width: 1.5; stroke-linecap: square"/>
   </g>
   <g id="line2d_43">
    <path d="M 115.363636 446.199702 
L 130.892393 446.997648 
L 136.068646 443.832769 
L 141.244898 428.936373 
L 146.42115 443.565492 
L 151.597403 440.717818 
L 167.12616 442.797143 
L 172.302412 437.948176 
L 177.478664 440.347695 
L 182.654917 438.60172 
L 187.831169 444.111707 
L 203.359926 446.681938 
L 208.536178 444.765252 
L 213.71243 441.270611 
L 218.888683 443.920367 
L 224.064935 444.790066 
L 239.593692 448.036862 
L 244.769944 449.079664 
L 249.946197 444.806509 
L 255.122449 445.175735 
L 260.298701 445.463044 
L 281.003711 447.243101 
L 286.179963 446.444856 
L 291.356215 433.696547 
L 296.532468 443.568481 
L 312.061224 427.162893 
L 317.237477 432.39155 
L 322.413729 442.049423 
L 327.589981 445.200251 
L 332.766234 445.41192 
L 348.294991 440.862519 
L 353.471243 446.747113 
L 358.647495 441.437734 
L 363.823748 445.526126 
L 369 438.716524 
L 384.528757 437.666547 
L 389.705009 438.26867 
L 394.881262 440.459809 
L 400.057514 441.234735 
L 405.233766 429.911309 
L 420.762523 438.023815 
L 425.938776 438.624741 
L 431.115028 446.179671 
L 436.29128 445.436735 
L 441.467532 443.38342 
L 456.996289 438.706957 
L 462.172542 444.09347 
L 467.348794 442.34899 
L 472.525046 440.045438 
L 477.701299 442.229402 
L 493.230056 444.750602 
L 498.406308 446.802422 
L 503.58256 444.535943 
L 508.758813 440.950117 
L 529.463822 439.076183 
L 534.640074 439.736006 
L 539.816327 443.027648 
L 544.992579 443.665347 
L 550.168831 443.550244 
L 565.697588 433.517465 
L 570.87384 442.003681 
L 576.050093 446.646659 
L 581.226345 440.252923 
L 586.402597 441.872135 
L 601.931354 445.34525 
L 607.107607 446.854143 
L 612.283859 443.425874 
L 617.460111 441.244899 
L 622.636364 443.897945 
" clip-path="url(#pfa923625ed)" style="fill: none; stroke: #bcbd22; stroke-width: 1.5; stroke-linecap: square"/>
   </g>
   <g id="line2d_44">
    <path d="M 115.363636 428.301962 
L 130.892393 447.680791 
L 136.068646 448.123264 
L 141.244898 447.789615 
L 146.42115 446.50166 
L 151.597403 448.08978 
L 167.12616 449.80526 
L 172.302412 440.976426 
L 177.478664 445.662157 
L 182.654917 438.468978 
L 187.831169 445.152117 
L 203.359926 448.59115 
L 208.536178 448.53016 
L 213.71243 448.480531 
L 218.888683 449.435436 
L 224.064935 450.111105 
L 239.593692 448.335233 
L 244.769944 447.650595 
L 249.946197 450.270455 
L 255.122449 450.036661 
L 260.298701 449.824394 
L 281.003711 449.559508 
L 286.179963 449.046777 
L 291.356215 449.144839 
L 296.532468 449.692549 
L 312.061224 449.842033 
L 317.237477 445.949166 
L 322.413729 447.743873 
L 327.589981 449.185798 
L 332.766234 449.585817 
L 348.294991 448.699675 
L 353.471243 449.507786 
L 358.647495 448.145388 
L 363.823748 445.454374 
L 369 444.310521 
L 384.528757 439.77248 
L 389.705009 445.034622 
L 394.881262 444.592149 
L 400.057514 445.898043 
L 405.233766 433.130301 
L 420.762523 445.77427 
L 425.938776 446.413165 
L 431.115028 449.091025 
L 436.29128 448.558861 
L 441.467532 448.649448 
L 456.996289 448.178573 
L 462.172542 450.132929 
L 467.348794 450.086888 
L 472.525046 449.42258 
L 477.701299 447.016483 
L 493.230056 447.771378 
L 498.406308 449.391488 
L 503.58256 448.451232 
L 508.758813 448.07513 
L 529.463822 449.781641 
L 534.640074 449.471013 
L 539.816327 448.21415 
L 544.992579 447.216194 
L 550.168831 448.903272 
L 565.697588 448.290686 
L 570.87384 448.838396 
L 576.050093 449.550838 
L 581.226345 450.269259 
L 586.402597 448.313109 
L 601.931354 449.530508 
L 607.107607 448.089481 
L 612.283859 446.839793 
L 617.460111 443.85579 
L 622.636364 442.567535 
" clip-path="url(#pfa923625ed)" style="fill: none; stroke: #17becf; stroke-width: 1.5; stroke-linecap: square"/>
   </g>
   <g id="patch_8">
    <path d="M 90 460.8 
L 90 297.6 
" style="fill: none; stroke: #000000; stroke-width: 0.8; stroke-linejoin: miter; stroke-linecap: square"/>
   </g>
   <g id="patch_9">
    <path d="M 648 460.8 
L 648 297.6 
" style="fill: none; stroke: #000000; stroke-width: 0.8; stroke-linejoin: miter; stroke-linecap: square"/>
   </g>
   <g id="patch_10">
    <path d="M 90 460.8 
L 648 460.8 
" style="fill: none; stroke: #000000; stroke-width: 0.8; stroke-linejoin: miter; stroke-linecap: square"/>
   </g>
   <g id="patch_11">
    <path d="M 90 297.6 
L 648 297.6 
" style="fill: none; stroke: #000000; stroke-width: 0.8; stroke-linejoin: miter; stroke-linecap: square"/>
   </g>
   <g id="text_31">
    <!-- S&amp;P 500 company-level Stock Volume -->
    <g transform="translate(254.909063 291.6) scale(0.12 -0.12)">
     <use xlink:href="#DejaVuSans-53"/>
     <use xlink:href="#DejaVuSans-26" x="63.476562"/>
     <use xlink:href="#DejaVuSans-50" x="141.455078"/>
     <use xlink:href="#DejaVuSans-20" x="201.757812"/>
     <use xlink:href="#DejaVuSans-35" x="233.544922"/>
     <use xlink:href="#DejaVuSans-30" x="297.167969"/>
     <use xlink:href="#DejaVuSans-30" x="360.791016"/>
     <use xlink:href="#DejaVuSans-20" x="424.414062"/>
     <use xlink:href="#DejaVuSans-63" x="456.201172"/>
     <use xlink:href="#DejaVuSans-6f" x="511.181641"/>
     <use xlink:href="#DejaVuSans-6d" x="572.363281"/>
     <use xlink:href="#DejaVuSans-70" x="669.775391"/>
     <use xlink:href="#DejaVuSans-61" x="733.251953"/>
     <use xlink:href="#DejaVuSans-6e" x="794.53125"/>
     <use xlink:href="#DejaVuSans-79" x="857.910156"/>
     <use xlink:href="#DejaVuSans-2d" x="915.339844"/>
     <use xlink:href="#DejaVuSans-6c" x="951.423828"/>
     <use xlink:href="#DejaVuSans-65" x="979.207031"/>
     <use xlink:href="#DejaVuSans-76" x="1040.730469"/>
     <use xlink:href="#DejaVuSans-65" x="1099.910156"/>
     <use xlink:href="#DejaVuSans-6c" x="1161.433594"/>
     <use xlink:href="#DejaVuSans-20" x="1189.216797"/>
     <use xlink:href="#DejaVuSans-53" x="1221.003906"/>
     <use xlink:href="#DejaVuSans-74" x="1284.480469"/>
     <use xlink:href="#DejaVuSans-6f" x="1323.689453"/>
     <use xlink:href="#DejaVuSans-63" x="1384.871094"/>
     <use xlink:href="#DejaVuSans-6b" x="1439.851562"/>
     <use xlink:href="#DejaVuSans-20" x="1497.761719"/>
     <use xlink:href="#DejaVuSans-56" x="1529.548828"/>
     <use xlink:href="#DejaVuSans-6f" x="1590.207031"/>
     <use xlink:href="#DejaVuSans-6c" x="1651.388672"/>
     <use xlink:href="#DejaVuSans-75" x="1679.171875"/>
     <use xlink:href="#DejaVuSans-6d" x="1742.550781"/>
     <use xlink:href="#DejaVuSans-65" x="1839.962891"/>
    </g>
   </g>
  </g>
  <g id="legend_1">
   <g id="patch_12">
    <path d="M 653.279688 154.78125 
L 713 154.78125 
Q 715 154.78125 715 152.78125 
L 715 7 
Q 715 5 713 5 
L 653.279688 5 
Q 651.279688 5 651.279688 7 
L 651.279688 152.78125 
Q 651.279688 154.78125 653.279688 154.78125 
z
" style="fill: #ffffff; opacity: 0.8; stroke: #cccccc; stroke-linejoin: miter"/>
   </g>
   <g id="line2d_45">
    <path d="M 655.279688 13.098438 
L 665.279688 13.098438 
L 675.279688 13.098438 
" style="fill: none; stroke: #1f77b4; stroke-width: 1.5; stroke-linecap: square"/>
   </g>
   <g id="text_32">
    <!-- MMM -->
    <g transform="translate(683.279688 16.598438) scale(0.1 -0.1)">
     <defs>
      <path id="DejaVuSans-4d" d="M 628 4666 
L 1569 4666 
L 2759 1491 
L 3956 4666 
L 4897 4666 
L 4897 0 
L 4281 0 
L 4281 4097 
L 3078 897 
L 2444 897 
L 1241 4097 
L 1241 0 
L 628 0 
L 628 4666 
z
" transform="scale(0.015625)"/>
     </defs>
     <use xlink:href="#DejaVuSans-4d"/>
     <use xlink:href="#DejaVuSans-4d" x="86.279297"/>
     <use xlink:href="#DejaVuSans-4d" x="172.558594"/>
    </g>
   </g>
   <g id="line2d_46">
    <path d="M 655.279688 27.776563 
L 665.279688 27.776563 
L 675.279688 27.776563 
" style="fill: none; stroke: #ff7f0e; stroke-width: 1.5; stroke-linecap: square"/>
   </g>
   <g id="text_33">
    <!-- AOS -->
    <g transform="translate(683.279688 31.276563) scale(0.1 -0.1)">
     <defs>
      <path id="DejaVuSans-41" d="M 2188 4044 
L 1331 1722 
L 3047 1722 
L 2188 4044 
z
M 1831 4666 
L 2547 4666 
L 4325 0 
L 3669 0 
L 3244 1197 
L 1141 1197 
L 716 0 
L 50 0 
L 1831 4666 
z
" transform="scale(0.015625)"/>
      <path id="DejaVuSans-4f" d="M 2522 4238 
Q 1834 4238 1429 3725 
Q 1025 3213 1025 2328 
Q 1025 1447 1429 934 
Q 1834 422 2522 422 
Q 3209 422 3611 934 
Q 4013 1447 4013 2328 
Q 4013 3213 3611 3725 
Q 3209 4238 2522 4238 
z
M 2522 4750 
Q 3503 4750 4090 4092 
Q 4678 3434 4678 2328 
Q 4678 1225 4090 567 
Q 3503 -91 2522 -91 
Q 1538 -91 948 565 
Q 359 1222 359 2328 
Q 359 3434 948 4092 
Q 1538 4750 2522 4750 
z
" transform="scale(0.015625)"/>
     </defs>
     <use xlink:href="#DejaVuSans-41"/>
     <use xlink:href="#DejaVuSans-4f" x="66.658203"/>
     <use xlink:href="#DejaVuSans-53" x="145.369141"/>
    </g>
   </g>
   <g id="line2d_47">
    <path d="M 655.279688 42.454688 
L 665.279688 42.454688 
L 675.279688 42.454688 
" style="fill: none; stroke: #2ca02c; stroke-width: 1.5; stroke-linecap: square"/>
   </g>
   <g id="text_34">
    <!-- ABT -->
    <g transform="translate(683.279688 45.954688) scale(0.1 -0.1)">
     <defs>
      <path id="DejaVuSans-42" d="M 1259 2228 
L 1259 519 
L 2272 519 
Q 2781 519 3026 730 
Q 3272 941 3272 1375 
Q 3272 1813 3026 2020 
Q 2781 2228 2272 2228 
L 1259 2228 
z
M 1259 4147 
L 1259 2741 
L 2194 2741 
Q 2656 2741 2882 2914 
Q 3109 3088 3109 3444 
Q 3109 3797 2882 3972 
Q 2656 4147 2194 4147 
L 1259 4147 
z
M 628 4666 
L 2241 4666 
Q 2963 4666 3353 4366 
Q 3744 4066 3744 3513 
Q 3744 3084 3544 2831 
Q 3344 2578 2956 2516 
Q 3422 2416 3680 2098 
Q 3938 1781 3938 1306 
Q 3938 681 3513 340 
Q 3088 0 2303 0 
L 628 0 
L 628 4666 
z
" transform="scale(0.015625)"/>
      <path id="DejaVuSans-54" d="M -19 4666 
L 3928 4666 
L 3928 4134 
L 2272 4134 
L 2272 0 
L 1638 0 
L 1638 4134 
L -19 4134 
L -19 4666 
z
" transform="scale(0.015625)"/>
     </defs>
     <use xlink:href="#DejaVuSans-41"/>
     <use xlink:href="#DejaVuSans-42" x="68.408203"/>
     <use xlink:href="#DejaVuSans-54" x="137.011719"/>
    </g>
   </g>
   <g id="line2d_48">
    <path d="M 655.279688 57.132812 
L 665.279688 57.132812 
L 675.279688 57.132812 
" style="fill: none; stroke: #d62728; stroke-width: 1.5; stroke-linecap: square"/>
   </g>
   <g id="text_35">
    <!-- ABBV -->
    <g transform="translate(683.279688 60.632812) scale(0.1 -0.1)">
     <use xlink:href="#DejaVuSans-41"/>
     <use xlink:href="#DejaVuSans-42" x="68.408203"/>
     <use xlink:href="#DejaVuSans-42" x="137.011719"/>
     <use xlink:href="#DejaVuSans-56" x="202.490234"/>
    </g>
   </g>
   <g id="line2d_49">
    <path d="M 655.279688 71.810938 
L 665.279688 71.810938 
L 675.279688 71.810938 
" style="fill: none; stroke: #9467bd; stroke-width: 1.5; stroke-linecap: square"/>
   </g>
   <g id="text_36">
    <!-- ACN -->
    <g transform="translate(683.279688 75.310938) scale(0.1 -0.1)">
     <defs>
      <path id="DejaVuSans-43" d="M 4122 4306 
L 4122 3641 
Q 3803 3938 3442 4084 
Q 3081 4231 2675 4231 
Q 1875 4231 1450 3742 
Q 1025 3253 1025 2328 
Q 1025 1406 1450 917 
Q 1875 428 2675 428 
Q 3081 428 3442 575 
Q 3803 722 4122 1019 
L 4122 359 
Q 3791 134 3420 21 
Q 3050 -91 2638 -91 
Q 1578 -91 968 557 
Q 359 1206 359 2328 
Q 359 3453 968 4101 
Q 1578 4750 2638 4750 
Q 3056 4750 3426 4639 
Q 3797 4528 4122 4306 
z
" transform="scale(0.015625)"/>
      <path id="DejaVuSans-4e" d="M 628 4666 
L 1478 4666 
L 3547 763 
L 3547 4666 
L 4159 4666 
L 4159 0 
L 3309 0 
L 1241 3903 
L 1241 0 
L 628 0 
L 628 4666 
z
" transform="scale(0.015625)"/>
     </defs>
     <use xlink:href="#DejaVuSans-41"/>
     <use xlink:href="#DejaVuSans-43" x="66.658203"/>
     <use xlink:href="#DejaVuSans-4e" x="136.482422"/>
    </g>
   </g>
   <g id="line2d_50">
    <path d="M 655.279688 86.489063 
L 665.279688 86.489063 
L 675.279688 86.489063 
" style="fill: none; stroke: #8c564b; stroke-width: 1.5; stroke-linecap: square"/>
   </g>
   <g id="text_37">
    <!-- ATVI -->
    <g transform="translate(683.279688 89.989063) scale(0.1 -0.1)">
     <defs>
      <path id="DejaVuSans-49" d="M 628 4666 
L 1259 4666 
L 1259 0 
L 628 0 
L 628 4666 
z
" transform="scale(0.015625)"/>
     </defs>
     <use xlink:href="#DejaVuSans-41"/>
     <use xlink:href="#DejaVuSans-54" x="60.658203"/>
     <use xlink:href="#DejaVuSans-56" x="121.742188"/>
     <use xlink:href="#DejaVuSans-49" x="190.150391"/>
    </g>
   </g>
   <g id="line2d_51">
    <path d="M 655.279688 101.167188 
L 665.279688 101.167188 
L 675.279688 101.167188 
" style="fill: none; stroke: #e377c2; stroke-width: 1.5; stroke-linecap: square"/>
   </g>
   <g id="text_38">
    <!-- ADBE -->
    <g transform="translate(683.279688 104.667188) scale(0.1 -0.1)">
     <defs>
      <path id="DejaVuSans-45" d="M 628 4666 
L 3578 4666 
L 3578 4134 
L 1259 4134 
L 1259 2753 
L 3481 2753 
L 3481 2222 
L 1259 2222 
L 1259 531 
L 3634 531 
L 3634 0 
L 628 0 
L 628 4666 
z
" transform="scale(0.015625)"/>
     </defs>
     <use xlink:href="#DejaVuSans-41"/>
     <use xlink:href="#DejaVuSans-44" x="68.408203"/>
     <use xlink:href="#DejaVuSans-42" x="145.410156"/>
     <use xlink:href="#DejaVuSans-45" x="214.013672"/>
    </g>
   </g>
   <g id="line2d_52">
    <path d="M 655.279688 115.845313 
L 665.279688 115.845313 
L 675.279688 115.845313 
" style="fill: none; stroke: #7f7f7f; stroke-width: 1.5; stroke-linecap: square"/>
   </g>
   <g id="text_39">
    <!-- AAP -->
    <g transform="translate(683.279688 119.345313) scale(0.1 -0.1)">
     <use xlink:href="#DejaVuSans-41"/>
     <use xlink:href="#DejaVuSans-41" x="71.158203"/>
     <use xlink:href="#DejaVuSans-50" x="139.566406"/>
    </g>
   </g>
   <g id="line2d_53">
    <path d="M 655.279688 130.523438 
L 665.279688 130.523438 
L 675.279688 130.523438 
" style="fill: none; stroke: #bcbd22; stroke-width: 1.5; stroke-linecap: square"/>
   </g>
   <g id="text_40">
    <!-- AES -->
    <g transform="translate(683.279688 134.023438) scale(0.1 -0.1)">
     <use xlink:href="#DejaVuSans-41"/>
     <use xlink:href="#DejaVuSans-45" x="68.408203"/>
     <use xlink:href="#DejaVuSans-53" x="131.591797"/>
    </g>
   </g>
   <g id="line2d_54">
    <path d="M 655.279688 145.201563 
L 665.279688 145.201563 
L 675.279688 145.201563 
" style="fill: none; stroke: #17becf; stroke-width: 1.5; stroke-linecap: square"/>
   </g>
   <g id="text_41">
    <!-- AFL -->
    <g transform="translate(683.279688 148.701563) scale(0.1 -0.1)">
     <defs>
      <path id="DejaVuSans-46" d="M 628 4666 
L 3309 4666 
L 3309 4134 
L 1259 4134 
L 1259 2759 
L 3109 2759 
L 3109 2228 
L 1259 2228 
L 1259 0 
L 628 0 
L 628 4666 
z
" transform="scale(0.015625)"/>
      <path id="DejaVuSans-4c" d="M 628 4666 
L 1259 4666 
L 1259 531 
L 3531 531 
L 3531 0 
L 628 0 
L 628 4666 
z
" transform="scale(0.015625)"/>
     </defs>
     <use xlink:href="#DejaVuSans-41"/>
     <use xlink:href="#DejaVuSans-46" x="68.408203"/>
     <use xlink:href="#DejaVuSans-4c" x="125.927734"/>
    </g>
   </g>
  </g>
 </g>
 <defs>
  <clipPath id="p12f5d045d3">
   <rect x="90" y="69.12" width="558" height="163.2"/>
  </clipPath>
  <clipPath id="pfa923625ed">
   <rect x="90" y="297.6" width="558" height="163.2"/>
  </clipPath>
 </defs>
</svg>
